%TF.GenerationSoftware,KiCad,Pcbnew,(5.1.10)-1*%
%TF.CreationDate,2022-02-24T16:30:35+08:00*%
%TF.ProjectId,hat,6861742e-6b69-4636-9164-5f7063625858,rev?*%
%TF.SameCoordinates,Original*%
%TF.FileFunction,Copper,L2,Bot*%
%TF.FilePolarity,Positive*%
%FSLAX46Y46*%
G04 Gerber Fmt 4.6, Leading zero omitted, Abs format (unit mm)*
G04 Created by KiCad (PCBNEW (5.1.10)-1) date 2022-02-24 16:30:35*
%MOMM*%
%LPD*%
G01*
G04 APERTURE LIST*
%TA.AperFunction,EtchedComponent*%
%ADD10C,0.100000*%
%TD*%
%TA.AperFunction,ComponentPad*%
%ADD11C,1.600000*%
%TD*%
%TA.AperFunction,ComponentPad*%
%ADD12R,1.600000X1.600000*%
%TD*%
%TA.AperFunction,ComponentPad*%
%ADD13O,1.700000X1.700000*%
%TD*%
%TA.AperFunction,ComponentPad*%
%ADD14R,1.700000X1.700000*%
%TD*%
%TA.AperFunction,SMDPad,CuDef*%
%ADD15R,1.500000X1.000000*%
%TD*%
%TA.AperFunction,SMDPad,CuDef*%
%ADD16R,1.000000X1.500000*%
%TD*%
%TA.AperFunction,ComponentPad*%
%ADD17C,1.700000*%
%TD*%
%TA.AperFunction,ComponentPad*%
%ADD18C,6.000000*%
%TD*%
%TA.AperFunction,ViaPad*%
%ADD19C,0.800000*%
%TD*%
%TA.AperFunction,Conductor*%
%ADD20C,0.250000*%
%TD*%
%TA.AperFunction,Conductor*%
%ADD21C,0.350000*%
%TD*%
%TA.AperFunction,Conductor*%
%ADD22C,0.200000*%
%TD*%
%TA.AperFunction,Conductor*%
%ADD23C,0.254000*%
%TD*%
%TA.AperFunction,Conductor*%
%ADD24C,0.100000*%
%TD*%
G04 APERTURE END LIST*
D10*
%TO.C,JP6*%
G36*
X136300000Y-94200000D02*
G01*
X135800000Y-94200000D01*
X135800000Y-94800000D01*
X136300000Y-94800000D01*
X136300000Y-94200000D01*
G37*
%TO.C,JP5*%
G36*
X134100000Y-102000000D02*
G01*
X133600000Y-102000000D01*
X133600000Y-102600000D01*
X134100000Y-102600000D01*
X134100000Y-102000000D01*
G37*
%TO.C,JP4*%
G36*
X134100000Y-105700000D02*
G01*
X133600000Y-105700000D01*
X133600000Y-106300000D01*
X134100000Y-106300000D01*
X134100000Y-105700000D01*
G37*
%TO.C,JP3*%
G36*
X146200000Y-106200000D02*
G01*
X145700000Y-106200000D01*
X145700000Y-106800000D01*
X146200000Y-106800000D01*
X146200000Y-106200000D01*
G37*
%TO.C,JP2*%
G36*
X146300000Y-101800000D02*
G01*
X145800000Y-101800000D01*
X145800000Y-102400000D01*
X146300000Y-102400000D01*
X146300000Y-101800000D01*
G37*
%TO.C,JP1*%
G36*
X134200000Y-109500000D02*
G01*
X133700000Y-109500000D01*
X133700000Y-110100000D01*
X134200000Y-110100000D01*
X134200000Y-109500000D01*
G37*
%TD*%
D11*
%TO.P,U4,24*%
%TO.N,Net-(U4-Pad24)*%
X160230000Y-114630000D03*
%TO.P,U4,23*%
%TO.N,GND*%
X160230000Y-112090000D03*
%TO.P,U4,22*%
%TO.N,Net-(SW1-Pad1)*%
X160230000Y-109550000D03*
%TO.P,U4,21*%
%TO.N,/MCU_VCC*%
X160230000Y-107010000D03*
%TO.P,U4,20*%
%TO.N,Net-(U4-Pad20)*%
X160230000Y-104470000D03*
%TO.P,U4,19*%
%TO.N,Net-(U4-Pad19)*%
X160230000Y-101930000D03*
%TO.P,U4,18*%
%TO.N,Net-(U4-Pad18)*%
X160230000Y-99390000D03*
%TO.P,U4,17*%
%TO.N,Net-(U4-Pad17)*%
X160230000Y-96850000D03*
%TO.P,U4,16*%
%TO.N,/SCK_H*%
X160230000Y-94310000D03*
%TO.P,U4,15*%
%TO.N,/MISO*%
X160230000Y-91770000D03*
%TO.P,U4,14*%
%TO.N,/MOSI_H*%
X160230000Y-89230000D03*
%TO.P,U4,13*%
%TO.N,Net-(U4-Pad13)*%
X160230000Y-86690000D03*
%TO.P,U4,12*%
%TO.N,Net-(U4-Pad12)*%
X175470000Y-86690000D03*
%TO.P,U4,11*%
%TO.N,Net-(U4-Pad11)*%
X175470000Y-89230000D03*
%TO.P,U4,10*%
%TO.N,/DIO0*%
X175470000Y-91770000D03*
%TO.P,U4,9*%
%TO.N,/RST_H*%
X175470000Y-94310000D03*
%TO.P,U4,8*%
%TO.N,Net-(U4-Pad8)*%
X175470000Y-96850000D03*
%TO.P,U4,7*%
%TO.N,/CS_H*%
X175470000Y-99390000D03*
%TO.P,U4,6*%
%TO.N,/MCU_SCL*%
X175470000Y-101930000D03*
%TO.P,U4,5*%
%TO.N,/MCU_SDA*%
X175470000Y-104470000D03*
%TO.P,U4,4*%
%TO.N,GND*%
X175470000Y-107010000D03*
%TO.P,U4,3*%
X175470000Y-109550000D03*
%TO.P,U4,2*%
%TO.N,Net-(U4-Pad2)*%
X175470000Y-112090000D03*
D12*
%TO.P,U4,1*%
%TO.N,Net-(U4-Pad1)*%
X175470000Y-114630000D03*
%TD*%
%TO.P,U6,16*%
%TO.N,/MCU_SCL*%
%TA.AperFunction,SMDPad,CuDef*%
G36*
G01*
X171575000Y-110300000D02*
X171575000Y-110000000D01*
G75*
G02*
X171725000Y-109850000I150000J0D01*
G01*
X173475000Y-109850000D01*
G75*
G02*
X173625000Y-110000000I0J-150000D01*
G01*
X173625000Y-110300000D01*
G75*
G02*
X173475000Y-110450000I-150000J0D01*
G01*
X171725000Y-110450000D01*
G75*
G02*
X171575000Y-110300000I0J150000D01*
G01*
G37*
%TD.AperFunction*%
%TO.P,U6,15*%
%TO.N,/MCU_SDA*%
%TA.AperFunction,SMDPad,CuDef*%
G36*
G01*
X171575000Y-109030000D02*
X171575000Y-108730000D01*
G75*
G02*
X171725000Y-108580000I150000J0D01*
G01*
X173475000Y-108580000D01*
G75*
G02*
X173625000Y-108730000I0J-150000D01*
G01*
X173625000Y-109030000D01*
G75*
G02*
X173475000Y-109180000I-150000J0D01*
G01*
X171725000Y-109180000D01*
G75*
G02*
X171575000Y-109030000I0J150000D01*
G01*
G37*
%TD.AperFunction*%
%TO.P,U6,14*%
%TO.N,/VBAT*%
%TA.AperFunction,SMDPad,CuDef*%
G36*
G01*
X171575000Y-107760000D02*
X171575000Y-107460000D01*
G75*
G02*
X171725000Y-107310000I150000J0D01*
G01*
X173475000Y-107310000D01*
G75*
G02*
X173625000Y-107460000I0J-150000D01*
G01*
X173625000Y-107760000D01*
G75*
G02*
X173475000Y-107910000I-150000J0D01*
G01*
X171725000Y-107910000D01*
G75*
G02*
X171575000Y-107760000I0J150000D01*
G01*
G37*
%TD.AperFunction*%
%TO.P,U6,13*%
%TO.N,GND*%
%TA.AperFunction,SMDPad,CuDef*%
G36*
G01*
X171575000Y-106490000D02*
X171575000Y-106190000D01*
G75*
G02*
X171725000Y-106040000I150000J0D01*
G01*
X173475000Y-106040000D01*
G75*
G02*
X173625000Y-106190000I0J-150000D01*
G01*
X173625000Y-106490000D01*
G75*
G02*
X173475000Y-106640000I-150000J0D01*
G01*
X171725000Y-106640000D01*
G75*
G02*
X171575000Y-106490000I0J150000D01*
G01*
G37*
%TD.AperFunction*%
%TO.P,U6,12*%
%TA.AperFunction,SMDPad,CuDef*%
G36*
G01*
X171575000Y-105220000D02*
X171575000Y-104920000D01*
G75*
G02*
X171725000Y-104770000I150000J0D01*
G01*
X173475000Y-104770000D01*
G75*
G02*
X173625000Y-104920000I0J-150000D01*
G01*
X173625000Y-105220000D01*
G75*
G02*
X173475000Y-105370000I-150000J0D01*
G01*
X171725000Y-105370000D01*
G75*
G02*
X171575000Y-105220000I0J150000D01*
G01*
G37*
%TD.AperFunction*%
%TO.P,U6,11*%
%TA.AperFunction,SMDPad,CuDef*%
G36*
G01*
X171575000Y-103950000D02*
X171575000Y-103650000D01*
G75*
G02*
X171725000Y-103500000I150000J0D01*
G01*
X173475000Y-103500000D01*
G75*
G02*
X173625000Y-103650000I0J-150000D01*
G01*
X173625000Y-103950000D01*
G75*
G02*
X173475000Y-104100000I-150000J0D01*
G01*
X171725000Y-104100000D01*
G75*
G02*
X171575000Y-103950000I0J150000D01*
G01*
G37*
%TD.AperFunction*%
%TO.P,U6,10*%
%TA.AperFunction,SMDPad,CuDef*%
G36*
G01*
X171575000Y-102680000D02*
X171575000Y-102380000D01*
G75*
G02*
X171725000Y-102230000I150000J0D01*
G01*
X173475000Y-102230000D01*
G75*
G02*
X173625000Y-102380000I0J-150000D01*
G01*
X173625000Y-102680000D01*
G75*
G02*
X173475000Y-102830000I-150000J0D01*
G01*
X171725000Y-102830000D01*
G75*
G02*
X171575000Y-102680000I0J150000D01*
G01*
G37*
%TD.AperFunction*%
%TO.P,U6,9*%
%TA.AperFunction,SMDPad,CuDef*%
G36*
G01*
X171575000Y-101410000D02*
X171575000Y-101110000D01*
G75*
G02*
X171725000Y-100960000I150000J0D01*
G01*
X173475000Y-100960000D01*
G75*
G02*
X173625000Y-101110000I0J-150000D01*
G01*
X173625000Y-101410000D01*
G75*
G02*
X173475000Y-101560000I-150000J0D01*
G01*
X171725000Y-101560000D01*
G75*
G02*
X171575000Y-101410000I0J150000D01*
G01*
G37*
%TD.AperFunction*%
%TO.P,U6,8*%
%TA.AperFunction,SMDPad,CuDef*%
G36*
G01*
X162275000Y-101410000D02*
X162275000Y-101110000D01*
G75*
G02*
X162425000Y-100960000I150000J0D01*
G01*
X164175000Y-100960000D01*
G75*
G02*
X164325000Y-101110000I0J-150000D01*
G01*
X164325000Y-101410000D01*
G75*
G02*
X164175000Y-101560000I-150000J0D01*
G01*
X162425000Y-101560000D01*
G75*
G02*
X162275000Y-101410000I0J150000D01*
G01*
G37*
%TD.AperFunction*%
%TO.P,U6,7*%
%TA.AperFunction,SMDPad,CuDef*%
G36*
G01*
X162275000Y-102680000D02*
X162275000Y-102380000D01*
G75*
G02*
X162425000Y-102230000I150000J0D01*
G01*
X164175000Y-102230000D01*
G75*
G02*
X164325000Y-102380000I0J-150000D01*
G01*
X164325000Y-102680000D01*
G75*
G02*
X164175000Y-102830000I-150000J0D01*
G01*
X162425000Y-102830000D01*
G75*
G02*
X162275000Y-102680000I0J150000D01*
G01*
G37*
%TD.AperFunction*%
%TO.P,U6,6*%
%TA.AperFunction,SMDPad,CuDef*%
G36*
G01*
X162275000Y-103950000D02*
X162275000Y-103650000D01*
G75*
G02*
X162425000Y-103500000I150000J0D01*
G01*
X164175000Y-103500000D01*
G75*
G02*
X164325000Y-103650000I0J-150000D01*
G01*
X164325000Y-103950000D01*
G75*
G02*
X164175000Y-104100000I-150000J0D01*
G01*
X162425000Y-104100000D01*
G75*
G02*
X162275000Y-103950000I0J150000D01*
G01*
G37*
%TD.AperFunction*%
%TO.P,U6,5*%
%TA.AperFunction,SMDPad,CuDef*%
G36*
G01*
X162275000Y-105220000D02*
X162275000Y-104920000D01*
G75*
G02*
X162425000Y-104770000I150000J0D01*
G01*
X164175000Y-104770000D01*
G75*
G02*
X164325000Y-104920000I0J-150000D01*
G01*
X164325000Y-105220000D01*
G75*
G02*
X164175000Y-105370000I-150000J0D01*
G01*
X162425000Y-105370000D01*
G75*
G02*
X162275000Y-105220000I0J150000D01*
G01*
G37*
%TD.AperFunction*%
%TO.P,U6,4*%
%TO.N,/RTC_RST*%
%TA.AperFunction,SMDPad,CuDef*%
G36*
G01*
X162275000Y-106490000D02*
X162275000Y-106190000D01*
G75*
G02*
X162425000Y-106040000I150000J0D01*
G01*
X164175000Y-106040000D01*
G75*
G02*
X164325000Y-106190000I0J-150000D01*
G01*
X164325000Y-106490000D01*
G75*
G02*
X164175000Y-106640000I-150000J0D01*
G01*
X162425000Y-106640000D01*
G75*
G02*
X162275000Y-106490000I0J150000D01*
G01*
G37*
%TD.AperFunction*%
%TO.P,U6,3*%
%TO.N,/SQW*%
%TA.AperFunction,SMDPad,CuDef*%
G36*
G01*
X162275000Y-107760000D02*
X162275000Y-107460000D01*
G75*
G02*
X162425000Y-107310000I150000J0D01*
G01*
X164175000Y-107310000D01*
G75*
G02*
X164325000Y-107460000I0J-150000D01*
G01*
X164325000Y-107760000D01*
G75*
G02*
X164175000Y-107910000I-150000J0D01*
G01*
X162425000Y-107910000D01*
G75*
G02*
X162275000Y-107760000I0J150000D01*
G01*
G37*
%TD.AperFunction*%
%TO.P,U6,2*%
%TO.N,5V*%
%TA.AperFunction,SMDPad,CuDef*%
G36*
G01*
X162275000Y-109030000D02*
X162275000Y-108730000D01*
G75*
G02*
X162425000Y-108580000I150000J0D01*
G01*
X164175000Y-108580000D01*
G75*
G02*
X164325000Y-108730000I0J-150000D01*
G01*
X164325000Y-109030000D01*
G75*
G02*
X164175000Y-109180000I-150000J0D01*
G01*
X162425000Y-109180000D01*
G75*
G02*
X162275000Y-109030000I0J150000D01*
G01*
G37*
%TD.AperFunction*%
%TO.P,U6,1*%
%TO.N,/32KHZ*%
%TA.AperFunction,SMDPad,CuDef*%
G36*
G01*
X162275000Y-110300000D02*
X162275000Y-110000000D01*
G75*
G02*
X162425000Y-109850000I150000J0D01*
G01*
X164175000Y-109850000D01*
G75*
G02*
X164325000Y-110000000I0J-150000D01*
G01*
X164325000Y-110300000D01*
G75*
G02*
X164175000Y-110450000I-150000J0D01*
G01*
X162425000Y-110450000D01*
G75*
G02*
X162275000Y-110300000I0J150000D01*
G01*
G37*
%TD.AperFunction*%
%TD*%
D13*
%TO.P,J8,8*%
%TO.N,/RTC_RST*%
X158620000Y-117800000D03*
%TO.P,J8,7*%
%TO.N,/SQW*%
X161160000Y-117800000D03*
%TO.P,J8,6*%
%TO.N,/32KHZ*%
X163700000Y-117800000D03*
%TO.P,J8,5*%
%TO.N,/VBAT*%
X166240000Y-117800000D03*
%TO.P,J8,4*%
%TO.N,/MCU_SDA*%
X168780000Y-117800000D03*
%TO.P,J8,3*%
%TO.N,/MCU_SCL*%
X171320000Y-117800000D03*
%TO.P,J8,2*%
%TO.N,GND*%
X173860000Y-117800000D03*
D14*
%TO.P,J8,1*%
%TO.N,5V*%
X176400000Y-117800000D03*
%TD*%
%TO.P,C7,2*%
%TO.N,GND*%
%TA.AperFunction,SMDPad,CuDef*%
G36*
G01*
X158275000Y-103450000D02*
X157325000Y-103450000D01*
G75*
G02*
X157075000Y-103200000I0J250000D01*
G01*
X157075000Y-102525000D01*
G75*
G02*
X157325000Y-102275000I250000J0D01*
G01*
X158275000Y-102275000D01*
G75*
G02*
X158525000Y-102525000I0J-250000D01*
G01*
X158525000Y-103200000D01*
G75*
G02*
X158275000Y-103450000I-250000J0D01*
G01*
G37*
%TD.AperFunction*%
%TO.P,C7,1*%
%TO.N,5V*%
%TA.AperFunction,SMDPad,CuDef*%
G36*
G01*
X158275000Y-105525000D02*
X157325000Y-105525000D01*
G75*
G02*
X157075000Y-105275000I0J250000D01*
G01*
X157075000Y-104600000D01*
G75*
G02*
X157325000Y-104350000I250000J0D01*
G01*
X158275000Y-104350000D01*
G75*
G02*
X158525000Y-104600000I0J-250000D01*
G01*
X158525000Y-105275000D01*
G75*
G02*
X158275000Y-105525000I-250000J0D01*
G01*
G37*
%TD.AperFunction*%
%TD*%
%TO.P,C6,2*%
%TO.N,GND*%
%TA.AperFunction,SMDPad,CuDef*%
G36*
G01*
X156275000Y-103450000D02*
X155325000Y-103450000D01*
G75*
G02*
X155075000Y-103200000I0J250000D01*
G01*
X155075000Y-102525000D01*
G75*
G02*
X155325000Y-102275000I250000J0D01*
G01*
X156275000Y-102275000D01*
G75*
G02*
X156525000Y-102525000I0J-250000D01*
G01*
X156525000Y-103200000D01*
G75*
G02*
X156275000Y-103450000I-250000J0D01*
G01*
G37*
%TD.AperFunction*%
%TO.P,C6,1*%
%TO.N,5V*%
%TA.AperFunction,SMDPad,CuDef*%
G36*
G01*
X156275000Y-105525000D02*
X155325000Y-105525000D01*
G75*
G02*
X155075000Y-105275000I0J250000D01*
G01*
X155075000Y-104600000D01*
G75*
G02*
X155325000Y-104350000I250000J0D01*
G01*
X156275000Y-104350000D01*
G75*
G02*
X156525000Y-104600000I0J-250000D01*
G01*
X156525000Y-105275000D01*
G75*
G02*
X156275000Y-105525000I-250000J0D01*
G01*
G37*
%TD.AperFunction*%
%TD*%
D13*
%TO.P,SPI_PORT1,7*%
%TO.N,/SCK_H*%
X181470000Y-82800000D03*
%TO.P,SPI_PORT1,6*%
%TO.N,/MOSI_H*%
X181470000Y-85340000D03*
%TO.P,SPI_PORT1,5*%
%TO.N,/MISO*%
X181470000Y-87880000D03*
%TO.P,SPI_PORT1,4*%
%TO.N,/RST_H*%
X181470000Y-90420000D03*
%TO.P,SPI_PORT1,3*%
%TO.N,/CS_H*%
X181470000Y-92960000D03*
%TO.P,SPI_PORT1,2*%
%TO.N,GND*%
X181470000Y-95500000D03*
D14*
%TO.P,SPI_PORT1,1*%
%TO.N,5V*%
X181470000Y-98040000D03*
%TD*%
D13*
%TO.P,J3,3*%
%TO.N,3.3V*%
X154900000Y-115280000D03*
%TO.P,J3,2*%
%TO.N,/MCU_VCC*%
X154900000Y-112740000D03*
D14*
%TO.P,J3,1*%
%TO.N,5V*%
X154900000Y-110200000D03*
%TD*%
D13*
%TO.P,J4,5*%
%TO.N,/DIO5*%
X123340000Y-95900000D03*
%TO.P,J4,4*%
%TO.N,/DIO4*%
X123340000Y-98440000D03*
%TO.P,J4,3*%
%TO.N,/DIO3*%
X123340000Y-100980000D03*
%TO.P,J4,2*%
%TO.N,/DIO2*%
X123340000Y-103520000D03*
D14*
%TO.P,J4,1*%
%TO.N,/DIO1*%
X123340000Y-106060000D03*
%TD*%
D13*
%TO.P,SDA_PU1,3*%
%TO.N,5V*%
X167060000Y-74980000D03*
%TO.P,SDA_PU1,2*%
%TO.N,/MCU_SDA*%
X169600000Y-74980000D03*
D14*
%TO.P,SDA_PU1,1*%
%TO.N,Net-(R5-Pad2)*%
X172140000Y-74980000D03*
%TD*%
D13*
%TO.P,SCL_PU1,3*%
%TO.N,5V*%
X167070000Y-78590000D03*
%TO.P,SCL_PU1,2*%
%TO.N,/MCU_SCL*%
X169610000Y-78590000D03*
D14*
%TO.P,SCL_PU1,1*%
%TO.N,Net-(R6-Pad2)*%
X172150000Y-78590000D03*
%TD*%
%TO.P,R10,2*%
%TO.N,Net-(JP8-Pad1)*%
%TA.AperFunction,SMDPad,CuDef*%
G36*
G01*
X160349999Y-75130000D02*
X161250001Y-75130000D01*
G75*
G02*
X161500000Y-75379999I0J-249999D01*
G01*
X161500000Y-76080001D01*
G75*
G02*
X161250001Y-76330000I-249999J0D01*
G01*
X160349999Y-76330000D01*
G75*
G02*
X160100000Y-76080001I0J249999D01*
G01*
X160100000Y-75379999D01*
G75*
G02*
X160349999Y-75130000I249999J0D01*
G01*
G37*
%TD.AperFunction*%
%TO.P,R10,1*%
%TO.N,3.3V*%
%TA.AperFunction,SMDPad,CuDef*%
G36*
G01*
X160349999Y-73130000D02*
X161250001Y-73130000D01*
G75*
G02*
X161500000Y-73379999I0J-249999D01*
G01*
X161500000Y-74080001D01*
G75*
G02*
X161250001Y-74330000I-249999J0D01*
G01*
X160349999Y-74330000D01*
G75*
G02*
X160100000Y-74080001I0J249999D01*
G01*
X160100000Y-73379999D01*
G75*
G02*
X160349999Y-73130000I249999J0D01*
G01*
G37*
%TD.AperFunction*%
%TD*%
%TO.P,R9,2*%
%TO.N,3.3V*%
%TA.AperFunction,SMDPad,CuDef*%
G36*
G01*
X156920001Y-74310000D02*
X156019999Y-74310000D01*
G75*
G02*
X155770000Y-74060001I0J249999D01*
G01*
X155770000Y-73359999D01*
G75*
G02*
X156019999Y-73110000I249999J0D01*
G01*
X156920001Y-73110000D01*
G75*
G02*
X157170000Y-73359999I0J-249999D01*
G01*
X157170000Y-74060001D01*
G75*
G02*
X156920001Y-74310000I-249999J0D01*
G01*
G37*
%TD.AperFunction*%
%TO.P,R9,1*%
%TO.N,Net-(JP7-Pad1)*%
%TA.AperFunction,SMDPad,CuDef*%
G36*
G01*
X156920001Y-76310000D02*
X156019999Y-76310000D01*
G75*
G02*
X155770000Y-76060001I0J249999D01*
G01*
X155770000Y-75359999D01*
G75*
G02*
X156019999Y-75110000I249999J0D01*
G01*
X156920001Y-75110000D01*
G75*
G02*
X157170000Y-75359999I0J-249999D01*
G01*
X157170000Y-76060001D01*
G75*
G02*
X156920001Y-76310000I-249999J0D01*
G01*
G37*
%TD.AperFunction*%
%TD*%
%TO.P,R8,2*%
%TO.N,/RST_H*%
%TA.AperFunction,SMDPad,CuDef*%
G36*
G01*
X170560000Y-94750001D02*
X170560000Y-93849999D01*
G75*
G02*
X170809999Y-93600000I249999J0D01*
G01*
X171510001Y-93600000D01*
G75*
G02*
X171760000Y-93849999I0J-249999D01*
G01*
X171760000Y-94750001D01*
G75*
G02*
X171510001Y-95000000I-249999J0D01*
G01*
X170809999Y-95000000D01*
G75*
G02*
X170560000Y-94750001I0J249999D01*
G01*
G37*
%TD.AperFunction*%
%TO.P,R8,1*%
%TO.N,5V*%
%TA.AperFunction,SMDPad,CuDef*%
G36*
G01*
X168560000Y-94750001D02*
X168560000Y-93849999D01*
G75*
G02*
X168809999Y-93600000I249999J0D01*
G01*
X169510001Y-93600000D01*
G75*
G02*
X169760000Y-93849999I0J-249999D01*
G01*
X169760000Y-94750001D01*
G75*
G02*
X169510001Y-95000000I-249999J0D01*
G01*
X168809999Y-95000000D01*
G75*
G02*
X168560000Y-94750001I0J249999D01*
G01*
G37*
%TD.AperFunction*%
%TD*%
%TO.P,R7,2*%
%TO.N,/CS_H*%
%TA.AperFunction,SMDPad,CuDef*%
G36*
G01*
X170580000Y-97010001D02*
X170580000Y-96109999D01*
G75*
G02*
X170829999Y-95860000I249999J0D01*
G01*
X171530001Y-95860000D01*
G75*
G02*
X171780000Y-96109999I0J-249999D01*
G01*
X171780000Y-97010001D01*
G75*
G02*
X171530001Y-97260000I-249999J0D01*
G01*
X170829999Y-97260000D01*
G75*
G02*
X170580000Y-97010001I0J249999D01*
G01*
G37*
%TD.AperFunction*%
%TO.P,R7,1*%
%TO.N,5V*%
%TA.AperFunction,SMDPad,CuDef*%
G36*
G01*
X168580000Y-97010001D02*
X168580000Y-96109999D01*
G75*
G02*
X168829999Y-95860000I249999J0D01*
G01*
X169530001Y-95860000D01*
G75*
G02*
X169780000Y-96109999I0J-249999D01*
G01*
X169780000Y-97010001D01*
G75*
G02*
X169530001Y-97260000I-249999J0D01*
G01*
X168829999Y-97260000D01*
G75*
G02*
X168580000Y-97010001I0J249999D01*
G01*
G37*
%TD.AperFunction*%
%TD*%
D15*
%TO.P,JP8,1*%
%TO.N,Net-(JP8-Pad1)*%
X160810000Y-78390000D03*
%TO.P,JP8,2*%
%TO.N,/PI_RST*%
X160810000Y-79690000D03*
%TD*%
%TO.P,JP7,1*%
%TO.N,Net-(JP7-Pad1)*%
X156470000Y-78380000D03*
%TO.P,JP7,2*%
%TO.N,/PI_CS*%
X156470000Y-79680000D03*
%TD*%
D16*
%TO.P,JP6,2*%
%TO.N,/RFM_DIO0*%
X135400000Y-94500000D03*
%TO.P,JP6,3*%
%TO.N,/PI_DIO0*%
X134100000Y-94500000D03*
%TO.P,JP6,1*%
%TO.N,/DIO0*%
X136700000Y-94500000D03*
%TD*%
%TO.P,JP5,2*%
%TO.N,/RFM_RST*%
X133200000Y-102300000D03*
%TO.P,JP5,3*%
%TO.N,/PI_RST*%
X131900000Y-102300000D03*
%TO.P,JP5,1*%
%TO.N,/RST_L*%
X134500000Y-102300000D03*
%TD*%
%TO.P,JP4,2*%
%TO.N,/RFM_CS*%
X133200000Y-106000000D03*
%TO.P,JP4,3*%
%TO.N,/PI_CS*%
X131900000Y-106000000D03*
%TO.P,JP4,1*%
%TO.N,/CS_L*%
X134500000Y-106000000D03*
%TD*%
%TO.P,JP3,2*%
%TO.N,/RFM_MOSI*%
X145300000Y-106500000D03*
%TO.P,JP3,3*%
%TO.N,/PI_MOSI*%
X144000000Y-106500000D03*
%TO.P,JP3,1*%
%TO.N,/MOSI_L*%
X146600000Y-106500000D03*
%TD*%
%TO.P,JP2,2*%
%TO.N,/RFM_MISO*%
X145400000Y-102100000D03*
%TO.P,JP2,3*%
%TO.N,/PI_MISO*%
X144100000Y-102100000D03*
%TO.P,JP2,1*%
%TO.N,/MISO*%
X146700000Y-102100000D03*
%TD*%
%TO.P,JP1,2*%
%TO.N,/RFM_SCK*%
X133300000Y-109800000D03*
%TO.P,JP1,3*%
%TO.N,/PI_SCK*%
X132000000Y-109800000D03*
%TO.P,JP1,1*%
%TO.N,/SCK_L*%
X134600000Y-109800000D03*
%TD*%
D13*
%TO.P,J7,6*%
%TO.N,GND*%
X131420000Y-117540000D03*
%TO.P,J7,5*%
%TO.N,3.3V*%
X131420000Y-115000000D03*
%TO.P,J7,4*%
%TO.N,GND*%
X133960000Y-117540000D03*
%TO.P,J7,3*%
%TO.N,3.3V*%
X133960000Y-115000000D03*
%TO.P,J7,2*%
%TO.N,GND*%
X136500000Y-117540000D03*
D14*
%TO.P,J7,1*%
%TO.N,3.3V*%
X136500000Y-115000000D03*
%TD*%
D13*
%TO.P,J6,6*%
%TO.N,GND*%
X134100000Y-74770000D03*
%TO.P,J6,5*%
%TO.N,5V*%
X134100000Y-77310000D03*
%TO.P,J6,4*%
%TO.N,GND*%
X131560000Y-74770000D03*
%TO.P,J6,3*%
%TO.N,5V*%
X131560000Y-77310000D03*
%TO.P,J6,2*%
%TO.N,GND*%
X129020000Y-74770000D03*
D14*
%TO.P,J6,1*%
%TO.N,5V*%
X129020000Y-77310000D03*
%TD*%
D17*
%TO.P,J2,1*%
%TO.N,Net-(J2-Pad1)*%
X127450000Y-84480000D03*
%TD*%
D13*
%TO.P,I2C_PORT1,4*%
%TO.N,/MCU_SDA*%
X171850000Y-83160000D03*
%TO.P,I2C_PORT1,3*%
%TO.N,/MCU_SCL*%
X169310000Y-83160000D03*
%TO.P,I2C_PORT1,2*%
%TO.N,5V*%
X166770000Y-83160000D03*
D14*
%TO.P,I2C_PORT1,1*%
%TO.N,GND*%
X164230000Y-83160000D03*
%TD*%
D13*
%TO.P,FAN1,2*%
%TO.N,GND*%
X123150000Y-74770000D03*
D14*
%TO.P,FAN1,1*%
%TO.N,5V*%
X123150000Y-77310000D03*
%TD*%
D18*
%TO.P,H3,*%
%TO.N,*%
X181500000Y-67500000D03*
%TD*%
%TO.P,H1,*%
%TO.N,*%
X123500000Y-116500000D03*
%TD*%
%TO.P,H2,*%
%TO.N,*%
X123500000Y-67500000D03*
%TD*%
%TO.P,H4,*%
%TO.N,*%
X181500000Y-116500000D03*
%TD*%
D13*
%TO.P,J1,40*%
%TO.N,/GPIO21*%
X176760000Y-66460000D03*
%TO.P,J1,39*%
%TO.N,GND*%
X176760000Y-69000000D03*
%TO.P,J1,38*%
%TO.N,/PI_RST*%
X174220000Y-66460000D03*
%TO.P,J1,37*%
%TO.N,/GPIO26*%
X174220000Y-69000000D03*
%TO.P,J1,36*%
%TO.N,/PI_DIO0*%
X171680000Y-66460000D03*
%TO.P,J1,35*%
%TO.N,/GPIO19*%
X171680000Y-69000000D03*
%TO.P,J1,34*%
%TO.N,GND*%
X169140000Y-66460000D03*
%TO.P,J1,33*%
%TO.N,/GPIO13*%
X169140000Y-69000000D03*
%TO.P,J1,32*%
%TO.N,/GPIO12*%
X166600000Y-66460000D03*
%TO.P,J1,31*%
%TO.N,/GPIO6*%
X166600000Y-69000000D03*
%TO.P,J1,30*%
%TO.N,GND*%
X164060000Y-66460000D03*
%TO.P,J1,29*%
%TO.N,/GPIO5*%
X164060000Y-69000000D03*
%TO.P,J1,28*%
%TO.N,/GPIO1*%
X161520000Y-66460000D03*
%TO.P,J1,27*%
%TO.N,/GPIO0*%
X161520000Y-69000000D03*
%TO.P,J1,26*%
%TO.N,/GPIO7*%
X158980000Y-66460000D03*
%TO.P,J1,25*%
%TO.N,GND*%
X158980000Y-69000000D03*
%TO.P,J1,24*%
%TO.N,/PI_CS*%
X156440000Y-66460000D03*
%TO.P,J1,23*%
%TO.N,/PI_SCK*%
X156440000Y-69000000D03*
%TO.P,J1,22*%
%TO.N,/GPIO25*%
X153900000Y-66460000D03*
%TO.P,J1,21*%
%TO.N,/PI_MISO*%
X153900000Y-69000000D03*
%TO.P,J1,20*%
%TO.N,GND*%
X151360000Y-66460000D03*
%TO.P,J1,19*%
%TO.N,/PI_MOSI*%
X151360000Y-69000000D03*
%TO.P,J1,18*%
%TO.N,/GPIO24*%
X148820000Y-66460000D03*
%TO.P,J1,17*%
%TO.N,Net-(J1-Pad17)*%
X148820000Y-69000000D03*
%TO.P,J1,16*%
%TO.N,/GPIO23*%
X146280000Y-66460000D03*
%TO.P,J1,15*%
%TO.N,/GPIO22*%
X146280000Y-69000000D03*
%TO.P,J1,14*%
%TO.N,GND*%
X143740000Y-66460000D03*
%TO.P,J1,13*%
%TO.N,/GPIO27*%
X143740000Y-69000000D03*
%TO.P,J1,12*%
%TO.N,/GPIO18*%
X141200000Y-66460000D03*
%TO.P,J1,11*%
%TO.N,/GPIO17*%
X141200000Y-69000000D03*
%TO.P,J1,10*%
%TO.N,/GPIO15*%
X138660000Y-66460000D03*
%TO.P,J1,9*%
%TO.N,GND*%
X138660000Y-69000000D03*
%TO.P,J1,8*%
%TO.N,/GPIO14*%
X136120000Y-66460000D03*
%TO.P,J1,7*%
%TO.N,/GPIO4*%
X136120000Y-69000000D03*
%TO.P,J1,6*%
%TO.N,GND*%
X133580000Y-66460000D03*
%TO.P,J1,5*%
%TO.N,/PI_SCL*%
X133580000Y-69000000D03*
%TO.P,J1,4*%
%TO.N,5V*%
X131040000Y-66460000D03*
%TO.P,J1,3*%
%TO.N,/PI_SDA*%
X131040000Y-69000000D03*
%TO.P,J1,2*%
%TO.N,5V*%
X128500000Y-66460000D03*
D14*
%TO.P,J1,1*%
%TO.N,Net-(J1-Pad1)*%
X128500000Y-69000000D03*
%TD*%
%TO.P,J5,1*%
%TO.N,5V*%
X152600000Y-106200000D03*
D13*
%TO.P,J5,2*%
%TO.N,GND*%
X152600000Y-103660000D03*
%TO.P,J5,3*%
%TO.N,/DIO0*%
X152600000Y-101120000D03*
%TO.P,J5,4*%
%TO.N,/SCK_H*%
X152600000Y-98580000D03*
%TO.P,J5,5*%
%TO.N,/MISO*%
X152600000Y-96040000D03*
%TO.P,J5,6*%
%TO.N,/MOSI_H*%
X152600000Y-93500000D03*
%TO.P,J5,7*%
%TO.N,/CS_H*%
X152600000Y-90960000D03*
%TO.P,J5,8*%
%TO.N,/RST_H*%
X152600000Y-88420000D03*
%TD*%
D19*
%TO.N,GND*%
X147300000Y-79400000D03*
X145430000Y-84540000D03*
X164600000Y-79600000D03*
X122260000Y-91360000D03*
X154600000Y-83900000D03*
X157400000Y-83200000D03*
X148900000Y-100100000D03*
X148145848Y-98645848D03*
X149300000Y-103400000D03*
X149200000Y-109700000D03*
X147300000Y-113100000D03*
X146000000Y-116200000D03*
X158000000Y-100700000D03*
X165900000Y-101400000D03*
X162600000Y-112400000D03*
X163400000Y-113940001D03*
X177500000Y-115000000D03*
X180700000Y-106300000D03*
%TO.N,3.3V*%
X125600000Y-88080000D03*
X133600000Y-84100000D03*
X149700000Y-74900000D03*
X155300000Y-72200000D03*
%TO.N,5V*%
X177100000Y-73400000D03*
X167300000Y-94300000D03*
X148100000Y-80900000D03*
X154150000Y-79770000D03*
X166000000Y-98100000D03*
X183725000Y-96400000D03*
X145102320Y-119375000D03*
X151200000Y-116100000D03*
%TO.N,/PI_SCK*%
X143925000Y-84100000D03*
X138100000Y-85600000D03*
%TO.N,/PI_SCL*%
X133580000Y-69000000D03*
%TO.N,/DIO3*%
X133480000Y-88660000D03*
%TO.N,/DIO4*%
X133230000Y-91310000D03*
%TO.N,/DIO0*%
X149500000Y-116300000D03*
%TO.N,/DIO1*%
X125670000Y-101100000D03*
%TO.N,/RFM_MISO*%
X144300000Y-96800000D03*
%TO.N,/RFM_MOSI*%
X142100000Y-95500000D03*
%TO.N,/RFM_SCK*%
X133300000Y-109800000D03*
%TO.N,/RFM_CS*%
X133200000Y-106000000D03*
%TO.N,/RFM_RST*%
X133200000Y-102300000D03*
%TO.N,/MCU_SDA*%
X168100000Y-86800000D03*
X171400000Y-112425000D03*
X174200000Y-108300000D03*
%TO.N,/MCU_SCL*%
X166000000Y-96800000D03*
X171350075Y-99324770D03*
X172600000Y-112425000D03*
%TO.N,/DIO5*%
X137100000Y-86600000D03*
%TO.N,/PI_RST*%
X127100000Y-103400000D03*
X131900000Y-102300000D03*
X123000000Y-108100000D03*
X144200000Y-71800000D03*
X162400000Y-74700000D03*
%TO.N,/PI_CS*%
X139700000Y-82500000D03*
X150100000Y-81500000D03*
%TO.N,/RST_H*%
X140900000Y-112200000D03*
X183700000Y-80800000D03*
%TO.N,/MOSI_H*%
X170300000Y-89000000D03*
X165200000Y-89900000D03*
%TO.N,/MISO*%
X164400000Y-91100000D03*
X170200000Y-91000000D03*
%TO.N,/SCK_H*%
X148300000Y-103800000D03*
X165000000Y-92500000D03*
%TO.N,/SCK_L*%
X142520571Y-106999999D03*
%TO.N,/MOSI_L*%
X146700000Y-108300000D03*
%TO.N,/CS_L*%
X134650001Y-106000000D03*
%TO.N,/RST_L*%
X146600000Y-104300000D03*
X147600000Y-109800000D03*
X146100000Y-112300000D03*
X127300000Y-108100000D03*
X132000000Y-104100000D03*
%TO.N,/RFM_DIO0*%
X132500000Y-94600000D03*
%TO.N,/VBAT*%
X169700000Y-112425000D03*
%TO.N,/RTC_RST*%
X168500000Y-112425000D03*
X165000000Y-116400000D03*
X162800000Y-116300000D03*
%TO.N,/SQW*%
X167500000Y-112425000D03*
X164900000Y-115300000D03*
%TO.N,/32KHZ*%
X166400000Y-112425000D03*
%TD*%
D20*
%TO.N,GND*%
X147300000Y-82670000D02*
X145430000Y-84540000D01*
X147300000Y-79400000D02*
X147300000Y-82670000D01*
X164600000Y-82790000D02*
X164230000Y-83160000D01*
X164600000Y-79600000D02*
X164600000Y-82790000D01*
X170504999Y-67824999D02*
X169140000Y-66460000D01*
X175584999Y-67824999D02*
X170504999Y-67824999D01*
X176760000Y-69000000D02*
X175584999Y-67824999D01*
X170315001Y-67635001D02*
X170504999Y-67824999D01*
X165235001Y-67635001D02*
X170315001Y-67635001D01*
X164060000Y-66460000D02*
X165235001Y-67635001D01*
X122260000Y-91360000D02*
X122260000Y-90040000D01*
X154600000Y-83900000D02*
X156600000Y-83900000D01*
X157300000Y-83200000D02*
X157400000Y-83200000D01*
X156600000Y-83900000D02*
X157300000Y-83200000D01*
X148900000Y-99400000D02*
X148145848Y-98645848D01*
X148900000Y-100100000D02*
X148900000Y-99400000D01*
X149300000Y-109600000D02*
X149200000Y-109700000D01*
X149300000Y-103400000D02*
X149300000Y-109600000D01*
X147300000Y-113100000D02*
X147300000Y-115100000D01*
X146200000Y-116200000D02*
X146000000Y-116200000D01*
X147300000Y-115100000D02*
X146200000Y-116200000D01*
X175470000Y-109550000D02*
X175470000Y-107010000D01*
X175470000Y-107010000D02*
X175210000Y-107010000D01*
X174540000Y-106340000D02*
X172600000Y-106340000D01*
X175210000Y-107010000D02*
X174540000Y-106340000D01*
X172600000Y-106340000D02*
X166540000Y-106340000D01*
X165270000Y-105070000D02*
X163300000Y-105070000D01*
X166540000Y-106340000D02*
X165270000Y-105070000D01*
X157800000Y-100900000D02*
X158000000Y-100700000D01*
X157800000Y-102862500D02*
X157800000Y-100900000D01*
X164770000Y-102530000D02*
X163300000Y-102530000D01*
X165900000Y-101400000D02*
X164770000Y-102530000D01*
X162290000Y-112090000D02*
X162600000Y-112400000D01*
X160230000Y-112090000D02*
X162290000Y-112090000D01*
X170000001Y-113940001D02*
X173860000Y-117800000D01*
X163400000Y-113940001D02*
X170000001Y-113940001D01*
X175875001Y-116624999D02*
X177500000Y-115000000D01*
X175035001Y-116624999D02*
X175875001Y-116624999D01*
X173860000Y-117800000D02*
X175035001Y-116624999D01*
X174344999Y-105884999D02*
X175470000Y-107010000D01*
X174344999Y-101389999D02*
X174344999Y-105884999D01*
X174929999Y-100804999D02*
X174344999Y-101389999D01*
X176010001Y-100804999D02*
X174929999Y-100804999D01*
X180700000Y-105494998D02*
X176010001Y-100804999D01*
X180700000Y-106300000D02*
X180700000Y-105494998D01*
D21*
%TO.N,3.3V*%
X129550000Y-88080000D02*
X125600000Y-88080000D01*
X131900000Y-85730000D02*
X129550000Y-88080000D01*
D20*
X131970000Y-85730000D02*
X131900000Y-85730000D01*
D21*
X133600000Y-84100000D02*
X131970000Y-85730000D01*
X149700000Y-74900000D02*
X150890000Y-73710000D01*
D20*
X155270000Y-72230000D02*
X155300000Y-72200000D01*
X159580000Y-73710000D02*
X159600000Y-73730000D01*
D21*
X155270000Y-73710000D02*
X159580000Y-73710000D01*
X150890000Y-73710000D02*
X155270000Y-73710000D01*
D20*
X155300000Y-73680000D02*
X155270000Y-73710000D01*
D21*
X155300000Y-72200000D02*
X155300000Y-73680000D01*
X159600000Y-73730000D02*
X160800000Y-73730000D01*
D20*
%TO.N,5V*%
X128500000Y-66460000D02*
X128490000Y-66450000D01*
X128500000Y-66460000D02*
X127540000Y-66460000D01*
X169180000Y-94320000D02*
X169160000Y-94300000D01*
X169180000Y-96560000D02*
X169180000Y-94320000D01*
X166770000Y-78890000D02*
X167070000Y-78590000D01*
D21*
X166770000Y-83160000D02*
X166770000Y-78890000D01*
D20*
X167070000Y-74990000D02*
X167060000Y-74980000D01*
D21*
X167070000Y-78590000D02*
X167070000Y-74990000D01*
D20*
X167300000Y-94300000D02*
X169160000Y-94300000D01*
X127324999Y-66675001D02*
X127324999Y-76624999D01*
X127540000Y-66460000D02*
X127324999Y-66675001D01*
X128010000Y-77310000D02*
X129020000Y-77310000D01*
D21*
X127324999Y-76624999D02*
X128010000Y-77310000D01*
X153620000Y-80300000D02*
X154150000Y-79770000D01*
X148700000Y-80300000D02*
X153620000Y-80300000D01*
X148100000Y-80900000D02*
X148700000Y-80300000D01*
D20*
X128500000Y-66460000D02*
X131040000Y-66460000D01*
D21*
X154900000Y-110200000D02*
X154900000Y-107000000D01*
X154100000Y-106200000D02*
X152600000Y-106200000D01*
X154900000Y-107000000D02*
X154100000Y-106200000D01*
X167060000Y-72740000D02*
X167060000Y-74980000D01*
X167800000Y-72000000D02*
X167060000Y-72740000D01*
X175700000Y-72000000D02*
X167800000Y-72000000D01*
X177100000Y-73400000D02*
X175700000Y-72000000D01*
D20*
X154537500Y-106200000D02*
X155800000Y-104937500D01*
X154100000Y-106200000D02*
X154537500Y-106200000D01*
X155800000Y-104937500D02*
X157800000Y-104937500D01*
X157800000Y-104937500D02*
X158437500Y-104937500D01*
X159384999Y-105884999D02*
X160884999Y-105884999D01*
X158437500Y-104937500D02*
X159384999Y-105884999D01*
X160884999Y-105884999D02*
X161500000Y-106500000D01*
X161500000Y-106500000D02*
X161500000Y-108400000D01*
X161980000Y-108880000D02*
X163300000Y-108880000D01*
X161500000Y-108400000D02*
X161980000Y-108880000D01*
X164763232Y-98100000D02*
X166000000Y-98100000D01*
X161355001Y-101508231D02*
X164763232Y-98100000D01*
X161355001Y-105414997D02*
X161355001Y-101508231D01*
X160884999Y-105884999D02*
X161355001Y-105414997D01*
X179208589Y-90355001D02*
X180363590Y-89200000D01*
X173491809Y-90355001D02*
X179208589Y-90355001D01*
X169180000Y-94666810D02*
X173491809Y-90355001D01*
X169180000Y-96560000D02*
X169180000Y-94666810D01*
X181244999Y-89244999D02*
X182544999Y-89244999D01*
X181200000Y-89200000D02*
X181244999Y-89244999D01*
X180363590Y-89200000D02*
X181200000Y-89200000D01*
X183725000Y-90425000D02*
X183725000Y-96400000D01*
X182544999Y-89244999D02*
X183725000Y-90425000D01*
X174825000Y-119375000D02*
X145102320Y-119375000D01*
X176400000Y-117800000D02*
X174825000Y-119375000D01*
X151200000Y-116100000D02*
X152100000Y-115200000D01*
X152100000Y-115200000D02*
X152100000Y-111700000D01*
X153600000Y-110200000D02*
X154900000Y-110200000D01*
X152100000Y-111700000D02*
X153600000Y-110200000D01*
%TO.N,/PI_SCK*%
X145700000Y-79926998D02*
X143925000Y-81701998D01*
X145700000Y-77300000D02*
X145700000Y-79926998D01*
X151449991Y-71550009D02*
X145700000Y-77300000D01*
X153889991Y-71550009D02*
X151449991Y-71550009D01*
X143925000Y-81701998D02*
X143925000Y-84100000D01*
X156440000Y-69000000D02*
X153889991Y-71550009D01*
X128800000Y-109700000D02*
X129200000Y-110100000D01*
X137000000Y-98200000D02*
X133000000Y-98200000D01*
X128800000Y-102400000D02*
X128800000Y-109700000D01*
X133000000Y-98200000D02*
X128800000Y-102400000D01*
X137800000Y-97400000D02*
X137000000Y-98200000D01*
X131700000Y-110100000D02*
X132000000Y-109800000D01*
X137800000Y-87600000D02*
X137800000Y-97400000D01*
X129200000Y-110100000D02*
X131700000Y-110100000D01*
X138100000Y-87300000D02*
X137800000Y-87600000D01*
X138100000Y-85600000D02*
X138100000Y-87300000D01*
%TO.N,/PI_MISO*%
X151800000Y-71100000D02*
X153900000Y-69000000D01*
X150300000Y-71100000D02*
X151800000Y-71100000D01*
X143800000Y-77600000D02*
X150300000Y-71100000D01*
X143800000Y-80500000D02*
X143800000Y-77600000D01*
X143200000Y-81100000D02*
X143800000Y-80500000D01*
X143200000Y-101200000D02*
X143200000Y-81100000D01*
X144100000Y-102100000D02*
X143200000Y-101200000D01*
%TO.N,/PI_MOSI*%
X140800000Y-79560000D02*
X151360000Y-69000000D01*
X142274999Y-106274999D02*
X140800000Y-104800000D01*
X143774999Y-106274999D02*
X142274999Y-106274999D01*
X144000000Y-106500000D02*
X143774999Y-106274999D01*
X140800000Y-104800000D02*
X140800000Y-79560000D01*
%TO.N,/DIO3*%
X134470000Y-89650000D02*
X133480000Y-88660000D01*
X134470000Y-91143002D02*
X134470000Y-89650000D01*
X133022081Y-92500000D02*
X133113002Y-92500000D01*
X133113002Y-92500000D02*
X134470000Y-91143002D01*
X124542081Y-100980000D02*
X133022081Y-92500000D01*
X123340000Y-100980000D02*
X124542081Y-100980000D01*
%TO.N,/DIO4*%
X123340000Y-98440000D02*
X124660000Y-98440000D01*
X126100000Y-98440000D02*
X133230000Y-91310000D01*
X124660000Y-98440000D02*
X126100000Y-98440000D01*
%TO.N,/DIO0*%
X136700000Y-94500000D02*
X136700000Y-97500000D01*
X136700000Y-97500000D02*
X132800000Y-97500000D01*
X132800000Y-97500000D02*
X128100000Y-102200000D01*
X128100000Y-102200000D02*
X128100000Y-110200000D01*
X128775001Y-110875001D02*
X150124999Y-110875001D01*
X128100000Y-110200000D02*
X128775001Y-110875001D01*
X150124999Y-110875001D02*
X150700000Y-110300000D01*
X150700000Y-103020000D02*
X152600000Y-101120000D01*
X150700000Y-110300000D02*
X150700000Y-103020000D01*
X149500000Y-111500000D02*
X150124999Y-110875001D01*
X149500000Y-116300000D02*
X149500000Y-111500000D01*
%TO.N,/DIO1*%
X123340000Y-106060000D02*
X125390000Y-104010000D01*
X125390000Y-101380000D02*
X125670000Y-101100000D01*
X125390000Y-104010000D02*
X125390000Y-101380000D01*
%TO.N,/RFM_MISO*%
X145400000Y-102100000D02*
X145400000Y-100000000D01*
X145400000Y-100000000D02*
X145400000Y-98800000D01*
X144300000Y-97700000D02*
X144300000Y-96800000D01*
X145400000Y-98800000D02*
X144300000Y-97700000D01*
%TO.N,/RFM_MOSI*%
X145300000Y-106500000D02*
X145300000Y-105335002D01*
X145300000Y-105335002D02*
X145300000Y-104300000D01*
X145300000Y-104300000D02*
X144500000Y-103500000D01*
X144500000Y-103500000D02*
X143500000Y-103500000D01*
X143500000Y-103500000D02*
X143274999Y-103274999D01*
X142100000Y-102100000D02*
X142100000Y-95500000D01*
X143274999Y-103274999D02*
X142100000Y-102100000D01*
%TO.N,/RFM_SCK*%
X133400000Y-109700000D02*
X133300000Y-109800000D01*
%TO.N,/RFM_RST*%
X133300000Y-102200000D02*
X133200000Y-102300000D01*
X133400000Y-102100000D02*
X133200000Y-102300000D01*
%TO.N,/MCU_SDA*%
X171850000Y-83160000D02*
X174070000Y-83160000D01*
X175584999Y-81645001D02*
X175584999Y-73774999D01*
X174070000Y-83160000D02*
X175584999Y-81645001D01*
X175584999Y-73774999D02*
X174500000Y-72690000D01*
X174500000Y-72690000D02*
X170230000Y-72690000D01*
X169600000Y-73320000D02*
X169600000Y-74980000D01*
X170230000Y-72690000D02*
X169600000Y-73320000D01*
X168100000Y-86800000D02*
X168100000Y-86000000D01*
X168100000Y-86000000D02*
X168600000Y-85500000D01*
X168600000Y-85500000D02*
X171300000Y-85500000D01*
X171850000Y-84950000D02*
X171850000Y-83160000D01*
X171300000Y-85500000D02*
X171850000Y-84950000D01*
X171249990Y-112274990D02*
X171400000Y-112425000D01*
X171249990Y-109205010D02*
X171249990Y-112274990D01*
X171575000Y-108880000D02*
X171249990Y-109205010D01*
X172600000Y-108880000D02*
X171575000Y-108880000D01*
X174200000Y-108300000D02*
X174200000Y-108700000D01*
X174020000Y-108880000D02*
X172600000Y-108880000D01*
X174200000Y-108700000D02*
X174020000Y-108880000D01*
%TO.N,/MCU_SCL*%
X169610000Y-82860000D02*
X169310000Y-83160000D01*
X169610000Y-78590000D02*
X169610000Y-82860000D01*
X168524770Y-99324770D02*
X171350075Y-99324770D01*
X166000000Y-96800000D02*
X168524770Y-99324770D01*
X172600000Y-110150000D02*
X172600000Y-112425000D01*
X173125001Y-110675001D02*
X176224999Y-110675001D01*
X172600000Y-110150000D02*
X173125001Y-110675001D01*
X176224999Y-110675001D02*
X177000000Y-109900000D01*
X177000000Y-103460000D02*
X175470000Y-101930000D01*
X177000000Y-109900000D02*
X177000000Y-103460000D01*
%TO.N,/DIO5*%
X123340000Y-95900000D02*
X132640000Y-86600000D01*
X132640000Y-86600000D02*
X137100000Y-86600000D01*
%TO.N,/PI_RST*%
X174220000Y-66460000D02*
X175580000Y-65100000D01*
X178174999Y-66135997D02*
X178174999Y-70774999D01*
X177139002Y-65100000D02*
X178174999Y-66135997D01*
X175580000Y-65100000D02*
X177139002Y-65100000D01*
X178174999Y-70774999D02*
X177649998Y-71300000D01*
X177649998Y-71300000D02*
X165800000Y-71300000D01*
X160610000Y-79790000D02*
X159610000Y-79790000D01*
X121200000Y-107400000D02*
X121200000Y-89900000D01*
X121900000Y-108100000D02*
X121200000Y-107400000D01*
X123000000Y-108100000D02*
X121900000Y-108100000D01*
X121200000Y-89900000D02*
X121200000Y-88500000D01*
X121200000Y-88500000D02*
X124500000Y-85200000D01*
X124500000Y-85200000D02*
X124500000Y-84200000D01*
X124500000Y-84200000D02*
X127300000Y-81400000D01*
X131749002Y-81400000D02*
X133949002Y-79200000D01*
X127300000Y-81400000D02*
X131749002Y-81400000D01*
X133949002Y-79200000D02*
X135900000Y-79200000D01*
X143300000Y-71800000D02*
X144200000Y-71800000D01*
X135900000Y-79200000D02*
X143300000Y-71800000D01*
X165800000Y-71300000D02*
X162400000Y-74700000D01*
X162000000Y-75100000D02*
X162400000Y-74700000D01*
X162000000Y-79600000D02*
X162000000Y-75100000D01*
X161910000Y-79690000D02*
X162000000Y-79600000D01*
X160810000Y-79690000D02*
X161910000Y-79690000D01*
%TO.N,/PI_DIO0*%
X126374999Y-105825001D02*
X125700000Y-106500000D01*
X126374999Y-102225001D02*
X126374999Y-105825001D01*
X134100000Y-94500000D02*
X126374999Y-102225001D01*
X124700000Y-110000000D02*
X121600000Y-110000000D01*
X120749990Y-109149990D02*
X120749990Y-81550010D01*
X121600000Y-110000000D02*
X120749990Y-109149990D01*
X120749990Y-81550010D02*
X122700000Y-79600000D01*
X122700000Y-79600000D02*
X124000000Y-79600000D01*
X127615001Y-65284999D02*
X170884999Y-65284999D01*
X126874989Y-66025011D02*
X127615001Y-65284999D01*
X171680000Y-66080000D02*
X171680000Y-66460000D01*
X170884999Y-65284999D02*
X171680000Y-66080000D01*
X125700000Y-109000000D02*
X125700000Y-106500000D01*
X124700000Y-110000000D02*
X125700000Y-109000000D01*
X126825001Y-66574999D02*
X126825001Y-71174999D01*
X126874989Y-66525011D02*
X126825001Y-66574999D01*
X126874989Y-66025011D02*
X126874989Y-66525011D01*
X126825001Y-71174999D02*
X125600000Y-72400000D01*
X125600000Y-78000000D02*
X124000000Y-79600000D01*
X125600000Y-72400000D02*
X125600000Y-78000000D01*
D22*
%TO.N,/PI_CS*%
X155264999Y-67635001D02*
X156440000Y-66460000D01*
X148445997Y-67635001D02*
X155264999Y-67635001D01*
X147644999Y-68435999D02*
X148445997Y-67635001D01*
X147644999Y-70155001D02*
X147644999Y-68435999D01*
X139700000Y-78100000D02*
X147644999Y-70155001D01*
X139700000Y-82500000D02*
X139700000Y-78100000D01*
D20*
X154650000Y-81500000D02*
X156470000Y-79680000D01*
X150100000Y-81500000D02*
X154650000Y-81500000D01*
X138900000Y-83300000D02*
X139700000Y-82500000D01*
X137400000Y-99100000D02*
X138900000Y-97600000D01*
X138900000Y-97600000D02*
X138900000Y-83300000D01*
X133264998Y-99100000D02*
X137400000Y-99100000D01*
X129400000Y-102964998D02*
X133264998Y-99100000D01*
X129400000Y-105500000D02*
X129400000Y-102964998D01*
X129900000Y-106000000D02*
X129400000Y-105500000D01*
X131900000Y-106000000D02*
X129900000Y-106000000D01*
%TO.N,/RST_H*%
X175460000Y-94300000D02*
X175470000Y-94310000D01*
X171160000Y-94300000D02*
X175460000Y-94300000D01*
X178000000Y-80200000D02*
X183100000Y-80200000D01*
X176500000Y-81700000D02*
X178000000Y-80200000D01*
X176500000Y-82000000D02*
X176500000Y-81700000D01*
X170300000Y-86200000D02*
X172300000Y-86200000D01*
X172300000Y-86200000D02*
X176500000Y-82000000D01*
X168974999Y-87525001D02*
X170300000Y-86200000D01*
X183100000Y-80200000D02*
X183700000Y-80800000D01*
X164061411Y-87525001D02*
X168974999Y-87525001D01*
X161036410Y-84500000D02*
X164061411Y-87525001D01*
X156520000Y-84500000D02*
X161036410Y-84500000D01*
X152600000Y-88420000D02*
X156520000Y-84500000D01*
X181470000Y-90420000D02*
X179780000Y-90420000D01*
X179780000Y-90420000D02*
X178500000Y-91700000D01*
X178500000Y-93520000D02*
X177710000Y-94310000D01*
X178500000Y-91700000D02*
X178500000Y-93520000D01*
X175470000Y-94310000D02*
X177710000Y-94310000D01*
X182380000Y-90420000D02*
X181470000Y-90420000D01*
X182520000Y-90420000D02*
X182380000Y-90420000D01*
X183000000Y-90900000D02*
X182520000Y-90420000D01*
X140900000Y-113600000D02*
X146200000Y-118900000D01*
X140900000Y-112200000D02*
X140900000Y-113600000D01*
X183000000Y-109600000D02*
X183000000Y-110300000D01*
X183000000Y-109736410D02*
X183000000Y-109600000D01*
X183000000Y-109600000D02*
X183000000Y-90900000D01*
X180084999Y-113215001D02*
X158784999Y-113215001D01*
X183000000Y-110300000D02*
X180084999Y-113215001D01*
X158784999Y-113215001D02*
X156700000Y-115300000D01*
X156700000Y-115300000D02*
X156700000Y-116100000D01*
X153900000Y-118900000D02*
X146200000Y-118900000D01*
X156700000Y-116100000D02*
X153900000Y-118900000D01*
%TO.N,/CS_H*%
X175560000Y-99300000D02*
X175470000Y-99390000D01*
X177670000Y-99300000D02*
X175560000Y-99300000D01*
X174010000Y-99390000D02*
X171180000Y-96560000D01*
X175470000Y-99390000D02*
X174010000Y-99390000D01*
X171180000Y-96560000D02*
X171180000Y-98620000D01*
X169626810Y-98620000D02*
X162000000Y-90993190D01*
X171180000Y-98620000D02*
X169626810Y-98620000D01*
X162000000Y-90993190D02*
X162000000Y-86100000D01*
X161464999Y-85564999D02*
X156735001Y-85564999D01*
X162000000Y-86100000D02*
X161464999Y-85564999D01*
X156735001Y-85564999D02*
X155200000Y-87100000D01*
X155200000Y-87100000D02*
X155200000Y-89500000D01*
X153740000Y-90960000D02*
X152600000Y-90960000D01*
X155200000Y-89500000D02*
X153740000Y-90960000D01*
X181470000Y-92960000D02*
X180140000Y-92960000D01*
X180140000Y-92960000D02*
X178600000Y-94500000D01*
X178600000Y-98370000D02*
X177670000Y-99300000D01*
X178600000Y-94500000D02*
X178600000Y-98370000D01*
%TO.N,/MOSI_H*%
X152600000Y-93500000D02*
X157100000Y-89000000D01*
X160000000Y-89000000D02*
X160230000Y-89230000D01*
X157100000Y-89000000D02*
X160000000Y-89000000D01*
X169400000Y-89900000D02*
X165200000Y-89900000D01*
X170300000Y-89000000D02*
X169400000Y-89900000D01*
%TO.N,/MISO*%
X146700000Y-102100000D02*
X146700000Y-101600000D01*
X146700000Y-102100000D02*
X146700000Y-101940000D01*
X152600000Y-96040000D02*
X157040000Y-91600000D01*
X160060000Y-91600000D02*
X160230000Y-91770000D01*
X157040000Y-91600000D02*
X160060000Y-91600000D01*
X170100000Y-91100000D02*
X170200000Y-91000000D01*
X164400000Y-91100000D02*
X170100000Y-91100000D01*
X146700000Y-102100000D02*
X148200000Y-102100000D01*
X148200000Y-102100000D02*
X150700000Y-99600000D01*
X150700000Y-97940000D02*
X152600000Y-96040000D01*
X150700000Y-99600000D02*
X150700000Y-97940000D01*
%TO.N,/SCK_H*%
X148300000Y-102880000D02*
X148300000Y-103800000D01*
X152600000Y-98580000D02*
X148300000Y-102880000D01*
X152600000Y-98580000D02*
X156880000Y-94300000D01*
X160220000Y-94300000D02*
X160230000Y-94310000D01*
X156880000Y-94300000D02*
X160220000Y-94300000D01*
X177400000Y-82800000D02*
X181470000Y-82800000D01*
X173600000Y-86600000D02*
X177400000Y-82800000D01*
X173600000Y-88800000D02*
X173600000Y-86600000D01*
X169900000Y-92500000D02*
X173600000Y-88800000D01*
X165000000Y-92500000D02*
X169900000Y-92500000D01*
%TO.N,/SCK_L*%
X139300000Y-109800000D02*
X142100000Y-107000000D01*
X134600000Y-109800000D02*
X139300000Y-109800000D01*
X142520570Y-107000000D02*
X142520571Y-106999999D01*
X142100000Y-107000000D02*
X142520570Y-107000000D01*
%TO.N,/MOSI_L*%
X146700000Y-106600000D02*
X146600000Y-106500000D01*
X146700000Y-108300000D02*
X146700000Y-106600000D01*
%TO.N,/RST_L*%
X147600000Y-105300000D02*
X147600000Y-109800000D01*
X146600000Y-104300000D02*
X147600000Y-105300000D01*
X145125011Y-111325011D02*
X127725011Y-111325011D01*
X146100000Y-112300000D02*
X145125011Y-111325011D01*
X127725011Y-111325011D02*
X127000000Y-110600000D01*
X127000000Y-108400000D02*
X127300000Y-108100000D01*
X127000000Y-110600000D02*
X127000000Y-108400000D01*
X134500000Y-103300000D02*
X134500000Y-102300000D01*
X133700000Y-104100000D02*
X134500000Y-103300000D01*
X132000000Y-104100000D02*
X133700000Y-104100000D01*
%TO.N,/RFM_DIO0*%
X132500000Y-94264998D02*
X132500000Y-94600000D01*
X133339999Y-93424999D02*
X132500000Y-94264998D01*
X135324999Y-93424999D02*
X133339999Y-93424999D01*
X135400000Y-93500000D02*
X135324999Y-93424999D01*
X135400000Y-94500000D02*
X135400000Y-93500000D01*
%TO.N,Net-(JP7-Pad1)*%
X156470000Y-75710000D02*
X156470000Y-78380000D01*
%TO.N,Net-(JP8-Pad1)*%
X160800000Y-78380000D02*
X160810000Y-78390000D01*
X160800000Y-75730000D02*
X160800000Y-78380000D01*
D21*
%TO.N,/MCU_VCC*%
X158100000Y-111360000D02*
X158100000Y-107980000D01*
X159070000Y-107010000D02*
X160230000Y-107010000D01*
X158100000Y-107980000D02*
X159070000Y-107010000D01*
X156720000Y-112740000D02*
X158100000Y-111360000D01*
X154900000Y-112740000D02*
X156720000Y-112740000D01*
D20*
%TO.N,/VBAT*%
X172600000Y-107610000D02*
X171490000Y-107610000D01*
X169700000Y-109400000D02*
X169700000Y-112425000D01*
X171490000Y-107610000D02*
X169700000Y-109400000D01*
%TO.N,/RTC_RST*%
X163300000Y-106340000D02*
X164440000Y-106340000D01*
X168500000Y-110400000D02*
X168500000Y-112425000D01*
X164440000Y-106340000D02*
X168500000Y-110400000D01*
X162900000Y-116400000D02*
X162800000Y-116300000D01*
X165000000Y-116400000D02*
X162900000Y-116400000D01*
%TO.N,/SQW*%
X163300000Y-107610000D02*
X164510000Y-107610000D01*
X167500000Y-110600000D02*
X167500000Y-112425000D01*
X164510000Y-107610000D02*
X167500000Y-110600000D01*
X164900000Y-115300000D02*
X162700000Y-115300000D01*
X161160000Y-116840000D02*
X161160000Y-117800000D01*
X162700000Y-115300000D02*
X161160000Y-116840000D01*
%TO.N,/32KHZ*%
X166400000Y-112425000D02*
X166400000Y-110700000D01*
X166400000Y-110700000D02*
X165850000Y-110150000D01*
X165850000Y-110150000D02*
X163300000Y-110150000D01*
%TD*%
D23*
%TO.N,GND*%
X126240000Y-110562677D02*
X126236324Y-110600000D01*
X126240000Y-110637322D01*
X126240000Y-110637332D01*
X126250997Y-110748985D01*
X126285788Y-110863676D01*
X126294454Y-110892246D01*
X126365026Y-111024276D01*
X126397362Y-111063677D01*
X126459999Y-111140001D01*
X126489002Y-111163803D01*
X127161216Y-111836019D01*
X127185010Y-111865012D01*
X127214003Y-111888806D01*
X127214007Y-111888810D01*
X127257223Y-111924276D01*
X127300735Y-111959985D01*
X127432764Y-112030557D01*
X127576025Y-112074014D01*
X127687678Y-112085011D01*
X127687687Y-112085011D01*
X127725010Y-112088687D01*
X127762333Y-112085011D01*
X139867596Y-112085011D01*
X139865000Y-112098061D01*
X139865000Y-112301939D01*
X139904774Y-112501898D01*
X139982795Y-112690256D01*
X140096063Y-112859774D01*
X140140001Y-112903712D01*
X140140001Y-113562668D01*
X140136324Y-113600000D01*
X140140001Y-113637333D01*
X140148735Y-113726004D01*
X140150998Y-113748985D01*
X140194454Y-113892246D01*
X140265026Y-114024276D01*
X140336201Y-114111002D01*
X140360000Y-114140001D01*
X140388998Y-114163799D01*
X144662218Y-118437020D01*
X144612064Y-118457795D01*
X144442546Y-118571063D01*
X144298383Y-118715226D01*
X144185115Y-118884744D01*
X144107094Y-119073102D01*
X144067320Y-119273061D01*
X144067320Y-119340000D01*
X125792467Y-119340000D01*
X125817177Y-119323489D01*
X126323489Y-118817177D01*
X126721295Y-118221818D01*
X126855884Y-117896891D01*
X129978519Y-117896891D01*
X130075843Y-118171252D01*
X130224822Y-118421355D01*
X130419731Y-118637588D01*
X130653080Y-118811641D01*
X130915901Y-118936825D01*
X131063110Y-118981476D01*
X131293000Y-118860155D01*
X131293000Y-117667000D01*
X131547000Y-117667000D01*
X131547000Y-118860155D01*
X131776890Y-118981476D01*
X131924099Y-118936825D01*
X132186920Y-118811641D01*
X132420269Y-118637588D01*
X132615178Y-118421355D01*
X132690000Y-118295745D01*
X132764822Y-118421355D01*
X132959731Y-118637588D01*
X133193080Y-118811641D01*
X133455901Y-118936825D01*
X133603110Y-118981476D01*
X133833000Y-118860155D01*
X133833000Y-117667000D01*
X134087000Y-117667000D01*
X134087000Y-118860155D01*
X134316890Y-118981476D01*
X134464099Y-118936825D01*
X134726920Y-118811641D01*
X134960269Y-118637588D01*
X135155178Y-118421355D01*
X135230000Y-118295745D01*
X135304822Y-118421355D01*
X135499731Y-118637588D01*
X135733080Y-118811641D01*
X135995901Y-118936825D01*
X136143110Y-118981476D01*
X136373000Y-118860155D01*
X136373000Y-117667000D01*
X136627000Y-117667000D01*
X136627000Y-118860155D01*
X136856890Y-118981476D01*
X137004099Y-118936825D01*
X137266920Y-118811641D01*
X137500269Y-118637588D01*
X137695178Y-118421355D01*
X137844157Y-118171252D01*
X137941481Y-117896891D01*
X137820814Y-117667000D01*
X136627000Y-117667000D01*
X136373000Y-117667000D01*
X134087000Y-117667000D01*
X133833000Y-117667000D01*
X131547000Y-117667000D01*
X131293000Y-117667000D01*
X130099186Y-117667000D01*
X129978519Y-117896891D01*
X126855884Y-117896891D01*
X126995309Y-117560290D01*
X127135000Y-116858016D01*
X127135000Y-116141984D01*
X126995309Y-115439710D01*
X126752593Y-114853740D01*
X129935000Y-114853740D01*
X129935000Y-115146260D01*
X129992068Y-115433158D01*
X130104010Y-115703411D01*
X130266525Y-115946632D01*
X130473368Y-116153475D01*
X130649406Y-116271100D01*
X130419731Y-116442412D01*
X130224822Y-116658645D01*
X130075843Y-116908748D01*
X129978519Y-117183109D01*
X130099186Y-117413000D01*
X131293000Y-117413000D01*
X131293000Y-117393000D01*
X131547000Y-117393000D01*
X131547000Y-117413000D01*
X133833000Y-117413000D01*
X133833000Y-117393000D01*
X134087000Y-117393000D01*
X134087000Y-117413000D01*
X136373000Y-117413000D01*
X136373000Y-117393000D01*
X136627000Y-117393000D01*
X136627000Y-117413000D01*
X137820814Y-117413000D01*
X137941481Y-117183109D01*
X137844157Y-116908748D01*
X137695178Y-116658645D01*
X137518374Y-116462498D01*
X137594180Y-116439502D01*
X137704494Y-116380537D01*
X137801185Y-116301185D01*
X137880537Y-116204494D01*
X137939502Y-116094180D01*
X137975812Y-115974482D01*
X137988072Y-115850000D01*
X137988072Y-114150000D01*
X137975812Y-114025518D01*
X137939502Y-113905820D01*
X137880537Y-113795506D01*
X137801185Y-113698815D01*
X137704494Y-113619463D01*
X137594180Y-113560498D01*
X137474482Y-113524188D01*
X137350000Y-113511928D01*
X135650000Y-113511928D01*
X135525518Y-113524188D01*
X135405820Y-113560498D01*
X135295506Y-113619463D01*
X135198815Y-113698815D01*
X135119463Y-113795506D01*
X135060498Y-113905820D01*
X135038487Y-113978380D01*
X134906632Y-113846525D01*
X134663411Y-113684010D01*
X134393158Y-113572068D01*
X134106260Y-113515000D01*
X133813740Y-113515000D01*
X133526842Y-113572068D01*
X133256589Y-113684010D01*
X133013368Y-113846525D01*
X132806525Y-114053368D01*
X132690000Y-114227760D01*
X132573475Y-114053368D01*
X132366632Y-113846525D01*
X132123411Y-113684010D01*
X131853158Y-113572068D01*
X131566260Y-113515000D01*
X131273740Y-113515000D01*
X130986842Y-113572068D01*
X130716589Y-113684010D01*
X130473368Y-113846525D01*
X130266525Y-114053368D01*
X130104010Y-114296589D01*
X129992068Y-114566842D01*
X129935000Y-114853740D01*
X126752593Y-114853740D01*
X126721295Y-114778182D01*
X126323489Y-114182823D01*
X125817177Y-113676511D01*
X125221818Y-113278705D01*
X124560290Y-113004691D01*
X123858016Y-112865000D01*
X123141984Y-112865000D01*
X122439710Y-113004691D01*
X121778182Y-113278705D01*
X121182823Y-113676511D01*
X120676511Y-114182823D01*
X120660000Y-114207533D01*
X120660000Y-110134802D01*
X121036201Y-110511003D01*
X121059999Y-110540001D01*
X121175724Y-110634974D01*
X121307753Y-110705546D01*
X121451014Y-110749003D01*
X121562667Y-110760000D01*
X121562675Y-110760000D01*
X121600000Y-110763676D01*
X121637325Y-110760000D01*
X124662678Y-110760000D01*
X124700000Y-110763676D01*
X124737322Y-110760000D01*
X124737333Y-110760000D01*
X124848986Y-110749003D01*
X124992247Y-110705546D01*
X125124276Y-110634974D01*
X125240001Y-110540001D01*
X125263804Y-110510998D01*
X126211004Y-109563798D01*
X126240000Y-109540001D01*
X126240000Y-110562677D01*
%TA.AperFunction,Conductor*%
D24*
G36*
X126240000Y-110562677D02*
G01*
X126236324Y-110600000D01*
X126240000Y-110637322D01*
X126240000Y-110637332D01*
X126250997Y-110748985D01*
X126285788Y-110863676D01*
X126294454Y-110892246D01*
X126365026Y-111024276D01*
X126397362Y-111063677D01*
X126459999Y-111140001D01*
X126489002Y-111163803D01*
X127161216Y-111836019D01*
X127185010Y-111865012D01*
X127214003Y-111888806D01*
X127214007Y-111888810D01*
X127257223Y-111924276D01*
X127300735Y-111959985D01*
X127432764Y-112030557D01*
X127576025Y-112074014D01*
X127687678Y-112085011D01*
X127687687Y-112085011D01*
X127725010Y-112088687D01*
X127762333Y-112085011D01*
X139867596Y-112085011D01*
X139865000Y-112098061D01*
X139865000Y-112301939D01*
X139904774Y-112501898D01*
X139982795Y-112690256D01*
X140096063Y-112859774D01*
X140140001Y-112903712D01*
X140140001Y-113562668D01*
X140136324Y-113600000D01*
X140140001Y-113637333D01*
X140148735Y-113726004D01*
X140150998Y-113748985D01*
X140194454Y-113892246D01*
X140265026Y-114024276D01*
X140336201Y-114111002D01*
X140360000Y-114140001D01*
X140388998Y-114163799D01*
X144662218Y-118437020D01*
X144612064Y-118457795D01*
X144442546Y-118571063D01*
X144298383Y-118715226D01*
X144185115Y-118884744D01*
X144107094Y-119073102D01*
X144067320Y-119273061D01*
X144067320Y-119340000D01*
X125792467Y-119340000D01*
X125817177Y-119323489D01*
X126323489Y-118817177D01*
X126721295Y-118221818D01*
X126855884Y-117896891D01*
X129978519Y-117896891D01*
X130075843Y-118171252D01*
X130224822Y-118421355D01*
X130419731Y-118637588D01*
X130653080Y-118811641D01*
X130915901Y-118936825D01*
X131063110Y-118981476D01*
X131293000Y-118860155D01*
X131293000Y-117667000D01*
X131547000Y-117667000D01*
X131547000Y-118860155D01*
X131776890Y-118981476D01*
X131924099Y-118936825D01*
X132186920Y-118811641D01*
X132420269Y-118637588D01*
X132615178Y-118421355D01*
X132690000Y-118295745D01*
X132764822Y-118421355D01*
X132959731Y-118637588D01*
X133193080Y-118811641D01*
X133455901Y-118936825D01*
X133603110Y-118981476D01*
X133833000Y-118860155D01*
X133833000Y-117667000D01*
X134087000Y-117667000D01*
X134087000Y-118860155D01*
X134316890Y-118981476D01*
X134464099Y-118936825D01*
X134726920Y-118811641D01*
X134960269Y-118637588D01*
X135155178Y-118421355D01*
X135230000Y-118295745D01*
X135304822Y-118421355D01*
X135499731Y-118637588D01*
X135733080Y-118811641D01*
X135995901Y-118936825D01*
X136143110Y-118981476D01*
X136373000Y-118860155D01*
X136373000Y-117667000D01*
X136627000Y-117667000D01*
X136627000Y-118860155D01*
X136856890Y-118981476D01*
X137004099Y-118936825D01*
X137266920Y-118811641D01*
X137500269Y-118637588D01*
X137695178Y-118421355D01*
X137844157Y-118171252D01*
X137941481Y-117896891D01*
X137820814Y-117667000D01*
X136627000Y-117667000D01*
X136373000Y-117667000D01*
X134087000Y-117667000D01*
X133833000Y-117667000D01*
X131547000Y-117667000D01*
X131293000Y-117667000D01*
X130099186Y-117667000D01*
X129978519Y-117896891D01*
X126855884Y-117896891D01*
X126995309Y-117560290D01*
X127135000Y-116858016D01*
X127135000Y-116141984D01*
X126995309Y-115439710D01*
X126752593Y-114853740D01*
X129935000Y-114853740D01*
X129935000Y-115146260D01*
X129992068Y-115433158D01*
X130104010Y-115703411D01*
X130266525Y-115946632D01*
X130473368Y-116153475D01*
X130649406Y-116271100D01*
X130419731Y-116442412D01*
X130224822Y-116658645D01*
X130075843Y-116908748D01*
X129978519Y-117183109D01*
X130099186Y-117413000D01*
X131293000Y-117413000D01*
X131293000Y-117393000D01*
X131547000Y-117393000D01*
X131547000Y-117413000D01*
X133833000Y-117413000D01*
X133833000Y-117393000D01*
X134087000Y-117393000D01*
X134087000Y-117413000D01*
X136373000Y-117413000D01*
X136373000Y-117393000D01*
X136627000Y-117393000D01*
X136627000Y-117413000D01*
X137820814Y-117413000D01*
X137941481Y-117183109D01*
X137844157Y-116908748D01*
X137695178Y-116658645D01*
X137518374Y-116462498D01*
X137594180Y-116439502D01*
X137704494Y-116380537D01*
X137801185Y-116301185D01*
X137880537Y-116204494D01*
X137939502Y-116094180D01*
X137975812Y-115974482D01*
X137988072Y-115850000D01*
X137988072Y-114150000D01*
X137975812Y-114025518D01*
X137939502Y-113905820D01*
X137880537Y-113795506D01*
X137801185Y-113698815D01*
X137704494Y-113619463D01*
X137594180Y-113560498D01*
X137474482Y-113524188D01*
X137350000Y-113511928D01*
X135650000Y-113511928D01*
X135525518Y-113524188D01*
X135405820Y-113560498D01*
X135295506Y-113619463D01*
X135198815Y-113698815D01*
X135119463Y-113795506D01*
X135060498Y-113905820D01*
X135038487Y-113978380D01*
X134906632Y-113846525D01*
X134663411Y-113684010D01*
X134393158Y-113572068D01*
X134106260Y-113515000D01*
X133813740Y-113515000D01*
X133526842Y-113572068D01*
X133256589Y-113684010D01*
X133013368Y-113846525D01*
X132806525Y-114053368D01*
X132690000Y-114227760D01*
X132573475Y-114053368D01*
X132366632Y-113846525D01*
X132123411Y-113684010D01*
X131853158Y-113572068D01*
X131566260Y-113515000D01*
X131273740Y-113515000D01*
X130986842Y-113572068D01*
X130716589Y-113684010D01*
X130473368Y-113846525D01*
X130266525Y-114053368D01*
X130104010Y-114296589D01*
X129992068Y-114566842D01*
X129935000Y-114853740D01*
X126752593Y-114853740D01*
X126721295Y-114778182D01*
X126323489Y-114182823D01*
X125817177Y-113676511D01*
X125221818Y-113278705D01*
X124560290Y-113004691D01*
X123858016Y-112865000D01*
X123141984Y-112865000D01*
X122439710Y-113004691D01*
X121778182Y-113278705D01*
X121182823Y-113676511D01*
X120676511Y-114182823D01*
X120660000Y-114207533D01*
X120660000Y-110134802D01*
X121036201Y-110511003D01*
X121059999Y-110540001D01*
X121175724Y-110634974D01*
X121307753Y-110705546D01*
X121451014Y-110749003D01*
X121562667Y-110760000D01*
X121562675Y-110760000D01*
X121600000Y-110763676D01*
X121637325Y-110760000D01*
X124662678Y-110760000D01*
X124700000Y-110763676D01*
X124737322Y-110760000D01*
X124737333Y-110760000D01*
X124848986Y-110749003D01*
X124992247Y-110705546D01*
X125124276Y-110634974D01*
X125240001Y-110540001D01*
X125263804Y-110510998D01*
X126211004Y-109563798D01*
X126240000Y-109540001D01*
X126240000Y-110562677D01*
G37*
%TD.AperFunction*%
D23*
X174031928Y-115430000D02*
X174044188Y-115554482D01*
X174080498Y-115674180D01*
X174139463Y-115784494D01*
X174218815Y-115881185D01*
X174315506Y-115960537D01*
X174425820Y-116019502D01*
X174545518Y-116055812D01*
X174670000Y-116068072D01*
X176270000Y-116068072D01*
X176394482Y-116055812D01*
X176514180Y-116019502D01*
X176624494Y-115960537D01*
X176721185Y-115881185D01*
X176800537Y-115784494D01*
X176859502Y-115674180D01*
X176895812Y-115554482D01*
X176908072Y-115430000D01*
X176908072Y-113975001D01*
X178884333Y-113975001D01*
X178676511Y-114182823D01*
X178278705Y-114778182D01*
X178004691Y-115439710D01*
X177865000Y-116141984D01*
X177865000Y-116789876D01*
X177839502Y-116705820D01*
X177780537Y-116595506D01*
X177701185Y-116498815D01*
X177604494Y-116419463D01*
X177494180Y-116360498D01*
X177374482Y-116324188D01*
X177250000Y-116311928D01*
X175550000Y-116311928D01*
X175425518Y-116324188D01*
X175305820Y-116360498D01*
X175195506Y-116419463D01*
X175098815Y-116498815D01*
X175019463Y-116595506D01*
X174960498Y-116705820D01*
X174936034Y-116786466D01*
X174860269Y-116702412D01*
X174626920Y-116528359D01*
X174364099Y-116403175D01*
X174216890Y-116358524D01*
X173987000Y-116479845D01*
X173987000Y-117673000D01*
X174007000Y-117673000D01*
X174007000Y-117927000D01*
X173987000Y-117927000D01*
X173987000Y-117947000D01*
X173733000Y-117947000D01*
X173733000Y-117927000D01*
X173713000Y-117927000D01*
X173713000Y-117673000D01*
X173733000Y-117673000D01*
X173733000Y-116479845D01*
X173503110Y-116358524D01*
X173355901Y-116403175D01*
X173093080Y-116528359D01*
X172859731Y-116702412D01*
X172664822Y-116918645D01*
X172595195Y-117035534D01*
X172473475Y-116853368D01*
X172266632Y-116646525D01*
X172023411Y-116484010D01*
X171753158Y-116372068D01*
X171466260Y-116315000D01*
X171173740Y-116315000D01*
X170886842Y-116372068D01*
X170616589Y-116484010D01*
X170373368Y-116646525D01*
X170166525Y-116853368D01*
X170050000Y-117027760D01*
X169933475Y-116853368D01*
X169726632Y-116646525D01*
X169483411Y-116484010D01*
X169213158Y-116372068D01*
X168926260Y-116315000D01*
X168633740Y-116315000D01*
X168346842Y-116372068D01*
X168076589Y-116484010D01*
X167833368Y-116646525D01*
X167626525Y-116853368D01*
X167510000Y-117027760D01*
X167393475Y-116853368D01*
X167186632Y-116646525D01*
X166943411Y-116484010D01*
X166673158Y-116372068D01*
X166386260Y-116315000D01*
X166093740Y-116315000D01*
X166035000Y-116326684D01*
X166035000Y-116298061D01*
X165995226Y-116098102D01*
X165917205Y-115909744D01*
X165824920Y-115771630D01*
X165895226Y-115601898D01*
X165935000Y-115401939D01*
X165935000Y-115198061D01*
X165895226Y-114998102D01*
X165817205Y-114809744D01*
X165703937Y-114640226D01*
X165559774Y-114496063D01*
X165390256Y-114382795D01*
X165201898Y-114304774D01*
X165001939Y-114265000D01*
X164798061Y-114265000D01*
X164598102Y-114304774D01*
X164409744Y-114382795D01*
X164240226Y-114496063D01*
X164196289Y-114540000D01*
X162737323Y-114540000D01*
X162700000Y-114536324D01*
X162662677Y-114540000D01*
X162662667Y-114540000D01*
X162551014Y-114550997D01*
X162407753Y-114594454D01*
X162275723Y-114665026D01*
X162192083Y-114733668D01*
X162159999Y-114759999D01*
X162136201Y-114788997D01*
X160649003Y-116276196D01*
X160619999Y-116299999D01*
X160571969Y-116358524D01*
X160525026Y-116415724D01*
X160497608Y-116467020D01*
X160456589Y-116484010D01*
X160213368Y-116646525D01*
X160006525Y-116853368D01*
X159890000Y-117027760D01*
X159773475Y-116853368D01*
X159566632Y-116646525D01*
X159323411Y-116484010D01*
X159053158Y-116372068D01*
X158766260Y-116315000D01*
X158473740Y-116315000D01*
X158186842Y-116372068D01*
X157916589Y-116484010D01*
X157673368Y-116646525D01*
X157466525Y-116853368D01*
X157304010Y-117096589D01*
X157192068Y-117366842D01*
X157135000Y-117653740D01*
X157135000Y-117946260D01*
X157192068Y-118233158D01*
X157304010Y-118503411D01*
X157378571Y-118615000D01*
X155259801Y-118615000D01*
X157211003Y-116663799D01*
X157240001Y-116640001D01*
X157279192Y-116592247D01*
X157334974Y-116524277D01*
X157405546Y-116392247D01*
X157415177Y-116360498D01*
X157449003Y-116248986D01*
X157460000Y-116137333D01*
X157460000Y-116137323D01*
X157463676Y-116100000D01*
X157460000Y-116062677D01*
X157460000Y-115614801D01*
X158846862Y-114227940D01*
X158795000Y-114488665D01*
X158795000Y-114771335D01*
X158850147Y-115048574D01*
X158958320Y-115309727D01*
X159115363Y-115544759D01*
X159315241Y-115744637D01*
X159550273Y-115901680D01*
X159811426Y-116009853D01*
X160088665Y-116065000D01*
X160371335Y-116065000D01*
X160648574Y-116009853D01*
X160909727Y-115901680D01*
X161144759Y-115744637D01*
X161344637Y-115544759D01*
X161501680Y-115309727D01*
X161609853Y-115048574D01*
X161665000Y-114771335D01*
X161665000Y-114488665D01*
X161609853Y-114211426D01*
X161511923Y-113975001D01*
X174031928Y-113975001D01*
X174031928Y-115430000D01*
%TA.AperFunction,Conductor*%
D24*
G36*
X174031928Y-115430000D02*
G01*
X174044188Y-115554482D01*
X174080498Y-115674180D01*
X174139463Y-115784494D01*
X174218815Y-115881185D01*
X174315506Y-115960537D01*
X174425820Y-116019502D01*
X174545518Y-116055812D01*
X174670000Y-116068072D01*
X176270000Y-116068072D01*
X176394482Y-116055812D01*
X176514180Y-116019502D01*
X176624494Y-115960537D01*
X176721185Y-115881185D01*
X176800537Y-115784494D01*
X176859502Y-115674180D01*
X176895812Y-115554482D01*
X176908072Y-115430000D01*
X176908072Y-113975001D01*
X178884333Y-113975001D01*
X178676511Y-114182823D01*
X178278705Y-114778182D01*
X178004691Y-115439710D01*
X177865000Y-116141984D01*
X177865000Y-116789876D01*
X177839502Y-116705820D01*
X177780537Y-116595506D01*
X177701185Y-116498815D01*
X177604494Y-116419463D01*
X177494180Y-116360498D01*
X177374482Y-116324188D01*
X177250000Y-116311928D01*
X175550000Y-116311928D01*
X175425518Y-116324188D01*
X175305820Y-116360498D01*
X175195506Y-116419463D01*
X175098815Y-116498815D01*
X175019463Y-116595506D01*
X174960498Y-116705820D01*
X174936034Y-116786466D01*
X174860269Y-116702412D01*
X174626920Y-116528359D01*
X174364099Y-116403175D01*
X174216890Y-116358524D01*
X173987000Y-116479845D01*
X173987000Y-117673000D01*
X174007000Y-117673000D01*
X174007000Y-117927000D01*
X173987000Y-117927000D01*
X173987000Y-117947000D01*
X173733000Y-117947000D01*
X173733000Y-117927000D01*
X173713000Y-117927000D01*
X173713000Y-117673000D01*
X173733000Y-117673000D01*
X173733000Y-116479845D01*
X173503110Y-116358524D01*
X173355901Y-116403175D01*
X173093080Y-116528359D01*
X172859731Y-116702412D01*
X172664822Y-116918645D01*
X172595195Y-117035534D01*
X172473475Y-116853368D01*
X172266632Y-116646525D01*
X172023411Y-116484010D01*
X171753158Y-116372068D01*
X171466260Y-116315000D01*
X171173740Y-116315000D01*
X170886842Y-116372068D01*
X170616589Y-116484010D01*
X170373368Y-116646525D01*
X170166525Y-116853368D01*
X170050000Y-117027760D01*
X169933475Y-116853368D01*
X169726632Y-116646525D01*
X169483411Y-116484010D01*
X169213158Y-116372068D01*
X168926260Y-116315000D01*
X168633740Y-116315000D01*
X168346842Y-116372068D01*
X168076589Y-116484010D01*
X167833368Y-116646525D01*
X167626525Y-116853368D01*
X167510000Y-117027760D01*
X167393475Y-116853368D01*
X167186632Y-116646525D01*
X166943411Y-116484010D01*
X166673158Y-116372068D01*
X166386260Y-116315000D01*
X166093740Y-116315000D01*
X166035000Y-116326684D01*
X166035000Y-116298061D01*
X165995226Y-116098102D01*
X165917205Y-115909744D01*
X165824920Y-115771630D01*
X165895226Y-115601898D01*
X165935000Y-115401939D01*
X165935000Y-115198061D01*
X165895226Y-114998102D01*
X165817205Y-114809744D01*
X165703937Y-114640226D01*
X165559774Y-114496063D01*
X165390256Y-114382795D01*
X165201898Y-114304774D01*
X165001939Y-114265000D01*
X164798061Y-114265000D01*
X164598102Y-114304774D01*
X164409744Y-114382795D01*
X164240226Y-114496063D01*
X164196289Y-114540000D01*
X162737323Y-114540000D01*
X162700000Y-114536324D01*
X162662677Y-114540000D01*
X162662667Y-114540000D01*
X162551014Y-114550997D01*
X162407753Y-114594454D01*
X162275723Y-114665026D01*
X162192083Y-114733668D01*
X162159999Y-114759999D01*
X162136201Y-114788997D01*
X160649003Y-116276196D01*
X160619999Y-116299999D01*
X160571969Y-116358524D01*
X160525026Y-116415724D01*
X160497608Y-116467020D01*
X160456589Y-116484010D01*
X160213368Y-116646525D01*
X160006525Y-116853368D01*
X159890000Y-117027760D01*
X159773475Y-116853368D01*
X159566632Y-116646525D01*
X159323411Y-116484010D01*
X159053158Y-116372068D01*
X158766260Y-116315000D01*
X158473740Y-116315000D01*
X158186842Y-116372068D01*
X157916589Y-116484010D01*
X157673368Y-116646525D01*
X157466525Y-116853368D01*
X157304010Y-117096589D01*
X157192068Y-117366842D01*
X157135000Y-117653740D01*
X157135000Y-117946260D01*
X157192068Y-118233158D01*
X157304010Y-118503411D01*
X157378571Y-118615000D01*
X155259801Y-118615000D01*
X157211003Y-116663799D01*
X157240001Y-116640001D01*
X157279192Y-116592247D01*
X157334974Y-116524277D01*
X157405546Y-116392247D01*
X157415177Y-116360498D01*
X157449003Y-116248986D01*
X157460000Y-116137333D01*
X157460000Y-116137323D01*
X157463676Y-116100000D01*
X157460000Y-116062677D01*
X157460000Y-115614801D01*
X158846862Y-114227940D01*
X158795000Y-114488665D01*
X158795000Y-114771335D01*
X158850147Y-115048574D01*
X158958320Y-115309727D01*
X159115363Y-115544759D01*
X159315241Y-115744637D01*
X159550273Y-115901680D01*
X159811426Y-116009853D01*
X160088665Y-116065000D01*
X160371335Y-116065000D01*
X160648574Y-116009853D01*
X160909727Y-115901680D01*
X161144759Y-115744637D01*
X161344637Y-115544759D01*
X161501680Y-115309727D01*
X161609853Y-115048574D01*
X161665000Y-114771335D01*
X161665000Y-114488665D01*
X161609853Y-114211426D01*
X161511923Y-113975001D01*
X174031928Y-113975001D01*
X174031928Y-115430000D01*
G37*
%TD.AperFunction*%
D23*
X153519463Y-111404494D02*
X153598815Y-111501185D01*
X153695506Y-111580537D01*
X153805820Y-111639502D01*
X153878380Y-111661513D01*
X153746525Y-111793368D01*
X153584010Y-112036589D01*
X153472068Y-112306842D01*
X153415000Y-112593740D01*
X153415000Y-112886260D01*
X153472068Y-113173158D01*
X153584010Y-113443411D01*
X153746525Y-113686632D01*
X153953368Y-113893475D01*
X154127760Y-114010000D01*
X153953368Y-114126525D01*
X153746525Y-114333368D01*
X153584010Y-114576589D01*
X153472068Y-114846842D01*
X153415000Y-115133740D01*
X153415000Y-115426260D01*
X153472068Y-115713158D01*
X153584010Y-115983411D01*
X153746525Y-116226632D01*
X153953368Y-116433475D01*
X154196589Y-116595990D01*
X154466842Y-116707932D01*
X154753740Y-116765000D01*
X154960198Y-116765000D01*
X153585199Y-118140000D01*
X146514802Y-118140000D01*
X141660000Y-113285199D01*
X141660000Y-112903711D01*
X141703937Y-112859774D01*
X141817205Y-112690256D01*
X141895226Y-112501898D01*
X141935000Y-112301939D01*
X141935000Y-112098061D01*
X141932404Y-112085011D01*
X144810210Y-112085011D01*
X145065000Y-112339801D01*
X145065000Y-112401939D01*
X145104774Y-112601898D01*
X145182795Y-112790256D01*
X145296063Y-112959774D01*
X145440226Y-113103937D01*
X145609744Y-113217205D01*
X145798102Y-113295226D01*
X145998061Y-113335000D01*
X146201939Y-113335000D01*
X146401898Y-113295226D01*
X146590256Y-113217205D01*
X146759774Y-113103937D01*
X146903937Y-112959774D01*
X147017205Y-112790256D01*
X147095226Y-112601898D01*
X147135000Y-112401939D01*
X147135000Y-112198061D01*
X147095226Y-111998102D01*
X147017205Y-111809744D01*
X146903937Y-111640226D01*
X146898712Y-111635001D01*
X148740001Y-111635001D01*
X148740000Y-115596289D01*
X148696063Y-115640226D01*
X148582795Y-115809744D01*
X148504774Y-115998102D01*
X148465000Y-116198061D01*
X148465000Y-116401939D01*
X148504774Y-116601898D01*
X148582795Y-116790256D01*
X148696063Y-116959774D01*
X148840226Y-117103937D01*
X149009744Y-117217205D01*
X149198102Y-117295226D01*
X149398061Y-117335000D01*
X149601939Y-117335000D01*
X149801898Y-117295226D01*
X149990256Y-117217205D01*
X150159774Y-117103937D01*
X150303937Y-116959774D01*
X150417205Y-116790256D01*
X150419941Y-116783652D01*
X150540226Y-116903937D01*
X150709744Y-117017205D01*
X150898102Y-117095226D01*
X151098061Y-117135000D01*
X151301939Y-117135000D01*
X151501898Y-117095226D01*
X151690256Y-117017205D01*
X151859774Y-116903937D01*
X152003937Y-116759774D01*
X152117205Y-116590256D01*
X152195226Y-116401898D01*
X152235000Y-116201939D01*
X152235000Y-116139802D01*
X152611004Y-115763798D01*
X152640001Y-115740001D01*
X152734974Y-115624276D01*
X152805546Y-115492247D01*
X152849003Y-115348986D01*
X152860000Y-115237333D01*
X152860000Y-115237324D01*
X152863676Y-115200001D01*
X152860000Y-115162678D01*
X152860000Y-112014801D01*
X153502341Y-111372461D01*
X153519463Y-111404494D01*
%TA.AperFunction,Conductor*%
D24*
G36*
X153519463Y-111404494D02*
G01*
X153598815Y-111501185D01*
X153695506Y-111580537D01*
X153805820Y-111639502D01*
X153878380Y-111661513D01*
X153746525Y-111793368D01*
X153584010Y-112036589D01*
X153472068Y-112306842D01*
X153415000Y-112593740D01*
X153415000Y-112886260D01*
X153472068Y-113173158D01*
X153584010Y-113443411D01*
X153746525Y-113686632D01*
X153953368Y-113893475D01*
X154127760Y-114010000D01*
X153953368Y-114126525D01*
X153746525Y-114333368D01*
X153584010Y-114576589D01*
X153472068Y-114846842D01*
X153415000Y-115133740D01*
X153415000Y-115426260D01*
X153472068Y-115713158D01*
X153584010Y-115983411D01*
X153746525Y-116226632D01*
X153953368Y-116433475D01*
X154196589Y-116595990D01*
X154466842Y-116707932D01*
X154753740Y-116765000D01*
X154960198Y-116765000D01*
X153585199Y-118140000D01*
X146514802Y-118140000D01*
X141660000Y-113285199D01*
X141660000Y-112903711D01*
X141703937Y-112859774D01*
X141817205Y-112690256D01*
X141895226Y-112501898D01*
X141935000Y-112301939D01*
X141935000Y-112098061D01*
X141932404Y-112085011D01*
X144810210Y-112085011D01*
X145065000Y-112339801D01*
X145065000Y-112401939D01*
X145104774Y-112601898D01*
X145182795Y-112790256D01*
X145296063Y-112959774D01*
X145440226Y-113103937D01*
X145609744Y-113217205D01*
X145798102Y-113295226D01*
X145998061Y-113335000D01*
X146201939Y-113335000D01*
X146401898Y-113295226D01*
X146590256Y-113217205D01*
X146759774Y-113103937D01*
X146903937Y-112959774D01*
X147017205Y-112790256D01*
X147095226Y-112601898D01*
X147135000Y-112401939D01*
X147135000Y-112198061D01*
X147095226Y-111998102D01*
X147017205Y-111809744D01*
X146903937Y-111640226D01*
X146898712Y-111635001D01*
X148740001Y-111635001D01*
X148740000Y-115596289D01*
X148696063Y-115640226D01*
X148582795Y-115809744D01*
X148504774Y-115998102D01*
X148465000Y-116198061D01*
X148465000Y-116401939D01*
X148504774Y-116601898D01*
X148582795Y-116790256D01*
X148696063Y-116959774D01*
X148840226Y-117103937D01*
X149009744Y-117217205D01*
X149198102Y-117295226D01*
X149398061Y-117335000D01*
X149601939Y-117335000D01*
X149801898Y-117295226D01*
X149990256Y-117217205D01*
X150159774Y-117103937D01*
X150303937Y-116959774D01*
X150417205Y-116790256D01*
X150419941Y-116783652D01*
X150540226Y-116903937D01*
X150709744Y-117017205D01*
X150898102Y-117095226D01*
X151098061Y-117135000D01*
X151301939Y-117135000D01*
X151501898Y-117095226D01*
X151690256Y-117017205D01*
X151859774Y-116903937D01*
X152003937Y-116759774D01*
X152117205Y-116590256D01*
X152195226Y-116401898D01*
X152235000Y-116201939D01*
X152235000Y-116139802D01*
X152611004Y-115763798D01*
X152640001Y-115740001D01*
X152734974Y-115624276D01*
X152805546Y-115492247D01*
X152849003Y-115348986D01*
X152860000Y-115237333D01*
X152860000Y-115237324D01*
X152863676Y-115200001D01*
X152860000Y-115162678D01*
X152860000Y-112014801D01*
X153502341Y-111372461D01*
X153519463Y-111404494D01*
G37*
%TD.AperFunction*%
D23*
X161687753Y-109585546D02*
X161747552Y-109603685D01*
X161696916Y-109698418D01*
X161652071Y-109846255D01*
X161636928Y-110000000D01*
X161636928Y-110300000D01*
X161652071Y-110453745D01*
X161696916Y-110601582D01*
X161769742Y-110737829D01*
X161867749Y-110857251D01*
X161987171Y-110955258D01*
X162123418Y-111028084D01*
X162271255Y-111072929D01*
X162425000Y-111088072D01*
X164175000Y-111088072D01*
X164328745Y-111072929D01*
X164476582Y-111028084D01*
X164612829Y-110955258D01*
X164667976Y-110910000D01*
X165535198Y-110910000D01*
X165640001Y-111014803D01*
X165640000Y-111721289D01*
X165596063Y-111765226D01*
X165482795Y-111934744D01*
X165404774Y-112123102D01*
X165365000Y-112323061D01*
X165365000Y-112455001D01*
X161617902Y-112455001D01*
X161656300Y-112301816D01*
X161670217Y-112019488D01*
X161628787Y-111739870D01*
X161533603Y-111473708D01*
X161466671Y-111348486D01*
X161222702Y-111276903D01*
X160409605Y-112090000D01*
X160423748Y-112104143D01*
X160244143Y-112283748D01*
X160230000Y-112269605D01*
X160215858Y-112283748D01*
X160036253Y-112104143D01*
X160050395Y-112090000D01*
X159237298Y-111276903D01*
X158993329Y-111348486D01*
X158872437Y-111603979D01*
X158879548Y-111580537D01*
X158898280Y-111518788D01*
X158910000Y-111399791D01*
X158910000Y-111399788D01*
X158913919Y-111360000D01*
X158910000Y-111320212D01*
X158910000Y-110113072D01*
X158958320Y-110229727D01*
X159115363Y-110464759D01*
X159315241Y-110664637D01*
X159549128Y-110820915D01*
X159488486Y-110853329D01*
X159416903Y-111097298D01*
X160230000Y-111910395D01*
X161043097Y-111097298D01*
X160971514Y-110853329D01*
X160907008Y-110822806D01*
X160909727Y-110821680D01*
X161144759Y-110664637D01*
X161344637Y-110464759D01*
X161501680Y-110229727D01*
X161609853Y-109968574D01*
X161665000Y-109691335D01*
X161665000Y-109573384D01*
X161687753Y-109585546D01*
%TA.AperFunction,Conductor*%
D24*
G36*
X161687753Y-109585546D02*
G01*
X161747552Y-109603685D01*
X161696916Y-109698418D01*
X161652071Y-109846255D01*
X161636928Y-110000000D01*
X161636928Y-110300000D01*
X161652071Y-110453745D01*
X161696916Y-110601582D01*
X161769742Y-110737829D01*
X161867749Y-110857251D01*
X161987171Y-110955258D01*
X162123418Y-111028084D01*
X162271255Y-111072929D01*
X162425000Y-111088072D01*
X164175000Y-111088072D01*
X164328745Y-111072929D01*
X164476582Y-111028084D01*
X164612829Y-110955258D01*
X164667976Y-110910000D01*
X165535198Y-110910000D01*
X165640001Y-111014803D01*
X165640000Y-111721289D01*
X165596063Y-111765226D01*
X165482795Y-111934744D01*
X165404774Y-112123102D01*
X165365000Y-112323061D01*
X165365000Y-112455001D01*
X161617902Y-112455001D01*
X161656300Y-112301816D01*
X161670217Y-112019488D01*
X161628787Y-111739870D01*
X161533603Y-111473708D01*
X161466671Y-111348486D01*
X161222702Y-111276903D01*
X160409605Y-112090000D01*
X160423748Y-112104143D01*
X160244143Y-112283748D01*
X160230000Y-112269605D01*
X160215858Y-112283748D01*
X160036253Y-112104143D01*
X160050395Y-112090000D01*
X159237298Y-111276903D01*
X158993329Y-111348486D01*
X158872437Y-111603979D01*
X158879548Y-111580537D01*
X158898280Y-111518788D01*
X158910000Y-111399791D01*
X158910000Y-111399788D01*
X158913919Y-111360000D01*
X158910000Y-111320212D01*
X158910000Y-110113072D01*
X158958320Y-110229727D01*
X159115363Y-110464759D01*
X159315241Y-110664637D01*
X159549128Y-110820915D01*
X159488486Y-110853329D01*
X159416903Y-111097298D01*
X160230000Y-111910395D01*
X161043097Y-111097298D01*
X160971514Y-110853329D01*
X160907008Y-110822806D01*
X160909727Y-110821680D01*
X161144759Y-110664637D01*
X161344637Y-110464759D01*
X161501680Y-110229727D01*
X161609853Y-109968574D01*
X161665000Y-109691335D01*
X161665000Y-109573384D01*
X161687753Y-109585546D01*
G37*
%TD.AperFunction*%
D23*
X180316525Y-93906632D02*
X180523368Y-94113475D01*
X180705534Y-94235195D01*
X180588645Y-94304822D01*
X180372412Y-94499731D01*
X180198359Y-94733080D01*
X180073175Y-94995901D01*
X180028524Y-95143110D01*
X180149845Y-95373000D01*
X181343000Y-95373000D01*
X181343000Y-95353000D01*
X181597000Y-95353000D01*
X181597000Y-95373000D01*
X181617000Y-95373000D01*
X181617000Y-95627000D01*
X181597000Y-95627000D01*
X181597000Y-95647000D01*
X181343000Y-95647000D01*
X181343000Y-95627000D01*
X180149845Y-95627000D01*
X180028524Y-95856890D01*
X180073175Y-96004099D01*
X180198359Y-96266920D01*
X180372412Y-96500269D01*
X180456466Y-96576034D01*
X180375820Y-96600498D01*
X180265506Y-96659463D01*
X180168815Y-96738815D01*
X180089463Y-96835506D01*
X180030498Y-96945820D01*
X179994188Y-97065518D01*
X179981928Y-97190000D01*
X179981928Y-98890000D01*
X179994188Y-99014482D01*
X180030498Y-99134180D01*
X180089463Y-99244494D01*
X180168815Y-99341185D01*
X180265506Y-99420537D01*
X180375820Y-99479502D01*
X180495518Y-99515812D01*
X180620000Y-99528072D01*
X182240001Y-99528072D01*
X182240000Y-109562667D01*
X182240000Y-109985198D01*
X179770198Y-112455001D01*
X176860509Y-112455001D01*
X176905000Y-112231335D01*
X176905000Y-111948665D01*
X176849853Y-111671426D01*
X176741680Y-111410273D01*
X176665672Y-111296518D01*
X176765000Y-111215002D01*
X176788802Y-111185999D01*
X177511004Y-110463798D01*
X177540001Y-110440001D01*
X177579192Y-110392247D01*
X177634974Y-110324277D01*
X177705546Y-110192247D01*
X177718053Y-110151015D01*
X177749003Y-110048986D01*
X177760000Y-109937333D01*
X177760000Y-109937323D01*
X177763676Y-109900000D01*
X177760000Y-109862677D01*
X177760000Y-103497325D01*
X177763676Y-103460000D01*
X177760000Y-103422675D01*
X177760000Y-103422667D01*
X177749003Y-103311014D01*
X177705546Y-103167753D01*
X177634974Y-103035724D01*
X177540001Y-102919999D01*
X177511003Y-102896201D01*
X176868688Y-102253886D01*
X176905000Y-102071335D01*
X176905000Y-101788665D01*
X176849853Y-101511426D01*
X176741680Y-101250273D01*
X176584637Y-101015241D01*
X176384759Y-100815363D01*
X176152241Y-100660000D01*
X176384759Y-100504637D01*
X176584637Y-100304759D01*
X176741680Y-100069727D01*
X176745709Y-100060000D01*
X177632678Y-100060000D01*
X177670000Y-100063676D01*
X177707322Y-100060000D01*
X177707333Y-100060000D01*
X177818986Y-100049003D01*
X177962247Y-100005546D01*
X178094276Y-99934974D01*
X178210001Y-99840001D01*
X178233803Y-99810998D01*
X179111003Y-98933799D01*
X179140001Y-98910001D01*
X179234974Y-98794276D01*
X179305546Y-98662247D01*
X179349003Y-98518986D01*
X179360000Y-98407333D01*
X179363677Y-98370000D01*
X179360000Y-98332667D01*
X179360000Y-94814801D01*
X180297157Y-93877645D01*
X180316525Y-93906632D01*
%TA.AperFunction,Conductor*%
D24*
G36*
X180316525Y-93906632D02*
G01*
X180523368Y-94113475D01*
X180705534Y-94235195D01*
X180588645Y-94304822D01*
X180372412Y-94499731D01*
X180198359Y-94733080D01*
X180073175Y-94995901D01*
X180028524Y-95143110D01*
X180149845Y-95373000D01*
X181343000Y-95373000D01*
X181343000Y-95353000D01*
X181597000Y-95353000D01*
X181597000Y-95373000D01*
X181617000Y-95373000D01*
X181617000Y-95627000D01*
X181597000Y-95627000D01*
X181597000Y-95647000D01*
X181343000Y-95647000D01*
X181343000Y-95627000D01*
X180149845Y-95627000D01*
X180028524Y-95856890D01*
X180073175Y-96004099D01*
X180198359Y-96266920D01*
X180372412Y-96500269D01*
X180456466Y-96576034D01*
X180375820Y-96600498D01*
X180265506Y-96659463D01*
X180168815Y-96738815D01*
X180089463Y-96835506D01*
X180030498Y-96945820D01*
X179994188Y-97065518D01*
X179981928Y-97190000D01*
X179981928Y-98890000D01*
X179994188Y-99014482D01*
X180030498Y-99134180D01*
X180089463Y-99244494D01*
X180168815Y-99341185D01*
X180265506Y-99420537D01*
X180375820Y-99479502D01*
X180495518Y-99515812D01*
X180620000Y-99528072D01*
X182240001Y-99528072D01*
X182240000Y-109562667D01*
X182240000Y-109985198D01*
X179770198Y-112455001D01*
X176860509Y-112455001D01*
X176905000Y-112231335D01*
X176905000Y-111948665D01*
X176849853Y-111671426D01*
X176741680Y-111410273D01*
X176665672Y-111296518D01*
X176765000Y-111215002D01*
X176788802Y-111185999D01*
X177511004Y-110463798D01*
X177540001Y-110440001D01*
X177579192Y-110392247D01*
X177634974Y-110324277D01*
X177705546Y-110192247D01*
X177718053Y-110151015D01*
X177749003Y-110048986D01*
X177760000Y-109937333D01*
X177760000Y-109937323D01*
X177763676Y-109900000D01*
X177760000Y-109862677D01*
X177760000Y-103497325D01*
X177763676Y-103460000D01*
X177760000Y-103422675D01*
X177760000Y-103422667D01*
X177749003Y-103311014D01*
X177705546Y-103167753D01*
X177634974Y-103035724D01*
X177540001Y-102919999D01*
X177511003Y-102896201D01*
X176868688Y-102253886D01*
X176905000Y-102071335D01*
X176905000Y-101788665D01*
X176849853Y-101511426D01*
X176741680Y-101250273D01*
X176584637Y-101015241D01*
X176384759Y-100815363D01*
X176152241Y-100660000D01*
X176384759Y-100504637D01*
X176584637Y-100304759D01*
X176741680Y-100069727D01*
X176745709Y-100060000D01*
X177632678Y-100060000D01*
X177670000Y-100063676D01*
X177707322Y-100060000D01*
X177707333Y-100060000D01*
X177818986Y-100049003D01*
X177962247Y-100005546D01*
X178094276Y-99934974D01*
X178210001Y-99840001D01*
X178233803Y-99810998D01*
X179111003Y-98933799D01*
X179140001Y-98910001D01*
X179234974Y-98794276D01*
X179305546Y-98662247D01*
X179349003Y-98518986D01*
X179360000Y-98407333D01*
X179363677Y-98370000D01*
X179360000Y-98332667D01*
X179360000Y-94814801D01*
X180297157Y-93877645D01*
X180316525Y-93906632D01*
G37*
%TD.AperFunction*%
D23*
X151115000Y-101266260D02*
X151158790Y-101486408D01*
X150188998Y-102456201D01*
X150160000Y-102479999D01*
X150136202Y-102508997D01*
X150136201Y-102508998D01*
X150065026Y-102595724D01*
X149994454Y-102727754D01*
X149975937Y-102788800D01*
X149950998Y-102871014D01*
X149940854Y-102974003D01*
X149936324Y-103020000D01*
X149940001Y-103057332D01*
X149940000Y-109985198D01*
X149810198Y-110115001D01*
X148589799Y-110115001D01*
X148595226Y-110101898D01*
X148635000Y-109901939D01*
X148635000Y-109698061D01*
X148595226Y-109498102D01*
X148517205Y-109309744D01*
X148403937Y-109140226D01*
X148360000Y-109096289D01*
X148360000Y-105337333D01*
X148363677Y-105300000D01*
X148349003Y-105151014D01*
X148305546Y-105007753D01*
X148234974Y-104875724D01*
X148201553Y-104835000D01*
X148401939Y-104835000D01*
X148601898Y-104795226D01*
X148790256Y-104717205D01*
X148959774Y-104603937D01*
X149103937Y-104459774D01*
X149217205Y-104290256D01*
X149295226Y-104101898D01*
X149335000Y-103901939D01*
X149335000Y-103698061D01*
X149295226Y-103498102D01*
X149217205Y-103309744D01*
X149108198Y-103146603D01*
X151115000Y-101139802D01*
X151115000Y-101266260D01*
%TA.AperFunction,Conductor*%
D24*
G36*
X151115000Y-101266260D02*
G01*
X151158790Y-101486408D01*
X150188998Y-102456201D01*
X150160000Y-102479999D01*
X150136202Y-102508997D01*
X150136201Y-102508998D01*
X150065026Y-102595724D01*
X149994454Y-102727754D01*
X149975937Y-102788800D01*
X149950998Y-102871014D01*
X149940854Y-102974003D01*
X149936324Y-103020000D01*
X149940001Y-103057332D01*
X149940000Y-109985198D01*
X149810198Y-110115001D01*
X148589799Y-110115001D01*
X148595226Y-110101898D01*
X148635000Y-109901939D01*
X148635000Y-109698061D01*
X148595226Y-109498102D01*
X148517205Y-109309744D01*
X148403937Y-109140226D01*
X148360000Y-109096289D01*
X148360000Y-105337333D01*
X148363677Y-105300000D01*
X148349003Y-105151014D01*
X148305546Y-105007753D01*
X148234974Y-104875724D01*
X148201553Y-104835000D01*
X148401939Y-104835000D01*
X148601898Y-104795226D01*
X148790256Y-104717205D01*
X148959774Y-104603937D01*
X149103937Y-104459774D01*
X149217205Y-104290256D01*
X149295226Y-104101898D01*
X149335000Y-103901939D01*
X149335000Y-103698061D01*
X149295226Y-103498102D01*
X149217205Y-103309744D01*
X149108198Y-103146603D01*
X151115000Y-101139802D01*
X151115000Y-101266260D01*
G37*
%TD.AperFunction*%
D23*
X173446205Y-99901008D02*
X173469999Y-99930001D01*
X173498992Y-99953795D01*
X173498996Y-99953799D01*
X173562051Y-100005546D01*
X173585724Y-100024974D01*
X173717753Y-100095546D01*
X173861014Y-100139003D01*
X173972667Y-100150000D01*
X173972676Y-100150000D01*
X174009999Y-100153676D01*
X174047322Y-100150000D01*
X174251957Y-100150000D01*
X174355363Y-100304759D01*
X174555241Y-100504637D01*
X174787759Y-100660000D01*
X174555241Y-100815363D01*
X174355363Y-101015241D01*
X174260000Y-101157962D01*
X174260000Y-101132998D01*
X174101252Y-101132998D01*
X174260000Y-100974250D01*
X174263072Y-100960000D01*
X174250812Y-100835518D01*
X174214502Y-100715820D01*
X174155537Y-100605506D01*
X174076185Y-100508815D01*
X173979494Y-100429463D01*
X173869180Y-100370498D01*
X173749482Y-100334188D01*
X173625000Y-100321928D01*
X172885750Y-100325000D01*
X172727000Y-100483750D01*
X172727000Y-101133000D01*
X172747000Y-101133000D01*
X172747000Y-101387000D01*
X172727000Y-101387000D01*
X172727000Y-102403000D01*
X172747000Y-102403000D01*
X172747000Y-102657000D01*
X172727000Y-102657000D01*
X172727000Y-103673000D01*
X172747000Y-103673000D01*
X172747000Y-103927000D01*
X172727000Y-103927000D01*
X172727000Y-104943000D01*
X172747000Y-104943000D01*
X172747000Y-105197000D01*
X172727000Y-105197000D01*
X172727000Y-106213000D01*
X172747000Y-106213000D01*
X172747000Y-106467000D01*
X172727000Y-106467000D01*
X172727000Y-106487000D01*
X172473000Y-106487000D01*
X172473000Y-106467000D01*
X171098750Y-106467000D01*
X170940000Y-106625750D01*
X170936928Y-106640000D01*
X170949188Y-106764482D01*
X170985498Y-106884180D01*
X171043713Y-106993090D01*
X170949999Y-107069999D01*
X170926201Y-107098997D01*
X169189003Y-108836196D01*
X169159999Y-108859999D01*
X169116574Y-108912913D01*
X169065026Y-108975724D01*
X169022104Y-109056025D01*
X168994454Y-109107754D01*
X168950997Y-109251015D01*
X168940000Y-109362668D01*
X168940000Y-109362678D01*
X168936324Y-109400000D01*
X168940000Y-109437323D01*
X168940000Y-109765198D01*
X165003804Y-105829003D01*
X164980001Y-105799999D01*
X164865435Y-105705977D01*
X164914502Y-105614180D01*
X164950812Y-105494482D01*
X164963072Y-105370000D01*
X170936928Y-105370000D01*
X170949188Y-105494482D01*
X170985498Y-105614180D01*
X171034043Y-105705000D01*
X170985498Y-105795820D01*
X170949188Y-105915518D01*
X170936928Y-106040000D01*
X170940000Y-106054250D01*
X171098750Y-106213000D01*
X172473000Y-106213000D01*
X172473000Y-105197000D01*
X171098750Y-105197000D01*
X170940000Y-105355750D01*
X170936928Y-105370000D01*
X164963072Y-105370000D01*
X164960000Y-105355750D01*
X164801250Y-105197000D01*
X163427000Y-105197000D01*
X163427000Y-105217000D01*
X163173000Y-105217000D01*
X163173000Y-105197000D01*
X163153000Y-105197000D01*
X163153000Y-104943000D01*
X163173000Y-104943000D01*
X163173000Y-103927000D01*
X163427000Y-103927000D01*
X163427000Y-104943000D01*
X164801250Y-104943000D01*
X164960000Y-104784250D01*
X164963072Y-104770000D01*
X164950812Y-104645518D01*
X164914502Y-104525820D01*
X164865957Y-104435000D01*
X164914502Y-104344180D01*
X164950812Y-104224482D01*
X164963072Y-104100000D01*
X170936928Y-104100000D01*
X170949188Y-104224482D01*
X170985498Y-104344180D01*
X171034043Y-104435000D01*
X170985498Y-104525820D01*
X170949188Y-104645518D01*
X170936928Y-104770000D01*
X170940000Y-104784250D01*
X171098750Y-104943000D01*
X172473000Y-104943000D01*
X172473000Y-103927000D01*
X171098750Y-103927000D01*
X170940000Y-104085750D01*
X170936928Y-104100000D01*
X164963072Y-104100000D01*
X164960000Y-104085750D01*
X164801250Y-103927000D01*
X163427000Y-103927000D01*
X163173000Y-103927000D01*
X163153000Y-103927000D01*
X163153000Y-103673000D01*
X163173000Y-103673000D01*
X163173000Y-102657000D01*
X163427000Y-102657000D01*
X163427000Y-103673000D01*
X164801250Y-103673000D01*
X164960000Y-103514250D01*
X164963072Y-103500000D01*
X164950812Y-103375518D01*
X164914502Y-103255820D01*
X164865957Y-103165000D01*
X164914502Y-103074180D01*
X164950812Y-102954482D01*
X164963072Y-102830000D01*
X170936928Y-102830000D01*
X170949188Y-102954482D01*
X170985498Y-103074180D01*
X171034043Y-103165000D01*
X170985498Y-103255820D01*
X170949188Y-103375518D01*
X170936928Y-103500000D01*
X170940000Y-103514250D01*
X171098750Y-103673000D01*
X172473000Y-103673000D01*
X172473000Y-102657000D01*
X171098750Y-102657000D01*
X170940000Y-102815750D01*
X170936928Y-102830000D01*
X164963072Y-102830000D01*
X164960000Y-102815750D01*
X164801250Y-102657000D01*
X163427000Y-102657000D01*
X163173000Y-102657000D01*
X163153000Y-102657000D01*
X163153000Y-102403000D01*
X163173000Y-102403000D01*
X163173000Y-101387000D01*
X163427000Y-101387000D01*
X163427000Y-102403000D01*
X164801250Y-102403000D01*
X164960000Y-102244250D01*
X164963072Y-102230000D01*
X164950812Y-102105518D01*
X164914502Y-101985820D01*
X164865957Y-101895000D01*
X164914502Y-101804180D01*
X164950812Y-101684482D01*
X164963072Y-101560000D01*
X170936928Y-101560000D01*
X170949188Y-101684482D01*
X170985498Y-101804180D01*
X171034043Y-101895000D01*
X170985498Y-101985820D01*
X170949188Y-102105518D01*
X170936928Y-102230000D01*
X170940000Y-102244250D01*
X171098750Y-102403000D01*
X172473000Y-102403000D01*
X172473000Y-101387000D01*
X171098750Y-101387000D01*
X170940000Y-101545750D01*
X170936928Y-101560000D01*
X164963072Y-101560000D01*
X164960000Y-101545750D01*
X164801250Y-101387000D01*
X163427000Y-101387000D01*
X163173000Y-101387000D01*
X163153000Y-101387000D01*
X163153000Y-101133000D01*
X163173000Y-101133000D01*
X163173000Y-101113000D01*
X163427000Y-101113000D01*
X163427000Y-101133000D01*
X164801250Y-101133000D01*
X164960000Y-100974250D01*
X164963072Y-100960000D01*
X164950812Y-100835518D01*
X164914502Y-100715820D01*
X164855537Y-100605506D01*
X164776185Y-100508815D01*
X164679494Y-100429463D01*
X164569180Y-100370498D01*
X164449482Y-100334188D01*
X164325000Y-100321928D01*
X163613147Y-100324886D01*
X165078034Y-98860000D01*
X165296289Y-98860000D01*
X165340226Y-98903937D01*
X165509744Y-99017205D01*
X165698102Y-99095226D01*
X165898061Y-99135000D01*
X166101939Y-99135000D01*
X166301898Y-99095226D01*
X166490256Y-99017205D01*
X166659774Y-98903937D01*
X166803937Y-98759774D01*
X166836395Y-98711197D01*
X167960971Y-99835773D01*
X167984769Y-99864771D01*
X168013767Y-99888569D01*
X168100493Y-99959744D01*
X168186182Y-100005546D01*
X168232523Y-100030316D01*
X168375784Y-100073773D01*
X168487437Y-100084770D01*
X168487447Y-100084770D01*
X168524770Y-100088446D01*
X168562093Y-100084770D01*
X170646364Y-100084770D01*
X170690301Y-100128707D01*
X170859819Y-100241975D01*
X171048177Y-100319996D01*
X171248136Y-100359770D01*
X171366185Y-100359770D01*
X171330820Y-100370498D01*
X171220506Y-100429463D01*
X171123815Y-100508815D01*
X171044463Y-100605506D01*
X170985498Y-100715820D01*
X170949188Y-100835518D01*
X170936928Y-100960000D01*
X170940000Y-100974250D01*
X171098750Y-101133000D01*
X172473000Y-101133000D01*
X172473000Y-100483750D01*
X172314250Y-100325000D01*
X171640884Y-100322202D01*
X171651973Y-100319996D01*
X171840331Y-100241975D01*
X172009849Y-100128707D01*
X172154012Y-99984544D01*
X172267280Y-99815026D01*
X172345301Y-99626668D01*
X172385075Y-99426709D01*
X172385075Y-99222831D01*
X172345301Y-99022872D01*
X172267280Y-98834514D01*
X172154012Y-98664996D01*
X172009849Y-98520833D01*
X171940000Y-98474162D01*
X171940000Y-98394802D01*
X173446205Y-99901008D01*
%TA.AperFunction,Conductor*%
D24*
G36*
X173446205Y-99901008D02*
G01*
X173469999Y-99930001D01*
X173498992Y-99953795D01*
X173498996Y-99953799D01*
X173562051Y-100005546D01*
X173585724Y-100024974D01*
X173717753Y-100095546D01*
X173861014Y-100139003D01*
X173972667Y-100150000D01*
X173972676Y-100150000D01*
X174009999Y-100153676D01*
X174047322Y-100150000D01*
X174251957Y-100150000D01*
X174355363Y-100304759D01*
X174555241Y-100504637D01*
X174787759Y-100660000D01*
X174555241Y-100815363D01*
X174355363Y-101015241D01*
X174260000Y-101157962D01*
X174260000Y-101132998D01*
X174101252Y-101132998D01*
X174260000Y-100974250D01*
X174263072Y-100960000D01*
X174250812Y-100835518D01*
X174214502Y-100715820D01*
X174155537Y-100605506D01*
X174076185Y-100508815D01*
X173979494Y-100429463D01*
X173869180Y-100370498D01*
X173749482Y-100334188D01*
X173625000Y-100321928D01*
X172885750Y-100325000D01*
X172727000Y-100483750D01*
X172727000Y-101133000D01*
X172747000Y-101133000D01*
X172747000Y-101387000D01*
X172727000Y-101387000D01*
X172727000Y-102403000D01*
X172747000Y-102403000D01*
X172747000Y-102657000D01*
X172727000Y-102657000D01*
X172727000Y-103673000D01*
X172747000Y-103673000D01*
X172747000Y-103927000D01*
X172727000Y-103927000D01*
X172727000Y-104943000D01*
X172747000Y-104943000D01*
X172747000Y-105197000D01*
X172727000Y-105197000D01*
X172727000Y-106213000D01*
X172747000Y-106213000D01*
X172747000Y-106467000D01*
X172727000Y-106467000D01*
X172727000Y-106487000D01*
X172473000Y-106487000D01*
X172473000Y-106467000D01*
X171098750Y-106467000D01*
X170940000Y-106625750D01*
X170936928Y-106640000D01*
X170949188Y-106764482D01*
X170985498Y-106884180D01*
X171043713Y-106993090D01*
X170949999Y-107069999D01*
X170926201Y-107098997D01*
X169189003Y-108836196D01*
X169159999Y-108859999D01*
X169116574Y-108912913D01*
X169065026Y-108975724D01*
X169022104Y-109056025D01*
X168994454Y-109107754D01*
X168950997Y-109251015D01*
X168940000Y-109362668D01*
X168940000Y-109362678D01*
X168936324Y-109400000D01*
X168940000Y-109437323D01*
X168940000Y-109765198D01*
X165003804Y-105829003D01*
X164980001Y-105799999D01*
X164865435Y-105705977D01*
X164914502Y-105614180D01*
X164950812Y-105494482D01*
X164963072Y-105370000D01*
X170936928Y-105370000D01*
X170949188Y-105494482D01*
X170985498Y-105614180D01*
X171034043Y-105705000D01*
X170985498Y-105795820D01*
X170949188Y-105915518D01*
X170936928Y-106040000D01*
X170940000Y-106054250D01*
X171098750Y-106213000D01*
X172473000Y-106213000D01*
X172473000Y-105197000D01*
X171098750Y-105197000D01*
X170940000Y-105355750D01*
X170936928Y-105370000D01*
X164963072Y-105370000D01*
X164960000Y-105355750D01*
X164801250Y-105197000D01*
X163427000Y-105197000D01*
X163427000Y-105217000D01*
X163173000Y-105217000D01*
X163173000Y-105197000D01*
X163153000Y-105197000D01*
X163153000Y-104943000D01*
X163173000Y-104943000D01*
X163173000Y-103927000D01*
X163427000Y-103927000D01*
X163427000Y-104943000D01*
X164801250Y-104943000D01*
X164960000Y-104784250D01*
X164963072Y-104770000D01*
X164950812Y-104645518D01*
X164914502Y-104525820D01*
X164865957Y-104435000D01*
X164914502Y-104344180D01*
X164950812Y-104224482D01*
X164963072Y-104100000D01*
X170936928Y-104100000D01*
X170949188Y-104224482D01*
X170985498Y-104344180D01*
X171034043Y-104435000D01*
X170985498Y-104525820D01*
X170949188Y-104645518D01*
X170936928Y-104770000D01*
X170940000Y-104784250D01*
X171098750Y-104943000D01*
X172473000Y-104943000D01*
X172473000Y-103927000D01*
X171098750Y-103927000D01*
X170940000Y-104085750D01*
X170936928Y-104100000D01*
X164963072Y-104100000D01*
X164960000Y-104085750D01*
X164801250Y-103927000D01*
X163427000Y-103927000D01*
X163173000Y-103927000D01*
X163153000Y-103927000D01*
X163153000Y-103673000D01*
X163173000Y-103673000D01*
X163173000Y-102657000D01*
X163427000Y-102657000D01*
X163427000Y-103673000D01*
X164801250Y-103673000D01*
X164960000Y-103514250D01*
X164963072Y-103500000D01*
X164950812Y-103375518D01*
X164914502Y-103255820D01*
X164865957Y-103165000D01*
X164914502Y-103074180D01*
X164950812Y-102954482D01*
X164963072Y-102830000D01*
X170936928Y-102830000D01*
X170949188Y-102954482D01*
X170985498Y-103074180D01*
X171034043Y-103165000D01*
X170985498Y-103255820D01*
X170949188Y-103375518D01*
X170936928Y-103500000D01*
X170940000Y-103514250D01*
X171098750Y-103673000D01*
X172473000Y-103673000D01*
X172473000Y-102657000D01*
X171098750Y-102657000D01*
X170940000Y-102815750D01*
X170936928Y-102830000D01*
X164963072Y-102830000D01*
X164960000Y-102815750D01*
X164801250Y-102657000D01*
X163427000Y-102657000D01*
X163173000Y-102657000D01*
X163153000Y-102657000D01*
X163153000Y-102403000D01*
X163173000Y-102403000D01*
X163173000Y-101387000D01*
X163427000Y-101387000D01*
X163427000Y-102403000D01*
X164801250Y-102403000D01*
X164960000Y-102244250D01*
X164963072Y-102230000D01*
X164950812Y-102105518D01*
X164914502Y-101985820D01*
X164865957Y-101895000D01*
X164914502Y-101804180D01*
X164950812Y-101684482D01*
X164963072Y-101560000D01*
X170936928Y-101560000D01*
X170949188Y-101684482D01*
X170985498Y-101804180D01*
X171034043Y-101895000D01*
X170985498Y-101985820D01*
X170949188Y-102105518D01*
X170936928Y-102230000D01*
X170940000Y-102244250D01*
X171098750Y-102403000D01*
X172473000Y-102403000D01*
X172473000Y-101387000D01*
X171098750Y-101387000D01*
X170940000Y-101545750D01*
X170936928Y-101560000D01*
X164963072Y-101560000D01*
X164960000Y-101545750D01*
X164801250Y-101387000D01*
X163427000Y-101387000D01*
X163173000Y-101387000D01*
X163153000Y-101387000D01*
X163153000Y-101133000D01*
X163173000Y-101133000D01*
X163173000Y-101113000D01*
X163427000Y-101113000D01*
X163427000Y-101133000D01*
X164801250Y-101133000D01*
X164960000Y-100974250D01*
X164963072Y-100960000D01*
X164950812Y-100835518D01*
X164914502Y-100715820D01*
X164855537Y-100605506D01*
X164776185Y-100508815D01*
X164679494Y-100429463D01*
X164569180Y-100370498D01*
X164449482Y-100334188D01*
X164325000Y-100321928D01*
X163613147Y-100324886D01*
X165078034Y-98860000D01*
X165296289Y-98860000D01*
X165340226Y-98903937D01*
X165509744Y-99017205D01*
X165698102Y-99095226D01*
X165898061Y-99135000D01*
X166101939Y-99135000D01*
X166301898Y-99095226D01*
X166490256Y-99017205D01*
X166659774Y-98903937D01*
X166803937Y-98759774D01*
X166836395Y-98711197D01*
X167960971Y-99835773D01*
X167984769Y-99864771D01*
X168013767Y-99888569D01*
X168100493Y-99959744D01*
X168186182Y-100005546D01*
X168232523Y-100030316D01*
X168375784Y-100073773D01*
X168487437Y-100084770D01*
X168487447Y-100084770D01*
X168524770Y-100088446D01*
X168562093Y-100084770D01*
X170646364Y-100084770D01*
X170690301Y-100128707D01*
X170859819Y-100241975D01*
X171048177Y-100319996D01*
X171248136Y-100359770D01*
X171366185Y-100359770D01*
X171330820Y-100370498D01*
X171220506Y-100429463D01*
X171123815Y-100508815D01*
X171044463Y-100605506D01*
X170985498Y-100715820D01*
X170949188Y-100835518D01*
X170936928Y-100960000D01*
X170940000Y-100974250D01*
X171098750Y-101133000D01*
X172473000Y-101133000D01*
X172473000Y-100483750D01*
X172314250Y-100325000D01*
X171640884Y-100322202D01*
X171651973Y-100319996D01*
X171840331Y-100241975D01*
X172009849Y-100128707D01*
X172154012Y-99984544D01*
X172267280Y-99815026D01*
X172345301Y-99626668D01*
X172385075Y-99426709D01*
X172385075Y-99222831D01*
X172345301Y-99022872D01*
X172267280Y-98834514D01*
X172154012Y-98664996D01*
X172009849Y-98520833D01*
X171940000Y-98474162D01*
X171940000Y-98394802D01*
X173446205Y-99901008D01*
G37*
%TD.AperFunction*%
D23*
X175663748Y-109535858D02*
X175649605Y-109550000D01*
X175663748Y-109564143D01*
X175484143Y-109743748D01*
X175470000Y-109729605D01*
X175455858Y-109743748D01*
X175276253Y-109564143D01*
X175290395Y-109550000D01*
X175276253Y-109535858D01*
X175455858Y-109356253D01*
X175470000Y-109370395D01*
X175484143Y-109356253D01*
X175663748Y-109535858D01*
%TA.AperFunction,Conductor*%
D24*
G36*
X175663748Y-109535858D02*
G01*
X175649605Y-109550000D01*
X175663748Y-109564143D01*
X175484143Y-109743748D01*
X175470000Y-109729605D01*
X175455858Y-109743748D01*
X175276253Y-109564143D01*
X175290395Y-109550000D01*
X175276253Y-109535858D01*
X175455858Y-109356253D01*
X175470000Y-109370395D01*
X175484143Y-109356253D01*
X175663748Y-109535858D01*
G37*
%TD.AperFunction*%
D23*
X174355363Y-105384759D02*
X174555241Y-105584637D01*
X174789128Y-105740915D01*
X174728486Y-105773329D01*
X174656903Y-106017298D01*
X175470000Y-106830395D01*
X175484143Y-106816253D01*
X175663748Y-106995858D01*
X175649605Y-107010000D01*
X175663748Y-107024143D01*
X175484143Y-107203748D01*
X175470000Y-107189605D01*
X175455858Y-107203748D01*
X175276253Y-107024143D01*
X175290395Y-107010000D01*
X174477298Y-106196903D01*
X174260000Y-106260660D01*
X174260000Y-106212998D01*
X174101252Y-106212998D01*
X174260000Y-106054250D01*
X174263072Y-106040000D01*
X174250812Y-105915518D01*
X174214502Y-105795820D01*
X174165957Y-105705000D01*
X174214502Y-105614180D01*
X174250812Y-105494482D01*
X174263072Y-105370000D01*
X174260000Y-105355750D01*
X174101252Y-105197002D01*
X174229908Y-105197002D01*
X174355363Y-105384759D01*
%TA.AperFunction,Conductor*%
D24*
G36*
X174355363Y-105384759D02*
G01*
X174555241Y-105584637D01*
X174789128Y-105740915D01*
X174728486Y-105773329D01*
X174656903Y-106017298D01*
X175470000Y-106830395D01*
X175484143Y-106816253D01*
X175663748Y-106995858D01*
X175649605Y-107010000D01*
X175663748Y-107024143D01*
X175484143Y-107203748D01*
X175470000Y-107189605D01*
X175455858Y-107203748D01*
X175276253Y-107024143D01*
X175290395Y-107010000D01*
X174477298Y-106196903D01*
X174260000Y-106260660D01*
X174260000Y-106212998D01*
X174101252Y-106212998D01*
X174260000Y-106054250D01*
X174263072Y-106040000D01*
X174250812Y-105915518D01*
X174214502Y-105795820D01*
X174165957Y-105705000D01*
X174214502Y-105614180D01*
X174250812Y-105494482D01*
X174263072Y-105370000D01*
X174260000Y-105355750D01*
X174101252Y-105197002D01*
X174229908Y-105197002D01*
X174355363Y-105384759D01*
G37*
%TD.AperFunction*%
D23*
X159115363Y-95224759D02*
X159315241Y-95424637D01*
X159547759Y-95580000D01*
X159315241Y-95735363D01*
X159115363Y-95935241D01*
X158958320Y-96170273D01*
X158850147Y-96431426D01*
X158795000Y-96708665D01*
X158795000Y-96991335D01*
X158850147Y-97268574D01*
X158958320Y-97529727D01*
X159115363Y-97764759D01*
X159315241Y-97964637D01*
X159547759Y-98120000D01*
X159315241Y-98275363D01*
X159115363Y-98475241D01*
X158958320Y-98710273D01*
X158850147Y-98971426D01*
X158795000Y-99248665D01*
X158795000Y-99531335D01*
X158850147Y-99808574D01*
X158958320Y-100069727D01*
X159115363Y-100304759D01*
X159315241Y-100504637D01*
X159547759Y-100660000D01*
X159315241Y-100815363D01*
X159115363Y-101015241D01*
X158958320Y-101250273D01*
X158850147Y-101511426D01*
X158811068Y-101707888D01*
X158769180Y-101685498D01*
X158649482Y-101649188D01*
X158525000Y-101636928D01*
X158085750Y-101640000D01*
X157927000Y-101798750D01*
X157927000Y-102735500D01*
X157947000Y-102735500D01*
X157947000Y-102989500D01*
X157927000Y-102989500D01*
X157927000Y-103009500D01*
X157673000Y-103009500D01*
X157673000Y-102989500D01*
X155927000Y-102989500D01*
X155927000Y-103009500D01*
X155673000Y-103009500D01*
X155673000Y-102989500D01*
X154598750Y-102989500D01*
X154440000Y-103148250D01*
X154436928Y-103450000D01*
X154449188Y-103574482D01*
X154485498Y-103694180D01*
X154544463Y-103804494D01*
X154623815Y-103901185D01*
X154703594Y-103966658D01*
X154697038Y-103972038D01*
X154586595Y-104106614D01*
X154504528Y-104260150D01*
X154453992Y-104426746D01*
X154436928Y-104600000D01*
X154436928Y-105225771D01*
X154260469Y-105402230D01*
X154258788Y-105401720D01*
X154139791Y-105390000D01*
X154139788Y-105390000D01*
X154100000Y-105386081D01*
X154088072Y-105387256D01*
X154088072Y-105350000D01*
X154075812Y-105225518D01*
X154039502Y-105105820D01*
X153980537Y-104995506D01*
X153901185Y-104898815D01*
X153804494Y-104819463D01*
X153694180Y-104760498D01*
X153613534Y-104736034D01*
X153697588Y-104660269D01*
X153871641Y-104426920D01*
X153996825Y-104164099D01*
X154041476Y-104016890D01*
X153920155Y-103787000D01*
X152727000Y-103787000D01*
X152727000Y-103807000D01*
X152473000Y-103807000D01*
X152473000Y-103787000D01*
X152453000Y-103787000D01*
X152453000Y-103533000D01*
X152473000Y-103533000D01*
X152473000Y-103513000D01*
X152727000Y-103513000D01*
X152727000Y-103533000D01*
X153920155Y-103533000D01*
X154041476Y-103303110D01*
X153996825Y-103155901D01*
X153871641Y-102893080D01*
X153697588Y-102659731D01*
X153481355Y-102464822D01*
X153364466Y-102395195D01*
X153544349Y-102275000D01*
X154436928Y-102275000D01*
X154440000Y-102576750D01*
X154598750Y-102735500D01*
X155673000Y-102735500D01*
X155673000Y-101798750D01*
X155927000Y-101798750D01*
X155927000Y-102735500D01*
X157673000Y-102735500D01*
X157673000Y-101798750D01*
X157514250Y-101640000D01*
X157075000Y-101636928D01*
X156950518Y-101649188D01*
X156830820Y-101685498D01*
X156800000Y-101701972D01*
X156769180Y-101685498D01*
X156649482Y-101649188D01*
X156525000Y-101636928D01*
X156085750Y-101640000D01*
X155927000Y-101798750D01*
X155673000Y-101798750D01*
X155514250Y-101640000D01*
X155075000Y-101636928D01*
X154950518Y-101649188D01*
X154830820Y-101685498D01*
X154720506Y-101744463D01*
X154623815Y-101823815D01*
X154544463Y-101920506D01*
X154485498Y-102030820D01*
X154449188Y-102150518D01*
X154436928Y-102275000D01*
X153544349Y-102275000D01*
X153546632Y-102273475D01*
X153753475Y-102066632D01*
X153915990Y-101823411D01*
X154027932Y-101553158D01*
X154085000Y-101266260D01*
X154085000Y-100973740D01*
X154027932Y-100686842D01*
X153915990Y-100416589D01*
X153753475Y-100173368D01*
X153546632Y-99966525D01*
X153372240Y-99850000D01*
X153546632Y-99733475D01*
X153753475Y-99526632D01*
X153915990Y-99283411D01*
X154027932Y-99013158D01*
X154085000Y-98726260D01*
X154085000Y-98433740D01*
X154041209Y-98213592D01*
X157194802Y-95060000D01*
X159005275Y-95060000D01*
X159115363Y-95224759D01*
%TA.AperFunction,Conductor*%
D24*
G36*
X159115363Y-95224759D02*
G01*
X159315241Y-95424637D01*
X159547759Y-95580000D01*
X159315241Y-95735363D01*
X159115363Y-95935241D01*
X158958320Y-96170273D01*
X158850147Y-96431426D01*
X158795000Y-96708665D01*
X158795000Y-96991335D01*
X158850147Y-97268574D01*
X158958320Y-97529727D01*
X159115363Y-97764759D01*
X159315241Y-97964637D01*
X159547759Y-98120000D01*
X159315241Y-98275363D01*
X159115363Y-98475241D01*
X158958320Y-98710273D01*
X158850147Y-98971426D01*
X158795000Y-99248665D01*
X158795000Y-99531335D01*
X158850147Y-99808574D01*
X158958320Y-100069727D01*
X159115363Y-100304759D01*
X159315241Y-100504637D01*
X159547759Y-100660000D01*
X159315241Y-100815363D01*
X159115363Y-101015241D01*
X158958320Y-101250273D01*
X158850147Y-101511426D01*
X158811068Y-101707888D01*
X158769180Y-101685498D01*
X158649482Y-101649188D01*
X158525000Y-101636928D01*
X158085750Y-101640000D01*
X157927000Y-101798750D01*
X157927000Y-102735500D01*
X157947000Y-102735500D01*
X157947000Y-102989500D01*
X157927000Y-102989500D01*
X157927000Y-103009500D01*
X157673000Y-103009500D01*
X157673000Y-102989500D01*
X155927000Y-102989500D01*
X155927000Y-103009500D01*
X155673000Y-103009500D01*
X155673000Y-102989500D01*
X154598750Y-102989500D01*
X154440000Y-103148250D01*
X154436928Y-103450000D01*
X154449188Y-103574482D01*
X154485498Y-103694180D01*
X154544463Y-103804494D01*
X154623815Y-103901185D01*
X154703594Y-103966658D01*
X154697038Y-103972038D01*
X154586595Y-104106614D01*
X154504528Y-104260150D01*
X154453992Y-104426746D01*
X154436928Y-104600000D01*
X154436928Y-105225771D01*
X154260469Y-105402230D01*
X154258788Y-105401720D01*
X154139791Y-105390000D01*
X154139788Y-105390000D01*
X154100000Y-105386081D01*
X154088072Y-105387256D01*
X154088072Y-105350000D01*
X154075812Y-105225518D01*
X154039502Y-105105820D01*
X153980537Y-104995506D01*
X153901185Y-104898815D01*
X153804494Y-104819463D01*
X153694180Y-104760498D01*
X153613534Y-104736034D01*
X153697588Y-104660269D01*
X153871641Y-104426920D01*
X153996825Y-104164099D01*
X154041476Y-104016890D01*
X153920155Y-103787000D01*
X152727000Y-103787000D01*
X152727000Y-103807000D01*
X152473000Y-103807000D01*
X152473000Y-103787000D01*
X152453000Y-103787000D01*
X152453000Y-103533000D01*
X152473000Y-103533000D01*
X152473000Y-103513000D01*
X152727000Y-103513000D01*
X152727000Y-103533000D01*
X153920155Y-103533000D01*
X154041476Y-103303110D01*
X153996825Y-103155901D01*
X153871641Y-102893080D01*
X153697588Y-102659731D01*
X153481355Y-102464822D01*
X153364466Y-102395195D01*
X153544349Y-102275000D01*
X154436928Y-102275000D01*
X154440000Y-102576750D01*
X154598750Y-102735500D01*
X155673000Y-102735500D01*
X155673000Y-101798750D01*
X155927000Y-101798750D01*
X155927000Y-102735500D01*
X157673000Y-102735500D01*
X157673000Y-101798750D01*
X157514250Y-101640000D01*
X157075000Y-101636928D01*
X156950518Y-101649188D01*
X156830820Y-101685498D01*
X156800000Y-101701972D01*
X156769180Y-101685498D01*
X156649482Y-101649188D01*
X156525000Y-101636928D01*
X156085750Y-101640000D01*
X155927000Y-101798750D01*
X155673000Y-101798750D01*
X155514250Y-101640000D01*
X155075000Y-101636928D01*
X154950518Y-101649188D01*
X154830820Y-101685498D01*
X154720506Y-101744463D01*
X154623815Y-101823815D01*
X154544463Y-101920506D01*
X154485498Y-102030820D01*
X154449188Y-102150518D01*
X154436928Y-102275000D01*
X153544349Y-102275000D01*
X153546632Y-102273475D01*
X153753475Y-102066632D01*
X153915990Y-101823411D01*
X154027932Y-101553158D01*
X154085000Y-101266260D01*
X154085000Y-100973740D01*
X154027932Y-100686842D01*
X153915990Y-100416589D01*
X153753475Y-100173368D01*
X153546632Y-99966525D01*
X153372240Y-99850000D01*
X153546632Y-99733475D01*
X153753475Y-99526632D01*
X153915990Y-99283411D01*
X154027932Y-99013158D01*
X154085000Y-98726260D01*
X154085000Y-98433740D01*
X154041209Y-98213592D01*
X157194802Y-95060000D01*
X159005275Y-95060000D01*
X159115363Y-95224759D01*
G37*
%TD.AperFunction*%
D23*
X166515387Y-72139101D02*
X166484472Y-72164472D01*
X166414703Y-72249487D01*
X166383251Y-72287811D01*
X166355355Y-72340001D01*
X166308037Y-72428528D01*
X166261720Y-72581213D01*
X166250000Y-72700209D01*
X166246081Y-72740000D01*
X166250000Y-72779788D01*
X166250000Y-73735230D01*
X166113368Y-73826525D01*
X165906525Y-74033368D01*
X165744010Y-74276589D01*
X165632068Y-74546842D01*
X165575000Y-74833740D01*
X165575000Y-75126260D01*
X165632068Y-75413158D01*
X165744010Y-75683411D01*
X165906525Y-75926632D01*
X166113368Y-76133475D01*
X166260001Y-76231452D01*
X166260000Y-77345230D01*
X166123368Y-77436525D01*
X165916525Y-77643368D01*
X165754010Y-77886589D01*
X165642068Y-78156842D01*
X165585000Y-78443740D01*
X165585000Y-78736260D01*
X165642068Y-79023158D01*
X165754010Y-79293411D01*
X165916525Y-79536632D01*
X165960001Y-79580108D01*
X165960000Y-81915230D01*
X165823368Y-82006525D01*
X165691513Y-82138380D01*
X165669502Y-82065820D01*
X165610537Y-81955506D01*
X165531185Y-81858815D01*
X165434494Y-81779463D01*
X165324180Y-81720498D01*
X165204482Y-81684188D01*
X165080000Y-81671928D01*
X164515750Y-81675000D01*
X164357000Y-81833750D01*
X164357000Y-83033000D01*
X164377000Y-83033000D01*
X164377000Y-83287000D01*
X164357000Y-83287000D01*
X164357000Y-84486250D01*
X164515750Y-84645000D01*
X165080000Y-84648072D01*
X165204482Y-84635812D01*
X165324180Y-84599502D01*
X165434494Y-84540537D01*
X165531185Y-84461185D01*
X165610537Y-84364494D01*
X165669502Y-84254180D01*
X165691513Y-84181620D01*
X165823368Y-84313475D01*
X166066589Y-84475990D01*
X166336842Y-84587932D01*
X166623740Y-84645000D01*
X166916260Y-84645000D01*
X167203158Y-84587932D01*
X167473411Y-84475990D01*
X167716632Y-84313475D01*
X167923475Y-84106632D01*
X168040000Y-83932240D01*
X168156525Y-84106632D01*
X168363368Y-84313475D01*
X168606589Y-84475990D01*
X168876842Y-84587932D01*
X169163740Y-84645000D01*
X169456260Y-84645000D01*
X169743158Y-84587932D01*
X170013411Y-84475990D01*
X170256632Y-84313475D01*
X170463475Y-84106632D01*
X170580000Y-83932240D01*
X170696525Y-84106632D01*
X170903368Y-84313475D01*
X171090000Y-84438179D01*
X171090000Y-84635198D01*
X170985198Y-84740000D01*
X168637325Y-84740000D01*
X168600000Y-84736324D01*
X168562675Y-84740000D01*
X168562667Y-84740000D01*
X168451014Y-84750997D01*
X168307753Y-84794454D01*
X168175724Y-84865026D01*
X168059999Y-84959999D01*
X168036196Y-84989003D01*
X167588998Y-85436201D01*
X167560000Y-85459999D01*
X167536202Y-85488997D01*
X167536201Y-85488998D01*
X167465026Y-85575724D01*
X167394454Y-85707754D01*
X167379317Y-85757655D01*
X167350997Y-85851014D01*
X167340000Y-85962667D01*
X167340000Y-85962678D01*
X167336324Y-86000000D01*
X167340000Y-86037322D01*
X167340000Y-86096289D01*
X167296063Y-86140226D01*
X167182795Y-86309744D01*
X167104774Y-86498102D01*
X167065000Y-86698061D01*
X167065000Y-86765001D01*
X164376214Y-86765001D01*
X161621212Y-84010000D01*
X162741928Y-84010000D01*
X162754188Y-84134482D01*
X162790498Y-84254180D01*
X162849463Y-84364494D01*
X162928815Y-84461185D01*
X163025506Y-84540537D01*
X163135820Y-84599502D01*
X163255518Y-84635812D01*
X163380000Y-84648072D01*
X163944250Y-84645000D01*
X164103000Y-84486250D01*
X164103000Y-83287000D01*
X162903750Y-83287000D01*
X162745000Y-83445750D01*
X162741928Y-84010000D01*
X161621212Y-84010000D01*
X161600214Y-83989003D01*
X161576411Y-83959999D01*
X161460686Y-83865026D01*
X161328657Y-83794454D01*
X161185396Y-83750997D01*
X161073743Y-83740000D01*
X161073732Y-83740000D01*
X161036410Y-83736324D01*
X160999088Y-83740000D01*
X156557322Y-83740000D01*
X156519999Y-83736324D01*
X156482676Y-83740000D01*
X156482667Y-83740000D01*
X156371014Y-83750997D01*
X156227753Y-83794454D01*
X156095724Y-83865026D01*
X155979999Y-83959999D01*
X155956201Y-83988997D01*
X152966408Y-86978791D01*
X152746260Y-86935000D01*
X152453740Y-86935000D01*
X152166842Y-86992068D01*
X151896589Y-87104010D01*
X151653368Y-87266525D01*
X151446525Y-87473368D01*
X151284010Y-87716589D01*
X151172068Y-87986842D01*
X151115000Y-88273740D01*
X151115000Y-88566260D01*
X151172068Y-88853158D01*
X151284010Y-89123411D01*
X151446525Y-89366632D01*
X151653368Y-89573475D01*
X151827760Y-89690000D01*
X151653368Y-89806525D01*
X151446525Y-90013368D01*
X151284010Y-90256589D01*
X151172068Y-90526842D01*
X151115000Y-90813740D01*
X151115000Y-91106260D01*
X151172068Y-91393158D01*
X151284010Y-91663411D01*
X151446525Y-91906632D01*
X151653368Y-92113475D01*
X151827760Y-92230000D01*
X151653368Y-92346525D01*
X151446525Y-92553368D01*
X151284010Y-92796589D01*
X151172068Y-93066842D01*
X151115000Y-93353740D01*
X151115000Y-93646260D01*
X151172068Y-93933158D01*
X151284010Y-94203411D01*
X151446525Y-94446632D01*
X151653368Y-94653475D01*
X151827760Y-94770000D01*
X151653368Y-94886525D01*
X151446525Y-95093368D01*
X151284010Y-95336589D01*
X151172068Y-95606842D01*
X151115000Y-95893740D01*
X151115000Y-96186260D01*
X151158790Y-96406408D01*
X150188998Y-97376201D01*
X150160000Y-97399999D01*
X150136202Y-97428997D01*
X150136201Y-97428998D01*
X150065026Y-97515724D01*
X149994454Y-97647754D01*
X149981337Y-97690997D01*
X149950998Y-97791014D01*
X149942134Y-97881008D01*
X149936324Y-97940000D01*
X149940001Y-97977332D01*
X149940000Y-99285198D01*
X147885199Y-101340000D01*
X147837087Y-101340000D01*
X147825812Y-101225518D01*
X147789502Y-101105820D01*
X147730537Y-100995506D01*
X147651185Y-100898815D01*
X147554494Y-100819463D01*
X147444180Y-100760498D01*
X147324482Y-100724188D01*
X147200000Y-100711928D01*
X146200000Y-100711928D01*
X146160000Y-100715868D01*
X146160000Y-98837323D01*
X146163676Y-98800000D01*
X146160000Y-98762677D01*
X146160000Y-98762667D01*
X146149003Y-98651014D01*
X146105546Y-98507753D01*
X146051870Y-98407333D01*
X146034974Y-98375723D01*
X145963799Y-98288997D01*
X145940001Y-98259999D01*
X145911003Y-98236201D01*
X145116209Y-97441408D01*
X145217205Y-97290256D01*
X145295226Y-97101898D01*
X145335000Y-96901939D01*
X145335000Y-96698061D01*
X145295226Y-96498102D01*
X145217205Y-96309744D01*
X145103937Y-96140226D01*
X144959774Y-95996063D01*
X144790256Y-95882795D01*
X144601898Y-95804774D01*
X144401939Y-95765000D01*
X144198061Y-95765000D01*
X143998102Y-95804774D01*
X143960000Y-95820556D01*
X143960000Y-85135000D01*
X144026939Y-85135000D01*
X144226898Y-85095226D01*
X144415256Y-85017205D01*
X144584774Y-84903937D01*
X144728937Y-84759774D01*
X144842205Y-84590256D01*
X144920226Y-84401898D01*
X144960000Y-84201939D01*
X144960000Y-83998061D01*
X144920226Y-83798102D01*
X144842205Y-83609744D01*
X144728937Y-83440226D01*
X144685000Y-83396289D01*
X144685000Y-82016799D01*
X146211003Y-80490797D01*
X146240001Y-80466999D01*
X146298641Y-80395546D01*
X146334974Y-80351275D01*
X146405546Y-80219245D01*
X146409032Y-80207754D01*
X146449003Y-80075984D01*
X146460000Y-79964331D01*
X146460000Y-79964322D01*
X146463676Y-79926999D01*
X146460000Y-79889676D01*
X146460000Y-77614801D01*
X148754018Y-75320783D01*
X148782795Y-75390256D01*
X148896063Y-75559774D01*
X149040226Y-75703937D01*
X149209744Y-75817205D01*
X149398102Y-75895226D01*
X149598061Y-75935000D01*
X149801939Y-75935000D01*
X150001898Y-75895226D01*
X150190256Y-75817205D01*
X150359774Y-75703937D01*
X150503937Y-75559774D01*
X150617205Y-75390256D01*
X150695226Y-75201898D01*
X150732871Y-75012641D01*
X151225513Y-74520000D01*
X155263749Y-74520000D01*
X155281595Y-74553387D01*
X155392038Y-74687962D01*
X155418891Y-74710000D01*
X155392038Y-74732038D01*
X155281595Y-74866613D01*
X155199528Y-75020149D01*
X155148992Y-75186745D01*
X155131928Y-75359999D01*
X155131928Y-76060001D01*
X155148992Y-76233255D01*
X155199528Y-76399851D01*
X155281595Y-76553387D01*
X155392038Y-76687962D01*
X155526613Y-76798405D01*
X155680149Y-76880472D01*
X155710000Y-76889527D01*
X155710001Y-77242913D01*
X155595518Y-77254188D01*
X155475820Y-77290498D01*
X155365506Y-77349463D01*
X155268815Y-77428815D01*
X155189463Y-77525506D01*
X155130498Y-77635820D01*
X155094188Y-77755518D01*
X155081928Y-77880000D01*
X155081928Y-78880000D01*
X155094188Y-79004482D01*
X155101929Y-79030000D01*
X155094188Y-79055518D01*
X155081928Y-79180000D01*
X155081928Y-79315288D01*
X155067205Y-79279744D01*
X154953937Y-79110226D01*
X154809774Y-78966063D01*
X154640256Y-78852795D01*
X154451898Y-78774774D01*
X154251939Y-78735000D01*
X154048061Y-78735000D01*
X153848102Y-78774774D01*
X153659744Y-78852795D01*
X153490226Y-78966063D01*
X153346063Y-79110226D01*
X153232795Y-79279744D01*
X153154774Y-79468102D01*
X153150418Y-79490000D01*
X148739787Y-79490000D01*
X148699999Y-79486081D01*
X148660211Y-79490000D01*
X148660209Y-79490000D01*
X148541212Y-79501720D01*
X148388527Y-79548037D01*
X148356743Y-79565026D01*
X148247810Y-79623251D01*
X148203033Y-79659999D01*
X148124472Y-79724472D01*
X148099107Y-79755380D01*
X147987358Y-79867129D01*
X147798102Y-79904774D01*
X147609744Y-79982795D01*
X147440226Y-80096063D01*
X147296063Y-80240226D01*
X147182795Y-80409744D01*
X147104774Y-80598102D01*
X147065000Y-80798061D01*
X147065000Y-81001939D01*
X147104774Y-81201898D01*
X147182795Y-81390256D01*
X147296063Y-81559774D01*
X147440226Y-81703937D01*
X147609744Y-81817205D01*
X147798102Y-81895226D01*
X147998061Y-81935000D01*
X148201939Y-81935000D01*
X148401898Y-81895226D01*
X148590256Y-81817205D01*
X148759774Y-81703937D01*
X148903937Y-81559774D01*
X149017205Y-81390256D01*
X149095226Y-81201898D01*
X149113506Y-81110000D01*
X149141267Y-81110000D01*
X149104774Y-81198102D01*
X149065000Y-81398061D01*
X149065000Y-81601939D01*
X149104774Y-81801898D01*
X149182795Y-81990256D01*
X149296063Y-82159774D01*
X149440226Y-82303937D01*
X149609744Y-82417205D01*
X149798102Y-82495226D01*
X149998061Y-82535000D01*
X150201939Y-82535000D01*
X150401898Y-82495226D01*
X150590256Y-82417205D01*
X150750700Y-82310000D01*
X162741928Y-82310000D01*
X162745000Y-82874250D01*
X162903750Y-83033000D01*
X164103000Y-83033000D01*
X164103000Y-81833750D01*
X163944250Y-81675000D01*
X163380000Y-81671928D01*
X163255518Y-81684188D01*
X163135820Y-81720498D01*
X163025506Y-81779463D01*
X162928815Y-81858815D01*
X162849463Y-81955506D01*
X162790498Y-82065820D01*
X162754188Y-82185518D01*
X162741928Y-82310000D01*
X150750700Y-82310000D01*
X150759774Y-82303937D01*
X150803711Y-82260000D01*
X154612678Y-82260000D01*
X154650000Y-82263676D01*
X154687322Y-82260000D01*
X154687333Y-82260000D01*
X154798986Y-82249003D01*
X154942247Y-82205546D01*
X155074276Y-82134974D01*
X155190001Y-82040001D01*
X155213804Y-82010997D01*
X156406730Y-80818072D01*
X157220000Y-80818072D01*
X157344482Y-80805812D01*
X157464180Y-80769502D01*
X157574494Y-80710537D01*
X157671185Y-80631185D01*
X157750537Y-80534494D01*
X157809502Y-80424180D01*
X157845812Y-80304482D01*
X157858072Y-80180000D01*
X157858072Y-79180000D01*
X157845812Y-79055518D01*
X157838071Y-79030000D01*
X157845812Y-79004482D01*
X157858072Y-78880000D01*
X157858072Y-77880000D01*
X157845812Y-77755518D01*
X157809502Y-77635820D01*
X157750537Y-77525506D01*
X157671185Y-77428815D01*
X157574494Y-77349463D01*
X157464180Y-77290498D01*
X157344482Y-77254188D01*
X157230000Y-77242913D01*
X157230000Y-76889527D01*
X157259851Y-76880472D01*
X157413387Y-76798405D01*
X157547962Y-76687962D01*
X157658405Y-76553387D01*
X157740472Y-76399851D01*
X157791008Y-76233255D01*
X157808072Y-76060001D01*
X157808072Y-75359999D01*
X157791008Y-75186745D01*
X157740472Y-75020149D01*
X157658405Y-74866613D01*
X157547962Y-74732038D01*
X157521109Y-74710000D01*
X157547962Y-74687962D01*
X157658405Y-74553387D01*
X157676251Y-74520000D01*
X159413917Y-74520000D01*
X159441212Y-74528280D01*
X159560209Y-74540000D01*
X159593749Y-74540000D01*
X159611595Y-74573387D01*
X159722038Y-74707962D01*
X159748891Y-74730000D01*
X159722038Y-74752038D01*
X159611595Y-74886613D01*
X159529528Y-75040149D01*
X159478992Y-75206745D01*
X159461928Y-75379999D01*
X159461928Y-76080001D01*
X159478992Y-76253255D01*
X159529528Y-76419851D01*
X159611595Y-76573387D01*
X159722038Y-76707962D01*
X159856613Y-76818405D01*
X160010149Y-76900472D01*
X160040000Y-76909527D01*
X160040001Y-77253898D01*
X159935518Y-77264188D01*
X159815820Y-77300498D01*
X159705506Y-77359463D01*
X159608815Y-77438815D01*
X159529463Y-77535506D01*
X159470498Y-77645820D01*
X159434188Y-77765518D01*
X159421928Y-77890000D01*
X159421928Y-78890000D01*
X159434188Y-79014482D01*
X159441929Y-79040000D01*
X159439662Y-79047474D01*
X159317753Y-79084454D01*
X159185724Y-79155026D01*
X159069999Y-79249999D01*
X158975026Y-79365724D01*
X158904454Y-79497753D01*
X158860997Y-79641014D01*
X158846323Y-79790000D01*
X158860997Y-79938986D01*
X158904454Y-80082247D01*
X158975026Y-80214276D01*
X159069999Y-80330001D01*
X159185724Y-80424974D01*
X159317753Y-80495546D01*
X159461014Y-80539003D01*
X159530580Y-80545855D01*
X159608815Y-80641185D01*
X159705506Y-80720537D01*
X159815820Y-80779502D01*
X159935518Y-80815812D01*
X160060000Y-80828072D01*
X161560000Y-80828072D01*
X161684482Y-80815812D01*
X161804180Y-80779502D01*
X161914494Y-80720537D01*
X162011185Y-80641185D01*
X162090537Y-80544494D01*
X162149502Y-80434180D01*
X162157064Y-80409252D01*
X162202247Y-80395546D01*
X162334276Y-80324974D01*
X162450001Y-80230001D01*
X162473804Y-80200997D01*
X162510998Y-80163803D01*
X162540001Y-80140001D01*
X162634974Y-80024276D01*
X162705546Y-79892247D01*
X162749003Y-79748986D01*
X162760000Y-79637333D01*
X162760000Y-79637323D01*
X162763676Y-79600001D01*
X162760000Y-79562678D01*
X162760000Y-75671159D01*
X162890256Y-75617205D01*
X163059774Y-75503937D01*
X163203937Y-75359774D01*
X163317205Y-75190256D01*
X163395226Y-75001898D01*
X163435000Y-74801939D01*
X163435000Y-74739801D01*
X166114802Y-72060000D01*
X166594488Y-72060000D01*
X166515387Y-72139101D01*
%TA.AperFunction,Conductor*%
D24*
G36*
X166515387Y-72139101D02*
G01*
X166484472Y-72164472D01*
X166414703Y-72249487D01*
X166383251Y-72287811D01*
X166355355Y-72340001D01*
X166308037Y-72428528D01*
X166261720Y-72581213D01*
X166250000Y-72700209D01*
X166246081Y-72740000D01*
X166250000Y-72779788D01*
X166250000Y-73735230D01*
X166113368Y-73826525D01*
X165906525Y-74033368D01*
X165744010Y-74276589D01*
X165632068Y-74546842D01*
X165575000Y-74833740D01*
X165575000Y-75126260D01*
X165632068Y-75413158D01*
X165744010Y-75683411D01*
X165906525Y-75926632D01*
X166113368Y-76133475D01*
X166260001Y-76231452D01*
X166260000Y-77345230D01*
X166123368Y-77436525D01*
X165916525Y-77643368D01*
X165754010Y-77886589D01*
X165642068Y-78156842D01*
X165585000Y-78443740D01*
X165585000Y-78736260D01*
X165642068Y-79023158D01*
X165754010Y-79293411D01*
X165916525Y-79536632D01*
X165960001Y-79580108D01*
X165960000Y-81915230D01*
X165823368Y-82006525D01*
X165691513Y-82138380D01*
X165669502Y-82065820D01*
X165610537Y-81955506D01*
X165531185Y-81858815D01*
X165434494Y-81779463D01*
X165324180Y-81720498D01*
X165204482Y-81684188D01*
X165080000Y-81671928D01*
X164515750Y-81675000D01*
X164357000Y-81833750D01*
X164357000Y-83033000D01*
X164377000Y-83033000D01*
X164377000Y-83287000D01*
X164357000Y-83287000D01*
X164357000Y-84486250D01*
X164515750Y-84645000D01*
X165080000Y-84648072D01*
X165204482Y-84635812D01*
X165324180Y-84599502D01*
X165434494Y-84540537D01*
X165531185Y-84461185D01*
X165610537Y-84364494D01*
X165669502Y-84254180D01*
X165691513Y-84181620D01*
X165823368Y-84313475D01*
X166066589Y-84475990D01*
X166336842Y-84587932D01*
X166623740Y-84645000D01*
X166916260Y-84645000D01*
X167203158Y-84587932D01*
X167473411Y-84475990D01*
X167716632Y-84313475D01*
X167923475Y-84106632D01*
X168040000Y-83932240D01*
X168156525Y-84106632D01*
X168363368Y-84313475D01*
X168606589Y-84475990D01*
X168876842Y-84587932D01*
X169163740Y-84645000D01*
X169456260Y-84645000D01*
X169743158Y-84587932D01*
X170013411Y-84475990D01*
X170256632Y-84313475D01*
X170463475Y-84106632D01*
X170580000Y-83932240D01*
X170696525Y-84106632D01*
X170903368Y-84313475D01*
X171090000Y-84438179D01*
X171090000Y-84635198D01*
X170985198Y-84740000D01*
X168637325Y-84740000D01*
X168600000Y-84736324D01*
X168562675Y-84740000D01*
X168562667Y-84740000D01*
X168451014Y-84750997D01*
X168307753Y-84794454D01*
X168175724Y-84865026D01*
X168059999Y-84959999D01*
X168036196Y-84989003D01*
X167588998Y-85436201D01*
X167560000Y-85459999D01*
X167536202Y-85488997D01*
X167536201Y-85488998D01*
X167465026Y-85575724D01*
X167394454Y-85707754D01*
X167379317Y-85757655D01*
X167350997Y-85851014D01*
X167340000Y-85962667D01*
X167340000Y-85962678D01*
X167336324Y-86000000D01*
X167340000Y-86037322D01*
X167340000Y-86096289D01*
X167296063Y-86140226D01*
X167182795Y-86309744D01*
X167104774Y-86498102D01*
X167065000Y-86698061D01*
X167065000Y-86765001D01*
X164376214Y-86765001D01*
X161621212Y-84010000D01*
X162741928Y-84010000D01*
X162754188Y-84134482D01*
X162790498Y-84254180D01*
X162849463Y-84364494D01*
X162928815Y-84461185D01*
X163025506Y-84540537D01*
X163135820Y-84599502D01*
X163255518Y-84635812D01*
X163380000Y-84648072D01*
X163944250Y-84645000D01*
X164103000Y-84486250D01*
X164103000Y-83287000D01*
X162903750Y-83287000D01*
X162745000Y-83445750D01*
X162741928Y-84010000D01*
X161621212Y-84010000D01*
X161600214Y-83989003D01*
X161576411Y-83959999D01*
X161460686Y-83865026D01*
X161328657Y-83794454D01*
X161185396Y-83750997D01*
X161073743Y-83740000D01*
X161073732Y-83740000D01*
X161036410Y-83736324D01*
X160999088Y-83740000D01*
X156557322Y-83740000D01*
X156519999Y-83736324D01*
X156482676Y-83740000D01*
X156482667Y-83740000D01*
X156371014Y-83750997D01*
X156227753Y-83794454D01*
X156095724Y-83865026D01*
X155979999Y-83959999D01*
X155956201Y-83988997D01*
X152966408Y-86978791D01*
X152746260Y-86935000D01*
X152453740Y-86935000D01*
X152166842Y-86992068D01*
X151896589Y-87104010D01*
X151653368Y-87266525D01*
X151446525Y-87473368D01*
X151284010Y-87716589D01*
X151172068Y-87986842D01*
X151115000Y-88273740D01*
X151115000Y-88566260D01*
X151172068Y-88853158D01*
X151284010Y-89123411D01*
X151446525Y-89366632D01*
X151653368Y-89573475D01*
X151827760Y-89690000D01*
X151653368Y-89806525D01*
X151446525Y-90013368D01*
X151284010Y-90256589D01*
X151172068Y-90526842D01*
X151115000Y-90813740D01*
X151115000Y-91106260D01*
X151172068Y-91393158D01*
X151284010Y-91663411D01*
X151446525Y-91906632D01*
X151653368Y-92113475D01*
X151827760Y-92230000D01*
X151653368Y-92346525D01*
X151446525Y-92553368D01*
X151284010Y-92796589D01*
X151172068Y-93066842D01*
X151115000Y-93353740D01*
X151115000Y-93646260D01*
X151172068Y-93933158D01*
X151284010Y-94203411D01*
X151446525Y-94446632D01*
X151653368Y-94653475D01*
X151827760Y-94770000D01*
X151653368Y-94886525D01*
X151446525Y-95093368D01*
X151284010Y-95336589D01*
X151172068Y-95606842D01*
X151115000Y-95893740D01*
X151115000Y-96186260D01*
X151158790Y-96406408D01*
X150188998Y-97376201D01*
X150160000Y-97399999D01*
X150136202Y-97428997D01*
X150136201Y-97428998D01*
X150065026Y-97515724D01*
X149994454Y-97647754D01*
X149981337Y-97690997D01*
X149950998Y-97791014D01*
X149942134Y-97881008D01*
X149936324Y-97940000D01*
X149940001Y-97977332D01*
X149940000Y-99285198D01*
X147885199Y-101340000D01*
X147837087Y-101340000D01*
X147825812Y-101225518D01*
X147789502Y-101105820D01*
X147730537Y-100995506D01*
X147651185Y-100898815D01*
X147554494Y-100819463D01*
X147444180Y-100760498D01*
X147324482Y-100724188D01*
X147200000Y-100711928D01*
X146200000Y-100711928D01*
X146160000Y-100715868D01*
X146160000Y-98837323D01*
X146163676Y-98800000D01*
X146160000Y-98762677D01*
X146160000Y-98762667D01*
X146149003Y-98651014D01*
X146105546Y-98507753D01*
X146051870Y-98407333D01*
X146034974Y-98375723D01*
X145963799Y-98288997D01*
X145940001Y-98259999D01*
X145911003Y-98236201D01*
X145116209Y-97441408D01*
X145217205Y-97290256D01*
X145295226Y-97101898D01*
X145335000Y-96901939D01*
X145335000Y-96698061D01*
X145295226Y-96498102D01*
X145217205Y-96309744D01*
X145103937Y-96140226D01*
X144959774Y-95996063D01*
X144790256Y-95882795D01*
X144601898Y-95804774D01*
X144401939Y-95765000D01*
X144198061Y-95765000D01*
X143998102Y-95804774D01*
X143960000Y-95820556D01*
X143960000Y-85135000D01*
X144026939Y-85135000D01*
X144226898Y-85095226D01*
X144415256Y-85017205D01*
X144584774Y-84903937D01*
X144728937Y-84759774D01*
X144842205Y-84590256D01*
X144920226Y-84401898D01*
X144960000Y-84201939D01*
X144960000Y-83998061D01*
X144920226Y-83798102D01*
X144842205Y-83609744D01*
X144728937Y-83440226D01*
X144685000Y-83396289D01*
X144685000Y-82016799D01*
X146211003Y-80490797D01*
X146240001Y-80466999D01*
X146298641Y-80395546D01*
X146334974Y-80351275D01*
X146405546Y-80219245D01*
X146409032Y-80207754D01*
X146449003Y-80075984D01*
X146460000Y-79964331D01*
X146460000Y-79964322D01*
X146463676Y-79926999D01*
X146460000Y-79889676D01*
X146460000Y-77614801D01*
X148754018Y-75320783D01*
X148782795Y-75390256D01*
X148896063Y-75559774D01*
X149040226Y-75703937D01*
X149209744Y-75817205D01*
X149398102Y-75895226D01*
X149598061Y-75935000D01*
X149801939Y-75935000D01*
X150001898Y-75895226D01*
X150190256Y-75817205D01*
X150359774Y-75703937D01*
X150503937Y-75559774D01*
X150617205Y-75390256D01*
X150695226Y-75201898D01*
X150732871Y-75012641D01*
X151225513Y-74520000D01*
X155263749Y-74520000D01*
X155281595Y-74553387D01*
X155392038Y-74687962D01*
X155418891Y-74710000D01*
X155392038Y-74732038D01*
X155281595Y-74866613D01*
X155199528Y-75020149D01*
X155148992Y-75186745D01*
X155131928Y-75359999D01*
X155131928Y-76060001D01*
X155148992Y-76233255D01*
X155199528Y-76399851D01*
X155281595Y-76553387D01*
X155392038Y-76687962D01*
X155526613Y-76798405D01*
X155680149Y-76880472D01*
X155710000Y-76889527D01*
X155710001Y-77242913D01*
X155595518Y-77254188D01*
X155475820Y-77290498D01*
X155365506Y-77349463D01*
X155268815Y-77428815D01*
X155189463Y-77525506D01*
X155130498Y-77635820D01*
X155094188Y-77755518D01*
X155081928Y-77880000D01*
X155081928Y-78880000D01*
X155094188Y-79004482D01*
X155101929Y-79030000D01*
X155094188Y-79055518D01*
X155081928Y-79180000D01*
X155081928Y-79315288D01*
X155067205Y-79279744D01*
X154953937Y-79110226D01*
X154809774Y-78966063D01*
X154640256Y-78852795D01*
X154451898Y-78774774D01*
X154251939Y-78735000D01*
X154048061Y-78735000D01*
X153848102Y-78774774D01*
X153659744Y-78852795D01*
X153490226Y-78966063D01*
X153346063Y-79110226D01*
X153232795Y-79279744D01*
X153154774Y-79468102D01*
X153150418Y-79490000D01*
X148739787Y-79490000D01*
X148699999Y-79486081D01*
X148660211Y-79490000D01*
X148660209Y-79490000D01*
X148541212Y-79501720D01*
X148388527Y-79548037D01*
X148356743Y-79565026D01*
X148247810Y-79623251D01*
X148203033Y-79659999D01*
X148124472Y-79724472D01*
X148099107Y-79755380D01*
X147987358Y-79867129D01*
X147798102Y-79904774D01*
X147609744Y-79982795D01*
X147440226Y-80096063D01*
X147296063Y-80240226D01*
X147182795Y-80409744D01*
X147104774Y-80598102D01*
X147065000Y-80798061D01*
X147065000Y-81001939D01*
X147104774Y-81201898D01*
X147182795Y-81390256D01*
X147296063Y-81559774D01*
X147440226Y-81703937D01*
X147609744Y-81817205D01*
X147798102Y-81895226D01*
X147998061Y-81935000D01*
X148201939Y-81935000D01*
X148401898Y-81895226D01*
X148590256Y-81817205D01*
X148759774Y-81703937D01*
X148903937Y-81559774D01*
X149017205Y-81390256D01*
X149095226Y-81201898D01*
X149113506Y-81110000D01*
X149141267Y-81110000D01*
X149104774Y-81198102D01*
X149065000Y-81398061D01*
X149065000Y-81601939D01*
X149104774Y-81801898D01*
X149182795Y-81990256D01*
X149296063Y-82159774D01*
X149440226Y-82303937D01*
X149609744Y-82417205D01*
X149798102Y-82495226D01*
X149998061Y-82535000D01*
X150201939Y-82535000D01*
X150401898Y-82495226D01*
X150590256Y-82417205D01*
X150750700Y-82310000D01*
X162741928Y-82310000D01*
X162745000Y-82874250D01*
X162903750Y-83033000D01*
X164103000Y-83033000D01*
X164103000Y-81833750D01*
X163944250Y-81675000D01*
X163380000Y-81671928D01*
X163255518Y-81684188D01*
X163135820Y-81720498D01*
X163025506Y-81779463D01*
X162928815Y-81858815D01*
X162849463Y-81955506D01*
X162790498Y-82065820D01*
X162754188Y-82185518D01*
X162741928Y-82310000D01*
X150750700Y-82310000D01*
X150759774Y-82303937D01*
X150803711Y-82260000D01*
X154612678Y-82260000D01*
X154650000Y-82263676D01*
X154687322Y-82260000D01*
X154687333Y-82260000D01*
X154798986Y-82249003D01*
X154942247Y-82205546D01*
X155074276Y-82134974D01*
X155190001Y-82040001D01*
X155213804Y-82010997D01*
X156406730Y-80818072D01*
X157220000Y-80818072D01*
X157344482Y-80805812D01*
X157464180Y-80769502D01*
X157574494Y-80710537D01*
X157671185Y-80631185D01*
X157750537Y-80534494D01*
X157809502Y-80424180D01*
X157845812Y-80304482D01*
X157858072Y-80180000D01*
X157858072Y-79180000D01*
X157845812Y-79055518D01*
X157838071Y-79030000D01*
X157845812Y-79004482D01*
X157858072Y-78880000D01*
X157858072Y-77880000D01*
X157845812Y-77755518D01*
X157809502Y-77635820D01*
X157750537Y-77525506D01*
X157671185Y-77428815D01*
X157574494Y-77349463D01*
X157464180Y-77290498D01*
X157344482Y-77254188D01*
X157230000Y-77242913D01*
X157230000Y-76889527D01*
X157259851Y-76880472D01*
X157413387Y-76798405D01*
X157547962Y-76687962D01*
X157658405Y-76553387D01*
X157740472Y-76399851D01*
X157791008Y-76233255D01*
X157808072Y-76060001D01*
X157808072Y-75359999D01*
X157791008Y-75186745D01*
X157740472Y-75020149D01*
X157658405Y-74866613D01*
X157547962Y-74732038D01*
X157521109Y-74710000D01*
X157547962Y-74687962D01*
X157658405Y-74553387D01*
X157676251Y-74520000D01*
X159413917Y-74520000D01*
X159441212Y-74528280D01*
X159560209Y-74540000D01*
X159593749Y-74540000D01*
X159611595Y-74573387D01*
X159722038Y-74707962D01*
X159748891Y-74730000D01*
X159722038Y-74752038D01*
X159611595Y-74886613D01*
X159529528Y-75040149D01*
X159478992Y-75206745D01*
X159461928Y-75379999D01*
X159461928Y-76080001D01*
X159478992Y-76253255D01*
X159529528Y-76419851D01*
X159611595Y-76573387D01*
X159722038Y-76707962D01*
X159856613Y-76818405D01*
X160010149Y-76900472D01*
X160040000Y-76909527D01*
X160040001Y-77253898D01*
X159935518Y-77264188D01*
X159815820Y-77300498D01*
X159705506Y-77359463D01*
X159608815Y-77438815D01*
X159529463Y-77535506D01*
X159470498Y-77645820D01*
X159434188Y-77765518D01*
X159421928Y-77890000D01*
X159421928Y-78890000D01*
X159434188Y-79014482D01*
X159441929Y-79040000D01*
X159439662Y-79047474D01*
X159317753Y-79084454D01*
X159185724Y-79155026D01*
X159069999Y-79249999D01*
X158975026Y-79365724D01*
X158904454Y-79497753D01*
X158860997Y-79641014D01*
X158846323Y-79790000D01*
X158860997Y-79938986D01*
X158904454Y-80082247D01*
X158975026Y-80214276D01*
X159069999Y-80330001D01*
X159185724Y-80424974D01*
X159317753Y-80495546D01*
X159461014Y-80539003D01*
X159530580Y-80545855D01*
X159608815Y-80641185D01*
X159705506Y-80720537D01*
X159815820Y-80779502D01*
X159935518Y-80815812D01*
X160060000Y-80828072D01*
X161560000Y-80828072D01*
X161684482Y-80815812D01*
X161804180Y-80779502D01*
X161914494Y-80720537D01*
X162011185Y-80641185D01*
X162090537Y-80544494D01*
X162149502Y-80434180D01*
X162157064Y-80409252D01*
X162202247Y-80395546D01*
X162334276Y-80324974D01*
X162450001Y-80230001D01*
X162473804Y-80200997D01*
X162510998Y-80163803D01*
X162540001Y-80140001D01*
X162634974Y-80024276D01*
X162705546Y-79892247D01*
X162749003Y-79748986D01*
X162760000Y-79637333D01*
X162760000Y-79637323D01*
X162763676Y-79600001D01*
X162760000Y-79562678D01*
X162760000Y-75671159D01*
X162890256Y-75617205D01*
X163059774Y-75503937D01*
X163203937Y-75359774D01*
X163317205Y-75190256D01*
X163395226Y-75001898D01*
X163435000Y-74801939D01*
X163435000Y-74739801D01*
X166114802Y-72060000D01*
X166594488Y-72060000D01*
X166515387Y-72139101D01*
G37*
%TD.AperFunction*%
D23*
X143709744Y-72717205D02*
X143898102Y-72795226D01*
X143954174Y-72806379D01*
X139205808Y-77554746D01*
X139177763Y-77577762D01*
X139085914Y-77689680D01*
X139056331Y-77745026D01*
X139017664Y-77817367D01*
X138975635Y-77955915D01*
X138961444Y-78100000D01*
X138965001Y-78136115D01*
X138965000Y-81771289D01*
X138896063Y-81840226D01*
X138782795Y-82009744D01*
X138704774Y-82198102D01*
X138665000Y-82398061D01*
X138665000Y-82460199D01*
X138388998Y-82736201D01*
X138360000Y-82759999D01*
X138336202Y-82788997D01*
X138336201Y-82788998D01*
X138265026Y-82875724D01*
X138194454Y-83007754D01*
X138164180Y-83107558D01*
X138150998Y-83151014D01*
X138142907Y-83233158D01*
X138136324Y-83300000D01*
X138140001Y-83337332D01*
X138140001Y-84565000D01*
X137998061Y-84565000D01*
X137798102Y-84604774D01*
X137609744Y-84682795D01*
X137440226Y-84796063D01*
X137296063Y-84940226D01*
X137182795Y-85109744D01*
X137104774Y-85298102D01*
X137065000Y-85498061D01*
X137065000Y-85565000D01*
X136998061Y-85565000D01*
X136798102Y-85604774D01*
X136609744Y-85682795D01*
X136440226Y-85796063D01*
X136396289Y-85840000D01*
X133005512Y-85840000D01*
X133712642Y-85132871D01*
X133901898Y-85095226D01*
X134090256Y-85017205D01*
X134259774Y-84903937D01*
X134403937Y-84759774D01*
X134517205Y-84590256D01*
X134595226Y-84401898D01*
X134635000Y-84201939D01*
X134635000Y-83998061D01*
X134595226Y-83798102D01*
X134517205Y-83609744D01*
X134403937Y-83440226D01*
X134259774Y-83296063D01*
X134090256Y-83182795D01*
X133901898Y-83104774D01*
X133701939Y-83065000D01*
X133498061Y-83065000D01*
X133298102Y-83104774D01*
X133109744Y-83182795D01*
X132940226Y-83296063D01*
X132796063Y-83440226D01*
X132682795Y-83609744D01*
X132604774Y-83798102D01*
X132567129Y-83987358D01*
X131562584Y-84991904D01*
X131447810Y-85053251D01*
X131355380Y-85129107D01*
X129214488Y-87270000D01*
X126250700Y-87270000D01*
X126090256Y-87162795D01*
X125901898Y-87084774D01*
X125701939Y-87045000D01*
X125498061Y-87045000D01*
X125298102Y-87084774D01*
X125109744Y-87162795D01*
X124940226Y-87276063D01*
X124796063Y-87420226D01*
X124682795Y-87589744D01*
X124604774Y-87778102D01*
X124565000Y-87978061D01*
X124565000Y-88181939D01*
X124604774Y-88381898D01*
X124682795Y-88570256D01*
X124796063Y-88739774D01*
X124940226Y-88883937D01*
X125109744Y-88997205D01*
X125298102Y-89075226D01*
X125498061Y-89115000D01*
X125701939Y-89115000D01*
X125901898Y-89075226D01*
X126090256Y-88997205D01*
X126250700Y-88890000D01*
X129275198Y-88890000D01*
X123706408Y-94458791D01*
X123486260Y-94415000D01*
X123193740Y-94415000D01*
X122906842Y-94472068D01*
X122636589Y-94584010D01*
X122393368Y-94746525D01*
X122186525Y-94953368D01*
X122024010Y-95196589D01*
X121960000Y-95351123D01*
X121960000Y-88814801D01*
X125011004Y-85763798D01*
X125040001Y-85740001D01*
X125134974Y-85624276D01*
X125205546Y-85492247D01*
X125249003Y-85348986D01*
X125260000Y-85237333D01*
X125260000Y-85237325D01*
X125263676Y-85200000D01*
X125260000Y-85162675D01*
X125260000Y-84514801D01*
X125441061Y-84333740D01*
X125965000Y-84333740D01*
X125965000Y-84626260D01*
X126022068Y-84913158D01*
X126134010Y-85183411D01*
X126296525Y-85426632D01*
X126503368Y-85633475D01*
X126746589Y-85795990D01*
X127016842Y-85907932D01*
X127303740Y-85965000D01*
X127596260Y-85965000D01*
X127883158Y-85907932D01*
X128153411Y-85795990D01*
X128396632Y-85633475D01*
X128603475Y-85426632D01*
X128765990Y-85183411D01*
X128877932Y-84913158D01*
X128935000Y-84626260D01*
X128935000Y-84333740D01*
X128877932Y-84046842D01*
X128765990Y-83776589D01*
X128603475Y-83533368D01*
X128396632Y-83326525D01*
X128153411Y-83164010D01*
X127883158Y-83052068D01*
X127596260Y-82995000D01*
X127303740Y-82995000D01*
X127016842Y-83052068D01*
X126746589Y-83164010D01*
X126503368Y-83326525D01*
X126296525Y-83533368D01*
X126134010Y-83776589D01*
X126022068Y-84046842D01*
X125965000Y-84333740D01*
X125441061Y-84333740D01*
X127614802Y-82160000D01*
X131711680Y-82160000D01*
X131749002Y-82163676D01*
X131786324Y-82160000D01*
X131786335Y-82160000D01*
X131897988Y-82149003D01*
X132041249Y-82105546D01*
X132173278Y-82034974D01*
X132289003Y-81940001D01*
X132312806Y-81910997D01*
X134263804Y-79960000D01*
X135862678Y-79960000D01*
X135900000Y-79963676D01*
X135937322Y-79960000D01*
X135937333Y-79960000D01*
X136048986Y-79949003D01*
X136192247Y-79905546D01*
X136324276Y-79834974D01*
X136440001Y-79740001D01*
X136463804Y-79710997D01*
X143558593Y-72616209D01*
X143709744Y-72717205D01*
%TA.AperFunction,Conductor*%
D24*
G36*
X143709744Y-72717205D02*
G01*
X143898102Y-72795226D01*
X143954174Y-72806379D01*
X139205808Y-77554746D01*
X139177763Y-77577762D01*
X139085914Y-77689680D01*
X139056331Y-77745026D01*
X139017664Y-77817367D01*
X138975635Y-77955915D01*
X138961444Y-78100000D01*
X138965001Y-78136115D01*
X138965000Y-81771289D01*
X138896063Y-81840226D01*
X138782795Y-82009744D01*
X138704774Y-82198102D01*
X138665000Y-82398061D01*
X138665000Y-82460199D01*
X138388998Y-82736201D01*
X138360000Y-82759999D01*
X138336202Y-82788997D01*
X138336201Y-82788998D01*
X138265026Y-82875724D01*
X138194454Y-83007754D01*
X138164180Y-83107558D01*
X138150998Y-83151014D01*
X138142907Y-83233158D01*
X138136324Y-83300000D01*
X138140001Y-83337332D01*
X138140001Y-84565000D01*
X137998061Y-84565000D01*
X137798102Y-84604774D01*
X137609744Y-84682795D01*
X137440226Y-84796063D01*
X137296063Y-84940226D01*
X137182795Y-85109744D01*
X137104774Y-85298102D01*
X137065000Y-85498061D01*
X137065000Y-85565000D01*
X136998061Y-85565000D01*
X136798102Y-85604774D01*
X136609744Y-85682795D01*
X136440226Y-85796063D01*
X136396289Y-85840000D01*
X133005512Y-85840000D01*
X133712642Y-85132871D01*
X133901898Y-85095226D01*
X134090256Y-85017205D01*
X134259774Y-84903937D01*
X134403937Y-84759774D01*
X134517205Y-84590256D01*
X134595226Y-84401898D01*
X134635000Y-84201939D01*
X134635000Y-83998061D01*
X134595226Y-83798102D01*
X134517205Y-83609744D01*
X134403937Y-83440226D01*
X134259774Y-83296063D01*
X134090256Y-83182795D01*
X133901898Y-83104774D01*
X133701939Y-83065000D01*
X133498061Y-83065000D01*
X133298102Y-83104774D01*
X133109744Y-83182795D01*
X132940226Y-83296063D01*
X132796063Y-83440226D01*
X132682795Y-83609744D01*
X132604774Y-83798102D01*
X132567129Y-83987358D01*
X131562584Y-84991904D01*
X131447810Y-85053251D01*
X131355380Y-85129107D01*
X129214488Y-87270000D01*
X126250700Y-87270000D01*
X126090256Y-87162795D01*
X125901898Y-87084774D01*
X125701939Y-87045000D01*
X125498061Y-87045000D01*
X125298102Y-87084774D01*
X125109744Y-87162795D01*
X124940226Y-87276063D01*
X124796063Y-87420226D01*
X124682795Y-87589744D01*
X124604774Y-87778102D01*
X124565000Y-87978061D01*
X124565000Y-88181939D01*
X124604774Y-88381898D01*
X124682795Y-88570256D01*
X124796063Y-88739774D01*
X124940226Y-88883937D01*
X125109744Y-88997205D01*
X125298102Y-89075226D01*
X125498061Y-89115000D01*
X125701939Y-89115000D01*
X125901898Y-89075226D01*
X126090256Y-88997205D01*
X126250700Y-88890000D01*
X129275198Y-88890000D01*
X123706408Y-94458791D01*
X123486260Y-94415000D01*
X123193740Y-94415000D01*
X122906842Y-94472068D01*
X122636589Y-94584010D01*
X122393368Y-94746525D01*
X122186525Y-94953368D01*
X122024010Y-95196589D01*
X121960000Y-95351123D01*
X121960000Y-88814801D01*
X125011004Y-85763798D01*
X125040001Y-85740001D01*
X125134974Y-85624276D01*
X125205546Y-85492247D01*
X125249003Y-85348986D01*
X125260000Y-85237333D01*
X125260000Y-85237325D01*
X125263676Y-85200000D01*
X125260000Y-85162675D01*
X125260000Y-84514801D01*
X125441061Y-84333740D01*
X125965000Y-84333740D01*
X125965000Y-84626260D01*
X126022068Y-84913158D01*
X126134010Y-85183411D01*
X126296525Y-85426632D01*
X126503368Y-85633475D01*
X126746589Y-85795990D01*
X127016842Y-85907932D01*
X127303740Y-85965000D01*
X127596260Y-85965000D01*
X127883158Y-85907932D01*
X128153411Y-85795990D01*
X128396632Y-85633475D01*
X128603475Y-85426632D01*
X128765990Y-85183411D01*
X128877932Y-84913158D01*
X128935000Y-84626260D01*
X128935000Y-84333740D01*
X128877932Y-84046842D01*
X128765990Y-83776589D01*
X128603475Y-83533368D01*
X128396632Y-83326525D01*
X128153411Y-83164010D01*
X127883158Y-83052068D01*
X127596260Y-82995000D01*
X127303740Y-82995000D01*
X127016842Y-83052068D01*
X126746589Y-83164010D01*
X126503368Y-83326525D01*
X126296525Y-83533368D01*
X126134010Y-83776589D01*
X126022068Y-84046842D01*
X125965000Y-84333740D01*
X125441061Y-84333740D01*
X127614802Y-82160000D01*
X131711680Y-82160000D01*
X131749002Y-82163676D01*
X131786324Y-82160000D01*
X131786335Y-82160000D01*
X131897988Y-82149003D01*
X132041249Y-82105546D01*
X132173278Y-82034974D01*
X132289003Y-81940001D01*
X132312806Y-81910997D01*
X134263804Y-79960000D01*
X135862678Y-79960000D01*
X135900000Y-79963676D01*
X135937322Y-79960000D01*
X135937333Y-79960000D01*
X136048986Y-79949003D01*
X136192247Y-79905546D01*
X136324276Y-79834974D01*
X136440001Y-79740001D01*
X136463804Y-79710997D01*
X143558593Y-72616209D01*
X143709744Y-72717205D01*
G37*
%TD.AperFunction*%
D23*
X120676511Y-69817177D02*
X121182823Y-70323489D01*
X121778182Y-70721295D01*
X122439710Y-70995309D01*
X123141984Y-71135000D01*
X123858016Y-71135000D01*
X124560290Y-70995309D01*
X125221818Y-70721295D01*
X125817177Y-70323489D01*
X126065002Y-70075664D01*
X126065002Y-70860196D01*
X125089003Y-71836196D01*
X125059999Y-71859999D01*
X125028729Y-71898102D01*
X124965026Y-71975724D01*
X124902743Y-72092247D01*
X124894454Y-72107754D01*
X124850997Y-72251015D01*
X124840000Y-72362668D01*
X124840000Y-72362678D01*
X124836324Y-72400000D01*
X124840000Y-72437323D01*
X124840001Y-77685197D01*
X124638072Y-77887126D01*
X124638072Y-76460000D01*
X124625812Y-76335518D01*
X124589502Y-76215820D01*
X124530537Y-76105506D01*
X124451185Y-76008815D01*
X124354494Y-75929463D01*
X124244180Y-75870498D01*
X124163534Y-75846034D01*
X124247588Y-75770269D01*
X124421641Y-75536920D01*
X124546825Y-75274099D01*
X124591476Y-75126890D01*
X124470155Y-74897000D01*
X123277000Y-74897000D01*
X123277000Y-74917000D01*
X123023000Y-74917000D01*
X123023000Y-74897000D01*
X121829845Y-74897000D01*
X121708524Y-75126890D01*
X121753175Y-75274099D01*
X121878359Y-75536920D01*
X122052412Y-75770269D01*
X122136466Y-75846034D01*
X122055820Y-75870498D01*
X121945506Y-75929463D01*
X121848815Y-76008815D01*
X121769463Y-76105506D01*
X121710498Y-76215820D01*
X121674188Y-76335518D01*
X121661928Y-76460000D01*
X121661928Y-78160000D01*
X121674188Y-78284482D01*
X121710498Y-78404180D01*
X121769463Y-78514494D01*
X121848815Y-78611185D01*
X121945506Y-78690537D01*
X122055820Y-78749502D01*
X122175518Y-78785812D01*
X122300000Y-78798072D01*
X123727127Y-78798072D01*
X123685199Y-78840000D01*
X122737333Y-78840000D01*
X122700000Y-78836323D01*
X122662667Y-78840000D01*
X122551014Y-78850997D01*
X122407753Y-78894454D01*
X122275724Y-78965026D01*
X122159999Y-79059999D01*
X122136201Y-79088997D01*
X120660000Y-80565199D01*
X120660000Y-74413110D01*
X121708524Y-74413110D01*
X121829845Y-74643000D01*
X123023000Y-74643000D01*
X123023000Y-73449186D01*
X123277000Y-73449186D01*
X123277000Y-74643000D01*
X124470155Y-74643000D01*
X124591476Y-74413110D01*
X124546825Y-74265901D01*
X124421641Y-74003080D01*
X124247588Y-73769731D01*
X124031355Y-73574822D01*
X123781252Y-73425843D01*
X123506891Y-73328519D01*
X123277000Y-73449186D01*
X123023000Y-73449186D01*
X122793109Y-73328519D01*
X122518748Y-73425843D01*
X122268645Y-73574822D01*
X122052412Y-73769731D01*
X121878359Y-74003080D01*
X121753175Y-74265901D01*
X121708524Y-74413110D01*
X120660000Y-74413110D01*
X120660000Y-69792467D01*
X120676511Y-69817177D01*
%TA.AperFunction,Conductor*%
D24*
G36*
X120676511Y-69817177D02*
G01*
X121182823Y-70323489D01*
X121778182Y-70721295D01*
X122439710Y-70995309D01*
X123141984Y-71135000D01*
X123858016Y-71135000D01*
X124560290Y-70995309D01*
X125221818Y-70721295D01*
X125817177Y-70323489D01*
X126065002Y-70075664D01*
X126065002Y-70860196D01*
X125089003Y-71836196D01*
X125059999Y-71859999D01*
X125028729Y-71898102D01*
X124965026Y-71975724D01*
X124902743Y-72092247D01*
X124894454Y-72107754D01*
X124850997Y-72251015D01*
X124840000Y-72362668D01*
X124840000Y-72362678D01*
X124836324Y-72400000D01*
X124840000Y-72437323D01*
X124840001Y-77685197D01*
X124638072Y-77887126D01*
X124638072Y-76460000D01*
X124625812Y-76335518D01*
X124589502Y-76215820D01*
X124530537Y-76105506D01*
X124451185Y-76008815D01*
X124354494Y-75929463D01*
X124244180Y-75870498D01*
X124163534Y-75846034D01*
X124247588Y-75770269D01*
X124421641Y-75536920D01*
X124546825Y-75274099D01*
X124591476Y-75126890D01*
X124470155Y-74897000D01*
X123277000Y-74897000D01*
X123277000Y-74917000D01*
X123023000Y-74917000D01*
X123023000Y-74897000D01*
X121829845Y-74897000D01*
X121708524Y-75126890D01*
X121753175Y-75274099D01*
X121878359Y-75536920D01*
X122052412Y-75770269D01*
X122136466Y-75846034D01*
X122055820Y-75870498D01*
X121945506Y-75929463D01*
X121848815Y-76008815D01*
X121769463Y-76105506D01*
X121710498Y-76215820D01*
X121674188Y-76335518D01*
X121661928Y-76460000D01*
X121661928Y-78160000D01*
X121674188Y-78284482D01*
X121710498Y-78404180D01*
X121769463Y-78514494D01*
X121848815Y-78611185D01*
X121945506Y-78690537D01*
X122055820Y-78749502D01*
X122175518Y-78785812D01*
X122300000Y-78798072D01*
X123727127Y-78798072D01*
X123685199Y-78840000D01*
X122737333Y-78840000D01*
X122700000Y-78836323D01*
X122662667Y-78840000D01*
X122551014Y-78850997D01*
X122407753Y-78894454D01*
X122275724Y-78965026D01*
X122159999Y-79059999D01*
X122136201Y-79088997D01*
X120660000Y-80565199D01*
X120660000Y-74413110D01*
X121708524Y-74413110D01*
X121829845Y-74643000D01*
X123023000Y-74643000D01*
X123023000Y-73449186D01*
X123277000Y-73449186D01*
X123277000Y-74643000D01*
X124470155Y-74643000D01*
X124591476Y-74413110D01*
X124546825Y-74265901D01*
X124421641Y-74003080D01*
X124247588Y-73769731D01*
X124031355Y-73574822D01*
X123781252Y-73425843D01*
X123506891Y-73328519D01*
X123277000Y-73449186D01*
X123023000Y-73449186D01*
X122793109Y-73328519D01*
X122518748Y-73425843D01*
X122268645Y-73574822D01*
X122052412Y-73769731D01*
X121878359Y-74003080D01*
X121753175Y-74265901D01*
X121708524Y-74413110D01*
X120660000Y-74413110D01*
X120660000Y-69792467D01*
X120676511Y-69817177D01*
G37*
%TD.AperFunction*%
D23*
X138787000Y-68873000D02*
X138807000Y-68873000D01*
X138807000Y-69127000D01*
X138787000Y-69127000D01*
X138787000Y-70320155D01*
X139016890Y-70441476D01*
X139164099Y-70396825D01*
X139426920Y-70271641D01*
X139660269Y-70097588D01*
X139855178Y-69881355D01*
X139924805Y-69764466D01*
X140046525Y-69946632D01*
X140253368Y-70153475D01*
X140496589Y-70315990D01*
X140766842Y-70427932D01*
X141053740Y-70485000D01*
X141346260Y-70485000D01*
X141633158Y-70427932D01*
X141903411Y-70315990D01*
X142146632Y-70153475D01*
X142353475Y-69946632D01*
X142470000Y-69772240D01*
X142586525Y-69946632D01*
X142793368Y-70153475D01*
X143036589Y-70315990D01*
X143306842Y-70427932D01*
X143593740Y-70485000D01*
X143886260Y-70485000D01*
X144173158Y-70427932D01*
X144443411Y-70315990D01*
X144686632Y-70153475D01*
X144893475Y-69946632D01*
X145010000Y-69772240D01*
X145126525Y-69946632D01*
X145333368Y-70153475D01*
X145576589Y-70315990D01*
X145846842Y-70427932D01*
X146133740Y-70485000D01*
X146275553Y-70485000D01*
X145206379Y-71554174D01*
X145195226Y-71498102D01*
X145117205Y-71309744D01*
X145003937Y-71140226D01*
X144859774Y-70996063D01*
X144690256Y-70882795D01*
X144501898Y-70804774D01*
X144301939Y-70765000D01*
X144098061Y-70765000D01*
X143898102Y-70804774D01*
X143709744Y-70882795D01*
X143540226Y-70996063D01*
X143496289Y-71040000D01*
X143337322Y-71040000D01*
X143299999Y-71036324D01*
X143262676Y-71040000D01*
X143262667Y-71040000D01*
X143151014Y-71050997D01*
X143007753Y-71094454D01*
X142875724Y-71165026D01*
X142759999Y-71259999D01*
X142736201Y-71288997D01*
X135585199Y-78440000D01*
X135070107Y-78440000D01*
X135253475Y-78256632D01*
X135415990Y-78013411D01*
X135527932Y-77743158D01*
X135585000Y-77456260D01*
X135585000Y-77163740D01*
X135527932Y-76876842D01*
X135415990Y-76606589D01*
X135253475Y-76363368D01*
X135046632Y-76156525D01*
X134870594Y-76038900D01*
X135100269Y-75867588D01*
X135295178Y-75651355D01*
X135444157Y-75401252D01*
X135541481Y-75126891D01*
X135420814Y-74897000D01*
X134227000Y-74897000D01*
X134227000Y-74917000D01*
X133973000Y-74917000D01*
X133973000Y-74897000D01*
X131687000Y-74897000D01*
X131687000Y-74917000D01*
X131433000Y-74917000D01*
X131433000Y-74897000D01*
X129147000Y-74897000D01*
X129147000Y-74917000D01*
X128893000Y-74917000D01*
X128893000Y-74897000D01*
X128873000Y-74897000D01*
X128873000Y-74643000D01*
X128893000Y-74643000D01*
X128893000Y-73449845D01*
X129147000Y-73449845D01*
X129147000Y-74643000D01*
X131433000Y-74643000D01*
X131433000Y-73449845D01*
X131687000Y-73449845D01*
X131687000Y-74643000D01*
X133973000Y-74643000D01*
X133973000Y-73449845D01*
X134227000Y-73449845D01*
X134227000Y-74643000D01*
X135420814Y-74643000D01*
X135541481Y-74413109D01*
X135444157Y-74138748D01*
X135295178Y-73888645D01*
X135100269Y-73672412D01*
X134866920Y-73498359D01*
X134604099Y-73373175D01*
X134456890Y-73328524D01*
X134227000Y-73449845D01*
X133973000Y-73449845D01*
X133743110Y-73328524D01*
X133595901Y-73373175D01*
X133333080Y-73498359D01*
X133099731Y-73672412D01*
X132904822Y-73888645D01*
X132830000Y-74014255D01*
X132755178Y-73888645D01*
X132560269Y-73672412D01*
X132326920Y-73498359D01*
X132064099Y-73373175D01*
X131916890Y-73328524D01*
X131687000Y-73449845D01*
X131433000Y-73449845D01*
X131203110Y-73328524D01*
X131055901Y-73373175D01*
X130793080Y-73498359D01*
X130559731Y-73672412D01*
X130364822Y-73888645D01*
X130290000Y-74014255D01*
X130215178Y-73888645D01*
X130020269Y-73672412D01*
X129786920Y-73498359D01*
X129524099Y-73373175D01*
X129376890Y-73328524D01*
X129147000Y-73449845D01*
X128893000Y-73449845D01*
X128663110Y-73328524D01*
X128515901Y-73373175D01*
X128253080Y-73498359D01*
X128084999Y-73623729D01*
X128084999Y-70488072D01*
X129350000Y-70488072D01*
X129474482Y-70475812D01*
X129594180Y-70439502D01*
X129704494Y-70380537D01*
X129801185Y-70301185D01*
X129880537Y-70204494D01*
X129939502Y-70094180D01*
X129961513Y-70021620D01*
X130093368Y-70153475D01*
X130336589Y-70315990D01*
X130606842Y-70427932D01*
X130893740Y-70485000D01*
X131186260Y-70485000D01*
X131473158Y-70427932D01*
X131743411Y-70315990D01*
X131986632Y-70153475D01*
X132193475Y-69946632D01*
X132310000Y-69772240D01*
X132426525Y-69946632D01*
X132633368Y-70153475D01*
X132876589Y-70315990D01*
X133146842Y-70427932D01*
X133433740Y-70485000D01*
X133726260Y-70485000D01*
X134013158Y-70427932D01*
X134283411Y-70315990D01*
X134526632Y-70153475D01*
X134733475Y-69946632D01*
X134850000Y-69772240D01*
X134966525Y-69946632D01*
X135173368Y-70153475D01*
X135416589Y-70315990D01*
X135686842Y-70427932D01*
X135973740Y-70485000D01*
X136266260Y-70485000D01*
X136553158Y-70427932D01*
X136823411Y-70315990D01*
X137066632Y-70153475D01*
X137273475Y-69946632D01*
X137395195Y-69764466D01*
X137464822Y-69881355D01*
X137659731Y-70097588D01*
X137893080Y-70271641D01*
X138155901Y-70396825D01*
X138303110Y-70441476D01*
X138533000Y-70320155D01*
X138533000Y-69127000D01*
X138513000Y-69127000D01*
X138513000Y-68873000D01*
X138533000Y-68873000D01*
X138533000Y-68853000D01*
X138787000Y-68853000D01*
X138787000Y-68873000D01*
%TA.AperFunction,Conductor*%
D24*
G36*
X138787000Y-68873000D02*
G01*
X138807000Y-68873000D01*
X138807000Y-69127000D01*
X138787000Y-69127000D01*
X138787000Y-70320155D01*
X139016890Y-70441476D01*
X139164099Y-70396825D01*
X139426920Y-70271641D01*
X139660269Y-70097588D01*
X139855178Y-69881355D01*
X139924805Y-69764466D01*
X140046525Y-69946632D01*
X140253368Y-70153475D01*
X140496589Y-70315990D01*
X140766842Y-70427932D01*
X141053740Y-70485000D01*
X141346260Y-70485000D01*
X141633158Y-70427932D01*
X141903411Y-70315990D01*
X142146632Y-70153475D01*
X142353475Y-69946632D01*
X142470000Y-69772240D01*
X142586525Y-69946632D01*
X142793368Y-70153475D01*
X143036589Y-70315990D01*
X143306842Y-70427932D01*
X143593740Y-70485000D01*
X143886260Y-70485000D01*
X144173158Y-70427932D01*
X144443411Y-70315990D01*
X144686632Y-70153475D01*
X144893475Y-69946632D01*
X145010000Y-69772240D01*
X145126525Y-69946632D01*
X145333368Y-70153475D01*
X145576589Y-70315990D01*
X145846842Y-70427932D01*
X146133740Y-70485000D01*
X146275553Y-70485000D01*
X145206379Y-71554174D01*
X145195226Y-71498102D01*
X145117205Y-71309744D01*
X145003937Y-71140226D01*
X144859774Y-70996063D01*
X144690256Y-70882795D01*
X144501898Y-70804774D01*
X144301939Y-70765000D01*
X144098061Y-70765000D01*
X143898102Y-70804774D01*
X143709744Y-70882795D01*
X143540226Y-70996063D01*
X143496289Y-71040000D01*
X143337322Y-71040000D01*
X143299999Y-71036324D01*
X143262676Y-71040000D01*
X143262667Y-71040000D01*
X143151014Y-71050997D01*
X143007753Y-71094454D01*
X142875724Y-71165026D01*
X142759999Y-71259999D01*
X142736201Y-71288997D01*
X135585199Y-78440000D01*
X135070107Y-78440000D01*
X135253475Y-78256632D01*
X135415990Y-78013411D01*
X135527932Y-77743158D01*
X135585000Y-77456260D01*
X135585000Y-77163740D01*
X135527932Y-76876842D01*
X135415990Y-76606589D01*
X135253475Y-76363368D01*
X135046632Y-76156525D01*
X134870594Y-76038900D01*
X135100269Y-75867588D01*
X135295178Y-75651355D01*
X135444157Y-75401252D01*
X135541481Y-75126891D01*
X135420814Y-74897000D01*
X134227000Y-74897000D01*
X134227000Y-74917000D01*
X133973000Y-74917000D01*
X133973000Y-74897000D01*
X131687000Y-74897000D01*
X131687000Y-74917000D01*
X131433000Y-74917000D01*
X131433000Y-74897000D01*
X129147000Y-74897000D01*
X129147000Y-74917000D01*
X128893000Y-74917000D01*
X128893000Y-74897000D01*
X128873000Y-74897000D01*
X128873000Y-74643000D01*
X128893000Y-74643000D01*
X128893000Y-73449845D01*
X129147000Y-73449845D01*
X129147000Y-74643000D01*
X131433000Y-74643000D01*
X131433000Y-73449845D01*
X131687000Y-73449845D01*
X131687000Y-74643000D01*
X133973000Y-74643000D01*
X133973000Y-73449845D01*
X134227000Y-73449845D01*
X134227000Y-74643000D01*
X135420814Y-74643000D01*
X135541481Y-74413109D01*
X135444157Y-74138748D01*
X135295178Y-73888645D01*
X135100269Y-73672412D01*
X134866920Y-73498359D01*
X134604099Y-73373175D01*
X134456890Y-73328524D01*
X134227000Y-73449845D01*
X133973000Y-73449845D01*
X133743110Y-73328524D01*
X133595901Y-73373175D01*
X133333080Y-73498359D01*
X133099731Y-73672412D01*
X132904822Y-73888645D01*
X132830000Y-74014255D01*
X132755178Y-73888645D01*
X132560269Y-73672412D01*
X132326920Y-73498359D01*
X132064099Y-73373175D01*
X131916890Y-73328524D01*
X131687000Y-73449845D01*
X131433000Y-73449845D01*
X131203110Y-73328524D01*
X131055901Y-73373175D01*
X130793080Y-73498359D01*
X130559731Y-73672412D01*
X130364822Y-73888645D01*
X130290000Y-74014255D01*
X130215178Y-73888645D01*
X130020269Y-73672412D01*
X129786920Y-73498359D01*
X129524099Y-73373175D01*
X129376890Y-73328524D01*
X129147000Y-73449845D01*
X128893000Y-73449845D01*
X128663110Y-73328524D01*
X128515901Y-73373175D01*
X128253080Y-73498359D01*
X128084999Y-73623729D01*
X128084999Y-70488072D01*
X129350000Y-70488072D01*
X129474482Y-70475812D01*
X129594180Y-70439502D01*
X129704494Y-70380537D01*
X129801185Y-70301185D01*
X129880537Y-70204494D01*
X129939502Y-70094180D01*
X129961513Y-70021620D01*
X130093368Y-70153475D01*
X130336589Y-70315990D01*
X130606842Y-70427932D01*
X130893740Y-70485000D01*
X131186260Y-70485000D01*
X131473158Y-70427932D01*
X131743411Y-70315990D01*
X131986632Y-70153475D01*
X132193475Y-69946632D01*
X132310000Y-69772240D01*
X132426525Y-69946632D01*
X132633368Y-70153475D01*
X132876589Y-70315990D01*
X133146842Y-70427932D01*
X133433740Y-70485000D01*
X133726260Y-70485000D01*
X134013158Y-70427932D01*
X134283411Y-70315990D01*
X134526632Y-70153475D01*
X134733475Y-69946632D01*
X134850000Y-69772240D01*
X134966525Y-69946632D01*
X135173368Y-70153475D01*
X135416589Y-70315990D01*
X135686842Y-70427932D01*
X135973740Y-70485000D01*
X136266260Y-70485000D01*
X136553158Y-70427932D01*
X136823411Y-70315990D01*
X137066632Y-70153475D01*
X137273475Y-69946632D01*
X137395195Y-69764466D01*
X137464822Y-69881355D01*
X137659731Y-70097588D01*
X137893080Y-70271641D01*
X138155901Y-70396825D01*
X138303110Y-70441476D01*
X138533000Y-70320155D01*
X138533000Y-69127000D01*
X138513000Y-69127000D01*
X138513000Y-68873000D01*
X138533000Y-68873000D01*
X138533000Y-68853000D01*
X138787000Y-68853000D01*
X138787000Y-68873000D01*
G37*
%TD.AperFunction*%
D23*
X159107000Y-68873000D02*
X159127000Y-68873000D01*
X159127000Y-69127000D01*
X159107000Y-69127000D01*
X159107000Y-70320155D01*
X159336890Y-70441476D01*
X159484099Y-70396825D01*
X159746920Y-70271641D01*
X159980269Y-70097588D01*
X160175178Y-69881355D01*
X160244805Y-69764466D01*
X160366525Y-69946632D01*
X160573368Y-70153475D01*
X160816589Y-70315990D01*
X161086842Y-70427932D01*
X161373740Y-70485000D01*
X161666260Y-70485000D01*
X161953158Y-70427932D01*
X162223411Y-70315990D01*
X162466632Y-70153475D01*
X162673475Y-69946632D01*
X162790000Y-69772240D01*
X162906525Y-69946632D01*
X163113368Y-70153475D01*
X163356589Y-70315990D01*
X163626842Y-70427932D01*
X163913740Y-70485000D01*
X164206260Y-70485000D01*
X164493158Y-70427932D01*
X164763411Y-70315990D01*
X165006632Y-70153475D01*
X165213475Y-69946632D01*
X165330000Y-69772240D01*
X165446525Y-69946632D01*
X165653368Y-70153475D01*
X165896589Y-70315990D01*
X166166842Y-70427932D01*
X166453740Y-70485000D01*
X166746260Y-70485000D01*
X167033158Y-70427932D01*
X167303411Y-70315990D01*
X167546632Y-70153475D01*
X167753475Y-69946632D01*
X167870000Y-69772240D01*
X167986525Y-69946632D01*
X168193368Y-70153475D01*
X168436589Y-70315990D01*
X168706842Y-70427932D01*
X168993740Y-70485000D01*
X169286260Y-70485000D01*
X169573158Y-70427932D01*
X169843411Y-70315990D01*
X170086632Y-70153475D01*
X170293475Y-69946632D01*
X170410000Y-69772240D01*
X170526525Y-69946632D01*
X170733368Y-70153475D01*
X170976589Y-70315990D01*
X171246842Y-70427932D01*
X171533740Y-70485000D01*
X171826260Y-70485000D01*
X172113158Y-70427932D01*
X172383411Y-70315990D01*
X172626632Y-70153475D01*
X172833475Y-69946632D01*
X172950000Y-69772240D01*
X173066525Y-69946632D01*
X173273368Y-70153475D01*
X173516589Y-70315990D01*
X173786842Y-70427932D01*
X174073740Y-70485000D01*
X174366260Y-70485000D01*
X174653158Y-70427932D01*
X174923411Y-70315990D01*
X175166632Y-70153475D01*
X175373475Y-69946632D01*
X175495195Y-69764466D01*
X175564822Y-69881355D01*
X175759731Y-70097588D01*
X175993080Y-70271641D01*
X176255901Y-70396825D01*
X176403110Y-70441476D01*
X176633000Y-70320155D01*
X176633000Y-69127000D01*
X176613000Y-69127000D01*
X176613000Y-68873000D01*
X176633000Y-68873000D01*
X176633000Y-68853000D01*
X176887000Y-68853000D01*
X176887000Y-68873000D01*
X176907000Y-68873000D01*
X176907000Y-69127000D01*
X176887000Y-69127000D01*
X176887000Y-70320155D01*
X177116890Y-70441476D01*
X177264099Y-70396825D01*
X177415000Y-70324950D01*
X177415000Y-70460197D01*
X177335197Y-70540000D01*
X165837322Y-70540000D01*
X165799999Y-70536324D01*
X165762676Y-70540000D01*
X165762667Y-70540000D01*
X165651014Y-70550997D01*
X165507753Y-70594454D01*
X165375723Y-70665026D01*
X165360842Y-70677239D01*
X165259999Y-70759999D01*
X165236201Y-70788997D01*
X162360199Y-73665000D01*
X162298061Y-73665000D01*
X162138072Y-73696824D01*
X162138072Y-73379999D01*
X162121008Y-73206745D01*
X162070472Y-73040149D01*
X161988405Y-72886613D01*
X161877962Y-72752038D01*
X161743387Y-72641595D01*
X161589851Y-72559528D01*
X161423255Y-72508992D01*
X161250001Y-72491928D01*
X160349999Y-72491928D01*
X160176745Y-72508992D01*
X160010149Y-72559528D01*
X159856613Y-72641595D01*
X159722038Y-72752038D01*
X159611595Y-72886613D01*
X159604439Y-72900000D01*
X157676251Y-72900000D01*
X157658405Y-72866613D01*
X157547962Y-72732038D01*
X157413387Y-72621595D01*
X157259851Y-72539528D01*
X157093255Y-72488992D01*
X156920001Y-72471928D01*
X156301187Y-72471928D01*
X156335000Y-72301939D01*
X156335000Y-72098061D01*
X156295226Y-71898102D01*
X156217205Y-71709744D01*
X156103937Y-71540226D01*
X155959774Y-71396063D01*
X155790256Y-71282795D01*
X155601898Y-71204774D01*
X155401939Y-71165000D01*
X155349801Y-71165000D01*
X156073592Y-70441210D01*
X156293740Y-70485000D01*
X156586260Y-70485000D01*
X156873158Y-70427932D01*
X157143411Y-70315990D01*
X157386632Y-70153475D01*
X157593475Y-69946632D01*
X157715195Y-69764466D01*
X157784822Y-69881355D01*
X157979731Y-70097588D01*
X158213080Y-70271641D01*
X158475901Y-70396825D01*
X158623110Y-70441476D01*
X158853000Y-70320155D01*
X158853000Y-69127000D01*
X158833000Y-69127000D01*
X158833000Y-68873000D01*
X158853000Y-68873000D01*
X158853000Y-68853000D01*
X159107000Y-68853000D01*
X159107000Y-68873000D01*
%TA.AperFunction,Conductor*%
D24*
G36*
X159107000Y-68873000D02*
G01*
X159127000Y-68873000D01*
X159127000Y-69127000D01*
X159107000Y-69127000D01*
X159107000Y-70320155D01*
X159336890Y-70441476D01*
X159484099Y-70396825D01*
X159746920Y-70271641D01*
X159980269Y-70097588D01*
X160175178Y-69881355D01*
X160244805Y-69764466D01*
X160366525Y-69946632D01*
X160573368Y-70153475D01*
X160816589Y-70315990D01*
X161086842Y-70427932D01*
X161373740Y-70485000D01*
X161666260Y-70485000D01*
X161953158Y-70427932D01*
X162223411Y-70315990D01*
X162466632Y-70153475D01*
X162673475Y-69946632D01*
X162790000Y-69772240D01*
X162906525Y-69946632D01*
X163113368Y-70153475D01*
X163356589Y-70315990D01*
X163626842Y-70427932D01*
X163913740Y-70485000D01*
X164206260Y-70485000D01*
X164493158Y-70427932D01*
X164763411Y-70315990D01*
X165006632Y-70153475D01*
X165213475Y-69946632D01*
X165330000Y-69772240D01*
X165446525Y-69946632D01*
X165653368Y-70153475D01*
X165896589Y-70315990D01*
X166166842Y-70427932D01*
X166453740Y-70485000D01*
X166746260Y-70485000D01*
X167033158Y-70427932D01*
X167303411Y-70315990D01*
X167546632Y-70153475D01*
X167753475Y-69946632D01*
X167870000Y-69772240D01*
X167986525Y-69946632D01*
X168193368Y-70153475D01*
X168436589Y-70315990D01*
X168706842Y-70427932D01*
X168993740Y-70485000D01*
X169286260Y-70485000D01*
X169573158Y-70427932D01*
X169843411Y-70315990D01*
X170086632Y-70153475D01*
X170293475Y-69946632D01*
X170410000Y-69772240D01*
X170526525Y-69946632D01*
X170733368Y-70153475D01*
X170976589Y-70315990D01*
X171246842Y-70427932D01*
X171533740Y-70485000D01*
X171826260Y-70485000D01*
X172113158Y-70427932D01*
X172383411Y-70315990D01*
X172626632Y-70153475D01*
X172833475Y-69946632D01*
X172950000Y-69772240D01*
X173066525Y-69946632D01*
X173273368Y-70153475D01*
X173516589Y-70315990D01*
X173786842Y-70427932D01*
X174073740Y-70485000D01*
X174366260Y-70485000D01*
X174653158Y-70427932D01*
X174923411Y-70315990D01*
X175166632Y-70153475D01*
X175373475Y-69946632D01*
X175495195Y-69764466D01*
X175564822Y-69881355D01*
X175759731Y-70097588D01*
X175993080Y-70271641D01*
X176255901Y-70396825D01*
X176403110Y-70441476D01*
X176633000Y-70320155D01*
X176633000Y-69127000D01*
X176613000Y-69127000D01*
X176613000Y-68873000D01*
X176633000Y-68873000D01*
X176633000Y-68853000D01*
X176887000Y-68853000D01*
X176887000Y-68873000D01*
X176907000Y-68873000D01*
X176907000Y-69127000D01*
X176887000Y-69127000D01*
X176887000Y-70320155D01*
X177116890Y-70441476D01*
X177264099Y-70396825D01*
X177415000Y-70324950D01*
X177415000Y-70460197D01*
X177335197Y-70540000D01*
X165837322Y-70540000D01*
X165799999Y-70536324D01*
X165762676Y-70540000D01*
X165762667Y-70540000D01*
X165651014Y-70550997D01*
X165507753Y-70594454D01*
X165375723Y-70665026D01*
X165360842Y-70677239D01*
X165259999Y-70759999D01*
X165236201Y-70788997D01*
X162360199Y-73665000D01*
X162298061Y-73665000D01*
X162138072Y-73696824D01*
X162138072Y-73379999D01*
X162121008Y-73206745D01*
X162070472Y-73040149D01*
X161988405Y-72886613D01*
X161877962Y-72752038D01*
X161743387Y-72641595D01*
X161589851Y-72559528D01*
X161423255Y-72508992D01*
X161250001Y-72491928D01*
X160349999Y-72491928D01*
X160176745Y-72508992D01*
X160010149Y-72559528D01*
X159856613Y-72641595D01*
X159722038Y-72752038D01*
X159611595Y-72886613D01*
X159604439Y-72900000D01*
X157676251Y-72900000D01*
X157658405Y-72866613D01*
X157547962Y-72732038D01*
X157413387Y-72621595D01*
X157259851Y-72539528D01*
X157093255Y-72488992D01*
X156920001Y-72471928D01*
X156301187Y-72471928D01*
X156335000Y-72301939D01*
X156335000Y-72098061D01*
X156295226Y-71898102D01*
X156217205Y-71709744D01*
X156103937Y-71540226D01*
X155959774Y-71396063D01*
X155790256Y-71282795D01*
X155601898Y-71204774D01*
X155401939Y-71165000D01*
X155349801Y-71165000D01*
X156073592Y-70441210D01*
X156293740Y-70485000D01*
X156586260Y-70485000D01*
X156873158Y-70427932D01*
X157143411Y-70315990D01*
X157386632Y-70153475D01*
X157593475Y-69946632D01*
X157715195Y-69764466D01*
X157784822Y-69881355D01*
X157979731Y-70097588D01*
X158213080Y-70271641D01*
X158475901Y-70396825D01*
X158623110Y-70441476D01*
X158853000Y-70320155D01*
X158853000Y-69127000D01*
X158833000Y-69127000D01*
X158833000Y-68873000D01*
X158853000Y-68873000D01*
X158853000Y-68853000D01*
X159107000Y-68853000D01*
X159107000Y-68873000D01*
G37*
%TD.AperFunction*%
D23*
X175606525Y-67406632D02*
X175813368Y-67613475D01*
X175989406Y-67731100D01*
X175759731Y-67902412D01*
X175564822Y-68118645D01*
X175495195Y-68235534D01*
X175373475Y-68053368D01*
X175166632Y-67846525D01*
X174992240Y-67730000D01*
X175166632Y-67613475D01*
X175373475Y-67406632D01*
X175490000Y-67232240D01*
X175606525Y-67406632D01*
%TA.AperFunction,Conductor*%
D24*
G36*
X175606525Y-67406632D02*
G01*
X175813368Y-67613475D01*
X175989406Y-67731100D01*
X175759731Y-67902412D01*
X175564822Y-68118645D01*
X175495195Y-68235534D01*
X175373475Y-68053368D01*
X175166632Y-67846525D01*
X174992240Y-67730000D01*
X175166632Y-67613475D01*
X175373475Y-67406632D01*
X175490000Y-67232240D01*
X175606525Y-67406632D01*
G37*
%TD.AperFunction*%
D23*
X170526525Y-67406632D02*
X170733368Y-67613475D01*
X170907760Y-67730000D01*
X170733368Y-67846525D01*
X170526525Y-68053368D01*
X170410000Y-68227760D01*
X170293475Y-68053368D01*
X170086632Y-67846525D01*
X169910594Y-67728900D01*
X170140269Y-67557588D01*
X170335178Y-67341355D01*
X170404805Y-67224466D01*
X170526525Y-67406632D01*
%TA.AperFunction,Conductor*%
D24*
G36*
X170526525Y-67406632D02*
G01*
X170733368Y-67613475D01*
X170907760Y-67730000D01*
X170733368Y-67846525D01*
X170526525Y-68053368D01*
X170410000Y-68227760D01*
X170293475Y-68053368D01*
X170086632Y-67846525D01*
X169910594Y-67728900D01*
X170140269Y-67557588D01*
X170335178Y-67341355D01*
X170404805Y-67224466D01*
X170526525Y-67406632D01*
G37*
%TD.AperFunction*%
D23*
X165446525Y-67406632D02*
X165653368Y-67613475D01*
X165827760Y-67730000D01*
X165653368Y-67846525D01*
X165446525Y-68053368D01*
X165330000Y-68227760D01*
X165213475Y-68053368D01*
X165006632Y-67846525D01*
X164830594Y-67728900D01*
X165060269Y-67557588D01*
X165255178Y-67341355D01*
X165324805Y-67224466D01*
X165446525Y-67406632D01*
%TA.AperFunction,Conductor*%
D24*
G36*
X165446525Y-67406632D02*
G01*
X165653368Y-67613475D01*
X165827760Y-67730000D01*
X165653368Y-67846525D01*
X165446525Y-68053368D01*
X165330000Y-68227760D01*
X165213475Y-68053368D01*
X165006632Y-67846525D01*
X164830594Y-67728900D01*
X165060269Y-67557588D01*
X165255178Y-67341355D01*
X165324805Y-67224466D01*
X165446525Y-67406632D01*
G37*
%TD.AperFunction*%
D23*
X169267000Y-66333000D02*
X169287000Y-66333000D01*
X169287000Y-66587000D01*
X169267000Y-66587000D01*
X169267000Y-66607000D01*
X169013000Y-66607000D01*
X169013000Y-66587000D01*
X168993000Y-66587000D01*
X168993000Y-66333000D01*
X169013000Y-66333000D01*
X169013000Y-66313000D01*
X169267000Y-66313000D01*
X169267000Y-66333000D01*
%TA.AperFunction,Conductor*%
D24*
G36*
X169267000Y-66333000D02*
G01*
X169287000Y-66333000D01*
X169287000Y-66587000D01*
X169267000Y-66587000D01*
X169267000Y-66607000D01*
X169013000Y-66607000D01*
X169013000Y-66587000D01*
X168993000Y-66587000D01*
X168993000Y-66333000D01*
X169013000Y-66333000D01*
X169013000Y-66313000D01*
X169267000Y-66313000D01*
X169267000Y-66333000D01*
G37*
%TD.AperFunction*%
D23*
X164187000Y-66333000D02*
X164207000Y-66333000D01*
X164207000Y-66587000D01*
X164187000Y-66587000D01*
X164187000Y-66607000D01*
X163933000Y-66607000D01*
X163933000Y-66587000D01*
X163913000Y-66587000D01*
X163913000Y-66333000D01*
X163933000Y-66333000D01*
X163933000Y-66313000D01*
X164187000Y-66313000D01*
X164187000Y-66333000D01*
%TA.AperFunction,Conductor*%
D24*
G36*
X164187000Y-66333000D02*
G01*
X164207000Y-66333000D01*
X164207000Y-66587000D01*
X164187000Y-66587000D01*
X164187000Y-66607000D01*
X163933000Y-66607000D01*
X163933000Y-66587000D01*
X163913000Y-66587000D01*
X163913000Y-66333000D01*
X163933000Y-66333000D01*
X163933000Y-66313000D01*
X164187000Y-66313000D01*
X164187000Y-66333000D01*
G37*
%TD.AperFunction*%
D23*
X151487000Y-66333000D02*
X151507000Y-66333000D01*
X151507000Y-66587000D01*
X151487000Y-66587000D01*
X151487000Y-66607000D01*
X151233000Y-66607000D01*
X151233000Y-66587000D01*
X151213000Y-66587000D01*
X151213000Y-66333000D01*
X151233000Y-66333000D01*
X151233000Y-66313000D01*
X151487000Y-66313000D01*
X151487000Y-66333000D01*
%TA.AperFunction,Conductor*%
D24*
G36*
X151487000Y-66333000D02*
G01*
X151507000Y-66333000D01*
X151507000Y-66587000D01*
X151487000Y-66587000D01*
X151487000Y-66607000D01*
X151233000Y-66607000D01*
X151233000Y-66587000D01*
X151213000Y-66587000D01*
X151213000Y-66333000D01*
X151233000Y-66333000D01*
X151233000Y-66313000D01*
X151487000Y-66313000D01*
X151487000Y-66333000D01*
G37*
%TD.AperFunction*%
D23*
X143867000Y-66333000D02*
X143887000Y-66333000D01*
X143887000Y-66587000D01*
X143867000Y-66587000D01*
X143867000Y-66607000D01*
X143613000Y-66607000D01*
X143613000Y-66587000D01*
X143593000Y-66587000D01*
X143593000Y-66333000D01*
X143613000Y-66333000D01*
X143613000Y-66313000D01*
X143867000Y-66313000D01*
X143867000Y-66333000D01*
%TA.AperFunction,Conductor*%
D24*
G36*
X143867000Y-66333000D02*
G01*
X143887000Y-66333000D01*
X143887000Y-66587000D01*
X143867000Y-66587000D01*
X143867000Y-66607000D01*
X143613000Y-66607000D01*
X143613000Y-66587000D01*
X143593000Y-66587000D01*
X143593000Y-66333000D01*
X143613000Y-66333000D01*
X143613000Y-66313000D01*
X143867000Y-66313000D01*
X143867000Y-66333000D01*
G37*
%TD.AperFunction*%
D23*
X133707000Y-66333000D02*
X133727000Y-66333000D01*
X133727000Y-66587000D01*
X133707000Y-66587000D01*
X133707000Y-66607000D01*
X133453000Y-66607000D01*
X133453000Y-66587000D01*
X133433000Y-66587000D01*
X133433000Y-66333000D01*
X133453000Y-66333000D01*
X133453000Y-66313000D01*
X133707000Y-66313000D01*
X133707000Y-66333000D01*
%TA.AperFunction,Conductor*%
D24*
G36*
X133707000Y-66333000D02*
G01*
X133727000Y-66333000D01*
X133727000Y-66587000D01*
X133707000Y-66587000D01*
X133707000Y-66607000D01*
X133453000Y-66607000D01*
X133453000Y-66587000D01*
X133433000Y-66587000D01*
X133433000Y-66333000D01*
X133453000Y-66333000D01*
X133453000Y-66313000D01*
X133707000Y-66313000D01*
X133707000Y-66333000D01*
G37*
%TD.AperFunction*%
%TD*%
M02*
