%TF.GenerationSoftware,KiCad,Pcbnew,(5.1.10)-1*%
%TF.CreationDate,2022-02-24T16:30:35+08:00*%
%TF.ProjectId,hat,6861742e-6b69-4636-9164-5f7063625858,rev?*%
%TF.SameCoordinates,Original*%
%TF.FileFunction,Paste,Bot*%
%TF.FilePolarity,Positive*%
%FSLAX46Y46*%
G04 Gerber Fmt 4.6, Leading zero omitted, Abs format (unit mm)*
G04 Created by KiCad (PCBNEW (5.1.10)-1) date 2022-02-24 16:30:35*
%MOMM*%
%LPD*%
G01*
G04 APERTURE LIST*
G04 APERTURE END LIST*
%TO.C,U6*%
G36*
G01*
X171575000Y-110300000D02*
X171575000Y-110000000D01*
G75*
G02*
X171725000Y-109850000I150000J0D01*
G01*
X173475000Y-109850000D01*
G75*
G02*
X173625000Y-110000000I0J-150000D01*
G01*
X173625000Y-110300000D01*
G75*
G02*
X173475000Y-110450000I-150000J0D01*
G01*
X171725000Y-110450000D01*
G75*
G02*
X171575000Y-110300000I0J150000D01*
G01*
G37*
G36*
G01*
X171575000Y-109030000D02*
X171575000Y-108730000D01*
G75*
G02*
X171725000Y-108580000I150000J0D01*
G01*
X173475000Y-108580000D01*
G75*
G02*
X173625000Y-108730000I0J-150000D01*
G01*
X173625000Y-109030000D01*
G75*
G02*
X173475000Y-109180000I-150000J0D01*
G01*
X171725000Y-109180000D01*
G75*
G02*
X171575000Y-109030000I0J150000D01*
G01*
G37*
G36*
G01*
X171575000Y-107760000D02*
X171575000Y-107460000D01*
G75*
G02*
X171725000Y-107310000I150000J0D01*
G01*
X173475000Y-107310000D01*
G75*
G02*
X173625000Y-107460000I0J-150000D01*
G01*
X173625000Y-107760000D01*
G75*
G02*
X173475000Y-107910000I-150000J0D01*
G01*
X171725000Y-107910000D01*
G75*
G02*
X171575000Y-107760000I0J150000D01*
G01*
G37*
G36*
G01*
X171575000Y-106490000D02*
X171575000Y-106190000D01*
G75*
G02*
X171725000Y-106040000I150000J0D01*
G01*
X173475000Y-106040000D01*
G75*
G02*
X173625000Y-106190000I0J-150000D01*
G01*
X173625000Y-106490000D01*
G75*
G02*
X173475000Y-106640000I-150000J0D01*
G01*
X171725000Y-106640000D01*
G75*
G02*
X171575000Y-106490000I0J150000D01*
G01*
G37*
G36*
G01*
X171575000Y-105220000D02*
X171575000Y-104920000D01*
G75*
G02*
X171725000Y-104770000I150000J0D01*
G01*
X173475000Y-104770000D01*
G75*
G02*
X173625000Y-104920000I0J-150000D01*
G01*
X173625000Y-105220000D01*
G75*
G02*
X173475000Y-105370000I-150000J0D01*
G01*
X171725000Y-105370000D01*
G75*
G02*
X171575000Y-105220000I0J150000D01*
G01*
G37*
G36*
G01*
X171575000Y-103950000D02*
X171575000Y-103650000D01*
G75*
G02*
X171725000Y-103500000I150000J0D01*
G01*
X173475000Y-103500000D01*
G75*
G02*
X173625000Y-103650000I0J-150000D01*
G01*
X173625000Y-103950000D01*
G75*
G02*
X173475000Y-104100000I-150000J0D01*
G01*
X171725000Y-104100000D01*
G75*
G02*
X171575000Y-103950000I0J150000D01*
G01*
G37*
G36*
G01*
X171575000Y-102680000D02*
X171575000Y-102380000D01*
G75*
G02*
X171725000Y-102230000I150000J0D01*
G01*
X173475000Y-102230000D01*
G75*
G02*
X173625000Y-102380000I0J-150000D01*
G01*
X173625000Y-102680000D01*
G75*
G02*
X173475000Y-102830000I-150000J0D01*
G01*
X171725000Y-102830000D01*
G75*
G02*
X171575000Y-102680000I0J150000D01*
G01*
G37*
G36*
G01*
X171575000Y-101410000D02*
X171575000Y-101110000D01*
G75*
G02*
X171725000Y-100960000I150000J0D01*
G01*
X173475000Y-100960000D01*
G75*
G02*
X173625000Y-101110000I0J-150000D01*
G01*
X173625000Y-101410000D01*
G75*
G02*
X173475000Y-101560000I-150000J0D01*
G01*
X171725000Y-101560000D01*
G75*
G02*
X171575000Y-101410000I0J150000D01*
G01*
G37*
G36*
G01*
X162275000Y-101410000D02*
X162275000Y-101110000D01*
G75*
G02*
X162425000Y-100960000I150000J0D01*
G01*
X164175000Y-100960000D01*
G75*
G02*
X164325000Y-101110000I0J-150000D01*
G01*
X164325000Y-101410000D01*
G75*
G02*
X164175000Y-101560000I-150000J0D01*
G01*
X162425000Y-101560000D01*
G75*
G02*
X162275000Y-101410000I0J150000D01*
G01*
G37*
G36*
G01*
X162275000Y-102680000D02*
X162275000Y-102380000D01*
G75*
G02*
X162425000Y-102230000I150000J0D01*
G01*
X164175000Y-102230000D01*
G75*
G02*
X164325000Y-102380000I0J-150000D01*
G01*
X164325000Y-102680000D01*
G75*
G02*
X164175000Y-102830000I-150000J0D01*
G01*
X162425000Y-102830000D01*
G75*
G02*
X162275000Y-102680000I0J150000D01*
G01*
G37*
G36*
G01*
X162275000Y-103950000D02*
X162275000Y-103650000D01*
G75*
G02*
X162425000Y-103500000I150000J0D01*
G01*
X164175000Y-103500000D01*
G75*
G02*
X164325000Y-103650000I0J-150000D01*
G01*
X164325000Y-103950000D01*
G75*
G02*
X164175000Y-104100000I-150000J0D01*
G01*
X162425000Y-104100000D01*
G75*
G02*
X162275000Y-103950000I0J150000D01*
G01*
G37*
G36*
G01*
X162275000Y-105220000D02*
X162275000Y-104920000D01*
G75*
G02*
X162425000Y-104770000I150000J0D01*
G01*
X164175000Y-104770000D01*
G75*
G02*
X164325000Y-104920000I0J-150000D01*
G01*
X164325000Y-105220000D01*
G75*
G02*
X164175000Y-105370000I-150000J0D01*
G01*
X162425000Y-105370000D01*
G75*
G02*
X162275000Y-105220000I0J150000D01*
G01*
G37*
G36*
G01*
X162275000Y-106490000D02*
X162275000Y-106190000D01*
G75*
G02*
X162425000Y-106040000I150000J0D01*
G01*
X164175000Y-106040000D01*
G75*
G02*
X164325000Y-106190000I0J-150000D01*
G01*
X164325000Y-106490000D01*
G75*
G02*
X164175000Y-106640000I-150000J0D01*
G01*
X162425000Y-106640000D01*
G75*
G02*
X162275000Y-106490000I0J150000D01*
G01*
G37*
G36*
G01*
X162275000Y-107760000D02*
X162275000Y-107460000D01*
G75*
G02*
X162425000Y-107310000I150000J0D01*
G01*
X164175000Y-107310000D01*
G75*
G02*
X164325000Y-107460000I0J-150000D01*
G01*
X164325000Y-107760000D01*
G75*
G02*
X164175000Y-107910000I-150000J0D01*
G01*
X162425000Y-107910000D01*
G75*
G02*
X162275000Y-107760000I0J150000D01*
G01*
G37*
G36*
G01*
X162275000Y-109030000D02*
X162275000Y-108730000D01*
G75*
G02*
X162425000Y-108580000I150000J0D01*
G01*
X164175000Y-108580000D01*
G75*
G02*
X164325000Y-108730000I0J-150000D01*
G01*
X164325000Y-109030000D01*
G75*
G02*
X164175000Y-109180000I-150000J0D01*
G01*
X162425000Y-109180000D01*
G75*
G02*
X162275000Y-109030000I0J150000D01*
G01*
G37*
G36*
G01*
X162275000Y-110300000D02*
X162275000Y-110000000D01*
G75*
G02*
X162425000Y-109850000I150000J0D01*
G01*
X164175000Y-109850000D01*
G75*
G02*
X164325000Y-110000000I0J-150000D01*
G01*
X164325000Y-110300000D01*
G75*
G02*
X164175000Y-110450000I-150000J0D01*
G01*
X162425000Y-110450000D01*
G75*
G02*
X162275000Y-110300000I0J150000D01*
G01*
G37*
%TD*%
%TO.C,C7*%
G36*
G01*
X158275000Y-103450000D02*
X157325000Y-103450000D01*
G75*
G02*
X157075000Y-103200000I0J250000D01*
G01*
X157075000Y-102525000D01*
G75*
G02*
X157325000Y-102275000I250000J0D01*
G01*
X158275000Y-102275000D01*
G75*
G02*
X158525000Y-102525000I0J-250000D01*
G01*
X158525000Y-103200000D01*
G75*
G02*
X158275000Y-103450000I-250000J0D01*
G01*
G37*
G36*
G01*
X158275000Y-105525000D02*
X157325000Y-105525000D01*
G75*
G02*
X157075000Y-105275000I0J250000D01*
G01*
X157075000Y-104600000D01*
G75*
G02*
X157325000Y-104350000I250000J0D01*
G01*
X158275000Y-104350000D01*
G75*
G02*
X158525000Y-104600000I0J-250000D01*
G01*
X158525000Y-105275000D01*
G75*
G02*
X158275000Y-105525000I-250000J0D01*
G01*
G37*
%TD*%
%TO.C,C6*%
G36*
G01*
X156275000Y-103450000D02*
X155325000Y-103450000D01*
G75*
G02*
X155075000Y-103200000I0J250000D01*
G01*
X155075000Y-102525000D01*
G75*
G02*
X155325000Y-102275000I250000J0D01*
G01*
X156275000Y-102275000D01*
G75*
G02*
X156525000Y-102525000I0J-250000D01*
G01*
X156525000Y-103200000D01*
G75*
G02*
X156275000Y-103450000I-250000J0D01*
G01*
G37*
G36*
G01*
X156275000Y-105525000D02*
X155325000Y-105525000D01*
G75*
G02*
X155075000Y-105275000I0J250000D01*
G01*
X155075000Y-104600000D01*
G75*
G02*
X155325000Y-104350000I250000J0D01*
G01*
X156275000Y-104350000D01*
G75*
G02*
X156525000Y-104600000I0J-250000D01*
G01*
X156525000Y-105275000D01*
G75*
G02*
X156275000Y-105525000I-250000J0D01*
G01*
G37*
%TD*%
%TO.C,R10*%
G36*
G01*
X160349999Y-75130000D02*
X161250001Y-75130000D01*
G75*
G02*
X161500000Y-75379999I0J-249999D01*
G01*
X161500000Y-76080001D01*
G75*
G02*
X161250001Y-76330000I-249999J0D01*
G01*
X160349999Y-76330000D01*
G75*
G02*
X160100000Y-76080001I0J249999D01*
G01*
X160100000Y-75379999D01*
G75*
G02*
X160349999Y-75130000I249999J0D01*
G01*
G37*
G36*
G01*
X160349999Y-73130000D02*
X161250001Y-73130000D01*
G75*
G02*
X161500000Y-73379999I0J-249999D01*
G01*
X161500000Y-74080001D01*
G75*
G02*
X161250001Y-74330000I-249999J0D01*
G01*
X160349999Y-74330000D01*
G75*
G02*
X160100000Y-74080001I0J249999D01*
G01*
X160100000Y-73379999D01*
G75*
G02*
X160349999Y-73130000I249999J0D01*
G01*
G37*
%TD*%
%TO.C,R9*%
G36*
G01*
X156920001Y-74310000D02*
X156019999Y-74310000D01*
G75*
G02*
X155770000Y-74060001I0J249999D01*
G01*
X155770000Y-73359999D01*
G75*
G02*
X156019999Y-73110000I249999J0D01*
G01*
X156920001Y-73110000D01*
G75*
G02*
X157170000Y-73359999I0J-249999D01*
G01*
X157170000Y-74060001D01*
G75*
G02*
X156920001Y-74310000I-249999J0D01*
G01*
G37*
G36*
G01*
X156920001Y-76310000D02*
X156019999Y-76310000D01*
G75*
G02*
X155770000Y-76060001I0J249999D01*
G01*
X155770000Y-75359999D01*
G75*
G02*
X156019999Y-75110000I249999J0D01*
G01*
X156920001Y-75110000D01*
G75*
G02*
X157170000Y-75359999I0J-249999D01*
G01*
X157170000Y-76060001D01*
G75*
G02*
X156920001Y-76310000I-249999J0D01*
G01*
G37*
%TD*%
%TO.C,R8*%
G36*
G01*
X170560000Y-94750001D02*
X170560000Y-93849999D01*
G75*
G02*
X170809999Y-93600000I249999J0D01*
G01*
X171510001Y-93600000D01*
G75*
G02*
X171760000Y-93849999I0J-249999D01*
G01*
X171760000Y-94750001D01*
G75*
G02*
X171510001Y-95000000I-249999J0D01*
G01*
X170809999Y-95000000D01*
G75*
G02*
X170560000Y-94750001I0J249999D01*
G01*
G37*
G36*
G01*
X168560000Y-94750001D02*
X168560000Y-93849999D01*
G75*
G02*
X168809999Y-93600000I249999J0D01*
G01*
X169510001Y-93600000D01*
G75*
G02*
X169760000Y-93849999I0J-249999D01*
G01*
X169760000Y-94750001D01*
G75*
G02*
X169510001Y-95000000I-249999J0D01*
G01*
X168809999Y-95000000D01*
G75*
G02*
X168560000Y-94750001I0J249999D01*
G01*
G37*
%TD*%
%TO.C,R7*%
G36*
G01*
X170580000Y-97010001D02*
X170580000Y-96109999D01*
G75*
G02*
X170829999Y-95860000I249999J0D01*
G01*
X171530001Y-95860000D01*
G75*
G02*
X171780000Y-96109999I0J-249999D01*
G01*
X171780000Y-97010001D01*
G75*
G02*
X171530001Y-97260000I-249999J0D01*
G01*
X170829999Y-97260000D01*
G75*
G02*
X170580000Y-97010001I0J249999D01*
G01*
G37*
G36*
G01*
X168580000Y-97010001D02*
X168580000Y-96109999D01*
G75*
G02*
X168829999Y-95860000I249999J0D01*
G01*
X169530001Y-95860000D01*
G75*
G02*
X169780000Y-96109999I0J-249999D01*
G01*
X169780000Y-97010001D01*
G75*
G02*
X169530001Y-97260000I-249999J0D01*
G01*
X168829999Y-97260000D01*
G75*
G02*
X168580000Y-97010001I0J249999D01*
G01*
G37*
%TD*%
M02*
