%TF.GenerationSoftware,KiCad,Pcbnew,(5.1.10)-1*%
%TF.CreationDate,2022-02-24T11:14:30+08:00*%
%TF.ProjectId,hat,6861742e-6b69-4636-9164-5f7063625858,rev?*%
%TF.SameCoordinates,Original*%
%TF.FileFunction,Paste,Bot*%
%TF.FilePolarity,Positive*%
%FSLAX46Y46*%
G04 Gerber Fmt 4.6, Leading zero omitted, Abs format (unit mm)*
G04 Created by KiCad (PCBNEW (5.1.10)-1) date 2022-02-24 11:14:30*
%MOMM*%
%LPD*%
G01*
G04 APERTURE LIST*
G04 APERTURE END LIST*
%TO.C,R10*%
G36*
G01*
X160349999Y-75130000D02*
X161250001Y-75130000D01*
G75*
G02*
X161500000Y-75379999I0J-249999D01*
G01*
X161500000Y-76080001D01*
G75*
G02*
X161250001Y-76330000I-249999J0D01*
G01*
X160349999Y-76330000D01*
G75*
G02*
X160100000Y-76080001I0J249999D01*
G01*
X160100000Y-75379999D01*
G75*
G02*
X160349999Y-75130000I249999J0D01*
G01*
G37*
G36*
G01*
X160349999Y-73130000D02*
X161250001Y-73130000D01*
G75*
G02*
X161500000Y-73379999I0J-249999D01*
G01*
X161500000Y-74080001D01*
G75*
G02*
X161250001Y-74330000I-249999J0D01*
G01*
X160349999Y-74330000D01*
G75*
G02*
X160100000Y-74080001I0J249999D01*
G01*
X160100000Y-73379999D01*
G75*
G02*
X160349999Y-73130000I249999J0D01*
G01*
G37*
%TD*%
%TO.C,R9*%
G36*
G01*
X156920001Y-74310000D02*
X156019999Y-74310000D01*
G75*
G02*
X155770000Y-74060001I0J249999D01*
G01*
X155770000Y-73359999D01*
G75*
G02*
X156019999Y-73110000I249999J0D01*
G01*
X156920001Y-73110000D01*
G75*
G02*
X157170000Y-73359999I0J-249999D01*
G01*
X157170000Y-74060001D01*
G75*
G02*
X156920001Y-74310000I-249999J0D01*
G01*
G37*
G36*
G01*
X156920001Y-76310000D02*
X156019999Y-76310000D01*
G75*
G02*
X155770000Y-76060001I0J249999D01*
G01*
X155770000Y-75359999D01*
G75*
G02*
X156019999Y-75110000I249999J0D01*
G01*
X156920001Y-75110000D01*
G75*
G02*
X157170000Y-75359999I0J-249999D01*
G01*
X157170000Y-76060001D01*
G75*
G02*
X156920001Y-76310000I-249999J0D01*
G01*
G37*
%TD*%
%TO.C,R8*%
G36*
G01*
X170560000Y-94750001D02*
X170560000Y-93849999D01*
G75*
G02*
X170809999Y-93600000I249999J0D01*
G01*
X171510001Y-93600000D01*
G75*
G02*
X171760000Y-93849999I0J-249999D01*
G01*
X171760000Y-94750001D01*
G75*
G02*
X171510001Y-95000000I-249999J0D01*
G01*
X170809999Y-95000000D01*
G75*
G02*
X170560000Y-94750001I0J249999D01*
G01*
G37*
G36*
G01*
X168560000Y-94750001D02*
X168560000Y-93849999D01*
G75*
G02*
X168809999Y-93600000I249999J0D01*
G01*
X169510001Y-93600000D01*
G75*
G02*
X169760000Y-93849999I0J-249999D01*
G01*
X169760000Y-94750001D01*
G75*
G02*
X169510001Y-95000000I-249999J0D01*
G01*
X168809999Y-95000000D01*
G75*
G02*
X168560000Y-94750001I0J249999D01*
G01*
G37*
%TD*%
%TO.C,R7*%
G36*
G01*
X170580000Y-97010001D02*
X170580000Y-96109999D01*
G75*
G02*
X170829999Y-95860000I249999J0D01*
G01*
X171530001Y-95860000D01*
G75*
G02*
X171780000Y-96109999I0J-249999D01*
G01*
X171780000Y-97010001D01*
G75*
G02*
X171530001Y-97260000I-249999J0D01*
G01*
X170829999Y-97260000D01*
G75*
G02*
X170580000Y-97010001I0J249999D01*
G01*
G37*
G36*
G01*
X168580000Y-97010001D02*
X168580000Y-96109999D01*
G75*
G02*
X168829999Y-95860000I249999J0D01*
G01*
X169530001Y-95860000D01*
G75*
G02*
X169780000Y-96109999I0J-249999D01*
G01*
X169780000Y-97010001D01*
G75*
G02*
X169530001Y-97260000I-249999J0D01*
G01*
X168829999Y-97260000D01*
G75*
G02*
X168580000Y-97010001I0J249999D01*
G01*
G37*
%TD*%
M02*
