%TF.GenerationSoftware,KiCad,Pcbnew,(5.1.10)-1*%
%TF.CreationDate,2022-02-24T11:14:30+08:00*%
%TF.ProjectId,hat,6861742e-6b69-4636-9164-5f7063625858,rev?*%
%TF.SameCoordinates,Original*%
%TF.FileFunction,Legend,Top*%
%TF.FilePolarity,Positive*%
%FSLAX46Y46*%
G04 Gerber Fmt 4.6, Leading zero omitted, Abs format (unit mm)*
G04 Created by KiCad (PCBNEW (5.1.10)-1) date 2022-02-24 11:14:30*
%MOMM*%
%LPD*%
G01*
G04 APERTURE LIST*
%ADD10C,0.150000*%
%ADD11C,0.120000*%
%ADD12C,0.160000*%
G04 APERTURE END LIST*
D10*
X150466666Y-112152380D02*
X150800000Y-113152380D01*
X151133333Y-112152380D01*
X152038095Y-113057142D02*
X151990476Y-113104761D01*
X151847619Y-113152380D01*
X151752380Y-113152380D01*
X151609523Y-113104761D01*
X151514285Y-113009523D01*
X151466666Y-112914285D01*
X151419047Y-112723809D01*
X151419047Y-112580952D01*
X151466666Y-112390476D01*
X151514285Y-112295238D01*
X151609523Y-112200000D01*
X151752380Y-112152380D01*
X151847619Y-112152380D01*
X151990476Y-112200000D01*
X152038095Y-112247619D01*
X153038095Y-113057142D02*
X152990476Y-113104761D01*
X152847619Y-113152380D01*
X152752380Y-113152380D01*
X152609523Y-113104761D01*
X152514285Y-113009523D01*
X152466666Y-112914285D01*
X152419047Y-112723809D01*
X152419047Y-112580952D01*
X152466666Y-112390476D01*
X152514285Y-112295238D01*
X152609523Y-112200000D01*
X152752380Y-112152380D01*
X152847619Y-112152380D01*
X152990476Y-112200000D01*
X153038095Y-112247619D01*
X125238095Y-74300000D02*
X125142857Y-74252380D01*
X125000000Y-74252380D01*
X124857142Y-74300000D01*
X124761904Y-74395238D01*
X124714285Y-74490476D01*
X124666666Y-74680952D01*
X124666666Y-74823809D01*
X124714285Y-75014285D01*
X124761904Y-75109523D01*
X124857142Y-75204761D01*
X125000000Y-75252380D01*
X125095238Y-75252380D01*
X125238095Y-75204761D01*
X125285714Y-75157142D01*
X125285714Y-74823809D01*
X125095238Y-74823809D01*
X125714285Y-75252380D02*
X125714285Y-74252380D01*
X126285714Y-75252380D01*
X126285714Y-74252380D01*
X126761904Y-75252380D02*
X126761904Y-74252380D01*
X127000000Y-74252380D01*
X127142857Y-74300000D01*
X127238095Y-74395238D01*
X127285714Y-74490476D01*
X127333333Y-74680952D01*
X127333333Y-74823809D01*
X127285714Y-75014285D01*
X127238095Y-75109523D01*
X127142857Y-75204761D01*
X127000000Y-75252380D01*
X126761904Y-75252380D01*
X178852380Y-98190476D02*
X178852380Y-98666666D01*
X179328571Y-98714285D01*
X179280952Y-98666666D01*
X179233333Y-98571428D01*
X179233333Y-98333333D01*
X179280952Y-98238095D01*
X179328571Y-98190476D01*
X179423809Y-98142857D01*
X179661904Y-98142857D01*
X179757142Y-98190476D01*
X179804761Y-98238095D01*
X179852380Y-98333333D01*
X179852380Y-98571428D01*
X179804761Y-98666666D01*
X179757142Y-98714285D01*
X178852380Y-97857142D02*
X179852380Y-97523809D01*
X178852380Y-97190476D01*
X152009523Y-109652380D02*
X151533333Y-109652380D01*
X151485714Y-110128571D01*
X151533333Y-110080952D01*
X151628571Y-110033333D01*
X151866666Y-110033333D01*
X151961904Y-110080952D01*
X152009523Y-110128571D01*
X152057142Y-110223809D01*
X152057142Y-110461904D01*
X152009523Y-110557142D01*
X151961904Y-110604761D01*
X151866666Y-110652380D01*
X151628571Y-110652380D01*
X151533333Y-110604761D01*
X151485714Y-110557142D01*
X152342857Y-109652380D02*
X152676190Y-110652380D01*
X153009523Y-109652380D01*
X150023809Y-114752380D02*
X150642857Y-114752380D01*
X150309523Y-115133333D01*
X150452380Y-115133333D01*
X150547619Y-115180952D01*
X150595238Y-115228571D01*
X150642857Y-115323809D01*
X150642857Y-115561904D01*
X150595238Y-115657142D01*
X150547619Y-115704761D01*
X150452380Y-115752380D01*
X150166666Y-115752380D01*
X150071428Y-115704761D01*
X150023809Y-115657142D01*
X151071428Y-115657142D02*
X151119047Y-115704761D01*
X151071428Y-115752380D01*
X151023809Y-115704761D01*
X151071428Y-115657142D01*
X151071428Y-115752380D01*
X151452380Y-114752380D02*
X152071428Y-114752380D01*
X151738095Y-115133333D01*
X151880952Y-115133333D01*
X151976190Y-115180952D01*
X152023809Y-115228571D01*
X152071428Y-115323809D01*
X152071428Y-115561904D01*
X152023809Y-115657142D01*
X151976190Y-115704761D01*
X151880952Y-115752380D01*
X151595238Y-115752380D01*
X151500000Y-115704761D01*
X151452380Y-115657142D01*
X152357142Y-114752380D02*
X152690476Y-115752380D01*
X153023809Y-114752380D01*
X139038095Y-117100000D02*
X138942857Y-117052380D01*
X138800000Y-117052380D01*
X138657142Y-117100000D01*
X138561904Y-117195238D01*
X138514285Y-117290476D01*
X138466666Y-117480952D01*
X138466666Y-117623809D01*
X138514285Y-117814285D01*
X138561904Y-117909523D01*
X138657142Y-118004761D01*
X138800000Y-118052380D01*
X138895238Y-118052380D01*
X139038095Y-118004761D01*
X139085714Y-117957142D01*
X139085714Y-117623809D01*
X138895238Y-117623809D01*
X139514285Y-118052380D02*
X139514285Y-117052380D01*
X140085714Y-118052380D01*
X140085714Y-117052380D01*
X140561904Y-118052380D02*
X140561904Y-117052380D01*
X140800000Y-117052380D01*
X140942857Y-117100000D01*
X141038095Y-117195238D01*
X141085714Y-117290476D01*
X141133333Y-117480952D01*
X141133333Y-117623809D01*
X141085714Y-117814285D01*
X141038095Y-117909523D01*
X140942857Y-118004761D01*
X140800000Y-118052380D01*
X140561904Y-118052380D01*
X183400000Y-96361904D02*
X183352380Y-96457142D01*
X183352380Y-96600000D01*
X183400000Y-96742857D01*
X183495238Y-96838095D01*
X183590476Y-96885714D01*
X183780952Y-96933333D01*
X183923809Y-96933333D01*
X184114285Y-96885714D01*
X184209523Y-96838095D01*
X184304761Y-96742857D01*
X184352380Y-96600000D01*
X184352380Y-96504761D01*
X184304761Y-96361904D01*
X184257142Y-96314285D01*
X183923809Y-96314285D01*
X183923809Y-96504761D01*
X184352380Y-95885714D02*
X183352380Y-95885714D01*
X184352380Y-95314285D01*
X183352380Y-95314285D01*
X184352380Y-94838095D02*
X183352380Y-94838095D01*
X183352380Y-94600000D01*
X183400000Y-94457142D01*
X183495238Y-94361904D01*
X183590476Y-94314285D01*
X183780952Y-94266666D01*
X183923809Y-94266666D01*
X184114285Y-94314285D01*
X184209523Y-94361904D01*
X184304761Y-94457142D01*
X184352380Y-94600000D01*
X184352380Y-94838095D01*
X179804761Y-83985714D02*
X179852380Y-83842857D01*
X179852380Y-83604761D01*
X179804761Y-83509523D01*
X179757142Y-83461904D01*
X179661904Y-83414285D01*
X179566666Y-83414285D01*
X179471428Y-83461904D01*
X179423809Y-83509523D01*
X179376190Y-83604761D01*
X179328571Y-83795238D01*
X179280952Y-83890476D01*
X179233333Y-83938095D01*
X179138095Y-83985714D01*
X179042857Y-83985714D01*
X178947619Y-83938095D01*
X178900000Y-83890476D01*
X178852380Y-83795238D01*
X178852380Y-83557142D01*
X178900000Y-83414285D01*
X179757142Y-82414285D02*
X179804761Y-82461904D01*
X179852380Y-82604761D01*
X179852380Y-82700000D01*
X179804761Y-82842857D01*
X179709523Y-82938095D01*
X179614285Y-82985714D01*
X179423809Y-83033333D01*
X179280952Y-83033333D01*
X179090476Y-82985714D01*
X178995238Y-82938095D01*
X178900000Y-82842857D01*
X178852380Y-82700000D01*
X178852380Y-82604761D01*
X178900000Y-82461904D01*
X178947619Y-82414285D01*
X179852380Y-81985714D02*
X178852380Y-81985714D01*
X179852380Y-81414285D02*
X179280952Y-81842857D01*
X178852380Y-81414285D02*
X179423809Y-81985714D01*
X184052380Y-86971428D02*
X183052380Y-86971428D01*
X183766666Y-86638095D01*
X183052380Y-86304761D01*
X184052380Y-86304761D01*
X183052380Y-85638095D02*
X183052380Y-85447619D01*
X183100000Y-85352380D01*
X183195238Y-85257142D01*
X183385714Y-85209523D01*
X183719047Y-85209523D01*
X183909523Y-85257142D01*
X184004761Y-85352380D01*
X184052380Y-85447619D01*
X184052380Y-85638095D01*
X184004761Y-85733333D01*
X183909523Y-85828571D01*
X183719047Y-85876190D01*
X183385714Y-85876190D01*
X183195238Y-85828571D01*
X183100000Y-85733333D01*
X183052380Y-85638095D01*
X184004761Y-84828571D02*
X184052380Y-84685714D01*
X184052380Y-84447619D01*
X184004761Y-84352380D01*
X183957142Y-84304761D01*
X183861904Y-84257142D01*
X183766666Y-84257142D01*
X183671428Y-84304761D01*
X183623809Y-84352380D01*
X183576190Y-84447619D01*
X183528571Y-84638095D01*
X183480952Y-84733333D01*
X183433333Y-84780952D01*
X183338095Y-84828571D01*
X183242857Y-84828571D01*
X183147619Y-84780952D01*
X183100000Y-84733333D01*
X183052380Y-84638095D01*
X183052380Y-84400000D01*
X183100000Y-84257142D01*
X184052380Y-83828571D02*
X183052380Y-83828571D01*
X179852380Y-89171428D02*
X178852380Y-89171428D01*
X179566666Y-88838095D01*
X178852380Y-88504761D01*
X179852380Y-88504761D01*
X179852380Y-88028571D02*
X178852380Y-88028571D01*
X179804761Y-87600000D02*
X179852380Y-87457142D01*
X179852380Y-87219047D01*
X179804761Y-87123809D01*
X179757142Y-87076190D01*
X179661904Y-87028571D01*
X179566666Y-87028571D01*
X179471428Y-87076190D01*
X179423809Y-87123809D01*
X179376190Y-87219047D01*
X179328571Y-87409523D01*
X179280952Y-87504761D01*
X179233333Y-87552380D01*
X179138095Y-87600000D01*
X179042857Y-87600000D01*
X178947619Y-87552380D01*
X178900000Y-87504761D01*
X178852380Y-87409523D01*
X178852380Y-87171428D01*
X178900000Y-87028571D01*
X178852380Y-86409523D02*
X178852380Y-86219047D01*
X178900000Y-86123809D01*
X178995238Y-86028571D01*
X179185714Y-85980952D01*
X179519047Y-85980952D01*
X179709523Y-86028571D01*
X179804761Y-86123809D01*
X179852380Y-86219047D01*
X179852380Y-86409523D01*
X179804761Y-86504761D01*
X179709523Y-86600000D01*
X179519047Y-86647619D01*
X179185714Y-86647619D01*
X178995238Y-86600000D01*
X178900000Y-86504761D01*
X178852380Y-86409523D01*
X184052380Y-90947619D02*
X183576190Y-91280952D01*
X184052380Y-91519047D02*
X183052380Y-91519047D01*
X183052380Y-91138095D01*
X183100000Y-91042857D01*
X183147619Y-90995238D01*
X183242857Y-90947619D01*
X183385714Y-90947619D01*
X183480952Y-90995238D01*
X183528571Y-91042857D01*
X183576190Y-91138095D01*
X183576190Y-91519047D01*
X184004761Y-90566666D02*
X184052380Y-90423809D01*
X184052380Y-90185714D01*
X184004761Y-90090476D01*
X183957142Y-90042857D01*
X183861904Y-89995238D01*
X183766666Y-89995238D01*
X183671428Y-90042857D01*
X183623809Y-90090476D01*
X183576190Y-90185714D01*
X183528571Y-90376190D01*
X183480952Y-90471428D01*
X183433333Y-90519047D01*
X183338095Y-90566666D01*
X183242857Y-90566666D01*
X183147619Y-90519047D01*
X183100000Y-90471428D01*
X183052380Y-90376190D01*
X183052380Y-90138095D01*
X183100000Y-89995238D01*
X183052380Y-89709523D02*
X183052380Y-89138095D01*
X184052380Y-89423809D02*
X183052380Y-89423809D01*
X179757142Y-92966666D02*
X179804761Y-93014285D01*
X179852380Y-93157142D01*
X179852380Y-93252380D01*
X179804761Y-93395238D01*
X179709523Y-93490476D01*
X179614285Y-93538095D01*
X179423809Y-93585714D01*
X179280952Y-93585714D01*
X179090476Y-93538095D01*
X178995238Y-93490476D01*
X178900000Y-93395238D01*
X178852380Y-93252380D01*
X178852380Y-93157142D01*
X178900000Y-93014285D01*
X178947619Y-92966666D01*
X179804761Y-92585714D02*
X179852380Y-92442857D01*
X179852380Y-92204761D01*
X179804761Y-92109523D01*
X179757142Y-92061904D01*
X179661904Y-92014285D01*
X179566666Y-92014285D01*
X179471428Y-92061904D01*
X179423809Y-92109523D01*
X179376190Y-92204761D01*
X179328571Y-92395238D01*
X179280952Y-92490476D01*
X179233333Y-92538095D01*
X179138095Y-92585714D01*
X179042857Y-92585714D01*
X178947619Y-92538095D01*
X178900000Y-92490476D01*
X178852380Y-92395238D01*
X178852380Y-92157142D01*
X178900000Y-92014285D01*
X171028571Y-81323809D02*
X171142857Y-81361904D01*
X171333333Y-81361904D01*
X171409523Y-81323809D01*
X171447619Y-81285714D01*
X171485714Y-81209523D01*
X171485714Y-81133333D01*
X171447619Y-81057142D01*
X171409523Y-81019047D01*
X171333333Y-80980952D01*
X171180952Y-80942857D01*
X171104761Y-80904761D01*
X171066666Y-80866666D01*
X171028571Y-80790476D01*
X171028571Y-80714285D01*
X171066666Y-80638095D01*
X171104761Y-80600000D01*
X171180952Y-80561904D01*
X171371428Y-80561904D01*
X171485714Y-80600000D01*
X171828571Y-81361904D02*
X171828571Y-80561904D01*
X172019047Y-80561904D01*
X172133333Y-80600000D01*
X172209523Y-80676190D01*
X172247619Y-80752380D01*
X172285714Y-80904761D01*
X172285714Y-81019047D01*
X172247619Y-81171428D01*
X172209523Y-81247619D01*
X172133333Y-81323809D01*
X172019047Y-81361904D01*
X171828571Y-81361904D01*
X172590476Y-81133333D02*
X172971428Y-81133333D01*
X172514285Y-81361904D02*
X172780952Y-80561904D01*
X173047619Y-81361904D01*
X168347619Y-81323809D02*
X168461904Y-81361904D01*
X168652380Y-81361904D01*
X168728571Y-81323809D01*
X168766666Y-81285714D01*
X168804761Y-81209523D01*
X168804761Y-81133333D01*
X168766666Y-81057142D01*
X168728571Y-81019047D01*
X168652380Y-80980952D01*
X168500000Y-80942857D01*
X168423809Y-80904761D01*
X168385714Y-80866666D01*
X168347619Y-80790476D01*
X168347619Y-80714285D01*
X168385714Y-80638095D01*
X168423809Y-80600000D01*
X168500000Y-80561904D01*
X168690476Y-80561904D01*
X168804761Y-80600000D01*
X169604761Y-81285714D02*
X169566666Y-81323809D01*
X169452380Y-81361904D01*
X169376190Y-81361904D01*
X169261904Y-81323809D01*
X169185714Y-81247619D01*
X169147619Y-81171428D01*
X169109523Y-81019047D01*
X169109523Y-80904761D01*
X169147619Y-80752380D01*
X169185714Y-80676190D01*
X169261904Y-80600000D01*
X169376190Y-80561904D01*
X169452380Y-80561904D01*
X169566666Y-80600000D01*
X169604761Y-80638095D01*
X170328571Y-81361904D02*
X169947619Y-81361904D01*
X169947619Y-80561904D01*
X166361904Y-81052380D02*
X166361904Y-81433333D01*
X166742857Y-81471428D01*
X166704761Y-81433333D01*
X166666666Y-81357142D01*
X166666666Y-81166666D01*
X166704761Y-81090476D01*
X166742857Y-81052380D01*
X166819047Y-81014285D01*
X167009523Y-81014285D01*
X167085714Y-81052380D01*
X167123809Y-81090476D01*
X167161904Y-81166666D01*
X167161904Y-81357142D01*
X167123809Y-81433333D01*
X167085714Y-81471428D01*
X166361904Y-80785714D02*
X167161904Y-80519047D01*
X166361904Y-80252380D01*
X163800000Y-81309523D02*
X163761904Y-81385714D01*
X163761904Y-81500000D01*
X163800000Y-81614285D01*
X163876190Y-81690476D01*
X163952380Y-81728571D01*
X164104761Y-81766666D01*
X164219047Y-81766666D01*
X164371428Y-81728571D01*
X164447619Y-81690476D01*
X164523809Y-81614285D01*
X164561904Y-81500000D01*
X164561904Y-81423809D01*
X164523809Y-81309523D01*
X164485714Y-81271428D01*
X164219047Y-81271428D01*
X164219047Y-81423809D01*
X164561904Y-80928571D02*
X163761904Y-80928571D01*
X164561904Y-80471428D01*
X163761904Y-80471428D01*
X164561904Y-80090476D02*
X163761904Y-80090476D01*
X163761904Y-79900000D01*
X163800000Y-79785714D01*
X163876190Y-79709523D01*
X163952380Y-79671428D01*
X164104761Y-79633333D01*
X164219047Y-79633333D01*
X164371428Y-79671428D01*
X164447619Y-79709523D01*
X164523809Y-79785714D01*
X164561904Y-79900000D01*
X164561904Y-80090476D01*
X125161904Y-106552380D02*
X125161904Y-105552380D01*
X125400000Y-105552380D01*
X125542857Y-105600000D01*
X125638095Y-105695238D01*
X125685714Y-105790476D01*
X125733333Y-105980952D01*
X125733333Y-106123809D01*
X125685714Y-106314285D01*
X125638095Y-106409523D01*
X125542857Y-106504761D01*
X125400000Y-106552380D01*
X125161904Y-106552380D01*
X126685714Y-106552380D02*
X126114285Y-106552380D01*
X126400000Y-106552380D02*
X126400000Y-105552380D01*
X126304761Y-105695238D01*
X126209523Y-105790476D01*
X126114285Y-105838095D01*
X125161904Y-103952380D02*
X125161904Y-102952380D01*
X125400000Y-102952380D01*
X125542857Y-103000000D01*
X125638095Y-103095238D01*
X125685714Y-103190476D01*
X125733333Y-103380952D01*
X125733333Y-103523809D01*
X125685714Y-103714285D01*
X125638095Y-103809523D01*
X125542857Y-103904761D01*
X125400000Y-103952380D01*
X125161904Y-103952380D01*
X126114285Y-103047619D02*
X126161904Y-103000000D01*
X126257142Y-102952380D01*
X126495238Y-102952380D01*
X126590476Y-103000000D01*
X126638095Y-103047619D01*
X126685714Y-103142857D01*
X126685714Y-103238095D01*
X126638095Y-103380952D01*
X126066666Y-103952380D01*
X126685714Y-103952380D01*
X125161904Y-101452380D02*
X125161904Y-100452380D01*
X125400000Y-100452380D01*
X125542857Y-100500000D01*
X125638095Y-100595238D01*
X125685714Y-100690476D01*
X125733333Y-100880952D01*
X125733333Y-101023809D01*
X125685714Y-101214285D01*
X125638095Y-101309523D01*
X125542857Y-101404761D01*
X125400000Y-101452380D01*
X125161904Y-101452380D01*
X126066666Y-100452380D02*
X126685714Y-100452380D01*
X126352380Y-100833333D01*
X126495238Y-100833333D01*
X126590476Y-100880952D01*
X126638095Y-100928571D01*
X126685714Y-101023809D01*
X126685714Y-101261904D01*
X126638095Y-101357142D01*
X126590476Y-101404761D01*
X126495238Y-101452380D01*
X126209523Y-101452380D01*
X126114285Y-101404761D01*
X126066666Y-101357142D01*
X125161904Y-98852380D02*
X125161904Y-97852380D01*
X125400000Y-97852380D01*
X125542857Y-97900000D01*
X125638095Y-97995238D01*
X125685714Y-98090476D01*
X125733333Y-98280952D01*
X125733333Y-98423809D01*
X125685714Y-98614285D01*
X125638095Y-98709523D01*
X125542857Y-98804761D01*
X125400000Y-98852380D01*
X125161904Y-98852380D01*
X126590476Y-98185714D02*
X126590476Y-98852380D01*
X126352380Y-97804761D02*
X126114285Y-98519047D01*
X126733333Y-98519047D01*
X125161904Y-96352380D02*
X125161904Y-95352380D01*
X125400000Y-95352380D01*
X125542857Y-95400000D01*
X125638095Y-95495238D01*
X125685714Y-95590476D01*
X125733333Y-95780952D01*
X125733333Y-95923809D01*
X125685714Y-96114285D01*
X125638095Y-96209523D01*
X125542857Y-96304761D01*
X125400000Y-96352380D01*
X125161904Y-96352380D01*
X126638095Y-95352380D02*
X126161904Y-95352380D01*
X126114285Y-95828571D01*
X126161904Y-95780952D01*
X126257142Y-95733333D01*
X126495238Y-95733333D01*
X126590476Y-95780952D01*
X126638095Y-95828571D01*
X126685714Y-95923809D01*
X126685714Y-96161904D01*
X126638095Y-96257142D01*
X126590476Y-96304761D01*
X126495238Y-96352380D01*
X126257142Y-96352380D01*
X126161904Y-96304761D01*
X126114285Y-96257142D01*
X155009523Y-105752380D02*
X154533333Y-105752380D01*
X154485714Y-106228571D01*
X154533333Y-106180952D01*
X154628571Y-106133333D01*
X154866666Y-106133333D01*
X154961904Y-106180952D01*
X155009523Y-106228571D01*
X155057142Y-106323809D01*
X155057142Y-106561904D01*
X155009523Y-106657142D01*
X154961904Y-106704761D01*
X154866666Y-106752380D01*
X154628571Y-106752380D01*
X154533333Y-106704761D01*
X154485714Y-106657142D01*
X155342857Y-105752380D02*
X155676190Y-106752380D01*
X156009523Y-105752380D01*
X155038095Y-103200000D02*
X154942857Y-103152380D01*
X154800000Y-103152380D01*
X154657142Y-103200000D01*
X154561904Y-103295238D01*
X154514285Y-103390476D01*
X154466666Y-103580952D01*
X154466666Y-103723809D01*
X154514285Y-103914285D01*
X154561904Y-104009523D01*
X154657142Y-104104761D01*
X154800000Y-104152380D01*
X154895238Y-104152380D01*
X155038095Y-104104761D01*
X155085714Y-104057142D01*
X155085714Y-103723809D01*
X154895238Y-103723809D01*
X155514285Y-104152380D02*
X155514285Y-103152380D01*
X156085714Y-104152380D01*
X156085714Y-103152380D01*
X156561904Y-104152380D02*
X156561904Y-103152380D01*
X156800000Y-103152380D01*
X156942857Y-103200000D01*
X157038095Y-103295238D01*
X157085714Y-103390476D01*
X157133333Y-103580952D01*
X157133333Y-103723809D01*
X157085714Y-103914285D01*
X157038095Y-104009523D01*
X156942857Y-104104761D01*
X156800000Y-104152380D01*
X156561904Y-104152380D01*
X154461904Y-101552380D02*
X154461904Y-100552380D01*
X154700000Y-100552380D01*
X154842857Y-100600000D01*
X154938095Y-100695238D01*
X154985714Y-100790476D01*
X155033333Y-100980952D01*
X155033333Y-101123809D01*
X154985714Y-101314285D01*
X154938095Y-101409523D01*
X154842857Y-101504761D01*
X154700000Y-101552380D01*
X154461904Y-101552380D01*
X155652380Y-100552380D02*
X155747619Y-100552380D01*
X155842857Y-100600000D01*
X155890476Y-100647619D01*
X155938095Y-100742857D01*
X155985714Y-100933333D01*
X155985714Y-101171428D01*
X155938095Y-101361904D01*
X155890476Y-101457142D01*
X155842857Y-101504761D01*
X155747619Y-101552380D01*
X155652380Y-101552380D01*
X155557142Y-101504761D01*
X155509523Y-101457142D01*
X155461904Y-101361904D01*
X155414285Y-101171428D01*
X155414285Y-100933333D01*
X155461904Y-100742857D01*
X155509523Y-100647619D01*
X155557142Y-100600000D01*
X155652380Y-100552380D01*
X154514285Y-99004761D02*
X154657142Y-99052380D01*
X154895238Y-99052380D01*
X154990476Y-99004761D01*
X155038095Y-98957142D01*
X155085714Y-98861904D01*
X155085714Y-98766666D01*
X155038095Y-98671428D01*
X154990476Y-98623809D01*
X154895238Y-98576190D01*
X154704761Y-98528571D01*
X154609523Y-98480952D01*
X154561904Y-98433333D01*
X154514285Y-98338095D01*
X154514285Y-98242857D01*
X154561904Y-98147619D01*
X154609523Y-98100000D01*
X154704761Y-98052380D01*
X154942857Y-98052380D01*
X155085714Y-98100000D01*
X156085714Y-98957142D02*
X156038095Y-99004761D01*
X155895238Y-99052380D01*
X155800000Y-99052380D01*
X155657142Y-99004761D01*
X155561904Y-98909523D01*
X155514285Y-98814285D01*
X155466666Y-98623809D01*
X155466666Y-98480952D01*
X155514285Y-98290476D01*
X155561904Y-98195238D01*
X155657142Y-98100000D01*
X155800000Y-98052380D01*
X155895238Y-98052380D01*
X156038095Y-98100000D01*
X156085714Y-98147619D01*
X156514285Y-99052380D02*
X156514285Y-98052380D01*
X157085714Y-99052380D02*
X156657142Y-98480952D01*
X157085714Y-98052380D02*
X156514285Y-98623809D01*
X154428571Y-96452380D02*
X154428571Y-95452380D01*
X154761904Y-96166666D01*
X155095238Y-95452380D01*
X155095238Y-96452380D01*
X155571428Y-96452380D02*
X155571428Y-95452380D01*
X156000000Y-96404761D02*
X156142857Y-96452380D01*
X156380952Y-96452380D01*
X156476190Y-96404761D01*
X156523809Y-96357142D01*
X156571428Y-96261904D01*
X156571428Y-96166666D01*
X156523809Y-96071428D01*
X156476190Y-96023809D01*
X156380952Y-95976190D01*
X156190476Y-95928571D01*
X156095238Y-95880952D01*
X156047619Y-95833333D01*
X156000000Y-95738095D01*
X156000000Y-95642857D01*
X156047619Y-95547619D01*
X156095238Y-95500000D01*
X156190476Y-95452380D01*
X156428571Y-95452380D01*
X156571428Y-95500000D01*
X157190476Y-95452380D02*
X157380952Y-95452380D01*
X157476190Y-95500000D01*
X157571428Y-95595238D01*
X157619047Y-95785714D01*
X157619047Y-96119047D01*
X157571428Y-96309523D01*
X157476190Y-96404761D01*
X157380952Y-96452380D01*
X157190476Y-96452380D01*
X157095238Y-96404761D01*
X157000000Y-96309523D01*
X156952380Y-96119047D01*
X156952380Y-95785714D01*
X157000000Y-95595238D01*
X157095238Y-95500000D01*
X157190476Y-95452380D01*
X154428571Y-93952380D02*
X154428571Y-92952380D01*
X154761904Y-93666666D01*
X155095238Y-92952380D01*
X155095238Y-93952380D01*
X155761904Y-92952380D02*
X155952380Y-92952380D01*
X156047619Y-93000000D01*
X156142857Y-93095238D01*
X156190476Y-93285714D01*
X156190476Y-93619047D01*
X156142857Y-93809523D01*
X156047619Y-93904761D01*
X155952380Y-93952380D01*
X155761904Y-93952380D01*
X155666666Y-93904761D01*
X155571428Y-93809523D01*
X155523809Y-93619047D01*
X155523809Y-93285714D01*
X155571428Y-93095238D01*
X155666666Y-93000000D01*
X155761904Y-92952380D01*
X156571428Y-93904761D02*
X156714285Y-93952380D01*
X156952380Y-93952380D01*
X157047619Y-93904761D01*
X157095238Y-93857142D01*
X157142857Y-93761904D01*
X157142857Y-93666666D01*
X157095238Y-93571428D01*
X157047619Y-93523809D01*
X156952380Y-93476190D01*
X156761904Y-93428571D01*
X156666666Y-93380952D01*
X156619047Y-93333333D01*
X156571428Y-93238095D01*
X156571428Y-93142857D01*
X156619047Y-93047619D01*
X156666666Y-93000000D01*
X156761904Y-92952380D01*
X157000000Y-92952380D01*
X157142857Y-93000000D01*
X157571428Y-93952380D02*
X157571428Y-92952380D01*
X155133333Y-91357142D02*
X155085714Y-91404761D01*
X154942857Y-91452380D01*
X154847619Y-91452380D01*
X154704761Y-91404761D01*
X154609523Y-91309523D01*
X154561904Y-91214285D01*
X154514285Y-91023809D01*
X154514285Y-90880952D01*
X154561904Y-90690476D01*
X154609523Y-90595238D01*
X154704761Y-90500000D01*
X154847619Y-90452380D01*
X154942857Y-90452380D01*
X155085714Y-90500000D01*
X155133333Y-90547619D01*
X155514285Y-91404761D02*
X155657142Y-91452380D01*
X155895238Y-91452380D01*
X155990476Y-91404761D01*
X156038095Y-91357142D01*
X156085714Y-91261904D01*
X156085714Y-91166666D01*
X156038095Y-91071428D01*
X155990476Y-91023809D01*
X155895238Y-90976190D01*
X155704761Y-90928571D01*
X155609523Y-90880952D01*
X155561904Y-90833333D01*
X155514285Y-90738095D01*
X155514285Y-90642857D01*
X155561904Y-90547619D01*
X155609523Y-90500000D01*
X155704761Y-90452380D01*
X155942857Y-90452380D01*
X156085714Y-90500000D01*
X155052380Y-88852380D02*
X154719047Y-88376190D01*
X154480952Y-88852380D02*
X154480952Y-87852380D01*
X154861904Y-87852380D01*
X154957142Y-87900000D01*
X155004761Y-87947619D01*
X155052380Y-88042857D01*
X155052380Y-88185714D01*
X155004761Y-88280952D01*
X154957142Y-88328571D01*
X154861904Y-88376190D01*
X154480952Y-88376190D01*
X155433333Y-88804761D02*
X155576190Y-88852380D01*
X155814285Y-88852380D01*
X155909523Y-88804761D01*
X155957142Y-88757142D01*
X156004761Y-88661904D01*
X156004761Y-88566666D01*
X155957142Y-88471428D01*
X155909523Y-88423809D01*
X155814285Y-88376190D01*
X155623809Y-88328571D01*
X155528571Y-88280952D01*
X155480952Y-88233333D01*
X155433333Y-88138095D01*
X155433333Y-88042857D01*
X155480952Y-87947619D01*
X155528571Y-87900000D01*
X155623809Y-87852380D01*
X155861904Y-87852380D01*
X156004761Y-87900000D01*
X156290476Y-87852380D02*
X156861904Y-87852380D01*
X156576190Y-88852380D02*
X156576190Y-87852380D01*
X125809523Y-76952380D02*
X125333333Y-76952380D01*
X125285714Y-77428571D01*
X125333333Y-77380952D01*
X125428571Y-77333333D01*
X125666666Y-77333333D01*
X125761904Y-77380952D01*
X125809523Y-77428571D01*
X125857142Y-77523809D01*
X125857142Y-77761904D01*
X125809523Y-77857142D01*
X125761904Y-77904761D01*
X125666666Y-77952380D01*
X125428571Y-77952380D01*
X125333333Y-77904761D01*
X125285714Y-77857142D01*
X126142857Y-76952380D02*
X126476190Y-77952380D01*
X126809523Y-76952380D01*
X138523809Y-114552380D02*
X139142857Y-114552380D01*
X138809523Y-114933333D01*
X138952380Y-114933333D01*
X139047619Y-114980952D01*
X139095238Y-115028571D01*
X139142857Y-115123809D01*
X139142857Y-115361904D01*
X139095238Y-115457142D01*
X139047619Y-115504761D01*
X138952380Y-115552380D01*
X138666666Y-115552380D01*
X138571428Y-115504761D01*
X138523809Y-115457142D01*
X139571428Y-115457142D02*
X139619047Y-115504761D01*
X139571428Y-115552380D01*
X139523809Y-115504761D01*
X139571428Y-115457142D01*
X139571428Y-115552380D01*
X139952380Y-114552380D02*
X140571428Y-114552380D01*
X140238095Y-114933333D01*
X140380952Y-114933333D01*
X140476190Y-114980952D01*
X140523809Y-115028571D01*
X140571428Y-115123809D01*
X140571428Y-115361904D01*
X140523809Y-115457142D01*
X140476190Y-115504761D01*
X140380952Y-115552380D01*
X140095238Y-115552380D01*
X140000000Y-115504761D01*
X139952380Y-115457142D01*
X140857142Y-114552380D02*
X141190476Y-115552380D01*
X141523809Y-114552380D01*
X171809523Y-115152380D02*
X171476190Y-114676190D01*
X171238095Y-115152380D02*
X171238095Y-114152380D01*
X171619047Y-114152380D01*
X171714285Y-114200000D01*
X171761904Y-114247619D01*
X171809523Y-114342857D01*
X171809523Y-114485714D01*
X171761904Y-114580952D01*
X171714285Y-114628571D01*
X171619047Y-114676190D01*
X171238095Y-114676190D01*
X172190476Y-114866666D02*
X172666666Y-114866666D01*
X172095238Y-115152380D02*
X172428571Y-114152380D01*
X172761904Y-115152380D01*
X173000000Y-114152380D02*
X173238095Y-115152380D01*
X173428571Y-114438095D01*
X173619047Y-115152380D01*
X173857142Y-114152380D01*
D11*
%TO.C,SPI_PORT1*%
X182800000Y-81470000D02*
X180140000Y-81470000D01*
X182800000Y-96770000D02*
X182800000Y-81470000D01*
X180140000Y-96770000D02*
X180140000Y-81470000D01*
X182800000Y-96770000D02*
X180140000Y-96770000D01*
X182800000Y-98040000D02*
X182800000Y-99370000D01*
X182800000Y-99370000D02*
X181470000Y-99370000D01*
%TO.C,J3*%
X153570000Y-116610000D02*
X156230000Y-116610000D01*
X153570000Y-111470000D02*
X153570000Y-116610000D01*
X156230000Y-111470000D02*
X156230000Y-116610000D01*
X153570000Y-111470000D02*
X156230000Y-111470000D01*
X153570000Y-110200000D02*
X153570000Y-108870000D01*
X153570000Y-108870000D02*
X154900000Y-108870000D01*
%TO.C,J4*%
X124670000Y-94570000D02*
X122010000Y-94570000D01*
X124670000Y-104790000D02*
X124670000Y-94570000D01*
X122010000Y-104790000D02*
X122010000Y-94570000D01*
X124670000Y-104790000D02*
X122010000Y-104790000D01*
X124670000Y-106060000D02*
X124670000Y-107390000D01*
X124670000Y-107390000D02*
X123340000Y-107390000D01*
%TO.C,U5*%
X142180000Y-80000000D02*
X143980000Y-80000000D01*
X143980000Y-76780000D02*
X141530000Y-76780000D01*
D10*
%TO.C,U4*%
X176740000Y-115900000D02*
X176740000Y-85420000D01*
X176740000Y-115900000D02*
X171660000Y-115900000D01*
X171660000Y-115900000D02*
X171660000Y-118440000D01*
X171660000Y-118440000D02*
X164040000Y-118440000D01*
X164040000Y-118440000D02*
X164040000Y-115900000D01*
X164040000Y-115900000D02*
X158960000Y-115900000D01*
X158960000Y-115900000D02*
X158960000Y-85420000D01*
X158960000Y-85420000D02*
X176740000Y-85420000D01*
D11*
%TO.C,U3*%
X145900000Y-101055000D02*
X145900000Y-110745000D01*
X136700000Y-101055000D02*
X145900000Y-101055000D01*
X136700000Y-111545000D02*
X136700000Y-101055000D01*
X145100000Y-111545000D02*
X136700000Y-111545000D01*
X145900000Y-110745000D02*
X145100000Y-111545000D01*
%TO.C,U2*%
X124270000Y-85910000D02*
X124670000Y-85510000D01*
X124670000Y-85510000D02*
X124670000Y-83210000D01*
X124670000Y-83210000D02*
X121770000Y-83210000D01*
X121770000Y-83210000D02*
X121770000Y-85910000D01*
X121770000Y-85910000D02*
X124170000Y-85910000D01*
X124170000Y-85910000D02*
X124270000Y-85910000D01*
D12*
%TO.C,U1*%
X146430000Y-99540000D02*
X146430000Y-83540000D01*
X146430000Y-83540000D02*
X130430000Y-83540000D01*
X130430000Y-83540000D02*
X130430000Y-99540000D01*
X130430000Y-99540000D02*
X146430000Y-99540000D01*
D11*
%TO.C,SW1*%
X177510000Y-104215000D02*
X177540000Y-104215000D01*
X183970000Y-104215000D02*
X183940000Y-104215000D01*
X183970000Y-110675000D02*
X183940000Y-110675000D01*
X177540000Y-110675000D02*
X177510000Y-110675000D01*
X179440000Y-104215000D02*
X182040000Y-104215000D01*
X177510000Y-110675000D02*
X177510000Y-104215000D01*
X179440000Y-110675000D02*
X182040000Y-110675000D01*
X183970000Y-110675000D02*
X183970000Y-104215000D01*
%TO.C,SDA_PU1*%
X165730000Y-73650000D02*
X165730000Y-76310000D01*
X170870000Y-73650000D02*
X165730000Y-73650000D01*
X170870000Y-76310000D02*
X165730000Y-76310000D01*
X170870000Y-73650000D02*
X170870000Y-76310000D01*
X172140000Y-73650000D02*
X173470000Y-73650000D01*
X173470000Y-73650000D02*
X173470000Y-74980000D01*
%TO.C,SCL_PU1*%
X165740000Y-77260000D02*
X165740000Y-79920000D01*
X170880000Y-77260000D02*
X165740000Y-77260000D01*
X170880000Y-79920000D02*
X165740000Y-79920000D01*
X170880000Y-77260000D02*
X170880000Y-79920000D01*
X172150000Y-77260000D02*
X173480000Y-77260000D01*
X173480000Y-77260000D02*
X173480000Y-78590000D01*
%TO.C,R6*%
X176567064Y-79315000D02*
X176112936Y-79315000D01*
X176567064Y-77845000D02*
X176112936Y-77845000D01*
%TO.C,R5*%
X176557064Y-75745000D02*
X176102936Y-75745000D01*
X176557064Y-74275000D02*
X176102936Y-74275000D01*
%TO.C,R4*%
X153377064Y-80505000D02*
X152922936Y-80505000D01*
X153377064Y-79035000D02*
X152922936Y-79035000D01*
%TO.C,R3*%
X157122936Y-79035000D02*
X157577064Y-79035000D01*
X157122936Y-80505000D02*
X157577064Y-80505000D01*
%TO.C,R2*%
X153367064Y-74395000D02*
X152912936Y-74395000D01*
X153367064Y-72925000D02*
X152912936Y-72925000D01*
%TO.C,R1*%
X157567064Y-74395000D02*
X157112936Y-74395000D01*
X157567064Y-72925000D02*
X157112936Y-72925000D01*
%TO.C,Q2*%
X151660000Y-77380000D02*
X152590000Y-77380000D01*
X154820000Y-77380000D02*
X153890000Y-77380000D01*
X154820000Y-77380000D02*
X154820000Y-75220000D01*
X151660000Y-77380000D02*
X151660000Y-75920000D01*
%TO.C,Q1*%
X155660000Y-77380000D02*
X156590000Y-77380000D01*
X158820000Y-77380000D02*
X157890000Y-77380000D01*
X158820000Y-77380000D02*
X158820000Y-75220000D01*
X155660000Y-77380000D02*
X155660000Y-75920000D01*
%TO.C,J7*%
X130090000Y-113670000D02*
X130090000Y-118870000D01*
X135230000Y-113670000D02*
X130090000Y-113670000D01*
X137830000Y-118870000D02*
X130090000Y-118870000D01*
X135230000Y-113670000D02*
X135230000Y-116270000D01*
X135230000Y-116270000D02*
X137830000Y-116270000D01*
X137830000Y-116270000D02*
X137830000Y-118870000D01*
X136500000Y-113670000D02*
X137830000Y-113670000D01*
X137830000Y-113670000D02*
X137830000Y-115000000D01*
%TO.C,J6*%
X135430000Y-78640000D02*
X135430000Y-73440000D01*
X130290000Y-78640000D02*
X135430000Y-78640000D01*
X127690000Y-73440000D02*
X135430000Y-73440000D01*
X130290000Y-78640000D02*
X130290000Y-76040000D01*
X130290000Y-76040000D02*
X127690000Y-76040000D01*
X127690000Y-76040000D02*
X127690000Y-73440000D01*
X129020000Y-78640000D02*
X127690000Y-78640000D01*
X127690000Y-78640000D02*
X127690000Y-77310000D01*
%TO.C,J2*%
X126120000Y-85810000D02*
X128780000Y-85810000D01*
X126120000Y-85750000D02*
X126120000Y-85810000D01*
X128780000Y-85750000D02*
X128780000Y-85810000D01*
X126120000Y-85750000D02*
X128780000Y-85750000D01*
X126120000Y-84480000D02*
X126120000Y-83150000D01*
X126120000Y-83150000D02*
X127450000Y-83150000D01*
%TO.C,I2C_PORT1*%
X173180000Y-84490000D02*
X173180000Y-81830000D01*
X165500000Y-84490000D02*
X173180000Y-84490000D01*
X165500000Y-81830000D02*
X173180000Y-81830000D01*
X165500000Y-84490000D02*
X165500000Y-81830000D01*
X164230000Y-84490000D02*
X162900000Y-84490000D01*
X162900000Y-84490000D02*
X162900000Y-83160000D01*
%TO.C,FAN1*%
X121710000Y-78640000D02*
X121710000Y-73440000D01*
X121710000Y-73440000D02*
X119050000Y-73440000D01*
X119050000Y-73440000D02*
X119050000Y-78640000D01*
X119050000Y-78640000D02*
X121710000Y-78640000D01*
X119050000Y-77690000D02*
X113050000Y-77690000D01*
X113050000Y-77690000D02*
X113050000Y-76930000D01*
X113050000Y-76930000D02*
X119050000Y-76930000D01*
X119050000Y-77630000D02*
X113050000Y-77630000D01*
X119050000Y-77510000D02*
X113050000Y-77510000D01*
X119050000Y-77390000D02*
X113050000Y-77390000D01*
X119050000Y-77270000D02*
X113050000Y-77270000D01*
X119050000Y-77150000D02*
X113050000Y-77150000D01*
X119050000Y-77030000D02*
X113050000Y-77030000D01*
X122040000Y-77690000D02*
X121710000Y-77690000D01*
X122040000Y-76930000D02*
X121710000Y-76930000D01*
X121710000Y-76040000D02*
X119050000Y-76040000D01*
X119050000Y-75150000D02*
X113050000Y-75150000D01*
X113050000Y-75150000D02*
X113050000Y-74390000D01*
X113050000Y-74390000D02*
X119050000Y-74390000D01*
X122107071Y-75150000D02*
X121710000Y-75150000D01*
X122107071Y-74390000D02*
X121710000Y-74390000D01*
X124420000Y-77310000D02*
X124420000Y-78580000D01*
X124420000Y-78580000D02*
X123150000Y-78580000D01*
%TO.C,C5*%
X148035000Y-78146248D02*
X148035000Y-78668752D01*
X146565000Y-78146248D02*
X146565000Y-78668752D01*
%TO.C,C4*%
X139535000Y-78116248D02*
X139535000Y-78638752D01*
X138065000Y-78116248D02*
X138065000Y-78638752D01*
%TO.C,C3*%
X144735000Y-114876248D02*
X144735000Y-115398752D01*
X143265000Y-114876248D02*
X143265000Y-115398752D01*
%TO.C,C2*%
X123573752Y-93185000D02*
X123051248Y-93185000D01*
X123573752Y-91715000D02*
X123051248Y-91715000D01*
%TO.C,C1*%
X123558752Y-90815000D02*
X123036248Y-90815000D01*
X123558752Y-89345000D02*
X123036248Y-89345000D01*
%TO.C,J1*%
X178090000Y-70330000D02*
X178090000Y-65130000D01*
X129770000Y-70330000D02*
X178090000Y-70330000D01*
X127170000Y-65130000D02*
X178090000Y-65130000D01*
X129770000Y-70330000D02*
X129770000Y-67730000D01*
X129770000Y-67730000D02*
X127170000Y-67730000D01*
X127170000Y-67730000D02*
X127170000Y-65130000D01*
X128500000Y-70330000D02*
X127170000Y-70330000D01*
X127170000Y-70330000D02*
X127170000Y-69000000D01*
%TO.C,J5*%
X153930000Y-87090000D02*
X151270000Y-87090000D01*
X153930000Y-104930000D02*
X153930000Y-87090000D01*
X151270000Y-104930000D02*
X151270000Y-87090000D01*
X153930000Y-104930000D02*
X151270000Y-104930000D01*
X153930000Y-106200000D02*
X153930000Y-107530000D01*
X153930000Y-107530000D02*
X152600000Y-107530000D01*
%TO.C,U1*%
D10*
X133268095Y-86040000D02*
X133172857Y-85992380D01*
X133030000Y-85992380D01*
X132887142Y-86040000D01*
X132791904Y-86135238D01*
X132744285Y-86230476D01*
X132696666Y-86420952D01*
X132696666Y-86563809D01*
X132744285Y-86754285D01*
X132791904Y-86849523D01*
X132887142Y-86944761D01*
X133030000Y-86992380D01*
X133125238Y-86992380D01*
X133268095Y-86944761D01*
X133315714Y-86897142D01*
X133315714Y-86563809D01*
X133125238Y-86563809D01*
X133744285Y-86992380D02*
X133744285Y-85992380D01*
X134315714Y-86992380D01*
X134315714Y-85992380D01*
X134791904Y-86992380D02*
X134791904Y-85992380D01*
X135030000Y-85992380D01*
X135172857Y-86040000D01*
X135268095Y-86135238D01*
X135315714Y-86230476D01*
X135363333Y-86420952D01*
X135363333Y-86563809D01*
X135315714Y-86754285D01*
X135268095Y-86849523D01*
X135172857Y-86944761D01*
X135030000Y-86992380D01*
X134791904Y-86992380D01*
X132730000Y-88992380D02*
X132730000Y-87992380D01*
X132968095Y-87992380D01*
X133110952Y-88040000D01*
X133206190Y-88135238D01*
X133253809Y-88230476D01*
X133301428Y-88420952D01*
X133301428Y-88563809D01*
X133253809Y-88754285D01*
X133206190Y-88849523D01*
X133110952Y-88944761D01*
X132968095Y-88992380D01*
X132730000Y-88992380D01*
X133730000Y-88992380D02*
X133730000Y-87992380D01*
X134396666Y-87992380D02*
X134587142Y-87992380D01*
X134682380Y-88040000D01*
X134777619Y-88135238D01*
X134825238Y-88325714D01*
X134825238Y-88659047D01*
X134777619Y-88849523D01*
X134682380Y-88944761D01*
X134587142Y-88992380D01*
X134396666Y-88992380D01*
X134301428Y-88944761D01*
X134206190Y-88849523D01*
X134158571Y-88659047D01*
X134158571Y-88325714D01*
X134206190Y-88135238D01*
X134301428Y-88040000D01*
X134396666Y-87992380D01*
X135158571Y-87992380D02*
X135777619Y-87992380D01*
X135444285Y-88373333D01*
X135587142Y-88373333D01*
X135682380Y-88420952D01*
X135730000Y-88468571D01*
X135777619Y-88563809D01*
X135777619Y-88801904D01*
X135730000Y-88897142D01*
X135682380Y-88944761D01*
X135587142Y-88992380D01*
X135301428Y-88992380D01*
X135206190Y-88944761D01*
X135158571Y-88897142D01*
X132730000Y-90992380D02*
X132730000Y-89992380D01*
X132968095Y-89992380D01*
X133110952Y-90040000D01*
X133206190Y-90135238D01*
X133253809Y-90230476D01*
X133301428Y-90420952D01*
X133301428Y-90563809D01*
X133253809Y-90754285D01*
X133206190Y-90849523D01*
X133110952Y-90944761D01*
X132968095Y-90992380D01*
X132730000Y-90992380D01*
X133730000Y-90992380D02*
X133730000Y-89992380D01*
X134396666Y-89992380D02*
X134587142Y-89992380D01*
X134682380Y-90040000D01*
X134777619Y-90135238D01*
X134825238Y-90325714D01*
X134825238Y-90659047D01*
X134777619Y-90849523D01*
X134682380Y-90944761D01*
X134587142Y-90992380D01*
X134396666Y-90992380D01*
X134301428Y-90944761D01*
X134206190Y-90849523D01*
X134158571Y-90659047D01*
X134158571Y-90325714D01*
X134206190Y-90135238D01*
X134301428Y-90040000D01*
X134396666Y-89992380D01*
X135682380Y-90325714D02*
X135682380Y-90992380D01*
X135444285Y-89944761D02*
X135206190Y-90659047D01*
X135825238Y-90659047D01*
X132653809Y-91992380D02*
X133272857Y-91992380D01*
X132939523Y-92373333D01*
X133082380Y-92373333D01*
X133177619Y-92420952D01*
X133225238Y-92468571D01*
X133272857Y-92563809D01*
X133272857Y-92801904D01*
X133225238Y-92897142D01*
X133177619Y-92944761D01*
X133082380Y-92992380D01*
X132796666Y-92992380D01*
X132701428Y-92944761D01*
X132653809Y-92897142D01*
X133701428Y-92897142D02*
X133749047Y-92944761D01*
X133701428Y-92992380D01*
X133653809Y-92944761D01*
X133701428Y-92897142D01*
X133701428Y-92992380D01*
X134082380Y-91992380D02*
X134701428Y-91992380D01*
X134368095Y-92373333D01*
X134510952Y-92373333D01*
X134606190Y-92420952D01*
X134653809Y-92468571D01*
X134701428Y-92563809D01*
X134701428Y-92801904D01*
X134653809Y-92897142D01*
X134606190Y-92944761D01*
X134510952Y-92992380D01*
X134225238Y-92992380D01*
X134130000Y-92944761D01*
X134082380Y-92897142D01*
X134987142Y-91992380D02*
X135320476Y-92992380D01*
X135653809Y-91992380D01*
X132630000Y-94992380D02*
X132630000Y-93992380D01*
X132868095Y-93992380D01*
X133010952Y-94040000D01*
X133106190Y-94135238D01*
X133153809Y-94230476D01*
X133201428Y-94420952D01*
X133201428Y-94563809D01*
X133153809Y-94754285D01*
X133106190Y-94849523D01*
X133010952Y-94944761D01*
X132868095Y-94992380D01*
X132630000Y-94992380D01*
X133630000Y-94992380D02*
X133630000Y-93992380D01*
X134296666Y-93992380D02*
X134487142Y-93992380D01*
X134582380Y-94040000D01*
X134677619Y-94135238D01*
X134725238Y-94325714D01*
X134725238Y-94659047D01*
X134677619Y-94849523D01*
X134582380Y-94944761D01*
X134487142Y-94992380D01*
X134296666Y-94992380D01*
X134201428Y-94944761D01*
X134106190Y-94849523D01*
X134058571Y-94659047D01*
X134058571Y-94325714D01*
X134106190Y-94135238D01*
X134201428Y-94040000D01*
X134296666Y-93992380D01*
X135344285Y-93992380D02*
X135439523Y-93992380D01*
X135534761Y-94040000D01*
X135582380Y-94087619D01*
X135630000Y-94182857D01*
X135677619Y-94373333D01*
X135677619Y-94611428D01*
X135630000Y-94801904D01*
X135582380Y-94897142D01*
X135534761Y-94944761D01*
X135439523Y-94992380D01*
X135344285Y-94992380D01*
X135249047Y-94944761D01*
X135201428Y-94897142D01*
X135153809Y-94801904D01*
X135106190Y-94611428D01*
X135106190Y-94373333D01*
X135153809Y-94182857D01*
X135201428Y-94087619D01*
X135249047Y-94040000D01*
X135344285Y-93992380D01*
X132630000Y-96992380D02*
X132630000Y-95992380D01*
X132868095Y-95992380D01*
X133010952Y-96040000D01*
X133106190Y-96135238D01*
X133153809Y-96230476D01*
X133201428Y-96420952D01*
X133201428Y-96563809D01*
X133153809Y-96754285D01*
X133106190Y-96849523D01*
X133010952Y-96944761D01*
X132868095Y-96992380D01*
X132630000Y-96992380D01*
X133630000Y-96992380D02*
X133630000Y-95992380D01*
X134296666Y-95992380D02*
X134487142Y-95992380D01*
X134582380Y-96040000D01*
X134677619Y-96135238D01*
X134725238Y-96325714D01*
X134725238Y-96659047D01*
X134677619Y-96849523D01*
X134582380Y-96944761D01*
X134487142Y-96992380D01*
X134296666Y-96992380D01*
X134201428Y-96944761D01*
X134106190Y-96849523D01*
X134058571Y-96659047D01*
X134058571Y-96325714D01*
X134106190Y-96135238D01*
X134201428Y-96040000D01*
X134296666Y-95992380D01*
X135677619Y-96992380D02*
X135106190Y-96992380D01*
X135391904Y-96992380D02*
X135391904Y-95992380D01*
X135296666Y-96135238D01*
X135201428Y-96230476D01*
X135106190Y-96278095D01*
X132630000Y-98992380D02*
X132630000Y-97992380D01*
X132868095Y-97992380D01*
X133010952Y-98040000D01*
X133106190Y-98135238D01*
X133153809Y-98230476D01*
X133201428Y-98420952D01*
X133201428Y-98563809D01*
X133153809Y-98754285D01*
X133106190Y-98849523D01*
X133010952Y-98944761D01*
X132868095Y-98992380D01*
X132630000Y-98992380D01*
X133630000Y-98992380D02*
X133630000Y-97992380D01*
X134296666Y-97992380D02*
X134487142Y-97992380D01*
X134582380Y-98040000D01*
X134677619Y-98135238D01*
X134725238Y-98325714D01*
X134725238Y-98659047D01*
X134677619Y-98849523D01*
X134582380Y-98944761D01*
X134487142Y-98992380D01*
X134296666Y-98992380D01*
X134201428Y-98944761D01*
X134106190Y-98849523D01*
X134058571Y-98659047D01*
X134058571Y-98325714D01*
X134106190Y-98135238D01*
X134201428Y-98040000D01*
X134296666Y-97992380D01*
X135106190Y-98087619D02*
X135153809Y-98040000D01*
X135249047Y-97992380D01*
X135487142Y-97992380D01*
X135582380Y-98040000D01*
X135630000Y-98087619D01*
X135677619Y-98182857D01*
X135677619Y-98278095D01*
X135630000Y-98420952D01*
X135058571Y-98992380D01*
X135677619Y-98992380D01*
X142168095Y-84040000D02*
X142072857Y-83992380D01*
X141930000Y-83992380D01*
X141787142Y-84040000D01*
X141691904Y-84135238D01*
X141644285Y-84230476D01*
X141596666Y-84420952D01*
X141596666Y-84563809D01*
X141644285Y-84754285D01*
X141691904Y-84849523D01*
X141787142Y-84944761D01*
X141930000Y-84992380D01*
X142025238Y-84992380D01*
X142168095Y-84944761D01*
X142215714Y-84897142D01*
X142215714Y-84563809D01*
X142025238Y-84563809D01*
X142644285Y-84992380D02*
X142644285Y-83992380D01*
X143215714Y-84992380D01*
X143215714Y-83992380D01*
X143691904Y-84992380D02*
X143691904Y-83992380D01*
X143930000Y-83992380D01*
X144072857Y-84040000D01*
X144168095Y-84135238D01*
X144215714Y-84230476D01*
X144263333Y-84420952D01*
X144263333Y-84563809D01*
X144215714Y-84754285D01*
X144168095Y-84849523D01*
X144072857Y-84944761D01*
X143930000Y-84992380D01*
X143691904Y-84992380D01*
X141230000Y-86992380D02*
X141230000Y-85992380D01*
X141468095Y-85992380D01*
X141610952Y-86040000D01*
X141706190Y-86135238D01*
X141753809Y-86230476D01*
X141801428Y-86420952D01*
X141801428Y-86563809D01*
X141753809Y-86754285D01*
X141706190Y-86849523D01*
X141610952Y-86944761D01*
X141468095Y-86992380D01*
X141230000Y-86992380D01*
X142230000Y-86992380D02*
X142230000Y-85992380D01*
X142896666Y-85992380D02*
X143087142Y-85992380D01*
X143182380Y-86040000D01*
X143277619Y-86135238D01*
X143325238Y-86325714D01*
X143325238Y-86659047D01*
X143277619Y-86849523D01*
X143182380Y-86944761D01*
X143087142Y-86992380D01*
X142896666Y-86992380D01*
X142801428Y-86944761D01*
X142706190Y-86849523D01*
X142658571Y-86659047D01*
X142658571Y-86325714D01*
X142706190Y-86135238D01*
X142801428Y-86040000D01*
X142896666Y-85992380D01*
X144230000Y-85992380D02*
X143753809Y-85992380D01*
X143706190Y-86468571D01*
X143753809Y-86420952D01*
X143849047Y-86373333D01*
X144087142Y-86373333D01*
X144182380Y-86420952D01*
X144230000Y-86468571D01*
X144277619Y-86563809D01*
X144277619Y-86801904D01*
X144230000Y-86897142D01*
X144182380Y-86944761D01*
X144087142Y-86992380D01*
X143849047Y-86992380D01*
X143753809Y-86944761D01*
X143706190Y-86897142D01*
X140777619Y-88992380D02*
X140444285Y-88516190D01*
X140206190Y-88992380D02*
X140206190Y-87992380D01*
X140587142Y-87992380D01*
X140682380Y-88040000D01*
X140730000Y-88087619D01*
X140777619Y-88182857D01*
X140777619Y-88325714D01*
X140730000Y-88420952D01*
X140682380Y-88468571D01*
X140587142Y-88516190D01*
X140206190Y-88516190D01*
X141206190Y-88468571D02*
X141539523Y-88468571D01*
X141682380Y-88992380D02*
X141206190Y-88992380D01*
X141206190Y-87992380D01*
X141682380Y-87992380D01*
X142063333Y-88944761D02*
X142206190Y-88992380D01*
X142444285Y-88992380D01*
X142539523Y-88944761D01*
X142587142Y-88897142D01*
X142634761Y-88801904D01*
X142634761Y-88706666D01*
X142587142Y-88611428D01*
X142539523Y-88563809D01*
X142444285Y-88516190D01*
X142253809Y-88468571D01*
X142158571Y-88420952D01*
X142110952Y-88373333D01*
X142063333Y-88278095D01*
X142063333Y-88182857D01*
X142110952Y-88087619D01*
X142158571Y-88040000D01*
X142253809Y-87992380D01*
X142491904Y-87992380D01*
X142634761Y-88040000D01*
X143063333Y-88468571D02*
X143396666Y-88468571D01*
X143539523Y-88992380D02*
X143063333Y-88992380D01*
X143063333Y-87992380D01*
X143539523Y-87992380D01*
X143825238Y-87992380D02*
X144396666Y-87992380D01*
X144110952Y-88992380D02*
X144110952Y-87992380D01*
X141691904Y-90992380D02*
X141691904Y-89992380D01*
X142263333Y-90992380D01*
X142263333Y-89992380D01*
X142691904Y-90944761D02*
X142834761Y-90992380D01*
X143072857Y-90992380D01*
X143168095Y-90944761D01*
X143215714Y-90897142D01*
X143263333Y-90801904D01*
X143263333Y-90706666D01*
X143215714Y-90611428D01*
X143168095Y-90563809D01*
X143072857Y-90516190D01*
X142882380Y-90468571D01*
X142787142Y-90420952D01*
X142739523Y-90373333D01*
X142691904Y-90278095D01*
X142691904Y-90182857D01*
X142739523Y-90087619D01*
X142787142Y-90040000D01*
X142882380Y-89992380D01*
X143120476Y-89992380D01*
X143263333Y-90040000D01*
X143644285Y-90944761D02*
X143787142Y-90992380D01*
X144025238Y-90992380D01*
X144120476Y-90944761D01*
X144168095Y-90897142D01*
X144215714Y-90801904D01*
X144215714Y-90706666D01*
X144168095Y-90611428D01*
X144120476Y-90563809D01*
X144025238Y-90516190D01*
X143834761Y-90468571D01*
X143739523Y-90420952D01*
X143691904Y-90373333D01*
X143644285Y-90278095D01*
X143644285Y-90182857D01*
X143691904Y-90087619D01*
X143739523Y-90040000D01*
X143834761Y-89992380D01*
X144072857Y-89992380D01*
X144215714Y-90040000D01*
X141644285Y-92944761D02*
X141787142Y-92992380D01*
X142025238Y-92992380D01*
X142120476Y-92944761D01*
X142168095Y-92897142D01*
X142215714Y-92801904D01*
X142215714Y-92706666D01*
X142168095Y-92611428D01*
X142120476Y-92563809D01*
X142025238Y-92516190D01*
X141834761Y-92468571D01*
X141739523Y-92420952D01*
X141691904Y-92373333D01*
X141644285Y-92278095D01*
X141644285Y-92182857D01*
X141691904Y-92087619D01*
X141739523Y-92040000D01*
X141834761Y-91992380D01*
X142072857Y-91992380D01*
X142215714Y-92040000D01*
X143215714Y-92897142D02*
X143168095Y-92944761D01*
X143025238Y-92992380D01*
X142930000Y-92992380D01*
X142787142Y-92944761D01*
X142691904Y-92849523D01*
X142644285Y-92754285D01*
X142596666Y-92563809D01*
X142596666Y-92420952D01*
X142644285Y-92230476D01*
X142691904Y-92135238D01*
X142787142Y-92040000D01*
X142930000Y-91992380D01*
X143025238Y-91992380D01*
X143168095Y-92040000D01*
X143215714Y-92087619D01*
X143644285Y-92992380D02*
X143644285Y-91992380D01*
X144215714Y-92992380D02*
X143787142Y-92420952D01*
X144215714Y-91992380D02*
X143644285Y-92563809D01*
X141058571Y-94992380D02*
X141058571Y-93992380D01*
X141391904Y-94706666D01*
X141725238Y-93992380D01*
X141725238Y-94992380D01*
X142391904Y-93992380D02*
X142582380Y-93992380D01*
X142677619Y-94040000D01*
X142772857Y-94135238D01*
X142820476Y-94325714D01*
X142820476Y-94659047D01*
X142772857Y-94849523D01*
X142677619Y-94944761D01*
X142582380Y-94992380D01*
X142391904Y-94992380D01*
X142296666Y-94944761D01*
X142201428Y-94849523D01*
X142153809Y-94659047D01*
X142153809Y-94325714D01*
X142201428Y-94135238D01*
X142296666Y-94040000D01*
X142391904Y-93992380D01*
X143201428Y-94944761D02*
X143344285Y-94992380D01*
X143582380Y-94992380D01*
X143677619Y-94944761D01*
X143725238Y-94897142D01*
X143772857Y-94801904D01*
X143772857Y-94706666D01*
X143725238Y-94611428D01*
X143677619Y-94563809D01*
X143582380Y-94516190D01*
X143391904Y-94468571D01*
X143296666Y-94420952D01*
X143249047Y-94373333D01*
X143201428Y-94278095D01*
X143201428Y-94182857D01*
X143249047Y-94087619D01*
X143296666Y-94040000D01*
X143391904Y-93992380D01*
X143630000Y-93992380D01*
X143772857Y-94040000D01*
X144201428Y-94992380D02*
X144201428Y-93992380D01*
X141058571Y-96992380D02*
X141058571Y-95992380D01*
X141391904Y-96706666D01*
X141725238Y-95992380D01*
X141725238Y-96992380D01*
X142201428Y-96992380D02*
X142201428Y-95992380D01*
X142630000Y-96944761D02*
X142772857Y-96992380D01*
X143010952Y-96992380D01*
X143106190Y-96944761D01*
X143153809Y-96897142D01*
X143201428Y-96801904D01*
X143201428Y-96706666D01*
X143153809Y-96611428D01*
X143106190Y-96563809D01*
X143010952Y-96516190D01*
X142820476Y-96468571D01*
X142725238Y-96420952D01*
X142677619Y-96373333D01*
X142630000Y-96278095D01*
X142630000Y-96182857D01*
X142677619Y-96087619D01*
X142725238Y-96040000D01*
X142820476Y-95992380D01*
X143058571Y-95992380D01*
X143201428Y-96040000D01*
X143820476Y-95992380D02*
X144010952Y-95992380D01*
X144106190Y-96040000D01*
X144201428Y-96135238D01*
X144249047Y-96325714D01*
X144249047Y-96659047D01*
X144201428Y-96849523D01*
X144106190Y-96944761D01*
X144010952Y-96992380D01*
X143820476Y-96992380D01*
X143725238Y-96944761D01*
X143630000Y-96849523D01*
X143582380Y-96659047D01*
X143582380Y-96325714D01*
X143630000Y-96135238D01*
X143725238Y-96040000D01*
X143820476Y-95992380D01*
X132687142Y-84706666D02*
X133163333Y-84706666D01*
X132591904Y-84992380D02*
X132925238Y-83992380D01*
X133258571Y-84992380D01*
X133591904Y-84992380D02*
X133591904Y-83992380D01*
X134163333Y-84992380D01*
X134163333Y-83992380D01*
X134496666Y-83992380D02*
X135068095Y-83992380D01*
X134782380Y-84992380D02*
X134782380Y-83992380D01*
X142168095Y-98040000D02*
X142072857Y-97992380D01*
X141930000Y-97992380D01*
X141787142Y-98040000D01*
X141691904Y-98135238D01*
X141644285Y-98230476D01*
X141596666Y-98420952D01*
X141596666Y-98563809D01*
X141644285Y-98754285D01*
X141691904Y-98849523D01*
X141787142Y-98944761D01*
X141930000Y-98992380D01*
X142025238Y-98992380D01*
X142168095Y-98944761D01*
X142215714Y-98897142D01*
X142215714Y-98563809D01*
X142025238Y-98563809D01*
X142644285Y-98992380D02*
X142644285Y-97992380D01*
X143215714Y-98992380D01*
X143215714Y-97992380D01*
X143691904Y-98992380D02*
X143691904Y-97992380D01*
X143930000Y-97992380D01*
X144072857Y-98040000D01*
X144168095Y-98135238D01*
X144215714Y-98230476D01*
X144263333Y-98420952D01*
X144263333Y-98563809D01*
X144215714Y-98754285D01*
X144168095Y-98849523D01*
X144072857Y-98944761D01*
X143930000Y-98992380D01*
X143691904Y-98992380D01*
%TO.C,FAN1*%
X117479285Y-79508571D02*
X117145952Y-79508571D01*
X117145952Y-80032380D02*
X117145952Y-79032380D01*
X117622142Y-79032380D01*
X117955476Y-79746666D02*
X118431666Y-79746666D01*
X117860238Y-80032380D02*
X118193571Y-79032380D01*
X118526904Y-80032380D01*
X118860238Y-80032380D02*
X118860238Y-79032380D01*
X119431666Y-80032380D01*
X119431666Y-79032380D01*
X120431666Y-80032380D02*
X119860238Y-80032380D01*
X120145952Y-80032380D02*
X120145952Y-79032380D01*
X120050714Y-79175238D01*
X119955476Y-79270476D01*
X119860238Y-79318095D01*
%TD*%
M02*
