M48
; DRILL file {KiCad (5.1.10)-1} date 02/24/22 11:14:34
; FORMAT={-:-/ absolute / inch / decimal}
; #@! TF.CreationDate,2022-02-24T11:14:34+08:00
; #@! TF.GenerationSoftware,Kicad,Pcbnew,(5.1.10)-1
FMAT,2
INCH
T1C0.0157
T2C0.0394
T3C0.0433
T4C0.0984
%
G90
G05
T1
X4.8134Y-3.5969
X4.8425Y-4.2559
X4.9449Y-3.4677
X4.9476Y-3.9803
X5.0039Y-4.0709
X5.0118Y-4.2559
X5.1929Y-4.0276
X5.1969Y-4.0984
X5.2165Y-3.7244
X5.2441Y-4.0276
X5.2441Y-4.1732
X5.2453Y-3.5949
X5.248Y-4.3228
X5.2551Y-3.4906
X5.2591Y-2.7165
X5.2598Y-3.311
X5.3012Y-4.1732
X5.3976Y-3.4094
X5.437Y-3.3701
X5.5Y-3.248
X5.5472Y-4.4173
X5.5945Y-3.7598
X5.611Y-4.2126
X5.6663Y-3.311
X5.6772Y-2.8268
X5.6811Y-3.811
X5.7256Y-3.3283
X5.748Y-4.5748
X5.752Y-4.4213
X5.7717Y-4.1063
X5.7756Y-4.2638
X5.7992Y-3.126
X5.7992Y-4.4528
X5.811Y-4.3228
X5.8307Y-3.185
X5.8325Y-3.8837
X5.8386Y-4.0866
X5.8622Y-3.9409
X5.874Y-4.3189
X5.878Y-4.0709
X5.8858Y-4.5787
X5.8937Y-2.9488
X5.9094Y-3.2087
X6.0689Y-3.1406
X6.0866Y-3.3031
X6.1142Y-2.8425
X6.1969Y-3.2756
X6.3937Y-2.9409
X6.4724Y-3.5866
X6.4803Y-3.1339
X6.4961Y-3.6417
X6.5039Y-3.5394
X6.5354Y-3.811
X6.5827Y-4.626
X6.5866Y-3.7126
X6.6181Y-3.4173
X6.7008Y-3.5827
X6.7047Y-3.5039
X6.7461Y-3.9104
X6.9724Y-2.8898
T2
X4.8484Y-2.9437
X4.8484Y-3.0437
X4.8559Y-3.7756
X4.8559Y-3.8756
X4.8559Y-3.9756
X4.8559Y-4.0756
X4.8559Y-4.1756
X5.0177Y-3.326
X5.0591Y-2.6165
X5.0591Y-2.7165
X5.0795Y-2.9437
X5.0795Y-3.0437
X5.1591Y-2.6165
X5.1591Y-2.7165
X5.174Y-4.5276
X5.174Y-4.6276
X5.1795Y-2.9437
X5.1795Y-3.0437
X5.2591Y-2.6165
X5.2591Y-2.7165
X5.274Y-4.5276
X5.274Y-4.6276
X5.2795Y-2.9437
X5.2795Y-3.0437
X5.3591Y-2.6165
X5.3591Y-2.7165
X5.374Y-4.5276
X5.374Y-4.6276
X5.4591Y-2.6165
X5.4591Y-2.7165
X5.5591Y-2.6165
X5.5591Y-2.7165
X5.6591Y-2.6165
X5.6591Y-2.7165
X5.7591Y-2.6165
X5.7591Y-2.7165
X5.8591Y-2.6165
X5.8591Y-2.7165
X5.9591Y-2.6165
X5.9591Y-2.7165
X6.0079Y-3.4811
X6.0079Y-3.5811
X6.0079Y-3.6811
X6.0079Y-3.7811
X6.0079Y-3.8811
X6.0079Y-3.9811
X6.0079Y-4.0811
X6.0079Y-4.1811
X6.0591Y-2.6165
X6.0591Y-2.7165
X6.0984Y-4.3386
X6.0984Y-4.4386
X6.0984Y-4.5386
X6.1591Y-2.6165
X6.1591Y-2.7165
X6.2591Y-2.6165
X6.2591Y-2.7165
X6.3591Y-2.6165
X6.3591Y-2.7165
X6.4591Y-2.6165
X6.4591Y-2.7165
X6.4657Y-3.274
X6.5591Y-2.6165
X6.5591Y-2.7165
X6.5657Y-3.274
X6.5772Y-2.952
X6.5776Y-3.0941
X6.6591Y-2.6165
X6.6591Y-2.7165
X6.6657Y-3.274
X6.6772Y-2.952
X6.6776Y-3.0941
X6.7591Y-2.6165
X6.7591Y-2.7165
X6.7657Y-3.274
X6.7772Y-2.952
X6.7776Y-3.0941
X6.8591Y-2.6165
X6.8591Y-2.7165
X6.9591Y-2.6165
X6.9591Y-2.7165
X7.1445Y-3.2598
X7.1445Y-3.3598
X7.1445Y-3.4598
X7.1445Y-3.5598
X7.1445Y-3.6598
X7.1445Y-3.7598
X7.1445Y-3.8598
T3
X6.3083Y-3.413
X6.3083Y-3.513
X6.3083Y-3.613
X6.3083Y-3.713
X6.3083Y-3.813
X6.3083Y-3.913
X6.3083Y-4.013
X6.3083Y-4.113
X6.3083Y-4.213
X6.3083Y-4.313
X6.3083Y-4.413
X6.3083Y-4.513
X6.9083Y-3.413
X6.9083Y-3.513
X6.9083Y-3.613
X6.9083Y-3.713
X6.9083Y-3.813
X6.9083Y-3.913
X6.9083Y-4.013
X6.9083Y-4.113
X6.9083Y-4.213
X6.9083Y-4.313
X6.9083Y-4.413
X6.9083Y-4.513
T4
X4.8622Y-2.6575
X4.8622Y-4.5866
X7.1457Y-2.6575
X7.1457Y-4.5866
T0
M30
