%TF.GenerationSoftware,KiCad,Pcbnew,(5.1.10)-1*%
%TF.CreationDate,2021-12-09T17:34:34+08:00*%
%TF.ProjectId,hat,6861742e-6b69-4636-9164-5f7063625858,rev?*%
%TF.SameCoordinates,Original*%
%TF.FileFunction,Soldermask,Top*%
%TF.FilePolarity,Negative*%
%FSLAX46Y46*%
G04 Gerber Fmt 4.6, Leading zero omitted, Abs format (unit mm)*
G04 Created by KiCad (PCBNEW (5.1.10)-1) date 2021-12-09 17:34:34*
%MOMM*%
%LPD*%
G01*
G04 APERTURE LIST*
%ADD10O,1.700000X1.700000*%
%ADD11R,1.700000X1.700000*%
%ADD12R,0.650000X1.060000*%
%ADD13R,2.200000X1.550000*%
%ADD14R,1.500000X1.000000*%
%ADD15R,1.524000X3.000000*%
%ADD16C,1.700000*%
%ADD17R,1.550000X1.300000*%
%ADD18C,6.000000*%
%ADD19R,1.600000X1.600000*%
%ADD20C,1.600000*%
G04 APERTURE END LIST*
D10*
%TO.C,J2*%
X96920000Y-108540000D03*
X96920000Y-106000000D03*
X99460000Y-108540000D03*
X99460000Y-106000000D03*
X102000000Y-108540000D03*
D11*
X102000000Y-106000000D03*
%TD*%
D12*
%TO.C,U4*%
X108450000Y-68600000D03*
X106550000Y-68600000D03*
X106550000Y-66400000D03*
X107500000Y-66400000D03*
X108450000Y-66400000D03*
%TD*%
D13*
%TO.C,U3*%
X90520000Y-97165000D03*
D14*
X88670000Y-98890000D03*
D13*
X90520000Y-100615000D03*
D14*
X92270000Y-98890000D03*
%TD*%
D15*
%TO.C,U2*%
X89675000Y-87450000D03*
X91675000Y-87450000D03*
X93675000Y-87450000D03*
X95675000Y-87450000D03*
X97675000Y-87450000D03*
X99675000Y-87450000D03*
X101675000Y-87450000D03*
X103675000Y-87450000D03*
X89675000Y-71450000D03*
X91675000Y-71450000D03*
X93675000Y-71450000D03*
X95675000Y-71450000D03*
X97675000Y-71450000D03*
X99675000Y-71450000D03*
X101675000Y-71450000D03*
X103675000Y-71450000D03*
%TD*%
D10*
%TO.C,SPI_PORT1*%
X110840000Y-108500000D03*
X113380000Y-108500000D03*
X115920000Y-108500000D03*
X118460000Y-108500000D03*
X121000000Y-108500000D03*
D11*
X123540000Y-108500000D03*
%TD*%
D10*
%TO.C,SDA_PU1*%
X138500000Y-72730000D03*
X138500000Y-70190000D03*
D11*
X138500000Y-67650000D03*
%TD*%
D10*
%TO.C,SCL_PU1*%
X135960000Y-72730000D03*
X135960000Y-70190000D03*
D11*
X135960000Y-67650000D03*
%TD*%
%TO.C,R4*%
G36*
G01*
X135780000Y-64620000D02*
X135980000Y-64620000D01*
G75*
G02*
X136080000Y-64720000I0J-100000D01*
G01*
X136080000Y-65155000D01*
G75*
G02*
X135980000Y-65255000I-100000J0D01*
G01*
X135780000Y-65255000D01*
G75*
G02*
X135680000Y-65155000I0J100000D01*
G01*
X135680000Y-64720000D01*
G75*
G02*
X135780000Y-64620000I100000J0D01*
G01*
G37*
G36*
G01*
X135780000Y-63805000D02*
X135980000Y-63805000D01*
G75*
G02*
X136080000Y-63905000I0J-100000D01*
G01*
X136080000Y-64340000D01*
G75*
G02*
X135980000Y-64440000I-100000J0D01*
G01*
X135780000Y-64440000D01*
G75*
G02*
X135680000Y-64340000I0J100000D01*
G01*
X135680000Y-63905000D01*
G75*
G02*
X135780000Y-63805000I100000J0D01*
G01*
G37*
%TD*%
%TO.C,R3*%
G36*
G01*
X138310000Y-64602500D02*
X138510000Y-64602500D01*
G75*
G02*
X138610000Y-64702500I0J-100000D01*
G01*
X138610000Y-65137500D01*
G75*
G02*
X138510000Y-65237500I-100000J0D01*
G01*
X138310000Y-65237500D01*
G75*
G02*
X138210000Y-65137500I0J100000D01*
G01*
X138210000Y-64702500D01*
G75*
G02*
X138310000Y-64602500I100000J0D01*
G01*
G37*
G36*
G01*
X138310000Y-63787500D02*
X138510000Y-63787500D01*
G75*
G02*
X138610000Y-63887500I0J-100000D01*
G01*
X138610000Y-64322500D01*
G75*
G02*
X138510000Y-64422500I-100000J0D01*
G01*
X138310000Y-64422500D01*
G75*
G02*
X138210000Y-64322500I0J100000D01*
G01*
X138210000Y-63887500D01*
G75*
G02*
X138310000Y-63787500I100000J0D01*
G01*
G37*
%TD*%
%TO.C,R2*%
G36*
G01*
X95680000Y-78942500D02*
X95480000Y-78942500D01*
G75*
G02*
X95380000Y-78842500I0J100000D01*
G01*
X95380000Y-78407500D01*
G75*
G02*
X95480000Y-78307500I100000J0D01*
G01*
X95680000Y-78307500D01*
G75*
G02*
X95780000Y-78407500I0J-100000D01*
G01*
X95780000Y-78842500D01*
G75*
G02*
X95680000Y-78942500I-100000J0D01*
G01*
G37*
G36*
G01*
X95680000Y-79757500D02*
X95480000Y-79757500D01*
G75*
G02*
X95380000Y-79657500I0J100000D01*
G01*
X95380000Y-79222500D01*
G75*
G02*
X95480000Y-79122500I100000J0D01*
G01*
X95680000Y-79122500D01*
G75*
G02*
X95780000Y-79222500I0J-100000D01*
G01*
X95780000Y-79657500D01*
G75*
G02*
X95680000Y-79757500I-100000J0D01*
G01*
G37*
%TD*%
%TO.C,R1*%
G36*
G01*
X94510000Y-78950000D02*
X94310000Y-78950000D01*
G75*
G02*
X94210000Y-78850000I0J100000D01*
G01*
X94210000Y-78415000D01*
G75*
G02*
X94310000Y-78315000I100000J0D01*
G01*
X94510000Y-78315000D01*
G75*
G02*
X94610000Y-78415000I0J-100000D01*
G01*
X94610000Y-78850000D01*
G75*
G02*
X94510000Y-78950000I-100000J0D01*
G01*
G37*
G36*
G01*
X94510000Y-79765000D02*
X94310000Y-79765000D01*
G75*
G02*
X94210000Y-79665000I0J100000D01*
G01*
X94210000Y-79230000D01*
G75*
G02*
X94310000Y-79130000I100000J0D01*
G01*
X94510000Y-79130000D01*
G75*
G02*
X94610000Y-79230000I0J-100000D01*
G01*
X94610000Y-79665000D01*
G75*
G02*
X94510000Y-79765000I-100000J0D01*
G01*
G37*
%TD*%
D14*
%TO.C,JP2*%
X125060000Y-67740000D03*
X125060000Y-69040000D03*
X125060000Y-66440000D03*
%TD*%
%TO.C,JP1*%
X129480000Y-67700000D03*
X129480000Y-69000000D03*
X129480000Y-66400000D03*
%TD*%
D10*
%TO.C,J5*%
X101590000Y-67250000D03*
X99050000Y-67250000D03*
X96510000Y-67250000D03*
X93970000Y-67250000D03*
D11*
X91430000Y-67250000D03*
%TD*%
D10*
%TO.C,J4*%
X101535000Y-92000000D03*
X98995000Y-92000000D03*
X96455000Y-92000000D03*
X93915000Y-92000000D03*
D11*
X91375000Y-92000000D03*
%TD*%
D16*
%TO.C,J1*%
X95400000Y-98875000D03*
%TD*%
D10*
%TO.C,I2C_PORT1*%
X111000000Y-81380000D03*
X111000000Y-83920000D03*
X111000000Y-86460000D03*
D11*
X111000000Y-89000000D03*
%TD*%
D10*
%TO.C,FAN1*%
X145000000Y-69540000D03*
D11*
X145000000Y-67000000D03*
%TD*%
%TO.C,C4*%
G36*
G01*
X107952500Y-69925000D02*
X107952500Y-70125000D01*
G75*
G02*
X107852500Y-70225000I-100000J0D01*
G01*
X107417500Y-70225000D01*
G75*
G02*
X107317500Y-70125000I0J100000D01*
G01*
X107317500Y-69925000D01*
G75*
G02*
X107417500Y-69825000I100000J0D01*
G01*
X107852500Y-69825000D01*
G75*
G02*
X107952500Y-69925000I0J-100000D01*
G01*
G37*
G36*
G01*
X108767500Y-69925000D02*
X108767500Y-70125000D01*
G75*
G02*
X108667500Y-70225000I-100000J0D01*
G01*
X108232500Y-70225000D01*
G75*
G02*
X108132500Y-70125000I0J100000D01*
G01*
X108132500Y-69925000D01*
G75*
G02*
X108232500Y-69825000I100000J0D01*
G01*
X108667500Y-69825000D01*
G75*
G02*
X108767500Y-69925000I0J-100000D01*
G01*
G37*
%TD*%
%TO.C,C3*%
G36*
G01*
X107952500Y-64750000D02*
X107952500Y-64950000D01*
G75*
G02*
X107852500Y-65050000I-100000J0D01*
G01*
X107417500Y-65050000D01*
G75*
G02*
X107317500Y-64950000I0J100000D01*
G01*
X107317500Y-64750000D01*
G75*
G02*
X107417500Y-64650000I100000J0D01*
G01*
X107852500Y-64650000D01*
G75*
G02*
X107952500Y-64750000I0J-100000D01*
G01*
G37*
G36*
G01*
X108767500Y-64750000D02*
X108767500Y-64950000D01*
G75*
G02*
X108667500Y-65050000I-100000J0D01*
G01*
X108232500Y-65050000D01*
G75*
G02*
X108132500Y-64950000I0J100000D01*
G01*
X108132500Y-64750000D01*
G75*
G02*
X108232500Y-64650000I100000J0D01*
G01*
X108667500Y-64650000D01*
G75*
G02*
X108767500Y-64750000I0J-100000D01*
G01*
G37*
%TD*%
%TO.C,C2*%
G36*
G01*
X95207500Y-82770000D02*
X95207500Y-82970000D01*
G75*
G02*
X95107500Y-83070000I-100000J0D01*
G01*
X94672500Y-83070000D01*
G75*
G02*
X94572500Y-82970000I0J100000D01*
G01*
X94572500Y-82770000D01*
G75*
G02*
X94672500Y-82670000I100000J0D01*
G01*
X95107500Y-82670000D01*
G75*
G02*
X95207500Y-82770000I0J-100000D01*
G01*
G37*
G36*
G01*
X96022500Y-82770000D02*
X96022500Y-82970000D01*
G75*
G02*
X95922500Y-83070000I-100000J0D01*
G01*
X95487500Y-83070000D01*
G75*
G02*
X95387500Y-82970000I0J100000D01*
G01*
X95387500Y-82770000D01*
G75*
G02*
X95487500Y-82670000I100000J0D01*
G01*
X95922500Y-82670000D01*
G75*
G02*
X96022500Y-82770000I0J-100000D01*
G01*
G37*
%TD*%
%TO.C,C1*%
G36*
G01*
X95167500Y-84090000D02*
X95167500Y-84290000D01*
G75*
G02*
X95067500Y-84390000I-100000J0D01*
G01*
X94632500Y-84390000D01*
G75*
G02*
X94532500Y-84290000I0J100000D01*
G01*
X94532500Y-84090000D01*
G75*
G02*
X94632500Y-83990000I100000J0D01*
G01*
X95067500Y-83990000D01*
G75*
G02*
X95167500Y-84090000I0J-100000D01*
G01*
G37*
G36*
G01*
X95982500Y-84090000D02*
X95982500Y-84290000D01*
G75*
G02*
X95882500Y-84390000I-100000J0D01*
G01*
X95447500Y-84390000D01*
G75*
G02*
X95347500Y-84290000I0J100000D01*
G01*
X95347500Y-84090000D01*
G75*
G02*
X95447500Y-83990000I100000J0D01*
G01*
X95882500Y-83990000D01*
G75*
G02*
X95982500Y-84090000I0J-100000D01*
G01*
G37*
%TD*%
D10*
%TO.C,J3*%
X143760000Y-57960000D03*
X143760000Y-60500000D03*
X141220000Y-57960000D03*
X141220000Y-60500000D03*
X138680000Y-57960000D03*
X138680000Y-60500000D03*
X136140000Y-57960000D03*
X136140000Y-60500000D03*
X133600000Y-57960000D03*
X133600000Y-60500000D03*
X131060000Y-57960000D03*
X131060000Y-60500000D03*
X128520000Y-57960000D03*
X128520000Y-60500000D03*
X125980000Y-57960000D03*
X125980000Y-60500000D03*
X123440000Y-57960000D03*
X123440000Y-60500000D03*
X120900000Y-57960000D03*
X120900000Y-60500000D03*
X118360000Y-57960000D03*
X118360000Y-60500000D03*
X115820000Y-57960000D03*
X115820000Y-60500000D03*
X113280000Y-57960000D03*
X113280000Y-60500000D03*
X110740000Y-57960000D03*
X110740000Y-60500000D03*
X108200000Y-57960000D03*
X108200000Y-60500000D03*
X105660000Y-57960000D03*
X105660000Y-60500000D03*
X103120000Y-57960000D03*
X103120000Y-60500000D03*
X100580000Y-57960000D03*
X100580000Y-60500000D03*
X98040000Y-57960000D03*
X98040000Y-60500000D03*
X95500000Y-57960000D03*
D11*
X95500000Y-60500000D03*
%TD*%
D17*
%TO.C,SW1*%
X135025000Y-109250000D03*
X135025000Y-104750000D03*
X142975000Y-104750000D03*
X142975000Y-109250000D03*
%TD*%
D18*
%TO.C,H1*%
X90500000Y-108000000D03*
%TD*%
%TO.C,H2*%
X148400000Y-108000000D03*
%TD*%
%TO.C,H3*%
X90500000Y-59000000D03*
%TD*%
%TO.C,H4*%
X148500000Y-59000000D03*
%TD*%
D19*
%TO.C,U1*%
X142645000Y-77380000D03*
D20*
X140105000Y-77380000D03*
X137565000Y-77380000D03*
X135025000Y-77380000D03*
X132485000Y-77380000D03*
X129945000Y-77380000D03*
X127405000Y-77380000D03*
X124865000Y-77380000D03*
X122325000Y-77380000D03*
X119785000Y-77380000D03*
X117245000Y-77380000D03*
X114705000Y-77380000D03*
X114705000Y-92620000D03*
X117245000Y-92620000D03*
X119785000Y-92620000D03*
X122325000Y-92620000D03*
X124865000Y-92620000D03*
X127405000Y-92620000D03*
X129945000Y-92620000D03*
X132485000Y-92620000D03*
X135025000Y-92620000D03*
X137565000Y-92620000D03*
X140105000Y-92620000D03*
X142645000Y-92620000D03*
%TD*%
M02*
