%TF.GenerationSoftware,KiCad,Pcbnew,(5.1.10)-1*%
%TF.CreationDate,2021-12-09T17:34:34+08:00*%
%TF.ProjectId,hat,6861742e-6b69-4636-9164-5f7063625858,rev?*%
%TF.SameCoordinates,Original*%
%TF.FileFunction,Legend,Bot*%
%TF.FilePolarity,Positive*%
%FSLAX46Y46*%
G04 Gerber Fmt 4.6, Leading zero omitted, Abs format (unit mm)*
G04 Created by KiCad (PCBNEW (5.1.10)-1) date 2021-12-09 17:34:34*
%MOMM*%
%LPD*%
G01*
G04 APERTURE LIST*
%ADD10C,0.120000*%
%ADD11C,0.150000*%
G04 APERTURE END LIST*
D10*
%TO.C,JP13*%
X128320000Y-95990000D02*
X126320000Y-95990000D01*
X128320000Y-98790000D02*
X128320000Y-95990000D01*
X126320000Y-98790000D02*
X128320000Y-98790000D01*
X126320000Y-95990000D02*
X126320000Y-98790000D01*
%TO.C,JP12*%
X116300000Y-96000000D02*
X116300000Y-98800000D01*
X116300000Y-98800000D02*
X118300000Y-98800000D01*
X118300000Y-98800000D02*
X118300000Y-96000000D01*
X118300000Y-96000000D02*
X116300000Y-96000000D01*
%TO.C,JP11*%
X118800000Y-96000000D02*
X118800000Y-98800000D01*
X118800000Y-98800000D02*
X120800000Y-98800000D01*
X120800000Y-98800000D02*
X120800000Y-96000000D01*
X120800000Y-96000000D02*
X118800000Y-96000000D01*
%TO.C,JP10*%
X121300000Y-96000000D02*
X121300000Y-98800000D01*
X121300000Y-98800000D02*
X123300000Y-98800000D01*
X123300000Y-98800000D02*
X123300000Y-96000000D01*
X123300000Y-96000000D02*
X121300000Y-96000000D01*
%TO.C,JP9*%
X123800000Y-95990000D02*
X123800000Y-98790000D01*
X123800000Y-98790000D02*
X125800000Y-98790000D01*
X125800000Y-98790000D02*
X125800000Y-95990000D01*
X125800000Y-95990000D02*
X123800000Y-95990000D01*
%TO.C,JP8*%
X119740000Y-68500000D02*
X117740000Y-68500000D01*
X119740000Y-71300000D02*
X119740000Y-68500000D01*
X117740000Y-71300000D02*
X119740000Y-71300000D01*
X117740000Y-68500000D02*
X117740000Y-71300000D01*
%TO.C,JP7*%
X117240000Y-68500000D02*
X115240000Y-68500000D01*
X117240000Y-71300000D02*
X117240000Y-68500000D01*
X115240000Y-71300000D02*
X117240000Y-71300000D01*
X115240000Y-68500000D02*
X115240000Y-71300000D01*
%TO.C,JP6*%
X114730000Y-68500000D02*
X112730000Y-68500000D01*
X114730000Y-71300000D02*
X114730000Y-68500000D01*
X112730000Y-71300000D02*
X114730000Y-71300000D01*
X112730000Y-68500000D02*
X112730000Y-71300000D01*
%TO.C,JP5*%
X123300000Y-85890000D02*
X121300000Y-85890000D01*
X123300000Y-88690000D02*
X123300000Y-85890000D01*
X121300000Y-88690000D02*
X123300000Y-88690000D01*
X121300000Y-85890000D02*
X121300000Y-88690000D01*
%TO.C,JP4*%
X120790000Y-85890000D02*
X118790000Y-85890000D01*
X120790000Y-88690000D02*
X120790000Y-85890000D01*
X118790000Y-88690000D02*
X120790000Y-88690000D01*
X118790000Y-85890000D02*
X118790000Y-88690000D01*
%TO.C,JP3*%
X118290000Y-85890000D02*
X116290000Y-85890000D01*
X118290000Y-88690000D02*
X118290000Y-85890000D01*
X116290000Y-88690000D02*
X118290000Y-88690000D01*
X116290000Y-85890000D02*
X116290000Y-88690000D01*
D11*
%TO.C,U1*%
X113435000Y-93890000D02*
X113435000Y-76110000D01*
X113435000Y-76110000D02*
X143915000Y-76110000D01*
X143915000Y-76110000D02*
X143915000Y-81190000D01*
X143915000Y-81190000D02*
X146455000Y-81190000D01*
X146455000Y-81190000D02*
X146455000Y-88810000D01*
X146455000Y-88810000D02*
X143915000Y-88810000D01*
X143915000Y-88810000D02*
X143915000Y-93890000D01*
X143915000Y-93890000D02*
X113435000Y-93890000D01*
%TO.C,JP13*%
X126702380Y-99630476D02*
X127416666Y-99630476D01*
X127559523Y-99582857D01*
X127654761Y-99487619D01*
X127702380Y-99344761D01*
X127702380Y-99249523D01*
X127702380Y-100106666D02*
X126702380Y-100106666D01*
X126702380Y-100487619D01*
X126750000Y-100582857D01*
X126797619Y-100630476D01*
X126892857Y-100678095D01*
X127035714Y-100678095D01*
X127130952Y-100630476D01*
X127178571Y-100582857D01*
X127226190Y-100487619D01*
X127226190Y-100106666D01*
X127702380Y-101630476D02*
X127702380Y-101059047D01*
X127702380Y-101344761D02*
X126702380Y-101344761D01*
X126845238Y-101249523D01*
X126940476Y-101154285D01*
X126988095Y-101059047D01*
X126702380Y-101963809D02*
X126702380Y-102582857D01*
X127083333Y-102249523D01*
X127083333Y-102392380D01*
X127130952Y-102487619D01*
X127178571Y-102535238D01*
X127273809Y-102582857D01*
X127511904Y-102582857D01*
X127607142Y-102535238D01*
X127654761Y-102487619D01*
X127702380Y-102392380D01*
X127702380Y-102106666D01*
X127654761Y-102011428D01*
X127607142Y-101963809D01*
%TO.C,JP12*%
X116812380Y-99750476D02*
X117526666Y-99750476D01*
X117669523Y-99702857D01*
X117764761Y-99607619D01*
X117812380Y-99464761D01*
X117812380Y-99369523D01*
X117812380Y-100226666D02*
X116812380Y-100226666D01*
X116812380Y-100607619D01*
X116860000Y-100702857D01*
X116907619Y-100750476D01*
X117002857Y-100798095D01*
X117145714Y-100798095D01*
X117240952Y-100750476D01*
X117288571Y-100702857D01*
X117336190Y-100607619D01*
X117336190Y-100226666D01*
X117812380Y-101750476D02*
X117812380Y-101179047D01*
X117812380Y-101464761D02*
X116812380Y-101464761D01*
X116955238Y-101369523D01*
X117050476Y-101274285D01*
X117098095Y-101179047D01*
X116907619Y-102131428D02*
X116860000Y-102179047D01*
X116812380Y-102274285D01*
X116812380Y-102512380D01*
X116860000Y-102607619D01*
X116907619Y-102655238D01*
X117002857Y-102702857D01*
X117098095Y-102702857D01*
X117240952Y-102655238D01*
X117812380Y-102083809D01*
X117812380Y-102702857D01*
%TO.C,JP11*%
X119372380Y-99850476D02*
X120086666Y-99850476D01*
X120229523Y-99802857D01*
X120324761Y-99707619D01*
X120372380Y-99564761D01*
X120372380Y-99469523D01*
X120372380Y-100326666D02*
X119372380Y-100326666D01*
X119372380Y-100707619D01*
X119420000Y-100802857D01*
X119467619Y-100850476D01*
X119562857Y-100898095D01*
X119705714Y-100898095D01*
X119800952Y-100850476D01*
X119848571Y-100802857D01*
X119896190Y-100707619D01*
X119896190Y-100326666D01*
X120372380Y-101850476D02*
X120372380Y-101279047D01*
X120372380Y-101564761D02*
X119372380Y-101564761D01*
X119515238Y-101469523D01*
X119610476Y-101374285D01*
X119658095Y-101279047D01*
X120372380Y-102802857D02*
X120372380Y-102231428D01*
X120372380Y-102517142D02*
X119372380Y-102517142D01*
X119515238Y-102421904D01*
X119610476Y-102326666D01*
X119658095Y-102231428D01*
%TO.C,JP10*%
X121922380Y-99680476D02*
X122636666Y-99680476D01*
X122779523Y-99632857D01*
X122874761Y-99537619D01*
X122922380Y-99394761D01*
X122922380Y-99299523D01*
X122922380Y-100156666D02*
X121922380Y-100156666D01*
X121922380Y-100537619D01*
X121970000Y-100632857D01*
X122017619Y-100680476D01*
X122112857Y-100728095D01*
X122255714Y-100728095D01*
X122350952Y-100680476D01*
X122398571Y-100632857D01*
X122446190Y-100537619D01*
X122446190Y-100156666D01*
X122922380Y-101680476D02*
X122922380Y-101109047D01*
X122922380Y-101394761D02*
X121922380Y-101394761D01*
X122065238Y-101299523D01*
X122160476Y-101204285D01*
X122208095Y-101109047D01*
X121922380Y-102299523D02*
X121922380Y-102394761D01*
X121970000Y-102490000D01*
X122017619Y-102537619D01*
X122112857Y-102585238D01*
X122303333Y-102632857D01*
X122541428Y-102632857D01*
X122731904Y-102585238D01*
X122827142Y-102537619D01*
X122874761Y-102490000D01*
X122922380Y-102394761D01*
X122922380Y-102299523D01*
X122874761Y-102204285D01*
X122827142Y-102156666D01*
X122731904Y-102109047D01*
X122541428Y-102061428D01*
X122303333Y-102061428D01*
X122112857Y-102109047D01*
X122017619Y-102156666D01*
X121970000Y-102204285D01*
X121922380Y-102299523D01*
%TO.C,JP9*%
X124182380Y-99706666D02*
X124896666Y-99706666D01*
X125039523Y-99659047D01*
X125134761Y-99563809D01*
X125182380Y-99420952D01*
X125182380Y-99325714D01*
X125182380Y-100182857D02*
X124182380Y-100182857D01*
X124182380Y-100563809D01*
X124230000Y-100659047D01*
X124277619Y-100706666D01*
X124372857Y-100754285D01*
X124515714Y-100754285D01*
X124610952Y-100706666D01*
X124658571Y-100659047D01*
X124706190Y-100563809D01*
X124706190Y-100182857D01*
X125182380Y-101230476D02*
X125182380Y-101420952D01*
X125134761Y-101516190D01*
X125087142Y-101563809D01*
X124944285Y-101659047D01*
X124753809Y-101706666D01*
X124372857Y-101706666D01*
X124277619Y-101659047D01*
X124230000Y-101611428D01*
X124182380Y-101516190D01*
X124182380Y-101325714D01*
X124230000Y-101230476D01*
X124277619Y-101182857D01*
X124372857Y-101135238D01*
X124610952Y-101135238D01*
X124706190Y-101182857D01*
X124753809Y-101230476D01*
X124801428Y-101325714D01*
X124801428Y-101516190D01*
X124753809Y-101611428D01*
X124706190Y-101659047D01*
X124610952Y-101706666D01*
%TO.C,JP8*%
X118212380Y-65966666D02*
X118926666Y-65966666D01*
X119069523Y-65919047D01*
X119164761Y-65823809D01*
X119212380Y-65680952D01*
X119212380Y-65585714D01*
X119212380Y-66442857D02*
X118212380Y-66442857D01*
X118212380Y-66823809D01*
X118260000Y-66919047D01*
X118307619Y-66966666D01*
X118402857Y-67014285D01*
X118545714Y-67014285D01*
X118640952Y-66966666D01*
X118688571Y-66919047D01*
X118736190Y-66823809D01*
X118736190Y-66442857D01*
X118640952Y-67585714D02*
X118593333Y-67490476D01*
X118545714Y-67442857D01*
X118450476Y-67395238D01*
X118402857Y-67395238D01*
X118307619Y-67442857D01*
X118260000Y-67490476D01*
X118212380Y-67585714D01*
X118212380Y-67776190D01*
X118260000Y-67871428D01*
X118307619Y-67919047D01*
X118402857Y-67966666D01*
X118450476Y-67966666D01*
X118545714Y-67919047D01*
X118593333Y-67871428D01*
X118640952Y-67776190D01*
X118640952Y-67585714D01*
X118688571Y-67490476D01*
X118736190Y-67442857D01*
X118831428Y-67395238D01*
X119021904Y-67395238D01*
X119117142Y-67442857D01*
X119164761Y-67490476D01*
X119212380Y-67585714D01*
X119212380Y-67776190D01*
X119164761Y-67871428D01*
X119117142Y-67919047D01*
X119021904Y-67966666D01*
X118831428Y-67966666D01*
X118736190Y-67919047D01*
X118688571Y-67871428D01*
X118640952Y-67776190D01*
%TO.C,JP7*%
X115712380Y-65916666D02*
X116426666Y-65916666D01*
X116569523Y-65869047D01*
X116664761Y-65773809D01*
X116712380Y-65630952D01*
X116712380Y-65535714D01*
X116712380Y-66392857D02*
X115712380Y-66392857D01*
X115712380Y-66773809D01*
X115760000Y-66869047D01*
X115807619Y-66916666D01*
X115902857Y-66964285D01*
X116045714Y-66964285D01*
X116140952Y-66916666D01*
X116188571Y-66869047D01*
X116236190Y-66773809D01*
X116236190Y-66392857D01*
X115712380Y-67297619D02*
X115712380Y-67964285D01*
X116712380Y-67535714D01*
%TO.C,JP6*%
X113162380Y-65956666D02*
X113876666Y-65956666D01*
X114019523Y-65909047D01*
X114114761Y-65813809D01*
X114162380Y-65670952D01*
X114162380Y-65575714D01*
X114162380Y-66432857D02*
X113162380Y-66432857D01*
X113162380Y-66813809D01*
X113210000Y-66909047D01*
X113257619Y-66956666D01*
X113352857Y-67004285D01*
X113495714Y-67004285D01*
X113590952Y-66956666D01*
X113638571Y-66909047D01*
X113686190Y-66813809D01*
X113686190Y-66432857D01*
X113162380Y-67861428D02*
X113162380Y-67670952D01*
X113210000Y-67575714D01*
X113257619Y-67528095D01*
X113400476Y-67432857D01*
X113590952Y-67385238D01*
X113971904Y-67385238D01*
X114067142Y-67432857D01*
X114114761Y-67480476D01*
X114162380Y-67575714D01*
X114162380Y-67766190D01*
X114114761Y-67861428D01*
X114067142Y-67909047D01*
X113971904Y-67956666D01*
X113733809Y-67956666D01*
X113638571Y-67909047D01*
X113590952Y-67861428D01*
X113543333Y-67766190D01*
X113543333Y-67575714D01*
X113590952Y-67480476D01*
X113638571Y-67432857D01*
X113733809Y-67385238D01*
%TO.C,JP5*%
X121872380Y-83316666D02*
X122586666Y-83316666D01*
X122729523Y-83269047D01*
X122824761Y-83173809D01*
X122872380Y-83030952D01*
X122872380Y-82935714D01*
X122872380Y-83792857D02*
X121872380Y-83792857D01*
X121872380Y-84173809D01*
X121920000Y-84269047D01*
X121967619Y-84316666D01*
X122062857Y-84364285D01*
X122205714Y-84364285D01*
X122300952Y-84316666D01*
X122348571Y-84269047D01*
X122396190Y-84173809D01*
X122396190Y-83792857D01*
X121872380Y-85269047D02*
X121872380Y-84792857D01*
X122348571Y-84745238D01*
X122300952Y-84792857D01*
X122253333Y-84888095D01*
X122253333Y-85126190D01*
X122300952Y-85221428D01*
X122348571Y-85269047D01*
X122443809Y-85316666D01*
X122681904Y-85316666D01*
X122777142Y-85269047D01*
X122824761Y-85221428D01*
X122872380Y-85126190D01*
X122872380Y-84888095D01*
X122824761Y-84792857D01*
X122777142Y-84745238D01*
%TO.C,JP4*%
X119382380Y-83266666D02*
X120096666Y-83266666D01*
X120239523Y-83219047D01*
X120334761Y-83123809D01*
X120382380Y-82980952D01*
X120382380Y-82885714D01*
X120382380Y-83742857D02*
X119382380Y-83742857D01*
X119382380Y-84123809D01*
X119430000Y-84219047D01*
X119477619Y-84266666D01*
X119572857Y-84314285D01*
X119715714Y-84314285D01*
X119810952Y-84266666D01*
X119858571Y-84219047D01*
X119906190Y-84123809D01*
X119906190Y-83742857D01*
X119715714Y-85171428D02*
X120382380Y-85171428D01*
X119334761Y-84933333D02*
X120049047Y-84695238D01*
X120049047Y-85314285D01*
%TO.C,JP3*%
X116912380Y-83266666D02*
X117626666Y-83266666D01*
X117769523Y-83219047D01*
X117864761Y-83123809D01*
X117912380Y-82980952D01*
X117912380Y-82885714D01*
X117912380Y-83742857D02*
X116912380Y-83742857D01*
X116912380Y-84123809D01*
X116960000Y-84219047D01*
X117007619Y-84266666D01*
X117102857Y-84314285D01*
X117245714Y-84314285D01*
X117340952Y-84266666D01*
X117388571Y-84219047D01*
X117436190Y-84123809D01*
X117436190Y-83742857D01*
X116912380Y-84647619D02*
X116912380Y-85266666D01*
X117293333Y-84933333D01*
X117293333Y-85076190D01*
X117340952Y-85171428D01*
X117388571Y-85219047D01*
X117483809Y-85266666D01*
X117721904Y-85266666D01*
X117817142Y-85219047D01*
X117864761Y-85171428D01*
X117912380Y-85076190D01*
X117912380Y-84790476D01*
X117864761Y-84695238D01*
X117817142Y-84647619D01*
%TD*%
M02*
