M48
; DRILL file {KiCad (5.1.10)-1} date 12/09/21 17:34:36
; FORMAT={-:-/ absolute / inch / decimal}
; #@! TF.CreationDate,2021-12-09T17:34:36+08:00
; #@! TF.GenerationSoftware,Kicad,Pcbnew,(5.1.10)-1
FMAT,2
INCH
T1C0.0157
T2C0.0394
T3C0.0433
T4C0.0984
%
G90
G05
T1
X3.5724Y-2.9839
X3.6685Y-3.2087
X3.688Y-2.9864
X3.9043Y-2.9709
X3.9449Y-2.9024
X4.0075Y-3.1268
X4.0264Y-3.5358
X4.072Y-2.9335
X4.0728Y-2.6945
X4.1177Y-2.6551
X4.1591Y-2.7583
X4.1705Y-2.4699
X4.1772Y-2.5539
X4.1941Y-3.3323
X4.1959Y-2.5949
X4.2047Y-3.0157
X4.302Y-2.527
X4.3071Y-2.5705
X4.3445Y-2.6957
X4.3622Y-2.7472
X4.4118Y-4.1004
X4.511Y-3.1343
X4.5228Y-3.1811
X4.5492Y-3.2657
X4.6339Y-3.9421
X4.6402Y-4.0323
X4.7104Y-2.5278
X4.7728Y-2.7343
X4.815Y-3.7343
X4.8154Y-3.9136
X4.841Y-2.7599
X4.8955Y-3.9136
X4.9358Y-3.9524
X5.0071Y-2.7579
X5.0079Y-2.6421
X5.2917Y-2.574
X5.3685Y-4.0547
T2
X3.5974Y-3.622
X3.5996Y-2.6476
X3.6974Y-3.622
X3.6996Y-2.6476
X3.7559Y-3.8927
X3.7598Y-2.2819
X3.7598Y-2.3819
X3.7974Y-3.622
X3.7996Y-2.6476
X3.8157Y-4.1732
X3.8157Y-4.2732
X3.8598Y-2.2819
X3.8598Y-2.3819
X3.8974Y-3.622
X3.8996Y-2.6476
X3.9157Y-4.1732
X3.9157Y-4.2732
X3.9598Y-2.2819
X3.9598Y-2.3819
X3.9974Y-3.622
X3.9996Y-2.6476
X4.0157Y-4.1732
X4.0157Y-4.2732
X4.0598Y-2.2819
X4.0598Y-2.3819
X4.1598Y-2.2819
X4.1598Y-2.3819
X4.2598Y-2.2819
X4.2598Y-2.3819
X4.3598Y-2.2819
X4.3598Y-2.3819
X4.3638Y-4.2717
X4.3701Y-3.2039
X4.3701Y-3.3039
X4.3701Y-3.4039
X4.3701Y-3.5039
X4.4598Y-2.2819
X4.4598Y-2.3819
X4.4638Y-4.2717
X4.5598Y-2.2819
X4.5598Y-2.3819
X4.5638Y-4.2717
X4.6598Y-2.2819
X4.6598Y-2.3819
X4.6638Y-4.2717
X4.7598Y-2.2819
X4.7598Y-2.3819
X4.7638Y-4.2717
X4.8598Y-2.2819
X4.8598Y-2.3819
X4.8638Y-4.2717
X4.9598Y-2.2819
X4.9598Y-2.3819
X5.0598Y-2.2819
X5.0598Y-2.3819
X5.1598Y-2.2819
X5.1598Y-2.3819
X5.2598Y-2.2819
X5.2598Y-2.3819
X5.3528Y-2.6634
X5.3528Y-2.7634
X5.3528Y-2.8634
X5.3598Y-2.2819
X5.3598Y-2.3819
X5.4528Y-2.6634
X5.4528Y-2.7634
X5.4528Y-2.8634
X5.4598Y-2.2819
X5.4598Y-2.3819
X5.5598Y-2.2819
X5.5598Y-2.3819
X5.6598Y-2.2819
X5.6598Y-2.3819
X5.7087Y-2.6378
X5.7087Y-2.7378
T3
X4.5159Y-3.0465
X4.5159Y-3.6465
X4.6159Y-3.0465
X4.6159Y-3.6465
X4.7159Y-3.0465
X4.7159Y-3.6465
X4.8159Y-3.0465
X4.8159Y-3.6465
X4.9159Y-3.0465
X4.9159Y-3.6465
X5.0159Y-3.0465
X5.0159Y-3.6465
X5.1159Y-3.0465
X5.1159Y-3.6465
X5.2159Y-3.0465
X5.2159Y-3.6465
X5.3159Y-3.0465
X5.3159Y-3.6465
X5.4159Y-3.0465
X5.4159Y-3.6465
X5.5159Y-3.0465
X5.5159Y-3.6465
X5.6159Y-3.0465
X5.6159Y-3.6465
T4
X3.563Y-2.3228
X3.563Y-4.252
X5.8425Y-4.252
X5.8465Y-2.3228
T0
M30
