%TF.GenerationSoftware,KiCad,Pcbnew,(5.1.10)-1*%
%TF.CreationDate,2022-01-27T16:25:42+08:00*%
%TF.ProjectId,hat,6861742e-6b69-4636-9164-5f7063625858,rev?*%
%TF.SameCoordinates,Original*%
%TF.FileFunction,Paste,Top*%
%TF.FilePolarity,Positive*%
%FSLAX46Y46*%
G04 Gerber Fmt 4.6, Leading zero omitted, Abs format (unit mm)*
G04 Created by KiCad (PCBNEW (5.1.10)-1) date 2022-01-27 16:25:42*
%MOMM*%
%LPD*%
G01*
G04 APERTURE LIST*
%ADD10R,1.524000X2.000000*%
%ADD11R,3.000000X1.524000*%
%ADD12R,1.260000X0.650000*%
%ADD13R,2.200000X1.550000*%
%ADD14R,1.500000X1.000000*%
G04 APERTURE END LIST*
D10*
%TO.C,SW1*%
X103000000Y-69000000D03*
X99000000Y-69000000D03*
X99000000Y-65000000D03*
X103000000Y-65000000D03*
%TD*%
D11*
%TO.C,U1*%
X175000000Y-79000000D03*
X175000000Y-77000000D03*
X175000000Y-75000000D03*
X175000000Y-73000000D03*
X175000000Y-71000000D03*
X175000000Y-69000000D03*
X175000000Y-67000000D03*
X175000000Y-65000000D03*
X159000000Y-79000000D03*
X159000000Y-77000000D03*
X159000000Y-73000000D03*
X159000000Y-71000000D03*
X159000000Y-69000000D03*
X159000000Y-67000000D03*
X159000000Y-65000000D03*
%TD*%
%TO.C,C4*%
G36*
G01*
X111725000Y-86350000D02*
X112675000Y-86350000D01*
G75*
G02*
X112925000Y-86600000I0J-250000D01*
G01*
X112925000Y-87275000D01*
G75*
G02*
X112675000Y-87525000I-250000J0D01*
G01*
X111725000Y-87525000D01*
G75*
G02*
X111475000Y-87275000I0J250000D01*
G01*
X111475000Y-86600000D01*
G75*
G02*
X111725000Y-86350000I250000J0D01*
G01*
G37*
G36*
G01*
X111725000Y-84275000D02*
X112675000Y-84275000D01*
G75*
G02*
X112925000Y-84525000I0J-250000D01*
G01*
X112925000Y-85200000D01*
G75*
G02*
X112675000Y-85450000I-250000J0D01*
G01*
X111725000Y-85450000D01*
G75*
G02*
X111475000Y-85200000I0J250000D01*
G01*
X111475000Y-84525000D01*
G75*
G02*
X111725000Y-84275000I250000J0D01*
G01*
G37*
%TD*%
%TO.C,C3*%
G36*
G01*
X105875000Y-85387500D02*
X104925000Y-85387500D01*
G75*
G02*
X104675000Y-85137500I0J250000D01*
G01*
X104675000Y-84462500D01*
G75*
G02*
X104925000Y-84212500I250000J0D01*
G01*
X105875000Y-84212500D01*
G75*
G02*
X106125000Y-84462500I0J-250000D01*
G01*
X106125000Y-85137500D01*
G75*
G02*
X105875000Y-85387500I-250000J0D01*
G01*
G37*
G36*
G01*
X105875000Y-87462500D02*
X104925000Y-87462500D01*
G75*
G02*
X104675000Y-87212500I0J250000D01*
G01*
X104675000Y-86537500D01*
G75*
G02*
X104925000Y-86287500I250000J0D01*
G01*
X105875000Y-86287500D01*
G75*
G02*
X106125000Y-86537500I0J-250000D01*
G01*
X106125000Y-87212500D01*
G75*
G02*
X105875000Y-87462500I-250000J0D01*
G01*
G37*
%TD*%
%TO.C,R3*%
G36*
G01*
X127400000Y-88450001D02*
X127400000Y-87549999D01*
G75*
G02*
X127649999Y-87300000I249999J0D01*
G01*
X128350001Y-87300000D01*
G75*
G02*
X128600000Y-87549999I0J-249999D01*
G01*
X128600000Y-88450001D01*
G75*
G02*
X128350001Y-88700000I-249999J0D01*
G01*
X127649999Y-88700000D01*
G75*
G02*
X127400000Y-88450001I0J249999D01*
G01*
G37*
G36*
G01*
X125400000Y-88450001D02*
X125400000Y-87549999D01*
G75*
G02*
X125649999Y-87300000I249999J0D01*
G01*
X126350001Y-87300000D01*
G75*
G02*
X126600000Y-87549999I0J-249999D01*
G01*
X126600000Y-88450001D01*
G75*
G02*
X126350001Y-88700000I-249999J0D01*
G01*
X125649999Y-88700000D01*
G75*
G02*
X125400000Y-88450001I0J249999D01*
G01*
G37*
%TD*%
%TO.C,R4*%
G36*
G01*
X127400000Y-93450001D02*
X127400000Y-92549999D01*
G75*
G02*
X127649999Y-92300000I249999J0D01*
G01*
X128350001Y-92300000D01*
G75*
G02*
X128600000Y-92549999I0J-249999D01*
G01*
X128600000Y-93450001D01*
G75*
G02*
X128350001Y-93700000I-249999J0D01*
G01*
X127649999Y-93700000D01*
G75*
G02*
X127400000Y-93450001I0J249999D01*
G01*
G37*
G36*
G01*
X125400000Y-93450001D02*
X125400000Y-92549999D01*
G75*
G02*
X125649999Y-92300000I249999J0D01*
G01*
X126350001Y-92300000D01*
G75*
G02*
X126600000Y-92549999I0J-249999D01*
G01*
X126600000Y-93450001D01*
G75*
G02*
X126350001Y-93700000I-249999J0D01*
G01*
X125649999Y-93700000D01*
G75*
G02*
X125400000Y-93450001I0J249999D01*
G01*
G37*
%TD*%
D12*
%TO.C,U4*%
X109600000Y-84950000D03*
X109600000Y-86850000D03*
X107400000Y-86850000D03*
X107400000Y-85900000D03*
X107400000Y-84950000D03*
%TD*%
D13*
%TO.C,U2*%
X177600000Y-90725000D03*
D14*
X179450000Y-89000000D03*
D13*
X177600000Y-87275000D03*
D14*
X175850000Y-89000000D03*
%TD*%
M02*
