%TF.GenerationSoftware,KiCad,Pcbnew,(5.1.10)-1*%
%TF.CreationDate,2022-01-27T16:25:42+08:00*%
%TF.ProjectId,hat,6861742e-6b69-4636-9164-5f7063625858,rev?*%
%TF.SameCoordinates,Original*%
%TF.FileFunction,Copper,L2,Bot*%
%TF.FilePolarity,Positive*%
%FSLAX46Y46*%
G04 Gerber Fmt 4.6, Leading zero omitted, Abs format (unit mm)*
G04 Created by KiCad (PCBNEW (5.1.10)-1) date 2022-01-27 16:25:42*
%MOMM*%
%LPD*%
G01*
G04 APERTURE LIST*
%TA.AperFunction,EtchedComponent*%
%ADD10C,0.100000*%
%TD*%
%TA.AperFunction,SMDPad,CuDef*%
%ADD11R,1.000000X1.500000*%
%TD*%
%TA.AperFunction,ComponentPad*%
%ADD12C,1.600000*%
%TD*%
%TA.AperFunction,ComponentPad*%
%ADD13R,1.600000X1.600000*%
%TD*%
%TA.AperFunction,ComponentPad*%
%ADD14C,6.000000*%
%TD*%
%TA.AperFunction,ComponentPad*%
%ADD15O,1.700000X1.700000*%
%TD*%
%TA.AperFunction,ComponentPad*%
%ADD16R,1.700000X1.700000*%
%TD*%
%TA.AperFunction,ViaPad*%
%ADD17C,0.800000*%
%TD*%
%TA.AperFunction,Conductor*%
%ADD18C,0.250000*%
%TD*%
%TA.AperFunction,Conductor*%
%ADD19C,0.254000*%
%TD*%
%TA.AperFunction,Conductor*%
%ADD20C,0.100000*%
%TD*%
G04 APERTURE END LIST*
D10*
%TO.C,JP2*%
G36*
X125540000Y-77900000D02*
G01*
X126040000Y-77900000D01*
X126040000Y-77300000D01*
X125540000Y-77300000D01*
X125540000Y-77900000D01*
G37*
G36*
X124240000Y-77900000D02*
G01*
X124740000Y-77900000D01*
X124740000Y-77300000D01*
X124240000Y-77300000D01*
X124240000Y-77900000D01*
G37*
%TO.C,JP1*%
G36*
X119120000Y-77880000D02*
G01*
X119620000Y-77880000D01*
X119620000Y-77280000D01*
X119120000Y-77280000D01*
X119120000Y-77880000D01*
G37*
G36*
X117820000Y-77880000D02*
G01*
X118320000Y-77880000D01*
X118320000Y-77280000D01*
X117820000Y-77280000D01*
X117820000Y-77880000D01*
G37*
%TO.C,JP12*%
G36*
X149750000Y-70800000D02*
G01*
X150250000Y-70800000D01*
X150250000Y-70400000D01*
X149750000Y-70400000D01*
X149750000Y-70800000D01*
G37*
G36*
X149750000Y-71600000D02*
G01*
X150250000Y-71600000D01*
X150250000Y-71200000D01*
X149750000Y-71200000D01*
X149750000Y-71600000D01*
G37*
%TO.C,JP9*%
G36*
X149750000Y-73800000D02*
G01*
X150250000Y-73800000D01*
X150250000Y-73400000D01*
X149750000Y-73400000D01*
X149750000Y-73800000D01*
G37*
G36*
X149750000Y-74600000D02*
G01*
X150250000Y-74600000D01*
X150250000Y-74200000D01*
X149750000Y-74200000D01*
X149750000Y-74600000D01*
G37*
%TD*%
D11*
%TO.P,JP2,1*%
%TO.N,/PI_SCL*%
X123840000Y-77600000D03*
%TO.P,JP2,3*%
%TO.N,/MCU_SCL*%
X126440000Y-77600000D03*
%TO.P,JP2,2*%
%TO.N,/SCL*%
X125140000Y-77600000D03*
%TD*%
%TO.P,JP1,1*%
%TO.N,/PI_SDA*%
X117420000Y-77580000D03*
%TO.P,JP1,3*%
%TO.N,/MCU_SDA*%
X120020000Y-77580000D03*
%TO.P,JP1,2*%
%TO.N,/SDA*%
X118720000Y-77580000D03*
%TD*%
D12*
%TO.P,U3,24*%
%TO.N,Net-(U3-Pad24)*%
X113030000Y-66380000D03*
%TO.P,U3,23*%
%TO.N,GND*%
X115570000Y-66380000D03*
%TO.P,U3,22*%
%TO.N,Net-(SW1-Pad1)*%
X118110000Y-66380000D03*
%TO.P,U3,21*%
%TO.N,/MCU_3.3V*%
X120650000Y-66380000D03*
%TO.P,U3,20*%
%TO.N,Net-(U3-Pad20)*%
X123190000Y-66380000D03*
%TO.P,U3,19*%
%TO.N,Net-(U3-Pad19)*%
X125730000Y-66380000D03*
%TO.P,U3,18*%
%TO.N,/OPT_RST*%
X128270000Y-66380000D03*
%TO.P,U3,17*%
%TO.N,/MCU_CS*%
X130810000Y-66380000D03*
%TO.P,U3,16*%
%TO.N,/MCU_SCK*%
X133350000Y-66380000D03*
%TO.P,U3,15*%
%TO.N,/MCU_MISO*%
X135890000Y-66380000D03*
%TO.P,U3,14*%
%TO.N,/MCU_MOSI*%
X138430000Y-66380000D03*
%TO.P,U3,13*%
%TO.N,Net-(U3-Pad13)*%
X140970000Y-66380000D03*
%TO.P,U3,12*%
%TO.N,Net-(U3-Pad12)*%
X140970000Y-81620000D03*
%TO.P,U3,11*%
%TO.N,Net-(U3-Pad11)*%
X138430000Y-81620000D03*
%TO.P,U3,10*%
%TO.N,Net-(U3-Pad10)*%
X135890000Y-81620000D03*
%TO.P,U3,9*%
%TO.N,Net-(U3-Pad9)*%
X133350000Y-81620000D03*
%TO.P,U3,8*%
%TO.N,Net-(U3-Pad8)*%
X130810000Y-81620000D03*
%TO.P,U3,7*%
%TO.N,Net-(U3-Pad7)*%
X128270000Y-81620000D03*
%TO.P,U3,6*%
%TO.N,/MCU_SCL*%
X125730000Y-81620000D03*
%TO.P,U3,5*%
%TO.N,/MCU_SDA*%
X123190000Y-81620000D03*
%TO.P,U3,4*%
%TO.N,GND*%
X120650000Y-81620000D03*
%TO.P,U3,3*%
X118110000Y-81620000D03*
%TO.P,U3,2*%
%TO.N,Net-(U3-Pad2)*%
X115570000Y-81620000D03*
D13*
%TO.P,U3,1*%
%TO.N,Net-(U3-Pad1)*%
X113030000Y-81620000D03*
%TD*%
%TO.P,C2,2*%
%TO.N,GND*%
%TA.AperFunction,SMDPad,CuDef*%
G36*
G01*
X168525000Y-74450000D02*
X169475000Y-74450000D01*
G75*
G02*
X169725000Y-74700000I0J-250000D01*
G01*
X169725000Y-75375000D01*
G75*
G02*
X169475000Y-75625000I-250000J0D01*
G01*
X168525000Y-75625000D01*
G75*
G02*
X168275000Y-75375000I0J250000D01*
G01*
X168275000Y-74700000D01*
G75*
G02*
X168525000Y-74450000I250000J0D01*
G01*
G37*
%TD.AperFunction*%
%TO.P,C2,1*%
%TO.N,3.3V*%
%TA.AperFunction,SMDPad,CuDef*%
G36*
G01*
X168525000Y-72375000D02*
X169475000Y-72375000D01*
G75*
G02*
X169725000Y-72625000I0J-250000D01*
G01*
X169725000Y-73300000D01*
G75*
G02*
X169475000Y-73550000I-250000J0D01*
G01*
X168525000Y-73550000D01*
G75*
G02*
X168275000Y-73300000I0J250000D01*
G01*
X168275000Y-72625000D01*
G75*
G02*
X168525000Y-72375000I250000J0D01*
G01*
G37*
%TD.AperFunction*%
%TD*%
%TO.P,C1,2*%
%TO.N,GND*%
%TA.AperFunction,SMDPad,CuDef*%
G36*
G01*
X170525000Y-74450000D02*
X171475000Y-74450000D01*
G75*
G02*
X171725000Y-74700000I0J-250000D01*
G01*
X171725000Y-75375000D01*
G75*
G02*
X171475000Y-75625000I-250000J0D01*
G01*
X170525000Y-75625000D01*
G75*
G02*
X170275000Y-75375000I0J250000D01*
G01*
X170275000Y-74700000D01*
G75*
G02*
X170525000Y-74450000I250000J0D01*
G01*
G37*
%TD.AperFunction*%
%TO.P,C1,1*%
%TO.N,3.3V*%
%TA.AperFunction,SMDPad,CuDef*%
G36*
G01*
X170525000Y-72375000D02*
X171475000Y-72375000D01*
G75*
G02*
X171725000Y-72625000I0J-250000D01*
G01*
X171725000Y-73300000D01*
G75*
G02*
X171475000Y-73550000I-250000J0D01*
G01*
X170525000Y-73550000D01*
G75*
G02*
X170275000Y-73300000I0J250000D01*
G01*
X170275000Y-72625000D01*
G75*
G02*
X170525000Y-72375000I250000J0D01*
G01*
G37*
%TD.AperFunction*%
%TD*%
%TO.P,R1,2*%
%TO.N,/RFM_RST*%
%TA.AperFunction,SMDPad,CuDef*%
G36*
G01*
X162600000Y-74549999D02*
X162600000Y-75450001D01*
G75*
G02*
X162350001Y-75700000I-249999J0D01*
G01*
X161649999Y-75700000D01*
G75*
G02*
X161400000Y-75450001I0J249999D01*
G01*
X161400000Y-74549999D01*
G75*
G02*
X161649999Y-74300000I249999J0D01*
G01*
X162350001Y-74300000D01*
G75*
G02*
X162600000Y-74549999I0J-249999D01*
G01*
G37*
%TD.AperFunction*%
%TO.P,R1,1*%
%TO.N,3.3V*%
%TA.AperFunction,SMDPad,CuDef*%
G36*
G01*
X164600000Y-74549999D02*
X164600000Y-75450001D01*
G75*
G02*
X164350001Y-75700000I-249999J0D01*
G01*
X163649999Y-75700000D01*
G75*
G02*
X163400000Y-75450001I0J249999D01*
G01*
X163400000Y-74549999D01*
G75*
G02*
X163649999Y-74300000I249999J0D01*
G01*
X164350001Y-74300000D01*
G75*
G02*
X164600000Y-74549999I0J-249999D01*
G01*
G37*
%TD.AperFunction*%
%TD*%
%TO.P,R2,2*%
%TO.N,/RFM_CS*%
%TA.AperFunction,SMDPad,CuDef*%
G36*
G01*
X162600000Y-72549999D02*
X162600000Y-73450001D01*
G75*
G02*
X162350001Y-73700000I-249999J0D01*
G01*
X161649999Y-73700000D01*
G75*
G02*
X161400000Y-73450001I0J249999D01*
G01*
X161400000Y-72549999D01*
G75*
G02*
X161649999Y-72300000I249999J0D01*
G01*
X162350001Y-72300000D01*
G75*
G02*
X162600000Y-72549999I0J-249999D01*
G01*
G37*
%TD.AperFunction*%
%TO.P,R2,1*%
%TO.N,3.3V*%
%TA.AperFunction,SMDPad,CuDef*%
G36*
G01*
X164600000Y-72549999D02*
X164600000Y-73450001D01*
G75*
G02*
X164350001Y-73700000I-249999J0D01*
G01*
X163649999Y-73700000D01*
G75*
G02*
X163400000Y-73450001I0J249999D01*
G01*
X163400000Y-72549999D01*
G75*
G02*
X163649999Y-72300000I249999J0D01*
G01*
X164350001Y-72300000D01*
G75*
G02*
X164600000Y-72549999I0J-249999D01*
G01*
G37*
%TD.AperFunction*%
%TD*%
D14*
%TO.P,H3,1*%
%TO.N,Net-(H3-Pad1)*%
X186000000Y-77000000D03*
%TD*%
D15*
%TO.P,SPI_PORT1,6*%
%TO.N,/MCU_SCK*%
X140620000Y-62000000D03*
%TO.P,SPI_PORT1,5*%
%TO.N,/MCU_MOSI*%
X138080000Y-62000000D03*
%TO.P,SPI_PORT1,4*%
%TO.N,/MCU_MISO*%
X135540000Y-62000000D03*
%TO.P,SPI_PORT1,3*%
%TO.N,/OPT_RST*%
X133000000Y-62000000D03*
%TO.P,SPI_PORT1,2*%
%TO.N,/SPI_PORT_RST*%
X130460000Y-62000000D03*
D16*
%TO.P,SPI_PORT1,1*%
%TO.N,5V*%
X127920000Y-62000000D03*
%TD*%
D15*
%TO.P,SDA_PU1,3*%
%TO.N,3.3V*%
X136550000Y-88150000D03*
%TO.P,SDA_PU1,2*%
%TO.N,/SDA*%
X134010000Y-88150000D03*
D16*
%TO.P,SDA_PU1,1*%
%TO.N,Net-(R3-Pad2)*%
X131470000Y-88150000D03*
%TD*%
D15*
%TO.P,SCL_PU1,3*%
%TO.N,3.3V*%
X136550000Y-92800000D03*
%TO.P,SCL_PU1,2*%
%TO.N,/SCL*%
X134010000Y-92800000D03*
D16*
%TO.P,SCL_PU1,1*%
%TO.N,Net-(R4-Pad2)*%
X131470000Y-92800000D03*
%TD*%
D11*
%TO.P,JP13,1*%
%TO.N,/OPT_RST*%
X130700000Y-71000000D03*
%TO.P,JP13,2*%
%TO.N,/RFM_RST*%
X132000000Y-71000000D03*
%TD*%
%TO.P,JP12,2*%
%TO.N,/RFM_MOSI*%
X150650000Y-71000000D03*
%TO.P,JP12,1*%
%TO.N,/MCU_MOSI*%
X149350000Y-71000000D03*
%TD*%
%TO.P,JP9,2*%
%TO.N,/RFM_CS*%
X150650000Y-74000000D03*
%TO.P,JP9,1*%
%TO.N,/MCU_CS*%
X149350000Y-74000000D03*
%TD*%
%TO.P,JP8,1*%
%TO.N,/PI_SCK*%
X105740000Y-81570000D03*
%TO.P,JP8,2*%
%TO.N,/RFM_SCK*%
X107040000Y-81570000D03*
%TD*%
%TO.P,JP7,1*%
%TO.N,/PI_MISO*%
X105750000Y-84080000D03*
%TO.P,JP7,2*%
%TO.N,/RFM_MISO*%
X107050000Y-84080000D03*
%TD*%
%TO.P,JP6,1*%
%TO.N,/PI_MOSI*%
X105750000Y-91600000D03*
%TO.P,JP6,2*%
%TO.N,/RFM_MOSI*%
X107050000Y-91600000D03*
%TD*%
%TO.P,JP5,1*%
%TO.N,/PI_SCK*%
X105750000Y-79070000D03*
%TO.P,JP5,2*%
%TO.N,/MCU_SCK*%
X107050000Y-79070000D03*
%TD*%
%TO.P,JP4,1*%
%TO.N,/PI_MISO*%
X105750000Y-86590000D03*
%TO.P,JP4,2*%
%TO.N,/MCU_MISO*%
X107050000Y-86590000D03*
%TD*%
%TO.P,JP3,1*%
%TO.N,/PI_MOSI*%
X105750000Y-89090000D03*
%TO.P,JP3,2*%
%TO.N,/MCU_MOSI*%
X107050000Y-89090000D03*
%TD*%
D15*
%TO.P,J6,5*%
%TO.N,/RFM_MISO*%
X154000000Y-66460000D03*
%TO.P,J6,4*%
%TO.N,/RFM_MOSI*%
X154000000Y-69000000D03*
%TO.P,J6,3*%
%TO.N,/RFM_SCK*%
X154000000Y-71540000D03*
%TO.P,J6,2*%
%TO.N,/RFM_CS*%
X154000000Y-74080000D03*
D16*
%TO.P,J6,1*%
%TO.N,/RFM_RST*%
X154000000Y-76620000D03*
%TD*%
D15*
%TO.P,J5,5*%
%TO.N,/DIO3*%
X179200000Y-72560000D03*
%TO.P,J5,4*%
%TO.N,/DIO4*%
X179200000Y-70020000D03*
%TO.P,J5,3*%
%TO.N,/DIO0*%
X179200000Y-67480000D03*
%TO.P,J5,2*%
%TO.N,/DIO1*%
X179200000Y-64940000D03*
D16*
%TO.P,J5,1*%
%TO.N,/DIO2*%
X179200000Y-62400000D03*
%TD*%
D15*
%TO.P,J4,6*%
%TO.N,GND*%
X116920000Y-93000000D03*
%TO.P,J4,5*%
%TO.N,3.3V*%
X116920000Y-90460000D03*
%TO.P,J4,4*%
%TO.N,GND*%
X119460000Y-93000000D03*
%TO.P,J4,3*%
%TO.N,3.3V*%
X119460000Y-90460000D03*
%TO.P,J4,2*%
%TO.N,GND*%
X122000000Y-93000000D03*
D16*
%TO.P,J4,1*%
%TO.N,3.3V*%
X122000000Y-90460000D03*
%TD*%
D15*
%TO.P,J3,2*%
%TO.N,3.3V*%
X121000000Y-62000000D03*
D16*
%TO.P,J3,1*%
%TO.N,/MCU_3.3V*%
X118460000Y-62000000D03*
%TD*%
%TO.P,J2,1*%
%TO.N,Net-(J2-Pad1)*%
X175200000Y-83600000D03*
%TD*%
D15*
%TO.P,J1,40*%
%TO.N,/GPIO21*%
X98460000Y-81740000D03*
%TO.P,J1,39*%
%TO.N,GND*%
X101000000Y-81740000D03*
%TO.P,J1,38*%
%TO.N,/GPIO20*%
X98460000Y-84280000D03*
%TO.P,J1,37*%
%TO.N,/GPIO26*%
X101000000Y-84280000D03*
%TO.P,J1,36*%
%TO.N,/GPIO16*%
X98460000Y-86820000D03*
%TO.P,J1,35*%
%TO.N,/GPIO19*%
X101000000Y-86820000D03*
%TO.P,J1,34*%
%TO.N,GND*%
X98460000Y-89360000D03*
%TO.P,J1,33*%
%TO.N,/GPIO13*%
X101000000Y-89360000D03*
%TO.P,J1,32*%
%TO.N,/GPIO12*%
X98460000Y-91900000D03*
%TO.P,J1,31*%
%TO.N,/GPIO6*%
X101000000Y-91900000D03*
%TO.P,J1,30*%
%TO.N,GND*%
X98460000Y-94440000D03*
%TO.P,J1,29*%
%TO.N,/GPIO5*%
X101000000Y-94440000D03*
%TO.P,J1,28*%
%TO.N,/GPIO1*%
X98460000Y-96980000D03*
%TO.P,J1,27*%
%TO.N,/GPIO0*%
X101000000Y-96980000D03*
%TO.P,J1,26*%
%TO.N,/GPIO7*%
X98460000Y-99520000D03*
%TO.P,J1,25*%
%TO.N,GND*%
X101000000Y-99520000D03*
%TO.P,J1,24*%
%TO.N,/GPIO8*%
X98460000Y-102060000D03*
%TO.P,J1,23*%
%TO.N,/PI_SCK*%
X101000000Y-102060000D03*
%TO.P,J1,22*%
%TO.N,/GPIO25*%
X98460000Y-104600000D03*
%TO.P,J1,21*%
%TO.N,/PI_MISO*%
X101000000Y-104600000D03*
%TO.P,J1,20*%
%TO.N,GND*%
X98460000Y-107140000D03*
%TO.P,J1,19*%
%TO.N,/PI_MOSI*%
X101000000Y-107140000D03*
%TO.P,J1,18*%
%TO.N,/GPIO24*%
X98460000Y-109680000D03*
%TO.P,J1,17*%
%TO.N,/PI_3.3V*%
X101000000Y-109680000D03*
%TO.P,J1,16*%
%TO.N,/GPIO23*%
X98460000Y-112220000D03*
%TO.P,J1,15*%
%TO.N,/GPIO22*%
X101000000Y-112220000D03*
%TO.P,J1,14*%
%TO.N,GND*%
X98460000Y-114760000D03*
%TO.P,J1,13*%
%TO.N,/GPIO27*%
X101000000Y-114760000D03*
%TO.P,J1,12*%
%TO.N,/GPIO18*%
X98460000Y-117300000D03*
%TO.P,J1,11*%
%TO.N,/GPIO17*%
X101000000Y-117300000D03*
%TO.P,J1,10*%
%TO.N,/GPIO15*%
X98460000Y-119840000D03*
%TO.P,J1,9*%
%TO.N,GND*%
X101000000Y-119840000D03*
%TO.P,J1,8*%
%TO.N,/GPIO14*%
X98460000Y-122380000D03*
%TO.P,J1,7*%
%TO.N,/GPIO4*%
X101000000Y-122380000D03*
%TO.P,J1,6*%
%TO.N,GND*%
X98460000Y-124920000D03*
%TO.P,J1,5*%
%TO.N,/PI_SCL*%
X101000000Y-124920000D03*
%TO.P,J1,4*%
%TO.N,5V*%
X98460000Y-127460000D03*
%TO.P,J1,3*%
%TO.N,/PI_SDA*%
X101000000Y-127460000D03*
%TO.P,J1,2*%
%TO.N,5V*%
X98460000Y-130000000D03*
D16*
%TO.P,J1,1*%
%TO.N,/PI_3.3V*%
X101000000Y-130000000D03*
%TD*%
D15*
%TO.P,I2C_PORT1,4*%
%TO.N,/SDA*%
X146000000Y-77620000D03*
%TO.P,I2C_PORT1,3*%
%TO.N,/SCL*%
X146000000Y-75080000D03*
%TO.P,I2C_PORT1,2*%
%TO.N,3.3V*%
X146000000Y-72540000D03*
D16*
%TO.P,I2C_PORT1,1*%
%TO.N,GND*%
X146000000Y-70000000D03*
%TD*%
D14*
%TO.P,H2,1*%
%TO.N,Net-(H2-Pad1)*%
X100000000Y-77000000D03*
%TD*%
%TO.P,H1,1*%
%TO.N,Net-(H1-Pad1)*%
X100000000Y-135000000D03*
%TD*%
D15*
%TO.P,FAN1,2*%
%TO.N,GND*%
X93000000Y-127460000D03*
D16*
%TO.P,FAN1,1*%
%TO.N,5V*%
X93000000Y-130000000D03*
%TD*%
D17*
%TO.N,GND*%
X143740000Y-76580000D03*
X159000000Y-80400000D03*
X171500000Y-77000000D03*
%TO.N,3.3V*%
X148200000Y-85110000D03*
X164000000Y-76400000D03*
X172000000Y-71000000D03*
%TO.N,5V*%
X95100000Y-73800000D03*
%TO.N,/SDA*%
X119960000Y-79570000D03*
X142610000Y-79570000D03*
%TO.N,/PI_SCL*%
X110660000Y-92800000D03*
%TO.N,/PI_SDA*%
X111620000Y-93650000D03*
%TO.N,/RFM_MISO*%
X114630000Y-75810000D03*
X132570000Y-73270000D03*
X140350000Y-71770000D03*
%TO.N,/RFM_MOSI*%
X160000000Y-69000000D03*
%TO.N,/RFM_SCK*%
X138093548Y-74498854D03*
%TO.N,/RFM_CS*%
X161000000Y-73000000D03*
%TO.N,/RFM_RST*%
X161000000Y-75000000D03*
%TO.N,/MCU_MOSI*%
X149580000Y-75810000D03*
X149350000Y-71000000D03*
X147400000Y-67800000D03*
%TO.N,/MCU_MISO*%
X111362653Y-76605000D03*
X115405001Y-72544999D03*
X136200000Y-71800000D03*
%TO.N,/MCU_SCK*%
X125700000Y-69600000D03*
%TO.N,/MCU_CS*%
X148800000Y-74000000D03*
%TO.N,Net-(SW1-Pad1)*%
X105100000Y-69300000D03*
%TD*%
D18*
%TO.N,GND*%
X141884999Y-78435001D02*
X143740000Y-76580000D01*
X142760000Y-81290000D02*
X141884999Y-80414999D01*
X142760000Y-83290000D02*
X142760000Y-81290000D01*
X141860000Y-84190000D02*
X142760000Y-83290000D01*
X121660000Y-84190000D02*
X141860000Y-84190000D01*
X120650000Y-83180000D02*
X121660000Y-84190000D01*
X141884999Y-80414999D02*
X141884999Y-78435001D01*
X120650000Y-81620000D02*
X120650000Y-83180000D01*
X159000000Y-80400000D02*
X159800000Y-81200000D01*
X159800000Y-81200000D02*
X161000000Y-81200000D01*
X161000000Y-81200000D02*
X167000000Y-75200000D01*
X171000000Y-76500000D02*
X171500000Y-77000000D01*
X171000000Y-75037500D02*
X171000000Y-76500000D01*
X171000000Y-75037500D02*
X169000000Y-75037500D01*
X168837500Y-75200000D02*
X169000000Y-75037500D01*
X167000000Y-75200000D02*
X168837500Y-75200000D01*
%TO.N,3.3V*%
X148200000Y-74740000D02*
X148200000Y-85110000D01*
X146000000Y-72540000D02*
X148200000Y-74740000D01*
X169000000Y-73037500D02*
X171000000Y-73037500D01*
X164000000Y-76400000D02*
X164000000Y-75000000D01*
X164000000Y-75000000D02*
X164000000Y-73000000D01*
X168962500Y-73000000D02*
X169000000Y-73037500D01*
X164000000Y-73000000D02*
X168962500Y-73000000D01*
X171000000Y-72000000D02*
X172000000Y-71000000D01*
X171000000Y-72962500D02*
X171000000Y-72000000D01*
%TO.N,5V*%
X127920000Y-62000000D02*
X127920000Y-63970000D01*
X127920000Y-63970000D02*
X127430000Y-64460000D01*
X127430000Y-64460000D02*
X111120000Y-64460000D01*
X111120000Y-64460000D02*
X110540000Y-64460000D01*
X110540000Y-64460000D02*
X110100000Y-64900000D01*
X110100000Y-64900000D02*
X110100000Y-65300000D01*
X110100000Y-65300000D02*
X108400000Y-67000000D01*
X108400000Y-67000000D02*
X97800000Y-67000000D01*
X95100000Y-69700000D02*
X95100000Y-73800000D01*
X97800000Y-67000000D02*
X95100000Y-69700000D01*
%TO.N,/SDA*%
X146000000Y-77620000D02*
X146000000Y-87970000D01*
X146000000Y-87970000D02*
X143580000Y-90390000D01*
X143580000Y-90390000D02*
X134700000Y-90390000D01*
X134010000Y-89700000D02*
X134010000Y-88150000D01*
X134700000Y-90390000D02*
X134010000Y-89700000D01*
X118720000Y-78330000D02*
X119960000Y-79570000D01*
X118720000Y-77580000D02*
X118720000Y-78330000D01*
X142610000Y-79570000D02*
X144370000Y-77810000D01*
X145810000Y-77810000D02*
X146000000Y-77620000D01*
X144370000Y-77810000D02*
X145810000Y-77810000D01*
%TO.N,/SCL*%
X142670000Y-94290000D02*
X134420000Y-94290000D01*
X134010000Y-93880000D02*
X134010000Y-92800000D01*
X134420000Y-94290000D02*
X134010000Y-93880000D01*
X125140000Y-76600000D02*
X126169846Y-75570154D01*
X125140000Y-77600000D02*
X125140000Y-76600000D01*
X146000000Y-75080000D02*
X144110000Y-75080000D01*
X143619846Y-75570154D02*
X126169846Y-75570154D01*
X144110000Y-75080000D02*
X143619846Y-75570154D01*
X147175001Y-89784999D02*
X146660000Y-90300000D01*
X147175001Y-76255001D02*
X147175001Y-89784999D01*
X146000000Y-75080000D02*
X147175001Y-76255001D01*
X146660000Y-90300000D02*
X142670000Y-94290000D01*
%TO.N,/PI_SCK*%
X103330000Y-82670000D02*
X104430000Y-81570000D01*
X104430000Y-81570000D02*
X105740000Y-81570000D01*
X102300000Y-102060000D02*
X103330000Y-101030000D01*
X103330000Y-101030000D02*
X103330000Y-82670000D01*
X101000000Y-102060000D02*
X102300000Y-102060000D01*
X105750000Y-81560000D02*
X105740000Y-81570000D01*
X105750000Y-79070000D02*
X105750000Y-81560000D01*
%TO.N,/PI_MISO*%
X101000000Y-104600000D02*
X102390000Y-104600000D01*
X104120000Y-102870000D02*
X104120000Y-87010000D01*
X102390000Y-104600000D02*
X104120000Y-102870000D01*
X104120000Y-87010000D02*
X104540000Y-86590000D01*
X104540000Y-86590000D02*
X105750000Y-86590000D01*
X105750000Y-86590000D02*
X105750000Y-84080000D01*
%TO.N,/PI_MOSI*%
X105750000Y-91230000D02*
X105750000Y-91600000D01*
X105750000Y-91600000D02*
X105750000Y-89090000D01*
X101000000Y-107140000D02*
X104950000Y-103190000D01*
X104950000Y-92400000D02*
X105750000Y-91600000D01*
X104950000Y-103190000D02*
X104950000Y-92400000D01*
%TO.N,/PI_SCL*%
X123840000Y-77600000D02*
X122240000Y-76000000D01*
X116070000Y-76000000D02*
X114490000Y-77580000D01*
X122240000Y-76000000D02*
X116070000Y-76000000D01*
X114490000Y-77580000D02*
X111880000Y-77580000D01*
X111880000Y-77580000D02*
X109960000Y-79500000D01*
X109960000Y-79500000D02*
X109960000Y-91210000D01*
X110660000Y-91910000D02*
X110660000Y-92800000D01*
X109960000Y-91210000D02*
X110660000Y-91910000D01*
%TO.N,/PI_SDA*%
X110790000Y-86030000D02*
X111620000Y-86860000D01*
X110790000Y-80360000D02*
X110790000Y-86030000D01*
X111970000Y-79180000D02*
X110790000Y-80360000D01*
X114460000Y-79180000D02*
X111970000Y-79180000D01*
X111620000Y-86860000D02*
X111620000Y-93650000D01*
X116060000Y-77580000D02*
X114460000Y-79180000D01*
X117420000Y-77580000D02*
X116060000Y-77580000D01*
%TO.N,/RFM_MISO*%
X107050000Y-84080000D02*
X107050000Y-83680000D01*
X107050000Y-84043590D02*
X108950000Y-82143590D01*
X107050000Y-84080000D02*
X107050000Y-84043590D01*
X108950000Y-82143590D02*
X108950000Y-77980000D01*
X108950000Y-77980000D02*
X111050000Y-75880000D01*
X114560000Y-75880000D02*
X114630000Y-75810000D01*
X111050000Y-75880000D02*
X114560000Y-75880000D01*
X145540000Y-66460000D02*
X145000000Y-67000000D01*
X154000000Y-66460000D02*
X145540000Y-66460000D01*
X145000000Y-67120000D02*
X140350000Y-71770000D01*
X145000000Y-67000000D02*
X145000000Y-67120000D01*
X137200000Y-72600000D02*
X138030000Y-71770000D01*
X137200000Y-73000000D02*
X137200000Y-72600000D01*
X138030000Y-71770000D02*
X140350000Y-71770000D01*
X136151156Y-74048844D02*
X137200000Y-73000000D01*
X134648844Y-74048844D02*
X136151156Y-74048844D01*
X133870000Y-73270000D02*
X134648844Y-74048844D01*
X132570000Y-73270000D02*
X133870000Y-73270000D01*
%TO.N,/RFM_MOSI*%
X150650000Y-71000000D02*
X150650000Y-70090000D01*
X151740000Y-69000000D02*
X154000000Y-69000000D01*
X150650000Y-70090000D02*
X151740000Y-69000000D01*
X107573590Y-91600000D02*
X107050000Y-91600000D01*
X158110000Y-70800000D02*
X158110000Y-81870000D01*
X107573590Y-91600000D02*
X111225394Y-95251804D01*
X144728196Y-95251804D02*
X158110000Y-81870000D01*
X143571804Y-95251804D02*
X144728196Y-95251804D01*
X111225394Y-95251804D02*
X143571804Y-95251804D01*
X143571804Y-95251804D02*
X143748196Y-95251804D01*
X159910000Y-69000000D02*
X160000000Y-69000000D01*
X158110000Y-70800000D02*
X159910000Y-69000000D01*
%TO.N,/RFM_SCK*%
X107040000Y-81570000D02*
X107490000Y-81570000D01*
X108350000Y-81050000D02*
X107830000Y-81570000D01*
X108350000Y-76970000D02*
X108350000Y-81050000D01*
X110821146Y-74498854D02*
X108350000Y-76970000D01*
X107830000Y-81570000D02*
X107040000Y-81570000D01*
X138093548Y-74498854D02*
X110821146Y-74498854D01*
%TO.N,/RFM_CS*%
X153920000Y-74000000D02*
X154000000Y-74080000D01*
X150650000Y-74000000D02*
X153920000Y-74000000D01*
X162000000Y-73000000D02*
X161000000Y-73000000D01*
%TO.N,/RFM_RST*%
X155580000Y-76620000D02*
X154000000Y-76620000D01*
X156400000Y-75800000D02*
X155580000Y-76620000D01*
X156400000Y-65400000D02*
X156400000Y-75800000D01*
X155600000Y-64600000D02*
X156400000Y-65400000D01*
X146400000Y-64600000D02*
X155600000Y-64600000D01*
X140000000Y-71000000D02*
X146400000Y-64600000D01*
X132000000Y-71000000D02*
X140000000Y-71000000D01*
X162000000Y-75000000D02*
X161000000Y-75000000D01*
%TO.N,/MCU_SDA*%
X120020000Y-77580000D02*
X120020000Y-78490000D01*
X120020000Y-78490000D02*
X121290000Y-79760000D01*
X121290000Y-79760000D02*
X122630000Y-79760000D01*
X123190000Y-80320000D02*
X123190000Y-81620000D01*
X122630000Y-79760000D02*
X123190000Y-80320000D01*
%TO.N,/MCU_SCL*%
X126440000Y-77600000D02*
X126440000Y-79540000D01*
X125730000Y-80250000D02*
X125730000Y-81620000D01*
X126440000Y-79540000D02*
X125730000Y-80250000D01*
%TO.N,/MCU_MOSI*%
X108000000Y-89090000D02*
X107050000Y-89090000D01*
X108500000Y-89590000D02*
X108000000Y-89090000D01*
X108500000Y-91890000D02*
X108500000Y-89590000D01*
X111411795Y-94801795D02*
X108500000Y-91890000D01*
X143298205Y-94801795D02*
X111411795Y-94801795D01*
X149580000Y-88520000D02*
X143298205Y-94801795D01*
X149580000Y-75810000D02*
X149580000Y-88520000D01*
X147400000Y-67800000D02*
X148400000Y-67800000D01*
X149350000Y-68750000D02*
X149350000Y-71000000D01*
X148400000Y-67800000D02*
X149350000Y-68750000D01*
%TO.N,/MCU_MISO*%
X107875001Y-85764999D02*
X107875001Y-83854999D01*
X107050000Y-86590000D02*
X107875001Y-85764999D01*
X109400010Y-78567643D02*
X111362653Y-76605000D01*
X109400010Y-82329990D02*
X109400010Y-78567643D01*
X107875001Y-83854999D02*
X109400010Y-82329990D01*
X135144999Y-72544999D02*
X115405001Y-72544999D01*
X135455001Y-72544999D02*
X136200000Y-71800000D01*
X135144999Y-72544999D02*
X135455001Y-72544999D01*
%TO.N,/MCU_SCK*%
X133350000Y-66380000D02*
X133350000Y-64450000D01*
X133350000Y-64450000D02*
X134200000Y-63600000D01*
X134200000Y-63600000D02*
X140200000Y-63600000D01*
X140620000Y-63180000D02*
X140620000Y-62000000D01*
X140200000Y-63600000D02*
X140620000Y-63180000D01*
X123480002Y-71819998D02*
X125700000Y-69600000D01*
X112480002Y-71819998D02*
X123480002Y-71819998D01*
X107050000Y-77250000D02*
X112480002Y-71819998D01*
X107050000Y-79070000D02*
X107050000Y-77250000D01*
X107050000Y-77250000D02*
X107050000Y-77090000D01*
%TO.N,/MCU_CS*%
X147370000Y-68680000D02*
X148220000Y-69530000D01*
X148220000Y-69530000D02*
X148220000Y-73650000D01*
X148220000Y-73650000D02*
X148570000Y-74000000D01*
X148800000Y-74000000D02*
X149350000Y-74000000D01*
X148570000Y-74000000D02*
X148800000Y-74000000D01*
%TO.N,/OPT_RST*%
X133000000Y-62000000D02*
X133000000Y-63330000D01*
X133000000Y-63330000D02*
X131870000Y-64460000D01*
X131870000Y-64460000D02*
X129060000Y-64460000D01*
X128270000Y-65250000D02*
X128270000Y-66380000D01*
X129060000Y-64460000D02*
X128270000Y-65250000D01*
X130660000Y-71040000D02*
X130700000Y-71000000D01*
X128950000Y-71040000D02*
X130660000Y-71040000D01*
X128270000Y-70360000D02*
X128950000Y-71040000D01*
X128270000Y-66380000D02*
X128270000Y-70360000D01*
%TO.N,Net-(SW1-Pad1)*%
X113100000Y-69300000D02*
X105100000Y-69300000D01*
X115190000Y-69300000D02*
X113100000Y-69300000D01*
X118110000Y-66380000D02*
X115190000Y-69300000D01*
%TD*%
D19*
%TO.N,GND*%
X117158815Y-60698815D02*
X117079463Y-60795506D01*
X117020498Y-60905820D01*
X116984188Y-61025518D01*
X116971928Y-61150000D01*
X116971928Y-62850000D01*
X116984188Y-62974482D01*
X117020498Y-63094180D01*
X117079463Y-63204494D01*
X117158815Y-63301185D01*
X117255506Y-63380537D01*
X117365820Y-63439502D01*
X117485518Y-63475812D01*
X117610000Y-63488072D01*
X119310000Y-63488072D01*
X119434482Y-63475812D01*
X119554180Y-63439502D01*
X119664494Y-63380537D01*
X119761185Y-63301185D01*
X119840537Y-63204494D01*
X119899502Y-63094180D01*
X119921513Y-63021620D01*
X120053368Y-63153475D01*
X120296589Y-63315990D01*
X120566842Y-63427932D01*
X120853740Y-63485000D01*
X121146260Y-63485000D01*
X121433158Y-63427932D01*
X121703411Y-63315990D01*
X121946632Y-63153475D01*
X122153475Y-62946632D01*
X122315990Y-62703411D01*
X122427932Y-62433158D01*
X122485000Y-62146260D01*
X122485000Y-61853740D01*
X122427932Y-61566842D01*
X122315990Y-61296589D01*
X122153475Y-61053368D01*
X121946632Y-60846525D01*
X121703411Y-60684010D01*
X121645445Y-60660000D01*
X126666111Y-60660000D01*
X126618815Y-60698815D01*
X126539463Y-60795506D01*
X126480498Y-60905820D01*
X126444188Y-61025518D01*
X126431928Y-61150000D01*
X126431928Y-62850000D01*
X126444188Y-62974482D01*
X126480498Y-63094180D01*
X126539463Y-63204494D01*
X126618815Y-63301185D01*
X126715506Y-63380537D01*
X126825820Y-63439502D01*
X126945518Y-63475812D01*
X127070000Y-63488072D01*
X127160001Y-63488072D01*
X127160001Y-63655198D01*
X127115199Y-63700000D01*
X110577323Y-63700000D01*
X110540000Y-63696324D01*
X110502677Y-63700000D01*
X110502667Y-63700000D01*
X110391014Y-63710997D01*
X110265779Y-63748986D01*
X110247753Y-63754454D01*
X110115723Y-63825026D01*
X110084078Y-63850997D01*
X109999999Y-63919999D01*
X109976196Y-63949003D01*
X109589003Y-64336196D01*
X109559999Y-64359999D01*
X109531869Y-64394276D01*
X109465026Y-64475724D01*
X109428289Y-64544454D01*
X109394454Y-64607754D01*
X109350997Y-64751015D01*
X109340000Y-64862668D01*
X109340000Y-64862678D01*
X109336324Y-64900000D01*
X109340000Y-64937322D01*
X109340000Y-64985198D01*
X108085199Y-66240000D01*
X97837333Y-66240000D01*
X97800000Y-66236323D01*
X97762667Y-66240000D01*
X97651014Y-66250997D01*
X97507753Y-66294454D01*
X97375724Y-66365026D01*
X97259999Y-66459999D01*
X97236201Y-66488997D01*
X94589003Y-69136196D01*
X94559999Y-69159999D01*
X94534556Y-69191002D01*
X94465026Y-69275724D01*
X94406908Y-69384454D01*
X94394454Y-69407754D01*
X94350997Y-69551015D01*
X94340000Y-69662668D01*
X94340000Y-69662678D01*
X94336324Y-69700000D01*
X94340000Y-69737323D01*
X94340001Y-73096288D01*
X94296063Y-73140226D01*
X94182795Y-73309744D01*
X94104774Y-73498102D01*
X94065000Y-73698061D01*
X94065000Y-73901939D01*
X94104774Y-74101898D01*
X94182795Y-74290256D01*
X94296063Y-74459774D01*
X94440226Y-74603937D01*
X94609744Y-74717205D01*
X94798102Y-74795226D01*
X94998061Y-74835000D01*
X95201939Y-74835000D01*
X95401898Y-74795226D01*
X95590256Y-74717205D01*
X95759774Y-74603937D01*
X95903937Y-74459774D01*
X96017205Y-74290256D01*
X96095226Y-74101898D01*
X96135000Y-73901939D01*
X96135000Y-73698061D01*
X96095226Y-73498102D01*
X96017205Y-73309744D01*
X95903937Y-73140226D01*
X95860000Y-73096289D01*
X95860000Y-70014801D01*
X98114802Y-67760000D01*
X108362678Y-67760000D01*
X108400000Y-67763676D01*
X108437322Y-67760000D01*
X108437333Y-67760000D01*
X108548986Y-67749003D01*
X108692247Y-67705546D01*
X108824276Y-67634974D01*
X108940001Y-67540001D01*
X108963804Y-67510997D01*
X110611003Y-65863799D01*
X110640001Y-65840001D01*
X110702613Y-65763708D01*
X110734974Y-65724277D01*
X110805546Y-65592247D01*
X110844072Y-65465241D01*
X110849003Y-65448986D01*
X110860000Y-65337332D01*
X110860000Y-65337324D01*
X110863676Y-65300001D01*
X110860000Y-65262678D01*
X110860000Y-65220000D01*
X112183132Y-65220000D01*
X112115241Y-65265363D01*
X111915363Y-65465241D01*
X111758320Y-65700273D01*
X111650147Y-65961426D01*
X111595000Y-66238665D01*
X111595000Y-66521335D01*
X111650147Y-66798574D01*
X111758320Y-67059727D01*
X111915363Y-67294759D01*
X112115241Y-67494637D01*
X112350273Y-67651680D01*
X112611426Y-67759853D01*
X112888665Y-67815000D01*
X113171335Y-67815000D01*
X113448574Y-67759853D01*
X113709727Y-67651680D01*
X113944759Y-67494637D01*
X114144637Y-67294759D01*
X114300915Y-67060872D01*
X114333329Y-67121514D01*
X114577298Y-67193097D01*
X115390395Y-66380000D01*
X114577298Y-65566903D01*
X114333329Y-65638486D01*
X114302806Y-65702992D01*
X114301680Y-65700273D01*
X114144637Y-65465241D01*
X113944759Y-65265363D01*
X113876868Y-65220000D01*
X114805990Y-65220000D01*
X114756903Y-65387298D01*
X115570000Y-66200395D01*
X116383097Y-65387298D01*
X116334010Y-65220000D01*
X117263132Y-65220000D01*
X117195241Y-65265363D01*
X116995363Y-65465241D01*
X116839085Y-65699128D01*
X116806671Y-65638486D01*
X116562702Y-65566903D01*
X115749605Y-66380000D01*
X115763748Y-66394143D01*
X115584143Y-66573748D01*
X115570000Y-66559605D01*
X114756903Y-67372702D01*
X114828486Y-67616671D01*
X115083996Y-67737571D01*
X115358184Y-67806300D01*
X115597121Y-67818078D01*
X114875199Y-68540000D01*
X105803711Y-68540000D01*
X105759774Y-68496063D01*
X105590256Y-68382795D01*
X105401898Y-68304774D01*
X105201939Y-68265000D01*
X104998061Y-68265000D01*
X104798102Y-68304774D01*
X104609744Y-68382795D01*
X104440226Y-68496063D01*
X104296063Y-68640226D01*
X104182795Y-68809744D01*
X104104774Y-68998102D01*
X104065000Y-69198061D01*
X104065000Y-69401939D01*
X104104774Y-69601898D01*
X104182795Y-69790256D01*
X104296063Y-69959774D01*
X104440226Y-70103937D01*
X104609744Y-70217205D01*
X104798102Y-70295226D01*
X104998061Y-70335000D01*
X105201939Y-70335000D01*
X105401898Y-70295226D01*
X105590256Y-70217205D01*
X105759774Y-70103937D01*
X105803711Y-70060000D01*
X115152678Y-70060000D01*
X115190000Y-70063676D01*
X115227322Y-70060000D01*
X115227333Y-70060000D01*
X115338986Y-70049003D01*
X115482247Y-70005546D01*
X115614276Y-69934974D01*
X115730001Y-69840001D01*
X115753804Y-69810997D01*
X117786114Y-67778688D01*
X117968665Y-67815000D01*
X118251335Y-67815000D01*
X118528574Y-67759853D01*
X118789727Y-67651680D01*
X119024759Y-67494637D01*
X119224637Y-67294759D01*
X119380000Y-67062241D01*
X119535363Y-67294759D01*
X119735241Y-67494637D01*
X119970273Y-67651680D01*
X120231426Y-67759853D01*
X120508665Y-67815000D01*
X120791335Y-67815000D01*
X121068574Y-67759853D01*
X121329727Y-67651680D01*
X121564759Y-67494637D01*
X121764637Y-67294759D01*
X121920000Y-67062241D01*
X122075363Y-67294759D01*
X122275241Y-67494637D01*
X122510273Y-67651680D01*
X122771426Y-67759853D01*
X123048665Y-67815000D01*
X123331335Y-67815000D01*
X123608574Y-67759853D01*
X123869727Y-67651680D01*
X124104759Y-67494637D01*
X124304637Y-67294759D01*
X124460000Y-67062241D01*
X124615363Y-67294759D01*
X124815241Y-67494637D01*
X125050273Y-67651680D01*
X125311426Y-67759853D01*
X125588665Y-67815000D01*
X125871335Y-67815000D01*
X126148574Y-67759853D01*
X126409727Y-67651680D01*
X126644759Y-67494637D01*
X126844637Y-67294759D01*
X127000000Y-67062241D01*
X127155363Y-67294759D01*
X127355241Y-67494637D01*
X127510000Y-67598044D01*
X127510001Y-70322668D01*
X127506324Y-70360000D01*
X127510001Y-70397333D01*
X127520998Y-70508986D01*
X127534180Y-70552442D01*
X127564454Y-70652246D01*
X127635026Y-70784276D01*
X127689797Y-70851014D01*
X127730000Y-70900001D01*
X127758998Y-70923799D01*
X128386201Y-71551002D01*
X128409999Y-71580001D01*
X128525724Y-71674974D01*
X128657753Y-71745546D01*
X128787814Y-71784999D01*
X124589802Y-71784999D01*
X125739802Y-70635000D01*
X125801939Y-70635000D01*
X126001898Y-70595226D01*
X126190256Y-70517205D01*
X126359774Y-70403937D01*
X126503937Y-70259774D01*
X126617205Y-70090256D01*
X126695226Y-69901898D01*
X126735000Y-69701939D01*
X126735000Y-69498061D01*
X126695226Y-69298102D01*
X126617205Y-69109744D01*
X126503937Y-68940226D01*
X126359774Y-68796063D01*
X126190256Y-68682795D01*
X126001898Y-68604774D01*
X125801939Y-68565000D01*
X125598061Y-68565000D01*
X125398102Y-68604774D01*
X125209744Y-68682795D01*
X125040226Y-68796063D01*
X124896063Y-68940226D01*
X124782795Y-69109744D01*
X124704774Y-69298102D01*
X124665000Y-69498061D01*
X124665000Y-69560198D01*
X123165201Y-71059998D01*
X112517324Y-71059998D01*
X112480001Y-71056322D01*
X112442678Y-71059998D01*
X112442669Y-71059998D01*
X112331016Y-71070995D01*
X112187755Y-71114452D01*
X112055726Y-71185024D01*
X112055724Y-71185025D01*
X112055725Y-71185025D01*
X111968998Y-71256199D01*
X111968994Y-71256203D01*
X111940001Y-71279997D01*
X111916207Y-71308990D01*
X106876881Y-76348318D01*
X106757754Y-76384454D01*
X106625725Y-76455026D01*
X106509999Y-76549999D01*
X106415026Y-76665724D01*
X106344454Y-76797753D01*
X106300997Y-76941014D01*
X106290000Y-77052667D01*
X106290000Y-77212678D01*
X106286324Y-77250000D01*
X106290000Y-77287322D01*
X106290000Y-77287332D01*
X106290001Y-77287342D01*
X106290001Y-77685868D01*
X106250000Y-77681928D01*
X105250000Y-77681928D01*
X105125518Y-77694188D01*
X105005820Y-77730498D01*
X104895506Y-77789463D01*
X104798815Y-77868815D01*
X104719463Y-77965506D01*
X104660498Y-78075820D01*
X104624188Y-78195518D01*
X104611928Y-78320000D01*
X104611928Y-79820000D01*
X104624188Y-79944482D01*
X104660498Y-80064180D01*
X104719463Y-80174494D01*
X104798815Y-80271185D01*
X104853296Y-80315897D01*
X104788815Y-80368815D01*
X104709463Y-80465506D01*
X104650498Y-80575820D01*
X104614188Y-80695518D01*
X104602913Y-80810000D01*
X104467323Y-80810000D01*
X104430000Y-80806324D01*
X104392677Y-80810000D01*
X104392667Y-80810000D01*
X104281014Y-80820997D01*
X104152433Y-80860001D01*
X104137753Y-80864454D01*
X104005723Y-80935026D01*
X103981417Y-80954974D01*
X103889999Y-81029999D01*
X103866201Y-81058997D01*
X102818998Y-82106201D01*
X102790000Y-82129999D01*
X102766202Y-82158997D01*
X102766201Y-82158998D01*
X102695026Y-82245724D01*
X102624454Y-82377754D01*
X102604538Y-82443411D01*
X102580998Y-82521014D01*
X102576384Y-82567865D01*
X102566324Y-82670000D01*
X102570001Y-82707333D01*
X102570000Y-100715198D01*
X102160827Y-101124371D01*
X102153475Y-101113368D01*
X101946632Y-100906525D01*
X101764466Y-100784805D01*
X101881355Y-100715178D01*
X102097588Y-100520269D01*
X102271641Y-100286920D01*
X102396825Y-100024099D01*
X102441476Y-99876890D01*
X102320155Y-99647000D01*
X101127000Y-99647000D01*
X101127000Y-99667000D01*
X100873000Y-99667000D01*
X100873000Y-99647000D01*
X100853000Y-99647000D01*
X100853000Y-99393000D01*
X100873000Y-99393000D01*
X100873000Y-99373000D01*
X101127000Y-99373000D01*
X101127000Y-99393000D01*
X102320155Y-99393000D01*
X102441476Y-99163110D01*
X102396825Y-99015901D01*
X102271641Y-98753080D01*
X102097588Y-98519731D01*
X101881355Y-98324822D01*
X101764466Y-98255195D01*
X101946632Y-98133475D01*
X102153475Y-97926632D01*
X102315990Y-97683411D01*
X102427932Y-97413158D01*
X102485000Y-97126260D01*
X102485000Y-96833740D01*
X102427932Y-96546842D01*
X102315990Y-96276589D01*
X102153475Y-96033368D01*
X101946632Y-95826525D01*
X101772240Y-95710000D01*
X101946632Y-95593475D01*
X102153475Y-95386632D01*
X102315990Y-95143411D01*
X102427932Y-94873158D01*
X102485000Y-94586260D01*
X102485000Y-94293740D01*
X102427932Y-94006842D01*
X102315990Y-93736589D01*
X102153475Y-93493368D01*
X101946632Y-93286525D01*
X101772240Y-93170000D01*
X101946632Y-93053475D01*
X102153475Y-92846632D01*
X102315990Y-92603411D01*
X102427932Y-92333158D01*
X102485000Y-92046260D01*
X102485000Y-91753740D01*
X102427932Y-91466842D01*
X102315990Y-91196589D01*
X102153475Y-90953368D01*
X101946632Y-90746525D01*
X101772240Y-90630000D01*
X101946632Y-90513475D01*
X102153475Y-90306632D01*
X102315990Y-90063411D01*
X102427932Y-89793158D01*
X102485000Y-89506260D01*
X102485000Y-89213740D01*
X102427932Y-88926842D01*
X102315990Y-88656589D01*
X102153475Y-88413368D01*
X101946632Y-88206525D01*
X101772240Y-88090000D01*
X101946632Y-87973475D01*
X102153475Y-87766632D01*
X102315990Y-87523411D01*
X102427932Y-87253158D01*
X102485000Y-86966260D01*
X102485000Y-86673740D01*
X102427932Y-86386842D01*
X102315990Y-86116589D01*
X102153475Y-85873368D01*
X101946632Y-85666525D01*
X101772240Y-85550000D01*
X101946632Y-85433475D01*
X102153475Y-85226632D01*
X102315990Y-84983411D01*
X102427932Y-84713158D01*
X102485000Y-84426260D01*
X102485000Y-84133740D01*
X102427932Y-83846842D01*
X102315990Y-83576589D01*
X102153475Y-83333368D01*
X101946632Y-83126525D01*
X101764466Y-83004805D01*
X101881355Y-82935178D01*
X102097588Y-82740269D01*
X102271641Y-82506920D01*
X102396825Y-82244099D01*
X102441476Y-82096890D01*
X102320155Y-81867000D01*
X101127000Y-81867000D01*
X101127000Y-81887000D01*
X100873000Y-81887000D01*
X100873000Y-81867000D01*
X100853000Y-81867000D01*
X100853000Y-81613000D01*
X100873000Y-81613000D01*
X100873000Y-81593000D01*
X101127000Y-81593000D01*
X101127000Y-81613000D01*
X102320155Y-81613000D01*
X102441476Y-81383110D01*
X102396825Y-81235901D01*
X102271641Y-80973080D01*
X102097588Y-80739731D01*
X101881355Y-80544822D01*
X101631252Y-80395843D01*
X101453041Y-80332626D01*
X101721818Y-80221295D01*
X102317177Y-79823489D01*
X102823489Y-79317177D01*
X103221295Y-78721818D01*
X103495309Y-78060290D01*
X103635000Y-77358016D01*
X103635000Y-76641984D01*
X103495309Y-75939710D01*
X103221295Y-75278182D01*
X102823489Y-74682823D01*
X102317177Y-74176511D01*
X101721818Y-73778705D01*
X101060290Y-73504691D01*
X100358016Y-73365000D01*
X99641984Y-73365000D01*
X98939710Y-73504691D01*
X98278182Y-73778705D01*
X97682823Y-74176511D01*
X97176511Y-74682823D01*
X96778705Y-75278182D01*
X96504691Y-75939710D01*
X96365000Y-76641984D01*
X96365000Y-77358016D01*
X96504691Y-78060290D01*
X96778705Y-78721818D01*
X97176511Y-79317177D01*
X97682823Y-79823489D01*
X98278182Y-80221295D01*
X98359553Y-80255000D01*
X98313740Y-80255000D01*
X98026842Y-80312068D01*
X97756589Y-80424010D01*
X97513368Y-80586525D01*
X97306525Y-80793368D01*
X97144010Y-81036589D01*
X97032068Y-81306842D01*
X96975000Y-81593740D01*
X96975000Y-81886260D01*
X97032068Y-82173158D01*
X97144010Y-82443411D01*
X97306525Y-82686632D01*
X97513368Y-82893475D01*
X97687760Y-83010000D01*
X97513368Y-83126525D01*
X97306525Y-83333368D01*
X97144010Y-83576589D01*
X97032068Y-83846842D01*
X96975000Y-84133740D01*
X96975000Y-84426260D01*
X97032068Y-84713158D01*
X97144010Y-84983411D01*
X97306525Y-85226632D01*
X97513368Y-85433475D01*
X97687760Y-85550000D01*
X97513368Y-85666525D01*
X97306525Y-85873368D01*
X97144010Y-86116589D01*
X97032068Y-86386842D01*
X96975000Y-86673740D01*
X96975000Y-86966260D01*
X97032068Y-87253158D01*
X97144010Y-87523411D01*
X97306525Y-87766632D01*
X97513368Y-87973475D01*
X97695534Y-88095195D01*
X97578645Y-88164822D01*
X97362412Y-88359731D01*
X97188359Y-88593080D01*
X97063175Y-88855901D01*
X97018524Y-89003110D01*
X97139845Y-89233000D01*
X98333000Y-89233000D01*
X98333000Y-89213000D01*
X98587000Y-89213000D01*
X98587000Y-89233000D01*
X98607000Y-89233000D01*
X98607000Y-89487000D01*
X98587000Y-89487000D01*
X98587000Y-89507000D01*
X98333000Y-89507000D01*
X98333000Y-89487000D01*
X97139845Y-89487000D01*
X97018524Y-89716890D01*
X97063175Y-89864099D01*
X97188359Y-90126920D01*
X97362412Y-90360269D01*
X97578645Y-90555178D01*
X97695534Y-90624805D01*
X97513368Y-90746525D01*
X97306525Y-90953368D01*
X97144010Y-91196589D01*
X97032068Y-91466842D01*
X96975000Y-91753740D01*
X96975000Y-92046260D01*
X97032068Y-92333158D01*
X97144010Y-92603411D01*
X97306525Y-92846632D01*
X97513368Y-93053475D01*
X97695534Y-93175195D01*
X97578645Y-93244822D01*
X97362412Y-93439731D01*
X97188359Y-93673080D01*
X97063175Y-93935901D01*
X97018524Y-94083110D01*
X97139845Y-94313000D01*
X98333000Y-94313000D01*
X98333000Y-94293000D01*
X98587000Y-94293000D01*
X98587000Y-94313000D01*
X98607000Y-94313000D01*
X98607000Y-94567000D01*
X98587000Y-94567000D01*
X98587000Y-94587000D01*
X98333000Y-94587000D01*
X98333000Y-94567000D01*
X97139845Y-94567000D01*
X97018524Y-94796890D01*
X97063175Y-94944099D01*
X97188359Y-95206920D01*
X97362412Y-95440269D01*
X97578645Y-95635178D01*
X97695534Y-95704805D01*
X97513368Y-95826525D01*
X97306525Y-96033368D01*
X97144010Y-96276589D01*
X97032068Y-96546842D01*
X96975000Y-96833740D01*
X96975000Y-97126260D01*
X97032068Y-97413158D01*
X97144010Y-97683411D01*
X97306525Y-97926632D01*
X97513368Y-98133475D01*
X97687760Y-98250000D01*
X97513368Y-98366525D01*
X97306525Y-98573368D01*
X97144010Y-98816589D01*
X97032068Y-99086842D01*
X96975000Y-99373740D01*
X96975000Y-99666260D01*
X97032068Y-99953158D01*
X97144010Y-100223411D01*
X97306525Y-100466632D01*
X97513368Y-100673475D01*
X97687760Y-100790000D01*
X97513368Y-100906525D01*
X97306525Y-101113368D01*
X97144010Y-101356589D01*
X97032068Y-101626842D01*
X96975000Y-101913740D01*
X96975000Y-102206260D01*
X97032068Y-102493158D01*
X97144010Y-102763411D01*
X97306525Y-103006632D01*
X97513368Y-103213475D01*
X97687760Y-103330000D01*
X97513368Y-103446525D01*
X97306525Y-103653368D01*
X97144010Y-103896589D01*
X97032068Y-104166842D01*
X96975000Y-104453740D01*
X96975000Y-104746260D01*
X97032068Y-105033158D01*
X97144010Y-105303411D01*
X97306525Y-105546632D01*
X97513368Y-105753475D01*
X97695534Y-105875195D01*
X97578645Y-105944822D01*
X97362412Y-106139731D01*
X97188359Y-106373080D01*
X97063175Y-106635901D01*
X97018524Y-106783110D01*
X97139845Y-107013000D01*
X98333000Y-107013000D01*
X98333000Y-106993000D01*
X98587000Y-106993000D01*
X98587000Y-107013000D01*
X98607000Y-107013000D01*
X98607000Y-107267000D01*
X98587000Y-107267000D01*
X98587000Y-107287000D01*
X98333000Y-107287000D01*
X98333000Y-107267000D01*
X97139845Y-107267000D01*
X97018524Y-107496890D01*
X97063175Y-107644099D01*
X97188359Y-107906920D01*
X97362412Y-108140269D01*
X97578645Y-108335178D01*
X97695534Y-108404805D01*
X97513368Y-108526525D01*
X97306525Y-108733368D01*
X97144010Y-108976589D01*
X97032068Y-109246842D01*
X96975000Y-109533740D01*
X96975000Y-109826260D01*
X97032068Y-110113158D01*
X97144010Y-110383411D01*
X97306525Y-110626632D01*
X97513368Y-110833475D01*
X97687760Y-110950000D01*
X97513368Y-111066525D01*
X97306525Y-111273368D01*
X97144010Y-111516589D01*
X97032068Y-111786842D01*
X96975000Y-112073740D01*
X96975000Y-112366260D01*
X97032068Y-112653158D01*
X97144010Y-112923411D01*
X97306525Y-113166632D01*
X97513368Y-113373475D01*
X97695534Y-113495195D01*
X97578645Y-113564822D01*
X97362412Y-113759731D01*
X97188359Y-113993080D01*
X97063175Y-114255901D01*
X97018524Y-114403110D01*
X97139845Y-114633000D01*
X98333000Y-114633000D01*
X98333000Y-114613000D01*
X98587000Y-114613000D01*
X98587000Y-114633000D01*
X98607000Y-114633000D01*
X98607000Y-114887000D01*
X98587000Y-114887000D01*
X98587000Y-114907000D01*
X98333000Y-114907000D01*
X98333000Y-114887000D01*
X97139845Y-114887000D01*
X97018524Y-115116890D01*
X97063175Y-115264099D01*
X97188359Y-115526920D01*
X97362412Y-115760269D01*
X97578645Y-115955178D01*
X97695534Y-116024805D01*
X97513368Y-116146525D01*
X97306525Y-116353368D01*
X97144010Y-116596589D01*
X97032068Y-116866842D01*
X96975000Y-117153740D01*
X96975000Y-117446260D01*
X97032068Y-117733158D01*
X97144010Y-118003411D01*
X97306525Y-118246632D01*
X97513368Y-118453475D01*
X97687760Y-118570000D01*
X97513368Y-118686525D01*
X97306525Y-118893368D01*
X97144010Y-119136589D01*
X97032068Y-119406842D01*
X96975000Y-119693740D01*
X96975000Y-119986260D01*
X97032068Y-120273158D01*
X97144010Y-120543411D01*
X97306525Y-120786632D01*
X97513368Y-120993475D01*
X97687760Y-121110000D01*
X97513368Y-121226525D01*
X97306525Y-121433368D01*
X97144010Y-121676589D01*
X97032068Y-121946842D01*
X96975000Y-122233740D01*
X96975000Y-122526260D01*
X97032068Y-122813158D01*
X97144010Y-123083411D01*
X97306525Y-123326632D01*
X97513368Y-123533475D01*
X97695534Y-123655195D01*
X97578645Y-123724822D01*
X97362412Y-123919731D01*
X97188359Y-124153080D01*
X97063175Y-124415901D01*
X97018524Y-124563110D01*
X97139845Y-124793000D01*
X98333000Y-124793000D01*
X98333000Y-124773000D01*
X98587000Y-124773000D01*
X98587000Y-124793000D01*
X98607000Y-124793000D01*
X98607000Y-125047000D01*
X98587000Y-125047000D01*
X98587000Y-125067000D01*
X98333000Y-125067000D01*
X98333000Y-125047000D01*
X97139845Y-125047000D01*
X97018524Y-125276890D01*
X97063175Y-125424099D01*
X97188359Y-125686920D01*
X97362412Y-125920269D01*
X97578645Y-126115178D01*
X97695534Y-126184805D01*
X97513368Y-126306525D01*
X97306525Y-126513368D01*
X97144010Y-126756589D01*
X97032068Y-127026842D01*
X96975000Y-127313740D01*
X96975000Y-127606260D01*
X97032068Y-127893158D01*
X97144010Y-128163411D01*
X97306525Y-128406632D01*
X97513368Y-128613475D01*
X97687760Y-128730000D01*
X97513368Y-128846525D01*
X97306525Y-129053368D01*
X97144010Y-129296589D01*
X97032068Y-129566842D01*
X96975000Y-129853740D01*
X96975000Y-130146260D01*
X97032068Y-130433158D01*
X97144010Y-130703411D01*
X97306525Y-130946632D01*
X97513368Y-131153475D01*
X97756589Y-131315990D01*
X98026842Y-131427932D01*
X98313740Y-131485000D01*
X98606260Y-131485000D01*
X98893158Y-131427932D01*
X99163411Y-131315990D01*
X99406632Y-131153475D01*
X99538487Y-131021620D01*
X99560498Y-131094180D01*
X99619463Y-131204494D01*
X99698815Y-131301185D01*
X99776574Y-131365000D01*
X99641984Y-131365000D01*
X98939710Y-131504691D01*
X98278182Y-131778705D01*
X97682823Y-132176511D01*
X97176511Y-132682823D01*
X96778705Y-133278182D01*
X96504691Y-133939710D01*
X96365000Y-134641984D01*
X96365000Y-135358016D01*
X96504691Y-136060290D01*
X96778705Y-136721818D01*
X97176511Y-137317177D01*
X97682823Y-137823489D01*
X98278182Y-138221295D01*
X98564761Y-138340000D01*
X90660000Y-138340000D01*
X90660000Y-129150000D01*
X91511928Y-129150000D01*
X91511928Y-130850000D01*
X91524188Y-130974482D01*
X91560498Y-131094180D01*
X91619463Y-131204494D01*
X91698815Y-131301185D01*
X91795506Y-131380537D01*
X91905820Y-131439502D01*
X92025518Y-131475812D01*
X92150000Y-131488072D01*
X93850000Y-131488072D01*
X93974482Y-131475812D01*
X94094180Y-131439502D01*
X94204494Y-131380537D01*
X94301185Y-131301185D01*
X94380537Y-131204494D01*
X94439502Y-131094180D01*
X94475812Y-130974482D01*
X94488072Y-130850000D01*
X94488072Y-129150000D01*
X94475812Y-129025518D01*
X94439502Y-128905820D01*
X94380537Y-128795506D01*
X94301185Y-128698815D01*
X94204494Y-128619463D01*
X94094180Y-128560498D01*
X94013534Y-128536034D01*
X94097588Y-128460269D01*
X94271641Y-128226920D01*
X94396825Y-127964099D01*
X94441476Y-127816890D01*
X94320155Y-127587000D01*
X93127000Y-127587000D01*
X93127000Y-127607000D01*
X92873000Y-127607000D01*
X92873000Y-127587000D01*
X91679845Y-127587000D01*
X91558524Y-127816890D01*
X91603175Y-127964099D01*
X91728359Y-128226920D01*
X91902412Y-128460269D01*
X91986466Y-128536034D01*
X91905820Y-128560498D01*
X91795506Y-128619463D01*
X91698815Y-128698815D01*
X91619463Y-128795506D01*
X91560498Y-128905820D01*
X91524188Y-129025518D01*
X91511928Y-129150000D01*
X90660000Y-129150000D01*
X90660000Y-127103110D01*
X91558524Y-127103110D01*
X91679845Y-127333000D01*
X92873000Y-127333000D01*
X92873000Y-126139186D01*
X93127000Y-126139186D01*
X93127000Y-127333000D01*
X94320155Y-127333000D01*
X94441476Y-127103110D01*
X94396825Y-126955901D01*
X94271641Y-126693080D01*
X94097588Y-126459731D01*
X93881355Y-126264822D01*
X93631252Y-126115843D01*
X93356891Y-126018519D01*
X93127000Y-126139186D01*
X92873000Y-126139186D01*
X92643109Y-126018519D01*
X92368748Y-126115843D01*
X92118645Y-126264822D01*
X91902412Y-126459731D01*
X91728359Y-126693080D01*
X91603175Y-126955901D01*
X91558524Y-127103110D01*
X90660000Y-127103110D01*
X90660000Y-60660000D01*
X117206111Y-60660000D01*
X117158815Y-60698815D01*
%TA.AperFunction,Conductor*%
D20*
G36*
X117158815Y-60698815D02*
G01*
X117079463Y-60795506D01*
X117020498Y-60905820D01*
X116984188Y-61025518D01*
X116971928Y-61150000D01*
X116971928Y-62850000D01*
X116984188Y-62974482D01*
X117020498Y-63094180D01*
X117079463Y-63204494D01*
X117158815Y-63301185D01*
X117255506Y-63380537D01*
X117365820Y-63439502D01*
X117485518Y-63475812D01*
X117610000Y-63488072D01*
X119310000Y-63488072D01*
X119434482Y-63475812D01*
X119554180Y-63439502D01*
X119664494Y-63380537D01*
X119761185Y-63301185D01*
X119840537Y-63204494D01*
X119899502Y-63094180D01*
X119921513Y-63021620D01*
X120053368Y-63153475D01*
X120296589Y-63315990D01*
X120566842Y-63427932D01*
X120853740Y-63485000D01*
X121146260Y-63485000D01*
X121433158Y-63427932D01*
X121703411Y-63315990D01*
X121946632Y-63153475D01*
X122153475Y-62946632D01*
X122315990Y-62703411D01*
X122427932Y-62433158D01*
X122485000Y-62146260D01*
X122485000Y-61853740D01*
X122427932Y-61566842D01*
X122315990Y-61296589D01*
X122153475Y-61053368D01*
X121946632Y-60846525D01*
X121703411Y-60684010D01*
X121645445Y-60660000D01*
X126666111Y-60660000D01*
X126618815Y-60698815D01*
X126539463Y-60795506D01*
X126480498Y-60905820D01*
X126444188Y-61025518D01*
X126431928Y-61150000D01*
X126431928Y-62850000D01*
X126444188Y-62974482D01*
X126480498Y-63094180D01*
X126539463Y-63204494D01*
X126618815Y-63301185D01*
X126715506Y-63380537D01*
X126825820Y-63439502D01*
X126945518Y-63475812D01*
X127070000Y-63488072D01*
X127160001Y-63488072D01*
X127160001Y-63655198D01*
X127115199Y-63700000D01*
X110577323Y-63700000D01*
X110540000Y-63696324D01*
X110502677Y-63700000D01*
X110502667Y-63700000D01*
X110391014Y-63710997D01*
X110265779Y-63748986D01*
X110247753Y-63754454D01*
X110115723Y-63825026D01*
X110084078Y-63850997D01*
X109999999Y-63919999D01*
X109976196Y-63949003D01*
X109589003Y-64336196D01*
X109559999Y-64359999D01*
X109531869Y-64394276D01*
X109465026Y-64475724D01*
X109428289Y-64544454D01*
X109394454Y-64607754D01*
X109350997Y-64751015D01*
X109340000Y-64862668D01*
X109340000Y-64862678D01*
X109336324Y-64900000D01*
X109340000Y-64937322D01*
X109340000Y-64985198D01*
X108085199Y-66240000D01*
X97837333Y-66240000D01*
X97800000Y-66236323D01*
X97762667Y-66240000D01*
X97651014Y-66250997D01*
X97507753Y-66294454D01*
X97375724Y-66365026D01*
X97259999Y-66459999D01*
X97236201Y-66488997D01*
X94589003Y-69136196D01*
X94559999Y-69159999D01*
X94534556Y-69191002D01*
X94465026Y-69275724D01*
X94406908Y-69384454D01*
X94394454Y-69407754D01*
X94350997Y-69551015D01*
X94340000Y-69662668D01*
X94340000Y-69662678D01*
X94336324Y-69700000D01*
X94340000Y-69737323D01*
X94340001Y-73096288D01*
X94296063Y-73140226D01*
X94182795Y-73309744D01*
X94104774Y-73498102D01*
X94065000Y-73698061D01*
X94065000Y-73901939D01*
X94104774Y-74101898D01*
X94182795Y-74290256D01*
X94296063Y-74459774D01*
X94440226Y-74603937D01*
X94609744Y-74717205D01*
X94798102Y-74795226D01*
X94998061Y-74835000D01*
X95201939Y-74835000D01*
X95401898Y-74795226D01*
X95590256Y-74717205D01*
X95759774Y-74603937D01*
X95903937Y-74459774D01*
X96017205Y-74290256D01*
X96095226Y-74101898D01*
X96135000Y-73901939D01*
X96135000Y-73698061D01*
X96095226Y-73498102D01*
X96017205Y-73309744D01*
X95903937Y-73140226D01*
X95860000Y-73096289D01*
X95860000Y-70014801D01*
X98114802Y-67760000D01*
X108362678Y-67760000D01*
X108400000Y-67763676D01*
X108437322Y-67760000D01*
X108437333Y-67760000D01*
X108548986Y-67749003D01*
X108692247Y-67705546D01*
X108824276Y-67634974D01*
X108940001Y-67540001D01*
X108963804Y-67510997D01*
X110611003Y-65863799D01*
X110640001Y-65840001D01*
X110702613Y-65763708D01*
X110734974Y-65724277D01*
X110805546Y-65592247D01*
X110844072Y-65465241D01*
X110849003Y-65448986D01*
X110860000Y-65337332D01*
X110860000Y-65337324D01*
X110863676Y-65300001D01*
X110860000Y-65262678D01*
X110860000Y-65220000D01*
X112183132Y-65220000D01*
X112115241Y-65265363D01*
X111915363Y-65465241D01*
X111758320Y-65700273D01*
X111650147Y-65961426D01*
X111595000Y-66238665D01*
X111595000Y-66521335D01*
X111650147Y-66798574D01*
X111758320Y-67059727D01*
X111915363Y-67294759D01*
X112115241Y-67494637D01*
X112350273Y-67651680D01*
X112611426Y-67759853D01*
X112888665Y-67815000D01*
X113171335Y-67815000D01*
X113448574Y-67759853D01*
X113709727Y-67651680D01*
X113944759Y-67494637D01*
X114144637Y-67294759D01*
X114300915Y-67060872D01*
X114333329Y-67121514D01*
X114577298Y-67193097D01*
X115390395Y-66380000D01*
X114577298Y-65566903D01*
X114333329Y-65638486D01*
X114302806Y-65702992D01*
X114301680Y-65700273D01*
X114144637Y-65465241D01*
X113944759Y-65265363D01*
X113876868Y-65220000D01*
X114805990Y-65220000D01*
X114756903Y-65387298D01*
X115570000Y-66200395D01*
X116383097Y-65387298D01*
X116334010Y-65220000D01*
X117263132Y-65220000D01*
X117195241Y-65265363D01*
X116995363Y-65465241D01*
X116839085Y-65699128D01*
X116806671Y-65638486D01*
X116562702Y-65566903D01*
X115749605Y-66380000D01*
X115763748Y-66394143D01*
X115584143Y-66573748D01*
X115570000Y-66559605D01*
X114756903Y-67372702D01*
X114828486Y-67616671D01*
X115083996Y-67737571D01*
X115358184Y-67806300D01*
X115597121Y-67818078D01*
X114875199Y-68540000D01*
X105803711Y-68540000D01*
X105759774Y-68496063D01*
X105590256Y-68382795D01*
X105401898Y-68304774D01*
X105201939Y-68265000D01*
X104998061Y-68265000D01*
X104798102Y-68304774D01*
X104609744Y-68382795D01*
X104440226Y-68496063D01*
X104296063Y-68640226D01*
X104182795Y-68809744D01*
X104104774Y-68998102D01*
X104065000Y-69198061D01*
X104065000Y-69401939D01*
X104104774Y-69601898D01*
X104182795Y-69790256D01*
X104296063Y-69959774D01*
X104440226Y-70103937D01*
X104609744Y-70217205D01*
X104798102Y-70295226D01*
X104998061Y-70335000D01*
X105201939Y-70335000D01*
X105401898Y-70295226D01*
X105590256Y-70217205D01*
X105759774Y-70103937D01*
X105803711Y-70060000D01*
X115152678Y-70060000D01*
X115190000Y-70063676D01*
X115227322Y-70060000D01*
X115227333Y-70060000D01*
X115338986Y-70049003D01*
X115482247Y-70005546D01*
X115614276Y-69934974D01*
X115730001Y-69840001D01*
X115753804Y-69810997D01*
X117786114Y-67778688D01*
X117968665Y-67815000D01*
X118251335Y-67815000D01*
X118528574Y-67759853D01*
X118789727Y-67651680D01*
X119024759Y-67494637D01*
X119224637Y-67294759D01*
X119380000Y-67062241D01*
X119535363Y-67294759D01*
X119735241Y-67494637D01*
X119970273Y-67651680D01*
X120231426Y-67759853D01*
X120508665Y-67815000D01*
X120791335Y-67815000D01*
X121068574Y-67759853D01*
X121329727Y-67651680D01*
X121564759Y-67494637D01*
X121764637Y-67294759D01*
X121920000Y-67062241D01*
X122075363Y-67294759D01*
X122275241Y-67494637D01*
X122510273Y-67651680D01*
X122771426Y-67759853D01*
X123048665Y-67815000D01*
X123331335Y-67815000D01*
X123608574Y-67759853D01*
X123869727Y-67651680D01*
X124104759Y-67494637D01*
X124304637Y-67294759D01*
X124460000Y-67062241D01*
X124615363Y-67294759D01*
X124815241Y-67494637D01*
X125050273Y-67651680D01*
X125311426Y-67759853D01*
X125588665Y-67815000D01*
X125871335Y-67815000D01*
X126148574Y-67759853D01*
X126409727Y-67651680D01*
X126644759Y-67494637D01*
X126844637Y-67294759D01*
X127000000Y-67062241D01*
X127155363Y-67294759D01*
X127355241Y-67494637D01*
X127510000Y-67598044D01*
X127510001Y-70322668D01*
X127506324Y-70360000D01*
X127510001Y-70397333D01*
X127520998Y-70508986D01*
X127534180Y-70552442D01*
X127564454Y-70652246D01*
X127635026Y-70784276D01*
X127689797Y-70851014D01*
X127730000Y-70900001D01*
X127758998Y-70923799D01*
X128386201Y-71551002D01*
X128409999Y-71580001D01*
X128525724Y-71674974D01*
X128657753Y-71745546D01*
X128787814Y-71784999D01*
X124589802Y-71784999D01*
X125739802Y-70635000D01*
X125801939Y-70635000D01*
X126001898Y-70595226D01*
X126190256Y-70517205D01*
X126359774Y-70403937D01*
X126503937Y-70259774D01*
X126617205Y-70090256D01*
X126695226Y-69901898D01*
X126735000Y-69701939D01*
X126735000Y-69498061D01*
X126695226Y-69298102D01*
X126617205Y-69109744D01*
X126503937Y-68940226D01*
X126359774Y-68796063D01*
X126190256Y-68682795D01*
X126001898Y-68604774D01*
X125801939Y-68565000D01*
X125598061Y-68565000D01*
X125398102Y-68604774D01*
X125209744Y-68682795D01*
X125040226Y-68796063D01*
X124896063Y-68940226D01*
X124782795Y-69109744D01*
X124704774Y-69298102D01*
X124665000Y-69498061D01*
X124665000Y-69560198D01*
X123165201Y-71059998D01*
X112517324Y-71059998D01*
X112480001Y-71056322D01*
X112442678Y-71059998D01*
X112442669Y-71059998D01*
X112331016Y-71070995D01*
X112187755Y-71114452D01*
X112055726Y-71185024D01*
X112055724Y-71185025D01*
X112055725Y-71185025D01*
X111968998Y-71256199D01*
X111968994Y-71256203D01*
X111940001Y-71279997D01*
X111916207Y-71308990D01*
X106876881Y-76348318D01*
X106757754Y-76384454D01*
X106625725Y-76455026D01*
X106509999Y-76549999D01*
X106415026Y-76665724D01*
X106344454Y-76797753D01*
X106300997Y-76941014D01*
X106290000Y-77052667D01*
X106290000Y-77212678D01*
X106286324Y-77250000D01*
X106290000Y-77287322D01*
X106290000Y-77287332D01*
X106290001Y-77287342D01*
X106290001Y-77685868D01*
X106250000Y-77681928D01*
X105250000Y-77681928D01*
X105125518Y-77694188D01*
X105005820Y-77730498D01*
X104895506Y-77789463D01*
X104798815Y-77868815D01*
X104719463Y-77965506D01*
X104660498Y-78075820D01*
X104624188Y-78195518D01*
X104611928Y-78320000D01*
X104611928Y-79820000D01*
X104624188Y-79944482D01*
X104660498Y-80064180D01*
X104719463Y-80174494D01*
X104798815Y-80271185D01*
X104853296Y-80315897D01*
X104788815Y-80368815D01*
X104709463Y-80465506D01*
X104650498Y-80575820D01*
X104614188Y-80695518D01*
X104602913Y-80810000D01*
X104467323Y-80810000D01*
X104430000Y-80806324D01*
X104392677Y-80810000D01*
X104392667Y-80810000D01*
X104281014Y-80820997D01*
X104152433Y-80860001D01*
X104137753Y-80864454D01*
X104005723Y-80935026D01*
X103981417Y-80954974D01*
X103889999Y-81029999D01*
X103866201Y-81058997D01*
X102818998Y-82106201D01*
X102790000Y-82129999D01*
X102766202Y-82158997D01*
X102766201Y-82158998D01*
X102695026Y-82245724D01*
X102624454Y-82377754D01*
X102604538Y-82443411D01*
X102580998Y-82521014D01*
X102576384Y-82567865D01*
X102566324Y-82670000D01*
X102570001Y-82707333D01*
X102570000Y-100715198D01*
X102160827Y-101124371D01*
X102153475Y-101113368D01*
X101946632Y-100906525D01*
X101764466Y-100784805D01*
X101881355Y-100715178D01*
X102097588Y-100520269D01*
X102271641Y-100286920D01*
X102396825Y-100024099D01*
X102441476Y-99876890D01*
X102320155Y-99647000D01*
X101127000Y-99647000D01*
X101127000Y-99667000D01*
X100873000Y-99667000D01*
X100873000Y-99647000D01*
X100853000Y-99647000D01*
X100853000Y-99393000D01*
X100873000Y-99393000D01*
X100873000Y-99373000D01*
X101127000Y-99373000D01*
X101127000Y-99393000D01*
X102320155Y-99393000D01*
X102441476Y-99163110D01*
X102396825Y-99015901D01*
X102271641Y-98753080D01*
X102097588Y-98519731D01*
X101881355Y-98324822D01*
X101764466Y-98255195D01*
X101946632Y-98133475D01*
X102153475Y-97926632D01*
X102315990Y-97683411D01*
X102427932Y-97413158D01*
X102485000Y-97126260D01*
X102485000Y-96833740D01*
X102427932Y-96546842D01*
X102315990Y-96276589D01*
X102153475Y-96033368D01*
X101946632Y-95826525D01*
X101772240Y-95710000D01*
X101946632Y-95593475D01*
X102153475Y-95386632D01*
X102315990Y-95143411D01*
X102427932Y-94873158D01*
X102485000Y-94586260D01*
X102485000Y-94293740D01*
X102427932Y-94006842D01*
X102315990Y-93736589D01*
X102153475Y-93493368D01*
X101946632Y-93286525D01*
X101772240Y-93170000D01*
X101946632Y-93053475D01*
X102153475Y-92846632D01*
X102315990Y-92603411D01*
X102427932Y-92333158D01*
X102485000Y-92046260D01*
X102485000Y-91753740D01*
X102427932Y-91466842D01*
X102315990Y-91196589D01*
X102153475Y-90953368D01*
X101946632Y-90746525D01*
X101772240Y-90630000D01*
X101946632Y-90513475D01*
X102153475Y-90306632D01*
X102315990Y-90063411D01*
X102427932Y-89793158D01*
X102485000Y-89506260D01*
X102485000Y-89213740D01*
X102427932Y-88926842D01*
X102315990Y-88656589D01*
X102153475Y-88413368D01*
X101946632Y-88206525D01*
X101772240Y-88090000D01*
X101946632Y-87973475D01*
X102153475Y-87766632D01*
X102315990Y-87523411D01*
X102427932Y-87253158D01*
X102485000Y-86966260D01*
X102485000Y-86673740D01*
X102427932Y-86386842D01*
X102315990Y-86116589D01*
X102153475Y-85873368D01*
X101946632Y-85666525D01*
X101772240Y-85550000D01*
X101946632Y-85433475D01*
X102153475Y-85226632D01*
X102315990Y-84983411D01*
X102427932Y-84713158D01*
X102485000Y-84426260D01*
X102485000Y-84133740D01*
X102427932Y-83846842D01*
X102315990Y-83576589D01*
X102153475Y-83333368D01*
X101946632Y-83126525D01*
X101764466Y-83004805D01*
X101881355Y-82935178D01*
X102097588Y-82740269D01*
X102271641Y-82506920D01*
X102396825Y-82244099D01*
X102441476Y-82096890D01*
X102320155Y-81867000D01*
X101127000Y-81867000D01*
X101127000Y-81887000D01*
X100873000Y-81887000D01*
X100873000Y-81867000D01*
X100853000Y-81867000D01*
X100853000Y-81613000D01*
X100873000Y-81613000D01*
X100873000Y-81593000D01*
X101127000Y-81593000D01*
X101127000Y-81613000D01*
X102320155Y-81613000D01*
X102441476Y-81383110D01*
X102396825Y-81235901D01*
X102271641Y-80973080D01*
X102097588Y-80739731D01*
X101881355Y-80544822D01*
X101631252Y-80395843D01*
X101453041Y-80332626D01*
X101721818Y-80221295D01*
X102317177Y-79823489D01*
X102823489Y-79317177D01*
X103221295Y-78721818D01*
X103495309Y-78060290D01*
X103635000Y-77358016D01*
X103635000Y-76641984D01*
X103495309Y-75939710D01*
X103221295Y-75278182D01*
X102823489Y-74682823D01*
X102317177Y-74176511D01*
X101721818Y-73778705D01*
X101060290Y-73504691D01*
X100358016Y-73365000D01*
X99641984Y-73365000D01*
X98939710Y-73504691D01*
X98278182Y-73778705D01*
X97682823Y-74176511D01*
X97176511Y-74682823D01*
X96778705Y-75278182D01*
X96504691Y-75939710D01*
X96365000Y-76641984D01*
X96365000Y-77358016D01*
X96504691Y-78060290D01*
X96778705Y-78721818D01*
X97176511Y-79317177D01*
X97682823Y-79823489D01*
X98278182Y-80221295D01*
X98359553Y-80255000D01*
X98313740Y-80255000D01*
X98026842Y-80312068D01*
X97756589Y-80424010D01*
X97513368Y-80586525D01*
X97306525Y-80793368D01*
X97144010Y-81036589D01*
X97032068Y-81306842D01*
X96975000Y-81593740D01*
X96975000Y-81886260D01*
X97032068Y-82173158D01*
X97144010Y-82443411D01*
X97306525Y-82686632D01*
X97513368Y-82893475D01*
X97687760Y-83010000D01*
X97513368Y-83126525D01*
X97306525Y-83333368D01*
X97144010Y-83576589D01*
X97032068Y-83846842D01*
X96975000Y-84133740D01*
X96975000Y-84426260D01*
X97032068Y-84713158D01*
X97144010Y-84983411D01*
X97306525Y-85226632D01*
X97513368Y-85433475D01*
X97687760Y-85550000D01*
X97513368Y-85666525D01*
X97306525Y-85873368D01*
X97144010Y-86116589D01*
X97032068Y-86386842D01*
X96975000Y-86673740D01*
X96975000Y-86966260D01*
X97032068Y-87253158D01*
X97144010Y-87523411D01*
X97306525Y-87766632D01*
X97513368Y-87973475D01*
X97695534Y-88095195D01*
X97578645Y-88164822D01*
X97362412Y-88359731D01*
X97188359Y-88593080D01*
X97063175Y-88855901D01*
X97018524Y-89003110D01*
X97139845Y-89233000D01*
X98333000Y-89233000D01*
X98333000Y-89213000D01*
X98587000Y-89213000D01*
X98587000Y-89233000D01*
X98607000Y-89233000D01*
X98607000Y-89487000D01*
X98587000Y-89487000D01*
X98587000Y-89507000D01*
X98333000Y-89507000D01*
X98333000Y-89487000D01*
X97139845Y-89487000D01*
X97018524Y-89716890D01*
X97063175Y-89864099D01*
X97188359Y-90126920D01*
X97362412Y-90360269D01*
X97578645Y-90555178D01*
X97695534Y-90624805D01*
X97513368Y-90746525D01*
X97306525Y-90953368D01*
X97144010Y-91196589D01*
X97032068Y-91466842D01*
X96975000Y-91753740D01*
X96975000Y-92046260D01*
X97032068Y-92333158D01*
X97144010Y-92603411D01*
X97306525Y-92846632D01*
X97513368Y-93053475D01*
X97695534Y-93175195D01*
X97578645Y-93244822D01*
X97362412Y-93439731D01*
X97188359Y-93673080D01*
X97063175Y-93935901D01*
X97018524Y-94083110D01*
X97139845Y-94313000D01*
X98333000Y-94313000D01*
X98333000Y-94293000D01*
X98587000Y-94293000D01*
X98587000Y-94313000D01*
X98607000Y-94313000D01*
X98607000Y-94567000D01*
X98587000Y-94567000D01*
X98587000Y-94587000D01*
X98333000Y-94587000D01*
X98333000Y-94567000D01*
X97139845Y-94567000D01*
X97018524Y-94796890D01*
X97063175Y-94944099D01*
X97188359Y-95206920D01*
X97362412Y-95440269D01*
X97578645Y-95635178D01*
X97695534Y-95704805D01*
X97513368Y-95826525D01*
X97306525Y-96033368D01*
X97144010Y-96276589D01*
X97032068Y-96546842D01*
X96975000Y-96833740D01*
X96975000Y-97126260D01*
X97032068Y-97413158D01*
X97144010Y-97683411D01*
X97306525Y-97926632D01*
X97513368Y-98133475D01*
X97687760Y-98250000D01*
X97513368Y-98366525D01*
X97306525Y-98573368D01*
X97144010Y-98816589D01*
X97032068Y-99086842D01*
X96975000Y-99373740D01*
X96975000Y-99666260D01*
X97032068Y-99953158D01*
X97144010Y-100223411D01*
X97306525Y-100466632D01*
X97513368Y-100673475D01*
X97687760Y-100790000D01*
X97513368Y-100906525D01*
X97306525Y-101113368D01*
X97144010Y-101356589D01*
X97032068Y-101626842D01*
X96975000Y-101913740D01*
X96975000Y-102206260D01*
X97032068Y-102493158D01*
X97144010Y-102763411D01*
X97306525Y-103006632D01*
X97513368Y-103213475D01*
X97687760Y-103330000D01*
X97513368Y-103446525D01*
X97306525Y-103653368D01*
X97144010Y-103896589D01*
X97032068Y-104166842D01*
X96975000Y-104453740D01*
X96975000Y-104746260D01*
X97032068Y-105033158D01*
X97144010Y-105303411D01*
X97306525Y-105546632D01*
X97513368Y-105753475D01*
X97695534Y-105875195D01*
X97578645Y-105944822D01*
X97362412Y-106139731D01*
X97188359Y-106373080D01*
X97063175Y-106635901D01*
X97018524Y-106783110D01*
X97139845Y-107013000D01*
X98333000Y-107013000D01*
X98333000Y-106993000D01*
X98587000Y-106993000D01*
X98587000Y-107013000D01*
X98607000Y-107013000D01*
X98607000Y-107267000D01*
X98587000Y-107267000D01*
X98587000Y-107287000D01*
X98333000Y-107287000D01*
X98333000Y-107267000D01*
X97139845Y-107267000D01*
X97018524Y-107496890D01*
X97063175Y-107644099D01*
X97188359Y-107906920D01*
X97362412Y-108140269D01*
X97578645Y-108335178D01*
X97695534Y-108404805D01*
X97513368Y-108526525D01*
X97306525Y-108733368D01*
X97144010Y-108976589D01*
X97032068Y-109246842D01*
X96975000Y-109533740D01*
X96975000Y-109826260D01*
X97032068Y-110113158D01*
X97144010Y-110383411D01*
X97306525Y-110626632D01*
X97513368Y-110833475D01*
X97687760Y-110950000D01*
X97513368Y-111066525D01*
X97306525Y-111273368D01*
X97144010Y-111516589D01*
X97032068Y-111786842D01*
X96975000Y-112073740D01*
X96975000Y-112366260D01*
X97032068Y-112653158D01*
X97144010Y-112923411D01*
X97306525Y-113166632D01*
X97513368Y-113373475D01*
X97695534Y-113495195D01*
X97578645Y-113564822D01*
X97362412Y-113759731D01*
X97188359Y-113993080D01*
X97063175Y-114255901D01*
X97018524Y-114403110D01*
X97139845Y-114633000D01*
X98333000Y-114633000D01*
X98333000Y-114613000D01*
X98587000Y-114613000D01*
X98587000Y-114633000D01*
X98607000Y-114633000D01*
X98607000Y-114887000D01*
X98587000Y-114887000D01*
X98587000Y-114907000D01*
X98333000Y-114907000D01*
X98333000Y-114887000D01*
X97139845Y-114887000D01*
X97018524Y-115116890D01*
X97063175Y-115264099D01*
X97188359Y-115526920D01*
X97362412Y-115760269D01*
X97578645Y-115955178D01*
X97695534Y-116024805D01*
X97513368Y-116146525D01*
X97306525Y-116353368D01*
X97144010Y-116596589D01*
X97032068Y-116866842D01*
X96975000Y-117153740D01*
X96975000Y-117446260D01*
X97032068Y-117733158D01*
X97144010Y-118003411D01*
X97306525Y-118246632D01*
X97513368Y-118453475D01*
X97687760Y-118570000D01*
X97513368Y-118686525D01*
X97306525Y-118893368D01*
X97144010Y-119136589D01*
X97032068Y-119406842D01*
X96975000Y-119693740D01*
X96975000Y-119986260D01*
X97032068Y-120273158D01*
X97144010Y-120543411D01*
X97306525Y-120786632D01*
X97513368Y-120993475D01*
X97687760Y-121110000D01*
X97513368Y-121226525D01*
X97306525Y-121433368D01*
X97144010Y-121676589D01*
X97032068Y-121946842D01*
X96975000Y-122233740D01*
X96975000Y-122526260D01*
X97032068Y-122813158D01*
X97144010Y-123083411D01*
X97306525Y-123326632D01*
X97513368Y-123533475D01*
X97695534Y-123655195D01*
X97578645Y-123724822D01*
X97362412Y-123919731D01*
X97188359Y-124153080D01*
X97063175Y-124415901D01*
X97018524Y-124563110D01*
X97139845Y-124793000D01*
X98333000Y-124793000D01*
X98333000Y-124773000D01*
X98587000Y-124773000D01*
X98587000Y-124793000D01*
X98607000Y-124793000D01*
X98607000Y-125047000D01*
X98587000Y-125047000D01*
X98587000Y-125067000D01*
X98333000Y-125067000D01*
X98333000Y-125047000D01*
X97139845Y-125047000D01*
X97018524Y-125276890D01*
X97063175Y-125424099D01*
X97188359Y-125686920D01*
X97362412Y-125920269D01*
X97578645Y-126115178D01*
X97695534Y-126184805D01*
X97513368Y-126306525D01*
X97306525Y-126513368D01*
X97144010Y-126756589D01*
X97032068Y-127026842D01*
X96975000Y-127313740D01*
X96975000Y-127606260D01*
X97032068Y-127893158D01*
X97144010Y-128163411D01*
X97306525Y-128406632D01*
X97513368Y-128613475D01*
X97687760Y-128730000D01*
X97513368Y-128846525D01*
X97306525Y-129053368D01*
X97144010Y-129296589D01*
X97032068Y-129566842D01*
X96975000Y-129853740D01*
X96975000Y-130146260D01*
X97032068Y-130433158D01*
X97144010Y-130703411D01*
X97306525Y-130946632D01*
X97513368Y-131153475D01*
X97756589Y-131315990D01*
X98026842Y-131427932D01*
X98313740Y-131485000D01*
X98606260Y-131485000D01*
X98893158Y-131427932D01*
X99163411Y-131315990D01*
X99406632Y-131153475D01*
X99538487Y-131021620D01*
X99560498Y-131094180D01*
X99619463Y-131204494D01*
X99698815Y-131301185D01*
X99776574Y-131365000D01*
X99641984Y-131365000D01*
X98939710Y-131504691D01*
X98278182Y-131778705D01*
X97682823Y-132176511D01*
X97176511Y-132682823D01*
X96778705Y-133278182D01*
X96504691Y-133939710D01*
X96365000Y-134641984D01*
X96365000Y-135358016D01*
X96504691Y-136060290D01*
X96778705Y-136721818D01*
X97176511Y-137317177D01*
X97682823Y-137823489D01*
X98278182Y-138221295D01*
X98564761Y-138340000D01*
X90660000Y-138340000D01*
X90660000Y-129150000D01*
X91511928Y-129150000D01*
X91511928Y-130850000D01*
X91524188Y-130974482D01*
X91560498Y-131094180D01*
X91619463Y-131204494D01*
X91698815Y-131301185D01*
X91795506Y-131380537D01*
X91905820Y-131439502D01*
X92025518Y-131475812D01*
X92150000Y-131488072D01*
X93850000Y-131488072D01*
X93974482Y-131475812D01*
X94094180Y-131439502D01*
X94204494Y-131380537D01*
X94301185Y-131301185D01*
X94380537Y-131204494D01*
X94439502Y-131094180D01*
X94475812Y-130974482D01*
X94488072Y-130850000D01*
X94488072Y-129150000D01*
X94475812Y-129025518D01*
X94439502Y-128905820D01*
X94380537Y-128795506D01*
X94301185Y-128698815D01*
X94204494Y-128619463D01*
X94094180Y-128560498D01*
X94013534Y-128536034D01*
X94097588Y-128460269D01*
X94271641Y-128226920D01*
X94396825Y-127964099D01*
X94441476Y-127816890D01*
X94320155Y-127587000D01*
X93127000Y-127587000D01*
X93127000Y-127607000D01*
X92873000Y-127607000D01*
X92873000Y-127587000D01*
X91679845Y-127587000D01*
X91558524Y-127816890D01*
X91603175Y-127964099D01*
X91728359Y-128226920D01*
X91902412Y-128460269D01*
X91986466Y-128536034D01*
X91905820Y-128560498D01*
X91795506Y-128619463D01*
X91698815Y-128698815D01*
X91619463Y-128795506D01*
X91560498Y-128905820D01*
X91524188Y-129025518D01*
X91511928Y-129150000D01*
X90660000Y-129150000D01*
X90660000Y-127103110D01*
X91558524Y-127103110D01*
X91679845Y-127333000D01*
X92873000Y-127333000D01*
X92873000Y-126139186D01*
X93127000Y-126139186D01*
X93127000Y-127333000D01*
X94320155Y-127333000D01*
X94441476Y-127103110D01*
X94396825Y-126955901D01*
X94271641Y-126693080D01*
X94097588Y-126459731D01*
X93881355Y-126264822D01*
X93631252Y-126115843D01*
X93356891Y-126018519D01*
X93127000Y-126139186D01*
X92873000Y-126139186D01*
X92643109Y-126018519D01*
X92368748Y-126115843D01*
X92118645Y-126264822D01*
X91902412Y-126459731D01*
X91728359Y-126693080D01*
X91603175Y-126955901D01*
X91558524Y-127103110D01*
X90660000Y-127103110D01*
X90660000Y-60660000D01*
X117206111Y-60660000D01*
X117158815Y-60698815D01*
G37*
%TD.AperFunction*%
D19*
X189340001Y-75564763D02*
X189221295Y-75278182D01*
X188823489Y-74682823D01*
X188317177Y-74176511D01*
X187721818Y-73778705D01*
X187060290Y-73504691D01*
X186358016Y-73365000D01*
X185641984Y-73365000D01*
X184939710Y-73504691D01*
X184278182Y-73778705D01*
X183682823Y-74176511D01*
X183176511Y-74682823D01*
X182778705Y-75278182D01*
X182504691Y-75939710D01*
X182365000Y-76641984D01*
X182365000Y-77358016D01*
X182504691Y-78060290D01*
X182778705Y-78721818D01*
X183176511Y-79317177D01*
X183682823Y-79823489D01*
X184278182Y-80221295D01*
X184939710Y-80495309D01*
X185641984Y-80635000D01*
X186358016Y-80635000D01*
X187060290Y-80495309D01*
X187721818Y-80221295D01*
X188317177Y-79823489D01*
X188823489Y-79317177D01*
X189221295Y-78721818D01*
X189340001Y-78435237D01*
X189340001Y-82010000D01*
X180982419Y-82010000D01*
X180950000Y-82006807D01*
X180917581Y-82010000D01*
X180820617Y-82019550D01*
X180696207Y-82057290D01*
X180581550Y-82118575D01*
X180481052Y-82201052D01*
X180398575Y-82301550D01*
X180337290Y-82416207D01*
X180299550Y-82540617D01*
X180286807Y-82670000D01*
X180290000Y-82702419D01*
X180290001Y-96260000D01*
X107082419Y-96260000D01*
X107050000Y-96256807D01*
X107017581Y-96260000D01*
X106920617Y-96269550D01*
X106796207Y-96307290D01*
X106681550Y-96368575D01*
X106581052Y-96451052D01*
X106498575Y-96551550D01*
X106437290Y-96666207D01*
X106399550Y-96790617D01*
X106386807Y-96920000D01*
X106390001Y-96952429D01*
X106390000Y-138340000D01*
X101435239Y-138340000D01*
X101721818Y-138221295D01*
X102317177Y-137823489D01*
X102823489Y-137317177D01*
X103221295Y-136721818D01*
X103495309Y-136060290D01*
X103635000Y-135358016D01*
X103635000Y-134641984D01*
X103495309Y-133939710D01*
X103221295Y-133278182D01*
X102823489Y-132682823D01*
X102317177Y-132176511D01*
X101721818Y-131778705D01*
X101060290Y-131504691D01*
X100976741Y-131488072D01*
X101850000Y-131488072D01*
X101974482Y-131475812D01*
X102094180Y-131439502D01*
X102204494Y-131380537D01*
X102301185Y-131301185D01*
X102380537Y-131204494D01*
X102439502Y-131094180D01*
X102475812Y-130974482D01*
X102488072Y-130850000D01*
X102488072Y-129150000D01*
X102475812Y-129025518D01*
X102439502Y-128905820D01*
X102380537Y-128795506D01*
X102301185Y-128698815D01*
X102204494Y-128619463D01*
X102094180Y-128560498D01*
X102021620Y-128538487D01*
X102153475Y-128406632D01*
X102315990Y-128163411D01*
X102427932Y-127893158D01*
X102485000Y-127606260D01*
X102485000Y-127313740D01*
X102427932Y-127026842D01*
X102315990Y-126756589D01*
X102153475Y-126513368D01*
X101946632Y-126306525D01*
X101772240Y-126190000D01*
X101946632Y-126073475D01*
X102153475Y-125866632D01*
X102315990Y-125623411D01*
X102427932Y-125353158D01*
X102485000Y-125066260D01*
X102485000Y-124773740D01*
X102427932Y-124486842D01*
X102315990Y-124216589D01*
X102153475Y-123973368D01*
X101946632Y-123766525D01*
X101772240Y-123650000D01*
X101946632Y-123533475D01*
X102153475Y-123326632D01*
X102315990Y-123083411D01*
X102427932Y-122813158D01*
X102485000Y-122526260D01*
X102485000Y-122233740D01*
X102427932Y-121946842D01*
X102315990Y-121676589D01*
X102153475Y-121433368D01*
X101946632Y-121226525D01*
X101764466Y-121104805D01*
X101881355Y-121035178D01*
X102097588Y-120840269D01*
X102271641Y-120606920D01*
X102396825Y-120344099D01*
X102441476Y-120196890D01*
X102320155Y-119967000D01*
X101127000Y-119967000D01*
X101127000Y-119987000D01*
X100873000Y-119987000D01*
X100873000Y-119967000D01*
X100853000Y-119967000D01*
X100853000Y-119713000D01*
X100873000Y-119713000D01*
X100873000Y-119693000D01*
X101127000Y-119693000D01*
X101127000Y-119713000D01*
X102320155Y-119713000D01*
X102441476Y-119483110D01*
X102396825Y-119335901D01*
X102271641Y-119073080D01*
X102097588Y-118839731D01*
X101881355Y-118644822D01*
X101764466Y-118575195D01*
X101946632Y-118453475D01*
X102153475Y-118246632D01*
X102315990Y-118003411D01*
X102427932Y-117733158D01*
X102485000Y-117446260D01*
X102485000Y-117153740D01*
X102427932Y-116866842D01*
X102315990Y-116596589D01*
X102153475Y-116353368D01*
X101946632Y-116146525D01*
X101772240Y-116030000D01*
X101946632Y-115913475D01*
X102153475Y-115706632D01*
X102315990Y-115463411D01*
X102427932Y-115193158D01*
X102485000Y-114906260D01*
X102485000Y-114613740D01*
X102427932Y-114326842D01*
X102315990Y-114056589D01*
X102153475Y-113813368D01*
X101946632Y-113606525D01*
X101772240Y-113490000D01*
X101946632Y-113373475D01*
X102153475Y-113166632D01*
X102315990Y-112923411D01*
X102427932Y-112653158D01*
X102485000Y-112366260D01*
X102485000Y-112073740D01*
X102427932Y-111786842D01*
X102315990Y-111516589D01*
X102153475Y-111273368D01*
X101946632Y-111066525D01*
X101772240Y-110950000D01*
X101946632Y-110833475D01*
X102153475Y-110626632D01*
X102315990Y-110383411D01*
X102427932Y-110113158D01*
X102485000Y-109826260D01*
X102485000Y-109533740D01*
X102427932Y-109246842D01*
X102315990Y-108976589D01*
X102153475Y-108733368D01*
X101946632Y-108526525D01*
X101772240Y-108410000D01*
X101946632Y-108293475D01*
X102153475Y-108086632D01*
X102315990Y-107843411D01*
X102427932Y-107573158D01*
X102485000Y-107286260D01*
X102485000Y-106993740D01*
X102441209Y-106773592D01*
X105461004Y-103753798D01*
X105490001Y-103730001D01*
X105584974Y-103614276D01*
X105655546Y-103482247D01*
X105699003Y-103338986D01*
X105710000Y-103227333D01*
X105710000Y-103227332D01*
X105713677Y-103190000D01*
X105710000Y-103152667D01*
X105710000Y-92988072D01*
X106250000Y-92988072D01*
X106374482Y-92975812D01*
X106400000Y-92968071D01*
X106425518Y-92975812D01*
X106550000Y-92988072D01*
X107550000Y-92988072D01*
X107674482Y-92975812D01*
X107794180Y-92939502D01*
X107822926Y-92924137D01*
X110661595Y-95762807D01*
X110685393Y-95791805D01*
X110801118Y-95886778D01*
X110933147Y-95957350D01*
X111076408Y-96000807D01*
X111188061Y-96011804D01*
X111188069Y-96011804D01*
X111225394Y-96015480D01*
X111262719Y-96011804D01*
X144690874Y-96011804D01*
X144728196Y-96015480D01*
X144765518Y-96011804D01*
X144765529Y-96011804D01*
X144877182Y-96000807D01*
X145020443Y-95957350D01*
X145152472Y-95886778D01*
X145268197Y-95791805D01*
X145292000Y-95762801D01*
X158304801Y-82750000D01*
X173711928Y-82750000D01*
X173711928Y-84450000D01*
X173724188Y-84574482D01*
X173760498Y-84694180D01*
X173819463Y-84804494D01*
X173898815Y-84901185D01*
X173995506Y-84980537D01*
X174105820Y-85039502D01*
X174225518Y-85075812D01*
X174350000Y-85088072D01*
X176050000Y-85088072D01*
X176174482Y-85075812D01*
X176294180Y-85039502D01*
X176404494Y-84980537D01*
X176501185Y-84901185D01*
X176580537Y-84804494D01*
X176639502Y-84694180D01*
X176675812Y-84574482D01*
X176688072Y-84450000D01*
X176688072Y-82750000D01*
X176675812Y-82625518D01*
X176639502Y-82505820D01*
X176580537Y-82395506D01*
X176501185Y-82298815D01*
X176404494Y-82219463D01*
X176294180Y-82160498D01*
X176174482Y-82124188D01*
X176050000Y-82111928D01*
X174350000Y-82111928D01*
X174225518Y-82124188D01*
X174105820Y-82160498D01*
X173995506Y-82219463D01*
X173898815Y-82298815D01*
X173819463Y-82395506D01*
X173760498Y-82505820D01*
X173724188Y-82625518D01*
X173711928Y-82750000D01*
X158304801Y-82750000D01*
X158621003Y-82433799D01*
X158650001Y-82410001D01*
X158744974Y-82294276D01*
X158815546Y-82162247D01*
X158859003Y-82018986D01*
X158870000Y-81907333D01*
X158870000Y-81907325D01*
X158873676Y-81870000D01*
X158870000Y-81832675D01*
X158870000Y-72898061D01*
X159965000Y-72898061D01*
X159965000Y-73101939D01*
X160004774Y-73301898D01*
X160082795Y-73490256D01*
X160196063Y-73659774D01*
X160340226Y-73803937D01*
X160509744Y-73917205D01*
X160698102Y-73995226D01*
X160722103Y-74000000D01*
X160698102Y-74004774D01*
X160509744Y-74082795D01*
X160340226Y-74196063D01*
X160196063Y-74340226D01*
X160082795Y-74509744D01*
X160004774Y-74698102D01*
X159965000Y-74898061D01*
X159965000Y-75101939D01*
X160004774Y-75301898D01*
X160082795Y-75490256D01*
X160196063Y-75659774D01*
X160340226Y-75803937D01*
X160509744Y-75917205D01*
X160698102Y-75995226D01*
X160898061Y-76035000D01*
X160986780Y-76035000D01*
X161022038Y-76077962D01*
X161156613Y-76188405D01*
X161310149Y-76270472D01*
X161476745Y-76321008D01*
X161649999Y-76338072D01*
X162350001Y-76338072D01*
X162523255Y-76321008D01*
X162689851Y-76270472D01*
X162843387Y-76188405D01*
X162977962Y-76077962D01*
X163000000Y-76051109D01*
X163016109Y-76070737D01*
X163004774Y-76098102D01*
X162965000Y-76298061D01*
X162965000Y-76501939D01*
X163004774Y-76701898D01*
X163082795Y-76890256D01*
X163196063Y-77059774D01*
X163340226Y-77203937D01*
X163509744Y-77317205D01*
X163698102Y-77395226D01*
X163898061Y-77435000D01*
X164101939Y-77435000D01*
X164301898Y-77395226D01*
X164490256Y-77317205D01*
X164659774Y-77203937D01*
X164803937Y-77059774D01*
X164917205Y-76890256D01*
X164995226Y-76701898D01*
X165035000Y-76501939D01*
X165035000Y-76298061D01*
X164995226Y-76098102D01*
X164983891Y-76070737D01*
X165088405Y-75943387D01*
X165170472Y-75789851D01*
X165220478Y-75625000D01*
X167636928Y-75625000D01*
X167649188Y-75749482D01*
X167685498Y-75869180D01*
X167744463Y-75979494D01*
X167823815Y-76076185D01*
X167920506Y-76155537D01*
X168030820Y-76214502D01*
X168150518Y-76250812D01*
X168275000Y-76263072D01*
X168714250Y-76260000D01*
X168873000Y-76101250D01*
X168873000Y-75164500D01*
X169127000Y-75164500D01*
X169127000Y-76101250D01*
X169285750Y-76260000D01*
X169725000Y-76263072D01*
X169849482Y-76250812D01*
X169969180Y-76214502D01*
X170000000Y-76198028D01*
X170030820Y-76214502D01*
X170150518Y-76250812D01*
X170275000Y-76263072D01*
X170714250Y-76260000D01*
X170873000Y-76101250D01*
X170873000Y-75164500D01*
X171127000Y-75164500D01*
X171127000Y-76101250D01*
X171285750Y-76260000D01*
X171725000Y-76263072D01*
X171849482Y-76250812D01*
X171969180Y-76214502D01*
X172079494Y-76155537D01*
X172176185Y-76076185D01*
X172255537Y-75979494D01*
X172314502Y-75869180D01*
X172350812Y-75749482D01*
X172363072Y-75625000D01*
X172360000Y-75323250D01*
X172201250Y-75164500D01*
X171127000Y-75164500D01*
X170873000Y-75164500D01*
X169127000Y-75164500D01*
X168873000Y-75164500D01*
X167798750Y-75164500D01*
X167640000Y-75323250D01*
X167636928Y-75625000D01*
X165220478Y-75625000D01*
X165221008Y-75623255D01*
X165238072Y-75450001D01*
X165238072Y-74549999D01*
X165221008Y-74376745D01*
X165170472Y-74210149D01*
X165088405Y-74056613D01*
X165041944Y-74000000D01*
X165088405Y-73943387D01*
X165170472Y-73789851D01*
X165179527Y-73760000D01*
X167768750Y-73760000D01*
X167786595Y-73793386D01*
X167897038Y-73927962D01*
X167903594Y-73933342D01*
X167823815Y-73998815D01*
X167744463Y-74095506D01*
X167685498Y-74205820D01*
X167649188Y-74325518D01*
X167636928Y-74450000D01*
X167640000Y-74751750D01*
X167798750Y-74910500D01*
X168873000Y-74910500D01*
X168873000Y-74890500D01*
X169127000Y-74890500D01*
X169127000Y-74910500D01*
X170873000Y-74910500D01*
X170873000Y-74890500D01*
X171127000Y-74890500D01*
X171127000Y-74910500D01*
X172201250Y-74910500D01*
X172360000Y-74751750D01*
X172363072Y-74450000D01*
X172350812Y-74325518D01*
X172314502Y-74205820D01*
X172255537Y-74095506D01*
X172176185Y-73998815D01*
X172096406Y-73933342D01*
X172102962Y-73927962D01*
X172213405Y-73793386D01*
X172295472Y-73639850D01*
X172346008Y-73473254D01*
X172363072Y-73300000D01*
X172363072Y-72625000D01*
X172346008Y-72451746D01*
X172295472Y-72285150D01*
X172213405Y-72131614D01*
X172129601Y-72029498D01*
X172301898Y-71995226D01*
X172490256Y-71917205D01*
X172659774Y-71803937D01*
X172803937Y-71659774D01*
X172917205Y-71490256D01*
X172995226Y-71301898D01*
X173035000Y-71101939D01*
X173035000Y-70898061D01*
X172995226Y-70698102D01*
X172917205Y-70509744D01*
X172803937Y-70340226D01*
X172659774Y-70196063D01*
X172490256Y-70082795D01*
X172301898Y-70004774D01*
X172101939Y-69965000D01*
X171898061Y-69965000D01*
X171698102Y-70004774D01*
X171509744Y-70082795D01*
X171340226Y-70196063D01*
X171196063Y-70340226D01*
X171082795Y-70509744D01*
X171004774Y-70698102D01*
X170965000Y-70898061D01*
X170965000Y-70960198D01*
X170488998Y-71436201D01*
X170460000Y-71459999D01*
X170436202Y-71488997D01*
X170436201Y-71488998D01*
X170365026Y-71575724D01*
X170294454Y-71707754D01*
X170273201Y-71777818D01*
X170185150Y-71804528D01*
X170031614Y-71886595D01*
X170000000Y-71912540D01*
X169968386Y-71886595D01*
X169814850Y-71804528D01*
X169648254Y-71753992D01*
X169475000Y-71736928D01*
X168525000Y-71736928D01*
X168351746Y-71753992D01*
X168185150Y-71804528D01*
X168031614Y-71886595D01*
X167897038Y-71997038D01*
X167786595Y-72131614D01*
X167728661Y-72240000D01*
X165179527Y-72240000D01*
X165170472Y-72210149D01*
X165088405Y-72056613D01*
X164977962Y-71922038D01*
X164843387Y-71811595D01*
X164689851Y-71729528D01*
X164523255Y-71678992D01*
X164350001Y-71661928D01*
X163649999Y-71661928D01*
X163476745Y-71678992D01*
X163310149Y-71729528D01*
X163156613Y-71811595D01*
X163022038Y-71922038D01*
X163000000Y-71948891D01*
X162977962Y-71922038D01*
X162843387Y-71811595D01*
X162689851Y-71729528D01*
X162523255Y-71678992D01*
X162350001Y-71661928D01*
X161649999Y-71661928D01*
X161476745Y-71678992D01*
X161310149Y-71729528D01*
X161156613Y-71811595D01*
X161022038Y-71922038D01*
X160986780Y-71965000D01*
X160898061Y-71965000D01*
X160698102Y-72004774D01*
X160509744Y-72082795D01*
X160340226Y-72196063D01*
X160196063Y-72340226D01*
X160082795Y-72509744D01*
X160004774Y-72698102D01*
X159965000Y-72898061D01*
X158870000Y-72898061D01*
X158870000Y-71114801D01*
X159949802Y-70035000D01*
X160101939Y-70035000D01*
X160301898Y-69995226D01*
X160490256Y-69917205D01*
X160659774Y-69803937D01*
X160803937Y-69659774D01*
X160917205Y-69490256D01*
X160995226Y-69301898D01*
X161035000Y-69101939D01*
X161035000Y-68898061D01*
X160995226Y-68698102D01*
X160917205Y-68509744D01*
X160803937Y-68340226D01*
X160659774Y-68196063D01*
X160490256Y-68082795D01*
X160301898Y-68004774D01*
X160101939Y-67965000D01*
X159898061Y-67965000D01*
X159698102Y-68004774D01*
X159509744Y-68082795D01*
X159340226Y-68196063D01*
X159196063Y-68340226D01*
X159082795Y-68509744D01*
X159004774Y-68698102D01*
X158971919Y-68863279D01*
X157599002Y-70236197D01*
X157569999Y-70259999D01*
X157524049Y-70315990D01*
X157475026Y-70375724D01*
X157416616Y-70485000D01*
X157404454Y-70507754D01*
X157360997Y-70651015D01*
X157350000Y-70762668D01*
X157350000Y-70762678D01*
X157346324Y-70800000D01*
X157350000Y-70837322D01*
X157350001Y-81555197D01*
X150339141Y-88566058D01*
X150340000Y-88557333D01*
X150340000Y-88557325D01*
X150343676Y-88520000D01*
X150340000Y-88482675D01*
X150340000Y-76513711D01*
X150383937Y-76469774D01*
X150497205Y-76300256D01*
X150575226Y-76111898D01*
X150615000Y-75911939D01*
X150615000Y-75708061D01*
X150575226Y-75508102D01*
X150525508Y-75388072D01*
X151150000Y-75388072D01*
X151274482Y-75375812D01*
X151394180Y-75339502D01*
X151504494Y-75280537D01*
X151601185Y-75201185D01*
X151680537Y-75104494D01*
X151739502Y-74994180D01*
X151775812Y-74874482D01*
X151787087Y-74760000D01*
X152674313Y-74760000D01*
X152684010Y-74783411D01*
X152846525Y-75026632D01*
X152978380Y-75158487D01*
X152905820Y-75180498D01*
X152795506Y-75239463D01*
X152698815Y-75318815D01*
X152619463Y-75415506D01*
X152560498Y-75525820D01*
X152524188Y-75645518D01*
X152511928Y-75770000D01*
X152511928Y-77470000D01*
X152524188Y-77594482D01*
X152560498Y-77714180D01*
X152619463Y-77824494D01*
X152698815Y-77921185D01*
X152795506Y-78000537D01*
X152905820Y-78059502D01*
X153025518Y-78095812D01*
X153150000Y-78108072D01*
X154850000Y-78108072D01*
X154974482Y-78095812D01*
X155094180Y-78059502D01*
X155204494Y-78000537D01*
X155301185Y-77921185D01*
X155380537Y-77824494D01*
X155439502Y-77714180D01*
X155475812Y-77594482D01*
X155488072Y-77470000D01*
X155488072Y-77380000D01*
X155542678Y-77380000D01*
X155580000Y-77383676D01*
X155617322Y-77380000D01*
X155617333Y-77380000D01*
X155728986Y-77369003D01*
X155872247Y-77325546D01*
X156004276Y-77254974D01*
X156120001Y-77160001D01*
X156143803Y-77130998D01*
X156911002Y-76363799D01*
X156940001Y-76340001D01*
X156979192Y-76292247D01*
X157034974Y-76224277D01*
X157105546Y-76092247D01*
X157124735Y-76028987D01*
X157149003Y-75948986D01*
X157160000Y-75837333D01*
X157160000Y-75837324D01*
X157163676Y-75800001D01*
X157160000Y-75762678D01*
X157160000Y-65437323D01*
X157163676Y-65400000D01*
X157160000Y-65362677D01*
X157160000Y-65362667D01*
X157149003Y-65251014D01*
X157105546Y-65107753D01*
X157034974Y-64975724D01*
X156940001Y-64859999D01*
X156911004Y-64836202D01*
X156163803Y-64089002D01*
X156140001Y-64059999D01*
X156024276Y-63965026D01*
X155892247Y-63894454D01*
X155748986Y-63850997D01*
X155637333Y-63840000D01*
X155637322Y-63840000D01*
X155600000Y-63836324D01*
X155562678Y-63840000D01*
X146437323Y-63840000D01*
X146400000Y-63836324D01*
X146362677Y-63840000D01*
X146362667Y-63840000D01*
X146251014Y-63850997D01*
X146107753Y-63894454D01*
X145975724Y-63965026D01*
X145859999Y-64059999D01*
X145836201Y-64088997D01*
X139685199Y-70240000D01*
X133137087Y-70240000D01*
X133125812Y-70125518D01*
X133089502Y-70005820D01*
X133030537Y-69895506D01*
X132951185Y-69798815D01*
X132854494Y-69719463D01*
X132744180Y-69660498D01*
X132624482Y-69624188D01*
X132500000Y-69611928D01*
X131500000Y-69611928D01*
X131375518Y-69624188D01*
X131350000Y-69631929D01*
X131324482Y-69624188D01*
X131200000Y-69611928D01*
X130200000Y-69611928D01*
X130075518Y-69624188D01*
X129955820Y-69660498D01*
X129845506Y-69719463D01*
X129748815Y-69798815D01*
X129669463Y-69895506D01*
X129610498Y-70005820D01*
X129574188Y-70125518D01*
X129561928Y-70250000D01*
X129561928Y-70280000D01*
X129264802Y-70280000D01*
X129030000Y-70045199D01*
X129030000Y-67598043D01*
X129184759Y-67494637D01*
X129384637Y-67294759D01*
X129540000Y-67062241D01*
X129695363Y-67294759D01*
X129895241Y-67494637D01*
X130130273Y-67651680D01*
X130391426Y-67759853D01*
X130668665Y-67815000D01*
X130951335Y-67815000D01*
X131228574Y-67759853D01*
X131489727Y-67651680D01*
X131724759Y-67494637D01*
X131924637Y-67294759D01*
X132080000Y-67062241D01*
X132235363Y-67294759D01*
X132435241Y-67494637D01*
X132670273Y-67651680D01*
X132931426Y-67759853D01*
X133208665Y-67815000D01*
X133491335Y-67815000D01*
X133768574Y-67759853D01*
X134029727Y-67651680D01*
X134264759Y-67494637D01*
X134464637Y-67294759D01*
X134620000Y-67062241D01*
X134775363Y-67294759D01*
X134975241Y-67494637D01*
X135210273Y-67651680D01*
X135471426Y-67759853D01*
X135748665Y-67815000D01*
X136031335Y-67815000D01*
X136308574Y-67759853D01*
X136569727Y-67651680D01*
X136804759Y-67494637D01*
X137004637Y-67294759D01*
X137160000Y-67062241D01*
X137315363Y-67294759D01*
X137515241Y-67494637D01*
X137750273Y-67651680D01*
X138011426Y-67759853D01*
X138288665Y-67815000D01*
X138571335Y-67815000D01*
X138848574Y-67759853D01*
X139109727Y-67651680D01*
X139344759Y-67494637D01*
X139544637Y-67294759D01*
X139700000Y-67062241D01*
X139855363Y-67294759D01*
X140055241Y-67494637D01*
X140290273Y-67651680D01*
X140551426Y-67759853D01*
X140828665Y-67815000D01*
X141111335Y-67815000D01*
X141388574Y-67759853D01*
X141649727Y-67651680D01*
X141884759Y-67494637D01*
X142084637Y-67294759D01*
X142241680Y-67059727D01*
X142349853Y-66798574D01*
X142405000Y-66521335D01*
X142405000Y-66238665D01*
X142349853Y-65961426D01*
X142241680Y-65700273D01*
X142084637Y-65465241D01*
X141884759Y-65265363D01*
X141649727Y-65108320D01*
X141388574Y-65000147D01*
X141111335Y-64945000D01*
X140828665Y-64945000D01*
X140551426Y-65000147D01*
X140290273Y-65108320D01*
X140055241Y-65265363D01*
X139855363Y-65465241D01*
X139700000Y-65697759D01*
X139544637Y-65465241D01*
X139344759Y-65265363D01*
X139109727Y-65108320D01*
X138848574Y-65000147D01*
X138571335Y-64945000D01*
X138288665Y-64945000D01*
X138011426Y-65000147D01*
X137750273Y-65108320D01*
X137515241Y-65265363D01*
X137315363Y-65465241D01*
X137160000Y-65697759D01*
X137004637Y-65465241D01*
X136804759Y-65265363D01*
X136569727Y-65108320D01*
X136308574Y-65000147D01*
X136031335Y-64945000D01*
X135748665Y-64945000D01*
X135471426Y-65000147D01*
X135210273Y-65108320D01*
X134975241Y-65265363D01*
X134775363Y-65465241D01*
X134620000Y-65697759D01*
X134464637Y-65465241D01*
X134264759Y-65265363D01*
X134110000Y-65161957D01*
X134110000Y-64764801D01*
X134514802Y-64360000D01*
X140162678Y-64360000D01*
X140200000Y-64363676D01*
X140237322Y-64360000D01*
X140237333Y-64360000D01*
X140348986Y-64349003D01*
X140492247Y-64305546D01*
X140624276Y-64234974D01*
X140740001Y-64140001D01*
X140763804Y-64110997D01*
X141130998Y-63743803D01*
X141160001Y-63720001D01*
X141254974Y-63604276D01*
X141325546Y-63472247D01*
X141369003Y-63328986D01*
X141373585Y-63282465D01*
X141566632Y-63153475D01*
X141773475Y-62946632D01*
X141935990Y-62703411D01*
X142047932Y-62433158D01*
X142105000Y-62146260D01*
X142105000Y-61853740D01*
X142047932Y-61566842D01*
X142040956Y-61550000D01*
X177711928Y-61550000D01*
X177711928Y-63250000D01*
X177724188Y-63374482D01*
X177760498Y-63494180D01*
X177819463Y-63604494D01*
X177898815Y-63701185D01*
X177995506Y-63780537D01*
X178105820Y-63839502D01*
X178178380Y-63861513D01*
X178046525Y-63993368D01*
X177884010Y-64236589D01*
X177772068Y-64506842D01*
X177715000Y-64793740D01*
X177715000Y-65086260D01*
X177772068Y-65373158D01*
X177884010Y-65643411D01*
X178046525Y-65886632D01*
X178253368Y-66093475D01*
X178427760Y-66210000D01*
X178253368Y-66326525D01*
X178046525Y-66533368D01*
X177884010Y-66776589D01*
X177772068Y-67046842D01*
X177715000Y-67333740D01*
X177715000Y-67626260D01*
X177772068Y-67913158D01*
X177884010Y-68183411D01*
X178046525Y-68426632D01*
X178253368Y-68633475D01*
X178427760Y-68750000D01*
X178253368Y-68866525D01*
X178046525Y-69073368D01*
X177884010Y-69316589D01*
X177772068Y-69586842D01*
X177715000Y-69873740D01*
X177715000Y-70166260D01*
X177772068Y-70453158D01*
X177884010Y-70723411D01*
X178046525Y-70966632D01*
X178253368Y-71173475D01*
X178427760Y-71290000D01*
X178253368Y-71406525D01*
X178046525Y-71613368D01*
X177884010Y-71856589D01*
X177772068Y-72126842D01*
X177715000Y-72413740D01*
X177715000Y-72706260D01*
X177772068Y-72993158D01*
X177884010Y-73263411D01*
X178046525Y-73506632D01*
X178253368Y-73713475D01*
X178496589Y-73875990D01*
X178766842Y-73987932D01*
X179053740Y-74045000D01*
X179346260Y-74045000D01*
X179633158Y-73987932D01*
X179903411Y-73875990D01*
X180146632Y-73713475D01*
X180353475Y-73506632D01*
X180515990Y-73263411D01*
X180627932Y-72993158D01*
X180685000Y-72706260D01*
X180685000Y-72413740D01*
X180627932Y-72126842D01*
X180515990Y-71856589D01*
X180353475Y-71613368D01*
X180146632Y-71406525D01*
X179972240Y-71290000D01*
X180146632Y-71173475D01*
X180353475Y-70966632D01*
X180515990Y-70723411D01*
X180627932Y-70453158D01*
X180685000Y-70166260D01*
X180685000Y-69873740D01*
X180627932Y-69586842D01*
X180515990Y-69316589D01*
X180353475Y-69073368D01*
X180146632Y-68866525D01*
X179972240Y-68750000D01*
X180146632Y-68633475D01*
X180353475Y-68426632D01*
X180515990Y-68183411D01*
X180627932Y-67913158D01*
X180685000Y-67626260D01*
X180685000Y-67333740D01*
X180627932Y-67046842D01*
X180515990Y-66776589D01*
X180353475Y-66533368D01*
X180146632Y-66326525D01*
X179972240Y-66210000D01*
X180146632Y-66093475D01*
X180353475Y-65886632D01*
X180515990Y-65643411D01*
X180627932Y-65373158D01*
X180685000Y-65086260D01*
X180685000Y-64793740D01*
X180627932Y-64506842D01*
X180515990Y-64236589D01*
X180353475Y-63993368D01*
X180221620Y-63861513D01*
X180294180Y-63839502D01*
X180404494Y-63780537D01*
X180501185Y-63701185D01*
X180580537Y-63604494D01*
X180639502Y-63494180D01*
X180675812Y-63374482D01*
X180688072Y-63250000D01*
X180688072Y-61550000D01*
X180675812Y-61425518D01*
X180639502Y-61305820D01*
X180580537Y-61195506D01*
X180501185Y-61098815D01*
X180404494Y-61019463D01*
X180294180Y-60960498D01*
X180174482Y-60924188D01*
X180050000Y-60911928D01*
X178350000Y-60911928D01*
X178225518Y-60924188D01*
X178105820Y-60960498D01*
X177995506Y-61019463D01*
X177898815Y-61098815D01*
X177819463Y-61195506D01*
X177760498Y-61305820D01*
X177724188Y-61425518D01*
X177711928Y-61550000D01*
X142040956Y-61550000D01*
X141935990Y-61296589D01*
X141773475Y-61053368D01*
X141566632Y-60846525D01*
X141323411Y-60684010D01*
X141265445Y-60660000D01*
X189340000Y-60660000D01*
X189340001Y-75564763D01*
%TA.AperFunction,Conductor*%
D20*
G36*
X189340001Y-75564763D02*
G01*
X189221295Y-75278182D01*
X188823489Y-74682823D01*
X188317177Y-74176511D01*
X187721818Y-73778705D01*
X187060290Y-73504691D01*
X186358016Y-73365000D01*
X185641984Y-73365000D01*
X184939710Y-73504691D01*
X184278182Y-73778705D01*
X183682823Y-74176511D01*
X183176511Y-74682823D01*
X182778705Y-75278182D01*
X182504691Y-75939710D01*
X182365000Y-76641984D01*
X182365000Y-77358016D01*
X182504691Y-78060290D01*
X182778705Y-78721818D01*
X183176511Y-79317177D01*
X183682823Y-79823489D01*
X184278182Y-80221295D01*
X184939710Y-80495309D01*
X185641984Y-80635000D01*
X186358016Y-80635000D01*
X187060290Y-80495309D01*
X187721818Y-80221295D01*
X188317177Y-79823489D01*
X188823489Y-79317177D01*
X189221295Y-78721818D01*
X189340001Y-78435237D01*
X189340001Y-82010000D01*
X180982419Y-82010000D01*
X180950000Y-82006807D01*
X180917581Y-82010000D01*
X180820617Y-82019550D01*
X180696207Y-82057290D01*
X180581550Y-82118575D01*
X180481052Y-82201052D01*
X180398575Y-82301550D01*
X180337290Y-82416207D01*
X180299550Y-82540617D01*
X180286807Y-82670000D01*
X180290000Y-82702419D01*
X180290001Y-96260000D01*
X107082419Y-96260000D01*
X107050000Y-96256807D01*
X107017581Y-96260000D01*
X106920617Y-96269550D01*
X106796207Y-96307290D01*
X106681550Y-96368575D01*
X106581052Y-96451052D01*
X106498575Y-96551550D01*
X106437290Y-96666207D01*
X106399550Y-96790617D01*
X106386807Y-96920000D01*
X106390001Y-96952429D01*
X106390000Y-138340000D01*
X101435239Y-138340000D01*
X101721818Y-138221295D01*
X102317177Y-137823489D01*
X102823489Y-137317177D01*
X103221295Y-136721818D01*
X103495309Y-136060290D01*
X103635000Y-135358016D01*
X103635000Y-134641984D01*
X103495309Y-133939710D01*
X103221295Y-133278182D01*
X102823489Y-132682823D01*
X102317177Y-132176511D01*
X101721818Y-131778705D01*
X101060290Y-131504691D01*
X100976741Y-131488072D01*
X101850000Y-131488072D01*
X101974482Y-131475812D01*
X102094180Y-131439502D01*
X102204494Y-131380537D01*
X102301185Y-131301185D01*
X102380537Y-131204494D01*
X102439502Y-131094180D01*
X102475812Y-130974482D01*
X102488072Y-130850000D01*
X102488072Y-129150000D01*
X102475812Y-129025518D01*
X102439502Y-128905820D01*
X102380537Y-128795506D01*
X102301185Y-128698815D01*
X102204494Y-128619463D01*
X102094180Y-128560498D01*
X102021620Y-128538487D01*
X102153475Y-128406632D01*
X102315990Y-128163411D01*
X102427932Y-127893158D01*
X102485000Y-127606260D01*
X102485000Y-127313740D01*
X102427932Y-127026842D01*
X102315990Y-126756589D01*
X102153475Y-126513368D01*
X101946632Y-126306525D01*
X101772240Y-126190000D01*
X101946632Y-126073475D01*
X102153475Y-125866632D01*
X102315990Y-125623411D01*
X102427932Y-125353158D01*
X102485000Y-125066260D01*
X102485000Y-124773740D01*
X102427932Y-124486842D01*
X102315990Y-124216589D01*
X102153475Y-123973368D01*
X101946632Y-123766525D01*
X101772240Y-123650000D01*
X101946632Y-123533475D01*
X102153475Y-123326632D01*
X102315990Y-123083411D01*
X102427932Y-122813158D01*
X102485000Y-122526260D01*
X102485000Y-122233740D01*
X102427932Y-121946842D01*
X102315990Y-121676589D01*
X102153475Y-121433368D01*
X101946632Y-121226525D01*
X101764466Y-121104805D01*
X101881355Y-121035178D01*
X102097588Y-120840269D01*
X102271641Y-120606920D01*
X102396825Y-120344099D01*
X102441476Y-120196890D01*
X102320155Y-119967000D01*
X101127000Y-119967000D01*
X101127000Y-119987000D01*
X100873000Y-119987000D01*
X100873000Y-119967000D01*
X100853000Y-119967000D01*
X100853000Y-119713000D01*
X100873000Y-119713000D01*
X100873000Y-119693000D01*
X101127000Y-119693000D01*
X101127000Y-119713000D01*
X102320155Y-119713000D01*
X102441476Y-119483110D01*
X102396825Y-119335901D01*
X102271641Y-119073080D01*
X102097588Y-118839731D01*
X101881355Y-118644822D01*
X101764466Y-118575195D01*
X101946632Y-118453475D01*
X102153475Y-118246632D01*
X102315990Y-118003411D01*
X102427932Y-117733158D01*
X102485000Y-117446260D01*
X102485000Y-117153740D01*
X102427932Y-116866842D01*
X102315990Y-116596589D01*
X102153475Y-116353368D01*
X101946632Y-116146525D01*
X101772240Y-116030000D01*
X101946632Y-115913475D01*
X102153475Y-115706632D01*
X102315990Y-115463411D01*
X102427932Y-115193158D01*
X102485000Y-114906260D01*
X102485000Y-114613740D01*
X102427932Y-114326842D01*
X102315990Y-114056589D01*
X102153475Y-113813368D01*
X101946632Y-113606525D01*
X101772240Y-113490000D01*
X101946632Y-113373475D01*
X102153475Y-113166632D01*
X102315990Y-112923411D01*
X102427932Y-112653158D01*
X102485000Y-112366260D01*
X102485000Y-112073740D01*
X102427932Y-111786842D01*
X102315990Y-111516589D01*
X102153475Y-111273368D01*
X101946632Y-111066525D01*
X101772240Y-110950000D01*
X101946632Y-110833475D01*
X102153475Y-110626632D01*
X102315990Y-110383411D01*
X102427932Y-110113158D01*
X102485000Y-109826260D01*
X102485000Y-109533740D01*
X102427932Y-109246842D01*
X102315990Y-108976589D01*
X102153475Y-108733368D01*
X101946632Y-108526525D01*
X101772240Y-108410000D01*
X101946632Y-108293475D01*
X102153475Y-108086632D01*
X102315990Y-107843411D01*
X102427932Y-107573158D01*
X102485000Y-107286260D01*
X102485000Y-106993740D01*
X102441209Y-106773592D01*
X105461004Y-103753798D01*
X105490001Y-103730001D01*
X105584974Y-103614276D01*
X105655546Y-103482247D01*
X105699003Y-103338986D01*
X105710000Y-103227333D01*
X105710000Y-103227332D01*
X105713677Y-103190000D01*
X105710000Y-103152667D01*
X105710000Y-92988072D01*
X106250000Y-92988072D01*
X106374482Y-92975812D01*
X106400000Y-92968071D01*
X106425518Y-92975812D01*
X106550000Y-92988072D01*
X107550000Y-92988072D01*
X107674482Y-92975812D01*
X107794180Y-92939502D01*
X107822926Y-92924137D01*
X110661595Y-95762807D01*
X110685393Y-95791805D01*
X110801118Y-95886778D01*
X110933147Y-95957350D01*
X111076408Y-96000807D01*
X111188061Y-96011804D01*
X111188069Y-96011804D01*
X111225394Y-96015480D01*
X111262719Y-96011804D01*
X144690874Y-96011804D01*
X144728196Y-96015480D01*
X144765518Y-96011804D01*
X144765529Y-96011804D01*
X144877182Y-96000807D01*
X145020443Y-95957350D01*
X145152472Y-95886778D01*
X145268197Y-95791805D01*
X145292000Y-95762801D01*
X158304801Y-82750000D01*
X173711928Y-82750000D01*
X173711928Y-84450000D01*
X173724188Y-84574482D01*
X173760498Y-84694180D01*
X173819463Y-84804494D01*
X173898815Y-84901185D01*
X173995506Y-84980537D01*
X174105820Y-85039502D01*
X174225518Y-85075812D01*
X174350000Y-85088072D01*
X176050000Y-85088072D01*
X176174482Y-85075812D01*
X176294180Y-85039502D01*
X176404494Y-84980537D01*
X176501185Y-84901185D01*
X176580537Y-84804494D01*
X176639502Y-84694180D01*
X176675812Y-84574482D01*
X176688072Y-84450000D01*
X176688072Y-82750000D01*
X176675812Y-82625518D01*
X176639502Y-82505820D01*
X176580537Y-82395506D01*
X176501185Y-82298815D01*
X176404494Y-82219463D01*
X176294180Y-82160498D01*
X176174482Y-82124188D01*
X176050000Y-82111928D01*
X174350000Y-82111928D01*
X174225518Y-82124188D01*
X174105820Y-82160498D01*
X173995506Y-82219463D01*
X173898815Y-82298815D01*
X173819463Y-82395506D01*
X173760498Y-82505820D01*
X173724188Y-82625518D01*
X173711928Y-82750000D01*
X158304801Y-82750000D01*
X158621003Y-82433799D01*
X158650001Y-82410001D01*
X158744974Y-82294276D01*
X158815546Y-82162247D01*
X158859003Y-82018986D01*
X158870000Y-81907333D01*
X158870000Y-81907325D01*
X158873676Y-81870000D01*
X158870000Y-81832675D01*
X158870000Y-72898061D01*
X159965000Y-72898061D01*
X159965000Y-73101939D01*
X160004774Y-73301898D01*
X160082795Y-73490256D01*
X160196063Y-73659774D01*
X160340226Y-73803937D01*
X160509744Y-73917205D01*
X160698102Y-73995226D01*
X160722103Y-74000000D01*
X160698102Y-74004774D01*
X160509744Y-74082795D01*
X160340226Y-74196063D01*
X160196063Y-74340226D01*
X160082795Y-74509744D01*
X160004774Y-74698102D01*
X159965000Y-74898061D01*
X159965000Y-75101939D01*
X160004774Y-75301898D01*
X160082795Y-75490256D01*
X160196063Y-75659774D01*
X160340226Y-75803937D01*
X160509744Y-75917205D01*
X160698102Y-75995226D01*
X160898061Y-76035000D01*
X160986780Y-76035000D01*
X161022038Y-76077962D01*
X161156613Y-76188405D01*
X161310149Y-76270472D01*
X161476745Y-76321008D01*
X161649999Y-76338072D01*
X162350001Y-76338072D01*
X162523255Y-76321008D01*
X162689851Y-76270472D01*
X162843387Y-76188405D01*
X162977962Y-76077962D01*
X163000000Y-76051109D01*
X163016109Y-76070737D01*
X163004774Y-76098102D01*
X162965000Y-76298061D01*
X162965000Y-76501939D01*
X163004774Y-76701898D01*
X163082795Y-76890256D01*
X163196063Y-77059774D01*
X163340226Y-77203937D01*
X163509744Y-77317205D01*
X163698102Y-77395226D01*
X163898061Y-77435000D01*
X164101939Y-77435000D01*
X164301898Y-77395226D01*
X164490256Y-77317205D01*
X164659774Y-77203937D01*
X164803937Y-77059774D01*
X164917205Y-76890256D01*
X164995226Y-76701898D01*
X165035000Y-76501939D01*
X165035000Y-76298061D01*
X164995226Y-76098102D01*
X164983891Y-76070737D01*
X165088405Y-75943387D01*
X165170472Y-75789851D01*
X165220478Y-75625000D01*
X167636928Y-75625000D01*
X167649188Y-75749482D01*
X167685498Y-75869180D01*
X167744463Y-75979494D01*
X167823815Y-76076185D01*
X167920506Y-76155537D01*
X168030820Y-76214502D01*
X168150518Y-76250812D01*
X168275000Y-76263072D01*
X168714250Y-76260000D01*
X168873000Y-76101250D01*
X168873000Y-75164500D01*
X169127000Y-75164500D01*
X169127000Y-76101250D01*
X169285750Y-76260000D01*
X169725000Y-76263072D01*
X169849482Y-76250812D01*
X169969180Y-76214502D01*
X170000000Y-76198028D01*
X170030820Y-76214502D01*
X170150518Y-76250812D01*
X170275000Y-76263072D01*
X170714250Y-76260000D01*
X170873000Y-76101250D01*
X170873000Y-75164500D01*
X171127000Y-75164500D01*
X171127000Y-76101250D01*
X171285750Y-76260000D01*
X171725000Y-76263072D01*
X171849482Y-76250812D01*
X171969180Y-76214502D01*
X172079494Y-76155537D01*
X172176185Y-76076185D01*
X172255537Y-75979494D01*
X172314502Y-75869180D01*
X172350812Y-75749482D01*
X172363072Y-75625000D01*
X172360000Y-75323250D01*
X172201250Y-75164500D01*
X171127000Y-75164500D01*
X170873000Y-75164500D01*
X169127000Y-75164500D01*
X168873000Y-75164500D01*
X167798750Y-75164500D01*
X167640000Y-75323250D01*
X167636928Y-75625000D01*
X165220478Y-75625000D01*
X165221008Y-75623255D01*
X165238072Y-75450001D01*
X165238072Y-74549999D01*
X165221008Y-74376745D01*
X165170472Y-74210149D01*
X165088405Y-74056613D01*
X165041944Y-74000000D01*
X165088405Y-73943387D01*
X165170472Y-73789851D01*
X165179527Y-73760000D01*
X167768750Y-73760000D01*
X167786595Y-73793386D01*
X167897038Y-73927962D01*
X167903594Y-73933342D01*
X167823815Y-73998815D01*
X167744463Y-74095506D01*
X167685498Y-74205820D01*
X167649188Y-74325518D01*
X167636928Y-74450000D01*
X167640000Y-74751750D01*
X167798750Y-74910500D01*
X168873000Y-74910500D01*
X168873000Y-74890500D01*
X169127000Y-74890500D01*
X169127000Y-74910500D01*
X170873000Y-74910500D01*
X170873000Y-74890500D01*
X171127000Y-74890500D01*
X171127000Y-74910500D01*
X172201250Y-74910500D01*
X172360000Y-74751750D01*
X172363072Y-74450000D01*
X172350812Y-74325518D01*
X172314502Y-74205820D01*
X172255537Y-74095506D01*
X172176185Y-73998815D01*
X172096406Y-73933342D01*
X172102962Y-73927962D01*
X172213405Y-73793386D01*
X172295472Y-73639850D01*
X172346008Y-73473254D01*
X172363072Y-73300000D01*
X172363072Y-72625000D01*
X172346008Y-72451746D01*
X172295472Y-72285150D01*
X172213405Y-72131614D01*
X172129601Y-72029498D01*
X172301898Y-71995226D01*
X172490256Y-71917205D01*
X172659774Y-71803937D01*
X172803937Y-71659774D01*
X172917205Y-71490256D01*
X172995226Y-71301898D01*
X173035000Y-71101939D01*
X173035000Y-70898061D01*
X172995226Y-70698102D01*
X172917205Y-70509744D01*
X172803937Y-70340226D01*
X172659774Y-70196063D01*
X172490256Y-70082795D01*
X172301898Y-70004774D01*
X172101939Y-69965000D01*
X171898061Y-69965000D01*
X171698102Y-70004774D01*
X171509744Y-70082795D01*
X171340226Y-70196063D01*
X171196063Y-70340226D01*
X171082795Y-70509744D01*
X171004774Y-70698102D01*
X170965000Y-70898061D01*
X170965000Y-70960198D01*
X170488998Y-71436201D01*
X170460000Y-71459999D01*
X170436202Y-71488997D01*
X170436201Y-71488998D01*
X170365026Y-71575724D01*
X170294454Y-71707754D01*
X170273201Y-71777818D01*
X170185150Y-71804528D01*
X170031614Y-71886595D01*
X170000000Y-71912540D01*
X169968386Y-71886595D01*
X169814850Y-71804528D01*
X169648254Y-71753992D01*
X169475000Y-71736928D01*
X168525000Y-71736928D01*
X168351746Y-71753992D01*
X168185150Y-71804528D01*
X168031614Y-71886595D01*
X167897038Y-71997038D01*
X167786595Y-72131614D01*
X167728661Y-72240000D01*
X165179527Y-72240000D01*
X165170472Y-72210149D01*
X165088405Y-72056613D01*
X164977962Y-71922038D01*
X164843387Y-71811595D01*
X164689851Y-71729528D01*
X164523255Y-71678992D01*
X164350001Y-71661928D01*
X163649999Y-71661928D01*
X163476745Y-71678992D01*
X163310149Y-71729528D01*
X163156613Y-71811595D01*
X163022038Y-71922038D01*
X163000000Y-71948891D01*
X162977962Y-71922038D01*
X162843387Y-71811595D01*
X162689851Y-71729528D01*
X162523255Y-71678992D01*
X162350001Y-71661928D01*
X161649999Y-71661928D01*
X161476745Y-71678992D01*
X161310149Y-71729528D01*
X161156613Y-71811595D01*
X161022038Y-71922038D01*
X160986780Y-71965000D01*
X160898061Y-71965000D01*
X160698102Y-72004774D01*
X160509744Y-72082795D01*
X160340226Y-72196063D01*
X160196063Y-72340226D01*
X160082795Y-72509744D01*
X160004774Y-72698102D01*
X159965000Y-72898061D01*
X158870000Y-72898061D01*
X158870000Y-71114801D01*
X159949802Y-70035000D01*
X160101939Y-70035000D01*
X160301898Y-69995226D01*
X160490256Y-69917205D01*
X160659774Y-69803937D01*
X160803937Y-69659774D01*
X160917205Y-69490256D01*
X160995226Y-69301898D01*
X161035000Y-69101939D01*
X161035000Y-68898061D01*
X160995226Y-68698102D01*
X160917205Y-68509744D01*
X160803937Y-68340226D01*
X160659774Y-68196063D01*
X160490256Y-68082795D01*
X160301898Y-68004774D01*
X160101939Y-67965000D01*
X159898061Y-67965000D01*
X159698102Y-68004774D01*
X159509744Y-68082795D01*
X159340226Y-68196063D01*
X159196063Y-68340226D01*
X159082795Y-68509744D01*
X159004774Y-68698102D01*
X158971919Y-68863279D01*
X157599002Y-70236197D01*
X157569999Y-70259999D01*
X157524049Y-70315990D01*
X157475026Y-70375724D01*
X157416616Y-70485000D01*
X157404454Y-70507754D01*
X157360997Y-70651015D01*
X157350000Y-70762668D01*
X157350000Y-70762678D01*
X157346324Y-70800000D01*
X157350000Y-70837322D01*
X157350001Y-81555197D01*
X150339141Y-88566058D01*
X150340000Y-88557333D01*
X150340000Y-88557325D01*
X150343676Y-88520000D01*
X150340000Y-88482675D01*
X150340000Y-76513711D01*
X150383937Y-76469774D01*
X150497205Y-76300256D01*
X150575226Y-76111898D01*
X150615000Y-75911939D01*
X150615000Y-75708061D01*
X150575226Y-75508102D01*
X150525508Y-75388072D01*
X151150000Y-75388072D01*
X151274482Y-75375812D01*
X151394180Y-75339502D01*
X151504494Y-75280537D01*
X151601185Y-75201185D01*
X151680537Y-75104494D01*
X151739502Y-74994180D01*
X151775812Y-74874482D01*
X151787087Y-74760000D01*
X152674313Y-74760000D01*
X152684010Y-74783411D01*
X152846525Y-75026632D01*
X152978380Y-75158487D01*
X152905820Y-75180498D01*
X152795506Y-75239463D01*
X152698815Y-75318815D01*
X152619463Y-75415506D01*
X152560498Y-75525820D01*
X152524188Y-75645518D01*
X152511928Y-75770000D01*
X152511928Y-77470000D01*
X152524188Y-77594482D01*
X152560498Y-77714180D01*
X152619463Y-77824494D01*
X152698815Y-77921185D01*
X152795506Y-78000537D01*
X152905820Y-78059502D01*
X153025518Y-78095812D01*
X153150000Y-78108072D01*
X154850000Y-78108072D01*
X154974482Y-78095812D01*
X155094180Y-78059502D01*
X155204494Y-78000537D01*
X155301185Y-77921185D01*
X155380537Y-77824494D01*
X155439502Y-77714180D01*
X155475812Y-77594482D01*
X155488072Y-77470000D01*
X155488072Y-77380000D01*
X155542678Y-77380000D01*
X155580000Y-77383676D01*
X155617322Y-77380000D01*
X155617333Y-77380000D01*
X155728986Y-77369003D01*
X155872247Y-77325546D01*
X156004276Y-77254974D01*
X156120001Y-77160001D01*
X156143803Y-77130998D01*
X156911002Y-76363799D01*
X156940001Y-76340001D01*
X156979192Y-76292247D01*
X157034974Y-76224277D01*
X157105546Y-76092247D01*
X157124735Y-76028987D01*
X157149003Y-75948986D01*
X157160000Y-75837333D01*
X157160000Y-75837324D01*
X157163676Y-75800001D01*
X157160000Y-75762678D01*
X157160000Y-65437323D01*
X157163676Y-65400000D01*
X157160000Y-65362677D01*
X157160000Y-65362667D01*
X157149003Y-65251014D01*
X157105546Y-65107753D01*
X157034974Y-64975724D01*
X156940001Y-64859999D01*
X156911004Y-64836202D01*
X156163803Y-64089002D01*
X156140001Y-64059999D01*
X156024276Y-63965026D01*
X155892247Y-63894454D01*
X155748986Y-63850997D01*
X155637333Y-63840000D01*
X155637322Y-63840000D01*
X155600000Y-63836324D01*
X155562678Y-63840000D01*
X146437323Y-63840000D01*
X146400000Y-63836324D01*
X146362677Y-63840000D01*
X146362667Y-63840000D01*
X146251014Y-63850997D01*
X146107753Y-63894454D01*
X145975724Y-63965026D01*
X145859999Y-64059999D01*
X145836201Y-64088997D01*
X139685199Y-70240000D01*
X133137087Y-70240000D01*
X133125812Y-70125518D01*
X133089502Y-70005820D01*
X133030537Y-69895506D01*
X132951185Y-69798815D01*
X132854494Y-69719463D01*
X132744180Y-69660498D01*
X132624482Y-69624188D01*
X132500000Y-69611928D01*
X131500000Y-69611928D01*
X131375518Y-69624188D01*
X131350000Y-69631929D01*
X131324482Y-69624188D01*
X131200000Y-69611928D01*
X130200000Y-69611928D01*
X130075518Y-69624188D01*
X129955820Y-69660498D01*
X129845506Y-69719463D01*
X129748815Y-69798815D01*
X129669463Y-69895506D01*
X129610498Y-70005820D01*
X129574188Y-70125518D01*
X129561928Y-70250000D01*
X129561928Y-70280000D01*
X129264802Y-70280000D01*
X129030000Y-70045199D01*
X129030000Y-67598043D01*
X129184759Y-67494637D01*
X129384637Y-67294759D01*
X129540000Y-67062241D01*
X129695363Y-67294759D01*
X129895241Y-67494637D01*
X130130273Y-67651680D01*
X130391426Y-67759853D01*
X130668665Y-67815000D01*
X130951335Y-67815000D01*
X131228574Y-67759853D01*
X131489727Y-67651680D01*
X131724759Y-67494637D01*
X131924637Y-67294759D01*
X132080000Y-67062241D01*
X132235363Y-67294759D01*
X132435241Y-67494637D01*
X132670273Y-67651680D01*
X132931426Y-67759853D01*
X133208665Y-67815000D01*
X133491335Y-67815000D01*
X133768574Y-67759853D01*
X134029727Y-67651680D01*
X134264759Y-67494637D01*
X134464637Y-67294759D01*
X134620000Y-67062241D01*
X134775363Y-67294759D01*
X134975241Y-67494637D01*
X135210273Y-67651680D01*
X135471426Y-67759853D01*
X135748665Y-67815000D01*
X136031335Y-67815000D01*
X136308574Y-67759853D01*
X136569727Y-67651680D01*
X136804759Y-67494637D01*
X137004637Y-67294759D01*
X137160000Y-67062241D01*
X137315363Y-67294759D01*
X137515241Y-67494637D01*
X137750273Y-67651680D01*
X138011426Y-67759853D01*
X138288665Y-67815000D01*
X138571335Y-67815000D01*
X138848574Y-67759853D01*
X139109727Y-67651680D01*
X139344759Y-67494637D01*
X139544637Y-67294759D01*
X139700000Y-67062241D01*
X139855363Y-67294759D01*
X140055241Y-67494637D01*
X140290273Y-67651680D01*
X140551426Y-67759853D01*
X140828665Y-67815000D01*
X141111335Y-67815000D01*
X141388574Y-67759853D01*
X141649727Y-67651680D01*
X141884759Y-67494637D01*
X142084637Y-67294759D01*
X142241680Y-67059727D01*
X142349853Y-66798574D01*
X142405000Y-66521335D01*
X142405000Y-66238665D01*
X142349853Y-65961426D01*
X142241680Y-65700273D01*
X142084637Y-65465241D01*
X141884759Y-65265363D01*
X141649727Y-65108320D01*
X141388574Y-65000147D01*
X141111335Y-64945000D01*
X140828665Y-64945000D01*
X140551426Y-65000147D01*
X140290273Y-65108320D01*
X140055241Y-65265363D01*
X139855363Y-65465241D01*
X139700000Y-65697759D01*
X139544637Y-65465241D01*
X139344759Y-65265363D01*
X139109727Y-65108320D01*
X138848574Y-65000147D01*
X138571335Y-64945000D01*
X138288665Y-64945000D01*
X138011426Y-65000147D01*
X137750273Y-65108320D01*
X137515241Y-65265363D01*
X137315363Y-65465241D01*
X137160000Y-65697759D01*
X137004637Y-65465241D01*
X136804759Y-65265363D01*
X136569727Y-65108320D01*
X136308574Y-65000147D01*
X136031335Y-64945000D01*
X135748665Y-64945000D01*
X135471426Y-65000147D01*
X135210273Y-65108320D01*
X134975241Y-65265363D01*
X134775363Y-65465241D01*
X134620000Y-65697759D01*
X134464637Y-65465241D01*
X134264759Y-65265363D01*
X134110000Y-65161957D01*
X134110000Y-64764801D01*
X134514802Y-64360000D01*
X140162678Y-64360000D01*
X140200000Y-64363676D01*
X140237322Y-64360000D01*
X140237333Y-64360000D01*
X140348986Y-64349003D01*
X140492247Y-64305546D01*
X140624276Y-64234974D01*
X140740001Y-64140001D01*
X140763804Y-64110997D01*
X141130998Y-63743803D01*
X141160001Y-63720001D01*
X141254974Y-63604276D01*
X141325546Y-63472247D01*
X141369003Y-63328986D01*
X141373585Y-63282465D01*
X141566632Y-63153475D01*
X141773475Y-62946632D01*
X141935990Y-62703411D01*
X142047932Y-62433158D01*
X142105000Y-62146260D01*
X142105000Y-61853740D01*
X142047932Y-61566842D01*
X142040956Y-61550000D01*
X177711928Y-61550000D01*
X177711928Y-63250000D01*
X177724188Y-63374482D01*
X177760498Y-63494180D01*
X177819463Y-63604494D01*
X177898815Y-63701185D01*
X177995506Y-63780537D01*
X178105820Y-63839502D01*
X178178380Y-63861513D01*
X178046525Y-63993368D01*
X177884010Y-64236589D01*
X177772068Y-64506842D01*
X177715000Y-64793740D01*
X177715000Y-65086260D01*
X177772068Y-65373158D01*
X177884010Y-65643411D01*
X178046525Y-65886632D01*
X178253368Y-66093475D01*
X178427760Y-66210000D01*
X178253368Y-66326525D01*
X178046525Y-66533368D01*
X177884010Y-66776589D01*
X177772068Y-67046842D01*
X177715000Y-67333740D01*
X177715000Y-67626260D01*
X177772068Y-67913158D01*
X177884010Y-68183411D01*
X178046525Y-68426632D01*
X178253368Y-68633475D01*
X178427760Y-68750000D01*
X178253368Y-68866525D01*
X178046525Y-69073368D01*
X177884010Y-69316589D01*
X177772068Y-69586842D01*
X177715000Y-69873740D01*
X177715000Y-70166260D01*
X177772068Y-70453158D01*
X177884010Y-70723411D01*
X178046525Y-70966632D01*
X178253368Y-71173475D01*
X178427760Y-71290000D01*
X178253368Y-71406525D01*
X178046525Y-71613368D01*
X177884010Y-71856589D01*
X177772068Y-72126842D01*
X177715000Y-72413740D01*
X177715000Y-72706260D01*
X177772068Y-72993158D01*
X177884010Y-73263411D01*
X178046525Y-73506632D01*
X178253368Y-73713475D01*
X178496589Y-73875990D01*
X178766842Y-73987932D01*
X179053740Y-74045000D01*
X179346260Y-74045000D01*
X179633158Y-73987932D01*
X179903411Y-73875990D01*
X180146632Y-73713475D01*
X180353475Y-73506632D01*
X180515990Y-73263411D01*
X180627932Y-72993158D01*
X180685000Y-72706260D01*
X180685000Y-72413740D01*
X180627932Y-72126842D01*
X180515990Y-71856589D01*
X180353475Y-71613368D01*
X180146632Y-71406525D01*
X179972240Y-71290000D01*
X180146632Y-71173475D01*
X180353475Y-70966632D01*
X180515990Y-70723411D01*
X180627932Y-70453158D01*
X180685000Y-70166260D01*
X180685000Y-69873740D01*
X180627932Y-69586842D01*
X180515990Y-69316589D01*
X180353475Y-69073368D01*
X180146632Y-68866525D01*
X179972240Y-68750000D01*
X180146632Y-68633475D01*
X180353475Y-68426632D01*
X180515990Y-68183411D01*
X180627932Y-67913158D01*
X180685000Y-67626260D01*
X180685000Y-67333740D01*
X180627932Y-67046842D01*
X180515990Y-66776589D01*
X180353475Y-66533368D01*
X180146632Y-66326525D01*
X179972240Y-66210000D01*
X180146632Y-66093475D01*
X180353475Y-65886632D01*
X180515990Y-65643411D01*
X180627932Y-65373158D01*
X180685000Y-65086260D01*
X180685000Y-64793740D01*
X180627932Y-64506842D01*
X180515990Y-64236589D01*
X180353475Y-63993368D01*
X180221620Y-63861513D01*
X180294180Y-63839502D01*
X180404494Y-63780537D01*
X180501185Y-63701185D01*
X180580537Y-63604494D01*
X180639502Y-63494180D01*
X180675812Y-63374482D01*
X180688072Y-63250000D01*
X180688072Y-61550000D01*
X180675812Y-61425518D01*
X180639502Y-61305820D01*
X180580537Y-61195506D01*
X180501185Y-61098815D01*
X180404494Y-61019463D01*
X180294180Y-60960498D01*
X180174482Y-60924188D01*
X180050000Y-60911928D01*
X178350000Y-60911928D01*
X178225518Y-60924188D01*
X178105820Y-60960498D01*
X177995506Y-61019463D01*
X177898815Y-61098815D01*
X177819463Y-61195506D01*
X177760498Y-61305820D01*
X177724188Y-61425518D01*
X177711928Y-61550000D01*
X142040956Y-61550000D01*
X141935990Y-61296589D01*
X141773475Y-61053368D01*
X141566632Y-60846525D01*
X141323411Y-60684010D01*
X141265445Y-60660000D01*
X189340000Y-60660000D01*
X189340001Y-75564763D01*
G37*
%TD.AperFunction*%
D19*
X144846525Y-76026632D02*
X145053368Y-76233475D01*
X145227760Y-76350000D01*
X145053368Y-76466525D01*
X144846525Y-76673368D01*
X144684010Y-76916589D01*
X144628750Y-77050000D01*
X144407323Y-77050000D01*
X144370000Y-77046324D01*
X144332677Y-77050000D01*
X144332667Y-77050000D01*
X144221014Y-77060997D01*
X144077753Y-77104454D01*
X143945724Y-77175026D01*
X143829999Y-77269999D01*
X143806201Y-77298997D01*
X142570199Y-78535000D01*
X142508061Y-78535000D01*
X142308102Y-78574774D01*
X142119744Y-78652795D01*
X141950226Y-78766063D01*
X141806063Y-78910226D01*
X141692795Y-79079744D01*
X141614774Y-79268102D01*
X141575000Y-79468061D01*
X141575000Y-79671939D01*
X141614774Y-79871898D01*
X141692795Y-80060256D01*
X141806063Y-80229774D01*
X141950226Y-80373937D01*
X142119744Y-80487205D01*
X142308102Y-80565226D01*
X142508061Y-80605000D01*
X142711939Y-80605000D01*
X142911898Y-80565226D01*
X143100256Y-80487205D01*
X143269774Y-80373937D01*
X143413937Y-80229774D01*
X143527205Y-80060256D01*
X143605226Y-79871898D01*
X143645000Y-79671939D01*
X143645000Y-79609801D01*
X144684802Y-78570000D01*
X144849893Y-78570000D01*
X145053368Y-78773475D01*
X145240000Y-78898179D01*
X145240001Y-87655197D01*
X143265199Y-89630000D01*
X136721397Y-89630000D01*
X136983158Y-89577932D01*
X137253411Y-89465990D01*
X137496632Y-89303475D01*
X137703475Y-89096632D01*
X137865990Y-88853411D01*
X137977932Y-88583158D01*
X138035000Y-88296260D01*
X138035000Y-88003740D01*
X137977932Y-87716842D01*
X137865990Y-87446589D01*
X137703475Y-87203368D01*
X137496632Y-86996525D01*
X137253411Y-86834010D01*
X136983158Y-86722068D01*
X136696260Y-86665000D01*
X136403740Y-86665000D01*
X136116842Y-86722068D01*
X135846589Y-86834010D01*
X135603368Y-86996525D01*
X135396525Y-87203368D01*
X135280000Y-87377760D01*
X135163475Y-87203368D01*
X134956632Y-86996525D01*
X134713411Y-86834010D01*
X134443158Y-86722068D01*
X134156260Y-86665000D01*
X133863740Y-86665000D01*
X133576842Y-86722068D01*
X133306589Y-86834010D01*
X133063368Y-86996525D01*
X132931513Y-87128380D01*
X132909502Y-87055820D01*
X132850537Y-86945506D01*
X132771185Y-86848815D01*
X132674494Y-86769463D01*
X132564180Y-86710498D01*
X132444482Y-86674188D01*
X132320000Y-86661928D01*
X130620000Y-86661928D01*
X130495518Y-86674188D01*
X130375820Y-86710498D01*
X130265506Y-86769463D01*
X130168815Y-86848815D01*
X130089463Y-86945506D01*
X130030498Y-87055820D01*
X129994188Y-87175518D01*
X129981928Y-87300000D01*
X129981928Y-89000000D01*
X129994188Y-89124482D01*
X130030498Y-89244180D01*
X130089463Y-89354494D01*
X130168815Y-89451185D01*
X130265506Y-89530537D01*
X130375820Y-89589502D01*
X130495518Y-89625812D01*
X130620000Y-89638072D01*
X132320000Y-89638072D01*
X132444482Y-89625812D01*
X132564180Y-89589502D01*
X132674494Y-89530537D01*
X132771185Y-89451185D01*
X132850537Y-89354494D01*
X132909502Y-89244180D01*
X132931513Y-89171620D01*
X133063368Y-89303475D01*
X133250000Y-89428179D01*
X133250000Y-89662677D01*
X133246324Y-89700000D01*
X133250000Y-89737322D01*
X133250000Y-89737332D01*
X133260997Y-89848985D01*
X133296409Y-89965724D01*
X133304454Y-89992246D01*
X133375026Y-90124276D01*
X133399255Y-90153799D01*
X133469999Y-90240001D01*
X133499002Y-90263803D01*
X134136201Y-90901002D01*
X134159999Y-90930001D01*
X134275724Y-91024974D01*
X134407753Y-91095546D01*
X134551014Y-91139003D01*
X134662667Y-91150000D01*
X134662676Y-91150000D01*
X134699999Y-91153676D01*
X134737322Y-91150000D01*
X143542678Y-91150000D01*
X143580000Y-91153676D01*
X143617322Y-91150000D01*
X143617333Y-91150000D01*
X143728986Y-91139003D01*
X143872247Y-91095546D01*
X144004276Y-91024974D01*
X144120001Y-90930001D01*
X144143804Y-90900997D01*
X146415002Y-88629800D01*
X146415002Y-89470196D01*
X146149002Y-89736197D01*
X146148997Y-89736201D01*
X142355199Y-93530000D01*
X137848224Y-93530000D01*
X137865990Y-93503411D01*
X137977932Y-93233158D01*
X138035000Y-92946260D01*
X138035000Y-92653740D01*
X137977932Y-92366842D01*
X137865990Y-92096589D01*
X137703475Y-91853368D01*
X137496632Y-91646525D01*
X137253411Y-91484010D01*
X136983158Y-91372068D01*
X136696260Y-91315000D01*
X136403740Y-91315000D01*
X136116842Y-91372068D01*
X135846589Y-91484010D01*
X135603368Y-91646525D01*
X135396525Y-91853368D01*
X135280000Y-92027760D01*
X135163475Y-91853368D01*
X134956632Y-91646525D01*
X134713411Y-91484010D01*
X134443158Y-91372068D01*
X134156260Y-91315000D01*
X133863740Y-91315000D01*
X133576842Y-91372068D01*
X133306589Y-91484010D01*
X133063368Y-91646525D01*
X132931513Y-91778380D01*
X132909502Y-91705820D01*
X132850537Y-91595506D01*
X132771185Y-91498815D01*
X132674494Y-91419463D01*
X132564180Y-91360498D01*
X132444482Y-91324188D01*
X132320000Y-91311928D01*
X130620000Y-91311928D01*
X130495518Y-91324188D01*
X130375820Y-91360498D01*
X130265506Y-91419463D01*
X130168815Y-91498815D01*
X130089463Y-91595506D01*
X130030498Y-91705820D01*
X129994188Y-91825518D01*
X129981928Y-91950000D01*
X129981928Y-93650000D01*
X129994188Y-93774482D01*
X130030498Y-93894180D01*
X130089463Y-94004494D01*
X130120075Y-94041795D01*
X123050560Y-94041795D01*
X123195178Y-93881355D01*
X123344157Y-93631252D01*
X123441481Y-93356891D01*
X123320814Y-93127000D01*
X122127000Y-93127000D01*
X122127000Y-93147000D01*
X121873000Y-93147000D01*
X121873000Y-93127000D01*
X119587000Y-93127000D01*
X119587000Y-93147000D01*
X119333000Y-93147000D01*
X119333000Y-93127000D01*
X117047000Y-93127000D01*
X117047000Y-93147000D01*
X116793000Y-93147000D01*
X116793000Y-93127000D01*
X115599186Y-93127000D01*
X115478519Y-93356891D01*
X115575843Y-93631252D01*
X115724822Y-93881355D01*
X115869440Y-94041795D01*
X112577989Y-94041795D01*
X112615226Y-93951898D01*
X112655000Y-93751939D01*
X112655000Y-93548061D01*
X112615226Y-93348102D01*
X112537205Y-93159744D01*
X112423937Y-92990226D01*
X112380000Y-92946289D01*
X112380000Y-90313740D01*
X115435000Y-90313740D01*
X115435000Y-90606260D01*
X115492068Y-90893158D01*
X115604010Y-91163411D01*
X115766525Y-91406632D01*
X115973368Y-91613475D01*
X116149406Y-91731100D01*
X115919731Y-91902412D01*
X115724822Y-92118645D01*
X115575843Y-92368748D01*
X115478519Y-92643109D01*
X115599186Y-92873000D01*
X116793000Y-92873000D01*
X116793000Y-92853000D01*
X117047000Y-92853000D01*
X117047000Y-92873000D01*
X119333000Y-92873000D01*
X119333000Y-92853000D01*
X119587000Y-92853000D01*
X119587000Y-92873000D01*
X121873000Y-92873000D01*
X121873000Y-92853000D01*
X122127000Y-92853000D01*
X122127000Y-92873000D01*
X123320814Y-92873000D01*
X123441481Y-92643109D01*
X123344157Y-92368748D01*
X123195178Y-92118645D01*
X123018374Y-91922498D01*
X123094180Y-91899502D01*
X123204494Y-91840537D01*
X123301185Y-91761185D01*
X123380537Y-91664494D01*
X123439502Y-91554180D01*
X123475812Y-91434482D01*
X123488072Y-91310000D01*
X123488072Y-89610000D01*
X123475812Y-89485518D01*
X123439502Y-89365820D01*
X123380537Y-89255506D01*
X123301185Y-89158815D01*
X123204494Y-89079463D01*
X123094180Y-89020498D01*
X122974482Y-88984188D01*
X122850000Y-88971928D01*
X121150000Y-88971928D01*
X121025518Y-88984188D01*
X120905820Y-89020498D01*
X120795506Y-89079463D01*
X120698815Y-89158815D01*
X120619463Y-89255506D01*
X120560498Y-89365820D01*
X120538487Y-89438380D01*
X120406632Y-89306525D01*
X120163411Y-89144010D01*
X119893158Y-89032068D01*
X119606260Y-88975000D01*
X119313740Y-88975000D01*
X119026842Y-89032068D01*
X118756589Y-89144010D01*
X118513368Y-89306525D01*
X118306525Y-89513368D01*
X118190000Y-89687760D01*
X118073475Y-89513368D01*
X117866632Y-89306525D01*
X117623411Y-89144010D01*
X117353158Y-89032068D01*
X117066260Y-88975000D01*
X116773740Y-88975000D01*
X116486842Y-89032068D01*
X116216589Y-89144010D01*
X115973368Y-89306525D01*
X115766525Y-89513368D01*
X115604010Y-89756589D01*
X115492068Y-90026842D01*
X115435000Y-90313740D01*
X112380000Y-90313740D01*
X112380000Y-86897322D01*
X112383676Y-86859999D01*
X112380000Y-86822676D01*
X112380000Y-86822667D01*
X112369003Y-86711014D01*
X112325546Y-86567753D01*
X112254974Y-86435724D01*
X112160001Y-86319999D01*
X112131004Y-86296202D01*
X111550000Y-85715199D01*
X111550000Y-80674801D01*
X111636804Y-80587997D01*
X111604188Y-80695518D01*
X111591928Y-80820000D01*
X111591928Y-82420000D01*
X111604188Y-82544482D01*
X111640498Y-82664180D01*
X111699463Y-82774494D01*
X111778815Y-82871185D01*
X111875506Y-82950537D01*
X111985820Y-83009502D01*
X112105518Y-83045812D01*
X112230000Y-83058072D01*
X113830000Y-83058072D01*
X113954482Y-83045812D01*
X114074180Y-83009502D01*
X114184494Y-82950537D01*
X114281185Y-82871185D01*
X114360537Y-82774494D01*
X114419502Y-82664180D01*
X114455812Y-82544482D01*
X114456643Y-82536039D01*
X114655241Y-82734637D01*
X114890273Y-82891680D01*
X115151426Y-82999853D01*
X115428665Y-83055000D01*
X115711335Y-83055000D01*
X115988574Y-82999853D01*
X116249727Y-82891680D01*
X116484759Y-82734637D01*
X116606694Y-82612702D01*
X117296903Y-82612702D01*
X117368486Y-82856671D01*
X117623996Y-82977571D01*
X117898184Y-83046300D01*
X118180512Y-83060217D01*
X118460130Y-83018787D01*
X118726292Y-82923603D01*
X118851514Y-82856671D01*
X118923097Y-82612702D01*
X119836903Y-82612702D01*
X119908486Y-82856671D01*
X120163996Y-82977571D01*
X120438184Y-83046300D01*
X120720512Y-83060217D01*
X121000130Y-83018787D01*
X121266292Y-82923603D01*
X121391514Y-82856671D01*
X121463097Y-82612702D01*
X120650000Y-81799605D01*
X119836903Y-82612702D01*
X118923097Y-82612702D01*
X118110000Y-81799605D01*
X117296903Y-82612702D01*
X116606694Y-82612702D01*
X116684637Y-82534759D01*
X116840915Y-82300872D01*
X116873329Y-82361514D01*
X117117298Y-82433097D01*
X117930395Y-81620000D01*
X118289605Y-81620000D01*
X119102702Y-82433097D01*
X119346671Y-82361514D01*
X119377971Y-82295364D01*
X119413329Y-82361514D01*
X119657298Y-82433097D01*
X120470395Y-81620000D01*
X119657298Y-80806903D01*
X119413329Y-80878486D01*
X119382029Y-80944636D01*
X119346671Y-80878486D01*
X119102702Y-80806903D01*
X118289605Y-81620000D01*
X117930395Y-81620000D01*
X117117298Y-80806903D01*
X116873329Y-80878486D01*
X116842806Y-80942992D01*
X116841680Y-80940273D01*
X116684637Y-80705241D01*
X116606694Y-80627298D01*
X117296903Y-80627298D01*
X118110000Y-81440395D01*
X118923097Y-80627298D01*
X118851514Y-80383329D01*
X118596004Y-80262429D01*
X118321816Y-80193700D01*
X118039488Y-80179783D01*
X117759870Y-80221213D01*
X117493708Y-80316397D01*
X117368486Y-80383329D01*
X117296903Y-80627298D01*
X116606694Y-80627298D01*
X116484759Y-80505363D01*
X116249727Y-80348320D01*
X115988574Y-80240147D01*
X115711335Y-80185000D01*
X115428665Y-80185000D01*
X115151426Y-80240147D01*
X114890273Y-80348320D01*
X114655241Y-80505363D01*
X114456643Y-80703961D01*
X114455812Y-80695518D01*
X114419502Y-80575820D01*
X114360537Y-80465506D01*
X114281185Y-80368815D01*
X114184494Y-80289463D01*
X114074180Y-80230498D01*
X113954482Y-80194188D01*
X113830000Y-80181928D01*
X112230000Y-80181928D01*
X112105518Y-80194188D01*
X111997998Y-80226804D01*
X112284802Y-79940000D01*
X114422678Y-79940000D01*
X114460000Y-79943676D01*
X114497322Y-79940000D01*
X114497333Y-79940000D01*
X114608986Y-79929003D01*
X114752247Y-79885546D01*
X114884276Y-79814974D01*
X115000001Y-79720001D01*
X115023804Y-79690997D01*
X116291151Y-78423650D01*
X116294188Y-78454482D01*
X116330498Y-78574180D01*
X116389463Y-78684494D01*
X116468815Y-78781185D01*
X116565506Y-78860537D01*
X116675820Y-78919502D01*
X116795518Y-78955812D01*
X116920000Y-78968072D01*
X117920000Y-78968072D01*
X118044482Y-78955812D01*
X118070000Y-78948071D01*
X118095518Y-78955812D01*
X118220000Y-78968072D01*
X118283271Y-78968072D01*
X118925000Y-79609802D01*
X118925000Y-79671939D01*
X118964774Y-79871898D01*
X119042795Y-80060256D01*
X119156063Y-80229774D01*
X119300226Y-80373937D01*
X119469744Y-80487205D01*
X119658102Y-80565226D01*
X119844251Y-80602253D01*
X119836903Y-80627298D01*
X120650000Y-81440395D01*
X121463097Y-80627298D01*
X121431615Y-80520000D01*
X122260604Y-80520000D01*
X122075363Y-80705241D01*
X121919085Y-80939128D01*
X121886671Y-80878486D01*
X121642702Y-80806903D01*
X120829605Y-81620000D01*
X121642702Y-82433097D01*
X121886671Y-82361514D01*
X121917194Y-82297008D01*
X121918320Y-82299727D01*
X122075363Y-82534759D01*
X122275241Y-82734637D01*
X122510273Y-82891680D01*
X122771426Y-82999853D01*
X123048665Y-83055000D01*
X123331335Y-83055000D01*
X123608574Y-82999853D01*
X123869727Y-82891680D01*
X124104759Y-82734637D01*
X124304637Y-82534759D01*
X124460000Y-82302241D01*
X124615363Y-82534759D01*
X124815241Y-82734637D01*
X125050273Y-82891680D01*
X125311426Y-82999853D01*
X125588665Y-83055000D01*
X125871335Y-83055000D01*
X126148574Y-82999853D01*
X126409727Y-82891680D01*
X126644759Y-82734637D01*
X126844637Y-82534759D01*
X127000000Y-82302241D01*
X127155363Y-82534759D01*
X127355241Y-82734637D01*
X127590273Y-82891680D01*
X127851426Y-82999853D01*
X128128665Y-83055000D01*
X128411335Y-83055000D01*
X128688574Y-82999853D01*
X128949727Y-82891680D01*
X129184759Y-82734637D01*
X129384637Y-82534759D01*
X129540000Y-82302241D01*
X129695363Y-82534759D01*
X129895241Y-82734637D01*
X130130273Y-82891680D01*
X130391426Y-82999853D01*
X130668665Y-83055000D01*
X130951335Y-83055000D01*
X131228574Y-82999853D01*
X131489727Y-82891680D01*
X131724759Y-82734637D01*
X131924637Y-82534759D01*
X132080000Y-82302241D01*
X132235363Y-82534759D01*
X132435241Y-82734637D01*
X132670273Y-82891680D01*
X132931426Y-82999853D01*
X133208665Y-83055000D01*
X133491335Y-83055000D01*
X133768574Y-82999853D01*
X134029727Y-82891680D01*
X134264759Y-82734637D01*
X134464637Y-82534759D01*
X134620000Y-82302241D01*
X134775363Y-82534759D01*
X134975241Y-82734637D01*
X135210273Y-82891680D01*
X135471426Y-82999853D01*
X135748665Y-83055000D01*
X136031335Y-83055000D01*
X136308574Y-82999853D01*
X136569727Y-82891680D01*
X136804759Y-82734637D01*
X137004637Y-82534759D01*
X137160000Y-82302241D01*
X137315363Y-82534759D01*
X137515241Y-82734637D01*
X137750273Y-82891680D01*
X138011426Y-82999853D01*
X138288665Y-83055000D01*
X138571335Y-83055000D01*
X138848574Y-82999853D01*
X139109727Y-82891680D01*
X139344759Y-82734637D01*
X139544637Y-82534759D01*
X139700000Y-82302241D01*
X139855363Y-82534759D01*
X140055241Y-82734637D01*
X140290273Y-82891680D01*
X140551426Y-82999853D01*
X140828665Y-83055000D01*
X141111335Y-83055000D01*
X141388574Y-82999853D01*
X141649727Y-82891680D01*
X141884759Y-82734637D01*
X142084637Y-82534759D01*
X142241680Y-82299727D01*
X142349853Y-82038574D01*
X142405000Y-81761335D01*
X142405000Y-81478665D01*
X142349853Y-81201426D01*
X142241680Y-80940273D01*
X142084637Y-80705241D01*
X141884759Y-80505363D01*
X141649727Y-80348320D01*
X141388574Y-80240147D01*
X141111335Y-80185000D01*
X140828665Y-80185000D01*
X140551426Y-80240147D01*
X140290273Y-80348320D01*
X140055241Y-80505363D01*
X139855363Y-80705241D01*
X139700000Y-80937759D01*
X139544637Y-80705241D01*
X139344759Y-80505363D01*
X139109727Y-80348320D01*
X138848574Y-80240147D01*
X138571335Y-80185000D01*
X138288665Y-80185000D01*
X138011426Y-80240147D01*
X137750273Y-80348320D01*
X137515241Y-80505363D01*
X137315363Y-80705241D01*
X137160000Y-80937759D01*
X137004637Y-80705241D01*
X136804759Y-80505363D01*
X136569727Y-80348320D01*
X136308574Y-80240147D01*
X136031335Y-80185000D01*
X135748665Y-80185000D01*
X135471426Y-80240147D01*
X135210273Y-80348320D01*
X134975241Y-80505363D01*
X134775363Y-80705241D01*
X134620000Y-80937759D01*
X134464637Y-80705241D01*
X134264759Y-80505363D01*
X134029727Y-80348320D01*
X133768574Y-80240147D01*
X133491335Y-80185000D01*
X133208665Y-80185000D01*
X132931426Y-80240147D01*
X132670273Y-80348320D01*
X132435241Y-80505363D01*
X132235363Y-80705241D01*
X132080000Y-80937759D01*
X131924637Y-80705241D01*
X131724759Y-80505363D01*
X131489727Y-80348320D01*
X131228574Y-80240147D01*
X130951335Y-80185000D01*
X130668665Y-80185000D01*
X130391426Y-80240147D01*
X130130273Y-80348320D01*
X129895241Y-80505363D01*
X129695363Y-80705241D01*
X129540000Y-80937759D01*
X129384637Y-80705241D01*
X129184759Y-80505363D01*
X128949727Y-80348320D01*
X128688574Y-80240147D01*
X128411335Y-80185000D01*
X128128665Y-80185000D01*
X127851426Y-80240147D01*
X127590273Y-80348320D01*
X127355241Y-80505363D01*
X127155363Y-80705241D01*
X127000000Y-80937759D01*
X126844637Y-80705241D01*
X126644759Y-80505363D01*
X126587618Y-80467183D01*
X126951002Y-80103799D01*
X126980001Y-80080001D01*
X127074974Y-79964276D01*
X127145546Y-79832247D01*
X127189003Y-79688986D01*
X127200000Y-79577333D01*
X127203677Y-79540000D01*
X127200000Y-79502667D01*
X127200000Y-78931046D01*
X127294494Y-78880537D01*
X127391185Y-78801185D01*
X127470537Y-78704494D01*
X127529502Y-78594180D01*
X127565812Y-78474482D01*
X127578072Y-78350000D01*
X127578072Y-76850000D01*
X127565812Y-76725518D01*
X127529502Y-76605820D01*
X127470537Y-76495506D01*
X127391185Y-76398815D01*
X127307521Y-76330154D01*
X143582524Y-76330154D01*
X143619846Y-76333830D01*
X143657168Y-76330154D01*
X143657179Y-76330154D01*
X143768832Y-76319157D01*
X143912093Y-76275700D01*
X144044122Y-76205128D01*
X144159847Y-76110155D01*
X144183649Y-76081152D01*
X144424802Y-75840000D01*
X144721822Y-75840000D01*
X144846525Y-76026632D01*
%TA.AperFunction,Conductor*%
D20*
G36*
X144846525Y-76026632D02*
G01*
X145053368Y-76233475D01*
X145227760Y-76350000D01*
X145053368Y-76466525D01*
X144846525Y-76673368D01*
X144684010Y-76916589D01*
X144628750Y-77050000D01*
X144407323Y-77050000D01*
X144370000Y-77046324D01*
X144332677Y-77050000D01*
X144332667Y-77050000D01*
X144221014Y-77060997D01*
X144077753Y-77104454D01*
X143945724Y-77175026D01*
X143829999Y-77269999D01*
X143806201Y-77298997D01*
X142570199Y-78535000D01*
X142508061Y-78535000D01*
X142308102Y-78574774D01*
X142119744Y-78652795D01*
X141950226Y-78766063D01*
X141806063Y-78910226D01*
X141692795Y-79079744D01*
X141614774Y-79268102D01*
X141575000Y-79468061D01*
X141575000Y-79671939D01*
X141614774Y-79871898D01*
X141692795Y-80060256D01*
X141806063Y-80229774D01*
X141950226Y-80373937D01*
X142119744Y-80487205D01*
X142308102Y-80565226D01*
X142508061Y-80605000D01*
X142711939Y-80605000D01*
X142911898Y-80565226D01*
X143100256Y-80487205D01*
X143269774Y-80373937D01*
X143413937Y-80229774D01*
X143527205Y-80060256D01*
X143605226Y-79871898D01*
X143645000Y-79671939D01*
X143645000Y-79609801D01*
X144684802Y-78570000D01*
X144849893Y-78570000D01*
X145053368Y-78773475D01*
X145240000Y-78898179D01*
X145240001Y-87655197D01*
X143265199Y-89630000D01*
X136721397Y-89630000D01*
X136983158Y-89577932D01*
X137253411Y-89465990D01*
X137496632Y-89303475D01*
X137703475Y-89096632D01*
X137865990Y-88853411D01*
X137977932Y-88583158D01*
X138035000Y-88296260D01*
X138035000Y-88003740D01*
X137977932Y-87716842D01*
X137865990Y-87446589D01*
X137703475Y-87203368D01*
X137496632Y-86996525D01*
X137253411Y-86834010D01*
X136983158Y-86722068D01*
X136696260Y-86665000D01*
X136403740Y-86665000D01*
X136116842Y-86722068D01*
X135846589Y-86834010D01*
X135603368Y-86996525D01*
X135396525Y-87203368D01*
X135280000Y-87377760D01*
X135163475Y-87203368D01*
X134956632Y-86996525D01*
X134713411Y-86834010D01*
X134443158Y-86722068D01*
X134156260Y-86665000D01*
X133863740Y-86665000D01*
X133576842Y-86722068D01*
X133306589Y-86834010D01*
X133063368Y-86996525D01*
X132931513Y-87128380D01*
X132909502Y-87055820D01*
X132850537Y-86945506D01*
X132771185Y-86848815D01*
X132674494Y-86769463D01*
X132564180Y-86710498D01*
X132444482Y-86674188D01*
X132320000Y-86661928D01*
X130620000Y-86661928D01*
X130495518Y-86674188D01*
X130375820Y-86710498D01*
X130265506Y-86769463D01*
X130168815Y-86848815D01*
X130089463Y-86945506D01*
X130030498Y-87055820D01*
X129994188Y-87175518D01*
X129981928Y-87300000D01*
X129981928Y-89000000D01*
X129994188Y-89124482D01*
X130030498Y-89244180D01*
X130089463Y-89354494D01*
X130168815Y-89451185D01*
X130265506Y-89530537D01*
X130375820Y-89589502D01*
X130495518Y-89625812D01*
X130620000Y-89638072D01*
X132320000Y-89638072D01*
X132444482Y-89625812D01*
X132564180Y-89589502D01*
X132674494Y-89530537D01*
X132771185Y-89451185D01*
X132850537Y-89354494D01*
X132909502Y-89244180D01*
X132931513Y-89171620D01*
X133063368Y-89303475D01*
X133250000Y-89428179D01*
X133250000Y-89662677D01*
X133246324Y-89700000D01*
X133250000Y-89737322D01*
X133250000Y-89737332D01*
X133260997Y-89848985D01*
X133296409Y-89965724D01*
X133304454Y-89992246D01*
X133375026Y-90124276D01*
X133399255Y-90153799D01*
X133469999Y-90240001D01*
X133499002Y-90263803D01*
X134136201Y-90901002D01*
X134159999Y-90930001D01*
X134275724Y-91024974D01*
X134407753Y-91095546D01*
X134551014Y-91139003D01*
X134662667Y-91150000D01*
X134662676Y-91150000D01*
X134699999Y-91153676D01*
X134737322Y-91150000D01*
X143542678Y-91150000D01*
X143580000Y-91153676D01*
X143617322Y-91150000D01*
X143617333Y-91150000D01*
X143728986Y-91139003D01*
X143872247Y-91095546D01*
X144004276Y-91024974D01*
X144120001Y-90930001D01*
X144143804Y-90900997D01*
X146415002Y-88629800D01*
X146415002Y-89470196D01*
X146149002Y-89736197D01*
X146148997Y-89736201D01*
X142355199Y-93530000D01*
X137848224Y-93530000D01*
X137865990Y-93503411D01*
X137977932Y-93233158D01*
X138035000Y-92946260D01*
X138035000Y-92653740D01*
X137977932Y-92366842D01*
X137865990Y-92096589D01*
X137703475Y-91853368D01*
X137496632Y-91646525D01*
X137253411Y-91484010D01*
X136983158Y-91372068D01*
X136696260Y-91315000D01*
X136403740Y-91315000D01*
X136116842Y-91372068D01*
X135846589Y-91484010D01*
X135603368Y-91646525D01*
X135396525Y-91853368D01*
X135280000Y-92027760D01*
X135163475Y-91853368D01*
X134956632Y-91646525D01*
X134713411Y-91484010D01*
X134443158Y-91372068D01*
X134156260Y-91315000D01*
X133863740Y-91315000D01*
X133576842Y-91372068D01*
X133306589Y-91484010D01*
X133063368Y-91646525D01*
X132931513Y-91778380D01*
X132909502Y-91705820D01*
X132850537Y-91595506D01*
X132771185Y-91498815D01*
X132674494Y-91419463D01*
X132564180Y-91360498D01*
X132444482Y-91324188D01*
X132320000Y-91311928D01*
X130620000Y-91311928D01*
X130495518Y-91324188D01*
X130375820Y-91360498D01*
X130265506Y-91419463D01*
X130168815Y-91498815D01*
X130089463Y-91595506D01*
X130030498Y-91705820D01*
X129994188Y-91825518D01*
X129981928Y-91950000D01*
X129981928Y-93650000D01*
X129994188Y-93774482D01*
X130030498Y-93894180D01*
X130089463Y-94004494D01*
X130120075Y-94041795D01*
X123050560Y-94041795D01*
X123195178Y-93881355D01*
X123344157Y-93631252D01*
X123441481Y-93356891D01*
X123320814Y-93127000D01*
X122127000Y-93127000D01*
X122127000Y-93147000D01*
X121873000Y-93147000D01*
X121873000Y-93127000D01*
X119587000Y-93127000D01*
X119587000Y-93147000D01*
X119333000Y-93147000D01*
X119333000Y-93127000D01*
X117047000Y-93127000D01*
X117047000Y-93147000D01*
X116793000Y-93147000D01*
X116793000Y-93127000D01*
X115599186Y-93127000D01*
X115478519Y-93356891D01*
X115575843Y-93631252D01*
X115724822Y-93881355D01*
X115869440Y-94041795D01*
X112577989Y-94041795D01*
X112615226Y-93951898D01*
X112655000Y-93751939D01*
X112655000Y-93548061D01*
X112615226Y-93348102D01*
X112537205Y-93159744D01*
X112423937Y-92990226D01*
X112380000Y-92946289D01*
X112380000Y-90313740D01*
X115435000Y-90313740D01*
X115435000Y-90606260D01*
X115492068Y-90893158D01*
X115604010Y-91163411D01*
X115766525Y-91406632D01*
X115973368Y-91613475D01*
X116149406Y-91731100D01*
X115919731Y-91902412D01*
X115724822Y-92118645D01*
X115575843Y-92368748D01*
X115478519Y-92643109D01*
X115599186Y-92873000D01*
X116793000Y-92873000D01*
X116793000Y-92853000D01*
X117047000Y-92853000D01*
X117047000Y-92873000D01*
X119333000Y-92873000D01*
X119333000Y-92853000D01*
X119587000Y-92853000D01*
X119587000Y-92873000D01*
X121873000Y-92873000D01*
X121873000Y-92853000D01*
X122127000Y-92853000D01*
X122127000Y-92873000D01*
X123320814Y-92873000D01*
X123441481Y-92643109D01*
X123344157Y-92368748D01*
X123195178Y-92118645D01*
X123018374Y-91922498D01*
X123094180Y-91899502D01*
X123204494Y-91840537D01*
X123301185Y-91761185D01*
X123380537Y-91664494D01*
X123439502Y-91554180D01*
X123475812Y-91434482D01*
X123488072Y-91310000D01*
X123488072Y-89610000D01*
X123475812Y-89485518D01*
X123439502Y-89365820D01*
X123380537Y-89255506D01*
X123301185Y-89158815D01*
X123204494Y-89079463D01*
X123094180Y-89020498D01*
X122974482Y-88984188D01*
X122850000Y-88971928D01*
X121150000Y-88971928D01*
X121025518Y-88984188D01*
X120905820Y-89020498D01*
X120795506Y-89079463D01*
X120698815Y-89158815D01*
X120619463Y-89255506D01*
X120560498Y-89365820D01*
X120538487Y-89438380D01*
X120406632Y-89306525D01*
X120163411Y-89144010D01*
X119893158Y-89032068D01*
X119606260Y-88975000D01*
X119313740Y-88975000D01*
X119026842Y-89032068D01*
X118756589Y-89144010D01*
X118513368Y-89306525D01*
X118306525Y-89513368D01*
X118190000Y-89687760D01*
X118073475Y-89513368D01*
X117866632Y-89306525D01*
X117623411Y-89144010D01*
X117353158Y-89032068D01*
X117066260Y-88975000D01*
X116773740Y-88975000D01*
X116486842Y-89032068D01*
X116216589Y-89144010D01*
X115973368Y-89306525D01*
X115766525Y-89513368D01*
X115604010Y-89756589D01*
X115492068Y-90026842D01*
X115435000Y-90313740D01*
X112380000Y-90313740D01*
X112380000Y-86897322D01*
X112383676Y-86859999D01*
X112380000Y-86822676D01*
X112380000Y-86822667D01*
X112369003Y-86711014D01*
X112325546Y-86567753D01*
X112254974Y-86435724D01*
X112160001Y-86319999D01*
X112131004Y-86296202D01*
X111550000Y-85715199D01*
X111550000Y-80674801D01*
X111636804Y-80587997D01*
X111604188Y-80695518D01*
X111591928Y-80820000D01*
X111591928Y-82420000D01*
X111604188Y-82544482D01*
X111640498Y-82664180D01*
X111699463Y-82774494D01*
X111778815Y-82871185D01*
X111875506Y-82950537D01*
X111985820Y-83009502D01*
X112105518Y-83045812D01*
X112230000Y-83058072D01*
X113830000Y-83058072D01*
X113954482Y-83045812D01*
X114074180Y-83009502D01*
X114184494Y-82950537D01*
X114281185Y-82871185D01*
X114360537Y-82774494D01*
X114419502Y-82664180D01*
X114455812Y-82544482D01*
X114456643Y-82536039D01*
X114655241Y-82734637D01*
X114890273Y-82891680D01*
X115151426Y-82999853D01*
X115428665Y-83055000D01*
X115711335Y-83055000D01*
X115988574Y-82999853D01*
X116249727Y-82891680D01*
X116484759Y-82734637D01*
X116606694Y-82612702D01*
X117296903Y-82612702D01*
X117368486Y-82856671D01*
X117623996Y-82977571D01*
X117898184Y-83046300D01*
X118180512Y-83060217D01*
X118460130Y-83018787D01*
X118726292Y-82923603D01*
X118851514Y-82856671D01*
X118923097Y-82612702D01*
X119836903Y-82612702D01*
X119908486Y-82856671D01*
X120163996Y-82977571D01*
X120438184Y-83046300D01*
X120720512Y-83060217D01*
X121000130Y-83018787D01*
X121266292Y-82923603D01*
X121391514Y-82856671D01*
X121463097Y-82612702D01*
X120650000Y-81799605D01*
X119836903Y-82612702D01*
X118923097Y-82612702D01*
X118110000Y-81799605D01*
X117296903Y-82612702D01*
X116606694Y-82612702D01*
X116684637Y-82534759D01*
X116840915Y-82300872D01*
X116873329Y-82361514D01*
X117117298Y-82433097D01*
X117930395Y-81620000D01*
X118289605Y-81620000D01*
X119102702Y-82433097D01*
X119346671Y-82361514D01*
X119377971Y-82295364D01*
X119413329Y-82361514D01*
X119657298Y-82433097D01*
X120470395Y-81620000D01*
X119657298Y-80806903D01*
X119413329Y-80878486D01*
X119382029Y-80944636D01*
X119346671Y-80878486D01*
X119102702Y-80806903D01*
X118289605Y-81620000D01*
X117930395Y-81620000D01*
X117117298Y-80806903D01*
X116873329Y-80878486D01*
X116842806Y-80942992D01*
X116841680Y-80940273D01*
X116684637Y-80705241D01*
X116606694Y-80627298D01*
X117296903Y-80627298D01*
X118110000Y-81440395D01*
X118923097Y-80627298D01*
X118851514Y-80383329D01*
X118596004Y-80262429D01*
X118321816Y-80193700D01*
X118039488Y-80179783D01*
X117759870Y-80221213D01*
X117493708Y-80316397D01*
X117368486Y-80383329D01*
X117296903Y-80627298D01*
X116606694Y-80627298D01*
X116484759Y-80505363D01*
X116249727Y-80348320D01*
X115988574Y-80240147D01*
X115711335Y-80185000D01*
X115428665Y-80185000D01*
X115151426Y-80240147D01*
X114890273Y-80348320D01*
X114655241Y-80505363D01*
X114456643Y-80703961D01*
X114455812Y-80695518D01*
X114419502Y-80575820D01*
X114360537Y-80465506D01*
X114281185Y-80368815D01*
X114184494Y-80289463D01*
X114074180Y-80230498D01*
X113954482Y-80194188D01*
X113830000Y-80181928D01*
X112230000Y-80181928D01*
X112105518Y-80194188D01*
X111997998Y-80226804D01*
X112284802Y-79940000D01*
X114422678Y-79940000D01*
X114460000Y-79943676D01*
X114497322Y-79940000D01*
X114497333Y-79940000D01*
X114608986Y-79929003D01*
X114752247Y-79885546D01*
X114884276Y-79814974D01*
X115000001Y-79720001D01*
X115023804Y-79690997D01*
X116291151Y-78423650D01*
X116294188Y-78454482D01*
X116330498Y-78574180D01*
X116389463Y-78684494D01*
X116468815Y-78781185D01*
X116565506Y-78860537D01*
X116675820Y-78919502D01*
X116795518Y-78955812D01*
X116920000Y-78968072D01*
X117920000Y-78968072D01*
X118044482Y-78955812D01*
X118070000Y-78948071D01*
X118095518Y-78955812D01*
X118220000Y-78968072D01*
X118283271Y-78968072D01*
X118925000Y-79609802D01*
X118925000Y-79671939D01*
X118964774Y-79871898D01*
X119042795Y-80060256D01*
X119156063Y-80229774D01*
X119300226Y-80373937D01*
X119469744Y-80487205D01*
X119658102Y-80565226D01*
X119844251Y-80602253D01*
X119836903Y-80627298D01*
X120650000Y-81440395D01*
X121463097Y-80627298D01*
X121431615Y-80520000D01*
X122260604Y-80520000D01*
X122075363Y-80705241D01*
X121919085Y-80939128D01*
X121886671Y-80878486D01*
X121642702Y-80806903D01*
X120829605Y-81620000D01*
X121642702Y-82433097D01*
X121886671Y-82361514D01*
X121917194Y-82297008D01*
X121918320Y-82299727D01*
X122075363Y-82534759D01*
X122275241Y-82734637D01*
X122510273Y-82891680D01*
X122771426Y-82999853D01*
X123048665Y-83055000D01*
X123331335Y-83055000D01*
X123608574Y-82999853D01*
X123869727Y-82891680D01*
X124104759Y-82734637D01*
X124304637Y-82534759D01*
X124460000Y-82302241D01*
X124615363Y-82534759D01*
X124815241Y-82734637D01*
X125050273Y-82891680D01*
X125311426Y-82999853D01*
X125588665Y-83055000D01*
X125871335Y-83055000D01*
X126148574Y-82999853D01*
X126409727Y-82891680D01*
X126644759Y-82734637D01*
X126844637Y-82534759D01*
X127000000Y-82302241D01*
X127155363Y-82534759D01*
X127355241Y-82734637D01*
X127590273Y-82891680D01*
X127851426Y-82999853D01*
X128128665Y-83055000D01*
X128411335Y-83055000D01*
X128688574Y-82999853D01*
X128949727Y-82891680D01*
X129184759Y-82734637D01*
X129384637Y-82534759D01*
X129540000Y-82302241D01*
X129695363Y-82534759D01*
X129895241Y-82734637D01*
X130130273Y-82891680D01*
X130391426Y-82999853D01*
X130668665Y-83055000D01*
X130951335Y-83055000D01*
X131228574Y-82999853D01*
X131489727Y-82891680D01*
X131724759Y-82734637D01*
X131924637Y-82534759D01*
X132080000Y-82302241D01*
X132235363Y-82534759D01*
X132435241Y-82734637D01*
X132670273Y-82891680D01*
X132931426Y-82999853D01*
X133208665Y-83055000D01*
X133491335Y-83055000D01*
X133768574Y-82999853D01*
X134029727Y-82891680D01*
X134264759Y-82734637D01*
X134464637Y-82534759D01*
X134620000Y-82302241D01*
X134775363Y-82534759D01*
X134975241Y-82734637D01*
X135210273Y-82891680D01*
X135471426Y-82999853D01*
X135748665Y-83055000D01*
X136031335Y-83055000D01*
X136308574Y-82999853D01*
X136569727Y-82891680D01*
X136804759Y-82734637D01*
X137004637Y-82534759D01*
X137160000Y-82302241D01*
X137315363Y-82534759D01*
X137515241Y-82734637D01*
X137750273Y-82891680D01*
X138011426Y-82999853D01*
X138288665Y-83055000D01*
X138571335Y-83055000D01*
X138848574Y-82999853D01*
X139109727Y-82891680D01*
X139344759Y-82734637D01*
X139544637Y-82534759D01*
X139700000Y-82302241D01*
X139855363Y-82534759D01*
X140055241Y-82734637D01*
X140290273Y-82891680D01*
X140551426Y-82999853D01*
X140828665Y-83055000D01*
X141111335Y-83055000D01*
X141388574Y-82999853D01*
X141649727Y-82891680D01*
X141884759Y-82734637D01*
X142084637Y-82534759D01*
X142241680Y-82299727D01*
X142349853Y-82038574D01*
X142405000Y-81761335D01*
X142405000Y-81478665D01*
X142349853Y-81201426D01*
X142241680Y-80940273D01*
X142084637Y-80705241D01*
X141884759Y-80505363D01*
X141649727Y-80348320D01*
X141388574Y-80240147D01*
X141111335Y-80185000D01*
X140828665Y-80185000D01*
X140551426Y-80240147D01*
X140290273Y-80348320D01*
X140055241Y-80505363D01*
X139855363Y-80705241D01*
X139700000Y-80937759D01*
X139544637Y-80705241D01*
X139344759Y-80505363D01*
X139109727Y-80348320D01*
X138848574Y-80240147D01*
X138571335Y-80185000D01*
X138288665Y-80185000D01*
X138011426Y-80240147D01*
X137750273Y-80348320D01*
X137515241Y-80505363D01*
X137315363Y-80705241D01*
X137160000Y-80937759D01*
X137004637Y-80705241D01*
X136804759Y-80505363D01*
X136569727Y-80348320D01*
X136308574Y-80240147D01*
X136031335Y-80185000D01*
X135748665Y-80185000D01*
X135471426Y-80240147D01*
X135210273Y-80348320D01*
X134975241Y-80505363D01*
X134775363Y-80705241D01*
X134620000Y-80937759D01*
X134464637Y-80705241D01*
X134264759Y-80505363D01*
X134029727Y-80348320D01*
X133768574Y-80240147D01*
X133491335Y-80185000D01*
X133208665Y-80185000D01*
X132931426Y-80240147D01*
X132670273Y-80348320D01*
X132435241Y-80505363D01*
X132235363Y-80705241D01*
X132080000Y-80937759D01*
X131924637Y-80705241D01*
X131724759Y-80505363D01*
X131489727Y-80348320D01*
X131228574Y-80240147D01*
X130951335Y-80185000D01*
X130668665Y-80185000D01*
X130391426Y-80240147D01*
X130130273Y-80348320D01*
X129895241Y-80505363D01*
X129695363Y-80705241D01*
X129540000Y-80937759D01*
X129384637Y-80705241D01*
X129184759Y-80505363D01*
X128949727Y-80348320D01*
X128688574Y-80240147D01*
X128411335Y-80185000D01*
X128128665Y-80185000D01*
X127851426Y-80240147D01*
X127590273Y-80348320D01*
X127355241Y-80505363D01*
X127155363Y-80705241D01*
X127000000Y-80937759D01*
X126844637Y-80705241D01*
X126644759Y-80505363D01*
X126587618Y-80467183D01*
X126951002Y-80103799D01*
X126980001Y-80080001D01*
X127074974Y-79964276D01*
X127145546Y-79832247D01*
X127189003Y-79688986D01*
X127200000Y-79577333D01*
X127203677Y-79540000D01*
X127200000Y-79502667D01*
X127200000Y-78931046D01*
X127294494Y-78880537D01*
X127391185Y-78801185D01*
X127470537Y-78704494D01*
X127529502Y-78594180D01*
X127565812Y-78474482D01*
X127578072Y-78350000D01*
X127578072Y-76850000D01*
X127565812Y-76725518D01*
X127529502Y-76605820D01*
X127470537Y-76495506D01*
X127391185Y-76398815D01*
X127307521Y-76330154D01*
X143582524Y-76330154D01*
X143619846Y-76333830D01*
X143657168Y-76330154D01*
X143657179Y-76330154D01*
X143768832Y-76319157D01*
X143912093Y-76275700D01*
X144044122Y-76205128D01*
X144159847Y-76110155D01*
X144183649Y-76081152D01*
X144424802Y-75840000D01*
X144721822Y-75840000D01*
X144846525Y-76026632D01*
G37*
%TD.AperFunction*%
D19*
X146482795Y-67309744D02*
X146404774Y-67498102D01*
X146365000Y-67698061D01*
X146365000Y-67901939D01*
X146404774Y-68101898D01*
X146482795Y-68290256D01*
X146596063Y-68459774D01*
X146631775Y-68495486D01*
X146626419Y-68513145D01*
X146285750Y-68515000D01*
X146127000Y-68673750D01*
X146127000Y-69873000D01*
X146147000Y-69873000D01*
X146147000Y-70127000D01*
X146127000Y-70127000D01*
X146127000Y-70147000D01*
X145873000Y-70147000D01*
X145873000Y-70127000D01*
X144673750Y-70127000D01*
X144515000Y-70285750D01*
X144511928Y-70850000D01*
X144524188Y-70974482D01*
X144560498Y-71094180D01*
X144619463Y-71204494D01*
X144698815Y-71301185D01*
X144795506Y-71380537D01*
X144905820Y-71439502D01*
X144978380Y-71461513D01*
X144846525Y-71593368D01*
X144684010Y-71836589D01*
X144572068Y-72106842D01*
X144515000Y-72393740D01*
X144515000Y-72686260D01*
X144572068Y-72973158D01*
X144684010Y-73243411D01*
X144846525Y-73486632D01*
X145053368Y-73693475D01*
X145227760Y-73810000D01*
X145053368Y-73926525D01*
X144846525Y-74133368D01*
X144721822Y-74320000D01*
X144147322Y-74320000D01*
X144109999Y-74316324D01*
X144072676Y-74320000D01*
X144072667Y-74320000D01*
X143961014Y-74330997D01*
X143817753Y-74374454D01*
X143685724Y-74445026D01*
X143569999Y-74539999D01*
X143546200Y-74568998D01*
X143305045Y-74810154D01*
X139084880Y-74810154D01*
X139088774Y-74800752D01*
X139128548Y-74600793D01*
X139128548Y-74396915D01*
X139088774Y-74196956D01*
X139010753Y-74008598D01*
X138897485Y-73839080D01*
X138753322Y-73694917D01*
X138583804Y-73581649D01*
X138395446Y-73503628D01*
X138195487Y-73463854D01*
X137991609Y-73463854D01*
X137791650Y-73503628D01*
X137758625Y-73517307D01*
X137763795Y-73511008D01*
X137763799Y-73511004D01*
X137834973Y-73424277D01*
X137834974Y-73424276D01*
X137905546Y-73292247D01*
X137949003Y-73148986D01*
X137960000Y-73037333D01*
X137960000Y-73037324D01*
X137963676Y-73000001D01*
X137960000Y-72962678D01*
X137960000Y-72914801D01*
X138344802Y-72530000D01*
X139646289Y-72530000D01*
X139690226Y-72573937D01*
X139859744Y-72687205D01*
X140048102Y-72765226D01*
X140248061Y-72805000D01*
X140451939Y-72805000D01*
X140651898Y-72765226D01*
X140840256Y-72687205D01*
X141009774Y-72573937D01*
X141153937Y-72429774D01*
X141267205Y-72260256D01*
X141345226Y-72071898D01*
X141385000Y-71871939D01*
X141385000Y-71809801D01*
X144044801Y-69150000D01*
X144511928Y-69150000D01*
X144515000Y-69714250D01*
X144673750Y-69873000D01*
X145873000Y-69873000D01*
X145873000Y-68673750D01*
X145714250Y-68515000D01*
X145150000Y-68511928D01*
X145025518Y-68524188D01*
X144905820Y-68560498D01*
X144795506Y-68619463D01*
X144698815Y-68698815D01*
X144619463Y-68795506D01*
X144560498Y-68905820D01*
X144524188Y-69025518D01*
X144511928Y-69150000D01*
X144044801Y-69150000D01*
X145511003Y-67683799D01*
X145540001Y-67660001D01*
X145612166Y-67572068D01*
X145634974Y-67544277D01*
X145705546Y-67412247D01*
X145724265Y-67350536D01*
X145854802Y-67220000D01*
X146542760Y-67220000D01*
X146482795Y-67309744D01*
%TA.AperFunction,Conductor*%
D20*
G36*
X146482795Y-67309744D02*
G01*
X146404774Y-67498102D01*
X146365000Y-67698061D01*
X146365000Y-67901939D01*
X146404774Y-68101898D01*
X146482795Y-68290256D01*
X146596063Y-68459774D01*
X146631775Y-68495486D01*
X146626419Y-68513145D01*
X146285750Y-68515000D01*
X146127000Y-68673750D01*
X146127000Y-69873000D01*
X146147000Y-69873000D01*
X146147000Y-70127000D01*
X146127000Y-70127000D01*
X146127000Y-70147000D01*
X145873000Y-70147000D01*
X145873000Y-70127000D01*
X144673750Y-70127000D01*
X144515000Y-70285750D01*
X144511928Y-70850000D01*
X144524188Y-70974482D01*
X144560498Y-71094180D01*
X144619463Y-71204494D01*
X144698815Y-71301185D01*
X144795506Y-71380537D01*
X144905820Y-71439502D01*
X144978380Y-71461513D01*
X144846525Y-71593368D01*
X144684010Y-71836589D01*
X144572068Y-72106842D01*
X144515000Y-72393740D01*
X144515000Y-72686260D01*
X144572068Y-72973158D01*
X144684010Y-73243411D01*
X144846525Y-73486632D01*
X145053368Y-73693475D01*
X145227760Y-73810000D01*
X145053368Y-73926525D01*
X144846525Y-74133368D01*
X144721822Y-74320000D01*
X144147322Y-74320000D01*
X144109999Y-74316324D01*
X144072676Y-74320000D01*
X144072667Y-74320000D01*
X143961014Y-74330997D01*
X143817753Y-74374454D01*
X143685724Y-74445026D01*
X143569999Y-74539999D01*
X143546200Y-74568998D01*
X143305045Y-74810154D01*
X139084880Y-74810154D01*
X139088774Y-74800752D01*
X139128548Y-74600793D01*
X139128548Y-74396915D01*
X139088774Y-74196956D01*
X139010753Y-74008598D01*
X138897485Y-73839080D01*
X138753322Y-73694917D01*
X138583804Y-73581649D01*
X138395446Y-73503628D01*
X138195487Y-73463854D01*
X137991609Y-73463854D01*
X137791650Y-73503628D01*
X137758625Y-73517307D01*
X137763795Y-73511008D01*
X137763799Y-73511004D01*
X137834973Y-73424277D01*
X137834974Y-73424276D01*
X137905546Y-73292247D01*
X137949003Y-73148986D01*
X137960000Y-73037333D01*
X137960000Y-73037324D01*
X137963676Y-73000001D01*
X137960000Y-72962678D01*
X137960000Y-72914801D01*
X138344802Y-72530000D01*
X139646289Y-72530000D01*
X139690226Y-72573937D01*
X139859744Y-72687205D01*
X140048102Y-72765226D01*
X140248061Y-72805000D01*
X140451939Y-72805000D01*
X140651898Y-72765226D01*
X140840256Y-72687205D01*
X141009774Y-72573937D01*
X141153937Y-72429774D01*
X141267205Y-72260256D01*
X141345226Y-72071898D01*
X141385000Y-71871939D01*
X141385000Y-71809801D01*
X144044801Y-69150000D01*
X144511928Y-69150000D01*
X144515000Y-69714250D01*
X144673750Y-69873000D01*
X145873000Y-69873000D01*
X145873000Y-68673750D01*
X145714250Y-68515000D01*
X145150000Y-68511928D01*
X145025518Y-68524188D01*
X144905820Y-68560498D01*
X144795506Y-68619463D01*
X144698815Y-68698815D01*
X144619463Y-68795506D01*
X144560498Y-68905820D01*
X144524188Y-69025518D01*
X144511928Y-69150000D01*
X144044801Y-69150000D01*
X145511003Y-67683799D01*
X145540001Y-67660001D01*
X145612166Y-67572068D01*
X145634974Y-67544277D01*
X145705546Y-67412247D01*
X145724265Y-67350536D01*
X145854802Y-67220000D01*
X146542760Y-67220000D01*
X146482795Y-67309744D01*
G37*
%TD.AperFunction*%
%TD*%
M02*
