%TF.GenerationSoftware,KiCad,Pcbnew,(5.1.10)-1*%
%TF.CreationDate,2022-01-27T16:25:42+08:00*%
%TF.ProjectId,hat,6861742e-6b69-4636-9164-5f7063625858,rev?*%
%TF.SameCoordinates,Original*%
%TF.FileFunction,Legend,Top*%
%TF.FilePolarity,Positive*%
%FSLAX46Y46*%
G04 Gerber Fmt 4.6, Leading zero omitted, Abs format (unit mm)*
G04 Created by KiCad (PCBNEW (5.1.10)-1) date 2022-01-27 16:25:42*
%MOMM*%
%LPD*%
G01*
G04 APERTURE LIST*
%ADD10C,0.120000*%
%ADD11C,0.160000*%
%ADD12C,0.150000*%
G04 APERTURE END LIST*
D10*
%TO.C,SW1*%
X103000000Y-67000000D02*
X103000000Y-69000000D01*
X103000000Y-69000000D02*
X101000000Y-69000000D01*
X101000000Y-69000000D02*
X99000000Y-69000000D01*
X99000000Y-69000000D02*
X99000000Y-67000000D01*
X99000000Y-67000000D02*
X99000000Y-65000000D01*
X99000000Y-65000000D02*
X101000000Y-65000000D01*
X101000000Y-65000000D02*
X103000000Y-65000000D01*
X103000000Y-65000000D02*
X103000000Y-67000000D01*
X102000000Y-67000000D02*
G75*
G03*
X102000000Y-67000000I-1000000J0D01*
G01*
D11*
%TO.C,U1*%
X159000000Y-64000000D02*
X159000000Y-80000000D01*
X159000000Y-80000000D02*
X175000000Y-80000000D01*
X175000000Y-80000000D02*
X175000000Y-64000000D01*
X175000000Y-64000000D02*
X159000000Y-64000000D01*
D12*
%TO.C,U3*%
X111760000Y-82890000D02*
X142240000Y-82890000D01*
X111760000Y-82890000D02*
X111760000Y-77810000D01*
X111760000Y-77810000D02*
X109220000Y-77810000D01*
X109220000Y-77810000D02*
X109220000Y-70190000D01*
X109220000Y-70190000D02*
X111760000Y-70190000D01*
X111760000Y-70190000D02*
X111760000Y-65110000D01*
X111760000Y-65110000D02*
X142240000Y-65110000D01*
X142240000Y-65110000D02*
X142240000Y-82890000D01*
D10*
%TO.C,C4*%
X111465000Y-85638748D02*
X111465000Y-86161252D01*
X112935000Y-85638748D02*
X112935000Y-86161252D01*
%TO.C,C3*%
X106135000Y-86098752D02*
X106135000Y-85576248D01*
X104665000Y-86098752D02*
X104665000Y-85576248D01*
%TO.C,R3*%
X126772936Y-88735000D02*
X127227064Y-88735000D01*
X126772936Y-87265000D02*
X127227064Y-87265000D01*
%TO.C,R4*%
X126772936Y-93735000D02*
X127227064Y-93735000D01*
X126772936Y-92265000D02*
X127227064Y-92265000D01*
%TO.C,U4*%
X107800000Y-87510000D02*
X109600000Y-87510000D01*
X109600000Y-84290000D02*
X107150000Y-84290000D01*
%TO.C,U2*%
X176400000Y-87600000D02*
X176000000Y-88000000D01*
X176000000Y-88000000D02*
X176000000Y-90300000D01*
X176000000Y-90300000D02*
X178900000Y-90300000D01*
X178900000Y-90300000D02*
X178900000Y-87600000D01*
X178900000Y-87600000D02*
X176500000Y-87600000D01*
X176500000Y-87600000D02*
X176400000Y-87600000D01*
%TO.C,SPI_PORT1*%
X141950000Y-63330000D02*
X141950000Y-60670000D01*
X129190000Y-63330000D02*
X141950000Y-63330000D01*
X129190000Y-60670000D02*
X141950000Y-60670000D01*
X129190000Y-63330000D02*
X129190000Y-60670000D01*
X127920000Y-63330000D02*
X126590000Y-63330000D01*
X126590000Y-63330000D02*
X126590000Y-62000000D01*
%TO.C,SDA_PU1*%
X137880000Y-89480000D02*
X137880000Y-86820000D01*
X132740000Y-89480000D02*
X137880000Y-89480000D01*
X132740000Y-86820000D02*
X137880000Y-86820000D01*
X132740000Y-89480000D02*
X132740000Y-86820000D01*
X131470000Y-89480000D02*
X130140000Y-89480000D01*
X130140000Y-89480000D02*
X130140000Y-88150000D01*
%TO.C,SCL_PU1*%
X137880000Y-94130000D02*
X137880000Y-91470000D01*
X132740000Y-94130000D02*
X137880000Y-94130000D01*
X132740000Y-91470000D02*
X137880000Y-91470000D01*
X132740000Y-94130000D02*
X132740000Y-91470000D01*
X131470000Y-94130000D02*
X130140000Y-94130000D01*
X130140000Y-94130000D02*
X130140000Y-92800000D01*
%TO.C,JP11*%
X136000000Y-72770000D02*
X136000000Y-70770000D01*
X138800000Y-72770000D02*
X136000000Y-72770000D01*
X138800000Y-70770000D02*
X138800000Y-72770000D01*
X136000000Y-70770000D02*
X138800000Y-70770000D01*
%TO.C,JP10*%
X135950000Y-75000000D02*
X135950000Y-73000000D01*
X138750000Y-75000000D02*
X135950000Y-75000000D01*
X138750000Y-73000000D02*
X138750000Y-75000000D01*
X135950000Y-73000000D02*
X138750000Y-73000000D01*
%TO.C,J6*%
X155330000Y-65130000D02*
X152670000Y-65130000D01*
X155330000Y-75350000D02*
X155330000Y-65130000D01*
X152670000Y-75350000D02*
X152670000Y-65130000D01*
X155330000Y-75350000D02*
X152670000Y-75350000D01*
X155330000Y-76620000D02*
X155330000Y-77950000D01*
X155330000Y-77950000D02*
X154000000Y-77950000D01*
%TO.C,J5*%
X177870000Y-73890000D02*
X180530000Y-73890000D01*
X177870000Y-63670000D02*
X177870000Y-73890000D01*
X180530000Y-63670000D02*
X180530000Y-73890000D01*
X177870000Y-63670000D02*
X180530000Y-63670000D01*
X177870000Y-62400000D02*
X177870000Y-61070000D01*
X177870000Y-61070000D02*
X179200000Y-61070000D01*
%TO.C,J4*%
X115590000Y-89130000D02*
X115590000Y-94330000D01*
X120730000Y-89130000D02*
X115590000Y-89130000D01*
X123330000Y-94330000D02*
X115590000Y-94330000D01*
X120730000Y-89130000D02*
X120730000Y-91730000D01*
X120730000Y-91730000D02*
X123330000Y-91730000D01*
X123330000Y-91730000D02*
X123330000Y-94330000D01*
X122000000Y-89130000D02*
X123330000Y-89130000D01*
X123330000Y-89130000D02*
X123330000Y-90460000D01*
%TO.C,J3*%
X122330000Y-63330000D02*
X122330000Y-60670000D01*
X119730000Y-63330000D02*
X122330000Y-63330000D01*
X119730000Y-60670000D02*
X122330000Y-60670000D01*
X119730000Y-63330000D02*
X119730000Y-60670000D01*
X118460000Y-63330000D02*
X117130000Y-63330000D01*
X117130000Y-63330000D02*
X117130000Y-62000000D01*
%TO.C,J2*%
X173870000Y-84930000D02*
X176530000Y-84930000D01*
X173870000Y-84870000D02*
X173870000Y-84930000D01*
X176530000Y-84870000D02*
X176530000Y-84930000D01*
X173870000Y-84870000D02*
X176530000Y-84870000D01*
X173870000Y-83600000D02*
X173870000Y-82270000D01*
X173870000Y-82270000D02*
X175200000Y-82270000D01*
%TO.C,J1*%
X102330000Y-80410000D02*
X97130000Y-80410000D01*
X102330000Y-128730000D02*
X102330000Y-80410000D01*
X97130000Y-131330000D02*
X97130000Y-80410000D01*
X102330000Y-128730000D02*
X99730000Y-128730000D01*
X99730000Y-128730000D02*
X99730000Y-131330000D01*
X99730000Y-131330000D02*
X97130000Y-131330000D01*
X102330000Y-130000000D02*
X102330000Y-131330000D01*
X102330000Y-131330000D02*
X101000000Y-131330000D01*
%TO.C,I2C_PORT1*%
X144670000Y-78950000D02*
X147330000Y-78950000D01*
X144670000Y-71270000D02*
X144670000Y-78950000D01*
X147330000Y-71270000D02*
X147330000Y-78950000D01*
X144670000Y-71270000D02*
X147330000Y-71270000D01*
X144670000Y-70000000D02*
X144670000Y-68670000D01*
X144670000Y-68670000D02*
X146000000Y-68670000D01*
%TO.C,FAN1*%
X91560000Y-131330000D02*
X91560000Y-126130000D01*
X91560000Y-126130000D02*
X88900000Y-126130000D01*
X88900000Y-126130000D02*
X88900000Y-131330000D01*
X88900000Y-131330000D02*
X91560000Y-131330000D01*
X88900000Y-130380000D02*
X82900000Y-130380000D01*
X82900000Y-130380000D02*
X82900000Y-129620000D01*
X82900000Y-129620000D02*
X88900000Y-129620000D01*
X88900000Y-130320000D02*
X82900000Y-130320000D01*
X88900000Y-130200000D02*
X82900000Y-130200000D01*
X88900000Y-130080000D02*
X82900000Y-130080000D01*
X88900000Y-129960000D02*
X82900000Y-129960000D01*
X88900000Y-129840000D02*
X82900000Y-129840000D01*
X88900000Y-129720000D02*
X82900000Y-129720000D01*
X91890000Y-130380000D02*
X91560000Y-130380000D01*
X91890000Y-129620000D02*
X91560000Y-129620000D01*
X91560000Y-128730000D02*
X88900000Y-128730000D01*
X88900000Y-127840000D02*
X82900000Y-127840000D01*
X82900000Y-127840000D02*
X82900000Y-127080000D01*
X82900000Y-127080000D02*
X88900000Y-127080000D01*
X91957071Y-127840000D02*
X91560000Y-127840000D01*
X91957071Y-127080000D02*
X91560000Y-127080000D01*
X94270000Y-130000000D02*
X94270000Y-131270000D01*
X94270000Y-131270000D02*
X93000000Y-131270000D01*
%TO.C,SW1*%
D12*
X105454761Y-68333333D02*
X105502380Y-68190476D01*
X105502380Y-67952380D01*
X105454761Y-67857142D01*
X105407142Y-67809523D01*
X105311904Y-67761904D01*
X105216666Y-67761904D01*
X105121428Y-67809523D01*
X105073809Y-67857142D01*
X105026190Y-67952380D01*
X104978571Y-68142857D01*
X104930952Y-68238095D01*
X104883333Y-68285714D01*
X104788095Y-68333333D01*
X104692857Y-68333333D01*
X104597619Y-68285714D01*
X104550000Y-68238095D01*
X104502380Y-68142857D01*
X104502380Y-67904761D01*
X104550000Y-67761904D01*
X104502380Y-67428571D02*
X105502380Y-67190476D01*
X104788095Y-67000000D01*
X105502380Y-66809523D01*
X104502380Y-66571428D01*
X105502380Y-65666666D02*
X105502380Y-66238095D01*
X105502380Y-65952380D02*
X104502380Y-65952380D01*
X104645238Y-66047619D01*
X104740476Y-66142857D01*
X104788095Y-66238095D01*
%TO.C,U1*%
X166238095Y-65452380D02*
X166238095Y-66261904D01*
X166285714Y-66357142D01*
X166333333Y-66404761D01*
X166428571Y-66452380D01*
X166619047Y-66452380D01*
X166714285Y-66404761D01*
X166761904Y-66357142D01*
X166809523Y-66261904D01*
X166809523Y-65452380D01*
X167809523Y-66452380D02*
X167238095Y-66452380D01*
X167523809Y-66452380D02*
X167523809Y-65452380D01*
X167428571Y-65595238D01*
X167333333Y-65690476D01*
X167238095Y-65738095D01*
X170638095Y-76500000D02*
X170542857Y-76452380D01*
X170400000Y-76452380D01*
X170257142Y-76500000D01*
X170161904Y-76595238D01*
X170114285Y-76690476D01*
X170066666Y-76880952D01*
X170066666Y-77023809D01*
X170114285Y-77214285D01*
X170161904Y-77309523D01*
X170257142Y-77404761D01*
X170400000Y-77452380D01*
X170495238Y-77452380D01*
X170638095Y-77404761D01*
X170685714Y-77357142D01*
X170685714Y-77023809D01*
X170495238Y-77023809D01*
X171114285Y-77452380D02*
X171114285Y-76452380D01*
X171685714Y-77452380D01*
X171685714Y-76452380D01*
X172161904Y-77452380D02*
X172161904Y-76452380D01*
X172400000Y-76452380D01*
X172542857Y-76500000D01*
X172638095Y-76595238D01*
X172685714Y-76690476D01*
X172733333Y-76880952D01*
X172733333Y-77023809D01*
X172685714Y-77214285D01*
X172638095Y-77309523D01*
X172542857Y-77404761D01*
X172400000Y-77452380D01*
X172161904Y-77452380D01*
X169700000Y-75452380D02*
X169700000Y-74452380D01*
X169938095Y-74452380D01*
X170080952Y-74500000D01*
X170176190Y-74595238D01*
X170223809Y-74690476D01*
X170271428Y-74880952D01*
X170271428Y-75023809D01*
X170223809Y-75214285D01*
X170176190Y-75309523D01*
X170080952Y-75404761D01*
X169938095Y-75452380D01*
X169700000Y-75452380D01*
X170700000Y-75452380D02*
X170700000Y-74452380D01*
X171366666Y-74452380D02*
X171557142Y-74452380D01*
X171652380Y-74500000D01*
X171747619Y-74595238D01*
X171795238Y-74785714D01*
X171795238Y-75119047D01*
X171747619Y-75309523D01*
X171652380Y-75404761D01*
X171557142Y-75452380D01*
X171366666Y-75452380D01*
X171271428Y-75404761D01*
X171176190Y-75309523D01*
X171128571Y-75119047D01*
X171128571Y-74785714D01*
X171176190Y-74595238D01*
X171271428Y-74500000D01*
X171366666Y-74452380D01*
X172128571Y-74452380D02*
X172747619Y-74452380D01*
X172414285Y-74833333D01*
X172557142Y-74833333D01*
X172652380Y-74880952D01*
X172700000Y-74928571D01*
X172747619Y-75023809D01*
X172747619Y-75261904D01*
X172700000Y-75357142D01*
X172652380Y-75404761D01*
X172557142Y-75452380D01*
X172271428Y-75452380D01*
X172176190Y-75404761D01*
X172128571Y-75357142D01*
X169700000Y-73452380D02*
X169700000Y-72452380D01*
X169938095Y-72452380D01*
X170080952Y-72500000D01*
X170176190Y-72595238D01*
X170223809Y-72690476D01*
X170271428Y-72880952D01*
X170271428Y-73023809D01*
X170223809Y-73214285D01*
X170176190Y-73309523D01*
X170080952Y-73404761D01*
X169938095Y-73452380D01*
X169700000Y-73452380D01*
X170700000Y-73452380D02*
X170700000Y-72452380D01*
X171366666Y-72452380D02*
X171557142Y-72452380D01*
X171652380Y-72500000D01*
X171747619Y-72595238D01*
X171795238Y-72785714D01*
X171795238Y-73119047D01*
X171747619Y-73309523D01*
X171652380Y-73404761D01*
X171557142Y-73452380D01*
X171366666Y-73452380D01*
X171271428Y-73404761D01*
X171176190Y-73309523D01*
X171128571Y-73119047D01*
X171128571Y-72785714D01*
X171176190Y-72595238D01*
X171271428Y-72500000D01*
X171366666Y-72452380D01*
X172652380Y-72785714D02*
X172652380Y-73452380D01*
X172414285Y-72404761D02*
X172176190Y-73119047D01*
X172795238Y-73119047D01*
X169823809Y-70452380D02*
X170442857Y-70452380D01*
X170109523Y-70833333D01*
X170252380Y-70833333D01*
X170347619Y-70880952D01*
X170395238Y-70928571D01*
X170442857Y-71023809D01*
X170442857Y-71261904D01*
X170395238Y-71357142D01*
X170347619Y-71404761D01*
X170252380Y-71452380D01*
X169966666Y-71452380D01*
X169871428Y-71404761D01*
X169823809Y-71357142D01*
X170871428Y-71357142D02*
X170919047Y-71404761D01*
X170871428Y-71452380D01*
X170823809Y-71404761D01*
X170871428Y-71357142D01*
X170871428Y-71452380D01*
X171252380Y-70452380D02*
X171871428Y-70452380D01*
X171538095Y-70833333D01*
X171680952Y-70833333D01*
X171776190Y-70880952D01*
X171823809Y-70928571D01*
X171871428Y-71023809D01*
X171871428Y-71261904D01*
X171823809Y-71357142D01*
X171776190Y-71404761D01*
X171680952Y-71452380D01*
X171395238Y-71452380D01*
X171300000Y-71404761D01*
X171252380Y-71357142D01*
X172157142Y-70452380D02*
X172490476Y-71452380D01*
X172823809Y-70452380D01*
X169800000Y-69452380D02*
X169800000Y-68452380D01*
X170038095Y-68452380D01*
X170180952Y-68500000D01*
X170276190Y-68595238D01*
X170323809Y-68690476D01*
X170371428Y-68880952D01*
X170371428Y-69023809D01*
X170323809Y-69214285D01*
X170276190Y-69309523D01*
X170180952Y-69404761D01*
X170038095Y-69452380D01*
X169800000Y-69452380D01*
X170800000Y-69452380D02*
X170800000Y-68452380D01*
X171466666Y-68452380D02*
X171657142Y-68452380D01*
X171752380Y-68500000D01*
X171847619Y-68595238D01*
X171895238Y-68785714D01*
X171895238Y-69119047D01*
X171847619Y-69309523D01*
X171752380Y-69404761D01*
X171657142Y-69452380D01*
X171466666Y-69452380D01*
X171371428Y-69404761D01*
X171276190Y-69309523D01*
X171228571Y-69119047D01*
X171228571Y-68785714D01*
X171276190Y-68595238D01*
X171371428Y-68500000D01*
X171466666Y-68452380D01*
X172514285Y-68452380D02*
X172609523Y-68452380D01*
X172704761Y-68500000D01*
X172752380Y-68547619D01*
X172800000Y-68642857D01*
X172847619Y-68833333D01*
X172847619Y-69071428D01*
X172800000Y-69261904D01*
X172752380Y-69357142D01*
X172704761Y-69404761D01*
X172609523Y-69452380D01*
X172514285Y-69452380D01*
X172419047Y-69404761D01*
X172371428Y-69357142D01*
X172323809Y-69261904D01*
X172276190Y-69071428D01*
X172276190Y-68833333D01*
X172323809Y-68642857D01*
X172371428Y-68547619D01*
X172419047Y-68500000D01*
X172514285Y-68452380D01*
X169800000Y-67452380D02*
X169800000Y-66452380D01*
X170038095Y-66452380D01*
X170180952Y-66500000D01*
X170276190Y-66595238D01*
X170323809Y-66690476D01*
X170371428Y-66880952D01*
X170371428Y-67023809D01*
X170323809Y-67214285D01*
X170276190Y-67309523D01*
X170180952Y-67404761D01*
X170038095Y-67452380D01*
X169800000Y-67452380D01*
X170800000Y-67452380D02*
X170800000Y-66452380D01*
X171466666Y-66452380D02*
X171657142Y-66452380D01*
X171752380Y-66500000D01*
X171847619Y-66595238D01*
X171895238Y-66785714D01*
X171895238Y-67119047D01*
X171847619Y-67309523D01*
X171752380Y-67404761D01*
X171657142Y-67452380D01*
X171466666Y-67452380D01*
X171371428Y-67404761D01*
X171276190Y-67309523D01*
X171228571Y-67119047D01*
X171228571Y-66785714D01*
X171276190Y-66595238D01*
X171371428Y-66500000D01*
X171466666Y-66452380D01*
X172847619Y-67452380D02*
X172276190Y-67452380D01*
X172561904Y-67452380D02*
X172561904Y-66452380D01*
X172466666Y-66595238D01*
X172371428Y-66690476D01*
X172276190Y-66738095D01*
X169800000Y-65452380D02*
X169800000Y-64452380D01*
X170038095Y-64452380D01*
X170180952Y-64500000D01*
X170276190Y-64595238D01*
X170323809Y-64690476D01*
X170371428Y-64880952D01*
X170371428Y-65023809D01*
X170323809Y-65214285D01*
X170276190Y-65309523D01*
X170180952Y-65404761D01*
X170038095Y-65452380D01*
X169800000Y-65452380D01*
X170800000Y-65452380D02*
X170800000Y-64452380D01*
X171466666Y-64452380D02*
X171657142Y-64452380D01*
X171752380Y-64500000D01*
X171847619Y-64595238D01*
X171895238Y-64785714D01*
X171895238Y-65119047D01*
X171847619Y-65309523D01*
X171752380Y-65404761D01*
X171657142Y-65452380D01*
X171466666Y-65452380D01*
X171371428Y-65404761D01*
X171276190Y-65309523D01*
X171228571Y-65119047D01*
X171228571Y-64785714D01*
X171276190Y-64595238D01*
X171371428Y-64500000D01*
X171466666Y-64452380D01*
X172276190Y-64547619D02*
X172323809Y-64500000D01*
X172419047Y-64452380D01*
X172657142Y-64452380D01*
X172752380Y-64500000D01*
X172800000Y-64547619D01*
X172847619Y-64642857D01*
X172847619Y-64738095D01*
X172800000Y-64880952D01*
X172228571Y-65452380D01*
X172847619Y-65452380D01*
X161738095Y-78500000D02*
X161642857Y-78452380D01*
X161500000Y-78452380D01*
X161357142Y-78500000D01*
X161261904Y-78595238D01*
X161214285Y-78690476D01*
X161166666Y-78880952D01*
X161166666Y-79023809D01*
X161214285Y-79214285D01*
X161261904Y-79309523D01*
X161357142Y-79404761D01*
X161500000Y-79452380D01*
X161595238Y-79452380D01*
X161738095Y-79404761D01*
X161785714Y-79357142D01*
X161785714Y-79023809D01*
X161595238Y-79023809D01*
X162214285Y-79452380D02*
X162214285Y-78452380D01*
X162785714Y-79452380D01*
X162785714Y-78452380D01*
X163261904Y-79452380D02*
X163261904Y-78452380D01*
X163500000Y-78452380D01*
X163642857Y-78500000D01*
X163738095Y-78595238D01*
X163785714Y-78690476D01*
X163833333Y-78880952D01*
X163833333Y-79023809D01*
X163785714Y-79214285D01*
X163738095Y-79309523D01*
X163642857Y-79404761D01*
X163500000Y-79452380D01*
X163261904Y-79452380D01*
X161200000Y-77452380D02*
X161200000Y-76452380D01*
X161438095Y-76452380D01*
X161580952Y-76500000D01*
X161676190Y-76595238D01*
X161723809Y-76690476D01*
X161771428Y-76880952D01*
X161771428Y-77023809D01*
X161723809Y-77214285D01*
X161676190Y-77309523D01*
X161580952Y-77404761D01*
X161438095Y-77452380D01*
X161200000Y-77452380D01*
X162200000Y-77452380D02*
X162200000Y-76452380D01*
X162866666Y-76452380D02*
X163057142Y-76452380D01*
X163152380Y-76500000D01*
X163247619Y-76595238D01*
X163295238Y-76785714D01*
X163295238Y-77119047D01*
X163247619Y-77309523D01*
X163152380Y-77404761D01*
X163057142Y-77452380D01*
X162866666Y-77452380D01*
X162771428Y-77404761D01*
X162676190Y-77309523D01*
X162628571Y-77119047D01*
X162628571Y-76785714D01*
X162676190Y-76595238D01*
X162771428Y-76500000D01*
X162866666Y-76452380D01*
X164200000Y-76452380D02*
X163723809Y-76452380D01*
X163676190Y-76928571D01*
X163723809Y-76880952D01*
X163819047Y-76833333D01*
X164057142Y-76833333D01*
X164152380Y-76880952D01*
X164200000Y-76928571D01*
X164247619Y-77023809D01*
X164247619Y-77261904D01*
X164200000Y-77357142D01*
X164152380Y-77404761D01*
X164057142Y-77452380D01*
X163819047Y-77452380D01*
X163723809Y-77404761D01*
X163676190Y-77357142D01*
X161747619Y-75452380D02*
X161414285Y-74976190D01*
X161176190Y-75452380D02*
X161176190Y-74452380D01*
X161557142Y-74452380D01*
X161652380Y-74500000D01*
X161700000Y-74547619D01*
X161747619Y-74642857D01*
X161747619Y-74785714D01*
X161700000Y-74880952D01*
X161652380Y-74928571D01*
X161557142Y-74976190D01*
X161176190Y-74976190D01*
X162176190Y-74928571D02*
X162509523Y-74928571D01*
X162652380Y-75452380D02*
X162176190Y-75452380D01*
X162176190Y-74452380D01*
X162652380Y-74452380D01*
X163033333Y-75404761D02*
X163176190Y-75452380D01*
X163414285Y-75452380D01*
X163509523Y-75404761D01*
X163557142Y-75357142D01*
X163604761Y-75261904D01*
X163604761Y-75166666D01*
X163557142Y-75071428D01*
X163509523Y-75023809D01*
X163414285Y-74976190D01*
X163223809Y-74928571D01*
X163128571Y-74880952D01*
X163080952Y-74833333D01*
X163033333Y-74738095D01*
X163033333Y-74642857D01*
X163080952Y-74547619D01*
X163128571Y-74500000D01*
X163223809Y-74452380D01*
X163461904Y-74452380D01*
X163604761Y-74500000D01*
X164033333Y-74928571D02*
X164366666Y-74928571D01*
X164509523Y-75452380D02*
X164033333Y-75452380D01*
X164033333Y-74452380D01*
X164509523Y-74452380D01*
X164795238Y-74452380D02*
X165366666Y-74452380D01*
X165080952Y-75452380D02*
X165080952Y-74452380D01*
X161261904Y-73452380D02*
X161261904Y-72452380D01*
X161833333Y-73452380D01*
X161833333Y-72452380D01*
X162261904Y-73404761D02*
X162404761Y-73452380D01*
X162642857Y-73452380D01*
X162738095Y-73404761D01*
X162785714Y-73357142D01*
X162833333Y-73261904D01*
X162833333Y-73166666D01*
X162785714Y-73071428D01*
X162738095Y-73023809D01*
X162642857Y-72976190D01*
X162452380Y-72928571D01*
X162357142Y-72880952D01*
X162309523Y-72833333D01*
X162261904Y-72738095D01*
X162261904Y-72642857D01*
X162309523Y-72547619D01*
X162357142Y-72500000D01*
X162452380Y-72452380D01*
X162690476Y-72452380D01*
X162833333Y-72500000D01*
X163214285Y-73404761D02*
X163357142Y-73452380D01*
X163595238Y-73452380D01*
X163690476Y-73404761D01*
X163738095Y-73357142D01*
X163785714Y-73261904D01*
X163785714Y-73166666D01*
X163738095Y-73071428D01*
X163690476Y-73023809D01*
X163595238Y-72976190D01*
X163404761Y-72928571D01*
X163309523Y-72880952D01*
X163261904Y-72833333D01*
X163214285Y-72738095D01*
X163214285Y-72642857D01*
X163261904Y-72547619D01*
X163309523Y-72500000D01*
X163404761Y-72452380D01*
X163642857Y-72452380D01*
X163785714Y-72500000D01*
X161214285Y-71404761D02*
X161357142Y-71452380D01*
X161595238Y-71452380D01*
X161690476Y-71404761D01*
X161738095Y-71357142D01*
X161785714Y-71261904D01*
X161785714Y-71166666D01*
X161738095Y-71071428D01*
X161690476Y-71023809D01*
X161595238Y-70976190D01*
X161404761Y-70928571D01*
X161309523Y-70880952D01*
X161261904Y-70833333D01*
X161214285Y-70738095D01*
X161214285Y-70642857D01*
X161261904Y-70547619D01*
X161309523Y-70500000D01*
X161404761Y-70452380D01*
X161642857Y-70452380D01*
X161785714Y-70500000D01*
X162785714Y-71357142D02*
X162738095Y-71404761D01*
X162595238Y-71452380D01*
X162500000Y-71452380D01*
X162357142Y-71404761D01*
X162261904Y-71309523D01*
X162214285Y-71214285D01*
X162166666Y-71023809D01*
X162166666Y-70880952D01*
X162214285Y-70690476D01*
X162261904Y-70595238D01*
X162357142Y-70500000D01*
X162500000Y-70452380D01*
X162595238Y-70452380D01*
X162738095Y-70500000D01*
X162785714Y-70547619D01*
X163214285Y-71452380D02*
X163214285Y-70452380D01*
X163785714Y-71452380D02*
X163357142Y-70880952D01*
X163785714Y-70452380D02*
X163214285Y-71023809D01*
X161228571Y-69452380D02*
X161228571Y-68452380D01*
X161561904Y-69166666D01*
X161895238Y-68452380D01*
X161895238Y-69452380D01*
X162561904Y-68452380D02*
X162752380Y-68452380D01*
X162847619Y-68500000D01*
X162942857Y-68595238D01*
X162990476Y-68785714D01*
X162990476Y-69119047D01*
X162942857Y-69309523D01*
X162847619Y-69404761D01*
X162752380Y-69452380D01*
X162561904Y-69452380D01*
X162466666Y-69404761D01*
X162371428Y-69309523D01*
X162323809Y-69119047D01*
X162323809Y-68785714D01*
X162371428Y-68595238D01*
X162466666Y-68500000D01*
X162561904Y-68452380D01*
X163371428Y-69404761D02*
X163514285Y-69452380D01*
X163752380Y-69452380D01*
X163847619Y-69404761D01*
X163895238Y-69357142D01*
X163942857Y-69261904D01*
X163942857Y-69166666D01*
X163895238Y-69071428D01*
X163847619Y-69023809D01*
X163752380Y-68976190D01*
X163561904Y-68928571D01*
X163466666Y-68880952D01*
X163419047Y-68833333D01*
X163371428Y-68738095D01*
X163371428Y-68642857D01*
X163419047Y-68547619D01*
X163466666Y-68500000D01*
X163561904Y-68452380D01*
X163800000Y-68452380D01*
X163942857Y-68500000D01*
X164371428Y-69452380D02*
X164371428Y-68452380D01*
X161228571Y-67452380D02*
X161228571Y-66452380D01*
X161561904Y-67166666D01*
X161895238Y-66452380D01*
X161895238Y-67452380D01*
X162371428Y-67452380D02*
X162371428Y-66452380D01*
X162800000Y-67404761D02*
X162942857Y-67452380D01*
X163180952Y-67452380D01*
X163276190Y-67404761D01*
X163323809Y-67357142D01*
X163371428Y-67261904D01*
X163371428Y-67166666D01*
X163323809Y-67071428D01*
X163276190Y-67023809D01*
X163180952Y-66976190D01*
X162990476Y-66928571D01*
X162895238Y-66880952D01*
X162847619Y-66833333D01*
X162800000Y-66738095D01*
X162800000Y-66642857D01*
X162847619Y-66547619D01*
X162895238Y-66500000D01*
X162990476Y-66452380D01*
X163228571Y-66452380D01*
X163371428Y-66500000D01*
X163990476Y-66452380D02*
X164180952Y-66452380D01*
X164276190Y-66500000D01*
X164371428Y-66595238D01*
X164419047Y-66785714D01*
X164419047Y-67119047D01*
X164371428Y-67309523D01*
X164276190Y-67404761D01*
X164180952Y-67452380D01*
X163990476Y-67452380D01*
X163895238Y-67404761D01*
X163800000Y-67309523D01*
X163752380Y-67119047D01*
X163752380Y-66785714D01*
X163800000Y-66595238D01*
X163895238Y-66500000D01*
X163990476Y-66452380D01*
X170457142Y-79166666D02*
X170933333Y-79166666D01*
X170361904Y-79452380D02*
X170695238Y-78452380D01*
X171028571Y-79452380D01*
X171361904Y-79452380D02*
X171361904Y-78452380D01*
X171933333Y-79452380D01*
X171933333Y-78452380D01*
X172266666Y-78452380D02*
X172838095Y-78452380D01*
X172552380Y-79452380D02*
X172552380Y-78452380D01*
X161738095Y-64500000D02*
X161642857Y-64452380D01*
X161500000Y-64452380D01*
X161357142Y-64500000D01*
X161261904Y-64595238D01*
X161214285Y-64690476D01*
X161166666Y-64880952D01*
X161166666Y-65023809D01*
X161214285Y-65214285D01*
X161261904Y-65309523D01*
X161357142Y-65404761D01*
X161500000Y-65452380D01*
X161595238Y-65452380D01*
X161738095Y-65404761D01*
X161785714Y-65357142D01*
X161785714Y-65023809D01*
X161595238Y-65023809D01*
X162214285Y-65452380D02*
X162214285Y-64452380D01*
X162785714Y-65452380D01*
X162785714Y-64452380D01*
X163261904Y-65452380D02*
X163261904Y-64452380D01*
X163500000Y-64452380D01*
X163642857Y-64500000D01*
X163738095Y-64595238D01*
X163785714Y-64690476D01*
X163833333Y-64880952D01*
X163833333Y-65023809D01*
X163785714Y-65214285D01*
X163738095Y-65309523D01*
X163642857Y-65404761D01*
X163500000Y-65452380D01*
X163261904Y-65452380D01*
%TO.C,C4*%
X113607142Y-86066666D02*
X113654761Y-86114285D01*
X113702380Y-86257142D01*
X113702380Y-86352380D01*
X113654761Y-86495238D01*
X113559523Y-86590476D01*
X113464285Y-86638095D01*
X113273809Y-86685714D01*
X113130952Y-86685714D01*
X112940476Y-86638095D01*
X112845238Y-86590476D01*
X112750000Y-86495238D01*
X112702380Y-86352380D01*
X112702380Y-86257142D01*
X112750000Y-86114285D01*
X112797619Y-86066666D01*
X113035714Y-85209523D02*
X113702380Y-85209523D01*
X112654761Y-85447619D02*
X113369047Y-85685714D01*
X113369047Y-85066666D01*
%TO.C,C3*%
X104707142Y-86004166D02*
X104754761Y-86051785D01*
X104802380Y-86194642D01*
X104802380Y-86289880D01*
X104754761Y-86432738D01*
X104659523Y-86527976D01*
X104564285Y-86575595D01*
X104373809Y-86623214D01*
X104230952Y-86623214D01*
X104040476Y-86575595D01*
X103945238Y-86527976D01*
X103850000Y-86432738D01*
X103802380Y-86289880D01*
X103802380Y-86194642D01*
X103850000Y-86051785D01*
X103897619Y-86004166D01*
X103802380Y-85670833D02*
X103802380Y-85051785D01*
X104183333Y-85385119D01*
X104183333Y-85242261D01*
X104230952Y-85147023D01*
X104278571Y-85099404D01*
X104373809Y-85051785D01*
X104611904Y-85051785D01*
X104707142Y-85099404D01*
X104754761Y-85147023D01*
X104802380Y-85242261D01*
X104802380Y-85527976D01*
X104754761Y-85623214D01*
X104707142Y-85670833D01*
%TO.C,R3*%
X126833333Y-87402380D02*
X126500000Y-86926190D01*
X126261904Y-87402380D02*
X126261904Y-86402380D01*
X126642857Y-86402380D01*
X126738095Y-86450000D01*
X126785714Y-86497619D01*
X126833333Y-86592857D01*
X126833333Y-86735714D01*
X126785714Y-86830952D01*
X126738095Y-86878571D01*
X126642857Y-86926190D01*
X126261904Y-86926190D01*
X127166666Y-86402380D02*
X127785714Y-86402380D01*
X127452380Y-86783333D01*
X127595238Y-86783333D01*
X127690476Y-86830952D01*
X127738095Y-86878571D01*
X127785714Y-86973809D01*
X127785714Y-87211904D01*
X127738095Y-87307142D01*
X127690476Y-87354761D01*
X127595238Y-87402380D01*
X127309523Y-87402380D01*
X127214285Y-87354761D01*
X127166666Y-87307142D01*
%TO.C,R4*%
X126833333Y-92402380D02*
X126500000Y-91926190D01*
X126261904Y-92402380D02*
X126261904Y-91402380D01*
X126642857Y-91402380D01*
X126738095Y-91450000D01*
X126785714Y-91497619D01*
X126833333Y-91592857D01*
X126833333Y-91735714D01*
X126785714Y-91830952D01*
X126738095Y-91878571D01*
X126642857Y-91926190D01*
X126261904Y-91926190D01*
X127690476Y-91735714D02*
X127690476Y-92402380D01*
X127452380Y-91354761D02*
X127214285Y-92069047D01*
X127833333Y-92069047D01*
%TO.C,U4*%
X107938095Y-82452380D02*
X107938095Y-83261904D01*
X107985714Y-83357142D01*
X108033333Y-83404761D01*
X108128571Y-83452380D01*
X108319047Y-83452380D01*
X108414285Y-83404761D01*
X108461904Y-83357142D01*
X108509523Y-83261904D01*
X108509523Y-82452380D01*
X109414285Y-82785714D02*
X109414285Y-83452380D01*
X109176190Y-82404761D02*
X108938095Y-83119047D01*
X109557142Y-83119047D01*
%TO.C,U2*%
X169052380Y-89761904D02*
X169861904Y-89761904D01*
X169957142Y-89714285D01*
X170004761Y-89666666D01*
X170052380Y-89571428D01*
X170052380Y-89380952D01*
X170004761Y-89285714D01*
X169957142Y-89238095D01*
X169861904Y-89190476D01*
X169052380Y-89190476D01*
X169147619Y-88761904D02*
X169100000Y-88714285D01*
X169052380Y-88619047D01*
X169052380Y-88380952D01*
X169100000Y-88285714D01*
X169147619Y-88238095D01*
X169242857Y-88190476D01*
X169338095Y-88190476D01*
X169480952Y-88238095D01*
X170052380Y-88809523D01*
X170052380Y-88190476D01*
%TO.C,SPI_PORT1*%
X125994761Y-65785714D02*
X126042380Y-65642857D01*
X126042380Y-65404761D01*
X125994761Y-65309523D01*
X125947142Y-65261904D01*
X125851904Y-65214285D01*
X125756666Y-65214285D01*
X125661428Y-65261904D01*
X125613809Y-65309523D01*
X125566190Y-65404761D01*
X125518571Y-65595238D01*
X125470952Y-65690476D01*
X125423333Y-65738095D01*
X125328095Y-65785714D01*
X125232857Y-65785714D01*
X125137619Y-65738095D01*
X125090000Y-65690476D01*
X125042380Y-65595238D01*
X125042380Y-65357142D01*
X125090000Y-65214285D01*
X126042380Y-64785714D02*
X125042380Y-64785714D01*
X125042380Y-64404761D01*
X125090000Y-64309523D01*
X125137619Y-64261904D01*
X125232857Y-64214285D01*
X125375714Y-64214285D01*
X125470952Y-64261904D01*
X125518571Y-64309523D01*
X125566190Y-64404761D01*
X125566190Y-64785714D01*
X126042380Y-63785714D02*
X125042380Y-63785714D01*
X126137619Y-63547619D02*
X126137619Y-62785714D01*
X126042380Y-62547619D02*
X125042380Y-62547619D01*
X125042380Y-62166666D01*
X125090000Y-62071428D01*
X125137619Y-62023809D01*
X125232857Y-61976190D01*
X125375714Y-61976190D01*
X125470952Y-62023809D01*
X125518571Y-62071428D01*
X125566190Y-62166666D01*
X125566190Y-62547619D01*
X125042380Y-61357142D02*
X125042380Y-61166666D01*
X125090000Y-61071428D01*
X125185238Y-60976190D01*
X125375714Y-60928571D01*
X125709047Y-60928571D01*
X125899523Y-60976190D01*
X125994761Y-61071428D01*
X126042380Y-61166666D01*
X126042380Y-61357142D01*
X125994761Y-61452380D01*
X125899523Y-61547619D01*
X125709047Y-61595238D01*
X125375714Y-61595238D01*
X125185238Y-61547619D01*
X125090000Y-61452380D01*
X125042380Y-61357142D01*
X126042380Y-59928571D02*
X125566190Y-60261904D01*
X126042380Y-60500000D02*
X125042380Y-60500000D01*
X125042380Y-60119047D01*
X125090000Y-60023809D01*
X125137619Y-59976190D01*
X125232857Y-59928571D01*
X125375714Y-59928571D01*
X125470952Y-59976190D01*
X125518571Y-60023809D01*
X125566190Y-60119047D01*
X125566190Y-60500000D01*
X125042380Y-59642857D02*
X125042380Y-59071428D01*
X126042380Y-59357142D02*
X125042380Y-59357142D01*
X126042380Y-58214285D02*
X126042380Y-58785714D01*
X126042380Y-58500000D02*
X125042380Y-58500000D01*
X125185238Y-58595238D01*
X125280476Y-58690476D01*
X125328095Y-58785714D01*
%TO.C,SDA_PU1*%
X129544761Y-91245238D02*
X129592380Y-91102380D01*
X129592380Y-90864285D01*
X129544761Y-90769047D01*
X129497142Y-90721428D01*
X129401904Y-90673809D01*
X129306666Y-90673809D01*
X129211428Y-90721428D01*
X129163809Y-90769047D01*
X129116190Y-90864285D01*
X129068571Y-91054761D01*
X129020952Y-91150000D01*
X128973333Y-91197619D01*
X128878095Y-91245238D01*
X128782857Y-91245238D01*
X128687619Y-91197619D01*
X128640000Y-91150000D01*
X128592380Y-91054761D01*
X128592380Y-90816666D01*
X128640000Y-90673809D01*
X129592380Y-90245238D02*
X128592380Y-90245238D01*
X128592380Y-90007142D01*
X128640000Y-89864285D01*
X128735238Y-89769047D01*
X128830476Y-89721428D01*
X129020952Y-89673809D01*
X129163809Y-89673809D01*
X129354285Y-89721428D01*
X129449523Y-89769047D01*
X129544761Y-89864285D01*
X129592380Y-90007142D01*
X129592380Y-90245238D01*
X129306666Y-89292857D02*
X129306666Y-88816666D01*
X129592380Y-89388095D02*
X128592380Y-89054761D01*
X129592380Y-88721428D01*
X129687619Y-88626190D02*
X129687619Y-87864285D01*
X129592380Y-87626190D02*
X128592380Y-87626190D01*
X128592380Y-87245238D01*
X128640000Y-87150000D01*
X128687619Y-87102380D01*
X128782857Y-87054761D01*
X128925714Y-87054761D01*
X129020952Y-87102380D01*
X129068571Y-87150000D01*
X129116190Y-87245238D01*
X129116190Y-87626190D01*
X128592380Y-86626190D02*
X129401904Y-86626190D01*
X129497142Y-86578571D01*
X129544761Y-86530952D01*
X129592380Y-86435714D01*
X129592380Y-86245238D01*
X129544761Y-86150000D01*
X129497142Y-86102380D01*
X129401904Y-86054761D01*
X128592380Y-86054761D01*
X129592380Y-85054761D02*
X129592380Y-85626190D01*
X129592380Y-85340476D02*
X128592380Y-85340476D01*
X128735238Y-85435714D01*
X128830476Y-85530952D01*
X128878095Y-85626190D01*
%TO.C,SCL_PU1*%
X129544761Y-95871428D02*
X129592380Y-95728571D01*
X129592380Y-95490476D01*
X129544761Y-95395238D01*
X129497142Y-95347619D01*
X129401904Y-95300000D01*
X129306666Y-95300000D01*
X129211428Y-95347619D01*
X129163809Y-95395238D01*
X129116190Y-95490476D01*
X129068571Y-95680952D01*
X129020952Y-95776190D01*
X128973333Y-95823809D01*
X128878095Y-95871428D01*
X128782857Y-95871428D01*
X128687619Y-95823809D01*
X128640000Y-95776190D01*
X128592380Y-95680952D01*
X128592380Y-95442857D01*
X128640000Y-95300000D01*
X129497142Y-94300000D02*
X129544761Y-94347619D01*
X129592380Y-94490476D01*
X129592380Y-94585714D01*
X129544761Y-94728571D01*
X129449523Y-94823809D01*
X129354285Y-94871428D01*
X129163809Y-94919047D01*
X129020952Y-94919047D01*
X128830476Y-94871428D01*
X128735238Y-94823809D01*
X128640000Y-94728571D01*
X128592380Y-94585714D01*
X128592380Y-94490476D01*
X128640000Y-94347619D01*
X128687619Y-94300000D01*
X129592380Y-93395238D02*
X129592380Y-93871428D01*
X128592380Y-93871428D01*
X129687619Y-93300000D02*
X129687619Y-92538095D01*
X129592380Y-92300000D02*
X128592380Y-92300000D01*
X128592380Y-91919047D01*
X128640000Y-91823809D01*
X128687619Y-91776190D01*
X128782857Y-91728571D01*
X128925714Y-91728571D01*
X129020952Y-91776190D01*
X129068571Y-91823809D01*
X129116190Y-91919047D01*
X129116190Y-92300000D01*
X128592380Y-91300000D02*
X129401904Y-91300000D01*
X129497142Y-91252380D01*
X129544761Y-91204761D01*
X129592380Y-91109523D01*
X129592380Y-90919047D01*
X129544761Y-90823809D01*
X129497142Y-90776190D01*
X129401904Y-90728571D01*
X128592380Y-90728571D01*
X129592380Y-89728571D02*
X129592380Y-90300000D01*
X129592380Y-90014285D02*
X128592380Y-90014285D01*
X128735238Y-90109523D01*
X128830476Y-90204761D01*
X128878095Y-90300000D01*
%TO.C,JP11*%
X136090476Y-69422380D02*
X136090476Y-70136666D01*
X136042857Y-70279523D01*
X135947619Y-70374761D01*
X135804761Y-70422380D01*
X135709523Y-70422380D01*
X136566666Y-70422380D02*
X136566666Y-69422380D01*
X136947619Y-69422380D01*
X137042857Y-69470000D01*
X137090476Y-69517619D01*
X137138095Y-69612857D01*
X137138095Y-69755714D01*
X137090476Y-69850952D01*
X137042857Y-69898571D01*
X136947619Y-69946190D01*
X136566666Y-69946190D01*
X138090476Y-70422380D02*
X137519047Y-70422380D01*
X137804761Y-70422380D02*
X137804761Y-69422380D01*
X137709523Y-69565238D01*
X137614285Y-69660476D01*
X137519047Y-69708095D01*
X139042857Y-70422380D02*
X138471428Y-70422380D01*
X138757142Y-70422380D02*
X138757142Y-69422380D01*
X138661904Y-69565238D01*
X138566666Y-69660476D01*
X138471428Y-69708095D01*
%TO.C,JP10*%
X136040476Y-71652380D02*
X136040476Y-72366666D01*
X135992857Y-72509523D01*
X135897619Y-72604761D01*
X135754761Y-72652380D01*
X135659523Y-72652380D01*
X136516666Y-72652380D02*
X136516666Y-71652380D01*
X136897619Y-71652380D01*
X136992857Y-71700000D01*
X137040476Y-71747619D01*
X137088095Y-71842857D01*
X137088095Y-71985714D01*
X137040476Y-72080952D01*
X136992857Y-72128571D01*
X136897619Y-72176190D01*
X136516666Y-72176190D01*
X138040476Y-72652380D02*
X137469047Y-72652380D01*
X137754761Y-72652380D02*
X137754761Y-71652380D01*
X137659523Y-71795238D01*
X137564285Y-71890476D01*
X137469047Y-71938095D01*
X138659523Y-71652380D02*
X138754761Y-71652380D01*
X138850000Y-71700000D01*
X138897619Y-71747619D01*
X138945238Y-71842857D01*
X138992857Y-72033333D01*
X138992857Y-72271428D01*
X138945238Y-72461904D01*
X138897619Y-72557142D01*
X138850000Y-72604761D01*
X138754761Y-72652380D01*
X138659523Y-72652380D01*
X138564285Y-72604761D01*
X138516666Y-72557142D01*
X138469047Y-72461904D01*
X138421428Y-72271428D01*
X138421428Y-72033333D01*
X138469047Y-71842857D01*
X138516666Y-71747619D01*
X138564285Y-71700000D01*
X138659523Y-71652380D01*
%TO.C,J6*%
X153666666Y-78402380D02*
X153666666Y-79116666D01*
X153619047Y-79259523D01*
X153523809Y-79354761D01*
X153380952Y-79402380D01*
X153285714Y-79402380D01*
X154571428Y-78402380D02*
X154380952Y-78402380D01*
X154285714Y-78450000D01*
X154238095Y-78497619D01*
X154142857Y-78640476D01*
X154095238Y-78830952D01*
X154095238Y-79211904D01*
X154142857Y-79307142D01*
X154190476Y-79354761D01*
X154285714Y-79402380D01*
X154476190Y-79402380D01*
X154571428Y-79354761D01*
X154619047Y-79307142D01*
X154666666Y-79211904D01*
X154666666Y-78973809D01*
X154619047Y-78878571D01*
X154571428Y-78830952D01*
X154476190Y-78783333D01*
X154285714Y-78783333D01*
X154190476Y-78830952D01*
X154142857Y-78878571D01*
X154095238Y-78973809D01*
%TO.C,J5*%
X178866666Y-59522380D02*
X178866666Y-60236666D01*
X178819047Y-60379523D01*
X178723809Y-60474761D01*
X178580952Y-60522380D01*
X178485714Y-60522380D01*
X179819047Y-59522380D02*
X179342857Y-59522380D01*
X179295238Y-59998571D01*
X179342857Y-59950952D01*
X179438095Y-59903333D01*
X179676190Y-59903333D01*
X179771428Y-59950952D01*
X179819047Y-59998571D01*
X179866666Y-60093809D01*
X179866666Y-60331904D01*
X179819047Y-60427142D01*
X179771428Y-60474761D01*
X179676190Y-60522380D01*
X179438095Y-60522380D01*
X179342857Y-60474761D01*
X179295238Y-60427142D01*
%TO.C,J4*%
X123782380Y-92063333D02*
X124496666Y-92063333D01*
X124639523Y-92110952D01*
X124734761Y-92206190D01*
X124782380Y-92349047D01*
X124782380Y-92444285D01*
X124115714Y-91158571D02*
X124782380Y-91158571D01*
X123734761Y-91396666D02*
X124449047Y-91634761D01*
X124449047Y-91015714D01*
%TO.C,J3*%
X115582380Y-62333333D02*
X116296666Y-62333333D01*
X116439523Y-62380952D01*
X116534761Y-62476190D01*
X116582380Y-62619047D01*
X116582380Y-62714285D01*
X115582380Y-61952380D02*
X115582380Y-61333333D01*
X115963333Y-61666666D01*
X115963333Y-61523809D01*
X116010952Y-61428571D01*
X116058571Y-61380952D01*
X116153809Y-61333333D01*
X116391904Y-61333333D01*
X116487142Y-61380952D01*
X116534761Y-61428571D01*
X116582380Y-61523809D01*
X116582380Y-61809523D01*
X116534761Y-61904761D01*
X116487142Y-61952380D01*
%TO.C,J2*%
X174866666Y-80722380D02*
X174866666Y-81436666D01*
X174819047Y-81579523D01*
X174723809Y-81674761D01*
X174580952Y-81722380D01*
X174485714Y-81722380D01*
X175295238Y-80817619D02*
X175342857Y-80770000D01*
X175438095Y-80722380D01*
X175676190Y-80722380D01*
X175771428Y-80770000D01*
X175819047Y-80817619D01*
X175866666Y-80912857D01*
X175866666Y-81008095D01*
X175819047Y-81150952D01*
X175247619Y-81722380D01*
X175866666Y-81722380D01*
%TO.C,J1*%
X99396666Y-131782380D02*
X99396666Y-132496666D01*
X99349047Y-132639523D01*
X99253809Y-132734761D01*
X99110952Y-132782380D01*
X99015714Y-132782380D01*
X100396666Y-132782380D02*
X99825238Y-132782380D01*
X100110952Y-132782380D02*
X100110952Y-131782380D01*
X100015714Y-131925238D01*
X99920476Y-132020476D01*
X99825238Y-132068095D01*
%TO.C,I2C_PORT1*%
X142261904Y-68122380D02*
X142261904Y-67122380D01*
X142690476Y-67217619D02*
X142738095Y-67170000D01*
X142833333Y-67122380D01*
X143071428Y-67122380D01*
X143166666Y-67170000D01*
X143214285Y-67217619D01*
X143261904Y-67312857D01*
X143261904Y-67408095D01*
X143214285Y-67550952D01*
X142642857Y-68122380D01*
X143261904Y-68122380D01*
X144261904Y-68027142D02*
X144214285Y-68074761D01*
X144071428Y-68122380D01*
X143976190Y-68122380D01*
X143833333Y-68074761D01*
X143738095Y-67979523D01*
X143690476Y-67884285D01*
X143642857Y-67693809D01*
X143642857Y-67550952D01*
X143690476Y-67360476D01*
X143738095Y-67265238D01*
X143833333Y-67170000D01*
X143976190Y-67122380D01*
X144071428Y-67122380D01*
X144214285Y-67170000D01*
X144261904Y-67217619D01*
X144452380Y-68217619D02*
X145214285Y-68217619D01*
X145452380Y-68122380D02*
X145452380Y-67122380D01*
X145833333Y-67122380D01*
X145928571Y-67170000D01*
X145976190Y-67217619D01*
X146023809Y-67312857D01*
X146023809Y-67455714D01*
X145976190Y-67550952D01*
X145928571Y-67598571D01*
X145833333Y-67646190D01*
X145452380Y-67646190D01*
X146642857Y-67122380D02*
X146833333Y-67122380D01*
X146928571Y-67170000D01*
X147023809Y-67265238D01*
X147071428Y-67455714D01*
X147071428Y-67789047D01*
X147023809Y-67979523D01*
X146928571Y-68074761D01*
X146833333Y-68122380D01*
X146642857Y-68122380D01*
X146547619Y-68074761D01*
X146452380Y-67979523D01*
X146404761Y-67789047D01*
X146404761Y-67455714D01*
X146452380Y-67265238D01*
X146547619Y-67170000D01*
X146642857Y-67122380D01*
X148071428Y-68122380D02*
X147738095Y-67646190D01*
X147500000Y-68122380D02*
X147500000Y-67122380D01*
X147880952Y-67122380D01*
X147976190Y-67170000D01*
X148023809Y-67217619D01*
X148071428Y-67312857D01*
X148071428Y-67455714D01*
X148023809Y-67550952D01*
X147976190Y-67598571D01*
X147880952Y-67646190D01*
X147500000Y-67646190D01*
X148357142Y-67122380D02*
X148928571Y-67122380D01*
X148642857Y-68122380D02*
X148642857Y-67122380D01*
X149785714Y-68122380D02*
X149214285Y-68122380D01*
X149500000Y-68122380D02*
X149500000Y-67122380D01*
X149404761Y-67265238D01*
X149309523Y-67360476D01*
X149214285Y-67408095D01*
%TO.C,FAN1*%
X87329285Y-132198571D02*
X86995952Y-132198571D01*
X86995952Y-132722380D02*
X86995952Y-131722380D01*
X87472142Y-131722380D01*
X87805476Y-132436666D02*
X88281666Y-132436666D01*
X87710238Y-132722380D02*
X88043571Y-131722380D01*
X88376904Y-132722380D01*
X88710238Y-132722380D02*
X88710238Y-131722380D01*
X89281666Y-132722380D01*
X89281666Y-131722380D01*
X90281666Y-132722380D02*
X89710238Y-132722380D01*
X89995952Y-132722380D02*
X89995952Y-131722380D01*
X89900714Y-131865238D01*
X89805476Y-131960476D01*
X89710238Y-132008095D01*
%TD*%
M02*
