%TF.GenerationSoftware,KiCad,Pcbnew,(5.1.10)-1*%
%TF.CreationDate,2022-01-27T16:25:42+08:00*%
%TF.ProjectId,hat,6861742e-6b69-4636-9164-5f7063625858,rev?*%
%TF.SameCoordinates,Original*%
%TF.FileFunction,Legend,Bot*%
%TF.FilePolarity,Positive*%
%FSLAX46Y46*%
G04 Gerber Fmt 4.6, Leading zero omitted, Abs format (unit mm)*
G04 Created by KiCad (PCBNEW (5.1.10)-1) date 2022-01-27 16:25:42*
%MOMM*%
%LPD*%
G01*
G04 APERTURE LIST*
%ADD10C,0.125000*%
%ADD11C,0.120000*%
%ADD12C,0.150000*%
G04 APERTURE END LIST*
D10*
X175321428Y-94378571D02*
X175345238Y-94402380D01*
X175416666Y-94426190D01*
X175464285Y-94426190D01*
X175535714Y-94402380D01*
X175583333Y-94354761D01*
X175607142Y-94307142D01*
X175630952Y-94211904D01*
X175630952Y-94140476D01*
X175607142Y-94045238D01*
X175583333Y-93997619D01*
X175535714Y-93950000D01*
X175464285Y-93926190D01*
X175416666Y-93926190D01*
X175345238Y-93950000D01*
X175321428Y-93973809D01*
X175130952Y-94283333D02*
X174892857Y-94283333D01*
X175178571Y-94426190D02*
X175011904Y-93926190D01*
X174845238Y-94426190D01*
X174392857Y-94426190D02*
X174559523Y-94188095D01*
X174678571Y-94426190D02*
X174678571Y-93926190D01*
X174488095Y-93926190D01*
X174440476Y-93950000D01*
X174416666Y-93973809D01*
X174392857Y-94021428D01*
X174392857Y-94092857D01*
X174416666Y-94140476D01*
X174440476Y-94164285D01*
X174488095Y-94188095D01*
X174678571Y-94188095D01*
X173940476Y-94426190D02*
X174178571Y-94426190D01*
X174178571Y-93926190D01*
X173678571Y-93926190D02*
X173583333Y-93926190D01*
X173535714Y-93950000D01*
X173488095Y-93997619D01*
X173464285Y-94092857D01*
X173464285Y-94259523D01*
X173488095Y-94354761D01*
X173535714Y-94402380D01*
X173583333Y-94426190D01*
X173678571Y-94426190D01*
X173726190Y-94402380D01*
X173773809Y-94354761D01*
X173797619Y-94259523D01*
X173797619Y-94092857D01*
X173773809Y-93997619D01*
X173726190Y-93950000D01*
X173678571Y-93926190D01*
X172583333Y-94378571D02*
X172607142Y-94402380D01*
X172678571Y-94426190D01*
X172726190Y-94426190D01*
X172797619Y-94402380D01*
X172845238Y-94354761D01*
X172869047Y-94307142D01*
X172892857Y-94211904D01*
X172892857Y-94140476D01*
X172869047Y-94045238D01*
X172845238Y-93997619D01*
X172797619Y-93950000D01*
X172726190Y-93926190D01*
X172678571Y-93926190D01*
X172607142Y-93950000D01*
X172583333Y-93973809D01*
X172392857Y-94283333D02*
X172154761Y-94283333D01*
X172440476Y-94426190D02*
X172273809Y-93926190D01*
X172107142Y-94426190D01*
X171654761Y-94426190D02*
X171821428Y-94188095D01*
X171940476Y-94426190D02*
X171940476Y-93926190D01*
X171750000Y-93926190D01*
X171702380Y-93950000D01*
X171678571Y-93973809D01*
X171654761Y-94021428D01*
X171654761Y-94092857D01*
X171678571Y-94140476D01*
X171702380Y-94164285D01*
X171750000Y-94188095D01*
X171940476Y-94188095D01*
X171440476Y-94426190D02*
X171440476Y-93926190D01*
X171202380Y-94426190D02*
X171202380Y-93926190D01*
X170916666Y-94426190D01*
X170916666Y-93926190D01*
X170583333Y-93926190D02*
X170488095Y-93926190D01*
X170440476Y-93950000D01*
X170392857Y-93997619D01*
X170369047Y-94092857D01*
X170369047Y-94259523D01*
X170392857Y-94354761D01*
X170440476Y-94402380D01*
X170488095Y-94426190D01*
X170583333Y-94426190D01*
X170630952Y-94402380D01*
X170678571Y-94354761D01*
X170702380Y-94259523D01*
X170702380Y-94092857D01*
X170678571Y-93997619D01*
X170630952Y-93950000D01*
X170583333Y-93926190D01*
D11*
%TO.C,JP2*%
X123090000Y-76600000D02*
X123090000Y-78600000D01*
X127190000Y-76600000D02*
X123090000Y-76600000D01*
X127190000Y-78600000D02*
X127190000Y-76600000D01*
X123090000Y-78600000D02*
X127190000Y-78600000D01*
%TO.C,JP1*%
X116670000Y-76580000D02*
X116670000Y-78580000D01*
X120770000Y-76580000D02*
X116670000Y-76580000D01*
X120770000Y-78580000D02*
X120770000Y-76580000D01*
X116670000Y-78580000D02*
X120770000Y-78580000D01*
D12*
%TO.C,U3*%
X142240000Y-65110000D02*
X142240000Y-82890000D01*
X142240000Y-82890000D02*
X111760000Y-82890000D01*
X111760000Y-82890000D02*
X111760000Y-77810000D01*
X111760000Y-77810000D02*
X109220000Y-77810000D01*
X109220000Y-77810000D02*
X109220000Y-70190000D01*
X109220000Y-70190000D02*
X111760000Y-70190000D01*
X111760000Y-70190000D02*
X111760000Y-65110000D01*
X111760000Y-65110000D02*
X142240000Y-65110000D01*
D11*
%TO.C,C2*%
X169735000Y-73738748D02*
X169735000Y-74261252D01*
X168265000Y-73738748D02*
X168265000Y-74261252D01*
%TO.C,C1*%
X171735000Y-73738748D02*
X171735000Y-74261252D01*
X170265000Y-73738748D02*
X170265000Y-74261252D01*
%TO.C,R1*%
X163227064Y-75735000D02*
X162772936Y-75735000D01*
X163227064Y-74265000D02*
X162772936Y-74265000D01*
%TO.C,R2*%
X163227064Y-73735000D02*
X162772936Y-73735000D01*
X163227064Y-72265000D02*
X162772936Y-72265000D01*
%TO.C,JP13*%
X129950000Y-70000000D02*
X129950000Y-72000000D01*
X132750000Y-70000000D02*
X129950000Y-70000000D01*
X132750000Y-72000000D02*
X132750000Y-70000000D01*
X129950000Y-72000000D02*
X132750000Y-72000000D01*
%TO.C,JP12*%
X148600000Y-70000000D02*
X148600000Y-72000000D01*
X151400000Y-70000000D02*
X148600000Y-70000000D01*
X151400000Y-72000000D02*
X151400000Y-70000000D01*
X148600000Y-72000000D02*
X151400000Y-72000000D01*
%TO.C,JP9*%
X148600000Y-73000000D02*
X148600000Y-75000000D01*
X151400000Y-73000000D02*
X148600000Y-73000000D01*
X151400000Y-75000000D02*
X151400000Y-73000000D01*
X148600000Y-75000000D02*
X151400000Y-75000000D01*
%TO.C,JP8*%
X104990000Y-80570000D02*
X104990000Y-82570000D01*
X107790000Y-80570000D02*
X104990000Y-80570000D01*
X107790000Y-82570000D02*
X107790000Y-80570000D01*
X104990000Y-82570000D02*
X107790000Y-82570000D01*
%TO.C,JP7*%
X105000000Y-83080000D02*
X105000000Y-85080000D01*
X107800000Y-83080000D02*
X105000000Y-83080000D01*
X107800000Y-85080000D02*
X107800000Y-83080000D01*
X105000000Y-85080000D02*
X107800000Y-85080000D01*
%TO.C,JP6*%
X105000000Y-90600000D02*
X105000000Y-92600000D01*
X107800000Y-90600000D02*
X105000000Y-90600000D01*
X107800000Y-92600000D02*
X107800000Y-90600000D01*
X105000000Y-92600000D02*
X107800000Y-92600000D01*
%TO.C,JP5*%
X105000000Y-78070000D02*
X105000000Y-80070000D01*
X107800000Y-78070000D02*
X105000000Y-78070000D01*
X107800000Y-80070000D02*
X107800000Y-78070000D01*
X105000000Y-80070000D02*
X107800000Y-80070000D01*
%TO.C,JP4*%
X105000000Y-85590000D02*
X105000000Y-87590000D01*
X107800000Y-85590000D02*
X105000000Y-85590000D01*
X107800000Y-87590000D02*
X107800000Y-85590000D01*
X105000000Y-87590000D02*
X107800000Y-87590000D01*
%TO.C,JP3*%
X105000000Y-88090000D02*
X105000000Y-90090000D01*
X107800000Y-88090000D02*
X105000000Y-88090000D01*
X107800000Y-90090000D02*
X107800000Y-88090000D01*
X105000000Y-90090000D02*
X107800000Y-90090000D01*
%TO.C,JP2*%
D12*
X125973333Y-78852380D02*
X125973333Y-79566666D01*
X126020952Y-79709523D01*
X126116190Y-79804761D01*
X126259047Y-79852380D01*
X126354285Y-79852380D01*
X125497142Y-79852380D02*
X125497142Y-78852380D01*
X125116190Y-78852380D01*
X125020952Y-78900000D01*
X124973333Y-78947619D01*
X124925714Y-79042857D01*
X124925714Y-79185714D01*
X124973333Y-79280952D01*
X125020952Y-79328571D01*
X125116190Y-79376190D01*
X125497142Y-79376190D01*
X124544761Y-78947619D02*
X124497142Y-78900000D01*
X124401904Y-78852380D01*
X124163809Y-78852380D01*
X124068571Y-78900000D01*
X124020952Y-78947619D01*
X123973333Y-79042857D01*
X123973333Y-79138095D01*
X124020952Y-79280952D01*
X124592380Y-79852380D01*
X123973333Y-79852380D01*
X128073333Y-77052380D02*
X127454285Y-77052380D01*
X127787619Y-77433333D01*
X127644761Y-77433333D01*
X127549523Y-77480952D01*
X127501904Y-77528571D01*
X127454285Y-77623809D01*
X127454285Y-77861904D01*
X127501904Y-77957142D01*
X127549523Y-78004761D01*
X127644761Y-78052380D01*
X127930476Y-78052380D01*
X128025714Y-78004761D01*
X128073333Y-77957142D01*
X122254285Y-78052380D02*
X122825714Y-78052380D01*
X122540000Y-78052380D02*
X122540000Y-77052380D01*
X122635238Y-77195238D01*
X122730476Y-77290476D01*
X122825714Y-77338095D01*
%TO.C,JP1*%
X119553333Y-78832380D02*
X119553333Y-79546666D01*
X119600952Y-79689523D01*
X119696190Y-79784761D01*
X119839047Y-79832380D01*
X119934285Y-79832380D01*
X119077142Y-79832380D02*
X119077142Y-78832380D01*
X118696190Y-78832380D01*
X118600952Y-78880000D01*
X118553333Y-78927619D01*
X118505714Y-79022857D01*
X118505714Y-79165714D01*
X118553333Y-79260952D01*
X118600952Y-79308571D01*
X118696190Y-79356190D01*
X119077142Y-79356190D01*
X117553333Y-79832380D02*
X118124761Y-79832380D01*
X117839047Y-79832380D02*
X117839047Y-78832380D01*
X117934285Y-78975238D01*
X118029523Y-79070476D01*
X118124761Y-79118095D01*
X121653333Y-77032380D02*
X121034285Y-77032380D01*
X121367619Y-77413333D01*
X121224761Y-77413333D01*
X121129523Y-77460952D01*
X121081904Y-77508571D01*
X121034285Y-77603809D01*
X121034285Y-77841904D01*
X121081904Y-77937142D01*
X121129523Y-77984761D01*
X121224761Y-78032380D01*
X121510476Y-78032380D01*
X121605714Y-77984761D01*
X121653333Y-77937142D01*
X115834285Y-78032380D02*
X116405714Y-78032380D01*
X116120000Y-78032380D02*
X116120000Y-77032380D01*
X116215238Y-77175238D01*
X116310476Y-77270476D01*
X116405714Y-77318095D01*
%TO.C,R1*%
X163166666Y-74402380D02*
X163500000Y-73926190D01*
X163738095Y-74402380D02*
X163738095Y-73402380D01*
X163357142Y-73402380D01*
X163261904Y-73450000D01*
X163214285Y-73497619D01*
X163166666Y-73592857D01*
X163166666Y-73735714D01*
X163214285Y-73830952D01*
X163261904Y-73878571D01*
X163357142Y-73926190D01*
X163738095Y-73926190D01*
X162214285Y-74402380D02*
X162785714Y-74402380D01*
X162500000Y-74402380D02*
X162500000Y-73402380D01*
X162595238Y-73545238D01*
X162690476Y-73640476D01*
X162785714Y-73688095D01*
%TO.C,R2*%
X163166666Y-72402380D02*
X163500000Y-71926190D01*
X163738095Y-72402380D02*
X163738095Y-71402380D01*
X163357142Y-71402380D01*
X163261904Y-71450000D01*
X163214285Y-71497619D01*
X163166666Y-71592857D01*
X163166666Y-71735714D01*
X163214285Y-71830952D01*
X163261904Y-71878571D01*
X163357142Y-71926190D01*
X163738095Y-71926190D01*
X162785714Y-71497619D02*
X162738095Y-71450000D01*
X162642857Y-71402380D01*
X162404761Y-71402380D01*
X162309523Y-71450000D01*
X162261904Y-71497619D01*
X162214285Y-71592857D01*
X162214285Y-71688095D01*
X162261904Y-71830952D01*
X162833333Y-72402380D01*
X162214285Y-72402380D01*
%TO.C,JP13*%
X132659523Y-72252380D02*
X132659523Y-72966666D01*
X132707142Y-73109523D01*
X132802380Y-73204761D01*
X132945238Y-73252380D01*
X133040476Y-73252380D01*
X132183333Y-73252380D02*
X132183333Y-72252380D01*
X131802380Y-72252380D01*
X131707142Y-72300000D01*
X131659523Y-72347619D01*
X131611904Y-72442857D01*
X131611904Y-72585714D01*
X131659523Y-72680952D01*
X131707142Y-72728571D01*
X131802380Y-72776190D01*
X132183333Y-72776190D01*
X130659523Y-73252380D02*
X131230952Y-73252380D01*
X130945238Y-73252380D02*
X130945238Y-72252380D01*
X131040476Y-72395238D01*
X131135714Y-72490476D01*
X131230952Y-72538095D01*
X130326190Y-72252380D02*
X129707142Y-72252380D01*
X130040476Y-72633333D01*
X129897619Y-72633333D01*
X129802380Y-72680952D01*
X129754761Y-72728571D01*
X129707142Y-72823809D01*
X129707142Y-73061904D01*
X129754761Y-73157142D01*
X129802380Y-73204761D01*
X129897619Y-73252380D01*
X130183333Y-73252380D01*
X130278571Y-73204761D01*
X130326190Y-73157142D01*
%TO.C,JP12*%
X151309523Y-72252380D02*
X151309523Y-72966666D01*
X151357142Y-73109523D01*
X151452380Y-73204761D01*
X151595238Y-73252380D01*
X151690476Y-73252380D01*
X150833333Y-73252380D02*
X150833333Y-72252380D01*
X150452380Y-72252380D01*
X150357142Y-72300000D01*
X150309523Y-72347619D01*
X150261904Y-72442857D01*
X150261904Y-72585714D01*
X150309523Y-72680952D01*
X150357142Y-72728571D01*
X150452380Y-72776190D01*
X150833333Y-72776190D01*
X149309523Y-73252380D02*
X149880952Y-73252380D01*
X149595238Y-73252380D02*
X149595238Y-72252380D01*
X149690476Y-72395238D01*
X149785714Y-72490476D01*
X149880952Y-72538095D01*
X148928571Y-72347619D02*
X148880952Y-72300000D01*
X148785714Y-72252380D01*
X148547619Y-72252380D01*
X148452380Y-72300000D01*
X148404761Y-72347619D01*
X148357142Y-72442857D01*
X148357142Y-72538095D01*
X148404761Y-72680952D01*
X148976190Y-73252380D01*
X148357142Y-73252380D01*
%TO.C,JP9*%
X150833333Y-75252380D02*
X150833333Y-75966666D01*
X150880952Y-76109523D01*
X150976190Y-76204761D01*
X151119047Y-76252380D01*
X151214285Y-76252380D01*
X150357142Y-76252380D02*
X150357142Y-75252380D01*
X149976190Y-75252380D01*
X149880952Y-75300000D01*
X149833333Y-75347619D01*
X149785714Y-75442857D01*
X149785714Y-75585714D01*
X149833333Y-75680952D01*
X149880952Y-75728571D01*
X149976190Y-75776190D01*
X150357142Y-75776190D01*
X149309523Y-76252380D02*
X149119047Y-76252380D01*
X149023809Y-76204761D01*
X148976190Y-76157142D01*
X148880952Y-76014285D01*
X148833333Y-75823809D01*
X148833333Y-75442857D01*
X148880952Y-75347619D01*
X148928571Y-75300000D01*
X149023809Y-75252380D01*
X149214285Y-75252380D01*
X149309523Y-75300000D01*
X149357142Y-75347619D01*
X149404761Y-75442857D01*
X149404761Y-75680952D01*
X149357142Y-75776190D01*
X149309523Y-75823809D01*
X149214285Y-75871428D01*
X149023809Y-75871428D01*
X148928571Y-75823809D01*
X148880952Y-75776190D01*
X148833333Y-75680952D01*
%TO.C,JP8*%
X107223333Y-82822380D02*
X107223333Y-83536666D01*
X107270952Y-83679523D01*
X107366190Y-83774761D01*
X107509047Y-83822380D01*
X107604285Y-83822380D01*
X106747142Y-83822380D02*
X106747142Y-82822380D01*
X106366190Y-82822380D01*
X106270952Y-82870000D01*
X106223333Y-82917619D01*
X106175714Y-83012857D01*
X106175714Y-83155714D01*
X106223333Y-83250952D01*
X106270952Y-83298571D01*
X106366190Y-83346190D01*
X106747142Y-83346190D01*
X105604285Y-83250952D02*
X105699523Y-83203333D01*
X105747142Y-83155714D01*
X105794761Y-83060476D01*
X105794761Y-83012857D01*
X105747142Y-82917619D01*
X105699523Y-82870000D01*
X105604285Y-82822380D01*
X105413809Y-82822380D01*
X105318571Y-82870000D01*
X105270952Y-82917619D01*
X105223333Y-83012857D01*
X105223333Y-83060476D01*
X105270952Y-83155714D01*
X105318571Y-83203333D01*
X105413809Y-83250952D01*
X105604285Y-83250952D01*
X105699523Y-83298571D01*
X105747142Y-83346190D01*
X105794761Y-83441428D01*
X105794761Y-83631904D01*
X105747142Y-83727142D01*
X105699523Y-83774761D01*
X105604285Y-83822380D01*
X105413809Y-83822380D01*
X105318571Y-83774761D01*
X105270952Y-83727142D01*
X105223333Y-83631904D01*
X105223333Y-83441428D01*
X105270952Y-83346190D01*
X105318571Y-83298571D01*
X105413809Y-83250952D01*
%TO.C,JP7*%
X107233333Y-85332380D02*
X107233333Y-86046666D01*
X107280952Y-86189523D01*
X107376190Y-86284761D01*
X107519047Y-86332380D01*
X107614285Y-86332380D01*
X106757142Y-86332380D02*
X106757142Y-85332380D01*
X106376190Y-85332380D01*
X106280952Y-85380000D01*
X106233333Y-85427619D01*
X106185714Y-85522857D01*
X106185714Y-85665714D01*
X106233333Y-85760952D01*
X106280952Y-85808571D01*
X106376190Y-85856190D01*
X106757142Y-85856190D01*
X105852380Y-85332380D02*
X105185714Y-85332380D01*
X105614285Y-86332380D01*
%TO.C,JP6*%
X107233333Y-92852380D02*
X107233333Y-93566666D01*
X107280952Y-93709523D01*
X107376190Y-93804761D01*
X107519047Y-93852380D01*
X107614285Y-93852380D01*
X106757142Y-93852380D02*
X106757142Y-92852380D01*
X106376190Y-92852380D01*
X106280952Y-92900000D01*
X106233333Y-92947619D01*
X106185714Y-93042857D01*
X106185714Y-93185714D01*
X106233333Y-93280952D01*
X106280952Y-93328571D01*
X106376190Y-93376190D01*
X106757142Y-93376190D01*
X105328571Y-92852380D02*
X105519047Y-92852380D01*
X105614285Y-92900000D01*
X105661904Y-92947619D01*
X105757142Y-93090476D01*
X105804761Y-93280952D01*
X105804761Y-93661904D01*
X105757142Y-93757142D01*
X105709523Y-93804761D01*
X105614285Y-93852380D01*
X105423809Y-93852380D01*
X105328571Y-93804761D01*
X105280952Y-93757142D01*
X105233333Y-93661904D01*
X105233333Y-93423809D01*
X105280952Y-93328571D01*
X105328571Y-93280952D01*
X105423809Y-93233333D01*
X105614285Y-93233333D01*
X105709523Y-93280952D01*
X105757142Y-93328571D01*
X105804761Y-93423809D01*
%TO.C,JP5*%
X107233333Y-80322380D02*
X107233333Y-81036666D01*
X107280952Y-81179523D01*
X107376190Y-81274761D01*
X107519047Y-81322380D01*
X107614285Y-81322380D01*
X106757142Y-81322380D02*
X106757142Y-80322380D01*
X106376190Y-80322380D01*
X106280952Y-80370000D01*
X106233333Y-80417619D01*
X106185714Y-80512857D01*
X106185714Y-80655714D01*
X106233333Y-80750952D01*
X106280952Y-80798571D01*
X106376190Y-80846190D01*
X106757142Y-80846190D01*
X105280952Y-80322380D02*
X105757142Y-80322380D01*
X105804761Y-80798571D01*
X105757142Y-80750952D01*
X105661904Y-80703333D01*
X105423809Y-80703333D01*
X105328571Y-80750952D01*
X105280952Y-80798571D01*
X105233333Y-80893809D01*
X105233333Y-81131904D01*
X105280952Y-81227142D01*
X105328571Y-81274761D01*
X105423809Y-81322380D01*
X105661904Y-81322380D01*
X105757142Y-81274761D01*
X105804761Y-81227142D01*
%TO.C,JP4*%
X107233333Y-87842380D02*
X107233333Y-88556666D01*
X107280952Y-88699523D01*
X107376190Y-88794761D01*
X107519047Y-88842380D01*
X107614285Y-88842380D01*
X106757142Y-88842380D02*
X106757142Y-87842380D01*
X106376190Y-87842380D01*
X106280952Y-87890000D01*
X106233333Y-87937619D01*
X106185714Y-88032857D01*
X106185714Y-88175714D01*
X106233333Y-88270952D01*
X106280952Y-88318571D01*
X106376190Y-88366190D01*
X106757142Y-88366190D01*
X105328571Y-88175714D02*
X105328571Y-88842380D01*
X105566666Y-87794761D02*
X105804761Y-88509047D01*
X105185714Y-88509047D01*
%TO.C,JP3*%
X107233333Y-90342380D02*
X107233333Y-91056666D01*
X107280952Y-91199523D01*
X107376190Y-91294761D01*
X107519047Y-91342380D01*
X107614285Y-91342380D01*
X106757142Y-91342380D02*
X106757142Y-90342380D01*
X106376190Y-90342380D01*
X106280952Y-90390000D01*
X106233333Y-90437619D01*
X106185714Y-90532857D01*
X106185714Y-90675714D01*
X106233333Y-90770952D01*
X106280952Y-90818571D01*
X106376190Y-90866190D01*
X106757142Y-90866190D01*
X105852380Y-90342380D02*
X105233333Y-90342380D01*
X105566666Y-90723333D01*
X105423809Y-90723333D01*
X105328571Y-90770952D01*
X105280952Y-90818571D01*
X105233333Y-90913809D01*
X105233333Y-91151904D01*
X105280952Y-91247142D01*
X105328571Y-91294761D01*
X105423809Y-91342380D01*
X105709523Y-91342380D01*
X105804761Y-91294761D01*
X105852380Y-91247142D01*
%TD*%
M02*
