%TF.GenerationSoftware,KiCad,Pcbnew,(5.1.10)-1*%
%TF.CreationDate,2022-01-27T16:25:42+08:00*%
%TF.ProjectId,hat,6861742e-6b69-4636-9164-5f7063625858,rev?*%
%TF.SameCoordinates,Original*%
%TF.FileFunction,Soldermask,Bot*%
%TF.FilePolarity,Negative*%
%FSLAX46Y46*%
G04 Gerber Fmt 4.6, Leading zero omitted, Abs format (unit mm)*
G04 Created by KiCad (PCBNEW (5.1.10)-1) date 2022-01-27 16:25:42*
%MOMM*%
%LPD*%
G01*
G04 APERTURE LIST*
%ADD10R,1.000000X1.500000*%
%ADD11C,1.600000*%
%ADD12R,1.600000X1.600000*%
%ADD13C,6.000000*%
%ADD14O,1.700000X1.700000*%
%ADD15R,1.700000X1.700000*%
G04 APERTURE END LIST*
D10*
%TO.C,JP2*%
X123840000Y-77600000D03*
X126440000Y-77600000D03*
X125140000Y-77600000D03*
%TD*%
%TO.C,JP1*%
X117420000Y-77580000D03*
X120020000Y-77580000D03*
X118720000Y-77580000D03*
%TD*%
D11*
%TO.C,U3*%
X113030000Y-66380000D03*
X115570000Y-66380000D03*
X118110000Y-66380000D03*
X120650000Y-66380000D03*
X123190000Y-66380000D03*
X125730000Y-66380000D03*
X128270000Y-66380000D03*
X130810000Y-66380000D03*
X133350000Y-66380000D03*
X135890000Y-66380000D03*
X138430000Y-66380000D03*
X140970000Y-66380000D03*
X140970000Y-81620000D03*
X138430000Y-81620000D03*
X135890000Y-81620000D03*
X133350000Y-81620000D03*
X130810000Y-81620000D03*
X128270000Y-81620000D03*
X125730000Y-81620000D03*
X123190000Y-81620000D03*
X120650000Y-81620000D03*
X118110000Y-81620000D03*
X115570000Y-81620000D03*
D12*
X113030000Y-81620000D03*
%TD*%
%TO.C,C2*%
G36*
G01*
X168525000Y-74450000D02*
X169475000Y-74450000D01*
G75*
G02*
X169725000Y-74700000I0J-250000D01*
G01*
X169725000Y-75375000D01*
G75*
G02*
X169475000Y-75625000I-250000J0D01*
G01*
X168525000Y-75625000D01*
G75*
G02*
X168275000Y-75375000I0J250000D01*
G01*
X168275000Y-74700000D01*
G75*
G02*
X168525000Y-74450000I250000J0D01*
G01*
G37*
G36*
G01*
X168525000Y-72375000D02*
X169475000Y-72375000D01*
G75*
G02*
X169725000Y-72625000I0J-250000D01*
G01*
X169725000Y-73300000D01*
G75*
G02*
X169475000Y-73550000I-250000J0D01*
G01*
X168525000Y-73550000D01*
G75*
G02*
X168275000Y-73300000I0J250000D01*
G01*
X168275000Y-72625000D01*
G75*
G02*
X168525000Y-72375000I250000J0D01*
G01*
G37*
%TD*%
%TO.C,C1*%
G36*
G01*
X170525000Y-74450000D02*
X171475000Y-74450000D01*
G75*
G02*
X171725000Y-74700000I0J-250000D01*
G01*
X171725000Y-75375000D01*
G75*
G02*
X171475000Y-75625000I-250000J0D01*
G01*
X170525000Y-75625000D01*
G75*
G02*
X170275000Y-75375000I0J250000D01*
G01*
X170275000Y-74700000D01*
G75*
G02*
X170525000Y-74450000I250000J0D01*
G01*
G37*
G36*
G01*
X170525000Y-72375000D02*
X171475000Y-72375000D01*
G75*
G02*
X171725000Y-72625000I0J-250000D01*
G01*
X171725000Y-73300000D01*
G75*
G02*
X171475000Y-73550000I-250000J0D01*
G01*
X170525000Y-73550000D01*
G75*
G02*
X170275000Y-73300000I0J250000D01*
G01*
X170275000Y-72625000D01*
G75*
G02*
X170525000Y-72375000I250000J0D01*
G01*
G37*
%TD*%
%TO.C,R1*%
G36*
G01*
X162600000Y-74549999D02*
X162600000Y-75450001D01*
G75*
G02*
X162350001Y-75700000I-249999J0D01*
G01*
X161649999Y-75700000D01*
G75*
G02*
X161400000Y-75450001I0J249999D01*
G01*
X161400000Y-74549999D01*
G75*
G02*
X161649999Y-74300000I249999J0D01*
G01*
X162350001Y-74300000D01*
G75*
G02*
X162600000Y-74549999I0J-249999D01*
G01*
G37*
G36*
G01*
X164600000Y-74549999D02*
X164600000Y-75450001D01*
G75*
G02*
X164350001Y-75700000I-249999J0D01*
G01*
X163649999Y-75700000D01*
G75*
G02*
X163400000Y-75450001I0J249999D01*
G01*
X163400000Y-74549999D01*
G75*
G02*
X163649999Y-74300000I249999J0D01*
G01*
X164350001Y-74300000D01*
G75*
G02*
X164600000Y-74549999I0J-249999D01*
G01*
G37*
%TD*%
%TO.C,R2*%
G36*
G01*
X162600000Y-72549999D02*
X162600000Y-73450001D01*
G75*
G02*
X162350001Y-73700000I-249999J0D01*
G01*
X161649999Y-73700000D01*
G75*
G02*
X161400000Y-73450001I0J249999D01*
G01*
X161400000Y-72549999D01*
G75*
G02*
X161649999Y-72300000I249999J0D01*
G01*
X162350001Y-72300000D01*
G75*
G02*
X162600000Y-72549999I0J-249999D01*
G01*
G37*
G36*
G01*
X164600000Y-72549999D02*
X164600000Y-73450001D01*
G75*
G02*
X164350001Y-73700000I-249999J0D01*
G01*
X163649999Y-73700000D01*
G75*
G02*
X163400000Y-73450001I0J249999D01*
G01*
X163400000Y-72549999D01*
G75*
G02*
X163649999Y-72300000I249999J0D01*
G01*
X164350001Y-72300000D01*
G75*
G02*
X164600000Y-72549999I0J-249999D01*
G01*
G37*
%TD*%
D13*
%TO.C,H3*%
X186000000Y-77000000D03*
%TD*%
D14*
%TO.C,SPI_PORT1*%
X140620000Y-62000000D03*
X138080000Y-62000000D03*
X135540000Y-62000000D03*
X133000000Y-62000000D03*
X130460000Y-62000000D03*
D15*
X127920000Y-62000000D03*
%TD*%
D14*
%TO.C,SDA_PU1*%
X136550000Y-88150000D03*
X134010000Y-88150000D03*
D15*
X131470000Y-88150000D03*
%TD*%
D14*
%TO.C,SCL_PU1*%
X136550000Y-92800000D03*
X134010000Y-92800000D03*
D15*
X131470000Y-92800000D03*
%TD*%
D10*
%TO.C,JP13*%
X130700000Y-71000000D03*
X132000000Y-71000000D03*
%TD*%
%TO.C,JP12*%
X150650000Y-71000000D03*
X149350000Y-71000000D03*
%TD*%
%TO.C,JP9*%
X150650000Y-74000000D03*
X149350000Y-74000000D03*
%TD*%
%TO.C,JP8*%
X105740000Y-81570000D03*
X107040000Y-81570000D03*
%TD*%
%TO.C,JP7*%
X105750000Y-84080000D03*
X107050000Y-84080000D03*
%TD*%
%TO.C,JP6*%
X105750000Y-91600000D03*
X107050000Y-91600000D03*
%TD*%
%TO.C,JP5*%
X105750000Y-79070000D03*
X107050000Y-79070000D03*
%TD*%
%TO.C,JP4*%
X105750000Y-86590000D03*
X107050000Y-86590000D03*
%TD*%
%TO.C,JP3*%
X105750000Y-89090000D03*
X107050000Y-89090000D03*
%TD*%
D14*
%TO.C,J6*%
X154000000Y-66460000D03*
X154000000Y-69000000D03*
X154000000Y-71540000D03*
X154000000Y-74080000D03*
D15*
X154000000Y-76620000D03*
%TD*%
D14*
%TO.C,J5*%
X179200000Y-72560000D03*
X179200000Y-70020000D03*
X179200000Y-67480000D03*
X179200000Y-64940000D03*
D15*
X179200000Y-62400000D03*
%TD*%
D14*
%TO.C,J4*%
X116920000Y-93000000D03*
X116920000Y-90460000D03*
X119460000Y-93000000D03*
X119460000Y-90460000D03*
X122000000Y-93000000D03*
D15*
X122000000Y-90460000D03*
%TD*%
D14*
%TO.C,J3*%
X121000000Y-62000000D03*
D15*
X118460000Y-62000000D03*
%TD*%
%TO.C,J2*%
X175200000Y-83600000D03*
%TD*%
D14*
%TO.C,J1*%
X98460000Y-81740000D03*
X101000000Y-81740000D03*
X98460000Y-84280000D03*
X101000000Y-84280000D03*
X98460000Y-86820000D03*
X101000000Y-86820000D03*
X98460000Y-89360000D03*
X101000000Y-89360000D03*
X98460000Y-91900000D03*
X101000000Y-91900000D03*
X98460000Y-94440000D03*
X101000000Y-94440000D03*
X98460000Y-96980000D03*
X101000000Y-96980000D03*
X98460000Y-99520000D03*
X101000000Y-99520000D03*
X98460000Y-102060000D03*
X101000000Y-102060000D03*
X98460000Y-104600000D03*
X101000000Y-104600000D03*
X98460000Y-107140000D03*
X101000000Y-107140000D03*
X98460000Y-109680000D03*
X101000000Y-109680000D03*
X98460000Y-112220000D03*
X101000000Y-112220000D03*
X98460000Y-114760000D03*
X101000000Y-114760000D03*
X98460000Y-117300000D03*
X101000000Y-117300000D03*
X98460000Y-119840000D03*
X101000000Y-119840000D03*
X98460000Y-122380000D03*
X101000000Y-122380000D03*
X98460000Y-124920000D03*
X101000000Y-124920000D03*
X98460000Y-127460000D03*
X101000000Y-127460000D03*
X98460000Y-130000000D03*
D15*
X101000000Y-130000000D03*
%TD*%
D14*
%TO.C,I2C_PORT1*%
X146000000Y-77620000D03*
X146000000Y-75080000D03*
X146000000Y-72540000D03*
D15*
X146000000Y-70000000D03*
%TD*%
D13*
%TO.C,H2*%
X100000000Y-77000000D03*
%TD*%
%TO.C,H1*%
X100000000Y-135000000D03*
%TD*%
D14*
%TO.C,FAN1*%
X93000000Y-127460000D03*
D15*
X93000000Y-130000000D03*
%TD*%
M02*
