%TF.GenerationSoftware,KiCad,Pcbnew,(5.1.10)-1*%
%TF.CreationDate,2022-01-27T16:25:42+08:00*%
%TF.ProjectId,hat,6861742e-6b69-4636-9164-5f7063625858,rev?*%
%TF.SameCoordinates,Original*%
%TF.FileFunction,Paste,Bot*%
%TF.FilePolarity,Positive*%
%FSLAX46Y46*%
G04 Gerber Fmt 4.6, Leading zero omitted, Abs format (unit mm)*
G04 Created by KiCad (PCBNEW (5.1.10)-1) date 2022-01-27 16:25:42*
%MOMM*%
%LPD*%
G01*
G04 APERTURE LIST*
G04 APERTURE END LIST*
%TO.C,C2*%
G36*
G01*
X168525000Y-74450000D02*
X169475000Y-74450000D01*
G75*
G02*
X169725000Y-74700000I0J-250000D01*
G01*
X169725000Y-75375000D01*
G75*
G02*
X169475000Y-75625000I-250000J0D01*
G01*
X168525000Y-75625000D01*
G75*
G02*
X168275000Y-75375000I0J250000D01*
G01*
X168275000Y-74700000D01*
G75*
G02*
X168525000Y-74450000I250000J0D01*
G01*
G37*
G36*
G01*
X168525000Y-72375000D02*
X169475000Y-72375000D01*
G75*
G02*
X169725000Y-72625000I0J-250000D01*
G01*
X169725000Y-73300000D01*
G75*
G02*
X169475000Y-73550000I-250000J0D01*
G01*
X168525000Y-73550000D01*
G75*
G02*
X168275000Y-73300000I0J250000D01*
G01*
X168275000Y-72625000D01*
G75*
G02*
X168525000Y-72375000I250000J0D01*
G01*
G37*
%TD*%
%TO.C,C1*%
G36*
G01*
X170525000Y-74450000D02*
X171475000Y-74450000D01*
G75*
G02*
X171725000Y-74700000I0J-250000D01*
G01*
X171725000Y-75375000D01*
G75*
G02*
X171475000Y-75625000I-250000J0D01*
G01*
X170525000Y-75625000D01*
G75*
G02*
X170275000Y-75375000I0J250000D01*
G01*
X170275000Y-74700000D01*
G75*
G02*
X170525000Y-74450000I250000J0D01*
G01*
G37*
G36*
G01*
X170525000Y-72375000D02*
X171475000Y-72375000D01*
G75*
G02*
X171725000Y-72625000I0J-250000D01*
G01*
X171725000Y-73300000D01*
G75*
G02*
X171475000Y-73550000I-250000J0D01*
G01*
X170525000Y-73550000D01*
G75*
G02*
X170275000Y-73300000I0J250000D01*
G01*
X170275000Y-72625000D01*
G75*
G02*
X170525000Y-72375000I250000J0D01*
G01*
G37*
%TD*%
%TO.C,R1*%
G36*
G01*
X162600000Y-74549999D02*
X162600000Y-75450001D01*
G75*
G02*
X162350001Y-75700000I-249999J0D01*
G01*
X161649999Y-75700000D01*
G75*
G02*
X161400000Y-75450001I0J249999D01*
G01*
X161400000Y-74549999D01*
G75*
G02*
X161649999Y-74300000I249999J0D01*
G01*
X162350001Y-74300000D01*
G75*
G02*
X162600000Y-74549999I0J-249999D01*
G01*
G37*
G36*
G01*
X164600000Y-74549999D02*
X164600000Y-75450001D01*
G75*
G02*
X164350001Y-75700000I-249999J0D01*
G01*
X163649999Y-75700000D01*
G75*
G02*
X163400000Y-75450001I0J249999D01*
G01*
X163400000Y-74549999D01*
G75*
G02*
X163649999Y-74300000I249999J0D01*
G01*
X164350001Y-74300000D01*
G75*
G02*
X164600000Y-74549999I0J-249999D01*
G01*
G37*
%TD*%
%TO.C,R2*%
G36*
G01*
X162600000Y-72549999D02*
X162600000Y-73450001D01*
G75*
G02*
X162350001Y-73700000I-249999J0D01*
G01*
X161649999Y-73700000D01*
G75*
G02*
X161400000Y-73450001I0J249999D01*
G01*
X161400000Y-72549999D01*
G75*
G02*
X161649999Y-72300000I249999J0D01*
G01*
X162350001Y-72300000D01*
G75*
G02*
X162600000Y-72549999I0J-249999D01*
G01*
G37*
G36*
G01*
X164600000Y-72549999D02*
X164600000Y-73450001D01*
G75*
G02*
X164350001Y-73700000I-249999J0D01*
G01*
X163649999Y-73700000D01*
G75*
G02*
X163400000Y-73450001I0J249999D01*
G01*
X163400000Y-72549999D01*
G75*
G02*
X163649999Y-72300000I249999J0D01*
G01*
X164350001Y-72300000D01*
G75*
G02*
X164600000Y-72549999I0J-249999D01*
G01*
G37*
%TD*%
M02*
