%TF.GenerationSoftware,KiCad,Pcbnew,(5.1.10)-1*%
%TF.CreationDate,2022-01-27T16:25:42+08:00*%
%TF.ProjectId,hat,6861742e-6b69-4636-9164-5f7063625858,rev?*%
%TF.SameCoordinates,Original*%
%TF.FileFunction,Copper,L1,Top*%
%TF.FilePolarity,Positive*%
%FSLAX46Y46*%
G04 Gerber Fmt 4.6, Leading zero omitted, Abs format (unit mm)*
G04 Created by KiCad (PCBNEW (5.1.10)-1) date 2022-01-27 16:25:42*
%MOMM*%
%LPD*%
G01*
G04 APERTURE LIST*
%TA.AperFunction,EtchedComponent*%
%ADD10C,0.100000*%
%TD*%
%TA.AperFunction,SMDPad,CuDef*%
%ADD11R,1.524000X2.000000*%
%TD*%
%TA.AperFunction,SMDPad,CuDef*%
%ADD12R,3.000000X1.524000*%
%TD*%
%TA.AperFunction,ConnectorPad*%
%ADD13R,3.000000X1.524000*%
%TD*%
%TA.AperFunction,ComponentPad*%
%ADD14C,1.600000*%
%TD*%
%TA.AperFunction,ComponentPad*%
%ADD15R,1.600000X1.600000*%
%TD*%
%TA.AperFunction,ComponentPad*%
%ADD16C,6.000000*%
%TD*%
%TA.AperFunction,SMDPad,CuDef*%
%ADD17R,1.260000X0.650000*%
%TD*%
%TA.AperFunction,SMDPad,CuDef*%
%ADD18R,2.200000X1.550000*%
%TD*%
%TA.AperFunction,SMDPad,CuDef*%
%ADD19R,1.500000X1.000000*%
%TD*%
%TA.AperFunction,ComponentPad*%
%ADD20O,1.700000X1.700000*%
%TD*%
%TA.AperFunction,ComponentPad*%
%ADD21R,1.700000X1.700000*%
%TD*%
%TA.AperFunction,SMDPad,CuDef*%
%ADD22R,1.000000X1.500000*%
%TD*%
%TA.AperFunction,ViaPad*%
%ADD23C,0.800000*%
%TD*%
%TA.AperFunction,Conductor*%
%ADD24C,0.250000*%
%TD*%
%TA.AperFunction,Conductor*%
%ADD25C,0.254000*%
%TD*%
%TA.AperFunction,Conductor*%
%ADD26C,0.100000*%
%TD*%
G04 APERTURE END LIST*
D10*
%TO.C,JP11*%
G36*
X137150000Y-71970000D02*
G01*
X137650000Y-71970000D01*
X137650000Y-72370000D01*
X137150000Y-72370000D01*
X137150000Y-71970000D01*
G37*
G36*
X137150000Y-71170000D02*
G01*
X137650000Y-71170000D01*
X137650000Y-71570000D01*
X137150000Y-71570000D01*
X137150000Y-71170000D01*
G37*
%TO.C,JP10*%
G36*
X137100000Y-74200000D02*
G01*
X137600000Y-74200000D01*
X137600000Y-74600000D01*
X137100000Y-74600000D01*
X137100000Y-74200000D01*
G37*
G36*
X137100000Y-73400000D02*
G01*
X137600000Y-73400000D01*
X137600000Y-73800000D01*
X137100000Y-73800000D01*
X137100000Y-73400000D01*
G37*
%TD*%
D11*
%TO.P,SW1,1*%
%TO.N,Net-(SW1-Pad1)*%
X103000000Y-69000000D03*
%TO.P,SW1,2*%
%TO.N,GND*%
X99000000Y-69000000D03*
X99000000Y-65000000D03*
%TO.P,SW1,1*%
%TO.N,Net-(SW1-Pad1)*%
X103000000Y-65000000D03*
%TD*%
D12*
%TO.P,U1,9*%
%TO.N,Net-(J2-Pad1)*%
X175000000Y-79000000D03*
%TO.P,U1,10*%
%TO.N,GND*%
X175000000Y-77000000D03*
%TO.P,U1,11*%
%TO.N,/DIO3*%
X175000000Y-75000000D03*
%TO.P,U1,12*%
%TO.N,/DIO4*%
X175000000Y-73000000D03*
%TO.P,U1,13*%
%TO.N,3.3V*%
X175000000Y-71000000D03*
%TO.P,U1,14*%
%TO.N,/DIO0*%
X175000000Y-69000000D03*
%TO.P,U1,15*%
%TO.N,/DIO1*%
X175000000Y-67000000D03*
%TO.P,U1,16*%
%TO.N,/DIO2*%
X175000000Y-65000000D03*
%TO.P,U1,8*%
%TO.N,GND*%
X159000000Y-79000000D03*
%TO.P,U1,7*%
%TO.N,/DIO5*%
X159000000Y-77000000D03*
D13*
%TO.P,U1,6*%
%TO.N,/RFM_RST*%
X159000000Y-75000000D03*
D12*
%TO.P,U1,5*%
%TO.N,/RFM_CS*%
X159000000Y-73000000D03*
%TO.P,U1,4*%
%TO.N,/RFM_SCK*%
X159000000Y-71000000D03*
%TO.P,U1,3*%
%TO.N,/RFM_MOSI*%
X159000000Y-69000000D03*
%TO.P,U1,2*%
%TO.N,/RFM_MISO*%
X159000000Y-67000000D03*
%TO.P,U1,1*%
%TO.N,GND*%
X159000000Y-65000000D03*
%TD*%
D14*
%TO.P,U3,24*%
%TO.N,Net-(U3-Pad24)*%
X113030000Y-66380000D03*
%TO.P,U3,23*%
%TO.N,GND*%
X115570000Y-66380000D03*
%TO.P,U3,22*%
%TO.N,Net-(SW1-Pad1)*%
X118110000Y-66380000D03*
%TO.P,U3,21*%
%TO.N,/MCU_3.3V*%
X120650000Y-66380000D03*
%TO.P,U3,20*%
%TO.N,Net-(U3-Pad20)*%
X123190000Y-66380000D03*
%TO.P,U3,19*%
%TO.N,Net-(U3-Pad19)*%
X125730000Y-66380000D03*
%TO.P,U3,18*%
%TO.N,/OPT_RST*%
X128270000Y-66380000D03*
%TO.P,U3,17*%
%TO.N,/MCU_CS*%
X130810000Y-66380000D03*
%TO.P,U3,16*%
%TO.N,/MCU_SCK*%
X133350000Y-66380000D03*
%TO.P,U3,15*%
%TO.N,/MCU_MISO*%
X135890000Y-66380000D03*
%TO.P,U3,14*%
%TO.N,/MCU_MOSI*%
X138430000Y-66380000D03*
%TO.P,U3,13*%
%TO.N,Net-(U3-Pad13)*%
X140970000Y-66380000D03*
%TO.P,U3,12*%
%TO.N,Net-(U3-Pad12)*%
X140970000Y-81620000D03*
%TO.P,U3,11*%
%TO.N,Net-(U3-Pad11)*%
X138430000Y-81620000D03*
%TO.P,U3,10*%
%TO.N,Net-(U3-Pad10)*%
X135890000Y-81620000D03*
%TO.P,U3,9*%
%TO.N,Net-(U3-Pad9)*%
X133350000Y-81620000D03*
%TO.P,U3,8*%
%TO.N,Net-(U3-Pad8)*%
X130810000Y-81620000D03*
%TO.P,U3,7*%
%TO.N,Net-(U3-Pad7)*%
X128270000Y-81620000D03*
%TO.P,U3,6*%
%TO.N,/MCU_SCL*%
X125730000Y-81620000D03*
%TO.P,U3,5*%
%TO.N,/MCU_SDA*%
X123190000Y-81620000D03*
%TO.P,U3,4*%
%TO.N,GND*%
X120650000Y-81620000D03*
%TO.P,U3,3*%
X118110000Y-81620000D03*
%TO.P,U3,2*%
%TO.N,Net-(U3-Pad2)*%
X115570000Y-81620000D03*
D15*
%TO.P,U3,1*%
%TO.N,Net-(U3-Pad1)*%
X113030000Y-81620000D03*
%TD*%
%TO.P,C4,2*%
%TO.N,GND*%
%TA.AperFunction,SMDPad,CuDef*%
G36*
G01*
X111725000Y-86350000D02*
X112675000Y-86350000D01*
G75*
G02*
X112925000Y-86600000I0J-250000D01*
G01*
X112925000Y-87275000D01*
G75*
G02*
X112675000Y-87525000I-250000J0D01*
G01*
X111725000Y-87525000D01*
G75*
G02*
X111475000Y-87275000I0J250000D01*
G01*
X111475000Y-86600000D01*
G75*
G02*
X111725000Y-86350000I250000J0D01*
G01*
G37*
%TD.AperFunction*%
%TO.P,C4,1*%
%TO.N,3.3V*%
%TA.AperFunction,SMDPad,CuDef*%
G36*
G01*
X111725000Y-84275000D02*
X112675000Y-84275000D01*
G75*
G02*
X112925000Y-84525000I0J-250000D01*
G01*
X112925000Y-85200000D01*
G75*
G02*
X112675000Y-85450000I-250000J0D01*
G01*
X111725000Y-85450000D01*
G75*
G02*
X111475000Y-85200000I0J250000D01*
G01*
X111475000Y-84525000D01*
G75*
G02*
X111725000Y-84275000I250000J0D01*
G01*
G37*
%TD.AperFunction*%
%TD*%
%TO.P,C3,2*%
%TO.N,GND*%
%TA.AperFunction,SMDPad,CuDef*%
G36*
G01*
X105875000Y-85387500D02*
X104925000Y-85387500D01*
G75*
G02*
X104675000Y-85137500I0J250000D01*
G01*
X104675000Y-84462500D01*
G75*
G02*
X104925000Y-84212500I250000J0D01*
G01*
X105875000Y-84212500D01*
G75*
G02*
X106125000Y-84462500I0J-250000D01*
G01*
X106125000Y-85137500D01*
G75*
G02*
X105875000Y-85387500I-250000J0D01*
G01*
G37*
%TD.AperFunction*%
%TO.P,C3,1*%
%TO.N,5V*%
%TA.AperFunction,SMDPad,CuDef*%
G36*
G01*
X105875000Y-87462500D02*
X104925000Y-87462500D01*
G75*
G02*
X104675000Y-87212500I0J250000D01*
G01*
X104675000Y-86537500D01*
G75*
G02*
X104925000Y-86287500I250000J0D01*
G01*
X105875000Y-86287500D01*
G75*
G02*
X106125000Y-86537500I0J-250000D01*
G01*
X106125000Y-87212500D01*
G75*
G02*
X105875000Y-87462500I-250000J0D01*
G01*
G37*
%TD.AperFunction*%
%TD*%
%TO.P,R3,2*%
%TO.N,Net-(R3-Pad2)*%
%TA.AperFunction,SMDPad,CuDef*%
G36*
G01*
X127400000Y-88450001D02*
X127400000Y-87549999D01*
G75*
G02*
X127649999Y-87300000I249999J0D01*
G01*
X128350001Y-87300000D01*
G75*
G02*
X128600000Y-87549999I0J-249999D01*
G01*
X128600000Y-88450001D01*
G75*
G02*
X128350001Y-88700000I-249999J0D01*
G01*
X127649999Y-88700000D01*
G75*
G02*
X127400000Y-88450001I0J249999D01*
G01*
G37*
%TD.AperFunction*%
%TO.P,R3,1*%
%TO.N,3.3V*%
%TA.AperFunction,SMDPad,CuDef*%
G36*
G01*
X125400000Y-88450001D02*
X125400000Y-87549999D01*
G75*
G02*
X125649999Y-87300000I249999J0D01*
G01*
X126350001Y-87300000D01*
G75*
G02*
X126600000Y-87549999I0J-249999D01*
G01*
X126600000Y-88450001D01*
G75*
G02*
X126350001Y-88700000I-249999J0D01*
G01*
X125649999Y-88700000D01*
G75*
G02*
X125400000Y-88450001I0J249999D01*
G01*
G37*
%TD.AperFunction*%
%TD*%
%TO.P,R4,2*%
%TO.N,Net-(R4-Pad2)*%
%TA.AperFunction,SMDPad,CuDef*%
G36*
G01*
X127400000Y-93450001D02*
X127400000Y-92549999D01*
G75*
G02*
X127649999Y-92300000I249999J0D01*
G01*
X128350001Y-92300000D01*
G75*
G02*
X128600000Y-92549999I0J-249999D01*
G01*
X128600000Y-93450001D01*
G75*
G02*
X128350001Y-93700000I-249999J0D01*
G01*
X127649999Y-93700000D01*
G75*
G02*
X127400000Y-93450001I0J249999D01*
G01*
G37*
%TD.AperFunction*%
%TO.P,R4,1*%
%TO.N,3.3V*%
%TA.AperFunction,SMDPad,CuDef*%
G36*
G01*
X125400000Y-93450001D02*
X125400000Y-92549999D01*
G75*
G02*
X125649999Y-92300000I249999J0D01*
G01*
X126350001Y-92300000D01*
G75*
G02*
X126600000Y-92549999I0J-249999D01*
G01*
X126600000Y-93450001D01*
G75*
G02*
X126350001Y-93700000I-249999J0D01*
G01*
X125649999Y-93700000D01*
G75*
G02*
X125400000Y-93450001I0J249999D01*
G01*
G37*
%TD.AperFunction*%
%TD*%
D16*
%TO.P,H3,1*%
%TO.N,Net-(H3-Pad1)*%
X186000000Y-77000000D03*
%TD*%
D17*
%TO.P,U4,5*%
%TO.N,3.3V*%
X109600000Y-84950000D03*
%TO.P,U4,4*%
%TO.N,Net-(U4-Pad4)*%
X109600000Y-86850000D03*
%TO.P,U4,3*%
%TO.N,5V*%
X107400000Y-86850000D03*
%TO.P,U4,2*%
%TO.N,GND*%
X107400000Y-85900000D03*
%TO.P,U4,1*%
%TO.N,5V*%
X107400000Y-84950000D03*
%TD*%
D18*
%TO.P,U2,4*%
%TO.N,GND*%
X177600000Y-90725000D03*
D19*
%TO.P,U2,3*%
X179450000Y-89000000D03*
D18*
%TO.P,U2,2*%
X177600000Y-87275000D03*
D19*
%TO.P,U2,1*%
%TO.N,Net-(J2-Pad1)*%
X175850000Y-89000000D03*
%TD*%
D20*
%TO.P,SPI_PORT1,6*%
%TO.N,/MCU_SCK*%
X140620000Y-62000000D03*
%TO.P,SPI_PORT1,5*%
%TO.N,/MCU_MOSI*%
X138080000Y-62000000D03*
%TO.P,SPI_PORT1,4*%
%TO.N,/MCU_MISO*%
X135540000Y-62000000D03*
%TO.P,SPI_PORT1,3*%
%TO.N,/OPT_RST*%
X133000000Y-62000000D03*
%TO.P,SPI_PORT1,2*%
%TO.N,/SPI_PORT_RST*%
X130460000Y-62000000D03*
D21*
%TO.P,SPI_PORT1,1*%
%TO.N,5V*%
X127920000Y-62000000D03*
%TD*%
D20*
%TO.P,SDA_PU1,3*%
%TO.N,3.3V*%
X136550000Y-88150000D03*
%TO.P,SDA_PU1,2*%
%TO.N,/SDA*%
X134010000Y-88150000D03*
D21*
%TO.P,SDA_PU1,1*%
%TO.N,Net-(R3-Pad2)*%
X131470000Y-88150000D03*
%TD*%
D20*
%TO.P,SCL_PU1,3*%
%TO.N,3.3V*%
X136550000Y-92800000D03*
%TO.P,SCL_PU1,2*%
%TO.N,/SCL*%
X134010000Y-92800000D03*
D21*
%TO.P,SCL_PU1,1*%
%TO.N,Net-(R4-Pad2)*%
X131470000Y-92800000D03*
%TD*%
D22*
%TO.P,JP11,2*%
%TO.N,/RFM_MISO*%
X138050000Y-71770000D03*
%TO.P,JP11,1*%
%TO.N,/MCU_MISO*%
X136750000Y-71770000D03*
%TD*%
%TO.P,JP10,2*%
%TO.N,/RFM_SCK*%
X138000000Y-74000000D03*
%TO.P,JP10,1*%
%TO.N,/MCU_SCK*%
X136700000Y-74000000D03*
%TD*%
D20*
%TO.P,J6,5*%
%TO.N,/RFM_MISO*%
X154000000Y-66460000D03*
%TO.P,J6,4*%
%TO.N,/RFM_MOSI*%
X154000000Y-69000000D03*
%TO.P,J6,3*%
%TO.N,/RFM_SCK*%
X154000000Y-71540000D03*
%TO.P,J6,2*%
%TO.N,/RFM_CS*%
X154000000Y-74080000D03*
D21*
%TO.P,J6,1*%
%TO.N,/RFM_RST*%
X154000000Y-76620000D03*
%TD*%
D20*
%TO.P,J5,5*%
%TO.N,/DIO3*%
X179200000Y-72560000D03*
%TO.P,J5,4*%
%TO.N,/DIO4*%
X179200000Y-70020000D03*
%TO.P,J5,3*%
%TO.N,/DIO0*%
X179200000Y-67480000D03*
%TO.P,J5,2*%
%TO.N,/DIO1*%
X179200000Y-64940000D03*
D21*
%TO.P,J5,1*%
%TO.N,/DIO2*%
X179200000Y-62400000D03*
%TD*%
D20*
%TO.P,J4,6*%
%TO.N,GND*%
X116920000Y-93000000D03*
%TO.P,J4,5*%
%TO.N,3.3V*%
X116920000Y-90460000D03*
%TO.P,J4,4*%
%TO.N,GND*%
X119460000Y-93000000D03*
%TO.P,J4,3*%
%TO.N,3.3V*%
X119460000Y-90460000D03*
%TO.P,J4,2*%
%TO.N,GND*%
X122000000Y-93000000D03*
D21*
%TO.P,J4,1*%
%TO.N,3.3V*%
X122000000Y-90460000D03*
%TD*%
D20*
%TO.P,J3,2*%
%TO.N,3.3V*%
X121000000Y-62000000D03*
D21*
%TO.P,J3,1*%
%TO.N,/MCU_3.3V*%
X118460000Y-62000000D03*
%TD*%
%TO.P,J2,1*%
%TO.N,Net-(J2-Pad1)*%
X175200000Y-83600000D03*
%TD*%
D20*
%TO.P,J1,40*%
%TO.N,/GPIO21*%
X98460000Y-81740000D03*
%TO.P,J1,39*%
%TO.N,GND*%
X101000000Y-81740000D03*
%TO.P,J1,38*%
%TO.N,/GPIO20*%
X98460000Y-84280000D03*
%TO.P,J1,37*%
%TO.N,/GPIO26*%
X101000000Y-84280000D03*
%TO.P,J1,36*%
%TO.N,/GPIO16*%
X98460000Y-86820000D03*
%TO.P,J1,35*%
%TO.N,/GPIO19*%
X101000000Y-86820000D03*
%TO.P,J1,34*%
%TO.N,GND*%
X98460000Y-89360000D03*
%TO.P,J1,33*%
%TO.N,/GPIO13*%
X101000000Y-89360000D03*
%TO.P,J1,32*%
%TO.N,/GPIO12*%
X98460000Y-91900000D03*
%TO.P,J1,31*%
%TO.N,/GPIO6*%
X101000000Y-91900000D03*
%TO.P,J1,30*%
%TO.N,GND*%
X98460000Y-94440000D03*
%TO.P,J1,29*%
%TO.N,/GPIO5*%
X101000000Y-94440000D03*
%TO.P,J1,28*%
%TO.N,/GPIO1*%
X98460000Y-96980000D03*
%TO.P,J1,27*%
%TO.N,/GPIO0*%
X101000000Y-96980000D03*
%TO.P,J1,26*%
%TO.N,/GPIO7*%
X98460000Y-99520000D03*
%TO.P,J1,25*%
%TO.N,GND*%
X101000000Y-99520000D03*
%TO.P,J1,24*%
%TO.N,/GPIO8*%
X98460000Y-102060000D03*
%TO.P,J1,23*%
%TO.N,/PI_SCK*%
X101000000Y-102060000D03*
%TO.P,J1,22*%
%TO.N,/GPIO25*%
X98460000Y-104600000D03*
%TO.P,J1,21*%
%TO.N,/PI_MISO*%
X101000000Y-104600000D03*
%TO.P,J1,20*%
%TO.N,GND*%
X98460000Y-107140000D03*
%TO.P,J1,19*%
%TO.N,/PI_MOSI*%
X101000000Y-107140000D03*
%TO.P,J1,18*%
%TO.N,/GPIO24*%
X98460000Y-109680000D03*
%TO.P,J1,17*%
%TO.N,/PI_3.3V*%
X101000000Y-109680000D03*
%TO.P,J1,16*%
%TO.N,/GPIO23*%
X98460000Y-112220000D03*
%TO.P,J1,15*%
%TO.N,/GPIO22*%
X101000000Y-112220000D03*
%TO.P,J1,14*%
%TO.N,GND*%
X98460000Y-114760000D03*
%TO.P,J1,13*%
%TO.N,/GPIO27*%
X101000000Y-114760000D03*
%TO.P,J1,12*%
%TO.N,/GPIO18*%
X98460000Y-117300000D03*
%TO.P,J1,11*%
%TO.N,/GPIO17*%
X101000000Y-117300000D03*
%TO.P,J1,10*%
%TO.N,/GPIO15*%
X98460000Y-119840000D03*
%TO.P,J1,9*%
%TO.N,GND*%
X101000000Y-119840000D03*
%TO.P,J1,8*%
%TO.N,/GPIO14*%
X98460000Y-122380000D03*
%TO.P,J1,7*%
%TO.N,/GPIO4*%
X101000000Y-122380000D03*
%TO.P,J1,6*%
%TO.N,GND*%
X98460000Y-124920000D03*
%TO.P,J1,5*%
%TO.N,/PI_SCL*%
X101000000Y-124920000D03*
%TO.P,J1,4*%
%TO.N,5V*%
X98460000Y-127460000D03*
%TO.P,J1,3*%
%TO.N,/PI_SDA*%
X101000000Y-127460000D03*
%TO.P,J1,2*%
%TO.N,5V*%
X98460000Y-130000000D03*
D21*
%TO.P,J1,1*%
%TO.N,/PI_3.3V*%
X101000000Y-130000000D03*
%TD*%
D20*
%TO.P,I2C_PORT1,4*%
%TO.N,/SDA*%
X146000000Y-77620000D03*
%TO.P,I2C_PORT1,3*%
%TO.N,/SCL*%
X146000000Y-75080000D03*
%TO.P,I2C_PORT1,2*%
%TO.N,3.3V*%
X146000000Y-72540000D03*
D21*
%TO.P,I2C_PORT1,1*%
%TO.N,GND*%
X146000000Y-70000000D03*
%TD*%
D16*
%TO.P,H2,1*%
%TO.N,Net-(H2-Pad1)*%
X100000000Y-77000000D03*
%TD*%
%TO.P,H1,1*%
%TO.N,Net-(H1-Pad1)*%
X100000000Y-135000000D03*
%TD*%
D20*
%TO.P,FAN1,2*%
%TO.N,GND*%
X93000000Y-127460000D03*
D21*
%TO.P,FAN1,1*%
%TO.N,5V*%
X93000000Y-130000000D03*
%TD*%
D23*
%TO.N,GND*%
X143740000Y-76580000D03*
X159000000Y-80400000D03*
X171500000Y-77000000D03*
%TO.N,3.3V*%
X148200000Y-85110000D03*
X164000000Y-76400000D03*
X172000000Y-71000000D03*
%TO.N,5V*%
X95100000Y-73800000D03*
%TO.N,/SDA*%
X119960000Y-79570000D03*
X142610000Y-79570000D03*
%TO.N,/PI_SCL*%
X110660000Y-92800000D03*
%TO.N,/PI_SDA*%
X111620000Y-93650000D03*
%TO.N,/RFM_MISO*%
X114630000Y-75810000D03*
X132570000Y-73270000D03*
X140350000Y-71770000D03*
%TO.N,/RFM_MOSI*%
X160000000Y-69000000D03*
%TO.N,/RFM_SCK*%
X138093548Y-74498854D03*
%TO.N,/RFM_CS*%
X161000000Y-73000000D03*
%TO.N,/RFM_RST*%
X161000000Y-75000000D03*
%TO.N,/MCU_MOSI*%
X149580000Y-75810000D03*
X149350000Y-71000000D03*
X147400000Y-67800000D03*
%TO.N,/MCU_MISO*%
X111362653Y-76605000D03*
X115405001Y-72544999D03*
X136200000Y-71800000D03*
%TO.N,/MCU_SCK*%
X125700000Y-69600000D03*
%TO.N,/MCU_CS*%
X148800000Y-74000000D03*
%TO.N,Net-(SW1-Pad1)*%
X105100000Y-69300000D03*
%TD*%
D24*
%TO.N,GND*%
X145850000Y-70000000D02*
X143260000Y-72590000D01*
X146000000Y-70000000D02*
X145850000Y-70000000D01*
X160000000Y-79000000D02*
X160000000Y-79610000D01*
X143260000Y-76100000D02*
X143740000Y-76580000D01*
X143260000Y-72590000D02*
X143260000Y-76100000D01*
X114400000Y-93000000D02*
X116920000Y-93000000D01*
X160000000Y-79400000D02*
X159000000Y-80400000D01*
X160000000Y-79000000D02*
X160000000Y-79400000D01*
X171500000Y-77000000D02*
X174000000Y-77000000D01*
X106500000Y-85900000D02*
X105400000Y-84800000D01*
X107400000Y-85900000D02*
X106500000Y-85900000D01*
%TO.N,3.3V*%
X136550000Y-88150000D02*
X136550000Y-92800000D01*
X136550000Y-92800000D02*
X136550000Y-94350000D01*
X136550000Y-94350000D02*
X136150000Y-94750000D01*
X136150000Y-94750000D02*
X126660000Y-94750000D01*
X126000000Y-94090000D02*
X126000000Y-93000000D01*
X126660000Y-94750000D02*
X126000000Y-94090000D01*
X126000000Y-93000000D02*
X126000000Y-88000000D01*
X122000000Y-90460000D02*
X122470000Y-90460000D01*
X124930000Y-88000000D02*
X126000000Y-88000000D01*
X122470000Y-90460000D02*
X124930000Y-88000000D01*
X122000000Y-90460000D02*
X119460000Y-90460000D01*
X119460000Y-90460000D02*
X116920000Y-90460000D01*
X116920000Y-90460000D02*
X115720000Y-89260000D01*
X145160000Y-88150000D02*
X136550000Y-88150000D01*
X148200000Y-85110000D02*
X145160000Y-88150000D01*
X155737002Y-85110000D02*
X148200000Y-85110000D01*
X164000000Y-76847002D02*
X155737002Y-85110000D01*
X121000000Y-62000000D02*
X121000000Y-61400000D01*
X164000000Y-76847002D02*
X164000000Y-76400000D01*
X172000000Y-71000000D02*
X174000000Y-71000000D01*
X112112500Y-84950000D02*
X112200000Y-84862500D01*
X109800000Y-84950000D02*
X112112500Y-84950000D01*
X112200000Y-84862500D02*
X114362500Y-84862500D01*
X115720000Y-86220000D02*
X115720000Y-89260000D01*
X114362500Y-84862500D02*
X115720000Y-86220000D01*
X112200000Y-84862500D02*
X110200000Y-82862500D01*
X110200000Y-64000000D02*
X113700000Y-60500000D01*
X110200000Y-67100000D02*
X110200000Y-64000000D01*
X110200000Y-82862500D02*
X110200000Y-67100000D01*
X110200000Y-67100000D02*
X110200000Y-66875000D01*
X113700000Y-60500000D02*
X120600000Y-60500000D01*
X121000000Y-60900000D02*
X121000000Y-62000000D01*
X120600000Y-60500000D02*
X121000000Y-60900000D01*
%TO.N,5V*%
X98460000Y-127460000D02*
X98460000Y-130000000D01*
X98460000Y-130000000D02*
X93000000Y-130000000D01*
X107575000Y-86875000D02*
X107600000Y-86850000D01*
X105400000Y-86875000D02*
X107575000Y-86875000D01*
X103325001Y-86025001D02*
X104175000Y-86875000D01*
X103325001Y-73425001D02*
X103325001Y-86025001D01*
X96750000Y-72300000D02*
X102200000Y-72300000D01*
X102200000Y-72300000D02*
X103325001Y-73425001D01*
X95180000Y-73870000D02*
X96750000Y-72300000D01*
X104175000Y-86875000D02*
X105400000Y-86875000D01*
X96680000Y-127460000D02*
X95180000Y-125960000D01*
X95180000Y-125960000D02*
X95180000Y-73870000D01*
X98460000Y-127460000D02*
X96680000Y-127460000D01*
X107990002Y-84950000D02*
X107400000Y-84950000D01*
X108355001Y-85314999D02*
X107990002Y-84950000D01*
X108355001Y-86485001D02*
X108355001Y-85314999D01*
X107990002Y-86850000D02*
X108355001Y-86485001D01*
X107400000Y-86850000D02*
X107990002Y-86850000D01*
%TO.N,/SDA*%
X140585002Y-79570000D02*
X142610000Y-79570000D01*
X119960000Y-79570000D02*
X140585002Y-79570000D01*
%TO.N,/SCL*%
X145720000Y-75360000D02*
X146000000Y-75080000D01*
%TO.N,/PI_SCL*%
X101000000Y-124920000D02*
X102930000Y-124920000D01*
X102930000Y-124920000D02*
X103480000Y-124370000D01*
X103480000Y-124370000D02*
X103480000Y-96600000D01*
X103480000Y-96600000D02*
X105730000Y-94350000D01*
X105730000Y-94350000D02*
X109070000Y-94350000D01*
X109070000Y-94350000D02*
X109080000Y-94350000D01*
X110620000Y-92800000D02*
X110660000Y-92800000D01*
X109070000Y-94350000D02*
X110620000Y-92800000D01*
%TO.N,/PI_SDA*%
X109795306Y-95060000D02*
X106380000Y-95060000D01*
X106380000Y-95060000D02*
X104330000Y-97110000D01*
X104330000Y-97110000D02*
X104330000Y-126240000D01*
X103110000Y-127460000D02*
X101000000Y-127460000D01*
X104330000Y-126240000D02*
X103110000Y-127460000D01*
X109795306Y-95060000D02*
X110210000Y-95060000D01*
X110210000Y-95060000D02*
X111620000Y-93650000D01*
%TO.N,Net-(J2-Pad1)*%
X174000000Y-79000000D02*
X176000000Y-79000000D01*
X174000000Y-82400000D02*
X175200000Y-83600000D01*
X174000000Y-79000000D02*
X174000000Y-82400000D01*
X175200000Y-83600000D02*
X175200000Y-88400000D01*
X175800000Y-89000000D02*
X176600000Y-89000000D01*
X175200000Y-88400000D02*
X175800000Y-89000000D01*
%TO.N,/MCU_3.3V*%
X118460000Y-62000000D02*
X118460000Y-63610000D01*
X118460000Y-63610000D02*
X119440000Y-64590000D01*
X119440000Y-64590000D02*
X120220000Y-64590000D01*
X120650000Y-65020000D02*
X120650000Y-66380000D01*
X120220000Y-64590000D02*
X120650000Y-65020000D01*
%TO.N,/DIO3*%
X176760000Y-75000000D02*
X179200000Y-72560000D01*
X174000000Y-75000000D02*
X176760000Y-75000000D01*
%TO.N,/DIO4*%
X176538205Y-72681795D02*
X174318205Y-72681795D01*
X179200000Y-70020000D02*
X176538205Y-72681795D01*
%TO.N,/DIO0*%
X177680000Y-69000000D02*
X179200000Y-67480000D01*
X174000000Y-69000000D02*
X177680000Y-69000000D01*
%TO.N,/DIO1*%
X174000000Y-67000000D02*
X176600000Y-67000000D01*
X176600000Y-67000000D02*
X177400000Y-66200000D01*
X177400000Y-66200000D02*
X177400000Y-66000000D01*
X178460000Y-64940000D02*
X179200000Y-64940000D01*
X177400000Y-66000000D02*
X178460000Y-64940000D01*
%TO.N,/DIO2*%
X176600000Y-62400000D02*
X179200000Y-62400000D01*
X174000000Y-65000000D02*
X176600000Y-62400000D01*
%TO.N,/RFM_MISO*%
X160000000Y-67000000D02*
X156000000Y-67000000D01*
X155460000Y-66460000D02*
X154000000Y-66460000D01*
X156000000Y-67000000D02*
X155460000Y-66460000D01*
X117170000Y-73270000D02*
X132570000Y-73270000D01*
X114630000Y-75810000D02*
X117170000Y-73270000D01*
X140350000Y-71770000D02*
X140600000Y-71770000D01*
X138050000Y-71770000D02*
X140350000Y-71770000D01*
X140230000Y-71770000D02*
X138050000Y-71770000D01*
%TO.N,/RFM_MOSI*%
X160000000Y-69000000D02*
X154000000Y-69000000D01*
%TO.N,/RFM_SCK*%
X160000000Y-71000000D02*
X156500000Y-71000000D01*
X155960000Y-71540000D02*
X154000000Y-71540000D01*
X156500000Y-71000000D02*
X155960000Y-71540000D01*
X139660000Y-74000000D02*
X138000000Y-74000000D01*
X145540000Y-79880000D02*
X139660000Y-74000000D01*
X147770000Y-79880000D02*
X147530000Y-79880000D01*
X147530000Y-79880000D02*
X145540000Y-79880000D01*
X152290000Y-71540000D02*
X154000000Y-71540000D01*
X151980000Y-71850000D02*
X152290000Y-71540000D01*
X149750000Y-79880000D02*
X151980000Y-77650000D01*
X151980000Y-77650000D02*
X151980000Y-71850000D01*
X147530000Y-79880000D02*
X149750000Y-79880000D01*
%TO.N,/RFM_CS*%
X154000000Y-74080000D02*
X155920000Y-74080000D01*
X157000000Y-73000000D02*
X160000000Y-73000000D01*
X155920000Y-74080000D02*
X157000000Y-73000000D01*
X161000000Y-73000000D02*
X160000000Y-73000000D01*
%TO.N,/RFM_RST*%
X160000000Y-75000000D02*
X157000000Y-75000000D01*
X155380000Y-76620000D02*
X154000000Y-76620000D01*
X157000000Y-75000000D02*
X155380000Y-76620000D01*
X154000000Y-76620000D02*
X154000000Y-76660000D01*
X161000000Y-75000000D02*
X160000000Y-75000000D01*
%TO.N,/MCU_MOSI*%
X149580000Y-71230000D02*
X149350000Y-71000000D01*
X149580000Y-75810000D02*
X149580000Y-71230000D01*
X138080000Y-62000000D02*
X138080000Y-64880000D01*
X138430000Y-65230000D02*
X138430000Y-66380000D01*
X138080000Y-64880000D02*
X138430000Y-65230000D01*
X138430000Y-66380000D02*
X138430000Y-67230000D01*
X139000000Y-67800000D02*
X147400000Y-67800000D01*
X138430000Y-67230000D02*
X139000000Y-67800000D01*
%TO.N,/MCU_MISO*%
X136750000Y-71770000D02*
X136750000Y-68770000D01*
X135890000Y-67910000D02*
X135890000Y-66380000D01*
X136750000Y-68770000D02*
X135890000Y-67910000D01*
X111360000Y-76590000D02*
X115405001Y-72544999D01*
X135540000Y-62000000D02*
X135540000Y-65340000D01*
X135890000Y-65690000D02*
X135890000Y-66380000D01*
X135540000Y-65340000D02*
X135890000Y-65690000D01*
X136430000Y-71770000D02*
X136400000Y-71800000D01*
X136750000Y-71770000D02*
X136430000Y-71770000D01*
X136720000Y-71800000D02*
X136750000Y-71770000D01*
X136200000Y-71800000D02*
X136720000Y-71800000D01*
%TO.N,/MCU_SCK*%
X136700000Y-74000000D02*
X135510000Y-74000000D01*
X133350000Y-71840000D02*
X133350000Y-66380000D01*
X135510000Y-74000000D02*
X133350000Y-71840000D01*
X133350000Y-66380000D02*
X133350000Y-68050000D01*
X133350000Y-68050000D02*
X132610000Y-68790000D01*
X126510000Y-68790000D02*
X132610000Y-68790000D01*
X125700000Y-69600000D02*
X126510000Y-68790000D01*
%TO.N,/MCU_CS*%
X148400000Y-73600000D02*
X148800000Y-74000000D01*
X148400000Y-63000000D02*
X148400000Y-73600000D01*
X145750010Y-60350010D02*
X148400000Y-63000000D01*
X125800000Y-61000000D02*
X126449990Y-60350010D01*
X125800000Y-63000000D02*
X125800000Y-61000000D01*
X127064999Y-64264999D02*
X125800000Y-63000000D01*
X129284999Y-64264999D02*
X127064999Y-64264999D01*
X130810000Y-65790000D02*
X129284999Y-64264999D01*
X126449990Y-60350010D02*
X145750010Y-60350010D01*
X130810000Y-66380000D02*
X130810000Y-65790000D01*
%TO.N,Net-(R3-Pad2)*%
X131320000Y-88000000D02*
X131470000Y-88150000D01*
X128000000Y-88000000D02*
X131320000Y-88000000D01*
%TO.N,Net-(R4-Pad2)*%
X131270000Y-93000000D02*
X131470000Y-92800000D01*
X128000000Y-93000000D02*
X131270000Y-93000000D01*
%TO.N,Net-(SW1-Pad1)*%
X103250000Y-64750000D02*
X103000000Y-65000000D01*
X103300000Y-69300000D02*
X103000000Y-69000000D01*
X105100000Y-69300000D02*
X103300000Y-69300000D01*
X103000000Y-69000000D02*
X103000000Y-65000000D01*
%TD*%
D25*
%TO.N,GND*%
X109688998Y-63436201D02*
X109660000Y-63459999D01*
X109636202Y-63488997D01*
X109636201Y-63488998D01*
X109565026Y-63575724D01*
X109494454Y-63707754D01*
X109470560Y-63786525D01*
X109454037Y-63840998D01*
X109450998Y-63851015D01*
X109436324Y-64000000D01*
X109440001Y-64037332D01*
X109440000Y-67137332D01*
X109440001Y-67137342D01*
X109440000Y-82825178D01*
X109436324Y-82862500D01*
X109440000Y-82899822D01*
X109440000Y-82899832D01*
X109450997Y-83011485D01*
X109489662Y-83138948D01*
X109494454Y-83154746D01*
X109565026Y-83286776D01*
X109603120Y-83333193D01*
X109659999Y-83402501D01*
X109689003Y-83426304D01*
X110251771Y-83989072D01*
X110230000Y-83986928D01*
X108970000Y-83986928D01*
X108845518Y-83999188D01*
X108725820Y-84035498D01*
X108615506Y-84094463D01*
X108518815Y-84173815D01*
X108500000Y-84196741D01*
X108481185Y-84173815D01*
X108384494Y-84094463D01*
X108274180Y-84035498D01*
X108154482Y-83999188D01*
X108030000Y-83986928D01*
X106770000Y-83986928D01*
X106721593Y-83991696D01*
X106714502Y-83968320D01*
X106655537Y-83858006D01*
X106576185Y-83761315D01*
X106479494Y-83681963D01*
X106369180Y-83622998D01*
X106249482Y-83586688D01*
X106125000Y-83574428D01*
X105685750Y-83577500D01*
X105527000Y-83736250D01*
X105527000Y-84673000D01*
X105547000Y-84673000D01*
X105547000Y-84927000D01*
X105527000Y-84927000D01*
X105527000Y-84947000D01*
X105273000Y-84947000D01*
X105273000Y-84927000D01*
X105253000Y-84927000D01*
X105253000Y-84673000D01*
X105273000Y-84673000D01*
X105273000Y-83736250D01*
X105114250Y-83577500D01*
X104675000Y-83574428D01*
X104550518Y-83586688D01*
X104430820Y-83622998D01*
X104320506Y-83681963D01*
X104223815Y-83761315D01*
X104144463Y-83858006D01*
X104085498Y-83968320D01*
X104085001Y-83969958D01*
X104085001Y-73462326D01*
X104088677Y-73425001D01*
X104085001Y-73387676D01*
X104085001Y-73387668D01*
X104074004Y-73276015D01*
X104030547Y-73132754D01*
X103959975Y-73000725D01*
X103865002Y-72885000D01*
X103836005Y-72861203D01*
X102763804Y-71789002D01*
X102740001Y-71759999D01*
X102624276Y-71665026D01*
X102492247Y-71594454D01*
X102348986Y-71550997D01*
X102237333Y-71540000D01*
X102237322Y-71540000D01*
X102200000Y-71536324D01*
X102162678Y-71540000D01*
X96787322Y-71540000D01*
X96749999Y-71536324D01*
X96712676Y-71540000D01*
X96712667Y-71540000D01*
X96601014Y-71550997D01*
X96457753Y-71594454D01*
X96325724Y-71665026D01*
X96209999Y-71759999D01*
X96186201Y-71788997D01*
X95208828Y-72766370D01*
X95201939Y-72765000D01*
X94998061Y-72765000D01*
X94798102Y-72804774D01*
X94609744Y-72882795D01*
X94440226Y-72996063D01*
X94296063Y-73140226D01*
X94182795Y-73309744D01*
X94104774Y-73498102D01*
X94065000Y-73698061D01*
X94065000Y-73901939D01*
X94104774Y-74101898D01*
X94182795Y-74290256D01*
X94296063Y-74459774D01*
X94420001Y-74583712D01*
X94420000Y-125922678D01*
X94416324Y-125960000D01*
X94420000Y-125997322D01*
X94420000Y-125997332D01*
X94430997Y-126108985D01*
X94441622Y-126144010D01*
X94474454Y-126252246D01*
X94545026Y-126384276D01*
X94562034Y-126405000D01*
X94639999Y-126500001D01*
X94669003Y-126523804D01*
X96116201Y-127971003D01*
X96139999Y-128000001D01*
X96255724Y-128094974D01*
X96387753Y-128165546D01*
X96531014Y-128209003D01*
X96642667Y-128220000D01*
X96642676Y-128220000D01*
X96679999Y-128223676D01*
X96717322Y-128220000D01*
X97181822Y-128220000D01*
X97306525Y-128406632D01*
X97513368Y-128613475D01*
X97687760Y-128730000D01*
X97513368Y-128846525D01*
X97306525Y-129053368D01*
X97181822Y-129240000D01*
X94488072Y-129240000D01*
X94488072Y-129150000D01*
X94475812Y-129025518D01*
X94439502Y-128905820D01*
X94380537Y-128795506D01*
X94301185Y-128698815D01*
X94204494Y-128619463D01*
X94094180Y-128560498D01*
X94013534Y-128536034D01*
X94097588Y-128460269D01*
X94271641Y-128226920D01*
X94396825Y-127964099D01*
X94441476Y-127816890D01*
X94320155Y-127587000D01*
X93127000Y-127587000D01*
X93127000Y-127607000D01*
X92873000Y-127607000D01*
X92873000Y-127587000D01*
X91679845Y-127587000D01*
X91558524Y-127816890D01*
X91603175Y-127964099D01*
X91728359Y-128226920D01*
X91902412Y-128460269D01*
X91986466Y-128536034D01*
X91905820Y-128560498D01*
X91795506Y-128619463D01*
X91698815Y-128698815D01*
X91619463Y-128795506D01*
X91560498Y-128905820D01*
X91524188Y-129025518D01*
X91511928Y-129150000D01*
X91511928Y-130850000D01*
X91524188Y-130974482D01*
X91560498Y-131094180D01*
X91619463Y-131204494D01*
X91698815Y-131301185D01*
X91795506Y-131380537D01*
X91905820Y-131439502D01*
X92025518Y-131475812D01*
X92150000Y-131488072D01*
X93850000Y-131488072D01*
X93974482Y-131475812D01*
X94094180Y-131439502D01*
X94204494Y-131380537D01*
X94301185Y-131301185D01*
X94380537Y-131204494D01*
X94439502Y-131094180D01*
X94475812Y-130974482D01*
X94488072Y-130850000D01*
X94488072Y-130760000D01*
X97181822Y-130760000D01*
X97306525Y-130946632D01*
X97513368Y-131153475D01*
X97756589Y-131315990D01*
X98026842Y-131427932D01*
X98313740Y-131485000D01*
X98606260Y-131485000D01*
X98893158Y-131427932D01*
X99163411Y-131315990D01*
X99406632Y-131153475D01*
X99538487Y-131021620D01*
X99560498Y-131094180D01*
X99619463Y-131204494D01*
X99698815Y-131301185D01*
X99776574Y-131365000D01*
X99641984Y-131365000D01*
X98939710Y-131504691D01*
X98278182Y-131778705D01*
X97682823Y-132176511D01*
X97176511Y-132682823D01*
X96778705Y-133278182D01*
X96504691Y-133939710D01*
X96365000Y-134641984D01*
X96365000Y-135358016D01*
X96504691Y-136060290D01*
X96778705Y-136721818D01*
X97176511Y-137317177D01*
X97682823Y-137823489D01*
X98278182Y-138221295D01*
X98564761Y-138340000D01*
X90660000Y-138340000D01*
X90660000Y-127103110D01*
X91558524Y-127103110D01*
X91679845Y-127333000D01*
X92873000Y-127333000D01*
X92873000Y-126139186D01*
X93127000Y-126139186D01*
X93127000Y-127333000D01*
X94320155Y-127333000D01*
X94441476Y-127103110D01*
X94396825Y-126955901D01*
X94271641Y-126693080D01*
X94097588Y-126459731D01*
X93881355Y-126264822D01*
X93631252Y-126115843D01*
X93356891Y-126018519D01*
X93127000Y-126139186D01*
X92873000Y-126139186D01*
X92643109Y-126018519D01*
X92368748Y-126115843D01*
X92118645Y-126264822D01*
X91902412Y-126459731D01*
X91728359Y-126693080D01*
X91603175Y-126955901D01*
X91558524Y-127103110D01*
X90660000Y-127103110D01*
X90660000Y-70000000D01*
X97599928Y-70000000D01*
X97612188Y-70124482D01*
X97648498Y-70244180D01*
X97707463Y-70354494D01*
X97786815Y-70451185D01*
X97883506Y-70530537D01*
X97993820Y-70589502D01*
X98113518Y-70625812D01*
X98238000Y-70638072D01*
X98714250Y-70635000D01*
X98873000Y-70476250D01*
X98873000Y-69127000D01*
X99127000Y-69127000D01*
X99127000Y-70476250D01*
X99285750Y-70635000D01*
X99762000Y-70638072D01*
X99886482Y-70625812D01*
X100006180Y-70589502D01*
X100116494Y-70530537D01*
X100213185Y-70451185D01*
X100292537Y-70354494D01*
X100351502Y-70244180D01*
X100387812Y-70124482D01*
X100400072Y-70000000D01*
X100397000Y-69285750D01*
X100238250Y-69127000D01*
X99127000Y-69127000D01*
X98873000Y-69127000D01*
X97761750Y-69127000D01*
X97603000Y-69285750D01*
X97599928Y-70000000D01*
X90660000Y-70000000D01*
X90660000Y-68000000D01*
X97599928Y-68000000D01*
X97603000Y-68714250D01*
X97761750Y-68873000D01*
X98873000Y-68873000D01*
X98873000Y-67523750D01*
X99127000Y-67523750D01*
X99127000Y-68873000D01*
X100238250Y-68873000D01*
X100397000Y-68714250D01*
X100400072Y-68000000D01*
X100387812Y-67875518D01*
X100351502Y-67755820D01*
X100292537Y-67645506D01*
X100213185Y-67548815D01*
X100116494Y-67469463D01*
X100006180Y-67410498D01*
X99886482Y-67374188D01*
X99762000Y-67361928D01*
X99285750Y-67365000D01*
X99127000Y-67523750D01*
X98873000Y-67523750D01*
X98714250Y-67365000D01*
X98238000Y-67361928D01*
X98113518Y-67374188D01*
X97993820Y-67410498D01*
X97883506Y-67469463D01*
X97786815Y-67548815D01*
X97707463Y-67645506D01*
X97648498Y-67755820D01*
X97612188Y-67875518D01*
X97599928Y-68000000D01*
X90660000Y-68000000D01*
X90660000Y-66000000D01*
X97599928Y-66000000D01*
X97612188Y-66124482D01*
X97648498Y-66244180D01*
X97707463Y-66354494D01*
X97786815Y-66451185D01*
X97883506Y-66530537D01*
X97993820Y-66589502D01*
X98113518Y-66625812D01*
X98238000Y-66638072D01*
X98714250Y-66635000D01*
X98873000Y-66476250D01*
X98873000Y-65127000D01*
X99127000Y-65127000D01*
X99127000Y-66476250D01*
X99285750Y-66635000D01*
X99762000Y-66638072D01*
X99886482Y-66625812D01*
X100006180Y-66589502D01*
X100116494Y-66530537D01*
X100213185Y-66451185D01*
X100292537Y-66354494D01*
X100351502Y-66244180D01*
X100387812Y-66124482D01*
X100400072Y-66000000D01*
X100397000Y-65285750D01*
X100238250Y-65127000D01*
X99127000Y-65127000D01*
X98873000Y-65127000D01*
X97761750Y-65127000D01*
X97603000Y-65285750D01*
X97599928Y-66000000D01*
X90660000Y-66000000D01*
X90660000Y-64000000D01*
X97599928Y-64000000D01*
X97603000Y-64714250D01*
X97761750Y-64873000D01*
X98873000Y-64873000D01*
X98873000Y-63523750D01*
X99127000Y-63523750D01*
X99127000Y-64873000D01*
X100238250Y-64873000D01*
X100397000Y-64714250D01*
X100400072Y-64000000D01*
X101599928Y-64000000D01*
X101599928Y-66000000D01*
X101612188Y-66124482D01*
X101648498Y-66244180D01*
X101707463Y-66354494D01*
X101786815Y-66451185D01*
X101883506Y-66530537D01*
X101993820Y-66589502D01*
X102113518Y-66625812D01*
X102238000Y-66638072D01*
X102240001Y-66638072D01*
X102240000Y-67361928D01*
X102238000Y-67361928D01*
X102113518Y-67374188D01*
X101993820Y-67410498D01*
X101883506Y-67469463D01*
X101786815Y-67548815D01*
X101707463Y-67645506D01*
X101648498Y-67755820D01*
X101612188Y-67875518D01*
X101599928Y-68000000D01*
X101599928Y-70000000D01*
X101612188Y-70124482D01*
X101648498Y-70244180D01*
X101707463Y-70354494D01*
X101786815Y-70451185D01*
X101883506Y-70530537D01*
X101993820Y-70589502D01*
X102113518Y-70625812D01*
X102238000Y-70638072D01*
X103762000Y-70638072D01*
X103886482Y-70625812D01*
X104006180Y-70589502D01*
X104116494Y-70530537D01*
X104213185Y-70451185D01*
X104292537Y-70354494D01*
X104351502Y-70244180D01*
X104387812Y-70124482D01*
X104394163Y-70060000D01*
X104396289Y-70060000D01*
X104440226Y-70103937D01*
X104609744Y-70217205D01*
X104798102Y-70295226D01*
X104998061Y-70335000D01*
X105201939Y-70335000D01*
X105401898Y-70295226D01*
X105590256Y-70217205D01*
X105759774Y-70103937D01*
X105903937Y-69959774D01*
X106017205Y-69790256D01*
X106095226Y-69601898D01*
X106135000Y-69401939D01*
X106135000Y-69198061D01*
X106095226Y-68998102D01*
X106017205Y-68809744D01*
X105903937Y-68640226D01*
X105759774Y-68496063D01*
X105590256Y-68382795D01*
X105401898Y-68304774D01*
X105201939Y-68265000D01*
X104998061Y-68265000D01*
X104798102Y-68304774D01*
X104609744Y-68382795D01*
X104440226Y-68496063D01*
X104400072Y-68536217D01*
X104400072Y-68000000D01*
X104387812Y-67875518D01*
X104351502Y-67755820D01*
X104292537Y-67645506D01*
X104213185Y-67548815D01*
X104116494Y-67469463D01*
X104006180Y-67410498D01*
X103886482Y-67374188D01*
X103762000Y-67361928D01*
X103760000Y-67361928D01*
X103760000Y-66638072D01*
X103762000Y-66638072D01*
X103886482Y-66625812D01*
X104006180Y-66589502D01*
X104116494Y-66530537D01*
X104213185Y-66451185D01*
X104292537Y-66354494D01*
X104351502Y-66244180D01*
X104387812Y-66124482D01*
X104400072Y-66000000D01*
X104400072Y-64000000D01*
X104387812Y-63875518D01*
X104351502Y-63755820D01*
X104292537Y-63645506D01*
X104213185Y-63548815D01*
X104116494Y-63469463D01*
X104006180Y-63410498D01*
X103886482Y-63374188D01*
X103762000Y-63361928D01*
X102238000Y-63361928D01*
X102113518Y-63374188D01*
X101993820Y-63410498D01*
X101883506Y-63469463D01*
X101786815Y-63548815D01*
X101707463Y-63645506D01*
X101648498Y-63755820D01*
X101612188Y-63875518D01*
X101599928Y-64000000D01*
X100400072Y-64000000D01*
X100387812Y-63875518D01*
X100351502Y-63755820D01*
X100292537Y-63645506D01*
X100213185Y-63548815D01*
X100116494Y-63469463D01*
X100006180Y-63410498D01*
X99886482Y-63374188D01*
X99762000Y-63361928D01*
X99285750Y-63365000D01*
X99127000Y-63523750D01*
X98873000Y-63523750D01*
X98714250Y-63365000D01*
X98238000Y-63361928D01*
X98113518Y-63374188D01*
X97993820Y-63410498D01*
X97883506Y-63469463D01*
X97786815Y-63548815D01*
X97707463Y-63645506D01*
X97648498Y-63755820D01*
X97612188Y-63875518D01*
X97599928Y-64000000D01*
X90660000Y-64000000D01*
X90660000Y-60660000D01*
X112465197Y-60660000D01*
X109688998Y-63436201D01*
%TA.AperFunction,Conductor*%
D26*
G36*
X109688998Y-63436201D02*
G01*
X109660000Y-63459999D01*
X109636202Y-63488997D01*
X109636201Y-63488998D01*
X109565026Y-63575724D01*
X109494454Y-63707754D01*
X109470560Y-63786525D01*
X109454037Y-63840998D01*
X109450998Y-63851015D01*
X109436324Y-64000000D01*
X109440001Y-64037332D01*
X109440000Y-67137332D01*
X109440001Y-67137342D01*
X109440000Y-82825178D01*
X109436324Y-82862500D01*
X109440000Y-82899822D01*
X109440000Y-82899832D01*
X109450997Y-83011485D01*
X109489662Y-83138948D01*
X109494454Y-83154746D01*
X109565026Y-83286776D01*
X109603120Y-83333193D01*
X109659999Y-83402501D01*
X109689003Y-83426304D01*
X110251771Y-83989072D01*
X110230000Y-83986928D01*
X108970000Y-83986928D01*
X108845518Y-83999188D01*
X108725820Y-84035498D01*
X108615506Y-84094463D01*
X108518815Y-84173815D01*
X108500000Y-84196741D01*
X108481185Y-84173815D01*
X108384494Y-84094463D01*
X108274180Y-84035498D01*
X108154482Y-83999188D01*
X108030000Y-83986928D01*
X106770000Y-83986928D01*
X106721593Y-83991696D01*
X106714502Y-83968320D01*
X106655537Y-83858006D01*
X106576185Y-83761315D01*
X106479494Y-83681963D01*
X106369180Y-83622998D01*
X106249482Y-83586688D01*
X106125000Y-83574428D01*
X105685750Y-83577500D01*
X105527000Y-83736250D01*
X105527000Y-84673000D01*
X105547000Y-84673000D01*
X105547000Y-84927000D01*
X105527000Y-84927000D01*
X105527000Y-84947000D01*
X105273000Y-84947000D01*
X105273000Y-84927000D01*
X105253000Y-84927000D01*
X105253000Y-84673000D01*
X105273000Y-84673000D01*
X105273000Y-83736250D01*
X105114250Y-83577500D01*
X104675000Y-83574428D01*
X104550518Y-83586688D01*
X104430820Y-83622998D01*
X104320506Y-83681963D01*
X104223815Y-83761315D01*
X104144463Y-83858006D01*
X104085498Y-83968320D01*
X104085001Y-83969958D01*
X104085001Y-73462326D01*
X104088677Y-73425001D01*
X104085001Y-73387676D01*
X104085001Y-73387668D01*
X104074004Y-73276015D01*
X104030547Y-73132754D01*
X103959975Y-73000725D01*
X103865002Y-72885000D01*
X103836005Y-72861203D01*
X102763804Y-71789002D01*
X102740001Y-71759999D01*
X102624276Y-71665026D01*
X102492247Y-71594454D01*
X102348986Y-71550997D01*
X102237333Y-71540000D01*
X102237322Y-71540000D01*
X102200000Y-71536324D01*
X102162678Y-71540000D01*
X96787322Y-71540000D01*
X96749999Y-71536324D01*
X96712676Y-71540000D01*
X96712667Y-71540000D01*
X96601014Y-71550997D01*
X96457753Y-71594454D01*
X96325724Y-71665026D01*
X96209999Y-71759999D01*
X96186201Y-71788997D01*
X95208828Y-72766370D01*
X95201939Y-72765000D01*
X94998061Y-72765000D01*
X94798102Y-72804774D01*
X94609744Y-72882795D01*
X94440226Y-72996063D01*
X94296063Y-73140226D01*
X94182795Y-73309744D01*
X94104774Y-73498102D01*
X94065000Y-73698061D01*
X94065000Y-73901939D01*
X94104774Y-74101898D01*
X94182795Y-74290256D01*
X94296063Y-74459774D01*
X94420001Y-74583712D01*
X94420000Y-125922678D01*
X94416324Y-125960000D01*
X94420000Y-125997322D01*
X94420000Y-125997332D01*
X94430997Y-126108985D01*
X94441622Y-126144010D01*
X94474454Y-126252246D01*
X94545026Y-126384276D01*
X94562034Y-126405000D01*
X94639999Y-126500001D01*
X94669003Y-126523804D01*
X96116201Y-127971003D01*
X96139999Y-128000001D01*
X96255724Y-128094974D01*
X96387753Y-128165546D01*
X96531014Y-128209003D01*
X96642667Y-128220000D01*
X96642676Y-128220000D01*
X96679999Y-128223676D01*
X96717322Y-128220000D01*
X97181822Y-128220000D01*
X97306525Y-128406632D01*
X97513368Y-128613475D01*
X97687760Y-128730000D01*
X97513368Y-128846525D01*
X97306525Y-129053368D01*
X97181822Y-129240000D01*
X94488072Y-129240000D01*
X94488072Y-129150000D01*
X94475812Y-129025518D01*
X94439502Y-128905820D01*
X94380537Y-128795506D01*
X94301185Y-128698815D01*
X94204494Y-128619463D01*
X94094180Y-128560498D01*
X94013534Y-128536034D01*
X94097588Y-128460269D01*
X94271641Y-128226920D01*
X94396825Y-127964099D01*
X94441476Y-127816890D01*
X94320155Y-127587000D01*
X93127000Y-127587000D01*
X93127000Y-127607000D01*
X92873000Y-127607000D01*
X92873000Y-127587000D01*
X91679845Y-127587000D01*
X91558524Y-127816890D01*
X91603175Y-127964099D01*
X91728359Y-128226920D01*
X91902412Y-128460269D01*
X91986466Y-128536034D01*
X91905820Y-128560498D01*
X91795506Y-128619463D01*
X91698815Y-128698815D01*
X91619463Y-128795506D01*
X91560498Y-128905820D01*
X91524188Y-129025518D01*
X91511928Y-129150000D01*
X91511928Y-130850000D01*
X91524188Y-130974482D01*
X91560498Y-131094180D01*
X91619463Y-131204494D01*
X91698815Y-131301185D01*
X91795506Y-131380537D01*
X91905820Y-131439502D01*
X92025518Y-131475812D01*
X92150000Y-131488072D01*
X93850000Y-131488072D01*
X93974482Y-131475812D01*
X94094180Y-131439502D01*
X94204494Y-131380537D01*
X94301185Y-131301185D01*
X94380537Y-131204494D01*
X94439502Y-131094180D01*
X94475812Y-130974482D01*
X94488072Y-130850000D01*
X94488072Y-130760000D01*
X97181822Y-130760000D01*
X97306525Y-130946632D01*
X97513368Y-131153475D01*
X97756589Y-131315990D01*
X98026842Y-131427932D01*
X98313740Y-131485000D01*
X98606260Y-131485000D01*
X98893158Y-131427932D01*
X99163411Y-131315990D01*
X99406632Y-131153475D01*
X99538487Y-131021620D01*
X99560498Y-131094180D01*
X99619463Y-131204494D01*
X99698815Y-131301185D01*
X99776574Y-131365000D01*
X99641984Y-131365000D01*
X98939710Y-131504691D01*
X98278182Y-131778705D01*
X97682823Y-132176511D01*
X97176511Y-132682823D01*
X96778705Y-133278182D01*
X96504691Y-133939710D01*
X96365000Y-134641984D01*
X96365000Y-135358016D01*
X96504691Y-136060290D01*
X96778705Y-136721818D01*
X97176511Y-137317177D01*
X97682823Y-137823489D01*
X98278182Y-138221295D01*
X98564761Y-138340000D01*
X90660000Y-138340000D01*
X90660000Y-127103110D01*
X91558524Y-127103110D01*
X91679845Y-127333000D01*
X92873000Y-127333000D01*
X92873000Y-126139186D01*
X93127000Y-126139186D01*
X93127000Y-127333000D01*
X94320155Y-127333000D01*
X94441476Y-127103110D01*
X94396825Y-126955901D01*
X94271641Y-126693080D01*
X94097588Y-126459731D01*
X93881355Y-126264822D01*
X93631252Y-126115843D01*
X93356891Y-126018519D01*
X93127000Y-126139186D01*
X92873000Y-126139186D01*
X92643109Y-126018519D01*
X92368748Y-126115843D01*
X92118645Y-126264822D01*
X91902412Y-126459731D01*
X91728359Y-126693080D01*
X91603175Y-126955901D01*
X91558524Y-127103110D01*
X90660000Y-127103110D01*
X90660000Y-70000000D01*
X97599928Y-70000000D01*
X97612188Y-70124482D01*
X97648498Y-70244180D01*
X97707463Y-70354494D01*
X97786815Y-70451185D01*
X97883506Y-70530537D01*
X97993820Y-70589502D01*
X98113518Y-70625812D01*
X98238000Y-70638072D01*
X98714250Y-70635000D01*
X98873000Y-70476250D01*
X98873000Y-69127000D01*
X99127000Y-69127000D01*
X99127000Y-70476250D01*
X99285750Y-70635000D01*
X99762000Y-70638072D01*
X99886482Y-70625812D01*
X100006180Y-70589502D01*
X100116494Y-70530537D01*
X100213185Y-70451185D01*
X100292537Y-70354494D01*
X100351502Y-70244180D01*
X100387812Y-70124482D01*
X100400072Y-70000000D01*
X100397000Y-69285750D01*
X100238250Y-69127000D01*
X99127000Y-69127000D01*
X98873000Y-69127000D01*
X97761750Y-69127000D01*
X97603000Y-69285750D01*
X97599928Y-70000000D01*
X90660000Y-70000000D01*
X90660000Y-68000000D01*
X97599928Y-68000000D01*
X97603000Y-68714250D01*
X97761750Y-68873000D01*
X98873000Y-68873000D01*
X98873000Y-67523750D01*
X99127000Y-67523750D01*
X99127000Y-68873000D01*
X100238250Y-68873000D01*
X100397000Y-68714250D01*
X100400072Y-68000000D01*
X100387812Y-67875518D01*
X100351502Y-67755820D01*
X100292537Y-67645506D01*
X100213185Y-67548815D01*
X100116494Y-67469463D01*
X100006180Y-67410498D01*
X99886482Y-67374188D01*
X99762000Y-67361928D01*
X99285750Y-67365000D01*
X99127000Y-67523750D01*
X98873000Y-67523750D01*
X98714250Y-67365000D01*
X98238000Y-67361928D01*
X98113518Y-67374188D01*
X97993820Y-67410498D01*
X97883506Y-67469463D01*
X97786815Y-67548815D01*
X97707463Y-67645506D01*
X97648498Y-67755820D01*
X97612188Y-67875518D01*
X97599928Y-68000000D01*
X90660000Y-68000000D01*
X90660000Y-66000000D01*
X97599928Y-66000000D01*
X97612188Y-66124482D01*
X97648498Y-66244180D01*
X97707463Y-66354494D01*
X97786815Y-66451185D01*
X97883506Y-66530537D01*
X97993820Y-66589502D01*
X98113518Y-66625812D01*
X98238000Y-66638072D01*
X98714250Y-66635000D01*
X98873000Y-66476250D01*
X98873000Y-65127000D01*
X99127000Y-65127000D01*
X99127000Y-66476250D01*
X99285750Y-66635000D01*
X99762000Y-66638072D01*
X99886482Y-66625812D01*
X100006180Y-66589502D01*
X100116494Y-66530537D01*
X100213185Y-66451185D01*
X100292537Y-66354494D01*
X100351502Y-66244180D01*
X100387812Y-66124482D01*
X100400072Y-66000000D01*
X100397000Y-65285750D01*
X100238250Y-65127000D01*
X99127000Y-65127000D01*
X98873000Y-65127000D01*
X97761750Y-65127000D01*
X97603000Y-65285750D01*
X97599928Y-66000000D01*
X90660000Y-66000000D01*
X90660000Y-64000000D01*
X97599928Y-64000000D01*
X97603000Y-64714250D01*
X97761750Y-64873000D01*
X98873000Y-64873000D01*
X98873000Y-63523750D01*
X99127000Y-63523750D01*
X99127000Y-64873000D01*
X100238250Y-64873000D01*
X100397000Y-64714250D01*
X100400072Y-64000000D01*
X101599928Y-64000000D01*
X101599928Y-66000000D01*
X101612188Y-66124482D01*
X101648498Y-66244180D01*
X101707463Y-66354494D01*
X101786815Y-66451185D01*
X101883506Y-66530537D01*
X101993820Y-66589502D01*
X102113518Y-66625812D01*
X102238000Y-66638072D01*
X102240001Y-66638072D01*
X102240000Y-67361928D01*
X102238000Y-67361928D01*
X102113518Y-67374188D01*
X101993820Y-67410498D01*
X101883506Y-67469463D01*
X101786815Y-67548815D01*
X101707463Y-67645506D01*
X101648498Y-67755820D01*
X101612188Y-67875518D01*
X101599928Y-68000000D01*
X101599928Y-70000000D01*
X101612188Y-70124482D01*
X101648498Y-70244180D01*
X101707463Y-70354494D01*
X101786815Y-70451185D01*
X101883506Y-70530537D01*
X101993820Y-70589502D01*
X102113518Y-70625812D01*
X102238000Y-70638072D01*
X103762000Y-70638072D01*
X103886482Y-70625812D01*
X104006180Y-70589502D01*
X104116494Y-70530537D01*
X104213185Y-70451185D01*
X104292537Y-70354494D01*
X104351502Y-70244180D01*
X104387812Y-70124482D01*
X104394163Y-70060000D01*
X104396289Y-70060000D01*
X104440226Y-70103937D01*
X104609744Y-70217205D01*
X104798102Y-70295226D01*
X104998061Y-70335000D01*
X105201939Y-70335000D01*
X105401898Y-70295226D01*
X105590256Y-70217205D01*
X105759774Y-70103937D01*
X105903937Y-69959774D01*
X106017205Y-69790256D01*
X106095226Y-69601898D01*
X106135000Y-69401939D01*
X106135000Y-69198061D01*
X106095226Y-68998102D01*
X106017205Y-68809744D01*
X105903937Y-68640226D01*
X105759774Y-68496063D01*
X105590256Y-68382795D01*
X105401898Y-68304774D01*
X105201939Y-68265000D01*
X104998061Y-68265000D01*
X104798102Y-68304774D01*
X104609744Y-68382795D01*
X104440226Y-68496063D01*
X104400072Y-68536217D01*
X104400072Y-68000000D01*
X104387812Y-67875518D01*
X104351502Y-67755820D01*
X104292537Y-67645506D01*
X104213185Y-67548815D01*
X104116494Y-67469463D01*
X104006180Y-67410498D01*
X103886482Y-67374188D01*
X103762000Y-67361928D01*
X103760000Y-67361928D01*
X103760000Y-66638072D01*
X103762000Y-66638072D01*
X103886482Y-66625812D01*
X104006180Y-66589502D01*
X104116494Y-66530537D01*
X104213185Y-66451185D01*
X104292537Y-66354494D01*
X104351502Y-66244180D01*
X104387812Y-66124482D01*
X104400072Y-66000000D01*
X104400072Y-64000000D01*
X104387812Y-63875518D01*
X104351502Y-63755820D01*
X104292537Y-63645506D01*
X104213185Y-63548815D01*
X104116494Y-63469463D01*
X104006180Y-63410498D01*
X103886482Y-63374188D01*
X103762000Y-63361928D01*
X102238000Y-63361928D01*
X102113518Y-63374188D01*
X101993820Y-63410498D01*
X101883506Y-63469463D01*
X101786815Y-63548815D01*
X101707463Y-63645506D01*
X101648498Y-63755820D01*
X101612188Y-63875518D01*
X101599928Y-64000000D01*
X100400072Y-64000000D01*
X100387812Y-63875518D01*
X100351502Y-63755820D01*
X100292537Y-63645506D01*
X100213185Y-63548815D01*
X100116494Y-63469463D01*
X100006180Y-63410498D01*
X99886482Y-63374188D01*
X99762000Y-63361928D01*
X99285750Y-63365000D01*
X99127000Y-63523750D01*
X98873000Y-63523750D01*
X98714250Y-63365000D01*
X98238000Y-63361928D01*
X98113518Y-63374188D01*
X97993820Y-63410498D01*
X97883506Y-63469463D01*
X97786815Y-63548815D01*
X97707463Y-63645506D01*
X97648498Y-63755820D01*
X97612188Y-63875518D01*
X97599928Y-64000000D01*
X90660000Y-64000000D01*
X90660000Y-60660000D01*
X112465197Y-60660000D01*
X109688998Y-63436201D01*
G37*
%TD.AperFunction*%
D25*
X189340001Y-75564763D02*
X189221295Y-75278182D01*
X188823489Y-74682823D01*
X188317177Y-74176511D01*
X187721818Y-73778705D01*
X187060290Y-73504691D01*
X186358016Y-73365000D01*
X185641984Y-73365000D01*
X184939710Y-73504691D01*
X184278182Y-73778705D01*
X183682823Y-74176511D01*
X183176511Y-74682823D01*
X182778705Y-75278182D01*
X182504691Y-75939710D01*
X182365000Y-76641984D01*
X182365000Y-77358016D01*
X182504691Y-78060290D01*
X182778705Y-78721818D01*
X183176511Y-79317177D01*
X183682823Y-79823489D01*
X184278182Y-80221295D01*
X184939710Y-80495309D01*
X185641984Y-80635000D01*
X186358016Y-80635000D01*
X187060290Y-80495309D01*
X187721818Y-80221295D01*
X188317177Y-79823489D01*
X188823489Y-79317177D01*
X189221295Y-78721818D01*
X189340001Y-78435237D01*
X189340001Y-82010000D01*
X180982419Y-82010000D01*
X180950000Y-82006807D01*
X180917581Y-82010000D01*
X180820617Y-82019550D01*
X180696207Y-82057290D01*
X180581550Y-82118575D01*
X180481052Y-82201052D01*
X180398575Y-82301550D01*
X180337290Y-82416207D01*
X180299550Y-82540617D01*
X180286807Y-82670000D01*
X180290000Y-82702419D01*
X180290000Y-87870792D01*
X180200000Y-87861928D01*
X179735750Y-87865000D01*
X179577000Y-88023750D01*
X179577000Y-88873000D01*
X179597000Y-88873000D01*
X179597000Y-89127000D01*
X179577000Y-89127000D01*
X179577000Y-89976250D01*
X179735750Y-90135000D01*
X180200000Y-90138072D01*
X180290001Y-90129208D01*
X180290001Y-96260000D01*
X107082419Y-96260000D01*
X107050000Y-96256807D01*
X107017581Y-96260000D01*
X106920617Y-96269550D01*
X106796207Y-96307290D01*
X106681550Y-96368575D01*
X106581052Y-96451052D01*
X106498575Y-96551550D01*
X106437290Y-96666207D01*
X106399550Y-96790617D01*
X106386807Y-96920000D01*
X106390001Y-96952429D01*
X106390000Y-138340000D01*
X101435239Y-138340000D01*
X101721818Y-138221295D01*
X102317177Y-137823489D01*
X102823489Y-137317177D01*
X103221295Y-136721818D01*
X103495309Y-136060290D01*
X103635000Y-135358016D01*
X103635000Y-134641984D01*
X103495309Y-133939710D01*
X103221295Y-133278182D01*
X102823489Y-132682823D01*
X102317177Y-132176511D01*
X101721818Y-131778705D01*
X101060290Y-131504691D01*
X100976741Y-131488072D01*
X101850000Y-131488072D01*
X101974482Y-131475812D01*
X102094180Y-131439502D01*
X102204494Y-131380537D01*
X102301185Y-131301185D01*
X102380537Y-131204494D01*
X102439502Y-131094180D01*
X102475812Y-130974482D01*
X102488072Y-130850000D01*
X102488072Y-129150000D01*
X102475812Y-129025518D01*
X102439502Y-128905820D01*
X102380537Y-128795506D01*
X102301185Y-128698815D01*
X102204494Y-128619463D01*
X102094180Y-128560498D01*
X102021620Y-128538487D01*
X102153475Y-128406632D01*
X102278178Y-128220000D01*
X103072678Y-128220000D01*
X103110000Y-128223676D01*
X103147322Y-128220000D01*
X103147333Y-128220000D01*
X103258986Y-128209003D01*
X103402247Y-128165546D01*
X103534276Y-128094974D01*
X103650001Y-128000001D01*
X103673804Y-127970997D01*
X104841003Y-126803799D01*
X104870001Y-126780001D01*
X104964974Y-126664276D01*
X105035546Y-126532247D01*
X105079003Y-126388986D01*
X105090000Y-126277333D01*
X105093677Y-126240000D01*
X105090000Y-126202667D01*
X105090000Y-97424801D01*
X106694802Y-95820000D01*
X110172678Y-95820000D01*
X110210000Y-95823676D01*
X110247322Y-95820000D01*
X110247333Y-95820000D01*
X110358986Y-95809003D01*
X110502247Y-95765546D01*
X110634276Y-95694974D01*
X110750001Y-95600001D01*
X110773804Y-95570997D01*
X111659802Y-94685000D01*
X111721939Y-94685000D01*
X111921898Y-94645226D01*
X112110256Y-94567205D01*
X112279774Y-94453937D01*
X112423937Y-94309774D01*
X112537205Y-94140256D01*
X112615226Y-93951898D01*
X112655000Y-93751939D01*
X112655000Y-93548061D01*
X112616975Y-93356891D01*
X115478519Y-93356891D01*
X115575843Y-93631252D01*
X115724822Y-93881355D01*
X115919731Y-94097588D01*
X116153080Y-94271641D01*
X116415901Y-94396825D01*
X116563110Y-94441476D01*
X116793000Y-94320155D01*
X116793000Y-93127000D01*
X117047000Y-93127000D01*
X117047000Y-94320155D01*
X117276890Y-94441476D01*
X117424099Y-94396825D01*
X117686920Y-94271641D01*
X117920269Y-94097588D01*
X118115178Y-93881355D01*
X118190000Y-93755745D01*
X118264822Y-93881355D01*
X118459731Y-94097588D01*
X118693080Y-94271641D01*
X118955901Y-94396825D01*
X119103110Y-94441476D01*
X119333000Y-94320155D01*
X119333000Y-93127000D01*
X119587000Y-93127000D01*
X119587000Y-94320155D01*
X119816890Y-94441476D01*
X119964099Y-94396825D01*
X120226920Y-94271641D01*
X120460269Y-94097588D01*
X120655178Y-93881355D01*
X120730000Y-93755745D01*
X120804822Y-93881355D01*
X120999731Y-94097588D01*
X121233080Y-94271641D01*
X121495901Y-94396825D01*
X121643110Y-94441476D01*
X121873000Y-94320155D01*
X121873000Y-93127000D01*
X122127000Y-93127000D01*
X122127000Y-94320155D01*
X122356890Y-94441476D01*
X122504099Y-94396825D01*
X122766920Y-94271641D01*
X123000269Y-94097588D01*
X123195178Y-93881355D01*
X123344157Y-93631252D01*
X123441481Y-93356891D01*
X123320814Y-93127000D01*
X122127000Y-93127000D01*
X121873000Y-93127000D01*
X119587000Y-93127000D01*
X119333000Y-93127000D01*
X117047000Y-93127000D01*
X116793000Y-93127000D01*
X115599186Y-93127000D01*
X115478519Y-93356891D01*
X112616975Y-93356891D01*
X112615226Y-93348102D01*
X112537205Y-93159744D01*
X112423937Y-92990226D01*
X112279774Y-92846063D01*
X112110256Y-92732795D01*
X111921898Y-92654774D01*
X111721939Y-92615000D01*
X111678478Y-92615000D01*
X111655226Y-92498102D01*
X111577205Y-92309744D01*
X111463937Y-92140226D01*
X111319774Y-91996063D01*
X111150256Y-91882795D01*
X110961898Y-91804774D01*
X110761939Y-91765000D01*
X110558061Y-91765000D01*
X110358102Y-91804774D01*
X110169744Y-91882795D01*
X110000226Y-91996063D01*
X109856063Y-92140226D01*
X109742795Y-92309744D01*
X109664774Y-92498102D01*
X109625000Y-92698061D01*
X109625000Y-92720198D01*
X108755199Y-93590000D01*
X105767333Y-93590000D01*
X105730000Y-93586323D01*
X105692667Y-93590000D01*
X105581014Y-93600997D01*
X105437753Y-93644454D01*
X105305724Y-93715026D01*
X105189999Y-93809999D01*
X105166201Y-93838997D01*
X102968998Y-96036201D01*
X102940000Y-96059999D01*
X102916202Y-96088997D01*
X102916201Y-96088998D01*
X102845026Y-96175724D01*
X102774454Y-96307754D01*
X102730998Y-96451015D01*
X102716324Y-96600000D01*
X102720001Y-96637333D01*
X102720000Y-124055198D01*
X102615198Y-124160000D01*
X102278178Y-124160000D01*
X102153475Y-123973368D01*
X101946632Y-123766525D01*
X101772240Y-123650000D01*
X101946632Y-123533475D01*
X102153475Y-123326632D01*
X102315990Y-123083411D01*
X102427932Y-122813158D01*
X102485000Y-122526260D01*
X102485000Y-122233740D01*
X102427932Y-121946842D01*
X102315990Y-121676589D01*
X102153475Y-121433368D01*
X101946632Y-121226525D01*
X101764466Y-121104805D01*
X101881355Y-121035178D01*
X102097588Y-120840269D01*
X102271641Y-120606920D01*
X102396825Y-120344099D01*
X102441476Y-120196890D01*
X102320155Y-119967000D01*
X101127000Y-119967000D01*
X101127000Y-119987000D01*
X100873000Y-119987000D01*
X100873000Y-119967000D01*
X100853000Y-119967000D01*
X100853000Y-119713000D01*
X100873000Y-119713000D01*
X100873000Y-119693000D01*
X101127000Y-119693000D01*
X101127000Y-119713000D01*
X102320155Y-119713000D01*
X102441476Y-119483110D01*
X102396825Y-119335901D01*
X102271641Y-119073080D01*
X102097588Y-118839731D01*
X101881355Y-118644822D01*
X101764466Y-118575195D01*
X101946632Y-118453475D01*
X102153475Y-118246632D01*
X102315990Y-118003411D01*
X102427932Y-117733158D01*
X102485000Y-117446260D01*
X102485000Y-117153740D01*
X102427932Y-116866842D01*
X102315990Y-116596589D01*
X102153475Y-116353368D01*
X101946632Y-116146525D01*
X101772240Y-116030000D01*
X101946632Y-115913475D01*
X102153475Y-115706632D01*
X102315990Y-115463411D01*
X102427932Y-115193158D01*
X102485000Y-114906260D01*
X102485000Y-114613740D01*
X102427932Y-114326842D01*
X102315990Y-114056589D01*
X102153475Y-113813368D01*
X101946632Y-113606525D01*
X101772240Y-113490000D01*
X101946632Y-113373475D01*
X102153475Y-113166632D01*
X102315990Y-112923411D01*
X102427932Y-112653158D01*
X102485000Y-112366260D01*
X102485000Y-112073740D01*
X102427932Y-111786842D01*
X102315990Y-111516589D01*
X102153475Y-111273368D01*
X101946632Y-111066525D01*
X101772240Y-110950000D01*
X101946632Y-110833475D01*
X102153475Y-110626632D01*
X102315990Y-110383411D01*
X102427932Y-110113158D01*
X102485000Y-109826260D01*
X102485000Y-109533740D01*
X102427932Y-109246842D01*
X102315990Y-108976589D01*
X102153475Y-108733368D01*
X101946632Y-108526525D01*
X101772240Y-108410000D01*
X101946632Y-108293475D01*
X102153475Y-108086632D01*
X102315990Y-107843411D01*
X102427932Y-107573158D01*
X102485000Y-107286260D01*
X102485000Y-106993740D01*
X102427932Y-106706842D01*
X102315990Y-106436589D01*
X102153475Y-106193368D01*
X101946632Y-105986525D01*
X101772240Y-105870000D01*
X101946632Y-105753475D01*
X102153475Y-105546632D01*
X102315990Y-105303411D01*
X102427932Y-105033158D01*
X102485000Y-104746260D01*
X102485000Y-104453740D01*
X102427932Y-104166842D01*
X102315990Y-103896589D01*
X102153475Y-103653368D01*
X101946632Y-103446525D01*
X101772240Y-103330000D01*
X101946632Y-103213475D01*
X102153475Y-103006632D01*
X102315990Y-102763411D01*
X102427932Y-102493158D01*
X102485000Y-102206260D01*
X102485000Y-101913740D01*
X102427932Y-101626842D01*
X102315990Y-101356589D01*
X102153475Y-101113368D01*
X101946632Y-100906525D01*
X101764466Y-100784805D01*
X101881355Y-100715178D01*
X102097588Y-100520269D01*
X102271641Y-100286920D01*
X102396825Y-100024099D01*
X102441476Y-99876890D01*
X102320155Y-99647000D01*
X101127000Y-99647000D01*
X101127000Y-99667000D01*
X100873000Y-99667000D01*
X100873000Y-99647000D01*
X100853000Y-99647000D01*
X100853000Y-99393000D01*
X100873000Y-99393000D01*
X100873000Y-99373000D01*
X101127000Y-99373000D01*
X101127000Y-99393000D01*
X102320155Y-99393000D01*
X102441476Y-99163110D01*
X102396825Y-99015901D01*
X102271641Y-98753080D01*
X102097588Y-98519731D01*
X101881355Y-98324822D01*
X101764466Y-98255195D01*
X101946632Y-98133475D01*
X102153475Y-97926632D01*
X102315990Y-97683411D01*
X102427932Y-97413158D01*
X102485000Y-97126260D01*
X102485000Y-96833740D01*
X102427932Y-96546842D01*
X102315990Y-96276589D01*
X102153475Y-96033368D01*
X101946632Y-95826525D01*
X101772240Y-95710000D01*
X101946632Y-95593475D01*
X102153475Y-95386632D01*
X102315990Y-95143411D01*
X102427932Y-94873158D01*
X102485000Y-94586260D01*
X102485000Y-94293740D01*
X102427932Y-94006842D01*
X102315990Y-93736589D01*
X102153475Y-93493368D01*
X101946632Y-93286525D01*
X101772240Y-93170000D01*
X101946632Y-93053475D01*
X102153475Y-92846632D01*
X102315990Y-92603411D01*
X102427932Y-92333158D01*
X102485000Y-92046260D01*
X102485000Y-91753740D01*
X102427932Y-91466842D01*
X102315990Y-91196589D01*
X102153475Y-90953368D01*
X101946632Y-90746525D01*
X101772240Y-90630000D01*
X101946632Y-90513475D01*
X102153475Y-90306632D01*
X102315990Y-90063411D01*
X102427932Y-89793158D01*
X102485000Y-89506260D01*
X102485000Y-89213740D01*
X102427932Y-88926842D01*
X102315990Y-88656589D01*
X102153475Y-88413368D01*
X101946632Y-88206525D01*
X101772240Y-88090000D01*
X101946632Y-87973475D01*
X102153475Y-87766632D01*
X102315990Y-87523411D01*
X102427932Y-87253158D01*
X102485000Y-86966260D01*
X102485000Y-86673740D01*
X102427932Y-86386842D01*
X102315990Y-86116589D01*
X102153475Y-85873368D01*
X101946632Y-85666525D01*
X101772240Y-85550000D01*
X101946632Y-85433475D01*
X102153475Y-85226632D01*
X102315990Y-84983411D01*
X102427932Y-84713158D01*
X102485000Y-84426260D01*
X102485000Y-84133740D01*
X102427932Y-83846842D01*
X102315990Y-83576589D01*
X102153475Y-83333368D01*
X101946632Y-83126525D01*
X101764466Y-83004805D01*
X101881355Y-82935178D01*
X102097588Y-82740269D01*
X102271641Y-82506920D01*
X102396825Y-82244099D01*
X102441476Y-82096890D01*
X102320155Y-81867000D01*
X101127000Y-81867000D01*
X101127000Y-81887000D01*
X100873000Y-81887000D01*
X100873000Y-81867000D01*
X100853000Y-81867000D01*
X100853000Y-81613000D01*
X100873000Y-81613000D01*
X100873000Y-81593000D01*
X101127000Y-81593000D01*
X101127000Y-81613000D01*
X102320155Y-81613000D01*
X102441476Y-81383110D01*
X102396825Y-81235901D01*
X102271641Y-80973080D01*
X102097588Y-80739731D01*
X101881355Y-80544822D01*
X101631252Y-80395843D01*
X101453041Y-80332626D01*
X101721818Y-80221295D01*
X102317177Y-79823489D01*
X102565001Y-79575665D01*
X102565002Y-85987669D01*
X102561325Y-86025001D01*
X102565002Y-86062334D01*
X102575999Y-86173987D01*
X102579567Y-86185750D01*
X102619455Y-86317247D01*
X102690027Y-86449277D01*
X102731655Y-86500000D01*
X102785001Y-86565002D01*
X102813999Y-86588800D01*
X103611201Y-87386003D01*
X103634999Y-87415001D01*
X103663997Y-87438799D01*
X103750723Y-87509974D01*
X103835982Y-87555546D01*
X103882753Y-87580546D01*
X104026014Y-87624003D01*
X104137667Y-87635000D01*
X104137676Y-87635000D01*
X104149318Y-87636147D01*
X104186595Y-87705886D01*
X104297038Y-87840462D01*
X104431614Y-87950905D01*
X104585150Y-88032972D01*
X104751746Y-88083508D01*
X104925000Y-88100572D01*
X105875000Y-88100572D01*
X106048254Y-88083508D01*
X106214850Y-88032972D01*
X106368386Y-87950905D01*
X106502962Y-87840462D01*
X106557431Y-87774091D01*
X106645518Y-87800812D01*
X106770000Y-87813072D01*
X108030000Y-87813072D01*
X108154482Y-87800812D01*
X108274180Y-87764502D01*
X108384494Y-87705537D01*
X108481185Y-87626185D01*
X108500000Y-87603259D01*
X108518815Y-87626185D01*
X108615506Y-87705537D01*
X108725820Y-87764502D01*
X108845518Y-87800812D01*
X108970000Y-87813072D01*
X110230000Y-87813072D01*
X110354482Y-87800812D01*
X110474180Y-87764502D01*
X110584494Y-87705537D01*
X110681185Y-87626185D01*
X110760537Y-87529494D01*
X110819502Y-87419180D01*
X110838648Y-87356065D01*
X110836928Y-87525000D01*
X110849188Y-87649482D01*
X110885498Y-87769180D01*
X110944463Y-87879494D01*
X111023815Y-87976185D01*
X111120506Y-88055537D01*
X111230820Y-88114502D01*
X111350518Y-88150812D01*
X111475000Y-88163072D01*
X111914250Y-88160000D01*
X112073000Y-88001250D01*
X112073000Y-87064500D01*
X112327000Y-87064500D01*
X112327000Y-88001250D01*
X112485750Y-88160000D01*
X112925000Y-88163072D01*
X113049482Y-88150812D01*
X113169180Y-88114502D01*
X113279494Y-88055537D01*
X113376185Y-87976185D01*
X113455537Y-87879494D01*
X113514502Y-87769180D01*
X113550812Y-87649482D01*
X113563072Y-87525000D01*
X113560000Y-87223250D01*
X113401250Y-87064500D01*
X112327000Y-87064500D01*
X112073000Y-87064500D01*
X112053000Y-87064500D01*
X112053000Y-86810500D01*
X112073000Y-86810500D01*
X112073000Y-86790500D01*
X112327000Y-86790500D01*
X112327000Y-86810500D01*
X113401250Y-86810500D01*
X113560000Y-86651750D01*
X113563072Y-86350000D01*
X113550812Y-86225518D01*
X113514502Y-86105820D01*
X113455537Y-85995506D01*
X113376185Y-85898815D01*
X113296406Y-85833342D01*
X113302962Y-85827962D01*
X113413405Y-85693386D01*
X113451294Y-85622500D01*
X114047699Y-85622500D01*
X114960000Y-86534802D01*
X114960001Y-89222668D01*
X114956324Y-89260000D01*
X114960001Y-89297333D01*
X114966747Y-89365820D01*
X114970998Y-89408985D01*
X115014454Y-89552246D01*
X115085026Y-89684276D01*
X115147172Y-89760000D01*
X115180000Y-89800001D01*
X115208998Y-89823799D01*
X115478791Y-90093592D01*
X115435000Y-90313740D01*
X115435000Y-90606260D01*
X115492068Y-90893158D01*
X115604010Y-91163411D01*
X115766525Y-91406632D01*
X115973368Y-91613475D01*
X116149406Y-91731100D01*
X115919731Y-91902412D01*
X115724822Y-92118645D01*
X115575843Y-92368748D01*
X115478519Y-92643109D01*
X115599186Y-92873000D01*
X116793000Y-92873000D01*
X116793000Y-92853000D01*
X117047000Y-92853000D01*
X117047000Y-92873000D01*
X119333000Y-92873000D01*
X119333000Y-92853000D01*
X119587000Y-92853000D01*
X119587000Y-92873000D01*
X121873000Y-92873000D01*
X121873000Y-92853000D01*
X122127000Y-92853000D01*
X122127000Y-92873000D01*
X123320814Y-92873000D01*
X123441481Y-92643109D01*
X123344157Y-92368748D01*
X123195178Y-92118645D01*
X123018374Y-91922498D01*
X123094180Y-91899502D01*
X123204494Y-91840537D01*
X123301185Y-91761185D01*
X123380537Y-91664494D01*
X123439502Y-91554180D01*
X123475812Y-91434482D01*
X123488072Y-91310000D01*
X123488072Y-90516729D01*
X124979127Y-89025675D01*
X125022038Y-89077962D01*
X125156613Y-89188405D01*
X125240001Y-89232977D01*
X125240000Y-91767023D01*
X125156613Y-91811595D01*
X125022038Y-91922038D01*
X124911595Y-92056613D01*
X124829528Y-92210149D01*
X124778992Y-92376745D01*
X124761928Y-92549999D01*
X124761928Y-93450001D01*
X124778992Y-93623255D01*
X124829528Y-93789851D01*
X124911595Y-93943387D01*
X125022038Y-94077962D01*
X125156613Y-94188405D01*
X125250983Y-94238847D01*
X125250997Y-94238985D01*
X125284673Y-94350001D01*
X125294454Y-94382246D01*
X125365026Y-94514276D01*
X125393522Y-94548998D01*
X125459999Y-94630001D01*
X125489002Y-94653803D01*
X126096200Y-95261002D01*
X126119999Y-95290001D01*
X126148997Y-95313799D01*
X126235723Y-95384974D01*
X126339172Y-95440269D01*
X126367753Y-95455546D01*
X126511014Y-95499003D01*
X126622667Y-95510000D01*
X126622677Y-95510000D01*
X126660000Y-95513676D01*
X126697323Y-95510000D01*
X136112678Y-95510000D01*
X136150000Y-95513676D01*
X136187322Y-95510000D01*
X136187333Y-95510000D01*
X136298986Y-95499003D01*
X136442247Y-95455546D01*
X136574276Y-95384974D01*
X136690001Y-95290001D01*
X136713803Y-95260998D01*
X137061003Y-94913799D01*
X137090001Y-94890001D01*
X137184974Y-94774276D01*
X137255546Y-94642247D01*
X137299003Y-94498986D01*
X137310000Y-94387333D01*
X137310000Y-94387324D01*
X137313676Y-94350001D01*
X137310000Y-94312678D01*
X137310000Y-94078178D01*
X137496632Y-93953475D01*
X137703475Y-93746632D01*
X137865990Y-93503411D01*
X137977932Y-93233158D01*
X138035000Y-92946260D01*
X138035000Y-92653740D01*
X137977932Y-92366842D01*
X137865990Y-92096589D01*
X137703475Y-91853368D01*
X137496632Y-91646525D01*
X137310000Y-91521822D01*
X137310000Y-91500000D01*
X175861928Y-91500000D01*
X175874188Y-91624482D01*
X175910498Y-91744180D01*
X175969463Y-91854494D01*
X176048815Y-91951185D01*
X176145506Y-92030537D01*
X176255820Y-92089502D01*
X176375518Y-92125812D01*
X176500000Y-92138072D01*
X177314250Y-92135000D01*
X177473000Y-91976250D01*
X177473000Y-90852000D01*
X177727000Y-90852000D01*
X177727000Y-91976250D01*
X177885750Y-92135000D01*
X178700000Y-92138072D01*
X178824482Y-92125812D01*
X178944180Y-92089502D01*
X179054494Y-92030537D01*
X179151185Y-91951185D01*
X179230537Y-91854494D01*
X179289502Y-91744180D01*
X179325812Y-91624482D01*
X179338072Y-91500000D01*
X179335000Y-91010750D01*
X179176250Y-90852000D01*
X177727000Y-90852000D01*
X177473000Y-90852000D01*
X176023750Y-90852000D01*
X175865000Y-91010750D01*
X175861928Y-91500000D01*
X137310000Y-91500000D01*
X137310000Y-89428178D01*
X137496632Y-89303475D01*
X137703475Y-89096632D01*
X137828178Y-88910000D01*
X145122678Y-88910000D01*
X145160000Y-88913676D01*
X145197322Y-88910000D01*
X145197333Y-88910000D01*
X145308986Y-88899003D01*
X145452247Y-88855546D01*
X145584276Y-88784974D01*
X145700001Y-88690001D01*
X145723804Y-88660997D01*
X148239802Y-86145000D01*
X148301939Y-86145000D01*
X148501898Y-86105226D01*
X148690256Y-86027205D01*
X148859774Y-85913937D01*
X148903711Y-85870000D01*
X155699680Y-85870000D01*
X155737002Y-85873676D01*
X155774324Y-85870000D01*
X155774335Y-85870000D01*
X155885988Y-85859003D01*
X156029249Y-85815546D01*
X156161278Y-85744974D01*
X156277003Y-85650001D01*
X156300806Y-85620997D01*
X164159803Y-77762000D01*
X172861928Y-77762000D01*
X172874188Y-77886482D01*
X172908623Y-78000000D01*
X172874188Y-78113518D01*
X172861928Y-78238000D01*
X172861928Y-79762000D01*
X172874188Y-79886482D01*
X172910498Y-80006180D01*
X172969463Y-80116494D01*
X173048815Y-80213185D01*
X173145506Y-80292537D01*
X173240000Y-80343046D01*
X173240001Y-82362668D01*
X173236324Y-82400000D01*
X173240001Y-82437333D01*
X173250998Y-82548986D01*
X173264180Y-82592442D01*
X173294454Y-82692246D01*
X173365026Y-82824276D01*
X173427034Y-82899832D01*
X173460000Y-82940001D01*
X173488998Y-82963799D01*
X173711928Y-83186729D01*
X173711928Y-84450000D01*
X173724188Y-84574482D01*
X173760498Y-84694180D01*
X173819463Y-84804494D01*
X173898815Y-84901185D01*
X173995506Y-84980537D01*
X174105820Y-85039502D01*
X174225518Y-85075812D01*
X174350000Y-85088072D01*
X174440000Y-85088072D01*
X174440001Y-88362668D01*
X174436324Y-88400000D01*
X174440001Y-88437333D01*
X174450998Y-88548986D01*
X174459109Y-88575724D01*
X174461928Y-88585018D01*
X174461928Y-89500000D01*
X174474188Y-89624482D01*
X174510498Y-89744180D01*
X174569463Y-89854494D01*
X174648815Y-89951185D01*
X174745506Y-90030537D01*
X174855820Y-90089502D01*
X174975518Y-90125812D01*
X175100000Y-90138072D01*
X175863109Y-90138072D01*
X175865000Y-90439250D01*
X176023750Y-90598000D01*
X177473000Y-90598000D01*
X177473000Y-89473750D01*
X177727000Y-89473750D01*
X177727000Y-90598000D01*
X179176250Y-90598000D01*
X179335000Y-90439250D01*
X179338072Y-89950000D01*
X179325812Y-89825518D01*
X179323000Y-89816248D01*
X179323000Y-89127000D01*
X178223750Y-89127000D01*
X178065000Y-89285750D01*
X178064590Y-89314325D01*
X177885750Y-89315000D01*
X177727000Y-89473750D01*
X177473000Y-89473750D01*
X177314250Y-89315000D01*
X177293426Y-89314921D01*
X177305546Y-89292247D01*
X177349003Y-89148986D01*
X177363677Y-89000000D01*
X177349003Y-88851014D01*
X177305546Y-88707753D01*
X177293426Y-88685079D01*
X177314250Y-88685000D01*
X177473000Y-88526250D01*
X177473000Y-87402000D01*
X177727000Y-87402000D01*
X177727000Y-88526250D01*
X177885750Y-88685000D01*
X178064590Y-88685675D01*
X178065000Y-88714250D01*
X178223750Y-88873000D01*
X179323000Y-88873000D01*
X179323000Y-88183752D01*
X179325812Y-88174482D01*
X179338072Y-88050000D01*
X179335000Y-87560750D01*
X179176250Y-87402000D01*
X177727000Y-87402000D01*
X177473000Y-87402000D01*
X177453000Y-87402000D01*
X177453000Y-87148000D01*
X177473000Y-87148000D01*
X177473000Y-86023750D01*
X177727000Y-86023750D01*
X177727000Y-87148000D01*
X179176250Y-87148000D01*
X179335000Y-86989250D01*
X179338072Y-86500000D01*
X179325812Y-86375518D01*
X179289502Y-86255820D01*
X179230537Y-86145506D01*
X179151185Y-86048815D01*
X179054494Y-85969463D01*
X178944180Y-85910498D01*
X178824482Y-85874188D01*
X178700000Y-85861928D01*
X177885750Y-85865000D01*
X177727000Y-86023750D01*
X177473000Y-86023750D01*
X177314250Y-85865000D01*
X176500000Y-85861928D01*
X176375518Y-85874188D01*
X176255820Y-85910498D01*
X176145506Y-85969463D01*
X176048815Y-86048815D01*
X175969463Y-86145506D01*
X175960000Y-86163210D01*
X175960000Y-85088072D01*
X176050000Y-85088072D01*
X176174482Y-85075812D01*
X176294180Y-85039502D01*
X176404494Y-84980537D01*
X176501185Y-84901185D01*
X176580537Y-84804494D01*
X176639502Y-84694180D01*
X176675812Y-84574482D01*
X176688072Y-84450000D01*
X176688072Y-82750000D01*
X176675812Y-82625518D01*
X176639502Y-82505820D01*
X176580537Y-82395506D01*
X176501185Y-82298815D01*
X176404494Y-82219463D01*
X176294180Y-82160498D01*
X176174482Y-82124188D01*
X176050000Y-82111928D01*
X174786729Y-82111928D01*
X174760000Y-82085199D01*
X174760000Y-80400072D01*
X176500000Y-80400072D01*
X176624482Y-80387812D01*
X176744180Y-80351502D01*
X176854494Y-80292537D01*
X176951185Y-80213185D01*
X177030537Y-80116494D01*
X177089502Y-80006180D01*
X177125812Y-79886482D01*
X177138072Y-79762000D01*
X177138072Y-78238000D01*
X177125812Y-78113518D01*
X177091377Y-78000000D01*
X177125812Y-77886482D01*
X177138072Y-77762000D01*
X177135000Y-77285750D01*
X176976250Y-77127000D01*
X175127000Y-77127000D01*
X175127000Y-77147000D01*
X174873000Y-77147000D01*
X174873000Y-77127000D01*
X173023750Y-77127000D01*
X172865000Y-77285750D01*
X172861928Y-77762000D01*
X164159803Y-77762000D01*
X164511004Y-77410800D01*
X164540001Y-77387003D01*
X164634974Y-77271278D01*
X164683824Y-77179887D01*
X164803937Y-77059774D01*
X164917205Y-76890256D01*
X164995226Y-76701898D01*
X165035000Y-76501939D01*
X165035000Y-76298061D01*
X164995226Y-76098102D01*
X164917205Y-75909744D01*
X164803937Y-75740226D01*
X164659774Y-75596063D01*
X164490256Y-75482795D01*
X164301898Y-75404774D01*
X164101939Y-75365000D01*
X163898061Y-75365000D01*
X163698102Y-75404774D01*
X163509744Y-75482795D01*
X163340226Y-75596063D01*
X163196063Y-75740226D01*
X163082795Y-75909744D01*
X163004774Y-76098102D01*
X162965000Y-76298061D01*
X162965000Y-76501939D01*
X163004774Y-76701898D01*
X163023967Y-76748233D01*
X161135500Y-78636700D01*
X161138072Y-78238000D01*
X161125812Y-78113518D01*
X161091377Y-78000000D01*
X161125812Y-77886482D01*
X161138072Y-77762000D01*
X161138072Y-76238000D01*
X161125812Y-76113518D01*
X161101991Y-76034990D01*
X161301898Y-75995226D01*
X161490256Y-75917205D01*
X161659774Y-75803937D01*
X161803937Y-75659774D01*
X161917205Y-75490256D01*
X161995226Y-75301898D01*
X162035000Y-75101939D01*
X162035000Y-74898061D01*
X161995226Y-74698102D01*
X161917205Y-74509744D01*
X161803937Y-74340226D01*
X161659774Y-74196063D01*
X161490256Y-74082795D01*
X161301898Y-74004774D01*
X161277897Y-74000000D01*
X161301898Y-73995226D01*
X161490256Y-73917205D01*
X161659774Y-73803937D01*
X161803937Y-73659774D01*
X161917205Y-73490256D01*
X161995226Y-73301898D01*
X162035000Y-73101939D01*
X162035000Y-72898061D01*
X161995226Y-72698102D01*
X161917205Y-72509744D01*
X161803937Y-72340226D01*
X161659774Y-72196063D01*
X161490256Y-72082795D01*
X161301898Y-72004774D01*
X161101991Y-71965010D01*
X161125812Y-71886482D01*
X161138072Y-71762000D01*
X161138072Y-70898061D01*
X170965000Y-70898061D01*
X170965000Y-71101939D01*
X171004774Y-71301898D01*
X171082795Y-71490256D01*
X171196063Y-71659774D01*
X171340226Y-71803937D01*
X171509744Y-71917205D01*
X171698102Y-71995226D01*
X171898061Y-72035000D01*
X172101939Y-72035000D01*
X172301898Y-71995226D01*
X172490256Y-71917205D01*
X172659774Y-71803937D01*
X172703711Y-71760000D01*
X172861928Y-71760000D01*
X172861928Y-71762000D01*
X172874188Y-71886482D01*
X172908623Y-72000000D01*
X172874188Y-72113518D01*
X172861928Y-72238000D01*
X172861928Y-73762000D01*
X172874188Y-73886482D01*
X172908623Y-74000000D01*
X172874188Y-74113518D01*
X172861928Y-74238000D01*
X172861928Y-75762000D01*
X172874188Y-75886482D01*
X172908623Y-76000000D01*
X172874188Y-76113518D01*
X172861928Y-76238000D01*
X172865000Y-76714250D01*
X173023750Y-76873000D01*
X174873000Y-76873000D01*
X174873000Y-76853000D01*
X175127000Y-76853000D01*
X175127000Y-76873000D01*
X176976250Y-76873000D01*
X177135000Y-76714250D01*
X177138072Y-76238000D01*
X177125812Y-76113518D01*
X177091377Y-76000000D01*
X177125812Y-75886482D01*
X177138072Y-75762000D01*
X177138072Y-75659671D01*
X177184276Y-75634974D01*
X177300001Y-75540001D01*
X177323804Y-75510997D01*
X178833592Y-74001210D01*
X179053740Y-74045000D01*
X179346260Y-74045000D01*
X179633158Y-73987932D01*
X179903411Y-73875990D01*
X180146632Y-73713475D01*
X180353475Y-73506632D01*
X180515990Y-73263411D01*
X180627932Y-72993158D01*
X180685000Y-72706260D01*
X180685000Y-72413740D01*
X180627932Y-72126842D01*
X180515990Y-71856589D01*
X180353475Y-71613368D01*
X180146632Y-71406525D01*
X179972240Y-71290000D01*
X180146632Y-71173475D01*
X180353475Y-70966632D01*
X180515990Y-70723411D01*
X180627932Y-70453158D01*
X180685000Y-70166260D01*
X180685000Y-69873740D01*
X180627932Y-69586842D01*
X180515990Y-69316589D01*
X180353475Y-69073368D01*
X180146632Y-68866525D01*
X179972240Y-68750000D01*
X180146632Y-68633475D01*
X180353475Y-68426632D01*
X180515990Y-68183411D01*
X180627932Y-67913158D01*
X180685000Y-67626260D01*
X180685000Y-67333740D01*
X180627932Y-67046842D01*
X180515990Y-66776589D01*
X180353475Y-66533368D01*
X180146632Y-66326525D01*
X179972240Y-66210000D01*
X180146632Y-66093475D01*
X180353475Y-65886632D01*
X180515990Y-65643411D01*
X180627932Y-65373158D01*
X180685000Y-65086260D01*
X180685000Y-64793740D01*
X180627932Y-64506842D01*
X180515990Y-64236589D01*
X180353475Y-63993368D01*
X180221620Y-63861513D01*
X180294180Y-63839502D01*
X180404494Y-63780537D01*
X180501185Y-63701185D01*
X180580537Y-63604494D01*
X180639502Y-63494180D01*
X180675812Y-63374482D01*
X180688072Y-63250000D01*
X180688072Y-61550000D01*
X180675812Y-61425518D01*
X180639502Y-61305820D01*
X180580537Y-61195506D01*
X180501185Y-61098815D01*
X180404494Y-61019463D01*
X180294180Y-60960498D01*
X180174482Y-60924188D01*
X180050000Y-60911928D01*
X178350000Y-60911928D01*
X178225518Y-60924188D01*
X178105820Y-60960498D01*
X177995506Y-61019463D01*
X177898815Y-61098815D01*
X177819463Y-61195506D01*
X177760498Y-61305820D01*
X177724188Y-61425518D01*
X177711928Y-61550000D01*
X177711928Y-61640000D01*
X176637322Y-61640000D01*
X176599999Y-61636324D01*
X176562676Y-61640000D01*
X176562667Y-61640000D01*
X176451014Y-61650997D01*
X176307753Y-61694454D01*
X176175724Y-61765026D01*
X176059999Y-61859999D01*
X176036201Y-61888997D01*
X174325271Y-63599928D01*
X173500000Y-63599928D01*
X173375518Y-63612188D01*
X173255820Y-63648498D01*
X173145506Y-63707463D01*
X173048815Y-63786815D01*
X172969463Y-63883506D01*
X172910498Y-63993820D01*
X172874188Y-64113518D01*
X172861928Y-64238000D01*
X172861928Y-65762000D01*
X172874188Y-65886482D01*
X172908623Y-66000000D01*
X172874188Y-66113518D01*
X172861928Y-66238000D01*
X172861928Y-67762000D01*
X172874188Y-67886482D01*
X172908623Y-68000000D01*
X172874188Y-68113518D01*
X172861928Y-68238000D01*
X172861928Y-69762000D01*
X172874188Y-69886482D01*
X172908623Y-70000000D01*
X172874188Y-70113518D01*
X172861928Y-70238000D01*
X172861928Y-70240000D01*
X172703711Y-70240000D01*
X172659774Y-70196063D01*
X172490256Y-70082795D01*
X172301898Y-70004774D01*
X172101939Y-69965000D01*
X171898061Y-69965000D01*
X171698102Y-70004774D01*
X171509744Y-70082795D01*
X171340226Y-70196063D01*
X171196063Y-70340226D01*
X171082795Y-70509744D01*
X171004774Y-70698102D01*
X170965000Y-70898061D01*
X161138072Y-70898061D01*
X161138072Y-70238000D01*
X161125812Y-70113518D01*
X161091377Y-70000000D01*
X161125812Y-69886482D01*
X161138072Y-69762000D01*
X161138072Y-68238000D01*
X161125812Y-68113518D01*
X161091377Y-68000000D01*
X161125812Y-67886482D01*
X161138072Y-67762000D01*
X161138072Y-66238000D01*
X161125812Y-66113518D01*
X161091377Y-66000000D01*
X161125812Y-65886482D01*
X161138072Y-65762000D01*
X161135000Y-65285750D01*
X160976250Y-65127000D01*
X159127000Y-65127000D01*
X159127000Y-65147000D01*
X158873000Y-65147000D01*
X158873000Y-65127000D01*
X157023750Y-65127000D01*
X156865000Y-65285750D01*
X156861928Y-65762000D01*
X156874188Y-65886482D01*
X156908623Y-66000000D01*
X156874188Y-66113518D01*
X156861928Y-66238000D01*
X156861928Y-66240000D01*
X156314802Y-66240000D01*
X156023803Y-65949002D01*
X156000001Y-65919999D01*
X155884276Y-65825026D01*
X155752247Y-65754454D01*
X155608986Y-65710997D01*
X155497333Y-65700000D01*
X155497322Y-65700000D01*
X155460000Y-65696324D01*
X155422678Y-65700000D01*
X155278178Y-65700000D01*
X155153475Y-65513368D01*
X154946632Y-65306525D01*
X154703411Y-65144010D01*
X154433158Y-65032068D01*
X154146260Y-64975000D01*
X153853740Y-64975000D01*
X153566842Y-65032068D01*
X153296589Y-65144010D01*
X153053368Y-65306525D01*
X152846525Y-65513368D01*
X152684010Y-65756589D01*
X152572068Y-66026842D01*
X152515000Y-66313740D01*
X152515000Y-66606260D01*
X152572068Y-66893158D01*
X152684010Y-67163411D01*
X152846525Y-67406632D01*
X153053368Y-67613475D01*
X153227760Y-67730000D01*
X153053368Y-67846525D01*
X152846525Y-68053368D01*
X152684010Y-68296589D01*
X152572068Y-68566842D01*
X152515000Y-68853740D01*
X152515000Y-69146260D01*
X152572068Y-69433158D01*
X152684010Y-69703411D01*
X152846525Y-69946632D01*
X153053368Y-70153475D01*
X153227760Y-70270000D01*
X153053368Y-70386525D01*
X152846525Y-70593368D01*
X152721822Y-70780000D01*
X152327322Y-70780000D01*
X152289999Y-70776324D01*
X152252676Y-70780000D01*
X152252667Y-70780000D01*
X152141014Y-70790997D01*
X151997753Y-70834454D01*
X151865724Y-70905026D01*
X151749999Y-70999999D01*
X151726196Y-71029003D01*
X151468998Y-71286201D01*
X151440000Y-71309999D01*
X151416202Y-71338997D01*
X151416201Y-71338998D01*
X151345026Y-71425724D01*
X151274454Y-71557754D01*
X151251031Y-71634974D01*
X151230998Y-71701014D01*
X151220526Y-71807333D01*
X151216324Y-71850000D01*
X151220001Y-71887332D01*
X151220000Y-77335198D01*
X149435199Y-79120000D01*
X145854802Y-79120000D01*
X145836341Y-79101539D01*
X145853740Y-79105000D01*
X146146260Y-79105000D01*
X146433158Y-79047932D01*
X146703411Y-78935990D01*
X146946632Y-78773475D01*
X147153475Y-78566632D01*
X147315990Y-78323411D01*
X147427932Y-78053158D01*
X147485000Y-77766260D01*
X147485000Y-77473740D01*
X147427932Y-77186842D01*
X147315990Y-76916589D01*
X147153475Y-76673368D01*
X146946632Y-76466525D01*
X146772240Y-76350000D01*
X146946632Y-76233475D01*
X147153475Y-76026632D01*
X147315990Y-75783411D01*
X147427932Y-75513158D01*
X147485000Y-75226260D01*
X147485000Y-74933740D01*
X147427932Y-74646842D01*
X147315990Y-74376589D01*
X147153475Y-74133368D01*
X146946632Y-73926525D01*
X146772240Y-73810000D01*
X146946632Y-73693475D01*
X147153475Y-73486632D01*
X147315990Y-73243411D01*
X147427932Y-72973158D01*
X147485000Y-72686260D01*
X147485000Y-72393740D01*
X147427932Y-72106842D01*
X147315990Y-71836589D01*
X147153475Y-71593368D01*
X147021620Y-71461513D01*
X147094180Y-71439502D01*
X147204494Y-71380537D01*
X147301185Y-71301185D01*
X147380537Y-71204494D01*
X147439502Y-71094180D01*
X147475812Y-70974482D01*
X147488072Y-70850000D01*
X147485000Y-70285750D01*
X147326250Y-70127000D01*
X146127000Y-70127000D01*
X146127000Y-70147000D01*
X145873000Y-70147000D01*
X145873000Y-70127000D01*
X144673750Y-70127000D01*
X144515000Y-70285750D01*
X144511928Y-70850000D01*
X144524188Y-70974482D01*
X144560498Y-71094180D01*
X144619463Y-71204494D01*
X144698815Y-71301185D01*
X144795506Y-71380537D01*
X144905820Y-71439502D01*
X144978380Y-71461513D01*
X144846525Y-71593368D01*
X144684010Y-71836589D01*
X144572068Y-72106842D01*
X144515000Y-72393740D01*
X144515000Y-72686260D01*
X144572068Y-72973158D01*
X144684010Y-73243411D01*
X144846525Y-73486632D01*
X145053368Y-73693475D01*
X145227760Y-73810000D01*
X145053368Y-73926525D01*
X144846525Y-74133368D01*
X144684010Y-74376589D01*
X144572068Y-74646842D01*
X144515000Y-74933740D01*
X144515000Y-75226260D01*
X144572068Y-75513158D01*
X144684010Y-75783411D01*
X144846525Y-76026632D01*
X145053368Y-76233475D01*
X145227760Y-76350000D01*
X145053368Y-76466525D01*
X144846525Y-76673368D01*
X144684010Y-76916589D01*
X144572068Y-77186842D01*
X144515000Y-77473740D01*
X144515000Y-77766260D01*
X144518461Y-77783659D01*
X140223804Y-73489003D01*
X140200001Y-73459999D01*
X140084276Y-73365026D01*
X139952247Y-73294454D01*
X139808986Y-73250997D01*
X139697333Y-73240000D01*
X139697322Y-73240000D01*
X139660000Y-73236324D01*
X139622678Y-73240000D01*
X139137087Y-73240000D01*
X139125812Y-73125518D01*
X139089502Y-73005820D01*
X139043457Y-72919677D01*
X139080537Y-72874494D01*
X139139502Y-72764180D01*
X139175812Y-72644482D01*
X139187087Y-72530000D01*
X139646289Y-72530000D01*
X139690226Y-72573937D01*
X139859744Y-72687205D01*
X140048102Y-72765226D01*
X140248061Y-72805000D01*
X140451939Y-72805000D01*
X140651898Y-72765226D01*
X140840256Y-72687205D01*
X141009774Y-72573937D01*
X141153937Y-72429774D01*
X141267205Y-72260256D01*
X141345226Y-72071898D01*
X141385000Y-71871939D01*
X141385000Y-71668061D01*
X141345226Y-71468102D01*
X141267205Y-71279744D01*
X141153937Y-71110226D01*
X141009774Y-70966063D01*
X140840256Y-70852795D01*
X140651898Y-70774774D01*
X140451939Y-70735000D01*
X140248061Y-70735000D01*
X140048102Y-70774774D01*
X139859744Y-70852795D01*
X139690226Y-70966063D01*
X139646289Y-71010000D01*
X139187087Y-71010000D01*
X139175812Y-70895518D01*
X139139502Y-70775820D01*
X139080537Y-70665506D01*
X139001185Y-70568815D01*
X138904494Y-70489463D01*
X138794180Y-70430498D01*
X138674482Y-70394188D01*
X138550000Y-70381928D01*
X137550000Y-70381928D01*
X137510000Y-70385868D01*
X137510000Y-68807325D01*
X137513676Y-68770000D01*
X137510000Y-68732675D01*
X137510000Y-68732667D01*
X137499003Y-68621014D01*
X137455546Y-68477753D01*
X137384974Y-68345724D01*
X137290001Y-68229999D01*
X137261003Y-68206201D01*
X136651705Y-67596904D01*
X136804759Y-67494637D01*
X137004637Y-67294759D01*
X137160000Y-67062241D01*
X137315363Y-67294759D01*
X137515241Y-67494637D01*
X137750273Y-67651680D01*
X137814847Y-67678427D01*
X137830960Y-67698061D01*
X137890000Y-67770001D01*
X137918998Y-67793799D01*
X138436200Y-68311002D01*
X138459999Y-68340001D01*
X138575724Y-68434974D01*
X138707753Y-68505546D01*
X138851014Y-68549003D01*
X138962667Y-68560000D01*
X138962675Y-68560000D01*
X139000000Y-68563676D01*
X139037325Y-68560000D01*
X144907462Y-68560000D01*
X144905820Y-68560498D01*
X144795506Y-68619463D01*
X144698815Y-68698815D01*
X144619463Y-68795506D01*
X144560498Y-68905820D01*
X144524188Y-69025518D01*
X144511928Y-69150000D01*
X144515000Y-69714250D01*
X144673750Y-69873000D01*
X145873000Y-69873000D01*
X145873000Y-69853000D01*
X146127000Y-69853000D01*
X146127000Y-69873000D01*
X147326250Y-69873000D01*
X147485000Y-69714250D01*
X147488072Y-69150000D01*
X147475812Y-69025518D01*
X147439502Y-68905820D01*
X147401647Y-68835000D01*
X147501939Y-68835000D01*
X147640001Y-68807538D01*
X147640001Y-73562668D01*
X147636324Y-73600000D01*
X147640001Y-73637333D01*
X147650998Y-73748986D01*
X147660013Y-73778705D01*
X147694454Y-73892246D01*
X147765000Y-74024227D01*
X147765000Y-74101939D01*
X147804774Y-74301898D01*
X147882795Y-74490256D01*
X147996063Y-74659774D01*
X148140226Y-74803937D01*
X148309744Y-74917205D01*
X148498102Y-74995226D01*
X148698061Y-75035000D01*
X148820000Y-75035000D01*
X148820000Y-75106289D01*
X148776063Y-75150226D01*
X148662795Y-75319744D01*
X148584774Y-75508102D01*
X148545000Y-75708061D01*
X148545000Y-75911939D01*
X148584774Y-76111898D01*
X148662795Y-76300256D01*
X148776063Y-76469774D01*
X148920226Y-76613937D01*
X149089744Y-76727205D01*
X149278102Y-76805226D01*
X149478061Y-76845000D01*
X149681939Y-76845000D01*
X149881898Y-76805226D01*
X150070256Y-76727205D01*
X150239774Y-76613937D01*
X150383937Y-76469774D01*
X150497205Y-76300256D01*
X150575226Y-76111898D01*
X150615000Y-75911939D01*
X150615000Y-75708061D01*
X150575226Y-75508102D01*
X150497205Y-75319744D01*
X150383937Y-75150226D01*
X150340000Y-75106289D01*
X150340000Y-71314515D01*
X150345226Y-71301898D01*
X150385000Y-71101939D01*
X150385000Y-70898061D01*
X150345226Y-70698102D01*
X150267205Y-70509744D01*
X150153937Y-70340226D01*
X150009774Y-70196063D01*
X149840256Y-70082795D01*
X149651898Y-70004774D01*
X149451939Y-69965000D01*
X149248061Y-69965000D01*
X149160000Y-69982516D01*
X149160000Y-64238000D01*
X156861928Y-64238000D01*
X156865000Y-64714250D01*
X157023750Y-64873000D01*
X158873000Y-64873000D01*
X158873000Y-63761750D01*
X159127000Y-63761750D01*
X159127000Y-64873000D01*
X160976250Y-64873000D01*
X161135000Y-64714250D01*
X161138072Y-64238000D01*
X161125812Y-64113518D01*
X161089502Y-63993820D01*
X161030537Y-63883506D01*
X160951185Y-63786815D01*
X160854494Y-63707463D01*
X160744180Y-63648498D01*
X160624482Y-63612188D01*
X160500000Y-63599928D01*
X159285750Y-63603000D01*
X159127000Y-63761750D01*
X158873000Y-63761750D01*
X158714250Y-63603000D01*
X157500000Y-63599928D01*
X157375518Y-63612188D01*
X157255820Y-63648498D01*
X157145506Y-63707463D01*
X157048815Y-63786815D01*
X156969463Y-63883506D01*
X156910498Y-63993820D01*
X156874188Y-64113518D01*
X156861928Y-64238000D01*
X149160000Y-64238000D01*
X149160000Y-63037325D01*
X149163676Y-63000000D01*
X149160000Y-62962675D01*
X149160000Y-62962667D01*
X149149003Y-62851014D01*
X149105546Y-62707753D01*
X149034974Y-62575724D01*
X148940001Y-62459999D01*
X148911003Y-62436201D01*
X147134801Y-60660000D01*
X189340000Y-60660000D01*
X189340001Y-75564763D01*
%TA.AperFunction,Conductor*%
D26*
G36*
X189340001Y-75564763D02*
G01*
X189221295Y-75278182D01*
X188823489Y-74682823D01*
X188317177Y-74176511D01*
X187721818Y-73778705D01*
X187060290Y-73504691D01*
X186358016Y-73365000D01*
X185641984Y-73365000D01*
X184939710Y-73504691D01*
X184278182Y-73778705D01*
X183682823Y-74176511D01*
X183176511Y-74682823D01*
X182778705Y-75278182D01*
X182504691Y-75939710D01*
X182365000Y-76641984D01*
X182365000Y-77358016D01*
X182504691Y-78060290D01*
X182778705Y-78721818D01*
X183176511Y-79317177D01*
X183682823Y-79823489D01*
X184278182Y-80221295D01*
X184939710Y-80495309D01*
X185641984Y-80635000D01*
X186358016Y-80635000D01*
X187060290Y-80495309D01*
X187721818Y-80221295D01*
X188317177Y-79823489D01*
X188823489Y-79317177D01*
X189221295Y-78721818D01*
X189340001Y-78435237D01*
X189340001Y-82010000D01*
X180982419Y-82010000D01*
X180950000Y-82006807D01*
X180917581Y-82010000D01*
X180820617Y-82019550D01*
X180696207Y-82057290D01*
X180581550Y-82118575D01*
X180481052Y-82201052D01*
X180398575Y-82301550D01*
X180337290Y-82416207D01*
X180299550Y-82540617D01*
X180286807Y-82670000D01*
X180290000Y-82702419D01*
X180290000Y-87870792D01*
X180200000Y-87861928D01*
X179735750Y-87865000D01*
X179577000Y-88023750D01*
X179577000Y-88873000D01*
X179597000Y-88873000D01*
X179597000Y-89127000D01*
X179577000Y-89127000D01*
X179577000Y-89976250D01*
X179735750Y-90135000D01*
X180200000Y-90138072D01*
X180290001Y-90129208D01*
X180290001Y-96260000D01*
X107082419Y-96260000D01*
X107050000Y-96256807D01*
X107017581Y-96260000D01*
X106920617Y-96269550D01*
X106796207Y-96307290D01*
X106681550Y-96368575D01*
X106581052Y-96451052D01*
X106498575Y-96551550D01*
X106437290Y-96666207D01*
X106399550Y-96790617D01*
X106386807Y-96920000D01*
X106390001Y-96952429D01*
X106390000Y-138340000D01*
X101435239Y-138340000D01*
X101721818Y-138221295D01*
X102317177Y-137823489D01*
X102823489Y-137317177D01*
X103221295Y-136721818D01*
X103495309Y-136060290D01*
X103635000Y-135358016D01*
X103635000Y-134641984D01*
X103495309Y-133939710D01*
X103221295Y-133278182D01*
X102823489Y-132682823D01*
X102317177Y-132176511D01*
X101721818Y-131778705D01*
X101060290Y-131504691D01*
X100976741Y-131488072D01*
X101850000Y-131488072D01*
X101974482Y-131475812D01*
X102094180Y-131439502D01*
X102204494Y-131380537D01*
X102301185Y-131301185D01*
X102380537Y-131204494D01*
X102439502Y-131094180D01*
X102475812Y-130974482D01*
X102488072Y-130850000D01*
X102488072Y-129150000D01*
X102475812Y-129025518D01*
X102439502Y-128905820D01*
X102380537Y-128795506D01*
X102301185Y-128698815D01*
X102204494Y-128619463D01*
X102094180Y-128560498D01*
X102021620Y-128538487D01*
X102153475Y-128406632D01*
X102278178Y-128220000D01*
X103072678Y-128220000D01*
X103110000Y-128223676D01*
X103147322Y-128220000D01*
X103147333Y-128220000D01*
X103258986Y-128209003D01*
X103402247Y-128165546D01*
X103534276Y-128094974D01*
X103650001Y-128000001D01*
X103673804Y-127970997D01*
X104841003Y-126803799D01*
X104870001Y-126780001D01*
X104964974Y-126664276D01*
X105035546Y-126532247D01*
X105079003Y-126388986D01*
X105090000Y-126277333D01*
X105093677Y-126240000D01*
X105090000Y-126202667D01*
X105090000Y-97424801D01*
X106694802Y-95820000D01*
X110172678Y-95820000D01*
X110210000Y-95823676D01*
X110247322Y-95820000D01*
X110247333Y-95820000D01*
X110358986Y-95809003D01*
X110502247Y-95765546D01*
X110634276Y-95694974D01*
X110750001Y-95600001D01*
X110773804Y-95570997D01*
X111659802Y-94685000D01*
X111721939Y-94685000D01*
X111921898Y-94645226D01*
X112110256Y-94567205D01*
X112279774Y-94453937D01*
X112423937Y-94309774D01*
X112537205Y-94140256D01*
X112615226Y-93951898D01*
X112655000Y-93751939D01*
X112655000Y-93548061D01*
X112616975Y-93356891D01*
X115478519Y-93356891D01*
X115575843Y-93631252D01*
X115724822Y-93881355D01*
X115919731Y-94097588D01*
X116153080Y-94271641D01*
X116415901Y-94396825D01*
X116563110Y-94441476D01*
X116793000Y-94320155D01*
X116793000Y-93127000D01*
X117047000Y-93127000D01*
X117047000Y-94320155D01*
X117276890Y-94441476D01*
X117424099Y-94396825D01*
X117686920Y-94271641D01*
X117920269Y-94097588D01*
X118115178Y-93881355D01*
X118190000Y-93755745D01*
X118264822Y-93881355D01*
X118459731Y-94097588D01*
X118693080Y-94271641D01*
X118955901Y-94396825D01*
X119103110Y-94441476D01*
X119333000Y-94320155D01*
X119333000Y-93127000D01*
X119587000Y-93127000D01*
X119587000Y-94320155D01*
X119816890Y-94441476D01*
X119964099Y-94396825D01*
X120226920Y-94271641D01*
X120460269Y-94097588D01*
X120655178Y-93881355D01*
X120730000Y-93755745D01*
X120804822Y-93881355D01*
X120999731Y-94097588D01*
X121233080Y-94271641D01*
X121495901Y-94396825D01*
X121643110Y-94441476D01*
X121873000Y-94320155D01*
X121873000Y-93127000D01*
X122127000Y-93127000D01*
X122127000Y-94320155D01*
X122356890Y-94441476D01*
X122504099Y-94396825D01*
X122766920Y-94271641D01*
X123000269Y-94097588D01*
X123195178Y-93881355D01*
X123344157Y-93631252D01*
X123441481Y-93356891D01*
X123320814Y-93127000D01*
X122127000Y-93127000D01*
X121873000Y-93127000D01*
X119587000Y-93127000D01*
X119333000Y-93127000D01*
X117047000Y-93127000D01*
X116793000Y-93127000D01*
X115599186Y-93127000D01*
X115478519Y-93356891D01*
X112616975Y-93356891D01*
X112615226Y-93348102D01*
X112537205Y-93159744D01*
X112423937Y-92990226D01*
X112279774Y-92846063D01*
X112110256Y-92732795D01*
X111921898Y-92654774D01*
X111721939Y-92615000D01*
X111678478Y-92615000D01*
X111655226Y-92498102D01*
X111577205Y-92309744D01*
X111463937Y-92140226D01*
X111319774Y-91996063D01*
X111150256Y-91882795D01*
X110961898Y-91804774D01*
X110761939Y-91765000D01*
X110558061Y-91765000D01*
X110358102Y-91804774D01*
X110169744Y-91882795D01*
X110000226Y-91996063D01*
X109856063Y-92140226D01*
X109742795Y-92309744D01*
X109664774Y-92498102D01*
X109625000Y-92698061D01*
X109625000Y-92720198D01*
X108755199Y-93590000D01*
X105767333Y-93590000D01*
X105730000Y-93586323D01*
X105692667Y-93590000D01*
X105581014Y-93600997D01*
X105437753Y-93644454D01*
X105305724Y-93715026D01*
X105189999Y-93809999D01*
X105166201Y-93838997D01*
X102968998Y-96036201D01*
X102940000Y-96059999D01*
X102916202Y-96088997D01*
X102916201Y-96088998D01*
X102845026Y-96175724D01*
X102774454Y-96307754D01*
X102730998Y-96451015D01*
X102716324Y-96600000D01*
X102720001Y-96637333D01*
X102720000Y-124055198D01*
X102615198Y-124160000D01*
X102278178Y-124160000D01*
X102153475Y-123973368D01*
X101946632Y-123766525D01*
X101772240Y-123650000D01*
X101946632Y-123533475D01*
X102153475Y-123326632D01*
X102315990Y-123083411D01*
X102427932Y-122813158D01*
X102485000Y-122526260D01*
X102485000Y-122233740D01*
X102427932Y-121946842D01*
X102315990Y-121676589D01*
X102153475Y-121433368D01*
X101946632Y-121226525D01*
X101764466Y-121104805D01*
X101881355Y-121035178D01*
X102097588Y-120840269D01*
X102271641Y-120606920D01*
X102396825Y-120344099D01*
X102441476Y-120196890D01*
X102320155Y-119967000D01*
X101127000Y-119967000D01*
X101127000Y-119987000D01*
X100873000Y-119987000D01*
X100873000Y-119967000D01*
X100853000Y-119967000D01*
X100853000Y-119713000D01*
X100873000Y-119713000D01*
X100873000Y-119693000D01*
X101127000Y-119693000D01*
X101127000Y-119713000D01*
X102320155Y-119713000D01*
X102441476Y-119483110D01*
X102396825Y-119335901D01*
X102271641Y-119073080D01*
X102097588Y-118839731D01*
X101881355Y-118644822D01*
X101764466Y-118575195D01*
X101946632Y-118453475D01*
X102153475Y-118246632D01*
X102315990Y-118003411D01*
X102427932Y-117733158D01*
X102485000Y-117446260D01*
X102485000Y-117153740D01*
X102427932Y-116866842D01*
X102315990Y-116596589D01*
X102153475Y-116353368D01*
X101946632Y-116146525D01*
X101772240Y-116030000D01*
X101946632Y-115913475D01*
X102153475Y-115706632D01*
X102315990Y-115463411D01*
X102427932Y-115193158D01*
X102485000Y-114906260D01*
X102485000Y-114613740D01*
X102427932Y-114326842D01*
X102315990Y-114056589D01*
X102153475Y-113813368D01*
X101946632Y-113606525D01*
X101772240Y-113490000D01*
X101946632Y-113373475D01*
X102153475Y-113166632D01*
X102315990Y-112923411D01*
X102427932Y-112653158D01*
X102485000Y-112366260D01*
X102485000Y-112073740D01*
X102427932Y-111786842D01*
X102315990Y-111516589D01*
X102153475Y-111273368D01*
X101946632Y-111066525D01*
X101772240Y-110950000D01*
X101946632Y-110833475D01*
X102153475Y-110626632D01*
X102315990Y-110383411D01*
X102427932Y-110113158D01*
X102485000Y-109826260D01*
X102485000Y-109533740D01*
X102427932Y-109246842D01*
X102315990Y-108976589D01*
X102153475Y-108733368D01*
X101946632Y-108526525D01*
X101772240Y-108410000D01*
X101946632Y-108293475D01*
X102153475Y-108086632D01*
X102315990Y-107843411D01*
X102427932Y-107573158D01*
X102485000Y-107286260D01*
X102485000Y-106993740D01*
X102427932Y-106706842D01*
X102315990Y-106436589D01*
X102153475Y-106193368D01*
X101946632Y-105986525D01*
X101772240Y-105870000D01*
X101946632Y-105753475D01*
X102153475Y-105546632D01*
X102315990Y-105303411D01*
X102427932Y-105033158D01*
X102485000Y-104746260D01*
X102485000Y-104453740D01*
X102427932Y-104166842D01*
X102315990Y-103896589D01*
X102153475Y-103653368D01*
X101946632Y-103446525D01*
X101772240Y-103330000D01*
X101946632Y-103213475D01*
X102153475Y-103006632D01*
X102315990Y-102763411D01*
X102427932Y-102493158D01*
X102485000Y-102206260D01*
X102485000Y-101913740D01*
X102427932Y-101626842D01*
X102315990Y-101356589D01*
X102153475Y-101113368D01*
X101946632Y-100906525D01*
X101764466Y-100784805D01*
X101881355Y-100715178D01*
X102097588Y-100520269D01*
X102271641Y-100286920D01*
X102396825Y-100024099D01*
X102441476Y-99876890D01*
X102320155Y-99647000D01*
X101127000Y-99647000D01*
X101127000Y-99667000D01*
X100873000Y-99667000D01*
X100873000Y-99647000D01*
X100853000Y-99647000D01*
X100853000Y-99393000D01*
X100873000Y-99393000D01*
X100873000Y-99373000D01*
X101127000Y-99373000D01*
X101127000Y-99393000D01*
X102320155Y-99393000D01*
X102441476Y-99163110D01*
X102396825Y-99015901D01*
X102271641Y-98753080D01*
X102097588Y-98519731D01*
X101881355Y-98324822D01*
X101764466Y-98255195D01*
X101946632Y-98133475D01*
X102153475Y-97926632D01*
X102315990Y-97683411D01*
X102427932Y-97413158D01*
X102485000Y-97126260D01*
X102485000Y-96833740D01*
X102427932Y-96546842D01*
X102315990Y-96276589D01*
X102153475Y-96033368D01*
X101946632Y-95826525D01*
X101772240Y-95710000D01*
X101946632Y-95593475D01*
X102153475Y-95386632D01*
X102315990Y-95143411D01*
X102427932Y-94873158D01*
X102485000Y-94586260D01*
X102485000Y-94293740D01*
X102427932Y-94006842D01*
X102315990Y-93736589D01*
X102153475Y-93493368D01*
X101946632Y-93286525D01*
X101772240Y-93170000D01*
X101946632Y-93053475D01*
X102153475Y-92846632D01*
X102315990Y-92603411D01*
X102427932Y-92333158D01*
X102485000Y-92046260D01*
X102485000Y-91753740D01*
X102427932Y-91466842D01*
X102315990Y-91196589D01*
X102153475Y-90953368D01*
X101946632Y-90746525D01*
X101772240Y-90630000D01*
X101946632Y-90513475D01*
X102153475Y-90306632D01*
X102315990Y-90063411D01*
X102427932Y-89793158D01*
X102485000Y-89506260D01*
X102485000Y-89213740D01*
X102427932Y-88926842D01*
X102315990Y-88656589D01*
X102153475Y-88413368D01*
X101946632Y-88206525D01*
X101772240Y-88090000D01*
X101946632Y-87973475D01*
X102153475Y-87766632D01*
X102315990Y-87523411D01*
X102427932Y-87253158D01*
X102485000Y-86966260D01*
X102485000Y-86673740D01*
X102427932Y-86386842D01*
X102315990Y-86116589D01*
X102153475Y-85873368D01*
X101946632Y-85666525D01*
X101772240Y-85550000D01*
X101946632Y-85433475D01*
X102153475Y-85226632D01*
X102315990Y-84983411D01*
X102427932Y-84713158D01*
X102485000Y-84426260D01*
X102485000Y-84133740D01*
X102427932Y-83846842D01*
X102315990Y-83576589D01*
X102153475Y-83333368D01*
X101946632Y-83126525D01*
X101764466Y-83004805D01*
X101881355Y-82935178D01*
X102097588Y-82740269D01*
X102271641Y-82506920D01*
X102396825Y-82244099D01*
X102441476Y-82096890D01*
X102320155Y-81867000D01*
X101127000Y-81867000D01*
X101127000Y-81887000D01*
X100873000Y-81887000D01*
X100873000Y-81867000D01*
X100853000Y-81867000D01*
X100853000Y-81613000D01*
X100873000Y-81613000D01*
X100873000Y-81593000D01*
X101127000Y-81593000D01*
X101127000Y-81613000D01*
X102320155Y-81613000D01*
X102441476Y-81383110D01*
X102396825Y-81235901D01*
X102271641Y-80973080D01*
X102097588Y-80739731D01*
X101881355Y-80544822D01*
X101631252Y-80395843D01*
X101453041Y-80332626D01*
X101721818Y-80221295D01*
X102317177Y-79823489D01*
X102565001Y-79575665D01*
X102565002Y-85987669D01*
X102561325Y-86025001D01*
X102565002Y-86062334D01*
X102575999Y-86173987D01*
X102579567Y-86185750D01*
X102619455Y-86317247D01*
X102690027Y-86449277D01*
X102731655Y-86500000D01*
X102785001Y-86565002D01*
X102813999Y-86588800D01*
X103611201Y-87386003D01*
X103634999Y-87415001D01*
X103663997Y-87438799D01*
X103750723Y-87509974D01*
X103835982Y-87555546D01*
X103882753Y-87580546D01*
X104026014Y-87624003D01*
X104137667Y-87635000D01*
X104137676Y-87635000D01*
X104149318Y-87636147D01*
X104186595Y-87705886D01*
X104297038Y-87840462D01*
X104431614Y-87950905D01*
X104585150Y-88032972D01*
X104751746Y-88083508D01*
X104925000Y-88100572D01*
X105875000Y-88100572D01*
X106048254Y-88083508D01*
X106214850Y-88032972D01*
X106368386Y-87950905D01*
X106502962Y-87840462D01*
X106557431Y-87774091D01*
X106645518Y-87800812D01*
X106770000Y-87813072D01*
X108030000Y-87813072D01*
X108154482Y-87800812D01*
X108274180Y-87764502D01*
X108384494Y-87705537D01*
X108481185Y-87626185D01*
X108500000Y-87603259D01*
X108518815Y-87626185D01*
X108615506Y-87705537D01*
X108725820Y-87764502D01*
X108845518Y-87800812D01*
X108970000Y-87813072D01*
X110230000Y-87813072D01*
X110354482Y-87800812D01*
X110474180Y-87764502D01*
X110584494Y-87705537D01*
X110681185Y-87626185D01*
X110760537Y-87529494D01*
X110819502Y-87419180D01*
X110838648Y-87356065D01*
X110836928Y-87525000D01*
X110849188Y-87649482D01*
X110885498Y-87769180D01*
X110944463Y-87879494D01*
X111023815Y-87976185D01*
X111120506Y-88055537D01*
X111230820Y-88114502D01*
X111350518Y-88150812D01*
X111475000Y-88163072D01*
X111914250Y-88160000D01*
X112073000Y-88001250D01*
X112073000Y-87064500D01*
X112327000Y-87064500D01*
X112327000Y-88001250D01*
X112485750Y-88160000D01*
X112925000Y-88163072D01*
X113049482Y-88150812D01*
X113169180Y-88114502D01*
X113279494Y-88055537D01*
X113376185Y-87976185D01*
X113455537Y-87879494D01*
X113514502Y-87769180D01*
X113550812Y-87649482D01*
X113563072Y-87525000D01*
X113560000Y-87223250D01*
X113401250Y-87064500D01*
X112327000Y-87064500D01*
X112073000Y-87064500D01*
X112053000Y-87064500D01*
X112053000Y-86810500D01*
X112073000Y-86810500D01*
X112073000Y-86790500D01*
X112327000Y-86790500D01*
X112327000Y-86810500D01*
X113401250Y-86810500D01*
X113560000Y-86651750D01*
X113563072Y-86350000D01*
X113550812Y-86225518D01*
X113514502Y-86105820D01*
X113455537Y-85995506D01*
X113376185Y-85898815D01*
X113296406Y-85833342D01*
X113302962Y-85827962D01*
X113413405Y-85693386D01*
X113451294Y-85622500D01*
X114047699Y-85622500D01*
X114960000Y-86534802D01*
X114960001Y-89222668D01*
X114956324Y-89260000D01*
X114960001Y-89297333D01*
X114966747Y-89365820D01*
X114970998Y-89408985D01*
X115014454Y-89552246D01*
X115085026Y-89684276D01*
X115147172Y-89760000D01*
X115180000Y-89800001D01*
X115208998Y-89823799D01*
X115478791Y-90093592D01*
X115435000Y-90313740D01*
X115435000Y-90606260D01*
X115492068Y-90893158D01*
X115604010Y-91163411D01*
X115766525Y-91406632D01*
X115973368Y-91613475D01*
X116149406Y-91731100D01*
X115919731Y-91902412D01*
X115724822Y-92118645D01*
X115575843Y-92368748D01*
X115478519Y-92643109D01*
X115599186Y-92873000D01*
X116793000Y-92873000D01*
X116793000Y-92853000D01*
X117047000Y-92853000D01*
X117047000Y-92873000D01*
X119333000Y-92873000D01*
X119333000Y-92853000D01*
X119587000Y-92853000D01*
X119587000Y-92873000D01*
X121873000Y-92873000D01*
X121873000Y-92853000D01*
X122127000Y-92853000D01*
X122127000Y-92873000D01*
X123320814Y-92873000D01*
X123441481Y-92643109D01*
X123344157Y-92368748D01*
X123195178Y-92118645D01*
X123018374Y-91922498D01*
X123094180Y-91899502D01*
X123204494Y-91840537D01*
X123301185Y-91761185D01*
X123380537Y-91664494D01*
X123439502Y-91554180D01*
X123475812Y-91434482D01*
X123488072Y-91310000D01*
X123488072Y-90516729D01*
X124979127Y-89025675D01*
X125022038Y-89077962D01*
X125156613Y-89188405D01*
X125240001Y-89232977D01*
X125240000Y-91767023D01*
X125156613Y-91811595D01*
X125022038Y-91922038D01*
X124911595Y-92056613D01*
X124829528Y-92210149D01*
X124778992Y-92376745D01*
X124761928Y-92549999D01*
X124761928Y-93450001D01*
X124778992Y-93623255D01*
X124829528Y-93789851D01*
X124911595Y-93943387D01*
X125022038Y-94077962D01*
X125156613Y-94188405D01*
X125250983Y-94238847D01*
X125250997Y-94238985D01*
X125284673Y-94350001D01*
X125294454Y-94382246D01*
X125365026Y-94514276D01*
X125393522Y-94548998D01*
X125459999Y-94630001D01*
X125489002Y-94653803D01*
X126096200Y-95261002D01*
X126119999Y-95290001D01*
X126148997Y-95313799D01*
X126235723Y-95384974D01*
X126339172Y-95440269D01*
X126367753Y-95455546D01*
X126511014Y-95499003D01*
X126622667Y-95510000D01*
X126622677Y-95510000D01*
X126660000Y-95513676D01*
X126697323Y-95510000D01*
X136112678Y-95510000D01*
X136150000Y-95513676D01*
X136187322Y-95510000D01*
X136187333Y-95510000D01*
X136298986Y-95499003D01*
X136442247Y-95455546D01*
X136574276Y-95384974D01*
X136690001Y-95290001D01*
X136713803Y-95260998D01*
X137061003Y-94913799D01*
X137090001Y-94890001D01*
X137184974Y-94774276D01*
X137255546Y-94642247D01*
X137299003Y-94498986D01*
X137310000Y-94387333D01*
X137310000Y-94387324D01*
X137313676Y-94350001D01*
X137310000Y-94312678D01*
X137310000Y-94078178D01*
X137496632Y-93953475D01*
X137703475Y-93746632D01*
X137865990Y-93503411D01*
X137977932Y-93233158D01*
X138035000Y-92946260D01*
X138035000Y-92653740D01*
X137977932Y-92366842D01*
X137865990Y-92096589D01*
X137703475Y-91853368D01*
X137496632Y-91646525D01*
X137310000Y-91521822D01*
X137310000Y-91500000D01*
X175861928Y-91500000D01*
X175874188Y-91624482D01*
X175910498Y-91744180D01*
X175969463Y-91854494D01*
X176048815Y-91951185D01*
X176145506Y-92030537D01*
X176255820Y-92089502D01*
X176375518Y-92125812D01*
X176500000Y-92138072D01*
X177314250Y-92135000D01*
X177473000Y-91976250D01*
X177473000Y-90852000D01*
X177727000Y-90852000D01*
X177727000Y-91976250D01*
X177885750Y-92135000D01*
X178700000Y-92138072D01*
X178824482Y-92125812D01*
X178944180Y-92089502D01*
X179054494Y-92030537D01*
X179151185Y-91951185D01*
X179230537Y-91854494D01*
X179289502Y-91744180D01*
X179325812Y-91624482D01*
X179338072Y-91500000D01*
X179335000Y-91010750D01*
X179176250Y-90852000D01*
X177727000Y-90852000D01*
X177473000Y-90852000D01*
X176023750Y-90852000D01*
X175865000Y-91010750D01*
X175861928Y-91500000D01*
X137310000Y-91500000D01*
X137310000Y-89428178D01*
X137496632Y-89303475D01*
X137703475Y-89096632D01*
X137828178Y-88910000D01*
X145122678Y-88910000D01*
X145160000Y-88913676D01*
X145197322Y-88910000D01*
X145197333Y-88910000D01*
X145308986Y-88899003D01*
X145452247Y-88855546D01*
X145584276Y-88784974D01*
X145700001Y-88690001D01*
X145723804Y-88660997D01*
X148239802Y-86145000D01*
X148301939Y-86145000D01*
X148501898Y-86105226D01*
X148690256Y-86027205D01*
X148859774Y-85913937D01*
X148903711Y-85870000D01*
X155699680Y-85870000D01*
X155737002Y-85873676D01*
X155774324Y-85870000D01*
X155774335Y-85870000D01*
X155885988Y-85859003D01*
X156029249Y-85815546D01*
X156161278Y-85744974D01*
X156277003Y-85650001D01*
X156300806Y-85620997D01*
X164159803Y-77762000D01*
X172861928Y-77762000D01*
X172874188Y-77886482D01*
X172908623Y-78000000D01*
X172874188Y-78113518D01*
X172861928Y-78238000D01*
X172861928Y-79762000D01*
X172874188Y-79886482D01*
X172910498Y-80006180D01*
X172969463Y-80116494D01*
X173048815Y-80213185D01*
X173145506Y-80292537D01*
X173240000Y-80343046D01*
X173240001Y-82362668D01*
X173236324Y-82400000D01*
X173240001Y-82437333D01*
X173250998Y-82548986D01*
X173264180Y-82592442D01*
X173294454Y-82692246D01*
X173365026Y-82824276D01*
X173427034Y-82899832D01*
X173460000Y-82940001D01*
X173488998Y-82963799D01*
X173711928Y-83186729D01*
X173711928Y-84450000D01*
X173724188Y-84574482D01*
X173760498Y-84694180D01*
X173819463Y-84804494D01*
X173898815Y-84901185D01*
X173995506Y-84980537D01*
X174105820Y-85039502D01*
X174225518Y-85075812D01*
X174350000Y-85088072D01*
X174440000Y-85088072D01*
X174440001Y-88362668D01*
X174436324Y-88400000D01*
X174440001Y-88437333D01*
X174450998Y-88548986D01*
X174459109Y-88575724D01*
X174461928Y-88585018D01*
X174461928Y-89500000D01*
X174474188Y-89624482D01*
X174510498Y-89744180D01*
X174569463Y-89854494D01*
X174648815Y-89951185D01*
X174745506Y-90030537D01*
X174855820Y-90089502D01*
X174975518Y-90125812D01*
X175100000Y-90138072D01*
X175863109Y-90138072D01*
X175865000Y-90439250D01*
X176023750Y-90598000D01*
X177473000Y-90598000D01*
X177473000Y-89473750D01*
X177727000Y-89473750D01*
X177727000Y-90598000D01*
X179176250Y-90598000D01*
X179335000Y-90439250D01*
X179338072Y-89950000D01*
X179325812Y-89825518D01*
X179323000Y-89816248D01*
X179323000Y-89127000D01*
X178223750Y-89127000D01*
X178065000Y-89285750D01*
X178064590Y-89314325D01*
X177885750Y-89315000D01*
X177727000Y-89473750D01*
X177473000Y-89473750D01*
X177314250Y-89315000D01*
X177293426Y-89314921D01*
X177305546Y-89292247D01*
X177349003Y-89148986D01*
X177363677Y-89000000D01*
X177349003Y-88851014D01*
X177305546Y-88707753D01*
X177293426Y-88685079D01*
X177314250Y-88685000D01*
X177473000Y-88526250D01*
X177473000Y-87402000D01*
X177727000Y-87402000D01*
X177727000Y-88526250D01*
X177885750Y-88685000D01*
X178064590Y-88685675D01*
X178065000Y-88714250D01*
X178223750Y-88873000D01*
X179323000Y-88873000D01*
X179323000Y-88183752D01*
X179325812Y-88174482D01*
X179338072Y-88050000D01*
X179335000Y-87560750D01*
X179176250Y-87402000D01*
X177727000Y-87402000D01*
X177473000Y-87402000D01*
X177453000Y-87402000D01*
X177453000Y-87148000D01*
X177473000Y-87148000D01*
X177473000Y-86023750D01*
X177727000Y-86023750D01*
X177727000Y-87148000D01*
X179176250Y-87148000D01*
X179335000Y-86989250D01*
X179338072Y-86500000D01*
X179325812Y-86375518D01*
X179289502Y-86255820D01*
X179230537Y-86145506D01*
X179151185Y-86048815D01*
X179054494Y-85969463D01*
X178944180Y-85910498D01*
X178824482Y-85874188D01*
X178700000Y-85861928D01*
X177885750Y-85865000D01*
X177727000Y-86023750D01*
X177473000Y-86023750D01*
X177314250Y-85865000D01*
X176500000Y-85861928D01*
X176375518Y-85874188D01*
X176255820Y-85910498D01*
X176145506Y-85969463D01*
X176048815Y-86048815D01*
X175969463Y-86145506D01*
X175960000Y-86163210D01*
X175960000Y-85088072D01*
X176050000Y-85088072D01*
X176174482Y-85075812D01*
X176294180Y-85039502D01*
X176404494Y-84980537D01*
X176501185Y-84901185D01*
X176580537Y-84804494D01*
X176639502Y-84694180D01*
X176675812Y-84574482D01*
X176688072Y-84450000D01*
X176688072Y-82750000D01*
X176675812Y-82625518D01*
X176639502Y-82505820D01*
X176580537Y-82395506D01*
X176501185Y-82298815D01*
X176404494Y-82219463D01*
X176294180Y-82160498D01*
X176174482Y-82124188D01*
X176050000Y-82111928D01*
X174786729Y-82111928D01*
X174760000Y-82085199D01*
X174760000Y-80400072D01*
X176500000Y-80400072D01*
X176624482Y-80387812D01*
X176744180Y-80351502D01*
X176854494Y-80292537D01*
X176951185Y-80213185D01*
X177030537Y-80116494D01*
X177089502Y-80006180D01*
X177125812Y-79886482D01*
X177138072Y-79762000D01*
X177138072Y-78238000D01*
X177125812Y-78113518D01*
X177091377Y-78000000D01*
X177125812Y-77886482D01*
X177138072Y-77762000D01*
X177135000Y-77285750D01*
X176976250Y-77127000D01*
X175127000Y-77127000D01*
X175127000Y-77147000D01*
X174873000Y-77147000D01*
X174873000Y-77127000D01*
X173023750Y-77127000D01*
X172865000Y-77285750D01*
X172861928Y-77762000D01*
X164159803Y-77762000D01*
X164511004Y-77410800D01*
X164540001Y-77387003D01*
X164634974Y-77271278D01*
X164683824Y-77179887D01*
X164803937Y-77059774D01*
X164917205Y-76890256D01*
X164995226Y-76701898D01*
X165035000Y-76501939D01*
X165035000Y-76298061D01*
X164995226Y-76098102D01*
X164917205Y-75909744D01*
X164803937Y-75740226D01*
X164659774Y-75596063D01*
X164490256Y-75482795D01*
X164301898Y-75404774D01*
X164101939Y-75365000D01*
X163898061Y-75365000D01*
X163698102Y-75404774D01*
X163509744Y-75482795D01*
X163340226Y-75596063D01*
X163196063Y-75740226D01*
X163082795Y-75909744D01*
X163004774Y-76098102D01*
X162965000Y-76298061D01*
X162965000Y-76501939D01*
X163004774Y-76701898D01*
X163023967Y-76748233D01*
X161135500Y-78636700D01*
X161138072Y-78238000D01*
X161125812Y-78113518D01*
X161091377Y-78000000D01*
X161125812Y-77886482D01*
X161138072Y-77762000D01*
X161138072Y-76238000D01*
X161125812Y-76113518D01*
X161101991Y-76034990D01*
X161301898Y-75995226D01*
X161490256Y-75917205D01*
X161659774Y-75803937D01*
X161803937Y-75659774D01*
X161917205Y-75490256D01*
X161995226Y-75301898D01*
X162035000Y-75101939D01*
X162035000Y-74898061D01*
X161995226Y-74698102D01*
X161917205Y-74509744D01*
X161803937Y-74340226D01*
X161659774Y-74196063D01*
X161490256Y-74082795D01*
X161301898Y-74004774D01*
X161277897Y-74000000D01*
X161301898Y-73995226D01*
X161490256Y-73917205D01*
X161659774Y-73803937D01*
X161803937Y-73659774D01*
X161917205Y-73490256D01*
X161995226Y-73301898D01*
X162035000Y-73101939D01*
X162035000Y-72898061D01*
X161995226Y-72698102D01*
X161917205Y-72509744D01*
X161803937Y-72340226D01*
X161659774Y-72196063D01*
X161490256Y-72082795D01*
X161301898Y-72004774D01*
X161101991Y-71965010D01*
X161125812Y-71886482D01*
X161138072Y-71762000D01*
X161138072Y-70898061D01*
X170965000Y-70898061D01*
X170965000Y-71101939D01*
X171004774Y-71301898D01*
X171082795Y-71490256D01*
X171196063Y-71659774D01*
X171340226Y-71803937D01*
X171509744Y-71917205D01*
X171698102Y-71995226D01*
X171898061Y-72035000D01*
X172101939Y-72035000D01*
X172301898Y-71995226D01*
X172490256Y-71917205D01*
X172659774Y-71803937D01*
X172703711Y-71760000D01*
X172861928Y-71760000D01*
X172861928Y-71762000D01*
X172874188Y-71886482D01*
X172908623Y-72000000D01*
X172874188Y-72113518D01*
X172861928Y-72238000D01*
X172861928Y-73762000D01*
X172874188Y-73886482D01*
X172908623Y-74000000D01*
X172874188Y-74113518D01*
X172861928Y-74238000D01*
X172861928Y-75762000D01*
X172874188Y-75886482D01*
X172908623Y-76000000D01*
X172874188Y-76113518D01*
X172861928Y-76238000D01*
X172865000Y-76714250D01*
X173023750Y-76873000D01*
X174873000Y-76873000D01*
X174873000Y-76853000D01*
X175127000Y-76853000D01*
X175127000Y-76873000D01*
X176976250Y-76873000D01*
X177135000Y-76714250D01*
X177138072Y-76238000D01*
X177125812Y-76113518D01*
X177091377Y-76000000D01*
X177125812Y-75886482D01*
X177138072Y-75762000D01*
X177138072Y-75659671D01*
X177184276Y-75634974D01*
X177300001Y-75540001D01*
X177323804Y-75510997D01*
X178833592Y-74001210D01*
X179053740Y-74045000D01*
X179346260Y-74045000D01*
X179633158Y-73987932D01*
X179903411Y-73875990D01*
X180146632Y-73713475D01*
X180353475Y-73506632D01*
X180515990Y-73263411D01*
X180627932Y-72993158D01*
X180685000Y-72706260D01*
X180685000Y-72413740D01*
X180627932Y-72126842D01*
X180515990Y-71856589D01*
X180353475Y-71613368D01*
X180146632Y-71406525D01*
X179972240Y-71290000D01*
X180146632Y-71173475D01*
X180353475Y-70966632D01*
X180515990Y-70723411D01*
X180627932Y-70453158D01*
X180685000Y-70166260D01*
X180685000Y-69873740D01*
X180627932Y-69586842D01*
X180515990Y-69316589D01*
X180353475Y-69073368D01*
X180146632Y-68866525D01*
X179972240Y-68750000D01*
X180146632Y-68633475D01*
X180353475Y-68426632D01*
X180515990Y-68183411D01*
X180627932Y-67913158D01*
X180685000Y-67626260D01*
X180685000Y-67333740D01*
X180627932Y-67046842D01*
X180515990Y-66776589D01*
X180353475Y-66533368D01*
X180146632Y-66326525D01*
X179972240Y-66210000D01*
X180146632Y-66093475D01*
X180353475Y-65886632D01*
X180515990Y-65643411D01*
X180627932Y-65373158D01*
X180685000Y-65086260D01*
X180685000Y-64793740D01*
X180627932Y-64506842D01*
X180515990Y-64236589D01*
X180353475Y-63993368D01*
X180221620Y-63861513D01*
X180294180Y-63839502D01*
X180404494Y-63780537D01*
X180501185Y-63701185D01*
X180580537Y-63604494D01*
X180639502Y-63494180D01*
X180675812Y-63374482D01*
X180688072Y-63250000D01*
X180688072Y-61550000D01*
X180675812Y-61425518D01*
X180639502Y-61305820D01*
X180580537Y-61195506D01*
X180501185Y-61098815D01*
X180404494Y-61019463D01*
X180294180Y-60960498D01*
X180174482Y-60924188D01*
X180050000Y-60911928D01*
X178350000Y-60911928D01*
X178225518Y-60924188D01*
X178105820Y-60960498D01*
X177995506Y-61019463D01*
X177898815Y-61098815D01*
X177819463Y-61195506D01*
X177760498Y-61305820D01*
X177724188Y-61425518D01*
X177711928Y-61550000D01*
X177711928Y-61640000D01*
X176637322Y-61640000D01*
X176599999Y-61636324D01*
X176562676Y-61640000D01*
X176562667Y-61640000D01*
X176451014Y-61650997D01*
X176307753Y-61694454D01*
X176175724Y-61765026D01*
X176059999Y-61859999D01*
X176036201Y-61888997D01*
X174325271Y-63599928D01*
X173500000Y-63599928D01*
X173375518Y-63612188D01*
X173255820Y-63648498D01*
X173145506Y-63707463D01*
X173048815Y-63786815D01*
X172969463Y-63883506D01*
X172910498Y-63993820D01*
X172874188Y-64113518D01*
X172861928Y-64238000D01*
X172861928Y-65762000D01*
X172874188Y-65886482D01*
X172908623Y-66000000D01*
X172874188Y-66113518D01*
X172861928Y-66238000D01*
X172861928Y-67762000D01*
X172874188Y-67886482D01*
X172908623Y-68000000D01*
X172874188Y-68113518D01*
X172861928Y-68238000D01*
X172861928Y-69762000D01*
X172874188Y-69886482D01*
X172908623Y-70000000D01*
X172874188Y-70113518D01*
X172861928Y-70238000D01*
X172861928Y-70240000D01*
X172703711Y-70240000D01*
X172659774Y-70196063D01*
X172490256Y-70082795D01*
X172301898Y-70004774D01*
X172101939Y-69965000D01*
X171898061Y-69965000D01*
X171698102Y-70004774D01*
X171509744Y-70082795D01*
X171340226Y-70196063D01*
X171196063Y-70340226D01*
X171082795Y-70509744D01*
X171004774Y-70698102D01*
X170965000Y-70898061D01*
X161138072Y-70898061D01*
X161138072Y-70238000D01*
X161125812Y-70113518D01*
X161091377Y-70000000D01*
X161125812Y-69886482D01*
X161138072Y-69762000D01*
X161138072Y-68238000D01*
X161125812Y-68113518D01*
X161091377Y-68000000D01*
X161125812Y-67886482D01*
X161138072Y-67762000D01*
X161138072Y-66238000D01*
X161125812Y-66113518D01*
X161091377Y-66000000D01*
X161125812Y-65886482D01*
X161138072Y-65762000D01*
X161135000Y-65285750D01*
X160976250Y-65127000D01*
X159127000Y-65127000D01*
X159127000Y-65147000D01*
X158873000Y-65147000D01*
X158873000Y-65127000D01*
X157023750Y-65127000D01*
X156865000Y-65285750D01*
X156861928Y-65762000D01*
X156874188Y-65886482D01*
X156908623Y-66000000D01*
X156874188Y-66113518D01*
X156861928Y-66238000D01*
X156861928Y-66240000D01*
X156314802Y-66240000D01*
X156023803Y-65949002D01*
X156000001Y-65919999D01*
X155884276Y-65825026D01*
X155752247Y-65754454D01*
X155608986Y-65710997D01*
X155497333Y-65700000D01*
X155497322Y-65700000D01*
X155460000Y-65696324D01*
X155422678Y-65700000D01*
X155278178Y-65700000D01*
X155153475Y-65513368D01*
X154946632Y-65306525D01*
X154703411Y-65144010D01*
X154433158Y-65032068D01*
X154146260Y-64975000D01*
X153853740Y-64975000D01*
X153566842Y-65032068D01*
X153296589Y-65144010D01*
X153053368Y-65306525D01*
X152846525Y-65513368D01*
X152684010Y-65756589D01*
X152572068Y-66026842D01*
X152515000Y-66313740D01*
X152515000Y-66606260D01*
X152572068Y-66893158D01*
X152684010Y-67163411D01*
X152846525Y-67406632D01*
X153053368Y-67613475D01*
X153227760Y-67730000D01*
X153053368Y-67846525D01*
X152846525Y-68053368D01*
X152684010Y-68296589D01*
X152572068Y-68566842D01*
X152515000Y-68853740D01*
X152515000Y-69146260D01*
X152572068Y-69433158D01*
X152684010Y-69703411D01*
X152846525Y-69946632D01*
X153053368Y-70153475D01*
X153227760Y-70270000D01*
X153053368Y-70386525D01*
X152846525Y-70593368D01*
X152721822Y-70780000D01*
X152327322Y-70780000D01*
X152289999Y-70776324D01*
X152252676Y-70780000D01*
X152252667Y-70780000D01*
X152141014Y-70790997D01*
X151997753Y-70834454D01*
X151865724Y-70905026D01*
X151749999Y-70999999D01*
X151726196Y-71029003D01*
X151468998Y-71286201D01*
X151440000Y-71309999D01*
X151416202Y-71338997D01*
X151416201Y-71338998D01*
X151345026Y-71425724D01*
X151274454Y-71557754D01*
X151251031Y-71634974D01*
X151230998Y-71701014D01*
X151220526Y-71807333D01*
X151216324Y-71850000D01*
X151220001Y-71887332D01*
X151220000Y-77335198D01*
X149435199Y-79120000D01*
X145854802Y-79120000D01*
X145836341Y-79101539D01*
X145853740Y-79105000D01*
X146146260Y-79105000D01*
X146433158Y-79047932D01*
X146703411Y-78935990D01*
X146946632Y-78773475D01*
X147153475Y-78566632D01*
X147315990Y-78323411D01*
X147427932Y-78053158D01*
X147485000Y-77766260D01*
X147485000Y-77473740D01*
X147427932Y-77186842D01*
X147315990Y-76916589D01*
X147153475Y-76673368D01*
X146946632Y-76466525D01*
X146772240Y-76350000D01*
X146946632Y-76233475D01*
X147153475Y-76026632D01*
X147315990Y-75783411D01*
X147427932Y-75513158D01*
X147485000Y-75226260D01*
X147485000Y-74933740D01*
X147427932Y-74646842D01*
X147315990Y-74376589D01*
X147153475Y-74133368D01*
X146946632Y-73926525D01*
X146772240Y-73810000D01*
X146946632Y-73693475D01*
X147153475Y-73486632D01*
X147315990Y-73243411D01*
X147427932Y-72973158D01*
X147485000Y-72686260D01*
X147485000Y-72393740D01*
X147427932Y-72106842D01*
X147315990Y-71836589D01*
X147153475Y-71593368D01*
X147021620Y-71461513D01*
X147094180Y-71439502D01*
X147204494Y-71380537D01*
X147301185Y-71301185D01*
X147380537Y-71204494D01*
X147439502Y-71094180D01*
X147475812Y-70974482D01*
X147488072Y-70850000D01*
X147485000Y-70285750D01*
X147326250Y-70127000D01*
X146127000Y-70127000D01*
X146127000Y-70147000D01*
X145873000Y-70147000D01*
X145873000Y-70127000D01*
X144673750Y-70127000D01*
X144515000Y-70285750D01*
X144511928Y-70850000D01*
X144524188Y-70974482D01*
X144560498Y-71094180D01*
X144619463Y-71204494D01*
X144698815Y-71301185D01*
X144795506Y-71380537D01*
X144905820Y-71439502D01*
X144978380Y-71461513D01*
X144846525Y-71593368D01*
X144684010Y-71836589D01*
X144572068Y-72106842D01*
X144515000Y-72393740D01*
X144515000Y-72686260D01*
X144572068Y-72973158D01*
X144684010Y-73243411D01*
X144846525Y-73486632D01*
X145053368Y-73693475D01*
X145227760Y-73810000D01*
X145053368Y-73926525D01*
X144846525Y-74133368D01*
X144684010Y-74376589D01*
X144572068Y-74646842D01*
X144515000Y-74933740D01*
X144515000Y-75226260D01*
X144572068Y-75513158D01*
X144684010Y-75783411D01*
X144846525Y-76026632D01*
X145053368Y-76233475D01*
X145227760Y-76350000D01*
X145053368Y-76466525D01*
X144846525Y-76673368D01*
X144684010Y-76916589D01*
X144572068Y-77186842D01*
X144515000Y-77473740D01*
X144515000Y-77766260D01*
X144518461Y-77783659D01*
X140223804Y-73489003D01*
X140200001Y-73459999D01*
X140084276Y-73365026D01*
X139952247Y-73294454D01*
X139808986Y-73250997D01*
X139697333Y-73240000D01*
X139697322Y-73240000D01*
X139660000Y-73236324D01*
X139622678Y-73240000D01*
X139137087Y-73240000D01*
X139125812Y-73125518D01*
X139089502Y-73005820D01*
X139043457Y-72919677D01*
X139080537Y-72874494D01*
X139139502Y-72764180D01*
X139175812Y-72644482D01*
X139187087Y-72530000D01*
X139646289Y-72530000D01*
X139690226Y-72573937D01*
X139859744Y-72687205D01*
X140048102Y-72765226D01*
X140248061Y-72805000D01*
X140451939Y-72805000D01*
X140651898Y-72765226D01*
X140840256Y-72687205D01*
X141009774Y-72573937D01*
X141153937Y-72429774D01*
X141267205Y-72260256D01*
X141345226Y-72071898D01*
X141385000Y-71871939D01*
X141385000Y-71668061D01*
X141345226Y-71468102D01*
X141267205Y-71279744D01*
X141153937Y-71110226D01*
X141009774Y-70966063D01*
X140840256Y-70852795D01*
X140651898Y-70774774D01*
X140451939Y-70735000D01*
X140248061Y-70735000D01*
X140048102Y-70774774D01*
X139859744Y-70852795D01*
X139690226Y-70966063D01*
X139646289Y-71010000D01*
X139187087Y-71010000D01*
X139175812Y-70895518D01*
X139139502Y-70775820D01*
X139080537Y-70665506D01*
X139001185Y-70568815D01*
X138904494Y-70489463D01*
X138794180Y-70430498D01*
X138674482Y-70394188D01*
X138550000Y-70381928D01*
X137550000Y-70381928D01*
X137510000Y-70385868D01*
X137510000Y-68807325D01*
X137513676Y-68770000D01*
X137510000Y-68732675D01*
X137510000Y-68732667D01*
X137499003Y-68621014D01*
X137455546Y-68477753D01*
X137384974Y-68345724D01*
X137290001Y-68229999D01*
X137261003Y-68206201D01*
X136651705Y-67596904D01*
X136804759Y-67494637D01*
X137004637Y-67294759D01*
X137160000Y-67062241D01*
X137315363Y-67294759D01*
X137515241Y-67494637D01*
X137750273Y-67651680D01*
X137814847Y-67678427D01*
X137830960Y-67698061D01*
X137890000Y-67770001D01*
X137918998Y-67793799D01*
X138436200Y-68311002D01*
X138459999Y-68340001D01*
X138575724Y-68434974D01*
X138707753Y-68505546D01*
X138851014Y-68549003D01*
X138962667Y-68560000D01*
X138962675Y-68560000D01*
X139000000Y-68563676D01*
X139037325Y-68560000D01*
X144907462Y-68560000D01*
X144905820Y-68560498D01*
X144795506Y-68619463D01*
X144698815Y-68698815D01*
X144619463Y-68795506D01*
X144560498Y-68905820D01*
X144524188Y-69025518D01*
X144511928Y-69150000D01*
X144515000Y-69714250D01*
X144673750Y-69873000D01*
X145873000Y-69873000D01*
X145873000Y-69853000D01*
X146127000Y-69853000D01*
X146127000Y-69873000D01*
X147326250Y-69873000D01*
X147485000Y-69714250D01*
X147488072Y-69150000D01*
X147475812Y-69025518D01*
X147439502Y-68905820D01*
X147401647Y-68835000D01*
X147501939Y-68835000D01*
X147640001Y-68807538D01*
X147640001Y-73562668D01*
X147636324Y-73600000D01*
X147640001Y-73637333D01*
X147650998Y-73748986D01*
X147660013Y-73778705D01*
X147694454Y-73892246D01*
X147765000Y-74024227D01*
X147765000Y-74101939D01*
X147804774Y-74301898D01*
X147882795Y-74490256D01*
X147996063Y-74659774D01*
X148140226Y-74803937D01*
X148309744Y-74917205D01*
X148498102Y-74995226D01*
X148698061Y-75035000D01*
X148820000Y-75035000D01*
X148820000Y-75106289D01*
X148776063Y-75150226D01*
X148662795Y-75319744D01*
X148584774Y-75508102D01*
X148545000Y-75708061D01*
X148545000Y-75911939D01*
X148584774Y-76111898D01*
X148662795Y-76300256D01*
X148776063Y-76469774D01*
X148920226Y-76613937D01*
X149089744Y-76727205D01*
X149278102Y-76805226D01*
X149478061Y-76845000D01*
X149681939Y-76845000D01*
X149881898Y-76805226D01*
X150070256Y-76727205D01*
X150239774Y-76613937D01*
X150383937Y-76469774D01*
X150497205Y-76300256D01*
X150575226Y-76111898D01*
X150615000Y-75911939D01*
X150615000Y-75708061D01*
X150575226Y-75508102D01*
X150497205Y-75319744D01*
X150383937Y-75150226D01*
X150340000Y-75106289D01*
X150340000Y-71314515D01*
X150345226Y-71301898D01*
X150385000Y-71101939D01*
X150385000Y-70898061D01*
X150345226Y-70698102D01*
X150267205Y-70509744D01*
X150153937Y-70340226D01*
X150009774Y-70196063D01*
X149840256Y-70082795D01*
X149651898Y-70004774D01*
X149451939Y-69965000D01*
X149248061Y-69965000D01*
X149160000Y-69982516D01*
X149160000Y-64238000D01*
X156861928Y-64238000D01*
X156865000Y-64714250D01*
X157023750Y-64873000D01*
X158873000Y-64873000D01*
X158873000Y-63761750D01*
X159127000Y-63761750D01*
X159127000Y-64873000D01*
X160976250Y-64873000D01*
X161135000Y-64714250D01*
X161138072Y-64238000D01*
X161125812Y-64113518D01*
X161089502Y-63993820D01*
X161030537Y-63883506D01*
X160951185Y-63786815D01*
X160854494Y-63707463D01*
X160744180Y-63648498D01*
X160624482Y-63612188D01*
X160500000Y-63599928D01*
X159285750Y-63603000D01*
X159127000Y-63761750D01*
X158873000Y-63761750D01*
X158714250Y-63603000D01*
X157500000Y-63599928D01*
X157375518Y-63612188D01*
X157255820Y-63648498D01*
X157145506Y-63707463D01*
X157048815Y-63786815D01*
X156969463Y-63883506D01*
X156910498Y-63993820D01*
X156874188Y-64113518D01*
X156861928Y-64238000D01*
X149160000Y-64238000D01*
X149160000Y-63037325D01*
X149163676Y-63000000D01*
X149160000Y-62962675D01*
X149160000Y-62962667D01*
X149149003Y-62851014D01*
X149105546Y-62707753D01*
X149034974Y-62575724D01*
X148940001Y-62459999D01*
X148911003Y-62436201D01*
X147134801Y-60660000D01*
X189340000Y-60660000D01*
X189340001Y-75564763D01*
G37*
%TD.AperFunction*%
D25*
X102565001Y-73739803D02*
X102565001Y-74424335D01*
X102317177Y-74176511D01*
X101721818Y-73778705D01*
X101060290Y-73504691D01*
X100358016Y-73365000D01*
X99641984Y-73365000D01*
X98939710Y-73504691D01*
X98278182Y-73778705D01*
X97682823Y-74176511D01*
X97176511Y-74682823D01*
X96778705Y-75278182D01*
X96504691Y-75939710D01*
X96365000Y-76641984D01*
X96365000Y-77358016D01*
X96504691Y-78060290D01*
X96778705Y-78721818D01*
X97176511Y-79317177D01*
X97682823Y-79823489D01*
X98278182Y-80221295D01*
X98359553Y-80255000D01*
X98313740Y-80255000D01*
X98026842Y-80312068D01*
X97756589Y-80424010D01*
X97513368Y-80586525D01*
X97306525Y-80793368D01*
X97144010Y-81036589D01*
X97032068Y-81306842D01*
X96975000Y-81593740D01*
X96975000Y-81886260D01*
X97032068Y-82173158D01*
X97144010Y-82443411D01*
X97306525Y-82686632D01*
X97513368Y-82893475D01*
X97687760Y-83010000D01*
X97513368Y-83126525D01*
X97306525Y-83333368D01*
X97144010Y-83576589D01*
X97032068Y-83846842D01*
X96975000Y-84133740D01*
X96975000Y-84426260D01*
X97032068Y-84713158D01*
X97144010Y-84983411D01*
X97306525Y-85226632D01*
X97513368Y-85433475D01*
X97687760Y-85550000D01*
X97513368Y-85666525D01*
X97306525Y-85873368D01*
X97144010Y-86116589D01*
X97032068Y-86386842D01*
X96975000Y-86673740D01*
X96975000Y-86966260D01*
X97032068Y-87253158D01*
X97144010Y-87523411D01*
X97306525Y-87766632D01*
X97513368Y-87973475D01*
X97695534Y-88095195D01*
X97578645Y-88164822D01*
X97362412Y-88359731D01*
X97188359Y-88593080D01*
X97063175Y-88855901D01*
X97018524Y-89003110D01*
X97139845Y-89233000D01*
X98333000Y-89233000D01*
X98333000Y-89213000D01*
X98587000Y-89213000D01*
X98587000Y-89233000D01*
X98607000Y-89233000D01*
X98607000Y-89487000D01*
X98587000Y-89487000D01*
X98587000Y-89507000D01*
X98333000Y-89507000D01*
X98333000Y-89487000D01*
X97139845Y-89487000D01*
X97018524Y-89716890D01*
X97063175Y-89864099D01*
X97188359Y-90126920D01*
X97362412Y-90360269D01*
X97578645Y-90555178D01*
X97695534Y-90624805D01*
X97513368Y-90746525D01*
X97306525Y-90953368D01*
X97144010Y-91196589D01*
X97032068Y-91466842D01*
X96975000Y-91753740D01*
X96975000Y-92046260D01*
X97032068Y-92333158D01*
X97144010Y-92603411D01*
X97306525Y-92846632D01*
X97513368Y-93053475D01*
X97695534Y-93175195D01*
X97578645Y-93244822D01*
X97362412Y-93439731D01*
X97188359Y-93673080D01*
X97063175Y-93935901D01*
X97018524Y-94083110D01*
X97139845Y-94313000D01*
X98333000Y-94313000D01*
X98333000Y-94293000D01*
X98587000Y-94293000D01*
X98587000Y-94313000D01*
X98607000Y-94313000D01*
X98607000Y-94567000D01*
X98587000Y-94567000D01*
X98587000Y-94587000D01*
X98333000Y-94587000D01*
X98333000Y-94567000D01*
X97139845Y-94567000D01*
X97018524Y-94796890D01*
X97063175Y-94944099D01*
X97188359Y-95206920D01*
X97362412Y-95440269D01*
X97578645Y-95635178D01*
X97695534Y-95704805D01*
X97513368Y-95826525D01*
X97306525Y-96033368D01*
X97144010Y-96276589D01*
X97032068Y-96546842D01*
X96975000Y-96833740D01*
X96975000Y-97126260D01*
X97032068Y-97413158D01*
X97144010Y-97683411D01*
X97306525Y-97926632D01*
X97513368Y-98133475D01*
X97687760Y-98250000D01*
X97513368Y-98366525D01*
X97306525Y-98573368D01*
X97144010Y-98816589D01*
X97032068Y-99086842D01*
X96975000Y-99373740D01*
X96975000Y-99666260D01*
X97032068Y-99953158D01*
X97144010Y-100223411D01*
X97306525Y-100466632D01*
X97513368Y-100673475D01*
X97687760Y-100790000D01*
X97513368Y-100906525D01*
X97306525Y-101113368D01*
X97144010Y-101356589D01*
X97032068Y-101626842D01*
X96975000Y-101913740D01*
X96975000Y-102206260D01*
X97032068Y-102493158D01*
X97144010Y-102763411D01*
X97306525Y-103006632D01*
X97513368Y-103213475D01*
X97687760Y-103330000D01*
X97513368Y-103446525D01*
X97306525Y-103653368D01*
X97144010Y-103896589D01*
X97032068Y-104166842D01*
X96975000Y-104453740D01*
X96975000Y-104746260D01*
X97032068Y-105033158D01*
X97144010Y-105303411D01*
X97306525Y-105546632D01*
X97513368Y-105753475D01*
X97695534Y-105875195D01*
X97578645Y-105944822D01*
X97362412Y-106139731D01*
X97188359Y-106373080D01*
X97063175Y-106635901D01*
X97018524Y-106783110D01*
X97139845Y-107013000D01*
X98333000Y-107013000D01*
X98333000Y-106993000D01*
X98587000Y-106993000D01*
X98587000Y-107013000D01*
X98607000Y-107013000D01*
X98607000Y-107267000D01*
X98587000Y-107267000D01*
X98587000Y-107287000D01*
X98333000Y-107287000D01*
X98333000Y-107267000D01*
X97139845Y-107267000D01*
X97018524Y-107496890D01*
X97063175Y-107644099D01*
X97188359Y-107906920D01*
X97362412Y-108140269D01*
X97578645Y-108335178D01*
X97695534Y-108404805D01*
X97513368Y-108526525D01*
X97306525Y-108733368D01*
X97144010Y-108976589D01*
X97032068Y-109246842D01*
X96975000Y-109533740D01*
X96975000Y-109826260D01*
X97032068Y-110113158D01*
X97144010Y-110383411D01*
X97306525Y-110626632D01*
X97513368Y-110833475D01*
X97687760Y-110950000D01*
X97513368Y-111066525D01*
X97306525Y-111273368D01*
X97144010Y-111516589D01*
X97032068Y-111786842D01*
X96975000Y-112073740D01*
X96975000Y-112366260D01*
X97032068Y-112653158D01*
X97144010Y-112923411D01*
X97306525Y-113166632D01*
X97513368Y-113373475D01*
X97695534Y-113495195D01*
X97578645Y-113564822D01*
X97362412Y-113759731D01*
X97188359Y-113993080D01*
X97063175Y-114255901D01*
X97018524Y-114403110D01*
X97139845Y-114633000D01*
X98333000Y-114633000D01*
X98333000Y-114613000D01*
X98587000Y-114613000D01*
X98587000Y-114633000D01*
X98607000Y-114633000D01*
X98607000Y-114887000D01*
X98587000Y-114887000D01*
X98587000Y-114907000D01*
X98333000Y-114907000D01*
X98333000Y-114887000D01*
X97139845Y-114887000D01*
X97018524Y-115116890D01*
X97063175Y-115264099D01*
X97188359Y-115526920D01*
X97362412Y-115760269D01*
X97578645Y-115955178D01*
X97695534Y-116024805D01*
X97513368Y-116146525D01*
X97306525Y-116353368D01*
X97144010Y-116596589D01*
X97032068Y-116866842D01*
X96975000Y-117153740D01*
X96975000Y-117446260D01*
X97032068Y-117733158D01*
X97144010Y-118003411D01*
X97306525Y-118246632D01*
X97513368Y-118453475D01*
X97687760Y-118570000D01*
X97513368Y-118686525D01*
X97306525Y-118893368D01*
X97144010Y-119136589D01*
X97032068Y-119406842D01*
X96975000Y-119693740D01*
X96975000Y-119986260D01*
X97032068Y-120273158D01*
X97144010Y-120543411D01*
X97306525Y-120786632D01*
X97513368Y-120993475D01*
X97687760Y-121110000D01*
X97513368Y-121226525D01*
X97306525Y-121433368D01*
X97144010Y-121676589D01*
X97032068Y-121946842D01*
X96975000Y-122233740D01*
X96975000Y-122526260D01*
X97032068Y-122813158D01*
X97144010Y-123083411D01*
X97306525Y-123326632D01*
X97513368Y-123533475D01*
X97695534Y-123655195D01*
X97578645Y-123724822D01*
X97362412Y-123919731D01*
X97188359Y-124153080D01*
X97063175Y-124415901D01*
X97018524Y-124563110D01*
X97139845Y-124793000D01*
X98333000Y-124793000D01*
X98333000Y-124773000D01*
X98587000Y-124773000D01*
X98587000Y-124793000D01*
X98607000Y-124793000D01*
X98607000Y-125047000D01*
X98587000Y-125047000D01*
X98587000Y-125067000D01*
X98333000Y-125067000D01*
X98333000Y-125047000D01*
X97139845Y-125047000D01*
X97018524Y-125276890D01*
X97063175Y-125424099D01*
X97188359Y-125686920D01*
X97362412Y-125920269D01*
X97578645Y-126115178D01*
X97695534Y-126184805D01*
X97513368Y-126306525D01*
X97306525Y-126513368D01*
X97181822Y-126700000D01*
X96994802Y-126700000D01*
X95940000Y-125645199D01*
X95940000Y-74405802D01*
X96017205Y-74290256D01*
X96095226Y-74101898D01*
X96113184Y-74011617D01*
X97064802Y-73060000D01*
X101885199Y-73060000D01*
X102565001Y-73739803D01*
%TA.AperFunction,Conductor*%
D26*
G36*
X102565001Y-73739803D02*
G01*
X102565001Y-74424335D01*
X102317177Y-74176511D01*
X101721818Y-73778705D01*
X101060290Y-73504691D01*
X100358016Y-73365000D01*
X99641984Y-73365000D01*
X98939710Y-73504691D01*
X98278182Y-73778705D01*
X97682823Y-74176511D01*
X97176511Y-74682823D01*
X96778705Y-75278182D01*
X96504691Y-75939710D01*
X96365000Y-76641984D01*
X96365000Y-77358016D01*
X96504691Y-78060290D01*
X96778705Y-78721818D01*
X97176511Y-79317177D01*
X97682823Y-79823489D01*
X98278182Y-80221295D01*
X98359553Y-80255000D01*
X98313740Y-80255000D01*
X98026842Y-80312068D01*
X97756589Y-80424010D01*
X97513368Y-80586525D01*
X97306525Y-80793368D01*
X97144010Y-81036589D01*
X97032068Y-81306842D01*
X96975000Y-81593740D01*
X96975000Y-81886260D01*
X97032068Y-82173158D01*
X97144010Y-82443411D01*
X97306525Y-82686632D01*
X97513368Y-82893475D01*
X97687760Y-83010000D01*
X97513368Y-83126525D01*
X97306525Y-83333368D01*
X97144010Y-83576589D01*
X97032068Y-83846842D01*
X96975000Y-84133740D01*
X96975000Y-84426260D01*
X97032068Y-84713158D01*
X97144010Y-84983411D01*
X97306525Y-85226632D01*
X97513368Y-85433475D01*
X97687760Y-85550000D01*
X97513368Y-85666525D01*
X97306525Y-85873368D01*
X97144010Y-86116589D01*
X97032068Y-86386842D01*
X96975000Y-86673740D01*
X96975000Y-86966260D01*
X97032068Y-87253158D01*
X97144010Y-87523411D01*
X97306525Y-87766632D01*
X97513368Y-87973475D01*
X97695534Y-88095195D01*
X97578645Y-88164822D01*
X97362412Y-88359731D01*
X97188359Y-88593080D01*
X97063175Y-88855901D01*
X97018524Y-89003110D01*
X97139845Y-89233000D01*
X98333000Y-89233000D01*
X98333000Y-89213000D01*
X98587000Y-89213000D01*
X98587000Y-89233000D01*
X98607000Y-89233000D01*
X98607000Y-89487000D01*
X98587000Y-89487000D01*
X98587000Y-89507000D01*
X98333000Y-89507000D01*
X98333000Y-89487000D01*
X97139845Y-89487000D01*
X97018524Y-89716890D01*
X97063175Y-89864099D01*
X97188359Y-90126920D01*
X97362412Y-90360269D01*
X97578645Y-90555178D01*
X97695534Y-90624805D01*
X97513368Y-90746525D01*
X97306525Y-90953368D01*
X97144010Y-91196589D01*
X97032068Y-91466842D01*
X96975000Y-91753740D01*
X96975000Y-92046260D01*
X97032068Y-92333158D01*
X97144010Y-92603411D01*
X97306525Y-92846632D01*
X97513368Y-93053475D01*
X97695534Y-93175195D01*
X97578645Y-93244822D01*
X97362412Y-93439731D01*
X97188359Y-93673080D01*
X97063175Y-93935901D01*
X97018524Y-94083110D01*
X97139845Y-94313000D01*
X98333000Y-94313000D01*
X98333000Y-94293000D01*
X98587000Y-94293000D01*
X98587000Y-94313000D01*
X98607000Y-94313000D01*
X98607000Y-94567000D01*
X98587000Y-94567000D01*
X98587000Y-94587000D01*
X98333000Y-94587000D01*
X98333000Y-94567000D01*
X97139845Y-94567000D01*
X97018524Y-94796890D01*
X97063175Y-94944099D01*
X97188359Y-95206920D01*
X97362412Y-95440269D01*
X97578645Y-95635178D01*
X97695534Y-95704805D01*
X97513368Y-95826525D01*
X97306525Y-96033368D01*
X97144010Y-96276589D01*
X97032068Y-96546842D01*
X96975000Y-96833740D01*
X96975000Y-97126260D01*
X97032068Y-97413158D01*
X97144010Y-97683411D01*
X97306525Y-97926632D01*
X97513368Y-98133475D01*
X97687760Y-98250000D01*
X97513368Y-98366525D01*
X97306525Y-98573368D01*
X97144010Y-98816589D01*
X97032068Y-99086842D01*
X96975000Y-99373740D01*
X96975000Y-99666260D01*
X97032068Y-99953158D01*
X97144010Y-100223411D01*
X97306525Y-100466632D01*
X97513368Y-100673475D01*
X97687760Y-100790000D01*
X97513368Y-100906525D01*
X97306525Y-101113368D01*
X97144010Y-101356589D01*
X97032068Y-101626842D01*
X96975000Y-101913740D01*
X96975000Y-102206260D01*
X97032068Y-102493158D01*
X97144010Y-102763411D01*
X97306525Y-103006632D01*
X97513368Y-103213475D01*
X97687760Y-103330000D01*
X97513368Y-103446525D01*
X97306525Y-103653368D01*
X97144010Y-103896589D01*
X97032068Y-104166842D01*
X96975000Y-104453740D01*
X96975000Y-104746260D01*
X97032068Y-105033158D01*
X97144010Y-105303411D01*
X97306525Y-105546632D01*
X97513368Y-105753475D01*
X97695534Y-105875195D01*
X97578645Y-105944822D01*
X97362412Y-106139731D01*
X97188359Y-106373080D01*
X97063175Y-106635901D01*
X97018524Y-106783110D01*
X97139845Y-107013000D01*
X98333000Y-107013000D01*
X98333000Y-106993000D01*
X98587000Y-106993000D01*
X98587000Y-107013000D01*
X98607000Y-107013000D01*
X98607000Y-107267000D01*
X98587000Y-107267000D01*
X98587000Y-107287000D01*
X98333000Y-107287000D01*
X98333000Y-107267000D01*
X97139845Y-107267000D01*
X97018524Y-107496890D01*
X97063175Y-107644099D01*
X97188359Y-107906920D01*
X97362412Y-108140269D01*
X97578645Y-108335178D01*
X97695534Y-108404805D01*
X97513368Y-108526525D01*
X97306525Y-108733368D01*
X97144010Y-108976589D01*
X97032068Y-109246842D01*
X96975000Y-109533740D01*
X96975000Y-109826260D01*
X97032068Y-110113158D01*
X97144010Y-110383411D01*
X97306525Y-110626632D01*
X97513368Y-110833475D01*
X97687760Y-110950000D01*
X97513368Y-111066525D01*
X97306525Y-111273368D01*
X97144010Y-111516589D01*
X97032068Y-111786842D01*
X96975000Y-112073740D01*
X96975000Y-112366260D01*
X97032068Y-112653158D01*
X97144010Y-112923411D01*
X97306525Y-113166632D01*
X97513368Y-113373475D01*
X97695534Y-113495195D01*
X97578645Y-113564822D01*
X97362412Y-113759731D01*
X97188359Y-113993080D01*
X97063175Y-114255901D01*
X97018524Y-114403110D01*
X97139845Y-114633000D01*
X98333000Y-114633000D01*
X98333000Y-114613000D01*
X98587000Y-114613000D01*
X98587000Y-114633000D01*
X98607000Y-114633000D01*
X98607000Y-114887000D01*
X98587000Y-114887000D01*
X98587000Y-114907000D01*
X98333000Y-114907000D01*
X98333000Y-114887000D01*
X97139845Y-114887000D01*
X97018524Y-115116890D01*
X97063175Y-115264099D01*
X97188359Y-115526920D01*
X97362412Y-115760269D01*
X97578645Y-115955178D01*
X97695534Y-116024805D01*
X97513368Y-116146525D01*
X97306525Y-116353368D01*
X97144010Y-116596589D01*
X97032068Y-116866842D01*
X96975000Y-117153740D01*
X96975000Y-117446260D01*
X97032068Y-117733158D01*
X97144010Y-118003411D01*
X97306525Y-118246632D01*
X97513368Y-118453475D01*
X97687760Y-118570000D01*
X97513368Y-118686525D01*
X97306525Y-118893368D01*
X97144010Y-119136589D01*
X97032068Y-119406842D01*
X96975000Y-119693740D01*
X96975000Y-119986260D01*
X97032068Y-120273158D01*
X97144010Y-120543411D01*
X97306525Y-120786632D01*
X97513368Y-120993475D01*
X97687760Y-121110000D01*
X97513368Y-121226525D01*
X97306525Y-121433368D01*
X97144010Y-121676589D01*
X97032068Y-121946842D01*
X96975000Y-122233740D01*
X96975000Y-122526260D01*
X97032068Y-122813158D01*
X97144010Y-123083411D01*
X97306525Y-123326632D01*
X97513368Y-123533475D01*
X97695534Y-123655195D01*
X97578645Y-123724822D01*
X97362412Y-123919731D01*
X97188359Y-124153080D01*
X97063175Y-124415901D01*
X97018524Y-124563110D01*
X97139845Y-124793000D01*
X98333000Y-124793000D01*
X98333000Y-124773000D01*
X98587000Y-124773000D01*
X98587000Y-124793000D01*
X98607000Y-124793000D01*
X98607000Y-125047000D01*
X98587000Y-125047000D01*
X98587000Y-125067000D01*
X98333000Y-125067000D01*
X98333000Y-125047000D01*
X97139845Y-125047000D01*
X97018524Y-125276890D01*
X97063175Y-125424099D01*
X97188359Y-125686920D01*
X97362412Y-125920269D01*
X97578645Y-126115178D01*
X97695534Y-126184805D01*
X97513368Y-126306525D01*
X97306525Y-126513368D01*
X97181822Y-126700000D01*
X96994802Y-126700000D01*
X95940000Y-125645199D01*
X95940000Y-74405802D01*
X96017205Y-74290256D01*
X96095226Y-74101898D01*
X96113184Y-74011617D01*
X97064802Y-73060000D01*
X101885199Y-73060000D01*
X102565001Y-73739803D01*
G37*
%TD.AperFunction*%
D25*
X134946200Y-74511002D02*
X134969999Y-74540001D01*
X135085724Y-74634974D01*
X135217753Y-74705546D01*
X135361014Y-74749003D01*
X135472667Y-74760000D01*
X135472676Y-74760000D01*
X135509999Y-74763676D01*
X135547322Y-74760000D01*
X135562913Y-74760000D01*
X135574188Y-74874482D01*
X135610498Y-74994180D01*
X135669463Y-75104494D01*
X135748815Y-75201185D01*
X135845506Y-75280537D01*
X135955820Y-75339502D01*
X136075518Y-75375812D01*
X136200000Y-75388072D01*
X137200000Y-75388072D01*
X137324482Y-75375812D01*
X137350000Y-75368071D01*
X137375518Y-75375812D01*
X137500000Y-75388072D01*
X137561406Y-75388072D01*
X137603292Y-75416059D01*
X137791650Y-75494080D01*
X137991609Y-75533854D01*
X138195487Y-75533854D01*
X138395446Y-75494080D01*
X138583804Y-75416059D01*
X138660298Y-75364947D01*
X138744180Y-75339502D01*
X138854494Y-75280537D01*
X138951185Y-75201185D01*
X139030537Y-75104494D01*
X139089502Y-74994180D01*
X139125812Y-74874482D01*
X139137087Y-74760000D01*
X139345199Y-74760000D01*
X144976201Y-80391003D01*
X144999999Y-80420001D01*
X145115724Y-80514974D01*
X145247753Y-80585546D01*
X145391014Y-80629003D01*
X145502667Y-80640000D01*
X145502675Y-80640000D01*
X145540000Y-80643676D01*
X145577325Y-80640000D01*
X149712678Y-80640000D01*
X149750000Y-80643676D01*
X149787322Y-80640000D01*
X149787333Y-80640000D01*
X149898986Y-80629003D01*
X150042247Y-80585546D01*
X150174276Y-80514974D01*
X150290001Y-80420001D01*
X150313804Y-80390997D01*
X150942801Y-79762000D01*
X156861928Y-79762000D01*
X156874188Y-79886482D01*
X156910498Y-80006180D01*
X156969463Y-80116494D01*
X157048815Y-80213185D01*
X157145506Y-80292537D01*
X157255820Y-80351502D01*
X157375518Y-80387812D01*
X157500000Y-80400072D01*
X158714250Y-80397000D01*
X158873000Y-80238250D01*
X158873000Y-79127000D01*
X157023750Y-79127000D01*
X156865000Y-79285750D01*
X156861928Y-79762000D01*
X150942801Y-79762000D01*
X152491004Y-78213798D01*
X152520001Y-78190001D01*
X152614974Y-78074276D01*
X152685546Y-77942247D01*
X152693792Y-77915064D01*
X152698815Y-77921185D01*
X152795506Y-78000537D01*
X152905820Y-78059502D01*
X153025518Y-78095812D01*
X153150000Y-78108072D01*
X154850000Y-78108072D01*
X154974482Y-78095812D01*
X155094180Y-78059502D01*
X155204494Y-78000537D01*
X155301185Y-77921185D01*
X155380537Y-77824494D01*
X155439502Y-77714180D01*
X155475812Y-77594482D01*
X155488072Y-77470000D01*
X155488072Y-77373033D01*
X155528986Y-77369003D01*
X155672247Y-77325546D01*
X155804276Y-77254974D01*
X155920001Y-77160001D01*
X155943804Y-77130997D01*
X156864673Y-76210129D01*
X156861928Y-76238000D01*
X156861928Y-77762000D01*
X156874188Y-77886482D01*
X156908623Y-78000000D01*
X156874188Y-78113518D01*
X156861928Y-78238000D01*
X156865000Y-78714250D01*
X157023750Y-78873000D01*
X158873000Y-78873000D01*
X158873000Y-78853000D01*
X159127000Y-78853000D01*
X159127000Y-78873000D01*
X159147000Y-78873000D01*
X159147000Y-79127000D01*
X159127000Y-79127000D01*
X159127000Y-80238250D01*
X159285750Y-80397000D01*
X159374975Y-80397226D01*
X155422201Y-84350000D01*
X148903711Y-84350000D01*
X148859774Y-84306063D01*
X148690256Y-84192795D01*
X148501898Y-84114774D01*
X148301939Y-84075000D01*
X148098061Y-84075000D01*
X147898102Y-84114774D01*
X147709744Y-84192795D01*
X147540226Y-84306063D01*
X147396063Y-84450226D01*
X147282795Y-84619744D01*
X147204774Y-84808102D01*
X147165000Y-85008061D01*
X147165000Y-85070198D01*
X144845199Y-87390000D01*
X137828178Y-87390000D01*
X137703475Y-87203368D01*
X137496632Y-86996525D01*
X137253411Y-86834010D01*
X136983158Y-86722068D01*
X136696260Y-86665000D01*
X136403740Y-86665000D01*
X136116842Y-86722068D01*
X135846589Y-86834010D01*
X135603368Y-86996525D01*
X135396525Y-87203368D01*
X135280000Y-87377760D01*
X135163475Y-87203368D01*
X134956632Y-86996525D01*
X134713411Y-86834010D01*
X134443158Y-86722068D01*
X134156260Y-86665000D01*
X133863740Y-86665000D01*
X133576842Y-86722068D01*
X133306589Y-86834010D01*
X133063368Y-86996525D01*
X132931513Y-87128380D01*
X132909502Y-87055820D01*
X132850537Y-86945506D01*
X132771185Y-86848815D01*
X132674494Y-86769463D01*
X132564180Y-86710498D01*
X132444482Y-86674188D01*
X132320000Y-86661928D01*
X130620000Y-86661928D01*
X130495518Y-86674188D01*
X130375820Y-86710498D01*
X130265506Y-86769463D01*
X130168815Y-86848815D01*
X130089463Y-86945506D01*
X130030498Y-87055820D01*
X129994188Y-87175518D01*
X129987837Y-87240000D01*
X129179527Y-87240000D01*
X129170472Y-87210149D01*
X129088405Y-87056613D01*
X128977962Y-86922038D01*
X128843387Y-86811595D01*
X128689851Y-86729528D01*
X128523255Y-86678992D01*
X128350001Y-86661928D01*
X127649999Y-86661928D01*
X127476745Y-86678992D01*
X127310149Y-86729528D01*
X127156613Y-86811595D01*
X127022038Y-86922038D01*
X127000000Y-86948891D01*
X126977962Y-86922038D01*
X126843387Y-86811595D01*
X126689851Y-86729528D01*
X126523255Y-86678992D01*
X126350001Y-86661928D01*
X125649999Y-86661928D01*
X125476745Y-86678992D01*
X125310149Y-86729528D01*
X125156613Y-86811595D01*
X125022038Y-86922038D01*
X124911595Y-87056613D01*
X124829528Y-87210149D01*
X124818249Y-87247330D01*
X124781014Y-87250997D01*
X124637753Y-87294454D01*
X124505724Y-87365026D01*
X124389999Y-87459999D01*
X124366201Y-87488997D01*
X122880288Y-88974911D01*
X122850000Y-88971928D01*
X121150000Y-88971928D01*
X121025518Y-88984188D01*
X120905820Y-89020498D01*
X120795506Y-89079463D01*
X120698815Y-89158815D01*
X120619463Y-89255506D01*
X120560498Y-89365820D01*
X120538487Y-89438380D01*
X120406632Y-89306525D01*
X120163411Y-89144010D01*
X119893158Y-89032068D01*
X119606260Y-88975000D01*
X119313740Y-88975000D01*
X119026842Y-89032068D01*
X118756589Y-89144010D01*
X118513368Y-89306525D01*
X118306525Y-89513368D01*
X118190000Y-89687760D01*
X118073475Y-89513368D01*
X117866632Y-89306525D01*
X117623411Y-89144010D01*
X117353158Y-89032068D01*
X117066260Y-88975000D01*
X116773740Y-88975000D01*
X116553592Y-89018791D01*
X116480000Y-88945199D01*
X116480000Y-86257323D01*
X116483676Y-86220000D01*
X116480000Y-86182677D01*
X116480000Y-86182667D01*
X116469003Y-86071014D01*
X116425546Y-85927753D01*
X116411146Y-85900812D01*
X116354974Y-85795723D01*
X116283799Y-85708997D01*
X116260001Y-85679999D01*
X116231004Y-85656202D01*
X114926304Y-84351503D01*
X114902501Y-84322499D01*
X114786776Y-84227526D01*
X114654747Y-84156954D01*
X114511486Y-84113497D01*
X114399833Y-84102500D01*
X114399822Y-84102500D01*
X114362500Y-84098824D01*
X114325178Y-84102500D01*
X113451294Y-84102500D01*
X113413405Y-84031614D01*
X113302962Y-83897038D01*
X113168386Y-83786595D01*
X113014850Y-83704528D01*
X112848254Y-83653992D01*
X112675000Y-83636928D01*
X112049230Y-83636928D01*
X110960000Y-82547699D01*
X110960000Y-80820000D01*
X111591928Y-80820000D01*
X111591928Y-82420000D01*
X111604188Y-82544482D01*
X111640498Y-82664180D01*
X111699463Y-82774494D01*
X111778815Y-82871185D01*
X111875506Y-82950537D01*
X111985820Y-83009502D01*
X112105518Y-83045812D01*
X112230000Y-83058072D01*
X113830000Y-83058072D01*
X113954482Y-83045812D01*
X114074180Y-83009502D01*
X114184494Y-82950537D01*
X114281185Y-82871185D01*
X114360537Y-82774494D01*
X114419502Y-82664180D01*
X114455812Y-82544482D01*
X114456643Y-82536039D01*
X114655241Y-82734637D01*
X114890273Y-82891680D01*
X115151426Y-82999853D01*
X115428665Y-83055000D01*
X115711335Y-83055000D01*
X115988574Y-82999853D01*
X116249727Y-82891680D01*
X116484759Y-82734637D01*
X116606694Y-82612702D01*
X117296903Y-82612702D01*
X117368486Y-82856671D01*
X117623996Y-82977571D01*
X117898184Y-83046300D01*
X118180512Y-83060217D01*
X118460130Y-83018787D01*
X118726292Y-82923603D01*
X118851514Y-82856671D01*
X118923097Y-82612702D01*
X119836903Y-82612702D01*
X119908486Y-82856671D01*
X120163996Y-82977571D01*
X120438184Y-83046300D01*
X120720512Y-83060217D01*
X121000130Y-83018787D01*
X121266292Y-82923603D01*
X121391514Y-82856671D01*
X121463097Y-82612702D01*
X120650000Y-81799605D01*
X119836903Y-82612702D01*
X118923097Y-82612702D01*
X118110000Y-81799605D01*
X117296903Y-82612702D01*
X116606694Y-82612702D01*
X116684637Y-82534759D01*
X116840915Y-82300872D01*
X116873329Y-82361514D01*
X117117298Y-82433097D01*
X117930395Y-81620000D01*
X118289605Y-81620000D01*
X119102702Y-82433097D01*
X119346671Y-82361514D01*
X119377971Y-82295364D01*
X119413329Y-82361514D01*
X119657298Y-82433097D01*
X120470395Y-81620000D01*
X119657298Y-80806903D01*
X119413329Y-80878486D01*
X119382029Y-80944636D01*
X119346671Y-80878486D01*
X119102702Y-80806903D01*
X118289605Y-81620000D01*
X117930395Y-81620000D01*
X117117298Y-80806903D01*
X116873329Y-80878486D01*
X116842806Y-80942992D01*
X116841680Y-80940273D01*
X116684637Y-80705241D01*
X116606694Y-80627298D01*
X117296903Y-80627298D01*
X118110000Y-81440395D01*
X118923097Y-80627298D01*
X118851514Y-80383329D01*
X118596004Y-80262429D01*
X118321816Y-80193700D01*
X118039488Y-80179783D01*
X117759870Y-80221213D01*
X117493708Y-80316397D01*
X117368486Y-80383329D01*
X117296903Y-80627298D01*
X116606694Y-80627298D01*
X116484759Y-80505363D01*
X116249727Y-80348320D01*
X115988574Y-80240147D01*
X115711335Y-80185000D01*
X115428665Y-80185000D01*
X115151426Y-80240147D01*
X114890273Y-80348320D01*
X114655241Y-80505363D01*
X114456643Y-80703961D01*
X114455812Y-80695518D01*
X114419502Y-80575820D01*
X114360537Y-80465506D01*
X114281185Y-80368815D01*
X114184494Y-80289463D01*
X114074180Y-80230498D01*
X113954482Y-80194188D01*
X113830000Y-80181928D01*
X112230000Y-80181928D01*
X112105518Y-80194188D01*
X111985820Y-80230498D01*
X111875506Y-80289463D01*
X111778815Y-80368815D01*
X111699463Y-80465506D01*
X111640498Y-80575820D01*
X111604188Y-80695518D01*
X111591928Y-80820000D01*
X110960000Y-80820000D01*
X110960000Y-79468061D01*
X118925000Y-79468061D01*
X118925000Y-79671939D01*
X118964774Y-79871898D01*
X119042795Y-80060256D01*
X119156063Y-80229774D01*
X119300226Y-80373937D01*
X119469744Y-80487205D01*
X119658102Y-80565226D01*
X119844251Y-80602253D01*
X119836903Y-80627298D01*
X120650000Y-81440395D01*
X121463097Y-80627298D01*
X121391514Y-80383329D01*
X121278809Y-80330000D01*
X122554501Y-80330000D01*
X122510273Y-80348320D01*
X122275241Y-80505363D01*
X122075363Y-80705241D01*
X121919085Y-80939128D01*
X121886671Y-80878486D01*
X121642702Y-80806903D01*
X120829605Y-81620000D01*
X121642702Y-82433097D01*
X121886671Y-82361514D01*
X121917194Y-82297008D01*
X121918320Y-82299727D01*
X122075363Y-82534759D01*
X122275241Y-82734637D01*
X122510273Y-82891680D01*
X122771426Y-82999853D01*
X123048665Y-83055000D01*
X123331335Y-83055000D01*
X123608574Y-82999853D01*
X123869727Y-82891680D01*
X124104759Y-82734637D01*
X124304637Y-82534759D01*
X124460000Y-82302241D01*
X124615363Y-82534759D01*
X124815241Y-82734637D01*
X125050273Y-82891680D01*
X125311426Y-82999853D01*
X125588665Y-83055000D01*
X125871335Y-83055000D01*
X126148574Y-82999853D01*
X126409727Y-82891680D01*
X126644759Y-82734637D01*
X126844637Y-82534759D01*
X127000000Y-82302241D01*
X127155363Y-82534759D01*
X127355241Y-82734637D01*
X127590273Y-82891680D01*
X127851426Y-82999853D01*
X128128665Y-83055000D01*
X128411335Y-83055000D01*
X128688574Y-82999853D01*
X128949727Y-82891680D01*
X129184759Y-82734637D01*
X129384637Y-82534759D01*
X129540000Y-82302241D01*
X129695363Y-82534759D01*
X129895241Y-82734637D01*
X130130273Y-82891680D01*
X130391426Y-82999853D01*
X130668665Y-83055000D01*
X130951335Y-83055000D01*
X131228574Y-82999853D01*
X131489727Y-82891680D01*
X131724759Y-82734637D01*
X131924637Y-82534759D01*
X132080000Y-82302241D01*
X132235363Y-82534759D01*
X132435241Y-82734637D01*
X132670273Y-82891680D01*
X132931426Y-82999853D01*
X133208665Y-83055000D01*
X133491335Y-83055000D01*
X133768574Y-82999853D01*
X134029727Y-82891680D01*
X134264759Y-82734637D01*
X134464637Y-82534759D01*
X134620000Y-82302241D01*
X134775363Y-82534759D01*
X134975241Y-82734637D01*
X135210273Y-82891680D01*
X135471426Y-82999853D01*
X135748665Y-83055000D01*
X136031335Y-83055000D01*
X136308574Y-82999853D01*
X136569727Y-82891680D01*
X136804759Y-82734637D01*
X137004637Y-82534759D01*
X137160000Y-82302241D01*
X137315363Y-82534759D01*
X137515241Y-82734637D01*
X137750273Y-82891680D01*
X138011426Y-82999853D01*
X138288665Y-83055000D01*
X138571335Y-83055000D01*
X138848574Y-82999853D01*
X139109727Y-82891680D01*
X139344759Y-82734637D01*
X139544637Y-82534759D01*
X139700000Y-82302241D01*
X139855363Y-82534759D01*
X140055241Y-82734637D01*
X140290273Y-82891680D01*
X140551426Y-82999853D01*
X140828665Y-83055000D01*
X141111335Y-83055000D01*
X141388574Y-82999853D01*
X141649727Y-82891680D01*
X141884759Y-82734637D01*
X142084637Y-82534759D01*
X142241680Y-82299727D01*
X142349853Y-82038574D01*
X142405000Y-81761335D01*
X142405000Y-81478665D01*
X142349853Y-81201426D01*
X142241680Y-80940273D01*
X142084637Y-80705241D01*
X141884759Y-80505363D01*
X141649727Y-80348320D01*
X141605499Y-80330000D01*
X141906289Y-80330000D01*
X141950226Y-80373937D01*
X142119744Y-80487205D01*
X142308102Y-80565226D01*
X142508061Y-80605000D01*
X142711939Y-80605000D01*
X142911898Y-80565226D01*
X143100256Y-80487205D01*
X143269774Y-80373937D01*
X143413937Y-80229774D01*
X143527205Y-80060256D01*
X143605226Y-79871898D01*
X143645000Y-79671939D01*
X143645000Y-79468061D01*
X143605226Y-79268102D01*
X143527205Y-79079744D01*
X143413937Y-78910226D01*
X143269774Y-78766063D01*
X143100256Y-78652795D01*
X142911898Y-78574774D01*
X142711939Y-78535000D01*
X142508061Y-78535000D01*
X142308102Y-78574774D01*
X142119744Y-78652795D01*
X141950226Y-78766063D01*
X141906289Y-78810000D01*
X120663711Y-78810000D01*
X120619774Y-78766063D01*
X120450256Y-78652795D01*
X120261898Y-78574774D01*
X120061939Y-78535000D01*
X119858061Y-78535000D01*
X119658102Y-78574774D01*
X119469744Y-78652795D01*
X119300226Y-78766063D01*
X119156063Y-78910226D01*
X119042795Y-79079744D01*
X118964774Y-79268102D01*
X118925000Y-79468061D01*
X110960000Y-79468061D01*
X110960000Y-77558492D01*
X111060755Y-77600226D01*
X111260714Y-77640000D01*
X111464592Y-77640000D01*
X111664551Y-77600226D01*
X111852909Y-77522205D01*
X112022427Y-77408937D01*
X112166590Y-77264774D01*
X112279858Y-77095256D01*
X112357879Y-76906898D01*
X112397653Y-76706939D01*
X112397653Y-76627148D01*
X113728376Y-75296426D01*
X113712795Y-75319744D01*
X113634774Y-75508102D01*
X113595000Y-75708061D01*
X113595000Y-75911939D01*
X113634774Y-76111898D01*
X113712795Y-76300256D01*
X113826063Y-76469774D01*
X113970226Y-76613937D01*
X114139744Y-76727205D01*
X114328102Y-76805226D01*
X114528061Y-76845000D01*
X114731939Y-76845000D01*
X114931898Y-76805226D01*
X115120256Y-76727205D01*
X115289774Y-76613937D01*
X115433937Y-76469774D01*
X115547205Y-76300256D01*
X115625226Y-76111898D01*
X115665000Y-75911939D01*
X115665000Y-75849801D01*
X117484803Y-74030000D01*
X131866289Y-74030000D01*
X131910226Y-74073937D01*
X132079744Y-74187205D01*
X132268102Y-74265226D01*
X132468061Y-74305000D01*
X132671939Y-74305000D01*
X132871898Y-74265226D01*
X133060256Y-74187205D01*
X133229774Y-74073937D01*
X133373937Y-73929774D01*
X133487205Y-73760256D01*
X133565226Y-73571898D01*
X133605000Y-73371939D01*
X133605000Y-73169801D01*
X134946200Y-74511002D01*
%TA.AperFunction,Conductor*%
D26*
G36*
X134946200Y-74511002D02*
G01*
X134969999Y-74540001D01*
X135085724Y-74634974D01*
X135217753Y-74705546D01*
X135361014Y-74749003D01*
X135472667Y-74760000D01*
X135472676Y-74760000D01*
X135509999Y-74763676D01*
X135547322Y-74760000D01*
X135562913Y-74760000D01*
X135574188Y-74874482D01*
X135610498Y-74994180D01*
X135669463Y-75104494D01*
X135748815Y-75201185D01*
X135845506Y-75280537D01*
X135955820Y-75339502D01*
X136075518Y-75375812D01*
X136200000Y-75388072D01*
X137200000Y-75388072D01*
X137324482Y-75375812D01*
X137350000Y-75368071D01*
X137375518Y-75375812D01*
X137500000Y-75388072D01*
X137561406Y-75388072D01*
X137603292Y-75416059D01*
X137791650Y-75494080D01*
X137991609Y-75533854D01*
X138195487Y-75533854D01*
X138395446Y-75494080D01*
X138583804Y-75416059D01*
X138660298Y-75364947D01*
X138744180Y-75339502D01*
X138854494Y-75280537D01*
X138951185Y-75201185D01*
X139030537Y-75104494D01*
X139089502Y-74994180D01*
X139125812Y-74874482D01*
X139137087Y-74760000D01*
X139345199Y-74760000D01*
X144976201Y-80391003D01*
X144999999Y-80420001D01*
X145115724Y-80514974D01*
X145247753Y-80585546D01*
X145391014Y-80629003D01*
X145502667Y-80640000D01*
X145502675Y-80640000D01*
X145540000Y-80643676D01*
X145577325Y-80640000D01*
X149712678Y-80640000D01*
X149750000Y-80643676D01*
X149787322Y-80640000D01*
X149787333Y-80640000D01*
X149898986Y-80629003D01*
X150042247Y-80585546D01*
X150174276Y-80514974D01*
X150290001Y-80420001D01*
X150313804Y-80390997D01*
X150942801Y-79762000D01*
X156861928Y-79762000D01*
X156874188Y-79886482D01*
X156910498Y-80006180D01*
X156969463Y-80116494D01*
X157048815Y-80213185D01*
X157145506Y-80292537D01*
X157255820Y-80351502D01*
X157375518Y-80387812D01*
X157500000Y-80400072D01*
X158714250Y-80397000D01*
X158873000Y-80238250D01*
X158873000Y-79127000D01*
X157023750Y-79127000D01*
X156865000Y-79285750D01*
X156861928Y-79762000D01*
X150942801Y-79762000D01*
X152491004Y-78213798D01*
X152520001Y-78190001D01*
X152614974Y-78074276D01*
X152685546Y-77942247D01*
X152693792Y-77915064D01*
X152698815Y-77921185D01*
X152795506Y-78000537D01*
X152905820Y-78059502D01*
X153025518Y-78095812D01*
X153150000Y-78108072D01*
X154850000Y-78108072D01*
X154974482Y-78095812D01*
X155094180Y-78059502D01*
X155204494Y-78000537D01*
X155301185Y-77921185D01*
X155380537Y-77824494D01*
X155439502Y-77714180D01*
X155475812Y-77594482D01*
X155488072Y-77470000D01*
X155488072Y-77373033D01*
X155528986Y-77369003D01*
X155672247Y-77325546D01*
X155804276Y-77254974D01*
X155920001Y-77160001D01*
X155943804Y-77130997D01*
X156864673Y-76210129D01*
X156861928Y-76238000D01*
X156861928Y-77762000D01*
X156874188Y-77886482D01*
X156908623Y-78000000D01*
X156874188Y-78113518D01*
X156861928Y-78238000D01*
X156865000Y-78714250D01*
X157023750Y-78873000D01*
X158873000Y-78873000D01*
X158873000Y-78853000D01*
X159127000Y-78853000D01*
X159127000Y-78873000D01*
X159147000Y-78873000D01*
X159147000Y-79127000D01*
X159127000Y-79127000D01*
X159127000Y-80238250D01*
X159285750Y-80397000D01*
X159374975Y-80397226D01*
X155422201Y-84350000D01*
X148903711Y-84350000D01*
X148859774Y-84306063D01*
X148690256Y-84192795D01*
X148501898Y-84114774D01*
X148301939Y-84075000D01*
X148098061Y-84075000D01*
X147898102Y-84114774D01*
X147709744Y-84192795D01*
X147540226Y-84306063D01*
X147396063Y-84450226D01*
X147282795Y-84619744D01*
X147204774Y-84808102D01*
X147165000Y-85008061D01*
X147165000Y-85070198D01*
X144845199Y-87390000D01*
X137828178Y-87390000D01*
X137703475Y-87203368D01*
X137496632Y-86996525D01*
X137253411Y-86834010D01*
X136983158Y-86722068D01*
X136696260Y-86665000D01*
X136403740Y-86665000D01*
X136116842Y-86722068D01*
X135846589Y-86834010D01*
X135603368Y-86996525D01*
X135396525Y-87203368D01*
X135280000Y-87377760D01*
X135163475Y-87203368D01*
X134956632Y-86996525D01*
X134713411Y-86834010D01*
X134443158Y-86722068D01*
X134156260Y-86665000D01*
X133863740Y-86665000D01*
X133576842Y-86722068D01*
X133306589Y-86834010D01*
X133063368Y-86996525D01*
X132931513Y-87128380D01*
X132909502Y-87055820D01*
X132850537Y-86945506D01*
X132771185Y-86848815D01*
X132674494Y-86769463D01*
X132564180Y-86710498D01*
X132444482Y-86674188D01*
X132320000Y-86661928D01*
X130620000Y-86661928D01*
X130495518Y-86674188D01*
X130375820Y-86710498D01*
X130265506Y-86769463D01*
X130168815Y-86848815D01*
X130089463Y-86945506D01*
X130030498Y-87055820D01*
X129994188Y-87175518D01*
X129987837Y-87240000D01*
X129179527Y-87240000D01*
X129170472Y-87210149D01*
X129088405Y-87056613D01*
X128977962Y-86922038D01*
X128843387Y-86811595D01*
X128689851Y-86729528D01*
X128523255Y-86678992D01*
X128350001Y-86661928D01*
X127649999Y-86661928D01*
X127476745Y-86678992D01*
X127310149Y-86729528D01*
X127156613Y-86811595D01*
X127022038Y-86922038D01*
X127000000Y-86948891D01*
X126977962Y-86922038D01*
X126843387Y-86811595D01*
X126689851Y-86729528D01*
X126523255Y-86678992D01*
X126350001Y-86661928D01*
X125649999Y-86661928D01*
X125476745Y-86678992D01*
X125310149Y-86729528D01*
X125156613Y-86811595D01*
X125022038Y-86922038D01*
X124911595Y-87056613D01*
X124829528Y-87210149D01*
X124818249Y-87247330D01*
X124781014Y-87250997D01*
X124637753Y-87294454D01*
X124505724Y-87365026D01*
X124389999Y-87459999D01*
X124366201Y-87488997D01*
X122880288Y-88974911D01*
X122850000Y-88971928D01*
X121150000Y-88971928D01*
X121025518Y-88984188D01*
X120905820Y-89020498D01*
X120795506Y-89079463D01*
X120698815Y-89158815D01*
X120619463Y-89255506D01*
X120560498Y-89365820D01*
X120538487Y-89438380D01*
X120406632Y-89306525D01*
X120163411Y-89144010D01*
X119893158Y-89032068D01*
X119606260Y-88975000D01*
X119313740Y-88975000D01*
X119026842Y-89032068D01*
X118756589Y-89144010D01*
X118513368Y-89306525D01*
X118306525Y-89513368D01*
X118190000Y-89687760D01*
X118073475Y-89513368D01*
X117866632Y-89306525D01*
X117623411Y-89144010D01*
X117353158Y-89032068D01*
X117066260Y-88975000D01*
X116773740Y-88975000D01*
X116553592Y-89018791D01*
X116480000Y-88945199D01*
X116480000Y-86257323D01*
X116483676Y-86220000D01*
X116480000Y-86182677D01*
X116480000Y-86182667D01*
X116469003Y-86071014D01*
X116425546Y-85927753D01*
X116411146Y-85900812D01*
X116354974Y-85795723D01*
X116283799Y-85708997D01*
X116260001Y-85679999D01*
X116231004Y-85656202D01*
X114926304Y-84351503D01*
X114902501Y-84322499D01*
X114786776Y-84227526D01*
X114654747Y-84156954D01*
X114511486Y-84113497D01*
X114399833Y-84102500D01*
X114399822Y-84102500D01*
X114362500Y-84098824D01*
X114325178Y-84102500D01*
X113451294Y-84102500D01*
X113413405Y-84031614D01*
X113302962Y-83897038D01*
X113168386Y-83786595D01*
X113014850Y-83704528D01*
X112848254Y-83653992D01*
X112675000Y-83636928D01*
X112049230Y-83636928D01*
X110960000Y-82547699D01*
X110960000Y-80820000D01*
X111591928Y-80820000D01*
X111591928Y-82420000D01*
X111604188Y-82544482D01*
X111640498Y-82664180D01*
X111699463Y-82774494D01*
X111778815Y-82871185D01*
X111875506Y-82950537D01*
X111985820Y-83009502D01*
X112105518Y-83045812D01*
X112230000Y-83058072D01*
X113830000Y-83058072D01*
X113954482Y-83045812D01*
X114074180Y-83009502D01*
X114184494Y-82950537D01*
X114281185Y-82871185D01*
X114360537Y-82774494D01*
X114419502Y-82664180D01*
X114455812Y-82544482D01*
X114456643Y-82536039D01*
X114655241Y-82734637D01*
X114890273Y-82891680D01*
X115151426Y-82999853D01*
X115428665Y-83055000D01*
X115711335Y-83055000D01*
X115988574Y-82999853D01*
X116249727Y-82891680D01*
X116484759Y-82734637D01*
X116606694Y-82612702D01*
X117296903Y-82612702D01*
X117368486Y-82856671D01*
X117623996Y-82977571D01*
X117898184Y-83046300D01*
X118180512Y-83060217D01*
X118460130Y-83018787D01*
X118726292Y-82923603D01*
X118851514Y-82856671D01*
X118923097Y-82612702D01*
X119836903Y-82612702D01*
X119908486Y-82856671D01*
X120163996Y-82977571D01*
X120438184Y-83046300D01*
X120720512Y-83060217D01*
X121000130Y-83018787D01*
X121266292Y-82923603D01*
X121391514Y-82856671D01*
X121463097Y-82612702D01*
X120650000Y-81799605D01*
X119836903Y-82612702D01*
X118923097Y-82612702D01*
X118110000Y-81799605D01*
X117296903Y-82612702D01*
X116606694Y-82612702D01*
X116684637Y-82534759D01*
X116840915Y-82300872D01*
X116873329Y-82361514D01*
X117117298Y-82433097D01*
X117930395Y-81620000D01*
X118289605Y-81620000D01*
X119102702Y-82433097D01*
X119346671Y-82361514D01*
X119377971Y-82295364D01*
X119413329Y-82361514D01*
X119657298Y-82433097D01*
X120470395Y-81620000D01*
X119657298Y-80806903D01*
X119413329Y-80878486D01*
X119382029Y-80944636D01*
X119346671Y-80878486D01*
X119102702Y-80806903D01*
X118289605Y-81620000D01*
X117930395Y-81620000D01*
X117117298Y-80806903D01*
X116873329Y-80878486D01*
X116842806Y-80942992D01*
X116841680Y-80940273D01*
X116684637Y-80705241D01*
X116606694Y-80627298D01*
X117296903Y-80627298D01*
X118110000Y-81440395D01*
X118923097Y-80627298D01*
X118851514Y-80383329D01*
X118596004Y-80262429D01*
X118321816Y-80193700D01*
X118039488Y-80179783D01*
X117759870Y-80221213D01*
X117493708Y-80316397D01*
X117368486Y-80383329D01*
X117296903Y-80627298D01*
X116606694Y-80627298D01*
X116484759Y-80505363D01*
X116249727Y-80348320D01*
X115988574Y-80240147D01*
X115711335Y-80185000D01*
X115428665Y-80185000D01*
X115151426Y-80240147D01*
X114890273Y-80348320D01*
X114655241Y-80505363D01*
X114456643Y-80703961D01*
X114455812Y-80695518D01*
X114419502Y-80575820D01*
X114360537Y-80465506D01*
X114281185Y-80368815D01*
X114184494Y-80289463D01*
X114074180Y-80230498D01*
X113954482Y-80194188D01*
X113830000Y-80181928D01*
X112230000Y-80181928D01*
X112105518Y-80194188D01*
X111985820Y-80230498D01*
X111875506Y-80289463D01*
X111778815Y-80368815D01*
X111699463Y-80465506D01*
X111640498Y-80575820D01*
X111604188Y-80695518D01*
X111591928Y-80820000D01*
X110960000Y-80820000D01*
X110960000Y-79468061D01*
X118925000Y-79468061D01*
X118925000Y-79671939D01*
X118964774Y-79871898D01*
X119042795Y-80060256D01*
X119156063Y-80229774D01*
X119300226Y-80373937D01*
X119469744Y-80487205D01*
X119658102Y-80565226D01*
X119844251Y-80602253D01*
X119836903Y-80627298D01*
X120650000Y-81440395D01*
X121463097Y-80627298D01*
X121391514Y-80383329D01*
X121278809Y-80330000D01*
X122554501Y-80330000D01*
X122510273Y-80348320D01*
X122275241Y-80505363D01*
X122075363Y-80705241D01*
X121919085Y-80939128D01*
X121886671Y-80878486D01*
X121642702Y-80806903D01*
X120829605Y-81620000D01*
X121642702Y-82433097D01*
X121886671Y-82361514D01*
X121917194Y-82297008D01*
X121918320Y-82299727D01*
X122075363Y-82534759D01*
X122275241Y-82734637D01*
X122510273Y-82891680D01*
X122771426Y-82999853D01*
X123048665Y-83055000D01*
X123331335Y-83055000D01*
X123608574Y-82999853D01*
X123869727Y-82891680D01*
X124104759Y-82734637D01*
X124304637Y-82534759D01*
X124460000Y-82302241D01*
X124615363Y-82534759D01*
X124815241Y-82734637D01*
X125050273Y-82891680D01*
X125311426Y-82999853D01*
X125588665Y-83055000D01*
X125871335Y-83055000D01*
X126148574Y-82999853D01*
X126409727Y-82891680D01*
X126644759Y-82734637D01*
X126844637Y-82534759D01*
X127000000Y-82302241D01*
X127155363Y-82534759D01*
X127355241Y-82734637D01*
X127590273Y-82891680D01*
X127851426Y-82999853D01*
X128128665Y-83055000D01*
X128411335Y-83055000D01*
X128688574Y-82999853D01*
X128949727Y-82891680D01*
X129184759Y-82734637D01*
X129384637Y-82534759D01*
X129540000Y-82302241D01*
X129695363Y-82534759D01*
X129895241Y-82734637D01*
X130130273Y-82891680D01*
X130391426Y-82999853D01*
X130668665Y-83055000D01*
X130951335Y-83055000D01*
X131228574Y-82999853D01*
X131489727Y-82891680D01*
X131724759Y-82734637D01*
X131924637Y-82534759D01*
X132080000Y-82302241D01*
X132235363Y-82534759D01*
X132435241Y-82734637D01*
X132670273Y-82891680D01*
X132931426Y-82999853D01*
X133208665Y-83055000D01*
X133491335Y-83055000D01*
X133768574Y-82999853D01*
X134029727Y-82891680D01*
X134264759Y-82734637D01*
X134464637Y-82534759D01*
X134620000Y-82302241D01*
X134775363Y-82534759D01*
X134975241Y-82734637D01*
X135210273Y-82891680D01*
X135471426Y-82999853D01*
X135748665Y-83055000D01*
X136031335Y-83055000D01*
X136308574Y-82999853D01*
X136569727Y-82891680D01*
X136804759Y-82734637D01*
X137004637Y-82534759D01*
X137160000Y-82302241D01*
X137315363Y-82534759D01*
X137515241Y-82734637D01*
X137750273Y-82891680D01*
X138011426Y-82999853D01*
X138288665Y-83055000D01*
X138571335Y-83055000D01*
X138848574Y-82999853D01*
X139109727Y-82891680D01*
X139344759Y-82734637D01*
X139544637Y-82534759D01*
X139700000Y-82302241D01*
X139855363Y-82534759D01*
X140055241Y-82734637D01*
X140290273Y-82891680D01*
X140551426Y-82999853D01*
X140828665Y-83055000D01*
X141111335Y-83055000D01*
X141388574Y-82999853D01*
X141649727Y-82891680D01*
X141884759Y-82734637D01*
X142084637Y-82534759D01*
X142241680Y-82299727D01*
X142349853Y-82038574D01*
X142405000Y-81761335D01*
X142405000Y-81478665D01*
X142349853Y-81201426D01*
X142241680Y-80940273D01*
X142084637Y-80705241D01*
X141884759Y-80505363D01*
X141649727Y-80348320D01*
X141605499Y-80330000D01*
X141906289Y-80330000D01*
X141950226Y-80373937D01*
X142119744Y-80487205D01*
X142308102Y-80565226D01*
X142508061Y-80605000D01*
X142711939Y-80605000D01*
X142911898Y-80565226D01*
X143100256Y-80487205D01*
X143269774Y-80373937D01*
X143413937Y-80229774D01*
X143527205Y-80060256D01*
X143605226Y-79871898D01*
X143645000Y-79671939D01*
X143645000Y-79468061D01*
X143605226Y-79268102D01*
X143527205Y-79079744D01*
X143413937Y-78910226D01*
X143269774Y-78766063D01*
X143100256Y-78652795D01*
X142911898Y-78574774D01*
X142711939Y-78535000D01*
X142508061Y-78535000D01*
X142308102Y-78574774D01*
X142119744Y-78652795D01*
X141950226Y-78766063D01*
X141906289Y-78810000D01*
X120663711Y-78810000D01*
X120619774Y-78766063D01*
X120450256Y-78652795D01*
X120261898Y-78574774D01*
X120061939Y-78535000D01*
X119858061Y-78535000D01*
X119658102Y-78574774D01*
X119469744Y-78652795D01*
X119300226Y-78766063D01*
X119156063Y-78910226D01*
X119042795Y-79079744D01*
X118964774Y-79268102D01*
X118925000Y-79468061D01*
X110960000Y-79468061D01*
X110960000Y-77558492D01*
X111060755Y-77600226D01*
X111260714Y-77640000D01*
X111464592Y-77640000D01*
X111664551Y-77600226D01*
X111852909Y-77522205D01*
X112022427Y-77408937D01*
X112166590Y-77264774D01*
X112279858Y-77095256D01*
X112357879Y-76906898D01*
X112397653Y-76706939D01*
X112397653Y-76627148D01*
X113728376Y-75296426D01*
X113712795Y-75319744D01*
X113634774Y-75508102D01*
X113595000Y-75708061D01*
X113595000Y-75911939D01*
X113634774Y-76111898D01*
X113712795Y-76300256D01*
X113826063Y-76469774D01*
X113970226Y-76613937D01*
X114139744Y-76727205D01*
X114328102Y-76805226D01*
X114528061Y-76845000D01*
X114731939Y-76845000D01*
X114931898Y-76805226D01*
X115120256Y-76727205D01*
X115289774Y-76613937D01*
X115433937Y-76469774D01*
X115547205Y-76300256D01*
X115625226Y-76111898D01*
X115665000Y-75911939D01*
X115665000Y-75849801D01*
X117484803Y-74030000D01*
X131866289Y-74030000D01*
X131910226Y-74073937D01*
X132079744Y-74187205D01*
X132268102Y-74265226D01*
X132468061Y-74305000D01*
X132671939Y-74305000D01*
X132871898Y-74265226D01*
X133060256Y-74187205D01*
X133229774Y-74073937D01*
X133373937Y-73929774D01*
X133487205Y-73760256D01*
X133565226Y-73571898D01*
X133605000Y-73371939D01*
X133605000Y-73169801D01*
X134946200Y-74511002D01*
G37*
%TD.AperFunction*%
D25*
X116971928Y-62850000D02*
X116984188Y-62974482D01*
X117020498Y-63094180D01*
X117079463Y-63204494D01*
X117158815Y-63301185D01*
X117255506Y-63380537D01*
X117365820Y-63439502D01*
X117485518Y-63475812D01*
X117610000Y-63488072D01*
X117700001Y-63488072D01*
X117700001Y-63572668D01*
X117696324Y-63610000D01*
X117700001Y-63647333D01*
X117710998Y-63758986D01*
X117712421Y-63763676D01*
X117754454Y-63902246D01*
X117825026Y-64034276D01*
X117892362Y-64116324D01*
X117920000Y-64150001D01*
X117948998Y-64173799D01*
X118876200Y-65101002D01*
X118899999Y-65130001D01*
X119015724Y-65224974D01*
X119147753Y-65295546D01*
X119291014Y-65339003D01*
X119402667Y-65350000D01*
X119402676Y-65350000D01*
X119439999Y-65353676D01*
X119477322Y-65350000D01*
X119650604Y-65350000D01*
X119535363Y-65465241D01*
X119380000Y-65697759D01*
X119224637Y-65465241D01*
X119024759Y-65265363D01*
X118789727Y-65108320D01*
X118528574Y-65000147D01*
X118251335Y-64945000D01*
X117968665Y-64945000D01*
X117691426Y-65000147D01*
X117430273Y-65108320D01*
X117195241Y-65265363D01*
X116995363Y-65465241D01*
X116839085Y-65699128D01*
X116806671Y-65638486D01*
X116562702Y-65566903D01*
X115749605Y-66380000D01*
X116562702Y-67193097D01*
X116806671Y-67121514D01*
X116837194Y-67057008D01*
X116838320Y-67059727D01*
X116995363Y-67294759D01*
X117195241Y-67494637D01*
X117430273Y-67651680D01*
X117691426Y-67759853D01*
X117968665Y-67815000D01*
X118251335Y-67815000D01*
X118528574Y-67759853D01*
X118789727Y-67651680D01*
X119024759Y-67494637D01*
X119224637Y-67294759D01*
X119380000Y-67062241D01*
X119535363Y-67294759D01*
X119735241Y-67494637D01*
X119970273Y-67651680D01*
X120231426Y-67759853D01*
X120508665Y-67815000D01*
X120791335Y-67815000D01*
X121068574Y-67759853D01*
X121329727Y-67651680D01*
X121564759Y-67494637D01*
X121764637Y-67294759D01*
X121920000Y-67062241D01*
X122075363Y-67294759D01*
X122275241Y-67494637D01*
X122510273Y-67651680D01*
X122771426Y-67759853D01*
X123048665Y-67815000D01*
X123331335Y-67815000D01*
X123608574Y-67759853D01*
X123869727Y-67651680D01*
X124104759Y-67494637D01*
X124304637Y-67294759D01*
X124460000Y-67062241D01*
X124615363Y-67294759D01*
X124815241Y-67494637D01*
X125050273Y-67651680D01*
X125311426Y-67759853D01*
X125588665Y-67815000D01*
X125871335Y-67815000D01*
X126148574Y-67759853D01*
X126409727Y-67651680D01*
X126644759Y-67494637D01*
X126844637Y-67294759D01*
X127000000Y-67062241D01*
X127155363Y-67294759D01*
X127355241Y-67494637D01*
X127590273Y-67651680D01*
X127851426Y-67759853D01*
X128128665Y-67815000D01*
X128411335Y-67815000D01*
X128688574Y-67759853D01*
X128949727Y-67651680D01*
X129184759Y-67494637D01*
X129384637Y-67294759D01*
X129540000Y-67062241D01*
X129695363Y-67294759D01*
X129895241Y-67494637D01*
X130130273Y-67651680D01*
X130391426Y-67759853D01*
X130668665Y-67815000D01*
X130951335Y-67815000D01*
X131228574Y-67759853D01*
X131489727Y-67651680D01*
X131724759Y-67494637D01*
X131924637Y-67294759D01*
X132080000Y-67062241D01*
X132235363Y-67294759D01*
X132435241Y-67494637D01*
X132590001Y-67598044D01*
X132590001Y-67735198D01*
X132295199Y-68030000D01*
X126547322Y-68030000D01*
X126510000Y-68026324D01*
X126472677Y-68030000D01*
X126472667Y-68030000D01*
X126361014Y-68040997D01*
X126223222Y-68082795D01*
X126217753Y-68084454D01*
X126085723Y-68155026D01*
X126032157Y-68198987D01*
X125969999Y-68249999D01*
X125946201Y-68278998D01*
X125660198Y-68565000D01*
X125598061Y-68565000D01*
X125398102Y-68604774D01*
X125209744Y-68682795D01*
X125040226Y-68796063D01*
X124896063Y-68940226D01*
X124782795Y-69109744D01*
X124704774Y-69298102D01*
X124665000Y-69498061D01*
X124665000Y-69701939D01*
X124704774Y-69901898D01*
X124782795Y-70090256D01*
X124896063Y-70259774D01*
X125040226Y-70403937D01*
X125209744Y-70517205D01*
X125398102Y-70595226D01*
X125598061Y-70635000D01*
X125801939Y-70635000D01*
X126001898Y-70595226D01*
X126190256Y-70517205D01*
X126359774Y-70403937D01*
X126503937Y-70259774D01*
X126617205Y-70090256D01*
X126695226Y-69901898D01*
X126735000Y-69701939D01*
X126735000Y-69639802D01*
X126824802Y-69550000D01*
X132572678Y-69550000D01*
X132590000Y-69551706D01*
X132590000Y-71802677D01*
X132586324Y-71840000D01*
X132590000Y-71877322D01*
X132590000Y-71877332D01*
X132600997Y-71988985D01*
X132635248Y-72101898D01*
X132644454Y-72132246D01*
X132702642Y-72241107D01*
X132671939Y-72235000D01*
X132468061Y-72235000D01*
X132268102Y-72274774D01*
X132079744Y-72352795D01*
X131910226Y-72466063D01*
X131866289Y-72510000D01*
X117207322Y-72510000D01*
X117169999Y-72506324D01*
X117132676Y-72510000D01*
X117132667Y-72510000D01*
X117021014Y-72520997D01*
X116877753Y-72564454D01*
X116745724Y-72635026D01*
X116745722Y-72635027D01*
X116745723Y-72635027D01*
X116658996Y-72706201D01*
X116658992Y-72706205D01*
X116629999Y-72729999D01*
X116606205Y-72758992D01*
X116306628Y-73058569D01*
X116322206Y-73035255D01*
X116400227Y-72846897D01*
X116440001Y-72646938D01*
X116440001Y-72443060D01*
X116400227Y-72243101D01*
X116322206Y-72054743D01*
X116208938Y-71885225D01*
X116064775Y-71741062D01*
X115895257Y-71627794D01*
X115706899Y-71549773D01*
X115506940Y-71509999D01*
X115303062Y-71509999D01*
X115103103Y-71549773D01*
X114914745Y-71627794D01*
X114745227Y-71741062D01*
X114601064Y-71885225D01*
X114487796Y-72054743D01*
X114409775Y-72243101D01*
X114370001Y-72443060D01*
X114370001Y-72505197D01*
X111305199Y-75570000D01*
X111260714Y-75570000D01*
X111060755Y-75609774D01*
X110960000Y-75651508D01*
X110960000Y-66238665D01*
X111595000Y-66238665D01*
X111595000Y-66521335D01*
X111650147Y-66798574D01*
X111758320Y-67059727D01*
X111915363Y-67294759D01*
X112115241Y-67494637D01*
X112350273Y-67651680D01*
X112611426Y-67759853D01*
X112888665Y-67815000D01*
X113171335Y-67815000D01*
X113448574Y-67759853D01*
X113709727Y-67651680D01*
X113944759Y-67494637D01*
X114066694Y-67372702D01*
X114756903Y-67372702D01*
X114828486Y-67616671D01*
X115083996Y-67737571D01*
X115358184Y-67806300D01*
X115640512Y-67820217D01*
X115920130Y-67778787D01*
X116186292Y-67683603D01*
X116311514Y-67616671D01*
X116383097Y-67372702D01*
X115570000Y-66559605D01*
X114756903Y-67372702D01*
X114066694Y-67372702D01*
X114144637Y-67294759D01*
X114300915Y-67060872D01*
X114333329Y-67121514D01*
X114577298Y-67193097D01*
X115390395Y-66380000D01*
X114577298Y-65566903D01*
X114333329Y-65638486D01*
X114302806Y-65702992D01*
X114301680Y-65700273D01*
X114144637Y-65465241D01*
X114066694Y-65387298D01*
X114756903Y-65387298D01*
X115570000Y-66200395D01*
X116383097Y-65387298D01*
X116311514Y-65143329D01*
X116056004Y-65022429D01*
X115781816Y-64953700D01*
X115499488Y-64939783D01*
X115219870Y-64981213D01*
X114953708Y-65076397D01*
X114828486Y-65143329D01*
X114756903Y-65387298D01*
X114066694Y-65387298D01*
X113944759Y-65265363D01*
X113709727Y-65108320D01*
X113448574Y-65000147D01*
X113171335Y-64945000D01*
X112888665Y-64945000D01*
X112611426Y-65000147D01*
X112350273Y-65108320D01*
X112115241Y-65265363D01*
X111915363Y-65465241D01*
X111758320Y-65700273D01*
X111650147Y-65961426D01*
X111595000Y-66238665D01*
X110960000Y-66238665D01*
X110960000Y-64314801D01*
X114014803Y-61260000D01*
X116971928Y-61260000D01*
X116971928Y-62850000D01*
%TA.AperFunction,Conductor*%
D26*
G36*
X116971928Y-62850000D02*
G01*
X116984188Y-62974482D01*
X117020498Y-63094180D01*
X117079463Y-63204494D01*
X117158815Y-63301185D01*
X117255506Y-63380537D01*
X117365820Y-63439502D01*
X117485518Y-63475812D01*
X117610000Y-63488072D01*
X117700001Y-63488072D01*
X117700001Y-63572668D01*
X117696324Y-63610000D01*
X117700001Y-63647333D01*
X117710998Y-63758986D01*
X117712421Y-63763676D01*
X117754454Y-63902246D01*
X117825026Y-64034276D01*
X117892362Y-64116324D01*
X117920000Y-64150001D01*
X117948998Y-64173799D01*
X118876200Y-65101002D01*
X118899999Y-65130001D01*
X119015724Y-65224974D01*
X119147753Y-65295546D01*
X119291014Y-65339003D01*
X119402667Y-65350000D01*
X119402676Y-65350000D01*
X119439999Y-65353676D01*
X119477322Y-65350000D01*
X119650604Y-65350000D01*
X119535363Y-65465241D01*
X119380000Y-65697759D01*
X119224637Y-65465241D01*
X119024759Y-65265363D01*
X118789727Y-65108320D01*
X118528574Y-65000147D01*
X118251335Y-64945000D01*
X117968665Y-64945000D01*
X117691426Y-65000147D01*
X117430273Y-65108320D01*
X117195241Y-65265363D01*
X116995363Y-65465241D01*
X116839085Y-65699128D01*
X116806671Y-65638486D01*
X116562702Y-65566903D01*
X115749605Y-66380000D01*
X116562702Y-67193097D01*
X116806671Y-67121514D01*
X116837194Y-67057008D01*
X116838320Y-67059727D01*
X116995363Y-67294759D01*
X117195241Y-67494637D01*
X117430273Y-67651680D01*
X117691426Y-67759853D01*
X117968665Y-67815000D01*
X118251335Y-67815000D01*
X118528574Y-67759853D01*
X118789727Y-67651680D01*
X119024759Y-67494637D01*
X119224637Y-67294759D01*
X119380000Y-67062241D01*
X119535363Y-67294759D01*
X119735241Y-67494637D01*
X119970273Y-67651680D01*
X120231426Y-67759853D01*
X120508665Y-67815000D01*
X120791335Y-67815000D01*
X121068574Y-67759853D01*
X121329727Y-67651680D01*
X121564759Y-67494637D01*
X121764637Y-67294759D01*
X121920000Y-67062241D01*
X122075363Y-67294759D01*
X122275241Y-67494637D01*
X122510273Y-67651680D01*
X122771426Y-67759853D01*
X123048665Y-67815000D01*
X123331335Y-67815000D01*
X123608574Y-67759853D01*
X123869727Y-67651680D01*
X124104759Y-67494637D01*
X124304637Y-67294759D01*
X124460000Y-67062241D01*
X124615363Y-67294759D01*
X124815241Y-67494637D01*
X125050273Y-67651680D01*
X125311426Y-67759853D01*
X125588665Y-67815000D01*
X125871335Y-67815000D01*
X126148574Y-67759853D01*
X126409727Y-67651680D01*
X126644759Y-67494637D01*
X126844637Y-67294759D01*
X127000000Y-67062241D01*
X127155363Y-67294759D01*
X127355241Y-67494637D01*
X127590273Y-67651680D01*
X127851426Y-67759853D01*
X128128665Y-67815000D01*
X128411335Y-67815000D01*
X128688574Y-67759853D01*
X128949727Y-67651680D01*
X129184759Y-67494637D01*
X129384637Y-67294759D01*
X129540000Y-67062241D01*
X129695363Y-67294759D01*
X129895241Y-67494637D01*
X130130273Y-67651680D01*
X130391426Y-67759853D01*
X130668665Y-67815000D01*
X130951335Y-67815000D01*
X131228574Y-67759853D01*
X131489727Y-67651680D01*
X131724759Y-67494637D01*
X131924637Y-67294759D01*
X132080000Y-67062241D01*
X132235363Y-67294759D01*
X132435241Y-67494637D01*
X132590001Y-67598044D01*
X132590001Y-67735198D01*
X132295199Y-68030000D01*
X126547322Y-68030000D01*
X126510000Y-68026324D01*
X126472677Y-68030000D01*
X126472667Y-68030000D01*
X126361014Y-68040997D01*
X126223222Y-68082795D01*
X126217753Y-68084454D01*
X126085723Y-68155026D01*
X126032157Y-68198987D01*
X125969999Y-68249999D01*
X125946201Y-68278998D01*
X125660198Y-68565000D01*
X125598061Y-68565000D01*
X125398102Y-68604774D01*
X125209744Y-68682795D01*
X125040226Y-68796063D01*
X124896063Y-68940226D01*
X124782795Y-69109744D01*
X124704774Y-69298102D01*
X124665000Y-69498061D01*
X124665000Y-69701939D01*
X124704774Y-69901898D01*
X124782795Y-70090256D01*
X124896063Y-70259774D01*
X125040226Y-70403937D01*
X125209744Y-70517205D01*
X125398102Y-70595226D01*
X125598061Y-70635000D01*
X125801939Y-70635000D01*
X126001898Y-70595226D01*
X126190256Y-70517205D01*
X126359774Y-70403937D01*
X126503937Y-70259774D01*
X126617205Y-70090256D01*
X126695226Y-69901898D01*
X126735000Y-69701939D01*
X126735000Y-69639802D01*
X126824802Y-69550000D01*
X132572678Y-69550000D01*
X132590000Y-69551706D01*
X132590000Y-71802677D01*
X132586324Y-71840000D01*
X132590000Y-71877322D01*
X132590000Y-71877332D01*
X132600997Y-71988985D01*
X132635248Y-72101898D01*
X132644454Y-72132246D01*
X132702642Y-72241107D01*
X132671939Y-72235000D01*
X132468061Y-72235000D01*
X132268102Y-72274774D01*
X132079744Y-72352795D01*
X131910226Y-72466063D01*
X131866289Y-72510000D01*
X117207322Y-72510000D01*
X117169999Y-72506324D01*
X117132676Y-72510000D01*
X117132667Y-72510000D01*
X117021014Y-72520997D01*
X116877753Y-72564454D01*
X116745724Y-72635026D01*
X116745722Y-72635027D01*
X116745723Y-72635027D01*
X116658996Y-72706201D01*
X116658992Y-72706205D01*
X116629999Y-72729999D01*
X116606205Y-72758992D01*
X116306628Y-73058569D01*
X116322206Y-73035255D01*
X116400227Y-72846897D01*
X116440001Y-72646938D01*
X116440001Y-72443060D01*
X116400227Y-72243101D01*
X116322206Y-72054743D01*
X116208938Y-71885225D01*
X116064775Y-71741062D01*
X115895257Y-71627794D01*
X115706899Y-71549773D01*
X115506940Y-71509999D01*
X115303062Y-71509999D01*
X115103103Y-71549773D01*
X114914745Y-71627794D01*
X114745227Y-71741062D01*
X114601064Y-71885225D01*
X114487796Y-72054743D01*
X114409775Y-72243101D01*
X114370001Y-72443060D01*
X114370001Y-72505197D01*
X111305199Y-75570000D01*
X111260714Y-75570000D01*
X111060755Y-75609774D01*
X110960000Y-75651508D01*
X110960000Y-66238665D01*
X111595000Y-66238665D01*
X111595000Y-66521335D01*
X111650147Y-66798574D01*
X111758320Y-67059727D01*
X111915363Y-67294759D01*
X112115241Y-67494637D01*
X112350273Y-67651680D01*
X112611426Y-67759853D01*
X112888665Y-67815000D01*
X113171335Y-67815000D01*
X113448574Y-67759853D01*
X113709727Y-67651680D01*
X113944759Y-67494637D01*
X114066694Y-67372702D01*
X114756903Y-67372702D01*
X114828486Y-67616671D01*
X115083996Y-67737571D01*
X115358184Y-67806300D01*
X115640512Y-67820217D01*
X115920130Y-67778787D01*
X116186292Y-67683603D01*
X116311514Y-67616671D01*
X116383097Y-67372702D01*
X115570000Y-66559605D01*
X114756903Y-67372702D01*
X114066694Y-67372702D01*
X114144637Y-67294759D01*
X114300915Y-67060872D01*
X114333329Y-67121514D01*
X114577298Y-67193097D01*
X115390395Y-66380000D01*
X114577298Y-65566903D01*
X114333329Y-65638486D01*
X114302806Y-65702992D01*
X114301680Y-65700273D01*
X114144637Y-65465241D01*
X114066694Y-65387298D01*
X114756903Y-65387298D01*
X115570000Y-66200395D01*
X116383097Y-65387298D01*
X116311514Y-65143329D01*
X116056004Y-65022429D01*
X115781816Y-64953700D01*
X115499488Y-64939783D01*
X115219870Y-64981213D01*
X114953708Y-65076397D01*
X114828486Y-65143329D01*
X114756903Y-65387298D01*
X114066694Y-65387298D01*
X113944759Y-65265363D01*
X113709727Y-65108320D01*
X113448574Y-65000147D01*
X113171335Y-64945000D01*
X112888665Y-64945000D01*
X112611426Y-65000147D01*
X112350273Y-65108320D01*
X112115241Y-65265363D01*
X111915363Y-65465241D01*
X111758320Y-65700273D01*
X111650147Y-65961426D01*
X111595000Y-66238665D01*
X110960000Y-66238665D01*
X110960000Y-64314801D01*
X114014803Y-61260000D01*
X116971928Y-61260000D01*
X116971928Y-62850000D01*
G37*
%TD.AperFunction*%
%TD*%
M02*
