M48
; DRILL file {KiCad (5.1.10)-1} date 01/27/22 16:25:44
; FORMAT={-:-/ absolute / inch / decimal}
; #@! TF.CreationDate,2022-01-27T16:25:44+08:00
; #@! TF.GenerationSoftware,Kicad,Pcbnew,(5.1.10)-1
FMAT,2
INCH
T1C0.0157
T2C0.0394
T3C0.0433
T4C0.0984
%
G90
G05
T1
X3.7441Y-2.9055
X4.1378Y-2.7283
X4.3567Y-3.6535
X4.3844Y-3.0159
X4.3945Y-3.687
X4.513Y-2.9846
X4.5435Y-2.8561
X4.7228Y-3.1327
X4.9488Y-2.7402
X5.2193Y-2.8846
X5.3622Y-2.8268
X5.4368Y-2.933
X5.5256Y-2.8256
X5.6146Y-3.1327
X5.6591Y-3.015
X5.8031Y-2.6693
X5.8346Y-3.3508
X5.8583Y-2.9134
X5.8799Y-2.7953
X5.889Y-2.9846
X6.2598Y-3.1654
X6.2992Y-2.7165
X6.3386Y-2.874
X6.3386Y-2.9528
X6.4567Y-3.0079
X6.752Y-3.0315
X6.7717Y-2.7953
T2
X3.6614Y-5.0181
X3.6614Y-5.1181
X3.8764Y-3.2181
X3.8764Y-3.3181
X3.8764Y-3.4181
X3.8764Y-3.5181
X3.8764Y-3.6181
X3.8764Y-3.7181
X3.8764Y-3.8181
X3.8764Y-3.9181
X3.8764Y-4.0181
X3.8764Y-4.1181
X3.8764Y-4.2181
X3.8764Y-4.3181
X3.8764Y-4.4181
X3.8764Y-4.5181
X3.8764Y-4.6181
X3.8764Y-4.7181
X3.8764Y-4.8181
X3.8764Y-4.9181
X3.8764Y-5.0181
X3.8764Y-5.1181
X3.9764Y-3.2181
X3.9764Y-3.3181
X3.9764Y-3.4181
X3.9764Y-3.5181
X3.9764Y-3.6181
X3.9764Y-3.7181
X3.9764Y-3.8181
X3.9764Y-3.9181
X3.9764Y-4.0181
X3.9764Y-4.1181
X3.9764Y-4.2181
X3.9764Y-4.3181
X3.9764Y-4.4181
X3.9764Y-4.5181
X3.9764Y-4.6181
X3.9764Y-4.7181
X3.9764Y-4.8181
X3.9764Y-4.9181
X3.9764Y-5.0181
X3.9764Y-5.1181
X4.6031Y-3.5614
X4.6031Y-3.6614
X4.6638Y-2.4409
X4.7031Y-3.5614
X4.7031Y-3.6614
X4.7638Y-2.4409
X4.8031Y-3.5614
X4.8031Y-3.6614
X5.0362Y-2.4409
X5.1362Y-2.4409
X5.176Y-3.4705
X5.176Y-3.6535
X5.2362Y-2.4409
X5.276Y-3.4705
X5.276Y-3.6535
X5.3362Y-2.4409
X5.376Y-3.4705
X5.376Y-3.6535
X5.4362Y-2.4409
X5.5362Y-2.4409
X5.748Y-2.7559
X5.748Y-2.8559
X5.748Y-2.9559
X5.748Y-3.0559
X6.063Y-2.6165
X6.063Y-2.7165
X6.063Y-2.8165
X6.063Y-2.9165
X6.063Y-3.0165
X6.8976Y-3.2913
X7.0551Y-2.4567
X7.0551Y-2.5567
X7.0551Y-2.6567
X7.0551Y-2.7567
X7.0551Y-2.8567
T3
X4.45Y-2.6134
X4.45Y-3.2134
X4.55Y-2.6134
X4.55Y-3.2134
X4.65Y-2.6134
X4.65Y-3.2134
X4.75Y-2.6134
X4.75Y-3.2134
X4.85Y-2.6134
X4.85Y-3.2134
X4.95Y-2.6134
X4.95Y-3.2134
X5.05Y-2.6134
X5.05Y-3.2134
X5.15Y-2.6134
X5.15Y-3.2134
X5.25Y-2.6134
X5.25Y-3.2134
X5.35Y-2.6134
X5.35Y-3.2134
X5.45Y-2.6134
X5.45Y-3.2134
X5.55Y-2.6134
X5.55Y-3.2134
T4
X3.937Y-3.0315
X3.937Y-5.315
X7.3228Y-3.0315
T0
M30
