%TF.GenerationSoftware,KiCad,Pcbnew,(5.1.10)-1*%
%TF.CreationDate,2022-02-24T16:30:35+08:00*%
%TF.ProjectId,hat,6861742e-6b69-4636-9164-5f7063625858,rev?*%
%TF.SameCoordinates,Original*%
%TF.FileFunction,Soldermask,Top*%
%TF.FilePolarity,Negative*%
%FSLAX46Y46*%
G04 Gerber Fmt 4.6, Leading zero omitted, Abs format (unit mm)*
G04 Created by KiCad (PCBNEW (5.1.10)-1) date 2022-02-24 16:30:35*
%MOMM*%
%LPD*%
G01*
G04 APERTURE LIST*
%ADD10C,1.600000*%
%ADD11R,1.600000X1.600000*%
%ADD12O,1.700000X1.700000*%
%ADD13R,1.700000X1.700000*%
%ADD14R,1.060000X0.650000*%
%ADD15R,2.200000X0.600000*%
%ADD16R,2.500000X2.000000*%
%ADD17R,1.500000X1.000000*%
%ADD18R,3.000000X1.524000*%
%ADD19R,1.300000X1.550000*%
%ADD20R,0.800000X0.900000*%
%ADD21C,1.700000*%
%ADD22C,6.000000*%
G04 APERTURE END LIST*
D10*
%TO.C,U4*%
X160230000Y-114630000D03*
X160230000Y-112090000D03*
X160230000Y-109550000D03*
X160230000Y-107010000D03*
X160230000Y-104470000D03*
X160230000Y-101930000D03*
X160230000Y-99390000D03*
X160230000Y-96850000D03*
X160230000Y-94310000D03*
X160230000Y-91770000D03*
X160230000Y-89230000D03*
X160230000Y-86690000D03*
X175470000Y-86690000D03*
X175470000Y-89230000D03*
X175470000Y-91770000D03*
X175470000Y-94310000D03*
X175470000Y-96850000D03*
X175470000Y-99390000D03*
X175470000Y-101930000D03*
X175470000Y-104470000D03*
X175470000Y-107010000D03*
X175470000Y-109550000D03*
X175470000Y-112090000D03*
D11*
X175470000Y-114630000D03*
%TD*%
D12*
%TO.C,J8*%
X158620000Y-117800000D03*
X161160000Y-117800000D03*
X163700000Y-117800000D03*
X166240000Y-117800000D03*
X168780000Y-117800000D03*
X171320000Y-117800000D03*
X173860000Y-117800000D03*
D13*
X176400000Y-117800000D03*
%TD*%
D12*
%TO.C,SPI_PORT1*%
X181470000Y-82800000D03*
X181470000Y-85340000D03*
X181470000Y-87880000D03*
X181470000Y-90420000D03*
X181470000Y-92960000D03*
X181470000Y-95500000D03*
D13*
X181470000Y-98040000D03*
%TD*%
D12*
%TO.C,J3*%
X154900000Y-115280000D03*
X154900000Y-112740000D03*
D13*
X154900000Y-110200000D03*
%TD*%
D12*
%TO.C,J4*%
X123340000Y-95900000D03*
X123340000Y-98440000D03*
X123340000Y-100980000D03*
X123340000Y-103520000D03*
D13*
X123340000Y-106060000D03*
%TD*%
D14*
%TO.C,U5*%
X144180000Y-77440000D03*
X144180000Y-79340000D03*
X141980000Y-79340000D03*
X141980000Y-78390000D03*
X141980000Y-77440000D03*
%TD*%
D15*
%TO.C,U3*%
X144300000Y-101855000D03*
X138300000Y-101855000D03*
X144300000Y-103125000D03*
X138300000Y-103125000D03*
X144300000Y-104395000D03*
X138300000Y-104395000D03*
X144300000Y-105665000D03*
X138300000Y-105665000D03*
X144300000Y-106935000D03*
X138300000Y-106935000D03*
X144300000Y-108205000D03*
X138300000Y-108205000D03*
X144300000Y-109475000D03*
X138300000Y-109475000D03*
X144300000Y-110745000D03*
X138300000Y-110745000D03*
%TD*%
D16*
%TO.C,U2*%
X123070000Y-82285000D03*
D17*
X121220000Y-84510000D03*
D16*
X123070000Y-86735000D03*
D17*
X124820000Y-84510000D03*
%TD*%
D18*
%TO.C,U1*%
X130430000Y-84540000D03*
X130430000Y-86540000D03*
X130430000Y-88540000D03*
X130430000Y-90540000D03*
X130430000Y-92540000D03*
X130430000Y-94540000D03*
X130430000Y-96540000D03*
X130430000Y-98540000D03*
X146430000Y-84540000D03*
X146430000Y-86540000D03*
X146430000Y-88540000D03*
X146430000Y-90540000D03*
X146430000Y-92540000D03*
X146430000Y-94540000D03*
X146430000Y-96540000D03*
X146430000Y-98540000D03*
%TD*%
D19*
%TO.C,SW1*%
X182990000Y-103470000D03*
X178490000Y-103470000D03*
X178490000Y-111420000D03*
X182990000Y-111420000D03*
%TD*%
D12*
%TO.C,SDA_PU1*%
X167060000Y-74980000D03*
X169600000Y-74980000D03*
D13*
X172140000Y-74980000D03*
%TD*%
D12*
%TO.C,SCL_PU1*%
X167070000Y-78590000D03*
X169610000Y-78590000D03*
D13*
X172150000Y-78590000D03*
%TD*%
%TO.C,R6*%
G36*
G01*
X175940000Y-78129999D02*
X175940000Y-79030001D01*
G75*
G02*
X175690001Y-79280000I-249999J0D01*
G01*
X174989999Y-79280000D01*
G75*
G02*
X174740000Y-79030001I0J249999D01*
G01*
X174740000Y-78129999D01*
G75*
G02*
X174989999Y-77880000I249999J0D01*
G01*
X175690001Y-77880000D01*
G75*
G02*
X175940000Y-78129999I0J-249999D01*
G01*
G37*
G36*
G01*
X177940000Y-78129999D02*
X177940000Y-79030001D01*
G75*
G02*
X177690001Y-79280000I-249999J0D01*
G01*
X176989999Y-79280000D01*
G75*
G02*
X176740000Y-79030001I0J249999D01*
G01*
X176740000Y-78129999D01*
G75*
G02*
X176989999Y-77880000I249999J0D01*
G01*
X177690001Y-77880000D01*
G75*
G02*
X177940000Y-78129999I0J-249999D01*
G01*
G37*
%TD*%
%TO.C,R5*%
G36*
G01*
X175930000Y-74559999D02*
X175930000Y-75460001D01*
G75*
G02*
X175680001Y-75710000I-249999J0D01*
G01*
X174979999Y-75710000D01*
G75*
G02*
X174730000Y-75460001I0J249999D01*
G01*
X174730000Y-74559999D01*
G75*
G02*
X174979999Y-74310000I249999J0D01*
G01*
X175680001Y-74310000D01*
G75*
G02*
X175930000Y-74559999I0J-249999D01*
G01*
G37*
G36*
G01*
X177930000Y-74559999D02*
X177930000Y-75460001D01*
G75*
G02*
X177680001Y-75710000I-249999J0D01*
G01*
X176979999Y-75710000D01*
G75*
G02*
X176730000Y-75460001I0J249999D01*
G01*
X176730000Y-74559999D01*
G75*
G02*
X176979999Y-74310000I249999J0D01*
G01*
X177680001Y-74310000D01*
G75*
G02*
X177930000Y-74559999I0J-249999D01*
G01*
G37*
%TD*%
%TO.C,R4*%
G36*
G01*
X152750000Y-79319999D02*
X152750000Y-80220001D01*
G75*
G02*
X152500001Y-80470000I-249999J0D01*
G01*
X151799999Y-80470000D01*
G75*
G02*
X151550000Y-80220001I0J249999D01*
G01*
X151550000Y-79319999D01*
G75*
G02*
X151799999Y-79070000I249999J0D01*
G01*
X152500001Y-79070000D01*
G75*
G02*
X152750000Y-79319999I0J-249999D01*
G01*
G37*
G36*
G01*
X154750000Y-79319999D02*
X154750000Y-80220001D01*
G75*
G02*
X154500001Y-80470000I-249999J0D01*
G01*
X153799999Y-80470000D01*
G75*
G02*
X153550000Y-80220001I0J249999D01*
G01*
X153550000Y-79319999D01*
G75*
G02*
X153799999Y-79070000I249999J0D01*
G01*
X154500001Y-79070000D01*
G75*
G02*
X154750000Y-79319999I0J-249999D01*
G01*
G37*
%TD*%
%TO.C,R3*%
G36*
G01*
X157750000Y-80220001D02*
X157750000Y-79319999D01*
G75*
G02*
X157999999Y-79070000I249999J0D01*
G01*
X158700001Y-79070000D01*
G75*
G02*
X158950000Y-79319999I0J-249999D01*
G01*
X158950000Y-80220001D01*
G75*
G02*
X158700001Y-80470000I-249999J0D01*
G01*
X157999999Y-80470000D01*
G75*
G02*
X157750000Y-80220001I0J249999D01*
G01*
G37*
G36*
G01*
X155750000Y-80220001D02*
X155750000Y-79319999D01*
G75*
G02*
X155999999Y-79070000I249999J0D01*
G01*
X156700001Y-79070000D01*
G75*
G02*
X156950000Y-79319999I0J-249999D01*
G01*
X156950000Y-80220001D01*
G75*
G02*
X156700001Y-80470000I-249999J0D01*
G01*
X155999999Y-80470000D01*
G75*
G02*
X155750000Y-80220001I0J249999D01*
G01*
G37*
%TD*%
%TO.C,R2*%
G36*
G01*
X152740000Y-73209999D02*
X152740000Y-74110001D01*
G75*
G02*
X152490001Y-74360000I-249999J0D01*
G01*
X151789999Y-74360000D01*
G75*
G02*
X151540000Y-74110001I0J249999D01*
G01*
X151540000Y-73209999D01*
G75*
G02*
X151789999Y-72960000I249999J0D01*
G01*
X152490001Y-72960000D01*
G75*
G02*
X152740000Y-73209999I0J-249999D01*
G01*
G37*
G36*
G01*
X154740000Y-73209999D02*
X154740000Y-74110001D01*
G75*
G02*
X154490001Y-74360000I-249999J0D01*
G01*
X153789999Y-74360000D01*
G75*
G02*
X153540000Y-74110001I0J249999D01*
G01*
X153540000Y-73209999D01*
G75*
G02*
X153789999Y-72960000I249999J0D01*
G01*
X154490001Y-72960000D01*
G75*
G02*
X154740000Y-73209999I0J-249999D01*
G01*
G37*
%TD*%
%TO.C,R1*%
G36*
G01*
X156940000Y-73209999D02*
X156940000Y-74110001D01*
G75*
G02*
X156690001Y-74360000I-249999J0D01*
G01*
X155989999Y-74360000D01*
G75*
G02*
X155740000Y-74110001I0J249999D01*
G01*
X155740000Y-73209999D01*
G75*
G02*
X155989999Y-72960000I249999J0D01*
G01*
X156690001Y-72960000D01*
G75*
G02*
X156940000Y-73209999I0J-249999D01*
G01*
G37*
G36*
G01*
X158940000Y-73209999D02*
X158940000Y-74110001D01*
G75*
G02*
X158690001Y-74360000I-249999J0D01*
G01*
X157989999Y-74360000D01*
G75*
G02*
X157740000Y-74110001I0J249999D01*
G01*
X157740000Y-73209999D01*
G75*
G02*
X157989999Y-72960000I249999J0D01*
G01*
X158690001Y-72960000D01*
G75*
G02*
X158940000Y-73209999I0J-249999D01*
G01*
G37*
%TD*%
D20*
%TO.C,Q2*%
X153240000Y-77620000D03*
X152290000Y-75620000D03*
X154190000Y-75620000D03*
%TD*%
%TO.C,Q1*%
X157240000Y-77620000D03*
X156290000Y-75620000D03*
X158190000Y-75620000D03*
%TD*%
D12*
%TO.C,J7*%
X131420000Y-117540000D03*
X131420000Y-115000000D03*
X133960000Y-117540000D03*
X133960000Y-115000000D03*
X136500000Y-117540000D03*
D13*
X136500000Y-115000000D03*
%TD*%
D12*
%TO.C,J6*%
X134100000Y-74770000D03*
X134100000Y-77310000D03*
X131560000Y-74770000D03*
X131560000Y-77310000D03*
X129020000Y-74770000D03*
D13*
X129020000Y-77310000D03*
%TD*%
D21*
%TO.C,J2*%
X127450000Y-84480000D03*
%TD*%
D12*
%TO.C,I2C_PORT1*%
X171850000Y-83160000D03*
X169310000Y-83160000D03*
X166770000Y-83160000D03*
D13*
X164230000Y-83160000D03*
%TD*%
D12*
%TO.C,FAN1*%
X123150000Y-74770000D03*
D13*
X123150000Y-77310000D03*
%TD*%
%TO.C,C5*%
G36*
G01*
X146825000Y-78857500D02*
X147775000Y-78857500D01*
G75*
G02*
X148025000Y-79107500I0J-250000D01*
G01*
X148025000Y-79782500D01*
G75*
G02*
X147775000Y-80032500I-250000J0D01*
G01*
X146825000Y-80032500D01*
G75*
G02*
X146575000Y-79782500I0J250000D01*
G01*
X146575000Y-79107500D01*
G75*
G02*
X146825000Y-78857500I250000J0D01*
G01*
G37*
G36*
G01*
X146825000Y-76782500D02*
X147775000Y-76782500D01*
G75*
G02*
X148025000Y-77032500I0J-250000D01*
G01*
X148025000Y-77707500D01*
G75*
G02*
X147775000Y-77957500I-250000J0D01*
G01*
X146825000Y-77957500D01*
G75*
G02*
X146575000Y-77707500I0J250000D01*
G01*
X146575000Y-77032500D01*
G75*
G02*
X146825000Y-76782500I250000J0D01*
G01*
G37*
%TD*%
%TO.C,C4*%
G36*
G01*
X138325000Y-78827500D02*
X139275000Y-78827500D01*
G75*
G02*
X139525000Y-79077500I0J-250000D01*
G01*
X139525000Y-79752500D01*
G75*
G02*
X139275000Y-80002500I-250000J0D01*
G01*
X138325000Y-80002500D01*
G75*
G02*
X138075000Y-79752500I0J250000D01*
G01*
X138075000Y-79077500D01*
G75*
G02*
X138325000Y-78827500I250000J0D01*
G01*
G37*
G36*
G01*
X138325000Y-76752500D02*
X139275000Y-76752500D01*
G75*
G02*
X139525000Y-77002500I0J-250000D01*
G01*
X139525000Y-77677500D01*
G75*
G02*
X139275000Y-77927500I-250000J0D01*
G01*
X138325000Y-77927500D01*
G75*
G02*
X138075000Y-77677500I0J250000D01*
G01*
X138075000Y-77002500D01*
G75*
G02*
X138325000Y-76752500I250000J0D01*
G01*
G37*
%TD*%
%TO.C,C3*%
G36*
G01*
X143525000Y-115587500D02*
X144475000Y-115587500D01*
G75*
G02*
X144725000Y-115837500I0J-250000D01*
G01*
X144725000Y-116512500D01*
G75*
G02*
X144475000Y-116762500I-250000J0D01*
G01*
X143525000Y-116762500D01*
G75*
G02*
X143275000Y-116512500I0J250000D01*
G01*
X143275000Y-115837500D01*
G75*
G02*
X143525000Y-115587500I250000J0D01*
G01*
G37*
G36*
G01*
X143525000Y-113512500D02*
X144475000Y-113512500D01*
G75*
G02*
X144725000Y-113762500I0J-250000D01*
G01*
X144725000Y-114437500D01*
G75*
G02*
X144475000Y-114687500I-250000J0D01*
G01*
X143525000Y-114687500D01*
G75*
G02*
X143275000Y-114437500I0J250000D01*
G01*
X143275000Y-113762500D01*
G75*
G02*
X143525000Y-113512500I250000J0D01*
G01*
G37*
%TD*%
%TO.C,C2*%
G36*
G01*
X122862500Y-91975000D02*
X122862500Y-92925000D01*
G75*
G02*
X122612500Y-93175000I-250000J0D01*
G01*
X121937500Y-93175000D01*
G75*
G02*
X121687500Y-92925000I0J250000D01*
G01*
X121687500Y-91975000D01*
G75*
G02*
X121937500Y-91725000I250000J0D01*
G01*
X122612500Y-91725000D01*
G75*
G02*
X122862500Y-91975000I0J-250000D01*
G01*
G37*
G36*
G01*
X124937500Y-91975000D02*
X124937500Y-92925000D01*
G75*
G02*
X124687500Y-93175000I-250000J0D01*
G01*
X124012500Y-93175000D01*
G75*
G02*
X123762500Y-92925000I0J250000D01*
G01*
X123762500Y-91975000D01*
G75*
G02*
X124012500Y-91725000I250000J0D01*
G01*
X124687500Y-91725000D01*
G75*
G02*
X124937500Y-91975000I0J-250000D01*
G01*
G37*
%TD*%
%TO.C,C1*%
G36*
G01*
X122847500Y-89605000D02*
X122847500Y-90555000D01*
G75*
G02*
X122597500Y-90805000I-250000J0D01*
G01*
X121922500Y-90805000D01*
G75*
G02*
X121672500Y-90555000I0J250000D01*
G01*
X121672500Y-89605000D01*
G75*
G02*
X121922500Y-89355000I250000J0D01*
G01*
X122597500Y-89355000D01*
G75*
G02*
X122847500Y-89605000I0J-250000D01*
G01*
G37*
G36*
G01*
X124922500Y-89605000D02*
X124922500Y-90555000D01*
G75*
G02*
X124672500Y-90805000I-250000J0D01*
G01*
X123997500Y-90805000D01*
G75*
G02*
X123747500Y-90555000I0J250000D01*
G01*
X123747500Y-89605000D01*
G75*
G02*
X123997500Y-89355000I250000J0D01*
G01*
X124672500Y-89355000D01*
G75*
G02*
X124922500Y-89605000I0J-250000D01*
G01*
G37*
%TD*%
D22*
%TO.C,H3*%
X181500000Y-67500000D03*
%TD*%
%TO.C,H1*%
X123500000Y-116500000D03*
%TD*%
%TO.C,H2*%
X123500000Y-67500000D03*
%TD*%
%TO.C,H4*%
X181500000Y-116500000D03*
%TD*%
D12*
%TO.C,J1*%
X176760000Y-66460000D03*
X176760000Y-69000000D03*
X174220000Y-66460000D03*
X174220000Y-69000000D03*
X171680000Y-66460000D03*
X171680000Y-69000000D03*
X169140000Y-66460000D03*
X169140000Y-69000000D03*
X166600000Y-66460000D03*
X166600000Y-69000000D03*
X164060000Y-66460000D03*
X164060000Y-69000000D03*
X161520000Y-66460000D03*
X161520000Y-69000000D03*
X158980000Y-66460000D03*
X158980000Y-69000000D03*
X156440000Y-66460000D03*
X156440000Y-69000000D03*
X153900000Y-66460000D03*
X153900000Y-69000000D03*
X151360000Y-66460000D03*
X151360000Y-69000000D03*
X148820000Y-66460000D03*
X148820000Y-69000000D03*
X146280000Y-66460000D03*
X146280000Y-69000000D03*
X143740000Y-66460000D03*
X143740000Y-69000000D03*
X141200000Y-66460000D03*
X141200000Y-69000000D03*
X138660000Y-66460000D03*
X138660000Y-69000000D03*
X136120000Y-66460000D03*
X136120000Y-69000000D03*
X133580000Y-66460000D03*
X133580000Y-69000000D03*
X131040000Y-66460000D03*
X131040000Y-69000000D03*
X128500000Y-66460000D03*
D13*
X128500000Y-69000000D03*
%TD*%
%TO.C,J5*%
X152600000Y-106200000D03*
D12*
X152600000Y-103660000D03*
X152600000Y-101120000D03*
X152600000Y-98580000D03*
X152600000Y-96040000D03*
X152600000Y-93500000D03*
X152600000Y-90960000D03*
X152600000Y-88420000D03*
%TD*%
M02*
